<?xml version="1.0" encoding="UTF-8"?>
<svg width="100px" height="100px" viewBox="0 0 100 100" version="1.1" xmlns="http://www.w3.org/2000/svg" xmlns:xlink="http://www.w3.org/1999/xlink">
    <title>C88ACF45-14D9-4F67-A753-E4A1CE1D14D5</title>
    <defs>
        <linearGradient x1="1.65616562%" y1="53.0842618%" x2="97.6417642%" y2="46.2683485%" id="linearGradient-1">
            <stop stop-color="#6E62C6" offset="0%"></stop>
            <stop stop-color="#40249F" offset="100%"></stop>
        </linearGradient>
        <linearGradient x1="114.775115%" y1="-45.8492192%" x2="41.2791198%" y2="6.95624137%" id="linearGradient-2">
            <stop stop-color="#6E62C6" offset="0%"></stop>
            <stop stop-color="#40249F" offset="100%"></stop>
        </linearGradient>
        <linearGradient x1="10.1628758%" y1="-5.18826003%" x2="34.7225273%" y2="-21.4334383%" id="linearGradient-3">
            <stop stop-color="#6E62C6" offset="0%"></stop>
            <stop stop-color="#40249F" offset="100%"></stop>
        </linearGradient>
        <linearGradient x1="29.9662248%" y1="117.025316%" x2="55.6113462%" y2="79.3670886%" id="linearGradient-4">
            <stop stop-color="#6E62C6" offset="0%"></stop>
            <stop stop-color="#40249F" offset="100%"></stop>
        </linearGradient>
        <linearGradient x1="-1.42239878%" y1="51.7338602%" x2="100.615486%" y2="48.2894915%" id="linearGradient-5">
            <stop stop-color="#2A21A6" offset="0%"></stop>
            <stop stop-color="#37146D" offset="100%"></stop>
        </linearGradient>
        <linearGradient x1="-0.88449229%" y1="74.0415448%" x2="57.6141984%" y2="75.7389933%" id="linearGradient-6">
            <stop stop-color="#6E62C6" offset="0%"></stop>
            <stop stop-color="#40249F" offset="100%"></stop>
        </linearGradient>
        <linearGradient x1="-10.4031465%" y1="354.525076%" x2="50.2654867%" y2="294.401347%" id="linearGradient-7">
            <stop stop-color="#6E62C6" offset="0%"></stop>
            <stop stop-color="#40249F" offset="100%"></stop>
        </linearGradient>
        <linearGradient x1="13.4189511%" y1="798.363273%" x2="28.9991672%" y2="723.832335%" id="linearGradient-8">
            <stop stop-color="#6E62C6" offset="0%"></stop>
            <stop stop-color="#40249F" offset="100%"></stop>
        </linearGradient>
        <linearGradient x1="49.1896481%" y1="19.2185184%" x2="63.8019128%" y2="136.43785%" id="linearGradient-9">
            <stop stop-color="#FFE83F" offset="0%"></stop>
            <stop stop-color="#FFB277" offset="100%"></stop>
        </linearGradient>
    </defs>
    <g id="Page-2" stroke="none" stroke-width="1" fill="none" fill-rule="evenodd">
        <g id="Icons" transform="translate(-525.000000, -590.000000)" fill-rule="nonzero">
            <g id="Elements/Graphics/SubjectGraphics/HindiGrammar/Hero" transform="translate(525.000000, 590.000000)">
                <g id="Hindi_grammar_Hero" transform="translate(16.200000, 11.600000)">
                    <g id="Layer0_0_FILL" transform="translate(22.757789, 71.758794)" fill="#633FA8">
                        <path d="M20.7761421,0.623276382 C18.2619493,-0.00510284757 15.3004857,-0.121739363 11.8917514,0.273366834 C8.48301703,0.668473032 5.62206372,1.45212462 3.30889143,2.62432161 C0.989975694,3.81255611 -0.0976891157,5.0481742 0.0458969978,6.33117588 C0.189483111,7.61417755 1.51765466,8.56549414 4.03041165,9.18512563 C6.54316863,9.81933668 9.50463222,9.94326298 12.9148024,9.55690452 C16.3249726,9.17054606 19.1859259,8.37960469 21.4976624,7.1840804 C23.8180139,6.00313568 24.9092684,4.77480737 24.7714257,3.49909548 C24.6335831,2.22338358 23.3018219,1.26477722 20.7761421,0.623276382 Z" id="Path"></path>
                    </g>
                    <g id="Layer0_1_FILL" transform="translate(8.611055, 0.000000)">
                        <path d="M1.02456647,8.14761307 L0.25292645,9.53580402 C0.783071722,11.4294389 1.59400822,12.8425461 2.68573595,13.7751256 C3.58305102,14.2892023 4.65427543,14.4090851 5.64368936,14.1061558 C6.55822567,13.7146147 7.10123161,13.0667923 7.27270717,12.1626884 C7.01827529,12.3891218 6.72873919,12.5730323 6.41532937,12.7072864 C5.42626539,13.0139132 4.35352659,12.893861 3.45737597,12.3762563 C3.31467612,12.2632023 3.17869511,12.1419759 3.05012152,12.013191 C2.15701964,11.0948492 1.48183463,9.80632328 1.02456647,8.14761307 M7.22983828,7.90201005 C7.37152047,8.09218298 7.49359959,8.29610351 7.59422385,8.51067839 C7.84981467,9.01700385 8.00276912,9.56854767 8.04434719,10.133794 C8.66502264,10.3016155 9.32688945,10.0929228 9.73766834,9.59987437 L10.2628122,13.2305276 L12.7920767,15.2701005 L13.5529995,13.8712312 L11.023735,11.8209799 L10.4878739,8.19032663 C9.85198538,8.92357621 9.00532481,8.99476549 7.94789219,8.40389447 C7.69727633,8.26109729 7.45730461,8.10050622 7.22983828,7.92336683 M6.27600548,8.42525126 C6.21000133,8.25054571 6.12746405,8.08249366 6.02950937,7.92336683 C5.9600591,7.79424172 5.87745878,7.67257932 5.78301325,7.56030151 L4.43264322,7.92336683 L3.25374874,5.76633166 L2.49282595,7.16520101 L3.68243764,9.33291457 L5.02209045,8.96984925 C5.38011054,9.37039109 5.58170393,9.88581309 5.59010324,10.4221106 C5.84314174,10.2613981 6.05286784,10.0414337 6.20098492,9.78140704 C6.36309167,9.34732272 6.38924989,8.87445741 6.27600548,8.42525126 M5.93305436,3.87625628 C5.81747664,3.49239059 5.49359463,3.20691766 5.09711101,3.13944724 L4.87204934,3.09673367 C4.72910631,3.07627427 4.58354228,3.0835261 4.44336044,3.11809045 C3.92893376,3.20921273 3.3752106,3.60431323 2.78219095,4.30339196 L0.885242577,2.91520101 L0.113602558,4.31407035 L2.01055094,5.70226131 C2.77504614,4.80527638 3.4716656,4.40305695 4.10040932,4.49560302 C4.78631156,4.60238693 5.15426953,4.93341709 5.20428323,5.48869347 C5.54336461,5.33920689 5.80119238,5.05117465 5.91161992,4.69849246 C5.91405813,4.68077805 5.91405813,4.66281492 5.91161992,4.6451005 C5.97251107,4.39240979 5.97251107,4.12894699 5.91161992,3.87625628 M4.711291,1.48429648 C5.12097471,1.64535116 5.5011832,1.87264972 5.83659936,2.15703518 C5.89044013,2.21052379 5.94771987,2.26046196 6.00807492,2.30653266 C6.4890865,2.84679664 6.83113344,3.49543055 7.00477661,4.19660804 L8.91244221,3.91896985 L9.30897944,6.6419598 C9.62305437,6.42289434 9.9107449,6.16849409 10.1663572,5.88379397 L9.67336501,2.5201005 L7.16553495,2.88316583 L5.02209045,0.993090452 L4.711291,1.48429648 M11.8489612,2.19974874 L12.0418712,3.45979899 L13.2743518,3.28894472 L14.0245573,1.89007538 L11.8489612,2.19974874 Z" id="Shape" fill="#5349CD"></path>
                        <path d="M12.0418712,3.45979899 L11.8489612,2.19974874 L14.0245573,1.89007538 L11.8703956,0 L5.01137323,0.993090452 L7.15481772,2.88316583 L9.66264778,2.5201005 L10.15564,5.88379397 C9.90002767,6.16849409 9.61233715,6.42289434 9.29826222,6.6419598 C8.37801005,7.28978224 7.50277021,7.35741206 6.67254271,6.84484925 C7.07333632,6.022894 7.19375771,5.09300967 7.01549383,4.19660804 C6.84185066,3.49543055 6.49980372,2.84679664 6.01879214,2.30653266 C5.95843709,2.26046196 5.90115736,2.21052379 5.84731658,2.15703518 C5.50865307,1.87164167 5.12475001,1.64429956 4.711291,1.48429648 C3.46809319,1.01444724 2.19274372,1.49141541 0.885242577,2.91520101 L2.77147373,4.30339196 C3.36449338,3.60573702 3.91821654,3.21063652 4.43264322,3.11809045 C4.57282505,3.0835261 4.71838909,3.07627427 4.86133212,3.09673367 L5.08639379,3.13944724 C5.48287741,3.20691766 5.80675942,3.49239059 5.92233714,3.87625628 C5.98322829,4.12894699 5.98322829,4.39240979 5.92233714,4.6451005 C5.92477535,4.66281492 5.92477535,4.68077805 5.92233714,4.69849246 C5.8119096,5.05117465 5.55408183,5.33920689 5.21500046,5.48869347 C4.77130745,5.70226131 4.12184376,5.80263819 3.26446597,5.76633166 L4.44336044,7.92336683 L5.79373047,7.56030151 C5.88444975,7.67306304 5.96344758,7.79470825 6.02950937,7.92336683 C6.12746405,8.08249366 6.21000133,8.25054571 6.27600548,8.42525126 C6.38924989,8.87445741 6.36309167,9.34732272 6.20098492,9.78140704 C6.05286784,10.0414337 5.84314174,10.2613981 5.59010324,10.4221106 C5.22812496,10.634653 4.8081041,10.7280679 4.38977433,10.6890704 C3.17515578,10.6890704 2.11772316,9.81700168 1.21747647,8.07286432 L1.02456647,8.14761307 C1.48040566,9.80632328 2.15559068,11.0948492 3.05012152,12.013191 C3.17869511,12.1419759 3.31467612,12.2632023 3.45737597,12.3762563 C4.35062968,12.8908021 5.41880792,13.0107786 6.40461215,12.7072864 C6.71802197,12.5730323 7.00755807,12.3891218 7.26198995,12.1626884 C7.69375934,11.773577 7.97131661,11.243204 8.04434719,10.6677136 C8.05521165,10.489905 8.05521165,10.3116026 8.04434719,10.133794 C8.00276912,9.56854767 7.84981467,9.01700385 7.59422385,8.51067839 C7.49359959,8.29610351 7.37152047,8.09218298 7.22983828,7.90201005 C7.4607462,8.07958154 7.70431267,8.24018124 7.95860941,8.38253769 C9.01461307,8.98052764 9.86127364,8.90933836 10.4985911,8.16896985 L11.0344523,11.7996231 L13.5637168,13.8498744 L12.0418712,3.45979899 Z" id="Path" fill="#FFCEB6"></path>
                    </g>
                    <g id="Layer0_2_FILL" transform="translate(49.001005, 13.736683)">
                        <path d="M8.26704219,25.5360125 L10.2624611,24.7299515 C9.88150373,24.8324177 9.48401379,24.8579908 9.09310272,24.8051839 C9.050251,24.8084127 9.00721774,24.8084127 8.96436602,24.8051839 L7.16205212,21.1725356 L4.74823887,22.2150412 L6.49691247,25.7832046 C7.09839175,25.8756405 7.71372482,25.7897115 8.26704219,25.5360125 M8.51378754,15.7665532 C8.58276208,15.2454269 8.73110311,14.7379796 8.95363796,14.261906 C9.13423034,13.8722699 9.41577837,13.5382542 9.76897043,13.2946328 L7.71991118,14.3156434 C7.12486152,14.509098 6.6850111,14.9604922 6.40035994,15.6698259 C7.08377244,15.8894556 7.81323215,15.9228415 8.51378754,15.7665532 M13.9850976,8.3937819 L15.7337712,8.86667102 L18.3621456,7.53398349 L14.4893163,6.49147793 L13.9850976,8.3937819 M7.0118593,9.29657022 C6.29903864,9.22299783 5.58874479,9.45758455 5.05935258,9.94141902 C4.84908481,10.1309616 4.66507547,10.3478351 4.51222157,10.5862678 L4.59804604,10.5862678 L10.7559519,12.2413797 L13.2985018,10.9839246 L7.02258736,9.29657022 M3.34286315,8.37228694 C3.46885514,8.11451143 3.61976976,7.86973115 3.79344163,7.6414583 C2.56329087,7.73317012 1.63352577,8.41026137 1.00414631,9.67273202 C-0.0414818277,12.3381071 -0.0843940633,14.6201553 0.875409606,16.5188768 C2.08267383,18.9965292 4.19252542,20.2396544 7.20496436,20.2482524 C7.44576945,20.5919397 7.54562043,21.0151509 7.48389389,21.4304752 C8.00419519,21.8156378 8.70717221,21.8412469 9.25402361,21.49496 L9.41494449,21.3982327 C10.058628,20.6301461 10.1408765,19.88857 9.66168984,19.1735044 L9.66168984,19.1520094 C7.31725137,19.1520094 5.50420942,18.4032683 4.22256398,16.9057861 C3.82269907,16.4327871 3.48720543,15.9087587 3.22485451,15.3474015 C2.60915191,14.1075443 2.38464585,12.7093384 2.58117097,11.3385914 C2.70468548,10.3195935 2.96448934,9.32187578 3.35359121,8.37228694 M0.0708051887,1.56913208 L1.74438238,5.10505301 L6.11070235,6.27652833 C6.52594043,6.23434965 6.94508198,6.2524488 7.35515718,6.33026573 L11.0563375,7.31903389 L11.4961879,5.68541693 L4.10455533,3.69713313 L2.36660979,0.0859798402 L0.0708051887,1.56913208 Z" id="Shape" fill="#443BB8"></path>
                        <path d="M18.3621456,7.53398349 L16.6349281,3.91208273 L2.35588173,0.0859798402 L4.09382728,3.69713313 L11.4961879,5.68541693 L11.0563375,7.31903389 L7.35515718,6.33026573 C6.94508198,6.2524488 6.52594043,6.23434965 6.11070235,6.27652833 C5.17653258,6.36284957 4.32827007,6.85856514 3.79344163,7.63071081 C3.61976976,7.85898367 3.46885514,8.10376395 3.34286315,8.36153946 C2.95376128,9.3111283 2.69395742,10.308846 2.57044291,11.3278439 C2.3739178,12.6985909 2.59842385,14.0967968 3.21412645,15.336654 C3.47647737,15.8980112 3.81197101,16.4220397 4.21183592,16.8950386 C5.49920299,18.3939538 7.31224495,19.1426949 9.65096179,19.1412619 L9.65096179,19.1627569 C10.1301484,19.8792555 10.0479,20.6208317 9.40421643,21.3874852 L9.25402361,21.4842126 C8.70717221,21.8304994 8.00419519,21.8048903 7.48389389,21.4197277 C7.36712067,21.34636 7.25913417,21.2598144 7.16205212,21.1617882 L8.96436602,24.7944364 C9.00721774,24.7976652 9.050251,24.7976652 9.09310272,24.7944364 C9.48401379,24.8472433 9.88150373,24.8216703 10.2624611,24.719204 C10.4263764,24.6769406 10.5847968,24.6156219 10.7344957,24.5364969 C11.320963,24.2355674 11.7643894,23.6910285 12.064775,22.9028799 C12.3279701,21.6705022 11.9381839,20.3628921 10.8954166,18.9800497 C12.0316666,18.45704 12.8631307,17.4376443 13.148309,16.2179474 C13.4773028,14.4983505 12.8336193,13.4092726 11.2172584,12.9507134 C10.8107171,12.9218337 10.4030418,12.9880629 10.0264438,13.1441681 C9.93788793,13.1855012 9.8519067,13.2321587 9.76897043,13.2838853 C9.41577837,13.5275067 9.13423034,13.8615224 8.95363796,14.2511585 C8.73110311,14.7272321 8.58276208,15.2346795 8.51378754,15.7558057 C7.81323215,15.912094 7.08377244,15.8787081 6.40035994,15.6590784 C5.71300613,15.4390486 5.06747531,15.1047995 4.49076546,14.6703102 C3.70261073,13.8377388 3.54168984,12.8203107 4.0080028,11.6180259 C4.11967375,11.2458754 4.28988508,10.8939523 4.51222157,10.5755203 C4.66507547,10.3370876 4.84908481,10.1202141 5.05935258,9.93067154 C5.58874479,9.44683707 6.29903864,9.21225035 7.0118593,9.28582274 L13.2877738,10.9731771 L13.9850976,8.38303442 L14.4893163,6.48073045 L18.3621456,7.53398349 Z" id="Path" fill="#EBB6FF"></path>
                    </g>
                    <g id="Layer0_3_FILL" transform="translate(0.000000, 45.105528)">
                        <path d="M9.92882153,13.1081789 C10.0240797,13.250494 10.1295596,13.3857541 10.244434,13.5128985 L10.244434,13.5128985 L11.2885491,12.5850573 C11.1270953,12.6931202 10.9572178,12.7881451 10.7805428,12.8692221 C10.5039681,12.9864152 10.2133221,13.0674585 9.91585116,13.1103317 M4.07918272,11.2331216 C4.0214315,11.2839614 3.96793216,11.3393988 3.91921477,11.3988844 C3.5618089,12.0102693 3.63818999,12.5900804 4.14835805,13.1383176 C4.8415525,13.9994231 6.00744503,14.4371518 7.64603565,14.4515035 C8.3589041,15.602612 9.44251515,16.47911 10.7200144,16.9379457 C11.7255824,17.2962661 12.8422402,17.1580616 13.7291412,16.5655176 L15.1602058,15.4331638 C14.5515061,15.8547432 13.8187679,16.061605 13.0784608,16.0208683 C12.743809,16.0013476 12.4131504,15.938385 12.094874,15.8335779 C11.6253582,15.6694104 11.1786409,15.4466164 10.7654107,15.1705266 C10.2799627,14.8486935 9.84320006,14.4594121 9.46837325,14.0144925 C9.286788,13.7992161 9.10952622,13.553801 8.93874963,13.3019276 C7.27854172,13.2875759 6.08959074,12.8419538 5.37189669,11.9650613 C4.87617892,11.5028842 4.77834224,10.7559138 5.13842996,10.1825729 L4.08782964,11.2309688 M6.40304145,6.54440201 C6.19726962,6.66317823 6.10989947,6.91412704 6.19767719,7.1342593 C6.33281795,7.40730897 6.60771478,7.58429974 6.91320951,7.59495075 C6.93093328,7.59950803 6.94952895,7.59950803 6.96725273,7.59495075 L7.9097666,7.47224322 C7.94205707,7.46689658 7.97386455,7.45897769 8.00488268,7.44856281 L10.1277006,6.83502513 C10.1780873,6.83174773 10.228635,6.83174773 10.2790216,6.83502513 C10.4234228,6.8304064 10.5679665,6.83688389 10.7113674,6.8544 L11.7014394,5.85336482 L6.40736491,6.54440201 M7.70440234,4.2366392 L9.18302501,4.04289045 L9.00792496,2.70817688 L3.2966368,3.45518593 L1.15868677,1.54137889 L0,2.92991156 L2.10120064,4.80496884 L7.69359369,4.07948744 L7.71521098,4.24094472 M4.89199284,6.30759799 C4.87349522,6.12967593 4.87931284,5.95007751 4.90928668,5.77371256 C4.95798554,5.45474444 5.09667584,5.15611717 5.30920655,4.91260704 L4.21104819,6.09662714 C4.1536962,6.15477016 4.10025756,6.21661695 4.05108024,6.28176482 C3.74201979,6.64921947 3.59958796,7.12773846 3.65764555,7.60356181 C3.74900696,8.50983051 4.20817597,9.3395949 4.92874224,9.9005608 C5.04466314,9.95849973 5.1645825,10.008139 5.28758926,10.0491015 C5.54920541,9.82170998 5.8850186,9.6969719 6.23226486,9.69820101 C6.65931785,9.77009874 7.0568369,9.96205855 7.37798125,10.2514613 C7.38471677,10.2686381 7.39789507,10.2825337 7.41473065,10.2902111 C7.72442104,10.255477 8.03041799,10.1935229 8.32914204,10.1050734 C9.10952622,9.69174271 9.69319307,9.53674372 10.0758191,9.63792362 C10.4303427,9.83813065 10.5816637,10.0856985 10.5341057,10.3827799 C10.8382303,10.2426644 11.1278433,10.0732224 11.3987973,9.8768804 C11.4701343,9.81660302 11.5393097,9.75847839 11.6149702,9.69820101 C12.071095,9.14063518 12.0148901,8.69931859 11.4398701,8.37640402 C11.0993503,8.32291096 10.7506028,8.36464672 10.4325044,8.49695879 C10.1682204,8.59958228 9.91112186,8.71968731 9.66292886,8.85647035 C8.6410477,9.17689514 7.54156478,9.15268122 6.53490692,8.78758191 C6.42033528,8.74452663 6.31873402,8.70147136 6.20200065,8.65626332 C5.46702291,8.081516 4.99872349,7.23352304 4.90496322,6.30759799 M11.4268998,3.59081005 L12.5401902,3.44442211 L13.9517993,2.06665327 L11.2690935,2.41755377 L11.4268998,3.59081005 Z" id="Shape" fill="#5349CD"></path>
                        <path d="M11.4139294,3.59081005 L11.2690935,2.41755377 L13.9496376,2.06665327 L11.8116875,0.152846231 L1.16949542,1.54137889 L3.30744545,3.45518593 L9.02954225,2.70817688 L9.2046423,4.04289045 L7.72601963,4.2366392 L5.93610798,4.46913769 C5.70528258,4.58105927 5.4965868,4.73346813 5.3200152,4.91906533 C5.10748448,5.16257546 4.96879419,5.46120273 4.92009532,5.78017085 C4.89012149,5.9565358 4.88430386,6.13613422 4.90280149,6.31405628 C4.99656176,7.23998133 5.46486118,8.08797429 6.19983892,8.66272161 C6.30792537,8.70792965 6.41601182,8.75098492 6.53274519,8.7940402 C7.53940305,9.15913951 8.63888597,9.18335343 9.66076713,8.86292864 C9.90896013,8.7261456 10.1660587,8.60604057 10.4303427,8.50341709 C10.748441,8.37110502 11.0971885,8.32936925 11.4377084,8.38286231 C12.0127283,8.70577688 12.0689333,9.14709347 11.6128085,9.7046593 C11.5479566,9.76493668 11.4787813,9.82306131 11.3966356,9.88333869 C11.1256816,10.0796807 10.8360686,10.2491227 10.5319439,10.3892382 C10.0716402,10.5783661 9.59474633,10.7246605 9.10736449,10.8262492 C8.38678814,10.9281467 7.8182534,10.7494673 7.40176027,10.2902111 C7.3849247,10.2825337 7.3717464,10.2686381 7.36501088,10.2514613 C7.04428753,9.96513178 6.64843891,9.77549435 6.22361794,9.7046593 C5.87637168,9.70343019 5.5405585,9.82816827 5.27894234,10.0555598 L5.14275341,10.1825729 C4.7826657,10.7559138 4.88050238,11.5028842 5.37622015,11.9650613 C6.0967965,12.8419538 7.28574748,13.2875759 8.94307309,13.3019276 C9.11384968,13.553801 9.29111146,13.7927578 9.4726967,14.0144925 C9.84752352,14.4594121 10.2842861,14.8486935 10.7697341,15.1705266 C11.1829644,15.4466164 11.6296817,15.6694104 12.0991975,15.8335779 C12.4174739,15.938385 12.7481324,16.0013476 13.0827842,16.0208683 C13.8216354,16.0606338 14.5526945,15.8538165 15.1602058,15.4331638 L13.1044015,13.7260221 C11.863569,14.2369447 10.9131288,14.1651859 10.2530809,13.5107457 L10.2530809,13.5107457 C10.1382065,13.3836013 10.0327266,13.2483412 9.93746845,13.1060261 C10.2349394,13.063153 10.5255854,12.9821097 10.8021601,12.8649166 C10.9788351,12.7838395 11.1487126,12.6888147 11.3101664,12.5807518 C11.5085539,12.4350286 11.6911281,12.2690845 11.8549221,12.0856161 C12.2141165,11.6692236 12.4946231,11.1914956 12.6828643,10.6755558 C13.004163,9.82347039 12.9777814,8.87999038 12.6093656,8.04703116 C12.216202,7.36694278 11.5155307,6.91969838 10.730823,6.84794171 C10.5874221,6.8304256 10.4428783,6.82394811 10.2984772,6.82856683 C10.2480905,6.82528944 10.1975428,6.82528944 10.1471562,6.82856683 L8.02649997,7.45286834 C7.99548184,7.46328322 7.96367436,7.47120211 7.93138389,7.47654874 C7.62870728,7.58020414 7.30813228,7.62194036 6.98887002,7.59925628 C6.97114625,7.60381356 6.95255058,7.60381356 6.9348268,7.59925628 C6.62933207,7.58860527 6.35443524,7.41161449 6.21929448,7.13856482 C6.13151676,6.91843257 6.21888691,6.66748376 6.42465874,6.54870754 L11.7014394,5.85336482 L11.4139294,3.59081005 Z" id="Path" fill="#E3C6FF"></path>
                    </g>
                    <g id="Layer0_4_FILL" transform="translate(3.075377, 13.736683)">
                        <path d="M38.2178496,44.1292924 C37.8690436,44.2727083 37.5045127,44.4197096 37.1242569,44.5702963 L29.7157022,38.7511967 L26.306266,41.0422655 L33.6397702,46.8075841 C35.5339014,46.0919389 37.0599279,45.199175 38.2178496,44.1292924 Z" id="Path" fill="url(#linearGradient-1)"></path>
                        <path d="M33.2430748,28.995331 C33.1576895,29.0138289 33.0748775,29.0427263 32.9964804,29.0813805 C31.4707521,29.6403721 30.0946656,30.5460059 28.9759189,31.7274036 C29.1638836,31.6335782 29.357207,31.5509703 29.5548797,31.4800112 C29.6383463,31.4418826 29.7243198,31.4095382 29.8121957,31.3832055 C30.8256951,31.0157877 31.8975637,30.8371724 32.9750374,30.8561521 C33.9080489,30.8675825 34.8117219,31.1848915 35.5481968,31.7596722 C36.4059166,33.3673643 36.4345072,34.8302063 35.6339687,36.1481983 C35.4575944,36.4364221 35.2489578,36.7034749 35.0121219,36.9441565 C35.8256396,36.5740767 36.6043028,36.1312864 37.3386868,35.621145 C38.0498076,35.1271935 38.6580053,34.4987593 39.1291769,33.77108 C39.339643,33.4294309 39.5020034,33.0602232 39.6116443,32.6739485 C39.8618125,31.6413541 39.6723994,30.5406372 39.0434049,29.3717977 C38.2947085,28.778991 37.3703979,28.4534892 36.4166381,28.4467652 C35.877416,28.4283454 35.3378584,28.4716497 34.8084134,28.5758395 C34.2759927,28.6721103 33.7524265,28.8124196 33.2430748,28.995331 L33.2430748,28.995331 Z" id="Path" fill="url(#linearGradient-2)"></path>
                        <path d="M17.6111316,32.1684075 C17.1107951,32.7133879 16.6461969,33.265539 16.217337,33.824861 C13.6942112,37.1320313 12.718555,40.4413529 13.2903682,43.7528257 C13.5175041,45.0447566 13.9443595,46.2931752 14.5555049,47.4529556 C15.7760218,49.1659716 17.2897617,50.6481917 19.0263693,51.8307256 C20.1424639,52.5956922 21.3355129,53.241014 22.5859064,53.7560838 C27.8179971,55.9503469 34.6726078,56.402107 43.1497384,55.111364 L46.719997,52.9601257 C45.0903294,53.2125376 43.5178432,53.3989783 42.0025382,53.5194476 C35.0978939,54.073033 29.4333694,53.2914164 25.0089648,51.1745979 C24.0911107,50.7334365 23.2060887,50.2265867 22.360755,49.6579749 C20.6095249,48.4531454 19.078871,46.9539271 17.8362831,45.226424 C17.221487,44.051038 16.7877067,42.7890043 16.5497034,41.4832693 C15.9921855,38.1345084 16.9857109,34.7929182 19.5302797,31.4584989 C19.8026057,31.0863346 20.0942304,30.7206241 20.4094424,30.3613673 L20.9347958,29.7912892 L17.6111316,32.1684075 Z" id="Path" fill="url(#linearGradient-3)"></path>
                        <path d="M14.083759,19.8202996 C14.35288,19.3481881 14.7052646,18.9290607 15.1237442,18.5833376 L12.7328503,20.4656711 C12.2915573,20.7206668 11.8874724,21.0355699 11.5320426,21.4014598 C10.8576968,22.1107986 10.4097183,23.0059096 10.2454629,23.9721896 C10.1287859,24.610593 10.0999264,25.2620334 10.1596909,25.908304 C10.5671078,28.2603246 11.9251642,29.9992422 14.2338599,31.1250569 C14.3196319,31.1680817 14.4118368,31.2111064 14.5126189,31.2541312 C15.5045883,31.6761663 16.5401954,31.9864108 17.6004101,32.1791637 L20.9133528,29.8128015 C20.24862,29.6693857 19.630347,29.5080428 19.0585338,29.3287729 C18.6253919,29.2080994 18.2023765,29.0534509 17.7933971,28.8662567 L17.2573222,28.6081081 C15.0644186,27.4736884 13.7742651,25.7562832 13.3868616,23.4558924 C13.3270668,22.8067902 13.3486786,22.1527262 13.4511906,21.5090217 C13.5626515,20.9135198 13.7767103,20.3420625 14.083759,19.8202996 L14.083759,19.8202996 Z" id="Path" fill="url(#linearGradient-4)"></path>
                        <path d="M22.1141605,25.1983954 C22.0932088,25.2900301 22.0859818,25.384285 22.0927175,25.4780564 L36.3630306,22.2511989 L39.8582387,19.7665187 L23.3792972,23.4774048 C23.2282016,23.5775917 23.0848428,23.6890543 22.9504373,23.8108467 C22.5257448,24.1672931 22.2314988,24.6555055 22.1141605,25.1983954 Z" id="Path" fill="url(#linearGradient-5)"></path>
                        <path d="M10.9638032,13.9151505 L7.74735402,16.4858803 L25.5128752,12.4630646 L28.8794254,9.87082249 L10.9638032,13.9151505 M37.1993074,7.98848898 L37.5960028,9.7417482 L41.0483249,8.95654622 L44.5971406,6.31052311 L37.1993074,7.98848898 Z" id="Shape" fill="url(#linearGradient-6)"></path>
                        <polygon id="Path" fill="url(#linearGradient-7)" points="3.17999613 7.60126609 0.0600403854 10.2150206 7.74735402 16.4858803 10.9638032 13.9151505"></polygon>
                        <polygon id="Path" fill="url(#linearGradient-8)" points="29.9086891 14.4206915 28.8794254 9.87082249 25.5128752 12.4630646 26.1240006 15.2596744"></polygon>
                        <path d="M28.8794254,9.87082249 L29.9086891,14.4206915 L26.1240006,15.2704306 L17.5789671,17.2065451 C16.7862622,17.4514803 16.0424042,17.8337136 15.3810602,18.3359452 C15.2887647,18.4073728 15.2026833,18.486536 15.1237442,18.5725814 C14.7052646,18.9183045 14.35288,19.337432 14.083759,19.8095434 C13.7816123,20.3287213 13.5712304,20.8964069 13.4619121,21.4875093 C13.3594001,22.1312138 13.3377883,22.7852778 13.3975831,23.43438 C13.7835571,25.7290342 15.0737106,27.4464394 17.2680437,28.5865957 L17.8041186,28.8447443 C18.213098,29.0319385 18.6361134,29.186587 19.0692553,29.3072605 C19.6410685,29.4865304 20.2593415,29.6478733 20.9240743,29.7912892 L20.3987209,30.3613673 C20.0835089,30.7206241 19.7918842,31.0863346 19.5195582,31.4584989 C16.9749894,34.7929182 15.981464,38.1345084 16.5389819,41.4832693 C16.7769852,42.7890043 17.2107655,44.051038 17.8255616,45.226424 C19.0681495,46.9539271 20.5988035,48.4531454 22.3500335,49.6579749 C23.1953672,50.2265867 24.0803892,50.7334365 24.9982433,51.1745979 C29.4212184,53.2899822 35.0857428,54.0715988 41.9918167,53.5194476 C43.5071217,53.39611 45.0796079,53.2096693 46.7092756,52.9601257 L45.4548604,51.1961103 C42.1669345,51.2319642 39.3257377,50.9809864 36.9312699,50.4431769 C34.4438825,49.8895915 32.406798,49.0434378 30.8200164,47.9047157 C30.7399626,47.8401785 30.6649121,47.7756414 30.594865,47.7111042 C28.2418537,45.6889402 26.8123207,43.465994 26.306266,41.0422655 C26.1236247,40.2238553 26.0515019,39.3845234 26.0918361,38.5468291 C26.0918361,38.2822267 26.1132791,38.0197757 26.1347221,37.7616271 C26.2331329,36.9745489 26.3981243,36.1972992 26.6279109,35.4382897 C26.6922399,35.2016535 26.7672904,34.9693198 26.8530624,34.7391373 C27.3998312,33.6330022 28.1121221,32.617333 28.9651974,31.7274036 C30.0839441,30.5460059 31.4600306,29.6403721 32.9857589,29.0813805 C33.064156,29.0427263 33.146968,29.0138289 33.2323533,28.995331 C33.7448659,28.8081926 34.2720477,28.6642776 34.8084134,28.5650833 C35.3378584,28.4608935 35.877416,28.4175892 36.4166381,28.436009 C37.3753486,28.4434034 38.3039415,28.7728709 39.0541264,29.3717977 C39.6831209,30.539203 39.872534,31.6399199 39.6223658,32.6739485 C39.5127248,33.0602232 39.3503645,33.4294309 39.1398984,33.77108 C38.6687268,34.4987593 38.0605291,35.1271935 37.3494083,35.621145 C36.6150243,36.1312864 35.8363611,36.5740767 35.0228434,36.9441565 C33.307245,37.6942471 31.5319801,38.298711 29.7157022,38.7511967 L37.1242569,44.5702963 C37.5045127,44.4268804 37.8690436,44.2798791 38.2178496,44.1292924 C42.8924225,42.0053032 44.9974098,38.5884197 44.5328116,33.8786419 C43.9538507,30.2645616 41.4593157,27.478708 37.0492064,25.5210811 C35.7258155,25.2262352 34.373526,25.0819091 33.0179234,25.0908335 C29.8443601,25.1266874 26.8780792,26.1270133 24.1190805,28.0918109 C22.6395139,27.5755137 21.9604857,26.7042622 22.081996,25.4780564 C22.0752603,25.384285 22.0824873,25.2900301 22.103439,25.1983954 C22.2264832,24.6526034 22.5285077,24.164013 22.9611588,23.8108467 C23.0955643,23.6890543 23.2389231,23.5775917 23.3900187,23.4774048 L39.8582387,19.7665187 L37.6067243,9.7417482 L37.1993074,7.98848898 L44.5971406,6.31052311 L36.824055,0.0289072647 L3.17999613,7.60126609 L10.9638032,13.9151505 L28.8794254,9.87082249 Z" id="Path" fill="url(#linearGradient-9)"></path>
                    </g>
                    <g id="Layer0_5_MEMBER_0_FILL" transform="translate(24.397990, 1.845226)">
                        <path d="M0.384152341,1.35964031 C0.128555148,1.7068391 0.027090758,2.14391647 0.103591642,2.56820947 C0.161644312,3.001699 0.395867548,3.39207106 0.751039408,3.64728908 C1.0982382,3.90288627 1.53531558,4.00435066 1.95960857,3.92784978 C2.2812731,3.88566041 2.58242235,3.74637888 2.82287226,3.52859032 L3.48111082,2.90272415 C3.37535105,2.99465272 3.25950939,3.07429386 3.13580534,3.14012166 C2.99373646,3.19997237 2.84530214,3.24341657 2.6933827,3.26961121 C2.267729,3.33921431 1.83199496,3.23417128 1.48481354,2.97825972 C0.80267972,2.49126351 0.605917394,1.56366969 1.03160011,0.841682095 C1.05734414,0.78735983 1.08998569,0.736584081 1.12871727,0.690610949 C1.15820767,0.639206411 1.194505,0.592019883 1.23662523,0.5503306 L0.761830204,0.99275324 C0.658410332,1.05949171 0.567170832,1.14343205 0.492060302,1.24094155 C0.459687913,1.28410473 0.420841047,1.31647712 0.384152341,1.35964031 Z" id="Path" fill="#5349CD"></path>
                        <path d="M3.40557524,0.334514679 C3.05409411,0.0792709272 2.61390391,-0.0220117736 2.18621529,0.0539539804 C1.89602519,0.0913736227 1.62264787,0.211210256 1.39848717,0.399259455 C1.3389385,0.443266928 1.2846301,0.493954763 1.23662523,0.5503306 C1.194505,0.592019883 1.15820767,0.639206411 1.12871727,0.690610949 C1.08998569,0.736584081 1.05734414,0.78735983 1.03160011,0.841682095 C0.605917394,1.56366969 0.80267972,2.49126351 1.48481354,2.97825972 C1.83199496,3.23417128 2.267729,3.33921431 2.6933827,3.26961121 C2.84530214,3.24341657 2.99373646,3.19997237 3.13580534,3.14012166 C3.25950939,3.07429386 3.37535105,2.99465272 3.48111082,2.90272415 L3.54585559,2.85956096 C3.89872314,2.52414303 4.08651767,2.0507028 4.05951222,1.56460467 C4.03250676,1.07850653 3.79342528,0.628781632 3.40557524,0.334514679 L3.40557524,0.334514679 Z" id="Path" fill="#FFCEB6"></path>
                    </g>
                    <g id="Layer0_5_MEMBER_1_FILL" transform="translate(25.423116, 8.406030)">
                        <path d="M0.740248611,0.971171648 C0.63682874,1.03791012 0.54558924,1.12185046 0.470478709,1.21935996 C0.433790003,1.25604866 0.399259455,1.29489553 0.362570748,1.33805871 C0.106973555,1.68525751 0.0055091658,2.12233488 0.0820100503,2.54662788 C0.14006272,2.98011741 0.374285956,3.37048947 0.729457815,3.62570748 C1.07665661,3.88130468 1.51373398,3.98276907 1.93802698,3.90626818 C2.2596915,3.86407881 2.56084076,3.72479728 2.80129066,3.50700873 L3.45952923,2.89193335 C3.35376945,2.98386192 3.2379278,3.06350306 3.11422375,3.12933086 C2.97215487,3.18918158 2.82372055,3.23262577 2.67180111,3.25882042 C2.24614741,3.32842352 1.81041337,3.22338049 1.46323195,2.96746892 C0.781098127,2.48047271 0.584335802,1.55287889 1.01001851,0.830891299 C1.03576255,0.776569034 1.0684041,0.725793285 1.10713568,0.679820153 C1.13662608,0.628415615 1.17292341,0.581229087 1.21504364,0.539539804 L0.740248611,0.971171648 Z" id="Path" fill="#5349CD"></path>
                        <path d="M3.38399365,0.312933086 C3.03251252,0.0576893351 2.59232232,-0.0435933658 2.16463369,0.0323723883 C1.8744436,0.0697920305 1.60106628,0.189628664 1.37690558,0.377677863 C1.3173569,0.421685336 1.26304851,0.472373171 1.21504364,0.528749008 C1.17292341,0.570438291 1.13662608,0.617624819 1.10713568,0.669029357 C1.0684041,0.715002489 1.03576255,0.765778238 1.01001851,0.820100503 C0.584335802,1.5420881 0.781098127,2.46968192 1.46323195,2.95667813 C1.81041337,3.21258969 2.24614741,3.31763272 2.67180111,3.24802962 C2.82372055,3.22183497 2.97215487,3.17839078 3.11422375,3.11854007 C3.2379278,3.05271226 3.35376945,2.97307112 3.45952923,2.88114255 L3.524274,2.83797937 C3.87714154,2.50256144 4.06493608,2.02912121 4.03793062,1.54302307 C4.01092517,1.05692494 3.77184369,0.607200039 3.38399365,0.312933086 L3.38399365,0.312933086 Z" id="Path" fill="#FFCEB6"></path>
                    </g>
                    <g id="Layer0_6_FILL" transform="translate(53.101508, 49.206030)">
                        <polygon id="Path" fill="#433AA8" points="2.03853553 17.0455731 0.0834745154 17.0237757 3.00508256 20.5549558 4.59768844 20.5331584"></polygon>
                        <polygon id="Path" fill="#5349CD" points="6.62963388 0.0435948162 5.06997846 0.0544935202 0.0724910266 17.0237757 0.0834745154 17.0237757 2.03853553 17.0455731"></polygon>
                        <polygon id="Path" fill="#FFCEB6" points="2.03853553 17.0455731 4.59768844 20.5331584 9.18878679 3.53118011 6.62963388 0.0435948162"></polygon>
                    </g>
                </g>
            </g>
        </g>
    </g>
</svg>