<?xml version="1.0" encoding="UTF-8"?>
<svg width="500px" height="501px" viewBox="0 0 500 501" version="1.1" xmlns="http://www.w3.org/2000/svg" xmlns:xlink="http://www.w3.org/1999/xlink">
    <title>SubjectGraphics/History/Hero</title>
    <defs>
        <radialGradient cx="22.043093%" cy="329.643852%" fx="22.043093%" fy="329.643852%" r="149.81654%" gradientTransform="translate(0.220431,3.296439),scale(1.000000,0.974143),rotate(1.535978),translate(-0.220431,-3.296439)" id="radialGradient-1">
            <stop stop-color="#FFFD8E" offset="85.49%"></stop>
            <stop stop-color="#FFE52E" offset="90.98%"></stop>
            <stop stop-color="#FFFD8E" offset="96.08%"></stop>
        </radialGradient>
        <radialGradient cx="-49.6496108%" cy="54.539944%" fx="-49.6496108%" fy="54.539944%" r="156.944175%" gradientTransform="translate(-0.496496,0.545399),scale(1.000000,0.385537),rotate(9.997359),translate(0.496496,-0.545399)" id="radialGradient-2">
            <stop stop-color="#FFFD8E" offset="85.49%"></stop>
            <stop stop-color="#FFE52E" offset="90.98%"></stop>
            <stop stop-color="#FFFD8E" offset="96.08%"></stop>
        </radialGradient>
        <radialGradient cx="62.9617404%" cy="20.6928833%" fx="62.9617404%" fy="20.6928833%" r="79.6644368%" gradientTransform="translate(0.629617,0.206929),scale(1.000000,0.999613),rotate(9.997359),translate(-0.629617,-0.206929)" id="radialGradient-3">
            <stop stop-color="#FDFFDE" offset="0%"></stop>
            <stop stop-color="#FAFCA0" offset="53.73%"></stop>
            <stop stop-color="#F7CA5B" offset="78.43%"></stop>
            <stop stop-color="#FFF679" offset="87.06%"></stop>
        </radialGradient>
        <radialGradient cx="47.5155814%" cy="34.3351615%" fx="47.5155814%" fy="34.3351615%" r="54.9636811%" gradientTransform="translate(0.475156,0.343352),scale(1.000000,0.999830),rotate(9.997359),translate(-0.475156,-0.343352)" id="radialGradient-4">
            <stop stop-color="#BD5E2B" offset="70.59%"></stop>
            <stop stop-color="#B85A28" offset="77.25%"></stop>
            <stop stop-color="#7E2C16" offset="98.82%"></stop>
        </radialGradient>
        <radialGradient cx="46.724411%" cy="14.6348745%" fx="46.724411%" fy="14.6348745%" r="90.5233196%" gradientTransform="translate(0.467244,0.146349),scale(1.000000,0.999876),rotate(9.997359),translate(-0.467244,-0.146349)" id="radialGradient-5">
            <stop stop-color="#F08E2E" offset="26.67%"></stop>
            <stop stop-color="#C4622D" offset="68.24%"></stop>
            <stop stop-color="#C4622D" offset="77.25%"></stop>
            <stop stop-color="#85280F" offset="98.82%"></stop>
        </radialGradient>
    </defs>
    <g id="Symbols" stroke="none" stroke-width="1" fill="none" fill-rule="evenodd">
        <g id="Group" transform="translate(-0.010141, -0.200000)">
            <rect id="Rectangle" x="100.410141" y="18" width="325.6" height="465.2"></rect>
            <path d="M274.710141,437 C290.710141,429.8 298.410141,422.1 297.710141,413.9 C297.010141,405.7 288.110141,399.4 271.110141,395.1 C254.110141,390.8 233.910141,389.7 210.410141,391.8 C187.010141,393.8 167.310141,398.5 151.210141,405.7 C135.210141,413 127.610141,420.7 128.310141,428.9 C129.010141,437.1 137.910141,443.3 154.910141,447.6 C171.910141,452 192.210141,453.1 215.610141,451 C239.110141,448.9 258.710141,444.2 274.710141,437 Z" id="Path" fill-opacity="0.1569" fill="#081E9F" fill-rule="nonzero"></path>
            <rect id="Rectangle" x="100.410141" y="18" width="325.6" height="465.2"></rect>
            <path d="M239.872069,49.466825 C238.951939,49.760358 238.338519,50.2740408 237.801777,51.0812565 C237.265034,51.8884722 237.188357,52.695688 237.265034,53.6496702 C237.418389,54.5302692 237.878454,55.2641017 238.645229,55.9245509 L282.811457,92.5427922 C283.501554,93.1298581 284.345006,93.4967744 285.341813,93.4967744 C286.338621,93.4967744 287.182073,93.2032414 287.87217,92.6161754 C288.638945,92.0291094 289.09901,91.2218937 289.252365,90.3412947 L299.14376,34.423259 C299.297115,33.54266 299.14376,32.662061 298.607017,31.8548453 C298.070275,31.0476295 297.380178,30.3871803 296.460048,30.1670305 C295.539918,29.8001143 294.619788,29.8001143 293.699659,30.1670305 L239.872069,49.466825 Z" id="Path" fill="url(#radialGradient-1)" fill-rule="nonzero" transform="translate(268.219987, 61.694309) rotate(9.205959) translate(-268.219987, -61.694309) "></path>
            <path d="M291.810141,53.6 L283.010141,74.8 C309.610141,86 334.310141,105.9 356.910141,134.4 C383.610141,172.5 392.910141,214.6 384.810141,260.4 C377.210141,303.5 356.310141,338.1 322.110141,364.2 C319.610141,366.2 318.110141,368.8 317.610141,371.8 C317.210141,374.9 318.010141,377.8 319.910141,380.3 C321.910141,382.8 324.410141,384.3 327.510141,384.7 C330.710141,385.2 333.510141,384.4 336.110141,382.5 C375.010141,352.7 398.710141,313.4 407.510141,264.3 C416.710141,212.2 406.110141,164.5 375.810141,121.1 C353.610141,89.6 325.610141,67.1 291.810141,53.6 Z" id="Path" fill="url(#radialGradient-2)" fill-rule="nonzero"></path>
            <path d="M293.501544,46.8261699 C293.101545,46.2261706 292.601545,45.9261709 291.801546,45.826171 L252.401591,38.826179 C251.701592,38.7261791 251.101593,38.826179 250.401594,39.2261786 C249.801594,39.6261781 249.501595,40.1261775 249.401595,40.9261766 C249.301595,41.6261758 249.401595,42.2261751 249.801594,42.9261743 C250.201594,43.5261737 250.701593,43.8261733 251.501592,43.9261732 L290.901547,50.9261652 C291.601547,51.0261651 292.201546,50.9261652 292.901545,50.5261657 C293.501544,50.1261662 293.801544,49.6261667 293.901544,48.8261676 C294.101544,48.1261684 293.901544,47.4261692 293.501544,46.8261699 Z" id="Path" fill="#FFFFFF" fill-rule="nonzero" transform="translate(271.672766, 44.876172) rotate(-19.715927) translate(-271.672766, -44.876172) "></path>
            <path d="M242.810141,108 C208.110141,101.9 176.410141,108.9 147.410141,129.2 C118.610141,149.4 101.210141,176.8 95.0101415,211.4 C88.9101415,246.1 95.9101415,277.8 116.110141,306.7 C136.310141,335.5 163.710141,353 198.410141,359.2 C233.110141,365.3 264.810141,358.3 293.710141,338.1 C322.610141,317.9 340.010141,290.5 346.110141,255.8 C352.210141,221.1 345.210141,189.4 325.010141,160.6 C305.010141,131.6 277.510141,114.1 242.810141,108 Z" id="Path" fill="url(#radialGradient-3)" fill-rule="nonzero"></path>
            <path d="M276.610141,180.9 C276.210141,166.9 269.510141,155.2 256.510141,145.7 C243.510141,136.2 227.910141,131.7 209.910141,132.2 C191.910141,132.7 176.610141,138 164.010141,148.1 C151.410141,158.2 145.410141,170.2 145.810141,184.2 C146.210141,198.1 152.910141,209.8 165.910141,219.3 C178.910141,228.8 194.510141,233.3 212.510141,232.9 C230.510141,232.4 245.810141,227.1 258.410141,216.9 C270.810141,206.8 276.910141,194.8 276.610141,180.9 Z" id="Path" fill-opacity="0.5294" fill="#FFFFFF" fill-rule="nonzero"></path>
            <path d="M331.710141,170.7 C329.810141,167.5 327.810141,164.4 325.710141,161.3 C322.410141,156.7 319.110141,152.4 315.510141,148.4 C296.610141,127.2 272.510141,114 243.410141,108.9 C208.710141,102.8 177.010141,109.8 148.010141,130.1 C119.210141,150.3 101.810141,177.7 95.6101415,212.3 C89.5101415,247 96.5101415,278.7 116.710141,307.6 C117.410141,308.5 118.110141,309.6 118.710141,310.4 C103.210141,284 98.1101415,255.4 103.610141,224.4 C109.710141,189.7 127.110141,162.3 156.010141,142.2 C184.910141,122.1 216.710141,114.9 251.410141,121 C280.510141,126.1 304.510141,139.3 323.510141,160.5 C326.310141,163.7 329.010141,167 331.710141,170.7 Z" id="Path" fill-opacity="0.2392" fill="#6699CC" fill-rule="nonzero"></path>
            <path d="M245.610141,91.4 C206.310141,84.5 170.410141,92.4 137.810141,115.3 C105.210141,138.2 85.4101415,169.3 78.4101415,208.5 C71.5101415,247.8 79.4101415,283.8 102.310141,316.4 C125.210141,349 156.310141,368.9 195.510141,375.8 C206.210141,377.7 216.710141,378.5 226.910141,378.1 C253.610141,377.2 278.710141,368.7 302.110141,352.6 C302.510141,352.3 302.810141,352 303.310141,351.8 C336.010141,328.9 355.710141,297.9 362.710141,258.7 C369.710141,219.4 361.710141,183.4 338.810141,150.8 C316.010141,118 284.910141,98.3 245.610141,91.4 M148.910141,131.1 C177.210141,111.3 208.310141,104.4 242.210141,110.4 C276.310141,116.4 303.110141,133.6 323.010141,161.8 C342.810141,190.1 349.710141,221.3 343.710141,255.2 C337.710141,289.3 320.610141,316.1 292.310141,335.9 C264.010141,355.8 232.910141,362.7 198.910141,356.7 C164.910141,350.7 138.110141,333.5 118.210141,305.3 C98.4101415,277 91.4101415,245.8 97.5101415,211.8 C103.510141,177.8 120.610141,151 148.910141,131.1 Z" id="Shape" fill="url(#radialGradient-4)" fill-rule="nonzero"></path>
            <path d="M244.610141,97.8 C234.710141,96 225.110141,95.3 215.710141,95.6 C190.910141,96.2 167.610141,103.6 145.810141,117.9 C144.410141,118.8 143.010141,119.7 141.710141,120.7 C110.510141,142.6 91.6101415,172.2 85.0101415,209.6 C78.4101415,247.1 86.0101415,281.4 107.910141,312.5 C129.710141,343.7 159.410141,362.6 196.810141,369.3 C206.810141,371.1 216.510141,371.8 226.110141,371.5 C226.210141,371.5 226.310141,371.5 226.510141,371.5 C252.110141,370.8 276.110141,362.7 298.410141,347.3 C298.410141,347.2 298.510141,347.2 298.510141,347.2 C299.010141,346.8 299.310141,346.5 299.810141,346.3 C330.910141,324.5 349.810141,294.9 356.410141,257.4 C363.010141,220 355.410141,185.7 333.610141,154.5 C311.710141,123.2 282.110141,104.4 244.610141,97.8 M216.010141,102.1 C224.910141,101.9 234.010141,102.6 243.410141,104.2 C279.110141,110.5 307.410141,128.5 328.210141,158.1 C348.910141,187.8 356.210141,220.4 350.010141,256.2 C343.710141,291.9 325.710141,320.1 296.110141,341 C295.710141,341.3 295.410141,341.6 294.910141,341.8 C294.810141,341.8 294.710141,341.9 294.610141,342 C273.210141,356.7 250.310141,364.3 225.810141,365 L225.710141,365 C216.610141,365.2 207.410141,364.5 197.910141,362.9 C162.310141,356.6 134.010141,338.6 113.210141,308.9 C92.4101415,279.2 85.2101415,246.6 91.4101415,210.8 C97.7101415,175.2 115.710141,147 145.310141,126.1 C146.410141,125.4 147.610141,124.6 148.710141,123.9 C148.910141,123.7 149.110141,123.6 149.310141,123.5 C170.110141,109.7 192.410141,102.7 216.010141,102.1 Z" id="Shape" fill="url(#radialGradient-5)" fill-rule="nonzero"></path>
            <path d="M187.19621,102.935964 C186.396215,101.735971 185.196222,101.035975 183.796231,100.835977 L178.996261,100.035982 C177.596269,99.7359835 176.196278,100.035982 174.996286,100.835977 C173.796293,101.635972 172.996298,102.835964 172.896299,104.235956 C172.796299,105.635947 172.896299,107.035938 173.696294,108.135931 C174.496289,109.335924 175.696281,110.135919 177.096273,110.335918 L181.896243,111.135913 C183.296234,111.435911 184.696225,111.035913 185.796218,110.235918 C186.996211,109.435923 187.796206,108.235931 187.996205,106.935939 C188.296203,105.435948 188.096204,104.135956 187.19621,102.935964 Z" id="Path" fill="#FFFFFF" fill-rule="nonzero" transform="translate(180.495269, 105.578693) rotate(-24.994658) translate(-180.495269, -105.578693) "></path>
            <path d="M333.110141,257.7 C334.710141,256.7 335.610141,255.2 335.910141,253.4 C336.210141,251.6 335.810141,250 334.710141,248.4 C333.710141,246.9 332.210141,246 330.410141,245.7 L318.310141,243.6 C316.510141,243.3 314.910141,243.7 313.310141,244.8 C311.810141,245.8 310.910141,247.3 310.610141,249.1 C310.310141,250.9 310.710141,252.5 311.710141,254 C312.810141,255.6 314.210141,256.4 316.110141,256.7 L328.210141,258.8 C330.010141,259.2 331.610141,258.7 333.110141,257.7 M200.010141,325 C198.410141,326 197.610141,327.4 197.210141,329.3 L195.210141,341.4 C194.910141,343.3 195.310141,344.9 196.410141,346.4 C197.410141,347.9 198.810141,348.8 200.710141,349.1 C202.510141,349.4 204.110141,349 205.710141,347.9 C207.210141,346.9 208.110141,345.5 208.410141,343.6 L210.410141,331.5 C210.710141,329.7 210.310141,328.1 209.310141,326.6 C208.310141,325.1 206.810141,324.2 205.010141,323.9 C203.210141,323.6 201.510141,324 200.010141,325 M127.310141,222.6 C128.810141,221.5 129.710141,220 130.110141,218.2 C130.410141,216.4 130.010141,214.8 129.010141,213.3 C128.010141,211.7 126.510141,210.8 124.710141,210.5 L112.610141,208.5 C112.410141,208.5 112.310141,208.4 112.210141,208.4 C110.510141,208.1 108.910141,208.6 107.510141,209.6 C106.010141,210.6 105.110141,212.1 104.810141,213.9 C104.510141,215.7 104.910141,217.3 105.910141,218.9 C106.910141,220.3 108.210141,221.2 109.910141,221.5 C110.010141,221.5 110.110141,221.5 110.310141,221.6 L122.410141,223.6 C124.310141,224 125.910141,223.6 127.310141,222.6 M244.410141,120.9 C243.310141,119.4 241.910141,118.5 240.010141,118.2 C238.210141,117.9 236.610141,118.3 235.110141,119.3 C233.610141,120.3 232.710141,121.7 232.410141,123.6 L230.410141,135.7 C230.110141,137.5 230.510141,139.1 231.510141,140.6 C232.510141,142.1 234.010141,143 235.810141,143.3 C237.610141,143.6 239.210141,143.2 240.710141,142.2 C242.210141,141.2 243.110141,139.7 243.410141,137.9 L245.410141,125.8 C245.810141,124.1 245.410141,122.4 244.410141,120.9 Z" id="Shape" fill="#DB7558" fill-rule="nonzero"></path>
            <path d="M300.555977,310.256238 L300.555977,310.256238 C301.227685,310.352196 301.995352,310.256238 302.475144,309.776446 C303.146852,309.296654 303.434727,308.816863 303.530685,308.049196 L305.929644,294.61503 C306.025602,293.943321 305.929644,293.271613 305.449852,292.695863 C304.97006,292.024155 304.490269,291.73628 303.722602,291.640322 L303.722602,291.640322 C303.050894,291.544363 302.379185,291.640322 301.803435,292.120113 C301.131727,292.599905 300.843852,293.079697 300.747894,293.847363 L298.348936,307.281529 C298.252977,307.953238 298.348936,308.624946 298.828727,309.200696 C299.212561,309.680488 299.884269,310.064321 300.555977,310.256238 Z" id="Path" fill="#F3B19E" fill-rule="nonzero" transform="translate(302.139290, 300.948280) rotate(119.690525) translate(-302.139290, -300.948280) "></path>
            <path d="M255.728157,342.062936 L255.728157,342.062936 C256.399853,342.158893 257.167507,342.062936 257.64729,341.583153 C258.318986,341.103369 258.606856,340.623586 258.702813,339.855933 L261.101729,326.422002 C261.197686,325.750305 261.101729,325.078609 260.621946,324.502869 C260.142163,323.831172 259.66238,323.543302 258.894726,323.447345 L258.894726,323.447345 C258.22303,323.351389 257.551333,323.447345 256.975593,323.927129 C256.399853,324.406912 256.016027,324.886695 255.92007,325.654348 L253.521154,339.08828 C253.425197,339.759976 253.521154,340.431673 254.000937,341.007413 C254.48072,341.583153 254.960504,341.871023 255.728157,342.062936 Z" id="Path" fill="#F3B19E" fill-rule="nonzero" transform="translate(257.311442, 332.755141) rotate(149.693458) translate(-257.311442, -332.755141) "></path>
            <path d="M151.024417,324.246274 L151.024417,324.246274 C151.696126,324.342232 152.463792,324.246274 152.943584,323.766482 C153.615292,323.28669 153.903167,322.806899 153.999126,322.039232 L156.398084,308.605066 C156.494042,307.933357 156.398084,307.261649 155.918292,306.685899 C155.438501,306.110149 154.958709,305.726316 154.191042,305.630358 L154.191042,305.630358 C153.519334,305.534399 152.847626,305.630358 152.271876,306.110149 C151.600167,306.589941 151.312292,307.069733 151.216334,307.837399 L148.817376,321.271565 C148.721417,321.943274 148.817376,322.614982 149.297167,323.190732 C149.776959,323.766482 150.256751,324.150315 151.024417,324.246274 Z" id="Path" fill="#F3B19E" fill-rule="nonzero" transform="translate(152.607730, 314.938316) rotate(-150.309475) translate(-152.607730, -314.938316) "></path>
            <path d="M181.883433,142.871017 L181.883433,142.871017 C182.55513,142.966974 183.322783,142.871017 183.802566,142.391234 C184.474263,141.91145 184.762133,141.431667 184.858089,140.664014 L187.352962,127.230083 C187.448919,126.558386 187.352962,125.88669 186.873179,125.31095 C186.393396,124.639253 185.913612,124.351383 185.145959,124.255427 L185.145959,124.255427 C184.474263,124.15947 183.802566,124.255427 183.226826,124.73521 C182.651086,125.214993 182.26726,125.694776 182.171303,126.46243 L179.772387,139.896361 C179.67643,140.568057 179.772387,141.239754 180.25217,141.815494 C180.635997,142.391234 181.307693,142.77506 181.883433,142.871017 Z" id="Path" fill="#F3B19E" fill-rule="nonzero" transform="translate(183.562674, 133.563222) rotate(-30.306542) translate(-183.562674, -133.563222) "></path>
            <path d="M286.613471,160.641318 L286.613471,160.641318 C287.285179,160.737276 288.052846,160.641318 288.532637,160.161526 C289.204346,159.681734 289.492221,159.201943 289.588179,158.434276 L291.987137,145.00011 C292.083096,144.328401 291.987137,143.656693 291.507346,143.080943 C291.027554,142.409235 290.547762,142.12136 289.780096,142.025402 L289.780096,142.025402 C289.108387,141.929443 288.436679,142.025402 287.860929,142.505193 C287.285179,142.984985 286.901346,143.464776 286.805387,144.232443 L284.406429,157.666609 C284.310471,158.338318 284.406429,159.010026 284.886221,159.585776 C285.366012,160.257484 286.037721,160.641318 286.613471,160.641318 Z" id="Path" fill="#F3B19E" fill-rule="nonzero" transform="translate(288.196783, 151.333360) rotate(29.690525) translate(-288.196783, -151.333360) "></path>
            <path d="M137.081911,174.631354 L137.081911,174.631354 C137.753619,174.727312 138.521286,174.631354 139.001078,174.151562 C139.672786,173.67177 139.960661,173.191979 140.056619,172.424312 L142.455577,158.990146 C142.551536,158.318437 142.455577,157.646729 141.975786,157.070979 C141.495994,156.399271 141.016203,156.111396 140.248536,156.015438 L140.248536,156.015438 C139.576828,155.919479 138.905119,156.015438 138.329369,156.495229 C137.753619,156.975021 137.369786,157.454812 137.273828,158.222479 L134.874869,171.656645 C134.778911,172.328354 134.874869,173.000062 135.354661,173.575812 C135.738494,174.24752 136.314244,174.631354 137.081911,174.631354 Z" id="Path" fill="#F3B19E" fill-rule="nonzero" transform="translate(138.665223, 165.323396) rotate(-60.309475) translate(-138.665223, -165.323396) "></path>
            <path d="M119.240603,279.406993 L119.240603,279.406993 C119.9123,279.502949 120.679953,279.406993 121.159736,278.927209 C121.831433,278.447426 122.119303,277.967643 122.21526,277.19999 L124.614176,263.766058 C124.710133,263.094362 124.614176,262.422665 124.134393,261.846925 C123.654609,261.175229 123.174826,260.887359 122.407173,260.791402 L122.407173,260.791402 C121.735476,260.695446 121.06378,260.791402 120.48804,261.271185 C119.816343,261.750969 119.528473,262.230752 119.432517,262.998405 L117.0336,276.432336 C116.937644,277.104033 117.0336,277.77573 117.513384,278.351469 C117.993167,279.023166 118.47295,279.311036 119.240603,279.406993 Z" id="Path" fill="#F3B19E" fill-rule="nonzero" transform="translate(120.823888, 270.099197) rotate(-120.306542) translate(-120.823888, -270.099197) "></path>
            <path d="M318.3841,205.575382 L318.3841,205.575382 C319.055797,205.671339 319.82345,205.575382 320.303233,205.095599 C320.97493,204.615816 321.2628,204.136033 321.358756,203.36838 L323.757673,189.934448 C323.853629,189.262752 323.757673,188.591055 323.277889,188.015315 C322.798106,187.343619 322.318323,187.055749 321.55067,186.959792 L321.55067,186.959792 C320.878973,186.863835 320.207276,186.959792 319.631537,187.439575 C319.055797,187.919359 318.67197,188.399142 318.576013,189.166795 L316.177097,202.600726 C316.08114,203.272423 316.177097,203.944119 316.65688,204.519859 C317.136664,205.095599 317.616447,205.383469 318.3841,205.575382 Z" id="Path" fill="#F3B19E" fill-rule="nonzero" transform="translate(319.967385, 196.267587) rotate(59.693458) translate(-319.967385, -196.267587) "></path>
            <path d="M205.810141,334.2 C206.510141,333.6 207.010141,333 207.210141,332.1 C207.410141,331.2 207.210141,330.4 206.610141,329.7 C206.010141,329 205.410141,328.5 204.510141,328.3 C203.610141,328.1 202.810141,328.3 202.110141,328.9 C201.410141,329.5 200.910141,330.1 200.710141,331 C200.510141,331.9 200.710141,332.7 201.310141,333.4 C201.910141,334.1 202.510141,334.6 203.410141,334.8 C204.310141,335 205.010141,334.8 205.810141,334.2 M329.210141,248.7 C328.810141,248.2 328.510141,248 327.810141,247.9 L318.210141,246.2 C317.610141,246.1 317.110141,246.2 316.610141,246.6 C316.110141,247 315.910141,247.4 315.810141,248 C315.710141,248.6 315.810141,249.1 316.210141,249.6 C316.610141,250.1 317.010141,250.4 317.610141,250.5 L327.210141,252.2 C327.810141,252.3 328.310141,252.2 328.810141,251.8 C329.310141,251.5 329.610141,251.1 329.710141,250.4 C329.710141,249.8 329.510141,249.3 329.210141,248.7 M125.310141,213.5 C124.910141,213 124.610141,212.8 123.910141,212.7 L114.310141,211 C113.710141,210.9 113.210141,211 112.710141,211.4 C112.210141,211.8 112.010141,212.2 111.910141,212.8 C111.810141,213.4 111.910141,213.9 112.310141,214.4 C112.710141,214.9 113.110141,215.2 113.710141,215.3 L123.310141,217 C123.910141,217.1 124.410141,217 124.910141,216.6 C125.410141,216.3 125.710141,215.9 125.810141,215.2 C125.810141,214.5 125.610141,213.9 125.310141,213.5 M241.110141,126.3 C241.810141,125.7 242.310141,125.1 242.510141,124.2 C242.710141,123.3 242.510141,122.5 241.910141,121.8 C241.310141,121.1 240.710141,120.6 239.810141,120.4 C238.910141,120.2 238.110141,120.4 237.410141,121 C236.710141,121.6 236.210141,122.2 236.010141,123.1 C235.810141,124 236.010141,124.8 236.610141,125.5 C237.210141,126.2 237.810141,126.7 238.710141,126.9 C239.510141,127 240.410141,126.9 241.110141,126.3 Z" id="Shape" fill="#F78666" fill-rule="nonzero"></path>
            <path d="M159.110141,177.5 L159.110141,177.5 C157.710141,178.8 157.010141,180.3 156.810141,182.2 C156.710141,184.1 157.310141,185.6 158.510141,187 L209.110141,243.7 C209.010141,245.7 209.410141,247.6 210.010141,249.6 C211.310141,253.4 213.810141,256.1 217.410141,257.8 C221.010141,259.6 224.810141,259.8 228.610141,258.3 C231.610141,257.2 234.010141,255.4 235.710141,252.8 L277.310141,256.9 C279.610141,257.1 281.710141,256.5 283.510141,255 C285.310141,253.5 286.310141,251.7 286.510141,249.3 C286.710141,247 286.110141,244.9 284.610141,243.2 C283.110141,241.4 281.310141,240.4 278.910141,240.1 L235.410141,235.8 C234.010141,233.8 232.110141,232.4 229.810141,231.2 C226.210141,229.5 222.410141,229.3 218.610141,230.7 C217.910141,231 217.110141,231.3 216.510141,231.6 L168.510141,178 C167.310141,176.6 165.710141,175.9 163.810141,175.8 C162.010141,175.7 160.410141,176.3 159.110141,177.5 Z" id="Path" fill-opacity="0.3686" fill="#6699CC" fill-rule="nonzero"></path>
            <path d="M260.392588,211.057196 C260.872433,208.753942 260.296619,206.642626 258.953054,204.819216 C257.609489,202.899837 255.786079,201.74821 253.482825,201.364334 C251.179571,200.980459 249.068254,201.460303 247.244845,202.803868 C245.325466,204.147433 244.173839,205.970843 243.885932,208.274097 L234.480977,261.632823 C234.001132,263.936077 234.576946,266.047393 235.920511,267.870803 C237.264076,269.694213 239.087485,270.941809 241.39074,271.325685 C243.693994,271.70956 245.709342,271.229716 247.532751,269.98212 C249.356161,268.734523 250.603757,266.815145 250.987633,264.51189 L260.392588,211.057196 Z" id="Path" fill="#DB7558" fill-rule="nonzero" transform="translate(247.436782, 236.345546) rotate(85.590116) translate(-247.436782, -236.345546) "></path>
            <path d="M261.511094,214.022326 C261.607063,213.350543 261.511094,212.678761 261.03125,212.102947 C260.551405,211.527134 260.07156,211.143258 259.303809,211.047289 L259.303809,211.047289 C258.632026,210.95132 257.960244,211.047289 257.38443,211.527134 C256.808617,212.006978 256.424741,212.486823 256.328772,213.254574 L248.555289,257.112375 C248.45932,257.784158 248.555289,258.45594 249.035133,259.031754 C249.514978,259.607568 249.994823,259.991443 250.762574,260.183381 L250.762574,260.183381 C251.434357,260.27935 252.106139,260.183381 252.681953,259.703537 C253.353735,259.223692 253.641642,258.743847 253.737611,257.976096 L261.511094,214.022326 Z" id="Path" fill="#FF9A64" fill-rule="nonzero" transform="translate(255.033191, 235.615335) rotate(85.590116) translate(-255.033191, -235.615335) "></path>
            <path d="M205.984745,164.229736 C206.36862,162.40633 205.888776,160.774862 204.929089,159.239363 C203.873433,157.703863 202.433903,156.840145 200.610497,156.45627 L200.610497,156.45627 C198.88306,156.072395 197.155623,156.552239 195.620124,157.511926 C194.084624,158.471613 193.220906,160.007112 192.837031,161.830518 L178.345755,243.499894 C177.96188,245.323299 178.441724,246.954768 179.401411,248.490267 C180.361098,250.025766 181.896598,250.889485 183.720003,251.27336 L183.720003,251.27336 C185.543409,251.657235 187.174877,251.177391 188.710376,250.217704 C190.245876,249.162048 191.109594,247.722517 191.493469,245.899112 L205.984745,164.229736 M193.988656,176.129856 C194.372531,175.84195 194.756405,175.745981 195.236249,175.84195 C195.716093,175.937919 196.003999,176.225825 196.291905,176.513731 C196.579811,176.897606 196.67578,177.281481 196.579811,177.761324 L184.775659,244.459581 C184.67969,244.939425 184.391784,245.227331 184.103878,245.515237 C183.720003,245.803143 183.336128,245.899112 182.856285,245.803143 C182.376441,245.707174 182.088535,245.419268 181.800629,245.131362 C181.512723,244.747487 181.416754,244.363612 181.512723,243.883769 L193.316875,177.185512 C193.412843,176.705669 193.70075,176.417762 193.988656,176.129856 Z" id="Shape" fill="#DB7558" fill-rule="nonzero" transform="translate(192.165250, 203.864815) rotate(128.227580) translate(-192.165250, -203.864815) "></path>
            <path d="M194.741831,162.166416 C194.261988,162.070447 193.878113,162.166416 193.494238,162.454322 C193.110363,162.742228 192.822457,163.126103 192.822457,163.509978 L181.018305,230.208234 C180.922336,230.688078 181.018305,231.071953 181.306211,231.455828 C181.594117,231.839703 181.977992,232.127609 182.361867,232.127609 C182.841711,232.223577 183.225585,232.127609 183.60946,231.839703 C183.993335,231.551796 184.281241,231.167922 184.281241,230.784047 L196.181362,164.08579 C196.277331,163.605947 196.181362,163.222072 195.893456,162.838197 C195.60555,162.454322 195.221675,162.166416 194.741831,162.166416 Z" id="Path" fill="#FF9A64" fill-rule="nonzero" transform="translate(188.599833, 197.147012) rotate(128.227580) translate(-188.599833, -197.147012) "></path>
            <path d="M209.710141,243.1 C211.010141,244.6 212.610141,245.8 214.510141,246.6 C218.110141,248.4 221.910141,248.6 225.710141,247.1 C229.410141,245.7 232.210141,243.3 233.910141,239.6 C235.610141,236 235.810141,232.2 234.410141,228.4 C233.710141,226.3 232.410141,224.4 230.910141,222.9 L209.710141,243.1 Z" id="Path" fill="#874634" fill-rule="nonzero"></path>
            <path d="M207.410141,227.2 C205.710141,230.8 205.610141,234.6 207.010141,238.4 C207.710141,240.2 208.510141,241.7 209.710141,243.1 L230.910141,222.9 C229.810141,221.8 228.410141,220.9 226.910141,220.2 C223.310141,218.5 219.510141,218.3 215.710141,219.7 C211.910141,221.1 209.110141,223.6 207.410141,227.2 Z" id="Path" fill="#A35D49" fill-rule="nonzero"></path>
            <path d="M224.610141,224.8 C222.310141,223.7 219.910141,223.6 217.410141,224.5 C215.010141,225.4 213.210141,227 212.210141,229.3 C211.110141,231.6 211.110141,234 211.910141,236.5 C212.710141,238.9 214.310141,240.7 216.710141,241.7 C219.010141,242.8 221.410141,242.9 223.910141,242 C226.310141,241.2 228.010141,239.5 229.110141,237.2 C230.210141,234.9 230.310141,232.5 229.410141,230 C228.610141,227.6 227.010141,225.9 224.610141,224.8 Z" id="Path" fill="#C9745C" fill-rule="nonzero"></path>
            <path d="M221.610141,225.7 C222.310141,225.2 222.810141,224.5 223.010141,223.7 C223.210141,222.9 223.010141,222 222.410141,221.3 C221.910141,220.6 221.210141,220.2 220.410141,220 C219.510141,219.8 218.710141,220 218.010141,220.6 C217.310141,221.2 216.810141,221.8 216.710141,222.7 C216.510141,223.6 216.710141,224.4 217.310141,225.1 C217.910141,225.8 218.510141,226.3 219.410141,226.5 C220.010141,226.4 220.810141,226.2 221.610141,225.7 Z" id="Path" fill="#FFFFFF" fill-rule="nonzero"></path>
        </g>
    </g>
</svg>