<?xml version="1.0" encoding="UTF-8"?>
<svg width="40px" height="40px" viewBox="0 0 40 40" version="1.1" xmlns="http://www.w3.org/2000/svg" xmlns:xlink="http://www.w3.org/1999/xlink">
    <title>2F52F6C2-F75B-4CF0-B065-C904345D55C3</title>
    <g id="My-Lessons" stroke="none" stroke-width="1" fill="none" fill-rule="evenodd">
        <g id="B-05.4-FullScheduleFilter" transform="translate(-16.000000, -515.000000)" fill-rule="nonzero">
            <g id="Elements/Highlight/Expanded-Copy-8" transform="translate(16.000000, 515.000000)">
                <g id="Elements/Graphics/Style3/Photos/Black" transform="translate(8.000000, 8.000000)">
                    <g id="pencil" transform="translate(2.250000, 2.250000)">
                        <path d="M14.2992778,0.846083333 C15.4273889,-0.282027778 17.2567778,-0.282027778 18.3848889,0.846083333 C19.513,1.97419444 19.513,3.80358333 18.3848889,4.93169444 L14.2992778,0.846083333 Z" id="Path" fill="#D75A4A"></path>
                        <polygon id="Path" fill="#ED8A19" points="15.3205 6.46352778 5.96266667 15.8217222 5.77127778 17.5453056 16.0867778 7.22944444 16.0867778 7.22944444"></polygon>
                        <polygon id="Path" fill="#ED8A19" points="3.72847222 15.5025 5.45205556 15.3111111 14.8098889 5.95291667 13.2780556 4.42108333 3.91986111 13.7789167"></polygon>
                        <polygon id="Path" fill="#ED8A19" points="12.7674444 3.91047222 12.0011667 3.14419444 12.0011667 3.14419444 1.68566667 13.4596944 3.40925 13.2683056"></polygon>
                        <polygon id="Path" fill="#C7CAC7" points="17.6186111 5.69761111 17.6186111 5.69761111 18.3848889 4.93169444 14.2992778 0.846083333 13.533 1.61236111 13.5333611 1.61236111"></polygon>
                        <polygon id="Path" fill="#C7CAC7" points="13.0223889 2.12297222 13.0223889 2.12297222 12.5117778 2.63358333 12.5117778 2.63358333 16.5973889 6.71883333 16.5973889 6.71883333 17.108 6.20822222 17.108 6.20822222"></polygon>
                        <path d="M5.20866667,16.0651111 L3.35905556,16.2705833 C3.34605556,16.2720278 3.33269444,16.27275 3.31969444,16.27275 C3.31969444,16.27275 3.31933333,16.27275 3.31933333,16.27275 L3.31933333,16.27275 L3.31933333,16.27275 C3.31897222,16.27275 3.31897222,16.27275 3.31897222,16.27275 C3.30597222,16.27275 3.29261111,16.2720278 3.27961111,16.2705833 C3.26552778,16.2691389 3.25397222,16.2611944 3.24061111,16.2579444 C3.21461111,16.2518056 3.18969444,16.2453056 3.16586111,16.23375 C3.14780556,16.2250833 3.13227778,16.2146111 3.11602778,16.2034167 C3.09544444,16.1889722 3.07666667,16.1734444 3.05933333,16.1550278 C3.04561111,16.1405833 3.03441667,16.1257778 3.02322222,16.1091667 C3.0095,16.0885833 2.99830556,16.0672778 2.98891667,16.0438056 C2.98097222,16.0243056 2.97519444,16.0051667 2.97086111,15.9842222 C2.96833333,15.9726667 2.96219444,15.9629167 2.96075,15.951 C2.95930556,15.9372778 2.96436111,15.9246389 2.96436111,15.9112778 C2.96436111,15.8975556 2.95930556,15.8852778 2.96075,15.8715556 L3.16622222,14.0219444 L1.31661111,14.2274167 C1.30325,14.2288611 1.28952778,14.2295833 1.27652778,14.2295833 C1.248,14.2295833 1.22163889,14.2209167 1.19455556,14.2144167 L0.159611111,18.56075 L0.920111111,17.80025 C1.06130556,17.6590556 1.28952778,17.6590556 1.43072222,17.80025 C1.57191667,17.9414444 1.57191667,18.1696667 1.43072222,18.3108611 L0.670222222,19.0713611 L5.01438889,18.0371389 C5.005,17.9977778 4.99886111,17.9569722 5.00355556,17.9147222 L5.20866667,16.0651111 Z" id="Path" fill="#FBCE9D"></path>
                        <path d="M1.43072222,17.80025 C1.28952778,17.6590556 1.06130556,17.6590556 0.920111111,17.80025 L0.159611111,18.56075 L0,19.2309722 L0.670222222,19.0713611 L1.43072222,18.3108611 C1.57155556,18.1696667 1.57155556,17.9414444 1.43072222,17.80025 Z" id="Path" fill="#38454F"></path>
                        <polygon id="Path" fill="#F2ECBF" points="17.6186111 5.69761111 13.5333611 1.61236111 13.533 1.61236111 13.0223889 2.12297222 13.0223889 2.12297222 17.108 6.20822222 17.108 6.20822222"></polygon>
                        <path d="M14.8098889,5.95291667 L5.45205556,15.3111111 L3.72847222,15.5025 L3.91986111,13.7789167 L13.2780556,4.42108333 L12.7674444,3.91047222 L3.40925,13.2683056 L1.68566667,13.4596944 L1.27652778,13.8688333 L1.19419444,14.2144167 C1.22127778,14.2209167 1.24727778,14.2295833 1.27616667,14.2295833 C1.28916667,14.2295833 1.30288889,14.2288611 1.31625,14.2274167 L3.16586111,14.0219444 L2.96038889,15.8715556 C2.95894444,15.8852778 2.964,15.8979167 2.964,15.9112778 C2.964,15.925 2.95894444,15.9372778 2.96038889,15.951 C2.96183333,15.9629167 2.96797222,15.9726667 2.9705,15.9842222 C2.97483333,16.0048056 2.98097222,16.0246667 2.98855556,16.0438056 C2.99794444,16.0669167 3.00913889,16.0885833 3.02286111,16.1091667 C3.03369444,16.1254167 3.04561111,16.1409444 3.05897222,16.1550278 C3.07594444,16.1730833 3.09508333,16.1889722 3.11566667,16.2034167 C3.13155556,16.2146111 3.14780556,16.2254444 3.1655,16.23375 C3.18897222,16.2449444 3.21425,16.2518056 3.24025,16.2579444 C3.25397222,16.2611944 3.26516667,16.2687778 3.27925,16.2705833 C3.29225,16.2720278 3.30525,16.27275 3.31861111,16.27275 L3.31897222,16.27275 L3.31897222,16.27275 L3.31933333,16.27275 L3.31969444,16.27275 C3.31969444,16.27275 3.32005556,16.27275 3.32005556,16.27275 L3.32005556,16.27275 C3.33269444,16.27275 3.34605556,16.2720278 3.35941667,16.2705833 L5.20902778,16.0651111 L5.00355556,17.9147222 C4.99886111,17.9573333 5.005,17.9977778 5.01438889,18.0371389 L5.36213889,17.9544444 L5.77127778,17.5456667 L5.96266667,15.8220833 L15.3205,6.46388889 L14.8098889,5.95291667 Z" id="Path" fill="#EBBA16"></path>
                        <polygon id="Path" fill="#F2ECBF" points="16.5973889 6.71883333 12.5117778 2.63358333 12.5117778 2.63358333 12.0011667 3.14419444 12.0011667 3.14419444 12.7674444 3.91047222 13.2780556 4.42108333 14.8098889 5.95291667 15.3205 6.46352778 16.0867778 7.22944444 16.0867778 7.22944444"></polygon>
                    </g>
                </g>
            </g>
        </g>
    </g>
</svg>