<?xml version="1.0" encoding="UTF-8"?>
<svg width="24px" height="24px" viewBox="0 0 24 24" version="1.1" xmlns="http://www.w3.org/2000/svg" xmlns:xlink="http://www.w3.org/1999/xlink">
    <title>WrongAnswer</title>
    <g id="Symbols" stroke="none" stroke-width="1" fill="none" fill-rule="evenodd">
        <g id="Elements/Graphics/Style3/WrongAnswer" fill-rule="nonzero">
            <g id="WrongAnswer">
                <g id="Smiley-Wrong">
                    <circle id="Oval" stroke="#202020" stroke-width="1.3" fill="#FF3EB9" transform="translate(12.000000, 12.000000) scale(1, -1) translate(-12.000000, -12.000000) " cx="12" cy="12" r="11.35"></circle>
                    <circle id="Oval" fill="#202020" transform="translate(8.200000, 9.200000) scale(1, -1) translate(-8.200000, -9.200000) " cx="8.2" cy="9.2" r="1.2"></circle>
                    <circle id="Oval" fill="#202020" transform="translate(16.200000, 9.200000) scale(1, -1) translate(-16.200000, -9.200000) " cx="16.2" cy="9.2" r="1.2"></circle>
                    <path d="M17,19.036 C16.808,19.036 16.616,18.963 16.47,18.816 C15.276,17.622 13.688,16.964 12,16.964 C10.312,16.964 8.724,17.622 7.53,18.816 C7.237,19.109 6.762,19.109 6.469,18.816 C6.176,18.523 6.176,18.048 6.469,17.755 C7.947,16.278 9.911,15.464 12,15.464 C14.089,15.464 16.053,16.277 17.53,17.755 C17.823,18.048 17.823,18.523 17.53,18.816 C17.384,18.962 17.192,19.036 17,19.036 Z" id="Path" fill="#202020"></path>
                </g>
            </g>
        </g>
    </g>
</svg>