<?xml version="1.0" encoding="UTF-8"?>
<svg width="500px" height="500px" viewBox="0 0 500 500" version="1.1" xmlns="http://www.w3.org/2000/svg" xmlns:xlink="http://www.w3.org/1999/xlink">
    <title>SubjectGraphics/Maths/Science</title>
    <defs>
        <radialGradient cx="44.3866865%" cy="11.902854%" fx="44.3866865%" fy="11.902854%" r="295.434828%" gradientTransform="translate(0.443867,0.119029),scale(0.999342,1.000000),rotate(10.001709),translate(-0.443867,-0.119029)" id="radialGradient-1">
            <stop stop-color="#F3FF8C" offset="0%"></stop>
            <stop stop-color="#FFFC2E" offset="48.24%"></stop>
            <stop stop-color="#FFD100" offset="83.14%"></stop>
            <stop stop-color="#F3FF8C" offset="100%"></stop>
        </radialGradient>
        <radialGradient cx="47.4720517%" cy="16.8185111%" fx="47.4720517%" fy="16.8185111%" r="28.5525622%" gradientTransform="translate(0.474721,0.168185),scale(1.000000,0.998627),rotate(9.997517),translate(-0.474721,-0.168185)" id="radialGradient-2">
            <stop stop-color="#984AD4" offset="0%"></stop>
            <stop stop-color="#633FBB" offset="48.24%"></stop>
            <stop stop-color="#361D72" offset="83.14%"></stop>
            <stop stop-color="#633FBB" offset="100%"></stop>
        </radialGradient>
        <radialGradient cx="47.7976983%" cy="16.7746105%" fx="47.7976983%" fy="16.7746105%" r="28.2604196%" gradientTransform="translate(0.477977,0.167746),scale(0.999403,1.000000),rotate(10.007387),translate(-0.477977,-0.167746)" id="radialGradient-3">
            <stop stop-color="#FF2C2C" offset="0%"></stop>
            <stop stop-color="#B80A0A" offset="48.24%"></stop>
            <stop stop-color="#850000" offset="81.57%"></stop>
            <stop stop-color="#B80A0A" offset="100%"></stop>
        </radialGradient>
        <radialGradient cx="44.316082%" cy="12.0132682%" fx="44.316082%" fy="12.0132682%" r="23.6061577%" gradientTransform="translate(0.443161,0.120133),scale(1.000000,0.999821),rotate(10.001031),translate(-0.443161,-0.120133)" id="radialGradient-4">
            <stop stop-color="#F3FF8C" offset="0%"></stop>
            <stop stop-color="#FFFC2E" offset="48.24%"></stop>
            <stop stop-color="#FFD100" offset="83.14%"></stop>
            <stop stop-color="#F3FF8C" offset="100%"></stop>
        </radialGradient>
    </defs>
    <g id="Symbols" stroke="none" stroke-width="1" fill="none" fill-rule="evenodd">
        <g id="Science_hero">
            <g id="Group" transform="translate(71.000000, 48.000000)">
                <rect id="Rectangle" x="0.7" y="0.9" width="320.6" height="458"></rect>
                <g opacity="0.19" transform="translate(92.000000, 360.000000)" fill="#000000" fill-rule="nonzero" id="Layer0_2_FILL_1_">
                    <g>
                        <path d="M86.1,54.3 C109.2,52.3 128.6,48 144.4,41.4 C160.2,34.9 167.9,27.9 167.2,20.6 C166.5,13.3 157.9,7.8 141.2,4 C124.5,0.2 104.7,-0.6 81.6,1.4 C58.6,3.4 39.1,7.7 23.2,14.3 C7.4,20.9 -0.2,27.9 0.5,35.1 C1.1,42.4 9.8,47.9 26.5,51.6 C43.2,55.4 63.1,56.3 86.1,54.3 Z" id="Path"></path>
                    </g>
                </g>
            </g>
            <g id="Group" transform="translate(80.000000, 26.000000)">
                <rect id="Rectangle" x="28.4" y="0.9" width="320.6" height="458"></rect>
                <g transform="translate(0.000000, 10.000000)" fill-rule="nonzero">
                    <g transform="translate(86.000000, 8.000000)" fill="#D05435" id="Layer0_3_MEMBER_0_FILL_1_">
                        <path d="M162.1,62.9 C152.9,25.8 137.6,5.4 116.1,1.6 C94.6,-2.2 73.1,11.7 51.8,43.4 C30.5,75.1 15.6,115.3 7,163.9 C-1.6,212.5 -1.3,255.4 7.8,292.5 C16.9,329.6 32.3,350 53.9,353.8 C75.5,357.6 96.9,343.6 118.1,311.9 C139.4,280.2 154.4,240 162.9,191.4 C171.4,142.8 171.3,99.9 162.1,62.9 M112.5,21.3 C130.5,24.5 143.2,42.5 150.6,75.3 C158,108.1 157.8,146 150.2,189.2 C142.6,232.3 129.7,268.1 111.5,296.3 C93.4,324.6 75.3,337.2 57.3,333.9 C39.3,330.6 26.5,312.7 19.1,279.9 C11.8,247.1 11.9,209.2 19.5,166 C27.1,122.8 40,87.1 58.1,58.8 C76.3,30.7 94.5,18.2 112.5,21.3 Z" id="Shape"></path>
                    </g>
                    <g transform="translate(86.000000, 8.000000)" id="Layer0_3_MEMBER_1_FILL_1_">
                        <path d="M118.5,284.6 C116.3,288.6 114,292.5 111.6,296.1 C105.3,305.9 99,313.9 92.7,319.9 L108,325.6 C111.4,321.5 114.8,316.9 118.2,311.8 C122.8,305 127,297.9 130.9,290.4 L118.5,284.6 Z" id="Path" fill="#BF310E"></path>
                        <path d="M112.5,21.3 C117.3,22.1 121.7,24 125.7,26.9 L139.9,15.1 C133,7.7 125.2,3.1 116.1,1.5 C94.6,-2.3 73.1,11.7 51.9,43.4 C30.7,75.1 15.7,115.3 7.1,163.9 C-1.5,212.5 -1.2,255.4 7.9,292.5 C12.9,312.7 19.7,328 28.4,338.3 L43.4,327.8 C32.6,319.6 24.5,303.6 19.2,280 C11.9,247.2 12,209.3 19.6,166.1 C27.2,123 40.1,87.2 58.2,58.9 C76.3,30.7 94.5,18.2 112.5,21.3 Z" id="Path" fill="#8E1C00"></path>
                    </g>
                    <g transform="translate(0.000000, 89.000000)" fill="#FFFD43" id="Layer0_3_MEMBER_2_FILL_1_">
                        <path d="M253.7,13.7 C255.9,13.7 258.2,13.8 260.4,13.9 C293.9,15.5 313.9,24.9 320.2,42.1 C326.4,59.3 317.3,79.3 292.5,102.1 C278.8,114.7 262.5,126.2 243.6,136.5 L239,153.6 C266.8,140 290.1,124 309,105.8 C336.6,79.3 346.6,55.8 339.1,35.3 C331.6,14.8 308.8,3.1 270.8,0.6 C264.7,0.1 258.3,0.1 251.9,0.1 C252.6,4.9 253.3,9.4 253.7,13.7 M240.1,13.9 C239.6,9.7 239,5.3 238.1,0.7 C208.9,2.8 177.6,9.9 144,22 C97.6,38.9 60.6,60.6 33.1,87 C5.6,113.4 -4.5,137 3.1,157.5 C10.5,178 33.3,189.6 71.4,192.2 C109.5,194.8 151.8,187.6 198.3,170.8 C206.9,167.7 215.2,164.4 223.2,160.9 L228.3,144.3 C217.6,149.4 206,154.2 193.9,158.6 C152.7,173.5 115.3,180.3 81.8,178.8 C48.3,177.2 28.4,167.9 22.1,150.7 C15.8,133.5 25,113.5 49.7,90.7 C74.4,67.9 107.4,49 148.5,34.1 C181.5,22 212,15.3 240.1,13.9 Z" id="Shape"></path>
                    </g>
                    <g transform="translate(0.000000, 89.000000)" fill="#FFE000" id="Layer0_3_MEMBER_3_FILL_1_">
                        <path d="M243.6,136.7 L238.9,153.8 C246.1,150.2 253.1,146.6 259.8,142.6 L265.1,123.6 C258.3,128.3 251.2,132.6 243.6,136.7 M260.4,14.1 C265.2,14.3 269.7,14.7 274,15.3 L280.2,1.7 C277.2,1.3 274,1.1 270.8,0.8 C264.7,0.3 258.3,0.3 251.9,0.3 C252.6,5 253.3,9.6 253.7,13.9 C255.9,13.9 258.1,14 260.4,14.1 M207.3,4.8 C198.4,6.4 189.3,8.5 179.9,10.9 C168.2,14 156.3,17.8 144,22.3 C97.6,39.2 60.6,60.9 33.1,87.3 C13.9,105.8 3.1,122.8 1,138.5 C0.1,145.3 0.7,151.7 3,157.9 C8.2,172.4 21.1,182.4 41.7,187.9 C50.2,190.2 60.1,191.7 71.4,192.6 C74.1,192.8 76.8,192.9 79.6,193 L85.6,179.2 C84.3,179.2 83.1,179.1 81.8,179.1 C69.2,178.6 58.5,176.8 49.7,174.1 C35,169.4 25.8,161.7 21.9,150.9 C18.9,142.7 19.4,134 23.4,124.4 C27.9,114 36.6,102.8 49.5,90.8 C74.2,68 107.2,49.1 148.3,34.2 C163.6,28.6 178.4,24.2 192.6,20.9 C201.8,18.8 210.6,17.1 219.3,16 L207.3,4.8 Z" id="Shape"></path>
                    </g>
                    <g transform="translate(24.000000, 55.000000)" fill="#9E8CCB" id="Layer0_3_MEMBER_4_FILL_1_">
                        <path d="M279.8,168.8 C277.1,163.2 274,157.7 270.7,152.2 L260,160.8 C261.1,162.7 262.1,164.6 263.1,166.6 C278.5,196.5 280.3,218.4 268.6,232.5 C256.8,246.5 234.9,248.5 202.8,238.5 C185,232.9 167,224.6 148.7,213.4 L131.8,218.1 C157.4,235.2 182.8,247.4 207.8,254.6 C244.4,265.2 269.8,262.1 283.9,245.3 C298,228.8 296.6,203.2 279.8,168.8 M116.7,17.5 C114.6,21 112.4,24.9 110.1,29.2 C136.1,40.1 162.7,56.9 189.7,79.6 C216.6,102.2 237.8,125.4 253,149.1 L263.5,140.8 C247.1,116.4 225.2,92.8 197.8,69.8 C170.6,46.9 143.4,29.4 116.7,17.5 M91.2,22.4 C93.3,23 95.5,23.8 97.6,24.5 L104,12.4 C98,10.1 92,8 86,6.3 C49.4,-4.2 24,-1.2 10,15.6 C-4.1,32.4 -2.7,57.8 14.1,92.2 C31,126.5 58.3,159.5 96.1,191.3 C103.2,197.3 110.2,202.8 117.3,208 L134.2,204.1 C124.4,197.3 114.5,189.8 104.5,181.5 C71,153.3 46.4,124.3 31,94.5 C15.6,64.7 13.8,42.7 25.5,28.6 C37.2,14.5 59.2,12.4 91.2,22.4 Z" id="Shape"></path>
                    </g>
                    <g transform="translate(155.000000, 90.000000)" fill="#4E368A" id="Layer0_3_MEMBER_5_FILL_1_">
                        <path d="M17.8,178.6 L0.8,183.3 C5.5,186.4 10.1,189.4 14.8,192.2 L32.4,187 C27.5,184.4 22.6,181.7 17.8,178.6 M148.8,134 C146.1,128.4 143,122.9 139.8,117.5 L129,126 C130.1,127.9 131.1,129.8 132.1,131.8 C147.5,161.7 149.3,183.6 137.6,197.7 C129.4,207.6 116,211.5 97.8,209.5 L81.5,221.2 C115.7,230.3 139.6,226.8 153,210.8 C167,193.9 165.6,168.4 148.8,134 M18.7,0.2 L6,7.7 C23.4,17.5 40.9,29.9 58.7,44.8 C85.7,67.4 106.8,90.6 122,114.3 L132.5,106 C116.1,81.6 94.2,58 66.8,35 C50.6,21.4 34.6,9.8 18.7,0.2 Z" id="Shape"></path>
                    </g>
                    <g transform="translate(121.320532, 136.305542)">
                        <g fill="url(#radialGradient-1)" id="Symbol_7_copy_4_0_Layer0_0_FILL_1_">
                            <path d="M88.218689,21.0313354 C80.5965942,10.162793 70.1515015,3.38759766 57.0245605,1.12919922 C43.8976196,-1.27034912 31.758728,1.41149902 20.8901855,9.03359375 C10.0216431,16.6556885 3.24644775,27.1007812 0.988049316,40.2277222 C-1.27034912,53.3546631 1.41149902,65.4935547 9.03359375,76.3620972 C16.6556885,87.2306396 27.1007812,94.005835 40.2277222,96.2642334 C53.3546631,98.5226318 65.4935547,95.8407837 76.3620972,88.218689 C87.2306396,80.5965942 93.8646851,70.1515015 96.2642334,57.0245605 C98.5226318,44.0387695 95.8407837,31.8998779 88.218689,21.0313354 Z" id="Path"></path>
                        </g>
                        <g transform="translate(19.831561, 4.940247)" fill="#FFFFFF" id="Symbol_7_copy_4_0_Layer0_1_FILL_1_">
                            <path d="M26.9596313,11.574292 C28.3711304,11.4331421 29.5003296,10.8685425 30.4883789,9.59819336 C31.3352783,8.46899414 31.6175781,7.19864502 31.4764282,5.787146 C31.3352783,4.37564697 30.6295288,3.24644775 29.5003296,2.25839844 C28.3711304,1.41149902 27.1007812,1.12919922 25.6892822,1.27034912 C16.7968384,2.39954834 9.03359375,6.2105957 2.39954834,12.8446411 C1.41149902,13.8326904 0.846899414,15.1030396 0.846899414,16.6556885 C0.846899414,18.0671875 1.41149902,19.1963867 2.39954834,20.3255859 C3.38759766,21.3136353 4.65794678,21.8782349 6.2105957,21.8782349 C7.76324463,21.8782349 8.75129395,21.3136353 9.88049316,20.3255859 C14.5384399,15.2441895 20.3255859,12.4211914 26.9596313,11.574292 Z" id="Path"></path>
                        </g>
                    </g>
                    <g transform="translate(33.000000, 60.000000)" fill="#D1BFFF" id="Layer0_3_MEMBER_7_FILL_1_">
                        <path d="M24.2,9.2 C25.4,8.8 26.4,8.1 26.9,7 C27.5,5.9 27.6,4.7 27.3,3.5 C26.9,2.3 26.2,1.4 25.1,0.8 C24,0.2 22.8,0.1 21.6,0.3 C11.7,3.2 4.7,9.4 0.7,18.6 C0.2,19.8 0.2,21 0.7,22.1 C1.2,23.3 2,24.1 3.2,24.6 C4.4,25.1 5.6,25.1 6.7,24.7 C7.9,24.2 8.7,23.4 9.3,22.2 C12,15.7 17,11.3 24.2,9.2 Z" id="Path"></path>
                    </g>
                    <g transform="translate(235.000000, 62.000000)" fill="#FF7F5F" id="Layer0_3_MEMBER_8_FILL_1_">
                        <path d="M9,3.3 C8.6,2.1 7.9,1.2 6.7,0.6 C5.6,0.1 4.4,-2.77555756e-17 3.2,0.3 C2,0.7 1.1,1.4 0.5,2.6 C1.73472348e-17,3.7 -0.1,4.9 0.2,6.1 C2.1,12.2 3.4,17.9 4,23 C4.2,24.3 4.7,25.3 5.7,26.1 C6.7,26.9 7.8,27.2 9.1,27 C10.4,26.8 11.4,26.3 12.2,25.3 C13,24.3 13.3,23.2 13.1,21.9 C12.6,16.2 11.2,10.1 9,3.3 Z" id="Path"></path>
                    </g>
                    <g transform="translate(81.000000, 133.000000)" fill="#FFFEBF" id="Layer0_3_MEMBER_9_FILL_1_">
                        <path d="M2.4,8.5 C1.5,9 0.8,9.8 0.5,10.9 C0.2,11.9 0.3,12.9 0.8,13.8 C1.3,14.7 2.1,15.4 3.2,15.7 C4.2,16.1 5.2,16 6.1,15.4 L21.1,7.5 C22,7 22.7,6.2 23,5.2 C23.4,4.2 23.3,3.2 22.7,2.3 C22.2,1.4 21.4,0.7 20.4,0.4 C19.4,0.1 18.4,0.2 17.5,0.7 L2.4,8.5 Z" id="Path"></path>
                    </g>
                    <g transform="translate(234.248151, 139.698151)">
                        <g fill="url(#radialGradient-2)" id="Symbol_7_copy_5_0_Layer0_0_FILL_1_">
                            <path d="M49.8396881,11.8438812 C45.5472748,5.64372864 39.7445679,1.98722839 32.2725891,0.635913086 C24.8006104,-0.715402222 18.0440338,0.874380493 11.9233704,5.16679382 C5.80270691,9.45920715 2.06671753,15.3414032 0.794891357,22.7338928 C-0.476934814,30.1263824 1.03335876,36.9624481 5.32577209,43.0831116 C9.61818542,49.203775 15.5003815,53.0192535 22.8928711,54.2910797 C30.2853607,55.5629059 37.1214264,54.0526123 43.2420898,49.760199 C49.3627533,45.4677856 53.1782318,39.5855896 54.450058,32.1931 C55.642395,24.7211212 54.1321014,17.9645447 49.8396881,11.8438812 Z" id="Path"></path>
                        </g>
                        <g transform="translate(11.128479, 3.179565)" fill="#AD6FF7" id="Symbol_7_copy_5_0_Layer0_1_FILL_1_">
                            <path d="M16.7722076,0.953869629 C16.1362946,0.476934814 15.4208923,0.317956543 14.626001,0.397445679 C9.61818542,1.03335876 5.24628296,3.17956543 1.51029358,6.91555481 C0.953869629,7.47197876 0.635913086,8.18738098 0.635913086,8.98227234 C0.635913086,9.7771637 0.953869629,10.4925659 1.51029358,11.128479 C2.06671753,11.684903 2.78211975,12.0028595 3.57701111,12.0028595 C4.37190247,12.0028595 5.08730469,11.684903 5.72321777,11.128479 C8.50533752,8.42584839 11.684903,6.75657654 15.5003815,6.35913086 C16.2952728,6.27964172 16.9311859,5.96168518 17.4876099,5.24628296 C18.0440338,4.53088074 18.1235229,3.89496765 18.0440338,3.10007629 C17.8055664,2.14620667 17.4876099,1.51029358 16.7722076,0.953869629 Z" id="Path"></path>
                        </g>
                    </g>
                    <g transform="translate(143.328220, 0.198486)">
                        <g fill="url(#radialGradient-3)" id="Symbol_7_copy_6_0_Layer0_0_FILL_1_">
                            <path d="M49.7840637,11.811824 C45.5032684,5.70772705 39.6369934,1.90257568 32.3437866,0.634191895 C24.9713058,-0.634191895 18.153743,0.872013855 12.049646,5.15280914 C5.94554901,9.43360443 2.14039764,15.2998795 0.872013855,22.5930862 C-0.396369934,29.886293 1.10983582,36.7831299 5.3906311,42.8872269 C9.67142639,48.9913239 15.5377014,52.7964752 22.9101822,54.064859 C30.282663,55.3332428 37.1002258,53.827037 43.2043228,49.5462418 C49.3084198,45.2654465 53.0342972,39.3991714 54.302681,32.0266907 C55.6503387,24.7334839 54.064859,17.995195 49.7840637,11.811824 Z" id="Path"></path>
                        </g>
                        <g transform="translate(11.891098, 3.170959)" fill="#F76F6F" id="Symbol_7_copy_6_0_Layer0_1_FILL_1_">
                            <path d="M17.2024551,2.85386353 C17.1231812,2.06112366 16.8060852,1.42693176 16.0926193,0.872013855 C15.4584274,0.396369934 14.7449615,0.23782196 13.9522217,0.317095947 C8.95796051,0.951287842 4.59789124,3.09168549 0.872013855,6.81756287 C0.317095947,7.37248077 0,8.08594666 0,8.87868652 C0,9.67142639 0.317095947,10.3848923 0.872013855,11.0190842 C1.42693176,11.5740021 2.14039764,11.891098 2.93313751,11.891098 C3.72587738,11.891098 4.43934326,11.5740021 5.07353516,11.0190842 C7.84812469,8.32376862 11.0190842,6.65901489 14.8242355,6.26264496 C15.6169754,6.18337097 16.2511673,5.86627502 16.8060852,5.15280914 C17.1231812,4.43934326 17.2817291,3.72587738 17.2024551,2.85386353 Z" id="Path"></path>
                        </g>
                    </g>
                    <g transform="translate(8.835352, 233.524365)" id="Path">
                        <g fill="url(#radialGradient-4)">
                            <path d="M46.819043,11.6297302 C42.767395,5.85238037 37.2151367,2.25091553 30.2372986,1.05042725 C23.2594604,-0.150061035 16.8068359,1.2755188 11.0294861,5.32716675 C5.32716675,9.3788147 1.7257019,14.931073 0.525213623,21.8338806 C-0.675274658,28.8117188 0.750305176,35.2643433 4.80195312,41.0416931 C8.85360107,46.819043 14.4058594,50.4205078 21.3836975,51.6209961 C28.3615356,52.8214844 34.7391296,51.4709351 40.5164795,47.3442566 C46.2938293,43.2175781 49.8952942,37.7403503 51.0957825,30.7625122 C52.2962708,23.7846741 50.8706909,17.4821106 46.819043,11.6297302 Z"></path>
                        </g>
                        <g transform="translate(10.541788, 3.376373)" fill="#FFFFFF">
                            <path d="M14.2557983,5.92741089 C15.0061035,5.85238037 15.6063477,5.5522583 16.1315613,4.87698364 C16.6567749,4.20170898 16.7318054,3.60146484 16.6567749,2.85115967 C16.5817444,2.10085449 16.2065918,1.50061035 15.6063477,0.975396729 C15.0061035,0.525213623 14.3308289,0.375152588 13.5805237,0.450183105 C8.85360107,1.05042725 4.72692261,3.07625122 1.20048828,6.60268555 C0.675274658,7.12789917 0.375152588,7.80317383 0.375152588,8.62850952 C0.375152588,9.3788147 0.675274658,9.97905884 1.20048828,10.579303 C1.7257019,11.1045166 2.40097656,11.4046387 3.22631226,11.4046387 C4.05164795,11.4046387 4.57686157,11.1045166 5.17710571,10.579303 C7.65311279,7.87820435 10.6543335,6.37759399 14.2557983,5.92741089 Z"></path>
                        </g>
                    </g>
                </g>
            </g>
        </g>
    </g>
</svg>