<?xml version="1.0" encoding="utf-8"?>
<!-- Generator: Adobe Illustrator 25.2.1, SVG Export Plug-In . SVG Version: 6.00 Build 0)  -->
<svg version="1.1" id="Layer_1" xmlns="http://www.w3.org/2000/svg" xmlns:xlink="http://www.w3.org/1999/xlink" x="0px" y="0px"
	 viewBox="0 0 1024 1024" style="enable-background:new 0 0 1024 1024;" xml:space="preserve">
<style type="text/css">
	.st0{fill:#00A6FA;}
	.st1{fill:#FFFFFF;}
</style>
<rect class="st0" width="1024" height="1024"/>
<g>
	<g>
		<path d="M868.1,525h4.1c15.4,0,27.9,12.5,27.9,27.9v4.1c0,15.4-12.5,27.9-27.9,27.9h-4.1c-15.4,0-27.9-12.5-27.9-27.9v-4.1
			C840.3,537.5,852.7,525,868.1,525z"/>
		<path class="st1" d="M123.9,739.1l48.5-18.9c6.7,17,20.7,25.2,38.9,25.2c16.7,0,25.5-7.8,25.5-16.7c0-10-18.1-12.9-39.6-17
			c-33.4-5.9-66.7-17.4-66.7-57c0-31.1,30-58.9,75.9-58.2c41.5,0,65.1,17,78.5,42.9l-44.8,18.9c-4.8-12.2-17.4-20.3-34.1-20.3
			s-24.1,7-24.1,15.2s10.7,11.1,38.5,16.7c31.1,6.3,67,17.4,67,57.4c0,27-25.2,62.6-78.5,61.8C164.2,789.1,137.2,771.7,123.9,739.1z
			"/>
		<path class="st1" d="M294.7,600.2h29.7v-43.3l50.8-27.8v71.1H410v45.5h-34.8v58.9c0,28.9,3.7,33.3,34.8,33.3v47.4h-7.4
			c-58.9,0-78.2-20-78.2-80.4v-59.2h-29.7V600.2z"/>
		<path class="st1" d="M430.1,713.1v-113h51.5v106.3c0,24.8,11.5,39.3,34.1,39.3c19.3,0,35.2-13.3,35.2-44.4V600.2h50.8v185.2h-50.3
			V765c-12.5,15.4-31.3,24.2-51.1,24.1C456.3,789.1,430.1,760.9,430.1,713.1z"/>
		<path class="st1" d="M623.2,692.8c0-65.6,48.2-96.3,90-96.3c24.1,0,42.9,8.9,55.2,21.9v-89.3h50.8v256.3h-50.8v-20.7
			c-12.2,14.5-31.9,24.4-55.9,24.4C673.2,789.1,623.2,757.9,623.2,692.8z M769.9,692.4c0-27.4-20-49.6-47.4-49.6
			c-28.1,0-49.6,21.1-49.6,49.6s21.5,50,49.6,50C749.8,742.4,769.8,719.8,769.9,692.4L769.9,692.4z"/>
		<path class="st1" d="M844.8,600.2h50.8v185.2h-50.8V600.2z"/>
	</g>
	<g>
		<polyline points="128.4,291.3 181.3,291.3 181.3,427 258.7,427 258.7,291.3 311.6,291.3 311.6,234.9 128.4,234.9 128.4,291.3 		
			"/>
		<polyline points="368,427 405,314.2 449,427 521.3,427 445.6,234.9 366.1,234.9 295.7,427 368,427 		"/>
		<polyline points="507.1,294.8 560.1,294.8 560.1,427 637.5,427 637.5,291.3 688.6,291.3 688.6,236.7 507.1,236.7 507.1,294.8 		
			"/>
		<polyline points="745,427 783.8,312.4 826.1,427 900.1,427 824.2,234.9 743.3,234.9 672.8,427 745,427 		"/>
	</g>
</g>
</svg>
