<svg width="90" height="101" viewBox="0 0 90 101" fill="none" xmlns="http://www.w3.org/2000/svg">
<!-- <rect width="90" height="101" rx="20" fill="#7370DC"/> -->
<mask id="mask0" style="mask-type:alpha" maskUnits="userSpaceOnUse" x="0" y="0" width="90" height="101">
<rect width="90" height="101" rx="20" fill="white"/>
</mask>
<!-- <g mask="url(#mask0)">
<path d="M70 101.001C81.0457 101.001 90 92.0463 90 81.0006V64.6406L0 72.4717V81.0006C0 92.0463 8.95431 101.001 20 101.001H70Z" fill="black" fill-opacity="0.2"/>
</g> -->
<path d="M56.1188 83.008C53.3 81.9349 49.8772 81.2866 45.8727 81.0854C41.8458 80.8842 38.423 81.1748 35.5595 81.9349C32.6959 82.7174 31.2418 83.7904 31.197 85.1094C31.1747 86.4284 32.5617 87.6357 35.3805 88.7088C38.1993 89.8042 41.6221 90.4525 45.6266 90.6537C49.6535 90.8773 53.0763 90.5643 55.9398 89.7818C58.8034 88.9994 60.2799 87.9487 60.3023 86.6296C60.347 85.3106 58.96 84.1034 56.1188 83.008Z" fill="#4848A0"/>
<path d="M57.1928 52.0452L53.6134 54.8174C53.0317 55.2868 52.6738 55.8681 52.5843 56.6282C52.4948 57.3659 52.6738 58.0366 53.1436 58.6402L59.072 66.286C59.5418 66.8672 60.1234 67.2249 60.8841 67.3144C61.6223 67.4038 62.2935 67.2249 62.8975 66.7555L66.4769 63.9833C67.0586 63.5138 67.4165 62.9326 67.506 62.1725C67.5955 61.4124 67.4165 60.7641 66.9467 60.1604L61.0183 52.5147C60.5485 51.9334 59.9668 51.5757 59.2062 51.4863C58.4456 51.4193 57.7745 51.5981 57.1928 52.0452Z" fill="url(#paint0_radial)"/>
<path d="M57.1928 52.0427L53.6134 54.8148C53.0317 55.2843 52.6738 55.8656 52.5843 56.6257C52.4948 57.3634 52.6738 58.0341 53.1436 58.6377L58.3785 65.3892C60.2353 62.7959 62.4948 60.918 65.1794 59.7332C65.515 59.5767 65.8729 59.4425 66.2309 59.3084L60.9959 52.5569C60.5261 51.9756 59.9445 51.6179 59.1839 51.5285C58.4456 51.4167 57.7745 51.5956 57.1928 52.0427Z" fill="#5B0F56" fill-opacity="0.4392"/>
<path d="M53.1884 58.574L59.1168 66.2198C59.5866 66.801 60.1682 67.1587 60.9289 67.2481C61.1973 67.2929 61.4658 67.2705 61.7342 67.2481L52.8528 55.8242C52.7409 56.0701 52.6738 56.316 52.6514 56.5843C52.5396 57.3221 52.7409 57.9928 53.1884 58.574Z" fill="#FFAD5D" fill-opacity="0.4784"/>
<path d="M44.4858 59.4883L39.9668 59.533C39.2285 59.533 38.5798 59.8013 38.0652 60.3378C37.5507 60.8744 37.2822 61.5227 37.2822 62.2604L37.3493 71.9406C37.3493 72.6783 37.6178 73.3267 38.1547 73.8408C38.6916 74.355 39.3404 74.6233 40.0787 74.6233L44.5977 74.5786C45.3359 74.5786 45.9847 74.3103 46.4992 73.7738C47.0138 73.2372 47.2822 72.5889 47.2822 71.8512L47.2151 62.171C47.2151 61.4333 46.9467 60.7849 46.4098 60.2707C45.8952 59.7342 45.2464 59.4883 44.4858 59.4883Z" fill="url(#paint1_radial)"/>
<path d="M37.3493 71.9188C37.3493 72.6566 37.6178 73.3049 38.1547 73.8191C38.3561 74.0203 38.5574 74.1768 38.8035 74.2886L38.6916 59.8242C38.4679 59.9584 38.2442 60.1148 38.0652 60.3161C37.5507 60.8526 37.2822 61.5009 37.2822 62.2387L37.3493 71.9188Z" fill="#FFAD5D" fill-opacity="0.4784"/>
<path d="M39.9893 59.5135C39.251 59.5135 38.6022 59.7817 38.0877 60.3183C37.5731 60.8548 37.3047 61.5031 37.3047 62.2409L37.3718 70.7809C40.4143 69.8643 43.3674 69.7302 46.2085 70.4008C46.5665 70.4903 46.9468 70.5797 47.3047 70.6915L47.2376 62.1515C47.2376 61.4137 46.9692 60.7654 46.4322 60.2512C45.8953 59.737 45.2466 59.4688 44.5083 59.4688L39.9893 59.5135Z" fill="#5B0F56" fill-opacity="0.4392"/>
<path d="M66.499 31.2543L57.1477 35.7702C56.4989 36.0832 56.0739 36.5751 55.8278 37.2457C55.6041 37.9164 55.6264 38.5647 55.9396 39.2131L58.132 43.729C58.4452 44.3773 58.9374 44.8021 59.5862 45.0256C60.2573 45.2715 60.9061 45.2268 61.5549 44.9139L70.9061 40.3979C71.5549 40.085 71.9799 39.5931 72.226 38.9224C72.4497 38.2518 72.4274 37.6034 72.1142 36.9551L69.9218 32.4392C69.6086 31.7909 69.1164 31.3661 68.4453 31.1202C67.7965 30.8966 67.1477 30.9413 66.499 31.2543Z" fill="url(#paint2_radial)"/>
<path d="M66.7898 32.7329C66.5885 32.8223 66.4542 32.9788 66.3871 33.18C66.32 33.3812 66.32 33.5824 66.4319 33.7613C66.5213 33.9625 66.6779 34.0966 66.8793 34.1637C67.0806 34.2308 67.282 34.2308 67.4609 34.119L68.4005 33.6719C68.6019 33.5824 68.7361 33.426 68.8032 33.2247C68.8703 33.0235 68.8703 32.8223 68.7585 32.6435C68.669 32.4423 68.5124 32.3082 68.311 32.2411C68.1097 32.174 67.9084 32.174 67.7294 32.2858L66.7898 32.7329Z" fill="white"/>
<path d="M26.2531 50.7965C26.186 50.5282 26.007 50.327 25.7833 50.1929C25.5372 50.0587 25.2911 50.0364 25.0227 50.1034C21.9354 50.9977 19.6983 50.8188 18.3112 49.5445C18.1099 49.3433 17.8862 49.2539 17.5953 49.2539C17.3269 49.2539 17.0808 49.3657 16.8795 49.5669C16.7005 49.7681 16.5886 49.9917 16.5886 50.2823C16.5886 50.5506 16.6781 50.7965 16.8795 50.9753C18.6692 52.8532 21.5775 53.1886 25.5819 52.026C25.8504 51.959 26.0517 51.8025 26.186 51.5566C26.3202 51.3107 26.3426 51.0647 26.2531 50.7965Z" fill="#FF74A1"/>
<path d="M25.7832 50.1925C25.5371 50.0583 25.291 50.036 25.0226 50.103C23.4566 50.5501 22.1143 50.729 20.9733 50.6396C20.9062 51.8021 20.0337 52.2939 18.4006 52.0927C20.168 52.9422 22.5393 52.9199 25.5595 52.0256C25.8279 51.9586 26.0293 51.8021 26.1635 51.5562C26.2977 51.3102 26.3201 51.042 26.253 50.7737C26.1859 50.5278 26.0293 50.3266 25.7832 50.1925Z" fill="#BD5F9D"/>
<path d="M17.685 50.4818C17.7969 50.4371 17.8864 50.3477 17.9311 50.2359C17.9759 50.1241 17.9759 50.0123 17.9311 49.9005C17.8864 49.7888 17.7969 49.6993 17.685 49.6546C17.5732 49.6099 17.4613 49.6099 17.3495 49.6546C17.2376 49.6993 17.1481 49.7888 17.1034 49.9005C17.0586 50.0123 17.0586 50.1241 17.1034 50.2359C17.1481 50.3477 17.2376 50.4371 17.3495 50.4818C17.4613 50.5265 17.5732 50.5265 17.685 50.4818Z" fill="white"/>
<path d="M32.2489 66.822C36.4994 68.5881 40.75 68.6105 45.0006 66.8667L59.9447 60.7412C64.1953 58.9974 67.2154 56.0017 68.9828 51.7541C70.7501 47.5064 70.7725 43.2588 69.0275 39.0111C67.2825 34.7635 64.2848 31.7454 60.0342 29.9793C55.7836 28.2132 51.533 28.1908 47.2825 29.9346L32.3384 36.0601C28.0878 37.8039 25.0676 40.7996 23.3003 45.0473C21.533 49.2949 21.5106 53.5425 23.2556 57.7902C25.0229 62.0378 28.0207 65.0559 32.2489 66.822Z" fill="url(#paint3_radial)"/>
<path d="M23.2556 57.7919C25.0005 62.0396 27.9983 65.0576 32.2489 66.8238C36.4995 68.5899 40.75 68.6122 45.0006 66.8685L51.3988 64.2305C40.9066 68.2769 33.0319 67.3603 27.797 61.5477C23.5911 56.4506 22.5173 50.1238 24.5531 42.5898C24.0833 43.3499 23.6582 44.1771 23.3003 45.049C21.533 49.2743 21.5106 53.5443 23.2556 57.7919Z" fill="#FFAD5D" fill-opacity="0.4784"/>
<path d="M32.2709 52.6505C35.5148 53.0976 38.9823 52.5387 42.6736 51.0185C46.3873 49.4983 49.2284 47.4415 51.2195 44.8706C53.2329 42.2773 53.7922 39.9299 52.9197 37.8061C52.0472 35.6822 49.9891 34.3856 46.7452 33.9608C43.5237 33.5361 40.0562 34.0726 36.3425 35.5928C32.6288 37.113 29.7877 39.1698 27.7742 41.7407C25.7832 44.334 25.2015 46.6814 26.0964 48.8276C26.9689 50.929 29.027 52.2033 32.2709 52.6505Z" fill="url(#paint4_linear)"/>
<path d="M31.7116 40.0626C32.0471 40.1968 32.3827 40.1968 32.7183 40.0626L43.4566 35.6585C43.7921 35.5244 44.0382 35.2784 44.1725 34.9431C44.3067 34.6078 44.3067 34.2724 44.1725 33.9371C44.0382 33.6017 43.7921 33.3558 43.4566 33.2217C43.121 33.0876 42.7854 33.0876 42.4499 33.2217L31.7116 37.6258C31.376 37.76 31.1299 38.0059 30.9957 38.3412C30.8615 38.6766 30.8615 39.0119 30.9957 39.3472C31.1523 39.6826 31.376 39.9061 31.7116 40.0626Z" fill="url(#paint5_radial)"/>
<path d="M59.4302 33.9829C58.938 34.1841 58.58 34.5195 58.3787 35.0113C58.155 35.5031 58.155 35.995 58.3563 36.4645C58.5577 36.9563 58.8932 37.2916 59.4078 37.4928C59.9 37.694 60.3921 37.694 60.8843 37.4928C61.3765 37.2916 61.7344 36.9339 61.9358 36.4645C62.1371 35.9726 62.1595 35.5031 61.9581 35.0113C61.7568 34.5195 61.4212 34.1841 60.929 33.9829C60.4145 33.7817 59.9223 33.7817 59.4302 33.9829Z" fill="#F7AE8A"/>
<path d="M60.7048 34.2072C60.3469 34.0507 60.0113 34.0507 59.6534 34.2072C59.2954 34.3413 59.0494 34.6096 58.9151 34.945C58.7809 35.3027 58.7809 35.638 58.9151 35.9957C59.0494 36.3534 59.2954 36.5993 59.6534 36.7334C60.0113 36.8899 60.3469 36.8899 60.7048 36.7334C61.0404 36.5993 61.2865 36.3534 61.4431 35.9957C61.5997 35.638 61.5997 35.3027 61.4655 34.945C61.3089 34.6096 61.0628 34.3637 60.7048 34.2072Z" fill="#7E4469"/>
<path d="M60.7946 34.5195C60.7499 34.3853 60.638 34.2959 60.5262 34.2288C60.3919 34.1841 60.2577 34.1841 60.1235 34.2288C59.9893 34.2736 59.8998 34.3853 59.855 34.4971C59.7879 34.6313 59.7879 34.7654 59.855 34.8995C59.9221 35.0337 60.0116 35.1231 60.1459 35.1678C60.2801 35.2349 60.4143 35.2349 60.5485 35.1678C60.6828 35.1231 60.7723 35.0113 60.8394 34.8772C60.8617 34.7654 60.8617 34.6536 60.7946 34.5195Z" fill="white"/>
<path d="M51.0182 34.4746C51.0853 34.6311 51.2419 34.7429 51.488 34.7653C51.7341 34.7876 52.0025 34.7653 52.271 34.6535L57.1032 32.6638C57.3717 32.552 57.5954 32.3955 57.752 32.1943C57.9086 31.9931 57.9534 31.8143 57.8862 31.6578C57.8191 31.5013 57.6625 31.3895 57.4164 31.3672C57.1704 31.3448 56.9019 31.3672 56.6334 31.4789L51.8012 33.4686C51.5327 33.5804 51.309 33.7369 51.1524 33.9381C50.9735 34.1169 50.9511 34.2958 51.0182 34.4746Z" fill="#7E4469"/>
<path d="M49.3405 31.7027L51.0407 34.5866C59.5418 31.0097 62.2935 25.9349 59.2958 19.3398L51.3539 24.0122C50.0116 24.7947 49.1615 25.9349 48.7588 27.4551C48.3561 28.9753 48.5575 30.3614 49.3405 31.7027Z" fill="url(#paint6_radial)"/>
<path d="M50.9292 34.4749L51.0411 34.5866C59.5422 31.0097 62.2939 25.9349 59.2961 19.3398L59.1843 19.4069C61.2424 26.0914 58.4907 31.1215 50.9292 34.4749Z" fill="url(#paint7_radial)"/>
<path d="M50.28 25.7321C50.2576 25.911 50.3024 26.0898 50.4142 26.2463C50.5261 26.3804 50.6827 26.4699 50.8617 26.4922C51.0406 26.5146 51.1972 26.4922 51.3538 26.3804L52.0026 25.8886C52.1368 25.7768 52.2263 25.6203 52.2711 25.4415C52.2934 25.2626 52.2487 25.1061 52.1368 24.9496C52.025 24.7931 51.8907 24.7261 51.7118 24.6814C51.5328 24.659 51.3538 24.7037 51.2196 24.8155L50.5708 25.3297C50.3919 25.4191 50.3024 25.5533 50.28 25.7321Z" fill="white"/>
<path d="M29.7882 30.6943C29.8105 32.5052 30.4593 34.0477 31.7345 35.322C33.0096 36.5963 34.5756 37.2223 36.3877 37.2223C38.1998 37.1999 39.7434 36.5516 41.0186 35.2773C42.2938 33.9807 42.9202 32.4381 42.9202 30.6273C42.8978 28.8164 42.249 27.2739 40.9739 25.9996C39.6763 24.7253 38.1327 24.0993 36.3206 24.1217C34.5085 24.144 32.9649 24.77 31.6897 26.0666C30.4146 27.3409 29.7658 28.8835 29.7882 30.6943Z" fill="#FFE364"/>
<path d="M36.052 25.2855C36.3652 25.2855 36.656 25.2408 36.8797 25.129C37.1034 25.0396 37.2153 24.9055 37.2153 24.749C37.2153 24.5925 37.1034 24.4807 36.8797 24.3689C36.656 24.2795 36.3652 24.2124 36.052 24.2348C35.7388 24.2348 35.448 24.2795 35.2242 24.3913C35.0005 24.5031 34.8887 24.6149 34.8887 24.7713C34.8887 24.9278 35.0005 25.0396 35.2242 25.129C35.448 25.2408 35.7164 25.2855 36.052 25.2855Z" fill="white"/>
<path d="M31.5552 30.494C31.5552 31.813 32.0473 32.9308 32.9869 33.8698C33.9265 34.8087 35.0451 35.2559 36.3874 35.2559C37.7073 35.2559 38.8259 34.764 39.7655 33.8251C40.7051 32.8861 41.1525 31.746 41.1525 30.427C41.1525 29.108 40.6604 27.9902 39.7208 27.0512C38.7812 26.1346 37.6626 25.6875 36.3427 25.6875C35.0227 25.6875 33.8818 26.157 32.9646 27.0959C32.025 28.0349 31.5552 29.175 31.5552 30.494Z" fill="#FFB064"/>
<path d="M31.5774 31.2789C31.5774 32.4861 32.0696 33.5368 33.0092 34.3864C33.9488 35.2359 35.0674 35.6607 36.4097 35.6607C37.7296 35.6607 38.8481 35.2135 39.7877 34.3417C40.7273 33.4698 41.1748 32.4414 41.1748 31.2118C41.1748 29.9822 40.6826 28.9539 39.743 28.1043C38.8034 27.2548 37.6848 26.83 36.3649 26.8524C35.045 26.8524 33.9041 27.2995 32.9868 28.1491C32.0249 29.0209 31.5551 30.0717 31.5774 31.2789Z" fill="white"/>
<path d="M31.5774 30.81C31.5774 32.0395 32.0696 33.0903 33.0092 33.9398C33.9488 34.8117 35.0674 35.2364 36.4097 35.2141C37.7296 35.2141 38.8481 34.767 39.7877 33.8951C40.7273 33.0232 41.1748 31.9725 41.1748 30.7429C41.1748 29.5133 40.6826 28.4626 39.743 27.5907C38.8034 26.7412 37.6848 26.3164 36.3649 26.3164C35.045 26.3164 33.9041 26.7635 32.9868 27.6131C32.0249 28.5297 31.5551 29.5804 31.5774 30.81Z" fill="#FFF564"/>
<path d="M40.6601 14.8013C40.5259 14.6671 40.3693 14.6001 40.1903 14.6001C40.0114 14.6001 39.8548 14.6671 39.7205 14.8013C39.5863 14.9354 39.5192 15.0919 39.5192 15.2708L39.5639 21.2398C39.5639 21.4187 39.631 21.5752 39.7653 21.7093C39.8995 21.8434 40.0561 21.9105 40.2351 21.9105C40.414 21.9105 40.5706 21.8434 40.7049 21.7093C40.8391 21.5752 40.9062 21.4187 40.9062 21.2398L40.8391 15.2708C40.8391 15.0919 40.772 14.9354 40.6601 14.8013ZM31.7116 17.7746C31.5773 17.6405 31.4207 17.5734 31.2418 17.5734C31.0628 17.5734 30.9062 17.6405 30.772 17.7746C30.6377 17.9088 30.5706 18.0653 30.5706 18.2441L30.593 23.1177C30.593 23.2966 30.6601 23.4531 30.7943 23.5872C30.9286 23.7213 31.0852 23.7884 31.2641 23.7884C31.4431 23.7884 31.5997 23.7213 31.7339 23.5872C31.8682 23.4531 31.9353 23.2966 31.9353 23.1177L31.9129 18.2441C31.9129 18.0653 31.8458 17.9088 31.7116 17.7746ZM36.7004 18.7806C36.5662 18.9148 36.499 19.0713 36.499 19.2501L36.5214 22.4023C36.5214 22.5812 36.5885 22.7377 36.7228 22.8718C36.857 23.0059 37.0136 23.073 37.1926 23.073C37.3715 23.073 37.5281 23.0059 37.6624 22.8718C37.7966 22.7377 37.8637 22.5812 37.8637 22.4023L37.8413 19.2501C37.8413 19.0713 37.7742 18.9148 37.64 18.7806C37.5058 18.6465 37.3492 18.5794 37.1702 18.5794C36.9912 18.6018 36.8346 18.6689 36.7004 18.7806ZM31.197 13.0352C31.0181 13.0352 30.8615 13.1022 30.7272 13.2364C30.593 13.3705 30.5259 13.527 30.5259 13.7058L30.5482 15.9414C30.5482 16.1203 30.6154 16.2768 30.7496 16.4109C30.8838 16.545 31.0404 16.6121 31.2194 16.6121C31.3984 16.6121 31.555 16.545 31.6892 16.4109C31.8234 16.2768 31.8905 16.1203 31.8905 15.9414L31.8682 13.7282C31.8682 13.5493 31.801 13.3929 31.6668 13.2587C31.555 13.1022 31.3984 13.0352 31.197 13.0352Z" fill="#8B8BFC"/>
<path d="M29.7882 30.6968C29.8105 32.5076 30.4593 34.0502 31.7345 35.3245C33.0096 36.5988 34.5756 37.2248 36.3877 37.2248C37.8195 37.2248 39.0723 36.8 40.1685 36.0175L32.4504 25.3984C32.1819 25.5996 31.9358 25.8232 31.6897 26.0691C30.4146 27.3434 29.7658 28.886 29.7882 30.6968Z" fill="#FF8354" fill-opacity="0.1882"/>
<path d="M44.1501 24.5052C44.1054 24.5499 44.083 24.617 44.083 24.6841L44.1501 25.6007L43.2105 25.6677C43.1434 25.6677 43.0987 25.6901 43.0539 25.7572C43.0092 25.8019 42.9868 25.8689 42.9868 25.936C42.9868 26.0031 43.0092 26.0478 43.0539 26.0925C43.0987 26.1372 43.1658 26.1596 43.2329 26.1596L44.1725 26.0925L44.2396 27.0091C44.2396 27.0762 44.262 27.1209 44.3067 27.1656C44.3515 27.2103 44.4186 27.2327 44.4857 27.2327C44.5528 27.2327 44.5975 27.2103 44.6423 27.1432C44.687 27.0985 44.7094 27.0315 44.7094 26.9644L44.6423 26.0031L45.5371 25.936C45.6043 25.936 45.649 25.9137 45.6937 25.8466C45.7385 25.8019 45.7609 25.7348 45.7609 25.6677C45.7609 25.6007 45.7385 25.556 45.6714 25.5113C45.6266 25.4665 45.5595 25.4442 45.4924 25.4442L44.5975 25.5113L44.5304 24.5947C44.5304 24.5276 44.5081 24.4829 44.441 24.4382C44.3962 24.3935 44.3291 24.3711 44.262 24.3711C44.262 24.4158 44.1949 24.4605 44.1501 24.5052Z" fill="#F7A584"/>
<path d="M24.9556 22.7144C24.9108 22.7591 24.8884 22.8262 24.8884 22.8933L24.9556 23.8099L24.016 23.8769C23.9488 23.8769 23.9041 23.8993 23.8593 23.9664C23.8146 24.0111 23.7922 24.0781 23.7922 24.1452C23.7922 24.2123 23.8146 24.257 23.8593 24.3017C23.9041 24.3464 23.9712 24.3688 24.0383 24.3688L24.9779 24.3017L25.045 25.2183C25.045 25.2854 25.0674 25.3301 25.1121 25.3748C25.1569 25.4195 25.224 25.4419 25.2911 25.4419C25.3582 25.4419 25.403 25.4195 25.4477 25.3524C25.4925 25.3077 25.5148 25.2407 25.5148 25.1736L25.4477 24.257L26.3426 24.1899C26.4097 24.1899 26.4544 24.1676 26.4992 24.1005C26.5439 24.0558 26.5663 23.9887 26.5663 23.9216C26.5663 23.8546 26.5439 23.8099 26.4768 23.7652C26.4321 23.7204 26.365 23.6981 26.2978 23.6981L25.403 23.7652L25.3359 22.8486C25.3359 22.7815 25.3135 22.7368 25.2464 22.6921C25.2016 22.6474 25.1345 22.625 25.0674 22.625C25.045 22.6474 25.0003 22.6697 24.9556 22.7144Z" fill="#ED8585"/>
<path d="M30.3023 26.6921C30.2576 26.7368 30.2576 26.7815 30.2576 26.8262L30.3023 27.5863L29.5193 27.631C29.4746 27.631 29.4298 27.6534 29.3851 27.6981C29.3403 27.7428 29.3403 27.7875 29.3403 27.8322C29.3403 27.8769 29.3627 27.9216 29.4074 27.9664C29.4522 28.0111 29.4969 28.0111 29.5417 28.0111L30.3247 27.9664L30.3694 28.7265C30.3694 28.7712 30.3918 28.8159 30.4365 28.8606C30.4813 28.9053 30.526 28.9053 30.5708 28.9053C30.6155 28.9053 30.6602 28.883 30.705 28.8382C30.7497 28.7935 30.7497 28.7488 30.7497 28.7041L30.705 27.944L31.4432 27.8993C31.488 27.8993 31.5327 27.8769 31.5775 27.8322C31.6222 27.7875 31.6222 27.7428 31.6222 27.6981C31.6222 27.6534 31.5998 27.6087 31.5551 27.564C31.5104 27.5192 31.4656 27.5192 31.4209 27.5192L30.6826 27.564L30.6379 26.8038C30.6379 26.7591 30.6155 26.7144 30.5708 26.6697C30.526 26.625 30.4813 26.625 30.4365 26.625C30.3694 26.625 30.3247 26.6474 30.3023 26.6921Z" fill="white"/>
<path d="M35.7833 34.2965C35.7386 34.3412 35.7386 34.4082 35.7386 34.4529L35.8728 35.2801L35.0227 35.4143C34.9556 35.4143 34.9109 35.459 34.8885 35.5037C34.8437 35.5484 34.8438 35.6155 34.8438 35.6602C34.8438 35.7272 34.8885 35.772 34.9332 35.7943C34.978 35.839 35.0451 35.839 35.0898 35.839L35.94 35.7049L36.0742 36.5321C36.0742 36.5991 36.1189 36.6438 36.1637 36.6662C36.2084 36.7109 36.2755 36.7109 36.3203 36.7109C36.3874 36.7109 36.4321 36.6662 36.4545 36.6215C36.4992 36.5768 36.4992 36.5097 36.4992 36.465L36.365 35.6378L37.1704 35.5037C37.2375 35.5037 37.2822 35.459 37.3046 35.4143C37.3494 35.3695 37.3494 35.3025 37.3494 35.2578C37.3494 35.1907 37.3046 35.146 37.2599 35.1236C37.2151 35.0789 37.148 35.0789 37.1033 35.0789L36.2979 35.213L36.1637 34.3859C36.1637 34.3188 36.1189 34.2741 36.0742 34.2517C36.0294 34.207 35.9623 34.207 35.9176 34.207C35.8728 34.2294 35.8057 34.2517 35.7833 34.2965Z" fill="white"/>
<defs>
<radialGradient id="paint0_radial" cx="0" cy="0" r="1" gradientUnits="userSpaceOnUse" gradientTransform="translate(55.3483 52.5568) rotate(142.205) scale(16.7113 16.7084)">
<stop offset="0.3333" stop-color="#FFBA84"/>
<stop offset="0.8196" stop-color="#C970C8"/>
<stop offset="1" stop-color="#FF9B84"/>
</radialGradient>
<radialGradient id="paint1_radial" cx="0" cy="0" r="1" gradientUnits="userSpaceOnUse" gradientTransform="translate(43.6975 53.6661) rotate(179.562) scale(23.4498 23.4336)">
<stop offset="0.3333" stop-color="#FFBA84"/>
<stop offset="0.8196" stop-color="#C970C8"/>
<stop offset="1" stop-color="#FF9B84"/>
</radialGradient>
<radialGradient id="paint2_radial" cx="0" cy="0" r="1" gradientUnits="userSpaceOnUse" gradientTransform="translate(66.3882 32.2113) rotate(154.211) scale(9.46281 9.45876)">
<stop stop-color="#FF74A1"/>
<stop offset="0.749" stop-color="#D93B78"/>
<stop offset="1" stop-color="#FF74A1"/>
</radialGradient>
<radialGradient id="paint3_radial" cx="0" cy="0" r="1" gradientUnits="userSpaceOnUse" gradientTransform="translate(35.4123 24.5189) rotate(157.693) scale(46.6333 44.2631)">
<stop offset="0.3333" stop-color="#FFC988"/>
<stop offset="0.8196" stop-color="#E36DE2"/>
<stop offset="1" stop-color="#FF8EA6"/>
</radialGradient>
<linearGradient id="paint4_linear" x1="41.9111" y1="49.1435" x2="35.0273" y2="32.3646" gradientUnits="userSpaceOnUse">
<stop stop-color="#FFDC84" stop-opacity="0"/>
<stop offset="0.8039" stop-color="#FFFDC0"/>
<stop offset="1" stop-color="white"/>
</linearGradient>
<radialGradient id="paint5_radial" cx="0" cy="0" r="1" gradientUnits="userSpaceOnUse" gradientTransform="translate(42.4273 35.1256) rotate(157.693) scale(12.4907 12.4845)">
<stop offset="0.00392157" stop-color="#4D3869"/>
<stop offset="0.6549" stop-color="#833F3F"/>
<stop offset="0.9882" stop-color="#503A72"/>
</radialGradient>
<radialGradient id="paint6_radial" cx="0" cy="0" r="1" gradientUnits="userSpaceOnUse" gradientTransform="translate(52.8335 37.2052) rotate(149.521) scale(12.5803 12.5761)">
<stop stop-color="#EE763B"/>
<stop offset="1" stop-color="#FF74A1"/>
</radialGradient>
<radialGradient id="paint7_radial" cx="0" cy="0" r="1" gradientUnits="userSpaceOnUse" gradientTransform="translate(52.8339 37.2052) rotate(149.521) scale(12.5803 12.5761)">
<stop stop-color="#D4632A"/>
<stop offset="1" stop-color="#D05B81"/>
</radialGradient>
</defs>
</svg>
