<?xml version="1.0" encoding="UTF-8"?>
<svg width="101px" height="100px" viewBox="0 0 101 100" version="1.1" xmlns="http://www.w3.org/2000/svg" xmlns:xlink="http://www.w3.org/1999/xlink">
    <title>EAC21A04-272F-4FB3-8B24-AC3D24C69B25</title>
    <g id="Page-2" stroke="none" stroke-width="1" fill="none" fill-rule="evenodd">
        <g id="Icons" transform="translate(-197.000000, -600.000000)" fill-rule="nonzero">
            <g id="Elements/Graphics/SubjectGraphics/EnglishGrammar/Hero" transform="translate(197.500000, 600.000000)">
                <g id="English_grammar_Hero" transform="translate(20.600000, 10.400000)">
                    <g id="Layer0_0_FILL" transform="translate(18.455696, 71.772152)" fill="#0D8598">
                        <path d="M19.7947595,0.637746835 C17.4009873,0.0485316456 14.5813671,-0.060835443 11.3358987,0.30964557 C8.09043038,0.680126582 5.36650633,1.41493671 3.16412658,2.51407595 C0.956278481,3.62825316 -0.0792911392,4.78686076 0.0574177215,5.98989873 C0.194126582,7.19293671 1.45868354,8.08496203 3.85108861,8.66597468 C6.24349367,9.26065823 9.06311392,9.37686076 12.3099494,9.01458228 C15.5567848,8.6523038 18.2807089,7.91065823 20.4817215,6.78964557 C22.6909367,5.6823038 23.7299241,4.53053165 23.5986835,3.33432911 C23.467443,2.13812658 22.1994684,1.23926582 19.7947595,0.637746835 Z" id="Path"></path>
                    </g>
                    <g id="Layer0_1_FILL" transform="translate(0.000000, 43.678481)">
                        <polygon id="Path" fill="#77FFF8" points="6.06987342 5.03020253 8.89564557 5.28858228 2.08549367 14.602557 1.77789873 17.8302532 12.697519 18.8330127 12.9969114 15.6114684 6.76708861 15.0372911 7.7821519 13.6162025 13.7515443 5.41367089 14.0222278 2.50382278 3.83673418 1.56873418 3.54144304 4.79437975"></polygon>
                        <path d="M8.89564557,5.28858228 L6.06167089,5.03020253 L0.282987342,12.9271899 L0.00410126582,16.0851646 L1.782,17.8364051 L2.08549367,14.602557 L8.89564557,5.28858228 M14.0222278,2.50382278 L11.988,1.05402532 L2.20443038,0.151746835 L1.92349367,3.30151899 L3.564,4.79437975 L3.85929114,1.56873418 L14.0222278,2.50382278 M7.7883038,13.6162025 L6.77324051,15.0372911 L13.0030633,15.6114684 L10.7473671,13.8807342 L7.7883038,13.6162025 Z" id="Shape" fill="#4683AF"></path>
                    </g>
                    <g id="Layer0_2_FILL" transform="translate(21.736709, 0.000000)">
                        <path d="M13.2388861,1.76764557 C13.3619241,1.82301266 13.4788101,1.88043038 13.5936456,1.9378481 C13.4646503,1.80968893 13.3276673,1.68982874 13.183519,1.57898734 C13.0297266,1.43789798 12.8651783,1.30900184 12.6913671,1.19346835 C12.4399797,1.03170145 12.1767525,0.889120053 11.9039241,0.766936709 C11.1431985,0.436345463 10.3396326,0.214743523 9.51698734,0.108683544 C7.86144304,-0.129189873 6.40686076,0.0266582278 5.15324051,0.576227848 C4.98713924,0.648 4.82718987,0.725924051 4.67544304,0.807949367 C3.67032768,1.34241313 2.86582344,2.18865372 2.38283544,3.21949367 C2.20382097,3.5995515 2.0550314,3.99312393 1.9378481,4.39655696 L3.27075949,5.39726582 C3.33227848,5.19220253 3.402,4.97483544 3.47582278,4.78207595 C3.54964557,4.58931646 3.62756962,4.40681013 3.71164557,4.22840506 C4.19541188,3.19742023 5.00060552,2.35121136 6.0063038,1.81686076 C6.16082018,1.7321525 6.31961459,1.65549313 6.48205063,1.58718987 C7.73703797,1.04035443 9.19162025,0.884506329 10.8457975,1.11964557 C11.6681326,1.22608928 12.471552,1.44696058 13.2327342,1.7758481 M6.58253165,14.4631139 C6.67322614,14.7962859 6.89023693,15.0809746 7.18746835,15.2567089 C7.37645073,15.366192 7.58578245,15.4359692 7.80265823,15.4617722 C7.875436,15.4716516 7.94867044,15.4778115 8.02207595,15.4802278 C8.33905671,15.4746635 8.64784299,15.3786125 8.91205063,15.2033924 C8.96760218,15.1723738 9.02042422,15.1367018 9.06994937,15.0967595 C9.22640506,14.9888219 9.37138996,14.8651381 9.50263291,14.7276456 C10.0494684,14.1534684 10.444557,13.0133165 10.6878987,11.3071899 L10.8088861,10.4869367 C10.3151793,10.4656082 9.82060636,10.4765683 9.32832911,10.5197468 C9.0781519,12.1137722 8.69263291,13.1855696 8.17177215,13.7351392 C7.68235443,14.2395949 7.18883544,14.4904557 6.69121519,14.4877215 C6.65654803,14.4875685 6.6220599,14.4827402 6.58868354,14.4733671 M10.2224051,17.8056456 C10.2347089,17.6005823 10.2552152,17.3668101 10.2839241,17.1084304 C10.3126329,16.7830633 10.3577468,16.4112152 10.4192658,15.9928861 C10.1557187,16.356379 9.85767647,16.693565 9.52929114,16.9997468 C9.38305448,17.1389577 9.22900754,17.2697264 9.06789873,17.3914177 C9.01868354,17.4262785 8.97151899,17.4590886 8.9223038,17.4877975 C8.9223038,17.5370127 8.93460759,17.5821266 8.94281013,17.6210886 L10.2736709,18.6217975 C10.2282807,18.3508862 10.2111002,18.075999 10.2224051,17.8015443 M1.60974684,13.0194684 C1.82164557,11.5512152 2.37531646,10.3987595 3.27075949,9.56210127 C3.52848091,9.32370328 3.80867355,9.11081181 4.10741772,8.92640506 C5.49637975,8.05556962 7.84435443,7.76027848 11.1513418,8.04053165 L11.2415696,7.42534177 C11.4042532,6.29886076 11.4042532,5.50253165 11.2415696,5.03635443 C11.0788861,4.57017722 10.6687595,4.28855696 10.0111899,4.19149367 L9.95992405,4.19149367 C10.0733924,4.67134177 10.0569873,5.41777215 9.91070886,6.43078481 L9.82048101,7.05827848 C6.50802532,6.78486076 4.15458228,7.07605063 2.7601519,7.9318481 C2.4619909,8.10931706 2.18178717,8.31534921 1.92349367,8.54703797 C1.02668354,9.3836962 0.473012658,10.5354684 0.262481013,12.0023544 C0.0820253165,13.2559747 0.226936709,14.3038481 0.69721519,15.1459747 C0.782980114,15.3125194 0.882436244,15.4716492 0.994556962,15.6217215 C1.1236373,15.7858984 1.26781125,15.9376243 1.42518987,16.0749114 C1.44191594,16.0962768 1.46043917,16.1161721 1.48055696,16.1343797 C1.52727148,16.1668049 1.57055857,16.2039081 1.60974684,16.2451139 C1.86962079,16.4589185 2.15473664,16.6400428 2.45870886,16.7844304 C2.41359494,16.7331646 2.36848101,16.6777975 2.32541772,16.6224304 C2.21285229,16.4733856 2.11336876,16.3148981 2.02807595,16.1487342 C1.56189873,15.3066076 1.41972152,14.2587342 1.6015443,13.0051139 L1.60974684,13.0194684 Z" id="Shape" fill="#4683AF"></path>
                        <path d="M14.518481,2.5796962 C14.3633304,2.43911106 14.1974051,2.31089606 14.0222278,2.19622785 C13.8868861,2.10805063 13.7433418,2.02192405 13.5895443,1.9378481 L13.5895443,1.9378481 C13.4747089,1.88043038 13.3578228,1.82301266 13.2347848,1.76764557 C12.4736026,1.43875804 11.6701833,1.21788675 10.8478481,1.11144304 C9.19503797,0.870835443 7.7404557,1.02668354 6.48410127,1.57898734 C6.32166523,1.6472906 6.16287081,1.72394997 6.00835443,1.80865823 C5.00265616,2.34300883 4.19746252,3.1892177 3.7136962,4.22020253 C3.62962025,4.39860759 3.54964557,4.58316456 3.47787342,4.77387342 C3.40610127,4.96458228 3.33227848,5.184 3.27281013,5.38906329 L7.67346835,6.4676962 C7.68974319,6.35189413 7.71933144,6.23835784 7.76164557,6.12934177 C8.04326582,5.08898734 8.49987342,4.45807595 9.13146835,4.23660759 C9.40027616,4.14815303 9.68572401,4.12220323 9.96607595,4.16073418 L10.0173418,4.16073418 C10.6735443,4.25506329 11.0836709,4.53668354 11.2477215,5.00559494 C11.4117722,5.47450633 11.4117722,6.27083544 11.2477215,7.39458228 L11.1513418,8.04053165 C7.84025316,7.76711392 5.48681013,8.05898734 4.09101266,8.9161519 C3.79226849,9.10055865 3.51207585,9.31345011 3.25435443,9.5518481 C2.3575443,10.3885063 1.80387342,11.540962 1.59334177,13.0092152 C1.41288608,14.2628354 1.55779747,15.3107089 2.02807595,16.1528354 C2.11336876,16.3189994 2.21285229,16.4774869 2.32541772,16.6265316 C2.36848101,16.6818987 2.41359494,16.7372658 2.45870886,16.7885316 C2.5503038,16.8910633 2.64463291,16.987443 2.7416962,17.0776709 L2.81141772,17.1412405 C2.8576097,17.1735774 2.9008424,17.2099478 2.94060759,17.2499241 C4.6898141,18.5729375 7.0792387,18.6622235 8.9223038,17.473443 C8.97151899,17.4447342 9.01868354,17.4119241 9.06789873,17.3770633 C9.22900754,17.255372 9.38305448,17.1246033 9.52929114,16.9853924 C9.85767647,16.6792106 10.1557187,16.3420246 10.4192658,15.9785316 C10.3577468,16.3968608 10.3126329,16.7687089 10.2839241,17.0940759 C10.2552152,17.3524557 10.2347089,17.5841772 10.2224051,17.7912911 C10.2111002,18.0657458 10.2282807,18.3406331 10.2736709,18.6115443 L14.6497215,19.2431392 C14.5130127,18.8138734 14.5943544,17.5547848 14.8937468,15.4658734 L15.8677975,8.71724051 C16.1111392,7.03572152 16.1712911,5.77731646 16.0482532,4.94202532 C15.9078944,4.2193958 15.5501629,3.55687702 15.0229367,3.04313924 C14.9980935,3.01150212 14.971388,2.98137282 14.942962,2.95291139 C14.814469,2.81976695 14.6774724,2.69510001 14.5328354,2.5796962 M7.76164557,10.9421772 C7.90683459,10.8572985 8.06086233,10.7885361 8.22098734,10.7371139 C8.58009037,10.6151925 8.95138669,10.5326822 9.32832911,10.491038 C9.82060636,10.4478594 10.3151793,10.4368993 10.8088861,10.4582278 L10.6878987,11.278481 C10.4418228,12.9846076 10.0467342,14.1247595 9.50263291,14.6989367 C9.37138996,14.8364292 9.22640506,14.960113 9.06994937,15.0680506 C9.02042422,15.1079929 8.96760218,15.143665 8.91205063,15.1746835 C8.64784299,15.3499036 8.33905671,15.4459547 8.02207595,15.451519 C7.94867044,15.4491026 7.875436,15.4429427 7.80265823,15.4330633 C7.58578245,15.4072604 7.37645073,15.3374831 7.18746835,15.228 C6.89023693,15.0522658 6.67322614,14.767577 6.58253165,14.4344051 C6.49567105,14.1118885 6.46925144,13.7760813 6.50460759,13.4439494 C6.50460759,13.3147595 6.52716456,13.1896709 6.54562025,13.0707342 C6.70146835,12.0290127 7.10681013,11.3194937 7.76164557,10.9421772 Z" id="Shape" fill="#77FFF8"></path>
                    </g>
                    <g id="Layer0_3_FILL" transform="translate(37.321519, 32.194937)">
                        <path d="M2.01577215,16.4604304 C2.05883544,16.5609114 2.10189873,16.6654937 2.14906329,16.7598228 C2.90506329,18.3388101 4.26668354,19.3443038 6.23392405,19.7763038 C10.429519,20.7004557 13.1842025,18.1788608 14.4979747,12.211519 C15.1528101,9.23810127 15.1063291,6.88670886 14.3585316,5.15734177 C14.0511351,4.42560934 13.5821305,3.77292886 12.9866582,3.24820253 C12.1777703,2.55765467 11.2033195,2.08915512 10.1588354,1.88863291 C5.96324051,0.963113924 3.20992405,3.47992405 1.89888608,9.43906329 C1.25498734,12.3618987 1.29394937,14.703038 2.01577215,16.462481 M5.42392405,14.9368101 C5.27217722,14.0290633 5.4355443,12.4910886 5.91402532,10.3228861 C6.42668354,7.99063291 6.95437975,6.47658228 7.49711392,5.78073418 C8.03027848,5.07326582 8.69263291,4.80668354 9.47802532,4.98098734 C9.57235443,5.00149367 9.66258228,5.02610127 9.74665823,5.05275949 C10.3864557,5.28243038 10.7965823,5.78005063 10.977038,6.54562025 C11.1670633,7.39321519 11.0050633,8.98792405 10.491038,11.3297468 C9.97701266,13.6715696 9.45205063,15.1958734 8.9161519,15.9026582 C8.36931646,16.5862025 7.70149367,16.8425316 6.91268354,16.6716456 C6.12387342,16.5007595 5.63855696,15.9716962 5.45673418,15.0844557 C5.44032911,15.0366076 5.42939241,14.9867089 5.42392405,14.9347595 L5.42392405,14.9368101 Z" id="Shape" fill="#77FFF8"></path>
                        <path d="M5.6515443,14.9983291 C5.5743907,14.9820239 5.49836144,14.9607905 5.42392405,14.9347595 C5.42392405,14.9867089 5.43212658,15.0359241 5.44853165,15.0824051 C5.6221519,15.9641772 6.10746835,16.4932405 6.90448101,16.6695949 C7.70149367,16.8459494 8.36931646,16.5896203 8.90794937,15.9006076 C9.44111392,15.2033924 9.96607595,13.6790886 10.4828354,11.3276962 C10.9995949,8.9763038 11.1615949,7.38159494 10.9688354,6.54356962 C10.7938481,5.77936709 10.3837215,5.28174684 9.7384557,5.05070886 C9.87516456,5.93931646 9.70291139,7.47524051 9.2216962,9.65848101 C8.70493671,12.0085063 8.17997468,13.5328101 7.64681013,14.2313924 C7.11364557,14.9299747 6.44582278,15.1856203 5.64334177,14.9983291 M2.14086076,16.7598228 C2.0936962,16.6613924 2.05063291,16.5547595 2.00756962,16.4604304 C1.28848101,14.6996203 1.24951899,12.358481 1.89068354,9.43701266 C3.20308861,3.47924051 5.95640506,0.96243038 10.1506329,1.88658228 C11.2018387,2.08466316 12.1830208,2.5540471 12.9969114,3.24820253 C12.2327089,1.65691139 10.8724557,0.646632911 8.9161519,0.217367089 C4.72055696,-0.70678481 1.96724051,1.81002532 0.656202532,7.76779747 C0.0123037975,10.6878987 0.0512658228,13.029038 0.773088608,14.7912152 C1.07325511,15.5450403 1.54426891,16.2189199 2.14906329,16.7598228 L2.14086076,16.7598228 Z" id="Shape" fill="#4683AF"></path>
                    </g>
                    <g id="Layer0_4_FILL" transform="translate(9.432911, 18.660759)">
                        <path d="M19.6819747,36.5033165 L20.3996962,41.9374937 L37.1943797,39.7330633 L29.6275443,35.2011646 L19.6819747,36.5033165 M23.5781772,17.8117975 L17.3442532,18.6320506 L18.0414684,23.8919241 L31.0834937,22.1796456 L23.5781772,17.8117975 M32.5189367,4.23660759 L25.0136203,0.0635696203 L0.200962025,3.34458228 L6.22982278,7.70217722 L32.5189367,4.23660759 Z" id="Shape" fill="#0993B4"></path>
                        <polygon id="Path" fill="#005B72" points="6.22982278 7.70217722 0.180455696 3.33432911 5.8196962 46.192557 11.8998228 50.9192658"></polygon>
                        <polygon id="Path" fill="#FFF45D" points="33.4827342 11.6393924 32.5086835 4.23660759 6.22982278 7.70217722 11.9100759 50.9192658 38.1991899 47.4536962 37.1943797 39.7330633 20.3996962 41.9374937 19.6819747 36.5033165 19.0052658 31.3152152 32.0472911 29.5926835 31.0732405 22.1898987 18.0312152 23.9021772 17.334 18.6423038 16.6983038 13.8643291"></polygon>
                    </g>
                    <g id="Layer0_5_FILL" transform="translate(49.625316, 57.827848)">
                        <polygon id="Path" fill="#1A618A" points="4.97688608 7.58324051 2.7663038 7.13620253 0.0533164557 11.2374684 1.36162025 13.0399747"></polygon>
                        <polygon id="Path" fill="#79FFFB" points="8.83617722 2.5796962 7.23258228 1.19756962 2.29875949 0.198911392 3.69113924 1.53797468"></polygon>
                        <polygon id="Path" fill="#2273A1" points="2.56534177 7.09518987 3.69113924 1.53797468 2.29875949 0.198911392 2.28850633 0.198911392 1.20782278 5.53055696"></polygon>
                        <polygon id="Path" fill="#389AD2" points="2.56534177 7.09518987 2.77040506 7.13620253 4.98098734 7.58324051 1.36162025 13.0440759 3.39174684 13.4542025 7.81086076 7.64475949 8.83617722 2.5796962 3.69113924 1.53797468"></polygon>
                    </g>
                    <g id="Layer0_6_FILL" transform="translate(0.820253, 11.688608)">
                        <polygon id="Path" fill="#1A618A" points="2.2556962 7.26539241 1.10324051 5.67410127 0.0307594937 10.5197468 1.14835443 12.3099494"></polygon>
                        <path d="M5.88941772,6.20931646 L5.08556962,7.37612658 L7.48891139,7.90724051 L5.88941772,6.20931646 M7.38227848,0.596734177 L5.44032911,0.166101266 L6.77734177,1.53387342 L8.79516456,1.99936709 L7.38227848,0.596734177 Z" id="Shape" fill="#79FFFB"></path>
                        <polygon id="Path" fill="#2273A1" points="6.77529114 1.54412658 6.77529114 1.54412658 5.44032911 0.166101266 1.10324051 5.67410127 2.26389873 7.26539241"></polygon>
                        <polygon id="Path" fill="#389AD2" points="8.79516456 1.99936709 6.77734177 1.53387342 6.77734177 1.53387342 2.26594937 7.25513924 1.15040506 12.2996962 6.27698734 13.4336962 7.50736709 7.89698734 5.10402532 7.36587342 5.90787342 6.19906329"></polygon>
                    </g>
                </g>
            </g>
        </g>
    </g>
</svg>