<?xml version="1.0" encoding="UTF-8"?>
<svg width="101px" height="100px" viewBox="0 0 101 100" version="1.1" xmlns="http://www.w3.org/2000/svg" xmlns:xlink="http://www.w3.org/1999/xlink">
    <title>DE967F1A-5821-47F6-8001-26A401D14AFC</title>
    <defs>
        <linearGradient x1="44.2898811%" y1="50.9576411%" x2="83.1161144%" y2="317.78344%" id="linearGradient-1">
            <stop stop-color="#44778E" offset="0%"></stop>
            <stop stop-color="#6CB890" offset="29%"></stop>
            <stop stop-color="#FFDB83" offset="92%"></stop>
        </linearGradient>
        <linearGradient x1="59.6139113%" y1="113.418129%" x2="43.9763202%" y2="10.2982499%" id="linearGradient-2">
            <stop stop-color="#5ABED7" offset="0%"></stop>
            <stop stop-color="#EBF781" offset="51%"></stop>
            <stop stop-color="#FFF6CD" offset="80%"></stop>
            <stop stop-color="#FFE8B4" offset="100%"></stop>
        </linearGradient>
        <linearGradient x1="-1104.30959%" y1="-257.872607%" x2="-1108.85222%" y2="-354.288882%" id="linearGradient-3">
            <stop stop-color="#44778E" offset="0%"></stop>
            <stop stop-color="#6CB890" offset="29%"></stop>
            <stop stop-color="#FFDB83" offset="92%"></stop>
        </linearGradient>
        <linearGradient x1="53.2990796%" y1="56.2313351%" x2="48.6768432%" y2="45.1642386%" id="linearGradient-4">
            <stop stop-color="#83FFA9" offset="0%"></stop>
            <stop stop-color="#FFDB83" offset="51%"></stop>
            <stop stop-color="#FFF6CD" offset="80%"></stop>
            <stop stop-color="#FFE8B4" offset="100%"></stop>
        </linearGradient>
        <linearGradient x1="92.5638497%" y1="65.5639098%" x2="27.6344182%" y2="44.2706767%" id="linearGradient-5">
            <stop stop-color="#38291C" offset="0%"></stop>
            <stop stop-color="#3F6BA8" offset="100%"></stop>
        </linearGradient>
        <linearGradient x1="40.2312583%" y1="38.8484843%" x2="57.0831884%" y2="53.8005347%" id="linearGradient-6">
            <stop stop-color="#105FA6" offset="0%"></stop>
            <stop stop-color="#985D5D" offset="53%"></stop>
            <stop stop-color="#3F6BA8" offset="100%"></stop>
        </linearGradient>
    </defs>
    <g id="Page-2" stroke="none" stroke-width="1" fill="none" fill-rule="evenodd">
        <g id="Icons" transform="translate(-297.000000, -600.000000)" fill-rule="nonzero">
            <g id="Elements/Graphics/SubjectGraphics/EnglishLiterature/Hero" transform="translate(297.500000, 600.000000)">
                <g id="English_Literature-Hero" transform="translate(16.800000, 10.400000)">
                    <g id="Layer1_0_FILL" transform="translate(24.208807, 71.558186)" fill="#03828E">
                        <path d="M22.81726,1.74039798 C20.2605497,0.711356843 17.1466666,0.142035264 13.4756107,0.0324332494 C9.80455485,-0.0771687657 6.66231496,0.303393787 4.04889106,1.17412091 C1.42320475,2.04637028 0.0896687968,3.15989631 0.0482831983,4.51469899 C-0.000766399973,5.84514568 1.26072796,7.02717296 3.83276626,8.06078086 C6.40480457,9.09438875 9.51792126,9.66979933 13.1721163,9.78701259 C16.837041,9.89357011 19.9792809,9.50767968 22.598836,8.62934131 C25.2183911,7.75100294 26.5519271,6.64508816 26.5994439,5.31159698 C26.6408295,3.96288329 25.3801015,2.77248363 22.81726,1.74039798 Z" id="Path"></path>
                    </g>
                    <g id="Layer0_0_MEMBER_0_FILL" transform="translate(0.000000, 10.456927)" fill="url(#linearGradient-1)">
                        <path d="M4.89887768,0.0734855416 C4.8410788,0.0781982902 4.78355901,0.0858630508 4.7265438,0.0964497733 C3.22958048,0.338406829 1.89915172,1.18771453 1.05008776,2.44339426 C0.176484043,3.6758262 -0.169229055,5.20557313 0.0895645259,6.69361641 C0.348358107,8.18165969 1.19028474,9.50510259 2.42875877,10.3706471 C3.65414749,11.2651483 5.19676127,11.609597 6.68655443,11.3213662 L11.4199916,10.5084324 L10.4181573,4.79952443 C10.183554,3.30298885 9.33600291,1.97167442 8.07901215,1.12524736 C7.15372651,0.453600874 6.04239838,0.0860527389 4.89887768,0.0734855416 Z" id="Path"></path>
                    </g>
                    <g id="Layer0_0_MEMBER_1_FILL" transform="translate(3.898028, 4.305793)" fill="url(#linearGradient-2)">
                        <path d="M40.1044979,1.05838482 C38.8738832,0.163064164 37.3285331,-0.185740218 35.8324421,0.0941296697 L0.0482328879,6.33882971 C0.360022983,6.29390985 0.674982388,6.27471302 0.989922603,6.28143357 C2.13127308,6.29101944 3.24197575,6.65174695 4.1709964,7.31456409 C5.42281517,8.16410134 6.26676656,9.49391283 6.50225265,10.9879171 L8.56937641,22.7770842 C8.64899821,23.3764907 8.98397124,23.9122239 9.48809809,24.2464254 C9.94310969,24.6014977 10.5272176,24.7474637 11.095861,24.6481984 C10.5302091,24.753096 10.032206,25.0849595 9.7177785,25.5665366 C9.37011309,26.0597079 9.23750262,26.6727754 9.35028983,27.2654624 L15.1152683,60.3830352 C15.675339,63.4698674 18.6111191,65.5353033 21.7070963,65.0206433 L57.5027896,58.7874225 L57.3075612,58.810381 L21.8563886,64.9862056 C23.2944483,64.7153455 24.5664101,63.885613 25.3934671,62.6788808 C26.2912313,61.4541722 26.6367403,59.9104333 26.3466408,58.4200872 L20.7194705,59.4073008 C19.9787225,59.5456665 19.2137272,59.3711209 18.6064107,58.9251732 C17.6699499,58.260186 17.2238822,57.0986151 17.4746655,55.9780816 C17.7254488,54.8575481 18.6241493,53.9966946 19.7548128,53.7939583 L20.0993334,53.7480414 L19.9959772,53.7709999 L50.084112,48.5135134 L49.5902991,45.7125818 C49.3868815,44.5058898 48.2666803,43.6749562 47.0523305,43.8299884 C47.6196612,43.729246 48.1191771,43.3963744 48.430413,42.9116502 C48.7913362,42.4287605 48.9291844,41.8149654 48.8093857,41.2242036 L43.3315077,9.77111888 C43.2451582,9.17118622 42.9067362,8.63661909 42.401302,8.3017777 C41.916231,7.95474115 41.313183,7.81436392 40.724635,7.91148395 C41.3140936,7.81294439 41.837217,7.47679111 42.1716216,6.98166648 C42.5347178,6.49537154 42.6726199,5.87715956 42.5505943,5.28274073 L42.4587222,4.72025856 C42.2157608,3.22618931 41.3631556,1.90000626 40.1044979,1.05838482 Z" id="Path"></path>
                    </g>
                    <g id="Layer0_0_MEMBER_2_FILL" transform="translate(21.131416, 58.025693)" fill="url(#linearGradient-3)">
                        <path d="M6.82257509,1.04821624 C5.69012254,0.224202336 4.28061558,-0.135399595 2.88736179,0.0442408448 L2.54577142,0.103701802 C0.999673646,0.378199452 -0.0381452237,1.8311098 0.214647999,3.36719357 C0.329073184,4.11968425 0.758039036,4.78963202 1.39636601,5.2127702 C2.01050851,5.65231253 2.77955438,5.82339532 3.52438165,5.6861709 L9.16985482,4.7050651 C8.93229492,3.21661391 8.08233982,1.89246098 6.82257509,1.04821624 L6.82257509,1.04821624 Z" id="Path"></path>
                    </g>
                    <g id="Layer0_0_MEMBER_3_FILL" transform="translate(23.798488, 51.669521)" fill="url(#linearGradient-4)">
                        <path d="M0.107891653,6.42407034 C2.33445578,6.17345201 4.50161987,7.24680943 5.64513022,9.16656508 C6.78864056,11.0863207 6.6959719,13.4956815 5.40835606,15.3226313 C4.58629399,16.529531 3.3144886,17.359403 1.87547831,17.6278868 L37.6404135,11.4142168 C40.7191841,10.856042 42.7692078,7.92772417 42.2312408,4.85653598 C41.6932737,1.78534778 38.7688564,-0.278140192 35.6822948,0.235556869 L0.107891653,6.42407034 Z" id="Path"></path>
                    </g>
                    <g id="Layer0_1_FILL" transform="translate(41.442194, 30.960705)" fill="#102154" fill-opacity="0.17">
                        <path d="M9.3705795,4.32810919 L8.62249836,0.082396579 C8.19001914,0.458380864 7.73661834,0.809884186 7.26444336,1.13524176 C5.975442,1.79899197 5.44986704,2.64966036 5.68771848,3.68724691 L6.0329867,4.05345393 L0.186444839,9.74110667 L0.738873992,9.82121446 C1.31121957,9.35944185 1.9371672,8.96755157 2.60332238,8.65392959 C3.0080547,8.44836492 3.4273249,8.27242408 3.85779692,8.127507 C4.36419031,8.127507 4.93196471,7.80707586 5.56112014,7.16621358 L6.58541586,6.17058825 C6.86937527,5.86890245 6.92082453,5.41777467 6.7120142,5.06052323 L6.88464831,4.90030766 L7.26444336,5.27795864 C7.78141097,5.397329 8.32503729,5.29337566 8.76060564,4.99185941 C8.98909547,4.82014946 9.19076887,4.61575813 9.35907056,4.38532904 L9.3705795,4.37388507 L9.3705795,4.32810919 Z" id="Path"></path>
                    </g>
                    <g id="Layer0_2_MEMBER_0_FILL" transform="translate(43.288629, 24.194458)" fill="url(#linearGradient-5)">
                        <path d="M3.21631287,0.0142940626 C3.14211356,0.273227492 3.05125726,0.535968766 2.94374398,0.802517884 C2.47050776,1.8264598 1.85902921,2.77980097 1.12661807,3.63555423 C0.0757135797,4.61036243 -0.200640986,5.56613141 0.297554368,6.50286117 L2.21689361,7.61094394 C2.74319735,7.59386102 3.2362528,7.34797363 3.56838101,6.93695545 C3.89318013,6.48912133 4.11435581,5.97392605 4.21573212,5.42904901 C4.80629804,3.85869392 5.4990773,2.6516072 6.29406988,1.80778884 L3.21631287,0.0142940626 Z" id="Path"></path>
                    </g>
                    <g id="Layer0_2_MEMBER_0_MEMBER_0_FILL" transform="translate(39.595760, 30.960705)">
                        <path d="M3.03738458,2.93340722 C3.07068855,2.7966335 3.02113634,2.65305214 2.91044222,2.56558186 L2.02184566,4.08286146 C2.12109151,4.14493199 2.25264996,4.12194291 2.41421297,4.01389421 C2.5870809,3.89532061 2.72942003,3.73779194 2.82966071,3.55411251 C2.94628708,3.36605337 3.01740185,3.15355341 3.03738458,2.93340722 L3.03738458,2.93340722 Z" id="Path" fill="#432711"></path>
                        <path d="M2.91044222,2.56558186 C3.02113634,2.65305214 3.07068855,2.7966335 3.03738458,2.93340722 C3.01566444,3.14959258 2.94461318,3.35797109 2.82966071,3.54261797 C2.72942003,3.7262974 2.5870809,3.88382607 2.41421297,4.00239966 C2.25264996,4.11044836 2.12109151,4.13343745 2.02184566,4.07136692 L0.0946297628,7.39328967 L0.648560082,7.32432242 C1.08370133,6.72793573 1.5786323,6.17719336 2.1257076,5.68060285 C3.97214199,3.48131374 4.56069296,1.86824629 3.89136049,0.841400504 L2.91044222,2.56558186 Z" id="Path" fill="#8E603C"></path>
                        <path d="M5.31080693,2.24373468 C5.50727407,1.87683022 5.44185441,1.42535936 5.14924392,1.12876406 L5.42620908,0.668982368 L4.3645093,0.0597716205 L3.9029007,0.852895046 C4.57531056,1.87820823 3.9867596,3.49127568 2.13724781,5.6920974 C2.4809351,5.39369182 2.84325389,5.11726939 3.22202802,4.86449034 C3.70671705,4.72655584 4.16832565,4.26294263 4.60685382,3.47365071 L5.31080693,2.24373468 Z" id="Path" fill="#744A29"></path>
                    </g>
                    <g id="Layer0_2_MEMBER_1_FILL" transform="translate(46.571179, 0.000000)" fill="url(#linearGradient-6)">
                        <path d="M14.5554114,0.858856512 C14.2575238,1.53324902 13.9189126,2.18923947 13.5414182,2.82326236 C8.40231635,10.932147 4.8687037,16.044932 2.94058027,18.1616173 C0.837312564,20.3087586 -0.130590033,22.3264623 0.0368724799,24.2147284 L0.0368724799,24.2261494 L3.17103327,26.0192408 L3.17103327,26.0192408 C4.89943076,25.2197733 6.17844491,23.380998 7.0080757,20.502915 C7.89147887,17.7908167 10.5954607,12.2021582 15.1200213,3.7369395 C15.4813221,3.09306871 15.8815016,2.47139936 16.3183769,1.87532233 C16.6571428,1.4710202 16.7792829,1.12839127 16.675579,0.847435547 C16.5879566,0.559384613 16.3892014,0.31723729 16.1224918,0.173598657 C15.8708267,0.0212706544 15.5705862,-0.0317249868 15.2813384,0.0251261213 C14.9817495,0.0769011593 14.7397738,0.354811289 14.5554114,0.858856512 Z" id="Path"></path>
                    </g>
                    <g id="Layer0_2_MEMBER_2_FILL" transform="translate(47.186657, 19.273552)" fill="#FFA046" fill-opacity="0.78">
                        <path d="M0.135576155,4.07123023 L0.480072943,4.25166348 C0.746780133,2.98863073 1.42836518,1.60530915 2.52482807,0.101698741 L2.40258727,0.000205037783 C1.20515887,1.049869 0.403888657,2.48876412 0.135576155,4.07123023 L0.135576155,4.07123023 Z" id="Path"></path>
                    </g>
                    <g id="Layer0_2_MEMBER_3_FILL" transform="translate(61.547813, 0.205038)" fill="#FFA046" fill-opacity="0.78">
                        <path d="M0.52,0.8525 C0.643054989,0.82716127 0.753282745,0.774948123 0.836666667,0.7025 C0.914039876,0.632872431 0.950159845,0.542572506 0.936666667,0.4525 C0.928536575,0.372471071 0.865370185,0.301408882 0.77,0.265 C0.668198621,0.222646551 0.547634605,0.21360425 0.436666667,0.24 C0.316926498,0.263116331 0.211171446,0.315993856 0.136666667,0.39 C0.0490435507,0.455659311 0.00609598172,0.547689816 0.02,0.64 C0.0281300916,0.720028929 0.0912964812,0.791091118 0.186666667,0.8275 C0.28809374,0.870743048 0.409164077,0.879823323 0.52,0.8525 Z" id="Path"></path>
                    </g>
                    <g id="Layer0_2_MEMBER_4_FILL" transform="translate(44.314426, 28.500252)" fill="#FFFFFF" fill-opacity="0.84">
                        <path d="M0.9375,0.487989924 C0.981840559,0.366591532 0.970958573,0.23296635 0.9075,0.119605374 C0.855,0.0358816121 0.77,0.0215289673 0.6575,0.0813316541 C0.526737196,0.151821937 0.415345825,0.251027092 0.3325,0.370776658 C0.229754552,0.515473504 0.157567099,0.677995993 0.12,0.849198153 C0.0781009463,0.970041522 0.0852403522,1.10154386 0.14,1.2175827 C0.195,1.29413014 0.2825,1.30609068 0.405,1.25585642 C0.537831017,1.1879102 0.649196386,1.0871333 0.7275,0.964019312 C0.8299314,0.820307023 0.901328294,0.658464074 0.9375,0.487989924 L0.9375,0.487989924 Z" id="Path"></path>
                    </g>
                    <g id="Layer0_3_FILL" transform="translate(18.464344, 11.687154)" fill="#15686B" fill-opacity="0.64">
                        <path d="M10.8499469,30.045374 C10.5849485,29.9947164 10.311269,30.014519 10.0563532,30.1027958 C9.62428897,30.2303914 9.21626372,30.4282822 8.84871045,30.688498 C7.84272492,31.331622 7.67020453,31.8560743 8.3311493,32.2618549 C8.54991321,32.4205866 8.8275315,32.4751882 9.09023899,32.4111515 C9.21817761,32.3746368 9.32851165,32.2930287 9.40077569,32.1814644 C9.82831733,31.7877783 10.3454418,31.5039773 10.9074537,31.3545907 L10.9879632,31.3431064 C10.6867607,32.3027589 10.4485604,33.2810054 10.274879,34.2716173 C10.1598654,34.8060227 10.0716883,35.3496156 10.0103477,35.902396 C9.93595511,36.4355246 9.88988518,36.9722126 9.87233141,37.5102059 C9.83799397,37.9919396 9.83799397,38.4755012 9.87233141,38.9572349 C9.89320785,39.3961112 9.96263819,39.8313351 10.0793559,40.2549672 C10.1969011,40.6770062 10.4228984,41.0610295 10.7349333,41.3689498 C10.8935201,41.539739 11.0852698,41.6765006 11.2984999,41.7709023 C11.5179343,41.8627481 11.7635089,41.8709218 11.9885815,41.793871 C12.1909645,41.7654236 12.3646187,41.6353756 12.4486358,41.4493403 L13.0237038,39.7955929 C13.253731,39.1677814 13.6754475,38.0997362 14.2888533,36.5914574 C14.5418832,36.0103489 14.8064144,35.4430217 15.082447,34.8802882 C14.9346086,36.0302381 15.0206692,37.1981516 15.3354769,38.3141109 C15.4639371,38.8985559 15.7596106,39.4331731 16.1865775,39.8530147 C16.6241278,40.2702007 17.2548857,40.4155451 17.8312719,40.2319985 C18.6191727,39.9718645 19.3170693,39.4940143 19.8440097,38.8538757 C20.1774719,38.4937717 20.4741412,38.1013623 20.7296143,37.6824713 C21.0064591,37.2283579 21.2449769,36.7520275 21.4426986,36.258411 C21.6679749,35.7374944 21.8525476,35.1999534 21.9947638,34.6506011 C22.1496778,34.0946141 22.2536183,33.5257083 22.3053005,32.9509163 C22.3670466,32.3748476 22.3747477,31.794278 22.3283032,31.2167784 C22.2990346,30.6902849 22.222044,30.167523 22.0982761,29.6549059 C22.0006881,29.2840578 21.8698095,28.9227516 21.7072298,28.5753764 C21.2931809,27.7645808 20.8492285,27.4269407 20.3730722,27.5532686 C20.008315,27.6507772 19.6927545,27.8799365 19.4874676,28.1963926 C19.2574404,28.5018765 19.2160355,28.7131887 19.3609526,28.8280322 C19.8976788,29.3572478 20.2760477,30.0253743 20.4535817,30.7574042 C20.7492432,31.9179606 20.7884887,33.128854 20.5685953,34.3060704 C20.4806497,34.8821525 20.3342113,35.4478009 20.1315437,35.9942708 C19.9808116,36.4988121 19.7724155,36.9843509 19.5104703,37.4412998 C19.3057651,37.8327152 19.0505614,38.1956498 18.7513806,38.5208293 C18.5338972,38.7588452 18.2614665,38.9401971 17.9577868,39.0491097 C17.7093145,39.1241487 17.4398281,39.0479071 17.2677053,38.8538757 C17.1794477,38.755439 17.1023076,38.6476026 17.0376781,38.5323137 C16.9572394,38.3178807 16.888136,38.0993769 16.8306536,37.8777053 C16.7200668,37.4099781 16.650793,36.9334642 16.6236292,36.4536451 C16.4549426,34.5258044 16.71564,32.9218226 17.4057216,31.6416996 L17.6012447,31.2971689 C17.6205909,31.2257173 17.6205909,31.1504178 17.6012447,31.0789662 C17.5629068,30.9258414 17.4248905,30.8339665 17.1871957,30.8033416 C17.0813705,30.7805273 16.9734213,30.7689784 16.8651577,30.7688885 C16.7596203,30.7747581 16.6552648,30.7940546 16.554621,30.8263103 C16.4687495,30.8489943 16.3897644,30.8923719 16.3245938,30.9526382 C15.9247863,31.3022623 15.5694258,31.6995234 15.2664688,32.135527 C14.0933302,33.8045868 13.0697092,36.1014582 12.1956059,39.026141 L11.7930584,40.5191074 C11.6500836,40.283068 11.5416404,40.0278297 11.4710203,39.7611398 C11.3185083,39.0671564 11.2912444,38.351566 11.3905108,37.6480182 C11.4296154,37.2644407 11.4871222,36.8670819 11.5630312,36.4536451 C11.6389402,36.0402083 11.7171494,35.6083964 11.7930584,35.1788815 C11.8689673,34.7493666 11.9471766,34.3703828 12.0230855,33.9959928 L12.2531127,32.8934945 C12.306019,32.5558544 12.3497241,32.2388862 12.3796277,31.9402929 C12.3999994,31.7177552 12.3883803,31.4934517 12.3451236,31.2742002 C12.2851014,31.0867127 12.1915825,30.911624 12.069091,30.7574042 C11.8902456,30.5478155 11.6712682,30.3760162 11.4250149,30.2520925 C11.2388129,30.1498815 11.0365819,30.079982 10.8269442,30.045374 M5.09926741,1.67901295 C4.79182375,2.06662102 4.51496035,2.47746254 4.27116956,2.90783912 C3.97808215,3.43534431 3.71691657,3.97991327 3.48907714,4.53861778 C3.05711671,5.59807826 2.69218937,6.68357058 2.39644804,7.78869073 L2.10891406,7.94947172 C1.80707279,8.13243607 1.53869373,8.36546417 1.31532029,8.63853312 C1.19042974,8.77026276 1.13877305,8.95509226 1.17730398,9.13236046 C1.2164086,9.27017274 1.37282708,9.27706336 1.63735834,9.15532918 L2.0974127,8.96009511 L1.66036106,10.6482955 C1.53519378,11.2206935 1.36206394,11.7815732 1.1427999,12.3250116 C0.899966742,12.8530046 0.518406061,13.3054381 0.0386694341,13.6342283 C-0.00397921845,13.6793623 -0.00397921845,13.7498753 0.0386694341,13.7950093 C0.06803841,13.8797634 0.124649878,13.9524419 0.199688461,14.0017277 C0.42339607,14.1714363 0.71861436,14.2147866 0.981780875,14.1165713 C1.40383243,13.9902465 1.7745139,13.7327624 2.03990591,13.3815724 C2.41408345,12.8762608 2.73995529,11.9536841 3.01752142,10.6138425 L3.22454589,9.59173473 C3.28665322,9.23112593 3.36716274,8.8567359 3.45457307,8.46626777 C4.06797888,8.25189311 4.95741731,7.97626855 6.12288836,7.63939409 C6.12288836,9.09407927 6.21106545,10.1506401 6.38741962,10.8090765 L6.46792913,11.1076698 C6.52172721,11.2919356 6.61164406,11.4636962 6.73246039,11.6129815 C7.06094217,12.125142 7.69938912,12.3439864 8.2736425,12.1412619 C8.70648664,12.0378493 9.08916141,11.7858199 9.35477025,11.4292318 C9.46953241,11.2760603 9.55885214,11.1054404 9.61930151,10.9239201 C9.65713388,10.7852395 9.66107815,10.6395175 9.63080287,10.4989989 C9.61816537,10.4120892 9.57783746,10.3315526 9.51578928,10.2693118 C9.46978384,10.2004056 9.41687759,10.1774369 9.35477025,10.2004056 C9.30133637,10.2117687 9.25296144,10.2399457 9.21675394,10.2807961 L9.06723627,10.4186084 L8.84871045,10.5793894 C8.74236659,10.6332689 8.63054901,10.6756198 8.51517104,10.7057173 C8.37553341,10.7445087 8.22678959,10.6888122 8.14712755,10.5679051 C7.97878253,10.3017638 7.87992599,9.9977358 7.85959358,9.68360959 C7.76450092,8.84499427 7.73374103,8.00034801 7.7675827,7.15705111 C8.38175528,6.96641079 8.78660311,6.74361427 8.98672676,6.49095842 C9.08480585,6.3935111 9.15268795,6.26990907 9.18224986,6.13494336 C9.20548733,6.02127179 9.20548733,5.90408423 9.18224986,5.79041266 C9.16916212,5.72742788 9.14990042,5.66588156 9.12474307,5.60666295 C9.03963301,5.50789748 8.72679605,5.53775681 8.18163163,5.6985378 L8.03211396,5.73299087 C7.96458146,5.75708697 7.89539304,5.77627757 7.8250895,5.79041266 C7.86342736,5.23916354 7.97844095,3.79979083 8.17013027,1.47229453 C8.20923489,1.0979045 8.22763706,0.813092456 8.22763706,0.622452134 C8.22659468,0.421471474 8.11653547,0.236845333 7.94010309,0.140109152 C7.76954838,0.0605534903 7.5733284,0.056384769 7.39953921,0.128624795 C6.50776698,0.405071098 5.71886782,0.940889448 5.13377149,1.6675286 M6.6174468,2.4369805 C6.5545727,2.81979239 6.49706591,3.21026051 6.44492641,3.60838488 L6.30691011,4.90611719 C6.26090467,5.36549146 6.22640059,5.82103761 6.20339787,6.27275564 C5.47497847,6.49631778 4.69288606,6.77577046 3.85712063,7.11111368 L4.15615597,5.99713108 C4.26350199,5.61278794 4.37851558,5.23763229 4.50119674,4.87166412 C5.09159984,3.11072942 5.8583571,1.96612187 6.80146854,1.43784146 L6.62894816,2.4369805 M15.6460136,14.5989143 C15.208962,14.7137578 14.8593207,14.8286014 14.59939,14.9089919 C13.2498972,15.4372723 12.283783,16.0535994 11.7010475,16.7579733 C11.2946661,17.2403163 11.333004,17.5963314 11.8160611,17.8260185 C11.9441329,17.8831058 12.0796644,17.9217718 12.2186086,17.9408621 C12.3377821,17.9575368 12.4591111,17.9497207 12.5751508,17.9178934 C12.7049616,17.8726116 12.8201719,17.7932736 12.9086902,17.6882062 C13.2821906,17.2312742 13.7110153,16.8223713 14.185341,16.4708644 C14.4428165,16.2960438 14.7117901,16.138735 14.9904362,16.0000058 C15.2657684,15.8750433 15.5503052,15.7713793 15.8415367,15.6899281 C16.080745,15.6193641 16.3282596,15.5807471 16.5776237,15.5750846 C17.3060431,15.5750846 17.7545961,15.9043028 17.9232827,16.5627393 C18.1916478,17.5503939 17.953953,18.5150799 17.2101985,19.4567972 C16.5161733,20.3306862 15.5863465,20.9881739 14.5303818,21.351716 C14.7525634,20.1728324 15.0405463,19.0072672 15.3929837,17.8604716 C15.4550911,17.6836125 15.3124742,17.5159409 14.9674335,17.3551599 C14.8166276,17.2921414 14.658022,17.2496516 14.4958777,17.228832 C14.3359205,17.197747 14.171115,17.2016652 14.0128207,17.2403163 C13.82635,17.304643 13.6868927,17.4613005 13.6447772,17.6537531 C13.1019023,19.0685691 12.7912066,20.5615818 12.7246684,22.0752305 C12.6937166,22.7107576 12.7052435,23.3476383 12.7591725,23.9816337 C12.7911127,24.4768309 12.8642061,24.9685217 12.9776983,25.4516314 C13.0481679,25.7925921 13.1849322,26.1164396 13.3802459,26.404833 C13.8863057,27.1107381 14.633894,27.3251128 15.6230109,27.0479569 C16.3406455,26.8547803 17.0182371,26.5359275 17.6242474,26.1062397 C17.9273782,25.888833 18.2120426,25.6468419 18.475348,25.3827252 C18.7170406,25.1138189 18.9255547,24.8169328 19.0964213,24.4984298 C19.2519298,24.187818 19.3567622,23.8544012 19.406958,23.5107751 C19.4523854,23.1498078 19.4289704,22.7835163 19.3379499,22.4312455 C19.2500027,22.0702324 19.0580796,21.7428485 18.7858847,21.4895283 C18.4741344,21.2117088 18.0849455,21.0354305 17.6702528,20.9842166 C18.360952,20.3929114 18.911012,19.6553513 19.2804431,18.8251575 C19.6714893,17.9523464 19.7711677,17.1522696 19.5794784,16.424927 C19.4164973,15.6984874 18.9409672,15.0807919 18.2798249,14.7367265 C17.889764,14.5587424 17.4665205,14.4648274 17.0376781,14.461102 C16.5611884,14.4360741 16.0837331,14.4864623 15.6230109,14.6103986 M14.3693628,25.3023347 C14.2027117,24.443079 14.1793949,23.5622322 14.3003546,22.6953857 C14.4452718,22.6104015 14.7144036,22.4656986 15.1054498,22.2360115 C15.3969335,22.0573698 15.7050783,21.9073713 16.0255585,21.7881216 C16.2186147,21.7493712 16.4166254,21.7416176 16.6121278,21.7651529 C17.1862455,21.7989108 17.6620811,22.2217785 17.7622637,22.7872606 C17.9156152,23.4533533 17.7545961,24.1309303 17.2792066,24.8199917 C17.0687939,25.1217848 16.8127114,25.3891117 16.5201169,25.6124124 C16.250738,25.8147649 15.9467599,25.9665292 15.6230109,26.0603023 C15.3650913,26.1551231 15.0782247,26.1298488 14.8409185,25.9913961 C14.6024713,25.8313679 14.4370907,25.5836638 14.3808641,25.3023347 M17.2792066,2.98822962 C17.0644618,2.92640286 16.8360699,2.93040381 16.6236292,2.99971398 C16.3636984,3.07551073 16.1359715,3.42922892 15.9335476,4.05627479 C15.5009104,3.6309449 14.8716071,3.47275309 14.2888533,3.64283795 C13.6984502,3.79596271 13.1387174,4.21322767 12.6096549,4.89463283 C12.0528515,5.58554574 11.6526195,6.38874457 11.4365162,7.24892596 C11.1850751,8.14776116 11.1613612,9.09491358 11.3675081,10.0051716 C11.4787598,10.628578 11.7992007,11.1956085 12.2761154,11.6129815 C12.4829755,11.7811502 12.7215542,11.9061212 12.9776983,11.9804809 C13.2495157,12.0327982 13.5300824,12.017015 13.7942948,11.9345435 C14.0890415,11.8522551 14.3606792,11.7028787 14.5878886,11.4981379 C15.1706241,10.9698575 15.5693379,10.181265 15.7840299,9.13236046 C15.795858,9.41259819 15.8422124,9.69031397 15.9220463,9.95923415 C15.9572266,10.1366576 16.0363032,10.3024731 16.1520734,10.4415771 C16.3556823,10.7459249 16.6845628,10.9438035 17.0491794,10.9813419 C17.5753886,11.0059593 18.0810238,10.7749089 18.4063398,10.3611866 C18.7357223,10.0342622 18.8783534,9.56384378 18.7858847,9.10939175 C18.7811982,9.06445494 18.7563846,9.02405428 18.7183968,8.99951029 C18.680409,8.9749663 18.6333337,8.96891935 18.5903616,8.98306383 C18.4904956,9.02554767 18.4004517,9.08809431 18.3258303,9.16681353 C18.1797402,9.28557008 18.0054363,9.36468203 17.8197705,9.39650067 C17.4977324,9.48837552 17.2753728,9.31228205 17.1526917,8.86822026 C17.129689,8.7763454 17.1066862,8.67757994 17.0836835,8.56962698 C16.9610024,7.95712796 17.1680268,6.23447445 17.7047569,3.40166646 C17.7438615,3.24088547 17.6012447,3.09847944 17.2792066,2.97674526 M15.6920191,5.12431997 C15.6911066,5.53902853 15.6642176,5.95327409 15.6115096,6.36463049 C15.5193344,7.51742127 15.2355888,8.64684475 14.7719104,9.7065783 C14.4958777,10.3037648 14.2160113,10.6368112 13.9323111,10.7057173 C13.5489325,10.8144359 13.2767337,10.5732644 13.1157147,9.98220286 C12.9068501,9.22370418 12.8482479,8.43179302 12.9431943,7.65087845 C12.9812942,7.27263929 13.0583781,6.89933502 13.1732214,6.53689584 C13.2607971,6.20510335 13.3964093,5.88785288 13.575769,5.59517859 C13.7105293,5.33306134 13.8895001,5.09608136 14.1048315,4.89463283 C14.2490458,4.72885855 14.4360071,4.60572592 14.6453954,4.53861778 C14.8604889,4.45968347 15.099466,4.47921679 15.2988403,4.59202853 C15.4982146,4.70484027 15.6378012,4.89950929 15.6805177,5.12431997 L15.6920191,5.12431997 Z" id="Shape"></path>
                    </g>
                </g>
            </g>
        </g>
    </g>
</svg>