<?xml version="1.0" encoding="UTF-8"?>
<svg width="100px" height="100px" viewBox="0 0 100 100" version="1.1" xmlns="http://www.w3.org/2000/svg" xmlns:xlink="http://www.w3.org/1999/xlink">
    <title>EC9174CB-157C-431A-B757-95A0AC931EDE</title>
    <defs>
        <linearGradient x1="54.1340116%" y1="59.0703753%" x2="45.8223119%" y2="40.7148643%" id="linearGradient-1">
            <stop stop-color="#F3BD6B" offset="0%"></stop>
            <stop stop-color="#E9E1BA" offset="100%"></stop>
        </linearGradient>
        <linearGradient x1="28.3241121%" y1="6.02263346%" x2="34.1691951%" y2="34.4062545%" id="linearGradient-2">
            <stop stop-color="#F3BD6B" offset="0%"></stop>
            <stop stop-color="#E9E1BA" offset="100%"></stop>
        </linearGradient>
        <linearGradient x1="53.4972769%" y1="56.3482241%" x2="49.7023451%" y2="49.248852%" id="linearGradient-3">
            <stop stop-color="#FFEEA1" offset="0%"></stop>
            <stop stop-color="#FFFBE8" offset="100%"></stop>
        </linearGradient>
        <linearGradient x1="1.11886079%" y1="52.5927666%" x2="101.115891%" y2="48.8886788%" id="linearGradient-4">
            <stop stop-color="#15556B" offset="0%"></stop>
            <stop stop-color="#17428E" offset="100%"></stop>
        </linearGradient>
        <linearGradient x1="0.815819131%" y1="52.3785406%" x2="100.785922%" y2="49.0631992%" id="linearGradient-5">
            <stop stop-color="#4DFFDC" offset="0%"></stop>
            <stop stop-color="#0E709C" offset="100%"></stop>
        </linearGradient>
        <linearGradient x1="-8.33333333%" y1="-285.66562%" x2="79.5988475%" y2="-285.66562%" id="linearGradient-6">
            <stop stop-color="#F3BD6B" offset="0%"></stop>
            <stop stop-color="#E9E1BA" offset="100%"></stop>
        </linearGradient>
        <linearGradient x1="-109.266757%" y1="-219.506242%" x2="-15.2496626%" y2="-219.506242%" id="linearGradient-7">
            <stop stop-color="#F3BD6B" offset="0%"></stop>
            <stop stop-color="#E9E1BA" offset="100%"></stop>
        </linearGradient>
    </defs>
    <g id="Page-2" stroke="none" stroke-width="1" fill="none" fill-rule="evenodd">
        <g id="Icons" transform="translate(-411.000000, -600.000000)" fill-rule="nonzero">
            <g id="Elements/Graphics/SubjectGraphics/EnglishReader/Hero" transform="translate(411.000000, 600.000000)">
                <g id="English_Reader_hero" transform="translate(9.800000, 7.600000)">
                    <g id="Layer0_0_MEMBER_0_FILL" transform="translate(8.728395, 9.725926)" fill="#FFEE00" fill-opacity="0.1">
                        <path d="M61.8893086,38.3425926 C62.370957,36.0641203 62.6100342,33.7410589 62.6027139,31.4122469 C62.6027139,22.7919177 59.5484362,15.4268148 53.4402222,9.31693827 C47.3320082,3.20706173 39.9710617,0.157111111 31.3573827,0.16706203 C22.7337284,0.16706203 15.3727819,3.21703704 9.27454321,9.31693827 C3.17630453,15.4168395 0.122197531,22.7819424 0.112000609,31.4122469 C0.103668402,33.740287 0.342758115,36.062634 0.82545679,38.3400988 L61.8893086,38.3425926 Z" id="Path"></path>
                    </g>
                    <g id="Layer0_0_MEMBER_1_FILL" transform="translate(13.965432, 14.713580)" fill="#FFEE00" fill-opacity="0.21">
                        <path d="M44.512321,7.80069136 C39.4282387,2.7182716 33.2925926,0.176230453 26.1053827,0.174567086 C18.9181728,0.17290535 12.7783704,2.7149465 7.68597531,7.80069136 C2.60023045,12.9013992 0.0581893004,19.0370453 0.0598518519,26.2076296 C0.0426409701,28.8352181 0.412366407,31.4510255 1.1571358,33.9709136 L51.033679,33.9709136 C51.7862883,31.45245 52.1602944,28.8360883 52.1434321,26.2076296 C52.140107,19.0370453 49.5964033,12.9013992 44.512321,7.80069136 Z" id="Path"></path>
                    </g>
                    <g id="Layer0_0_MEMBER_2_FILL" transform="translate(19.202469, 20.200000)" fill="#FFEE00" fill-opacity="0.21">
                        <path d="M39.9610864,28.9184198 C41.0573754,26.3286555 41.6083268,23.5407906 41.5795802,20.7286914 C41.5795802,15.0145021 39.5545926,10.1365761 35.5046173,6.09491358 C31.454642,2.05325103 26.5717284,0.0274320988 20.8558765,0.0174567901 C15.1400247,0.0174567901 10.2612675,2.04327572 6.21960494,6.09491358 C2.17794239,10.1465514 0.152954733,15.0219835 0.144641975,20.7212099 C0.114865638,23.5358242 0.665837598,26.3263401 1.7631358,28.9184198 L39.9610864,28.9184198 Z" id="Path"></path>
                    </g>
                    <g id="Layer0_1_MEMBER_0_FILL" transform="translate(12.219753, 35.162963)">
                        <path d="M9.76832099,2.73323457 C6.72252675,3.3450535 3.50216461,3.20706173 0.107234568,2.31925926 L10.8631111,15.3320494 L28.5418519,17.2672593 L28.2450864,15.3968889 C25.3721975,5.9402963 19.2132757,1.71907819 9.76832099,2.73323457 Z" id="Path" fill="url(#linearGradient-1)"></path>
                        <path d="M56.4477778,0.00997530864 C54.8434156,0.763111111 52.7602387,1.15297942 50.1982469,1.17958025 C37.9768313,0.0590205761 30.7447325,4.56204115 28.5019506,14.688642 L28.8760247,17.4318519 L51.0137284,9.42916049 L56.4477778,0.00997530864 Z" id="Path" fill="url(#linearGradient-2)"></path>
                    </g>
                    <g id="Layer0_1_MEMBER_1_FILL" transform="translate(1.246914, 36.659259)" fill="url(#linearGradient-3)">
                        <path d="M13.2871111,8.5937284 C9.4632428,9.83565432 6.57289712,10.0592675 4.61607407,9.2645679 C3.59194239,11.1066749 2.06572016,12.8058025 0.0374074074,14.3619506 L34.0182963,16.578963 L35.5869136,19.853358 C38.7540741,20.4369136 41.9245597,20.0046502 45.0983704,18.5565679 L45.7318025,14.9804198 L77.8797284,3.7457284 C76.1779028,3.08495431 74.5816496,2.17929069 73.1414568,1.05738272 C72.6460739,1.30613659 72.1240016,1.49773043 71.5853086,1.62846914 L72.3583951,0.381555556 C72.243679,0.276814815 72.1339506,0.172074074 72.0242222,0.0648395062 C70.401572,1.34832922 67.5752346,2.02997531 63.5452099,2.10977778 C50.8100658,2.03828807 42.8298189,5.92200823 39.6044691,13.7609383 C33.8703292,6.17804115 25.0978765,4.45563786 13.2871111,8.5937284 Z" id="Path"></path>
                    </g>
                    <g id="Layer0_1_MEMBER_2_FILL" transform="translate(0.249383, 40.400000)" fill="url(#linearGradient-4)">
                        <path d="M0.75562963,10.4092346 L0.0822962963,11.6561481 L8.91293827,16.8183704 L35.8462716,18.7261481 L36.36,19.8608395 C36.4173619,20.0224201 36.4856852,20.1798972 36.5644938,20.3321728 C37.119786,21.3297037 38.1372675,21.7860741 39.6169383,21.701284 L39.6842716,21.701284 L43.8414815,21.1351852 C45.6702881,20.9157284 46.7285021,20.1118848 47.0161235,18.7236543 C47.0418788,18.5967172 47.0610239,18.4685281 47.0734815,18.3396049 L47.2355802,17.184963 L72.7150123,8.12987654 L79.8523457,0.775580247 L78.1066667,0.239407407 L46.6295802,11.2122469 L44.9911358,15.1325432 L36.9186173,16.232321 L35.2901481,13.0227654 L0.75562963,10.4092346 Z" id="Path"></path>
                    </g>
                    <g id="Layer0_1_MEMBER_3_FILL" transform="translate(34.414815, 53.617284)">
                        <path d="M13.6262716,0.0249382716 L11.9005432,0.259358025 L10.633679,7.72088889 C11.8756049,7.36676543 12.6104527,6.63025514 12.8382222,5.51135802 C12.8663895,5.38485718 12.8855568,5.25651928 12.8955802,5.12730864 L13.6262716,0.0249382716 Z" id="Path" fill="#0D4051"></path>
                        <path d="M1.52123457,1.48632099 L0.16708642,2.21202469 L2.18459259,6.65602469 C2.24285888,6.81401859 2.31461331,6.96670533 2.39906173,7.11239506 C2.80164803,7.86048465 3.54898361,8.36026532 4.39412346,8.44659259 L1.52123457,1.48632099 Z" id="Path" fill="#156580"></path>
                    </g>
                    <g id="Layer0_1_MEMBER_4_FILL" transform="translate(0.000000, 38.654321)" fill="url(#linearGradient-5)">
                        <path d="M36.245284,13.7584444 C36.0372936,13.5634781 35.7668933,13.4486022 35.4821728,13.4342469 L0.496271605,10.9628642 C-0.0989218107,11.860642 -0.157942387,12.6811111 0.319209877,13.4242716 L34.3125679,15.8333086 L34.3574568,16.16 C34.3585786,16.1691096 34.3585786,16.1783225 34.3574568,16.1874321 C34.7315309,18.5715309 36.1713004,19.6854403 38.6767654,19.5291605 L38.7715309,19.5166914 L43.9761481,18.8059506 C46.8124609,18.4734403 48.163284,17.0112263 48.0286173,14.4193086 L48.0136543,14.2971111 L47.9687654,13.9704198 L80.079284,2.54869136 C80.3414121,1.67624311 80.006007,0.734684303 79.2513333,0.224444444 L46.2056296,11.9603951 C45.9332016,12.0547068 45.7033128,12.2430388 45.5572346,12.4915802 C45.4065639,12.7285069 45.3471793,13.012135 45.3901481,13.2896049 L45.5597284,14.5365185 C45.5364527,15.5922387 44.907177,16.1899259 43.6719012,16.3295802 L43.6444691,16.3295802 L38.5221481,17.0303457 C37.5395802,17.0901975 36.9651687,16.6654156 36.7989136,15.756 L36.6243457,14.4791605 C36.5848948,14.2023939 36.4509778,13.9477754 36.245284,13.7584444 Z" id="Path"></path>
                    </g>
                    <g id="Layer0_1_MEMBER_5_FILL" transform="translate(40.400000, 34.664198)" fill="#FFFBE8">
                        <path d="M28.2849877,0.533679012 L27.9782469,0.216962963 C26.4553498,0.960123457 24.5575473,1.35664198 22.2848395,1.40651852 L22.0354568,1.40651852 C8.87303704,0.651720165 1.5578107,5.58534156 0.0897777778,16.2073827 L0.0598518519,16.4891852 L0.608493827,16.5515309 L0.64091358,16.2846914 C2.09065844,5.99516049 9.2097037,1.21781893 21.9980494,1.95266667 L22.0254815,1.95266667 L22.3022963,1.95266667 C24.7878107,1.89946502 26.7820412,1.42646914 28.2849877,0.533679012 Z" id="Path"></path>
                    </g>
                    <g id="Layer0_1_MEMBER_6_FILL" transform="translate(12.219753, 36.908642)" fill="#FFFBE8">
                        <path d="M9.57130864,0.753135802 L9.55634568,0.753135802 C5.89873251,1.37659259 3.29102058,1.36744856 1.73320988,0.725703704 C1.25848822,0.587193135 0.803418005,0.388571327 0.379061728,0.134666667 L0.107234568,0.58854321 L1.52622222,1.23693827 C3.13723457,1.92357202 5.83888066,1.94269136 9.63116049,1.2942963 C19.075284,-0.591037037 25.3422716,4.5911358 28.2625432,14.3819012 L28.3398519,14.6462469 L28.871037,14.4791605 L28.7937284,14.2297778 C25.7861728,4.13725926 19.6787901,-1.22945679 9.57130864,0.753135802 Z" id="Path"></path>
                    </g>
                    <g id="Layer0_1_MEMBER_7_FILL" transform="translate(16.708642, 36.908642)">
                        <path d="M0.0224444444,9.33439506 C9.18144033,8.22214815 16.6828724,9.53390123 22.5267407,13.2696543 C16.3254239,7.78323457 8.82399177,6.47148148 0.0224444444,9.33439506 Z" id="Path" fill="url(#linearGradient-6)"></path>
                        <path d="M56.1185926,1.36412346 L56.8941728,0.139654321 C55.7071111,1.0374321 53.8591852,1.65756379 51.3503951,2.00004938 C52.9617648,2.01293993 54.5669225,1.79886294 56.1185926,1.36412346 L56.1185926,1.36412346 Z" id="Path" fill="url(#linearGradient-7)"></path>
                    </g>
                    <g id="Layer0_2_FILL" transform="translate(23.441975, 68.829630)" fill="#03828E">
                        <path d="M27.1777284,2.21701235 C24.1153086,0.990049383 20.3978436,0.320041152 16.0253333,0.206987654 C11.652823,0.0939341564 7.9054321,0.568592593 4.78316049,1.63096296 C1.65257613,2.68834568 0.0665020576,4.03168724 0.0249382716,5.66098765 C-0.0249382716,7.26202469 1.48632099,8.67519342 4.55871605,9.90049383 C7.63111111,11.1257942 11.3485761,11.7999588 15.7111111,11.9229877 C20.0819588,12.0343786 23.8285185,11.5555638 26.9507901,10.4865432 C30.0730617,9.41752263 31.6591358,8.0833251 31.7090123,6.48395062 C31.7522387,4.86462551 30.2418107,3.44231276 27.1777284,2.21701235 Z" id="Path"></path>
                    </g>
                    <g id="Layer0_3_MEMBER_0_FILL" transform="translate(33.666667, 29.676543)" fill="#FFFFFF">
                        <path d="M2.47138272,0.349135802 C2.43518947,0.305517282 2.38898848,0.271294327 2.33671605,0.249382716 C2.28018189,0.235634257 2.22117614,0.235634257 2.16464198,0.249382716 C2.11130408,0.26319965 2.06291666,0.291713664 2.02498765,0.331679012 C1.98639077,0.37541438 1.96051566,0.428889607 1.95017284,0.486296296 L1.72323457,2.05740741 L0.226938272,2.60854321 C0.176031302,2.62798402 0.131852809,2.66176757 0.0997530864,2.70580247 C0.0643513063,2.75149092 0.0450608217,2.80760869 0.0448888889,2.86540741 C0.0409107074,2.92137329 0.0521111353,2.97737543 0.077308642,3.02750617 C0.105609337,3.07652743 0.148257908,3.11569449 0.199506173,3.1397284 L1.62846914,3.84548148 L1.68582716,5.43903704 C1.68966857,5.495446 1.71053889,5.54936099 1.74567901,5.59365432 C1.77672027,5.63984948 1.82107855,5.67551006 1.8728642,5.69590123 C1.93228158,5.7134294 1.99549619,5.7134294 2.05491358,5.69590123 C2.10400424,5.68242163 2.1492654,5.65765609 2.18708642,5.62358025 L3.29434568,4.48140741 L4.82306173,4.91782716 C4.87740219,4.93520163 4.93580769,4.93520163 4.99014815,4.91782716 C5.04467884,4.90421252 5.0930116,4.87257654 5.12730864,4.82804938 C5.16378452,4.78550654 5.18486848,4.73191816 5.18716049,4.67592593 C5.19465915,4.62061864 5.18599827,4.56432296 5.16222222,4.51382716 L4.41407407,3.10232099 L5.29938272,1.77809877 C5.33143511,1.73193853 5.34881778,1.6771831 5.34925926,1.62098765 C5.35123087,1.56476315 5.33647662,1.50921771 5.3068642,1.46138272 C5.27310754,1.41489489 5.22861911,1.37725083 5.17718519,1.35165432 C5.12436918,1.32972336 5.0663073,1.32365719 5.01009877,1.33419753 L3.44397531,1.59854321 L2.47138272,0.349135802 Z" id="Path"></path>
                    </g>
                    <g id="Layer0_3_MEMBER_1_FILL" transform="translate(42.644444, 27.432099)" fill="#FFF02E">
                        <path d="M3.84548148,0.224444444 C3.78030906,0.242509372 3.72263052,0.280961733 3.68088889,0.33417284 L2.48634568,1.85540741 L0.593530864,1.51375309 C0.533095245,1.50375255 0.471045347,1.51336591 0.416469136,1.54118519 C0.346196601,1.56437895 0.287362181,1.61340764 0.251876543,1.67834568 C0.214145138,1.73512828 0.194974605,1.80222515 0.197012346,1.87037037 C0.192773098,1.93877254 0.212140185,2.00655735 0.251876543,2.06239506 L1.30676543,3.65345679 L0.416469136,5.36671605 C0.387941902,5.42642459 0.378369284,5.49343292 0.389037037,5.55874074 C0.397558671,5.62292831 0.420585254,5.68433253 0.45637037,5.7382963 C0.510895742,5.79230192 0.576379224,5.83397322 0.648395062,5.86049383 C0.706584362,5.88044444 0.769761317,5.88044444 0.827950617,5.86049383 L2.67837037,5.32681481 L4.01007407,6.71088889 C4.05869125,6.76744038 4.12774269,6.80241448 4.20209877,6.80814815 C4.26591801,6.82544612 4.33375406,6.82016019 4.39412346,6.79318519 C4.45509873,6.76833414 4.50722026,6.72576823 4.54375309,6.67098765 C4.5855547,6.62009819 4.61001804,6.55719244 4.61358025,6.4914321 L4.68091358,4.55871605 L6.4091358,3.70832099 C6.47128501,3.68309487 6.52432573,3.63961887 6.56125926,3.58362963 C6.59327302,3.52436427 6.61199496,3.45883751 6.61612346,3.39160494 C6.60011105,3.31938237 6.57230645,3.25029213 6.53382716,3.18711111 C6.49643889,3.13153369 6.44353835,3.08817259 6.3817037,3.06241975 L4.57118519,2.40404938 L4.32180247,0.511234568 C4.31163157,0.438193929 4.27740881,0.370625928 4.22454321,0.319209877 C4.17730556,0.272316407 4.12140522,0.235049518 4.05995062,0.209481481 C3.98822321,0.19881898 3.91503343,0.203925243 3.84548148,0.224444444 L3.84548148,0.224444444 Z" id="Path"></path>
                    </g>
                    <g id="Layer0_3_MEMBER_2_FILL" transform="translate(38.155556, 36.160494)" fill="#FFFFFF">
                        <path d="M1.79555556,0.162098765 C1.77560494,0.162098765 1.76064198,0.174567901 1.74567901,0.199506173 L1.56362963,0.698271605 C1.49257148,0.896980195 1.37845695,1.07751961 1.22945679,1.22696296 C1.08164632,1.37318251 0.904985262,1.48699299 0.710740741,1.5611358 L0.211975309,1.74318519 C0.193892071,1.74784429 0.181458821,1.76442196 0.182049383,1.78308642 C0.178674944,1.80416197 0.191494709,1.82445993 0.211975309,1.83046914 L0.710740741,2.01251852 C1.10771608,2.16265809 1.41926719,2.47876403 1.56362963,2.87787654 L1.74567901,3.37664198 C1.75601376,3.39456831 1.77487479,3.40588493 1.79555556,3.4065679 C1.81640167,3.40888771 1.83607535,3.39646223 1.84293827,3.37664198 L2.02498765,2.87787654 C2.17133565,2.47915683 2.48337418,2.16347936 2.88037037,2.01251852 L3.3791358,1.83046914 C3.3996164,1.82445993 3.41243617,1.80416197 3.40906173,1.78308642 C3.40965229,1.76442196 3.39721904,1.74784429 3.3791358,1.74318519 L2.88037037,1.5611358 C2.68582328,1.48759211 2.50904435,1.37370568 2.36165432,1.22696296 C2.21109414,1.07829885 2.09601484,0.89758173 2.02498765,0.698271605 L1.84293827,0.199506173 C1.83913899,0.176692571 1.81862801,0.160499692 1.79555556,0.162098765 Z" id="Path"></path>
                    </g>
                    <g id="Layer0_3_MEMBER_3_FILL" transform="translate(37.656790, 41.397531)" fill="#FFFFFF">
                        <path d="M0.990049383,0.0698271605 C0.990049383,0.0698271605 0.970098765,0.0698271605 0.962617284,0.0922716049 L0.86037037,0.366592593 C0.820565008,0.479359968 0.755771876,0.581664914 0.670839506,0.665851852 C0.588154339,0.748444765 0.488633998,0.812239855 0.379061728,0.852888889 L0.0997530864,0.95762963 C0.0897183464,0.958893572 0.0822170085,0.96746653 0.0822956736,0.977580247 C0.0822956736,0.99254321 0.0822956736,1.00251852 0.0997530864,1.00501235 L0.379061728,1.10725926 C0.602105393,1.19238531 0.777548204,1.36964618 0.86037037,1.59355556 L0.962617284,1.87037037 C0.968894481,1.87939998 0.979059126,1.88494433 0.990049383,1.88533333 C1.00501235,1.88533333 1.01498765,1.88533333 1.01748148,1.87037037 L1.1197284,1.59355556 C1.15839467,1.48096339 1.2233712,1.37922383 1.30925926,1.29679012 C1.38983894,1.21104113 1.48993572,1.146021 1.60103704,1.10725926 L1.88283951,1.00501235 C1.88283951,1.00501235 1.89781255,0.99254321 1.89781255,0.977580247 C1.89809775,0.968248018 1.89188112,0.959959184 1.88283951,0.95762963 L1.60103704,0.852888889 C1.49146477,0.812239855 1.39194443,0.748444765 1.30925926,0.665851852 C1.22517094,0.580989396 1.16050524,0.478885651 1.1197284,0.366592593 L1.01748148,0.0922716049 C1.01685219,0.0856441537 1.01359917,0.0795434223 1.00844673,0.0753277933 C1.0032943,0.0711121642 0.99667021,0.0691316251 0.990049383,0.0698271605 Z" id="Path"></path>
                    </g>
                    <g id="Layer0_3_MEMBER_4_FILL" transform="translate(36.160494, 39.153086)" fill="#FFFFFF">
                        <path d="M0.65837037,0.0872839506 C0.65837037,0.0872839506 0.65837037,0.0872839506 0.64091358,0.0997530864 L0.573580247,0.284296296 C0.546241245,0.358547095 0.502807521,0.425826784 0.446395062,0.481308642 C0.39095866,0.536588489 0.324748328,0.57987986 0.251876543,0.608493827 L0.0673333333,0.67582716 C0.0600552984,0.677056632 0.0547610813,0.683409693 0.054862717,0.690790123 C0.0552722093,0.698538738 0.060135891,0.705347892 0.0673333333,0.708246914 L0.251876543,0.775580247 C0.325826583,0.802066542 0.39247532,0.845644563 0.446395062,0.902765432 C0.503844905,0.957395109 0.547444926,1.0249324 0.573580247,1.09977778 L0.64091358,1.28182716 C0.64091358,1.28182716 0.64091358,1.2942963 0.65837037,1.2942963 C0.666358014,1.29462751 0.673549879,1.28949046 0.67582716,1.28182716 L0.745654321,1.09977778 C0.769866314,1.02460851 0.812771018,0.956819082 0.870345679,0.902765432 C0.924265421,0.845644563 0.990914158,0.802066542 1.0648642,0.775580247 L1.25190123,0.708246914 C1.25501959,0.702845764 1.25501959,0.696191273 1.25190123,0.690790123 C1.25522634,0.686356653 1.25522634,0.680260631 1.25190123,0.67582716 L1.0648642,0.608493827 C0.991992413,0.57987986 0.925782081,0.536588489 0.870345679,0.481308642 C0.813800603,0.426411426 0.771069362,0.358896066 0.745654321,0.284296296 L0.67582716,0.0997530864 C0.673549879,0.0920897885 0.666358014,0.0869527414 0.65837037,0.0872839506 L0.65837037,0.0872839506 Z" id="Path"></path>
                    </g>
                    <g id="Layer0_3_MEMBER_5_FILL" transform="translate(42.644444, 37.656790)" fill="#FFFFFF">
                        <path d="M0.783061728,0.162098765 C0.783061728,0.162098765 0.783061728,0.162098765 0.765604938,0.174567901 L0.698271605,0.359111111 C0.670932603,0.433361909 0.627498879,0.500641599 0.57108642,0.556123457 C0.515650018,0.611403304 0.449439686,0.654694675 0.376567901,0.683308642 L0.192024691,0.750641975 C0.184746656,0.751871447 0.179452439,0.758224507 0.179554075,0.765604938 C0.179963567,0.773353553 0.184827249,0.780162707 0.192024691,0.783061728 L0.376567901,0.850395062 C0.450517941,0.876881357 0.517166678,0.920459378 0.57108642,0.977580247 C0.628536263,1.03220992 0.672136285,1.09974721 0.698271605,1.17459259 L0.765604938,1.35664198 C0.765604938,1.35664198 0.765604938,1.36911111 0.783061728,1.36911111 C0.791049372,1.36944232 0.798241238,1.36430527 0.800518519,1.35664198 L0.870345679,1.17459259 C0.894557672,1.09942333 0.937462376,1.0316339 0.995037037,0.977580247 C1.04895678,0.920459378 1.11560552,0.876881357 1.18955556,0.850395062 L1.37659259,0.783061728 C1.37971095,0.777660579 1.37971095,0.771006088 1.37659259,0.765604938 C1.3799177,0.761171468 1.3799177,0.755075446 1.37659259,0.750641975 L1.18955556,0.683308642 C1.11668377,0.654694675 1.05047344,0.611403304 0.995037037,0.556123457 C0.938491961,0.501226241 0.89576072,0.433710881 0.870345679,0.359111111 L0.800518519,0.174567901 C0.798241238,0.166904603 0.791049372,0.161767556 0.783061728,0.162098765 Z" id="Path"></path>
                    </g>
                    <g id="Layer0_3_MEMBER_6_FILL" transform="translate(30.175309, 21.945679)" fill="#FFFC19">
                        <path d="M1.86538272,0.114716049 C1.83313134,0.152562877 1.81389756,0.199773086 1.81051852,0.249382716 L1.63595062,1.68083951 L0.299259259,2.20204938 C0.255023907,2.22248323 0.217743831,2.25542841 0.192024691,2.29681481 C0.159870104,2.33899889 0.143146501,2.39093008 0.144641975,2.44395062 C0.135465098,2.5499545 0.194554285,2.65010567 0.291777778,2.69333333 L1.59106173,3.29683951 L1.69081481,4.7382716 C1.69554439,4.78876001 1.71555307,4.83660687 1.74817284,4.8754321 C1.77702985,4.91371517 1.81466198,4.9445051 1.85790123,4.96520988 C1.91429088,4.98011551 1.97358567,4.98011551 2.02997531,4.96520988 C2.07422724,4.95469015 2.11475939,4.93226811 2.14718519,4.90037037 L3.11728395,3.838 L4.50883951,4.20209877 C4.55999961,4.21802131 4.61479051,4.21802131 4.66595062,4.20209877 C4.71103458,4.18450901 4.75002672,4.15418179 4.77817284,4.11481481 C4.81176723,4.07779905 4.83119941,4.03010186 4.83303704,3.98014815 C4.84180469,3.92859739 4.83208966,3.87560634 4.80560494,3.83051852 L4.09237037,2.58360494 L4.86545679,1.36412346 C4.89462598,1.32434072 4.91034568,1.27629356 4.91034568,1.22696296 C4.90832117,1.1779039 4.89464352,1.13003212 4.87044444,1.08730864 C4.83689381,1.04512099 4.79427655,1.01102718 4.74575309,0.987555556 C4.69838483,0.968266058 4.64666,0.962231495 4.59612346,0.970098765 L3.18711111,1.25190123 L2.2768642,0.142148148 C2.24130006,0.101765148 2.19435751,0.0730780339 2.14219753,0.0598518519 C2.09394352,0.0473927203 2.04331574,0.0473927203 1.99506173,0.0598518519 C1.94816589,0.0678368875 1.90376995,0.0866197857 1.86538272,0.114716049 Z" id="Path"></path>
                    </g>
                    <g id="Layer0_3_MEMBER_7_FILL" transform="translate(50.125926, 32.419753)" fill="#FFFFFF">
                        <path d="M1.00251852,0.00748148148 C1.00251852,0.00748148148 0.982567901,0.00748148148 0.97508642,0.0299259259 L0.872839506,0.304246914 C0.833034144,0.417014289 0.768241012,0.519319235 0.683308642,0.603506173 C0.600623474,0.686099086 0.501103134,0.749894176 0.391530864,0.79054321 L0.112222222,0.895283951 C0.102187482,0.896547893 0.0946861443,0.905120851 0.0947648094,0.915234568 C0.0947648094,0.930197531 0.0947648094,0.94017284 0.112222222,0.942666667 L0.391530864,1.04491358 C0.617186745,1.13278183 0.79306307,1.31503709 0.872839506,1.54367901 L0.97508642,1.82049383 C0.981363617,1.82952344 0.991528262,1.83506779 1.00251852,1.83545679 C1.01748148,1.83545679 1.02745679,1.83545679 1.02995062,1.82049383 L1.13219753,1.54367901 C1.1708638,1.43108685 1.23584033,1.32934729 1.3217284,1.24691358 C1.40230808,1.16116459 1.50240486,1.09614446 1.61350617,1.05738272 L1.89530864,0.955135802 C1.89530864,0.955135802 1.91028169,0.955135802 1.91028169,0.927703704 C1.91056689,0.918371474 1.90435026,0.910082641 1.89530864,0.907753086 L1.61350617,0.803012346 C1.5039339,0.762363312 1.40441356,0.698568221 1.3217284,0.615975309 C1.23764008,0.531112853 1.17297437,0.429009107 1.13219753,0.316716049 L1.02995062,0.0423950617 C1.0338694,0.0338923304 1.03269572,0.02391105 1.02691147,0.0165492754 C1.02112722,0.00918750088 1.011707,0.00568564595 1.00251852,0.00748148148 L1.00251852,0.00748148148 Z" id="Path"></path>
                    </g>
                    <g id="Layer0_3_MEMBER_8_FILL" transform="translate(27.432099, 29.676543)" fill="#FFFFFF">
                        <path d="M0.927703704,0.239407407 C0.927703704,0.239407407 0.907753086,0.239407407 0.900271605,0.261851852 L0.798024691,0.53617284 C0.758219329,0.648940215 0.693426197,0.751245161 0.608493827,0.835432099 C0.52580866,0.918025012 0.426288319,0.981820102 0.316716049,1.02246914 L0.0374074074,1.12720988 C0.0273726673,1.12847382 0.0198713295,1.13704678 0.0199499946,1.14716049 C0.0199499946,1.16212346 0.0199499946,1.17209877 0.0374074074,1.17459259 L0.316716049,1.27683951 C0.54237193,1.36470776 0.718248255,1.54696302 0.798024691,1.77560494 L0.900271605,2.05241975 C0.906548802,2.06144936 0.916713447,2.06699372 0.927703704,2.06738272 C0.942666667,2.06738272 0.952641975,2.06738272 0.955135802,2.05241975 L1.05738272,1.77560494 C1.09604899,1.66301278 1.16102552,1.56127321 1.24691358,1.47883951 C1.32749326,1.39309052 1.42759004,1.32807038 1.53869136,1.28930864 L1.82049383,1.18706173 C1.82049383,1.18706173 1.83546688,1.17459259 1.83546688,1.15962963 C1.83575207,1.1502974 1.82953545,1.14200857 1.82049383,1.13967901 L1.53869136,1.03493827 C1.42911909,0.994289238 1.32959875,0.930494147 1.24691358,0.847901235 C1.16282526,0.763038779 1.09815956,0.660935033 1.05738272,0.548641975 L0.955135802,0.274320988 C0.959054584,0.265818256 0.957880909,0.255836976 0.952096657,0.248475201 C0.946312406,0.241113427 0.936892189,0.237611572 0.927703704,0.239407407 Z" id="Path"></path>
                    </g>
                    <g id="Layer0_3_MEMBER_9_FILL" transform="translate(38.155556, 16.459259)" fill="#FFFC19">
                        <path d="M4.7008642,0.124691358 C4.62357448,0.152137411 4.55597245,0.201538897 4.50634568,0.266839506 L3.03249383,2.1297284 L0.705753086,1.71575309 C0.626216114,1.7064804 0.545692212,1.72033397 0.47382716,1.75565432 C0.390634516,1.78551325 0.321375964,1.84500457 0.279308642,1.92274074 C0.225603771,1.98775085 0.198042172,2.07043565 0.202,2.15466667 C0.198366013,2.23961328 0.22585488,2.32296662 0.279308642,2.38908642 L1.58607407,4.3517284 L0.476320988,6.45901235 C0.440083915,6.53681053 0.426265713,6.6231743 0.436419753,6.70839506 C0.446278196,6.78621538 0.472635019,6.86103475 0.513728395,6.92785185 C0.582391624,6.99701945 0.668609182,7.04616346 0.763111111,7.07 C0.833486135,7.09544908 0.909763164,7.099783 0.982567901,7.08246914 L3.25693827,6.42409877 L4.90037037,8.12987654 C4.96369984,8.19198769 5.04472792,8.23293737 5.1322963,8.24708642 C5.21050204,8.26403818 5.29212926,8.25438335 5.36422222,8.21965432 C5.44514001,8.19949854 5.5149577,8.14847792 5.55874074,8.07750617 C5.6138972,8.01249369 5.64552625,7.93078531 5.64851852,7.84558025 L5.72582716,5.46646914 L7.86054321,4.41906173 C7.93556845,4.38834139 7.99858292,4.33407892 8.04009877,4.26444444 C8.08033113,4.19359235 8.10259317,4.11396275 8.10493827,4.03251852 C8.09370038,3.94380399 8.06304736,3.85865671 8.01516049,3.7831358 C7.96440317,3.71601197 7.89748708,3.66282225 7.82064198,3.62851852 L5.59864198,2.81553086 L5.27444444,0.47382716 C5.25655384,0.387519907 5.21611121,0.307495114 5.15723457,0.241901235 C5.04231961,0.10971096 4.85729973,0.0629586252 4.69338272,0.124691358 L4.7008642,0.124691358 Z" id="Path"></path>
                    </g>
                    <g id="Layer0_3_MEMBER_10_FILL" transform="translate(29.177778, 7.481481)" fill="#FFFC19">
                        <path d="M1.95017284,0.169580247 C1.91511311,0.211788551 1.8949525,0.264381454 1.89281481,0.319209877 L1.7357037,1.90279012 L0.274320988,2.51128395 C0.2264437,2.53601781 0.185994819,2.57302423 0.157111111,2.61851852 C0.122380864,2.66606836 0.105596034,2.72437355 0.109728395,2.78311111 C0.102841193,2.83941604 0.117056249,2.89627626 0.14962963,2.94271605 C0.179022761,2.99139975 0.225111038,3.02773859 0.279308642,3.04496296 L1.7257284,3.67839506 L1.87037037,5.26446914 C1.87714478,5.32075637 1.90059334,5.37373275 1.9377037,5.41659259 C1.97092173,5.45746953 2.01261324,5.49065257 2.05990123,5.51385185 C2.12204495,5.53001071 2.18728839,5.53001071 2.2494321,5.51385185 C2.29899887,5.503471 2.34423056,5.47824563 2.37911111,5.44153086 L3.42153086,4.24698765 L4.96520988,4.60360494 C5.02323276,4.61535895 5.08348974,4.60837263 5.13728395,4.58365432 C5.18737925,4.56515431 5.23021302,4.53106213 5.25948148,4.48639506 C5.29673146,4.44451083 5.31716298,4.39032287 5.31683951,4.3342716 C5.32477652,4.27812427 5.31334135,4.22094845 5.28441975,4.17217284 L4.46644444,2.80306173 L5.28940741,1.4414321 C5.32105324,1.39627335 5.33683924,1.34189934 5.3342963,1.28681481 C5.32988558,1.2324525 5.3137186,1.17969708 5.28691358,1.13219753 C5.24895802,1.08709158 5.20118853,1.05126446 5.14725926,1.02745679 C5.09383766,1.00802566 5.03645717,1.00203068 4.98017284,1.01 L3.434,1.35664198 L2.40404938,0.154617284 C2.36377542,0.111523989 2.31175499,0.0811787348 2.25441975,0.0673333333 C2.20026477,0.0548576691 2.14398214,0.0548576691 2.08982716,0.0673333333 C2.03596824,0.0901099155 1.9881539,0.125116843 1.95017284,0.169580247 L1.95017284,0.169580247 Z" id="Path"></path>
                    </g>
                    <g id="Layer0_3_MEMBER_11_FILL" transform="translate(46.135802, 3.241975)" fill="#FFFC19">
                        <path d="M1.97261728,0.331679012 C1.93755755,0.373887316 1.91739694,0.42648022 1.91525926,0.481308642 L1.75814815,2.06488889 L0.296765432,2.67338272 C0.248888144,2.69811658 0.208439264,2.735123 0.179555556,2.78061728 C0.144825309,2.82816712 0.128040478,2.88647232 0.13217284,2.94520988 C0.125285638,3.00151481 0.139500693,3.05837503 0.172074074,3.10481481 C0.201467205,3.15349852 0.247555483,3.18983735 0.301753086,3.20706173 L1.74817284,3.84049383 L1.89281481,5.4265679 C1.89958922,5.48285514 1.92303778,5.53583152 1.96014815,5.57869136 C1.99336617,5.6195683 2.03505768,5.65275134 2.08234568,5.67595062 C2.14448939,5.69210948 2.20973283,5.69210948 2.27187654,5.67595062 C2.32144331,5.66556977 2.36667501,5.6403444 2.40155556,5.60362963 L3.44397531,4.40908642 L4.98765432,4.77567901 C5.0456772,4.78743302 5.10593419,4.78044671 5.1597284,4.7557284 C5.2098237,4.73722838 5.25265746,4.7031362 5.28192593,4.65846914 C5.3191759,4.61658491 5.33960743,4.56239695 5.33928395,4.50634568 C5.34722096,4.45019834 5.3357858,4.39302253 5.3068642,4.34424691 L4.48888889,2.9751358 L5.31185185,1.61350617 C5.34349768,1.56834742 5.35928369,1.51397341 5.35674074,1.45888889 C5.35233002,1.40452657 5.33616304,1.35177115 5.30935802,1.3042716 C5.27140246,1.25916566 5.22363297,1.22333854 5.1697037,1.19953086 C5.11628211,1.18009973 5.05890161,1.17410475 5.00261728,1.18207407 L3.45644444,1.52871605 L2.42649383,0.326691358 C2.38621987,0.283598063 2.33419943,0.253252809 2.2768642,0.239407407 C2.22270922,0.226931743 2.16642659,0.226931743 2.1122716,0.239407407 C2.05938733,0.259298075 2.01165689,0.29083426 1.97261728,0.331679012 L1.97261728,0.331679012 Z" id="Path"></path>
                    </g>
                    <g id="Layer0_3_MEMBER_12_FILL" transform="translate(53.617284, 18.703704)" fill="#FFFFFF">
                        <path d="M1.78308642,0.0374074074 C1.7631358,0.0374074074 1.74817284,0.0498765432 1.73320988,0.0748148148 L1.55116049,0.573580247 C1.48010235,0.772288837 1.36598781,0.952828247 1.21698765,1.1022716 C1.06917718,1.24849115 0.892516126,1.36230164 0.698271605,1.43644444 L0.199506173,1.61849383 C0.181422935,1.62315294 0.168989685,1.6397306 0.169580247,1.65839506 C0.166205809,1.67947061 0.179025573,1.69976857 0.199506173,1.70577778 L0.698271605,1.88782716 C1.09524695,2.03796673 1.40679805,2.35407267 1.55116049,2.75318519 L1.73320988,3.25195062 C1.74354462,3.26987695 1.76240566,3.28119357 1.78308642,3.28187654 C1.80393254,3.28419635 1.82360622,3.27177087 1.83046914,3.25195062 L2.01251852,2.75318519 C2.15886651,2.35446547 2.47090505,2.038788 2.86790123,1.88782716 L3.36666667,1.70577778 C3.38714727,1.69976857 3.39996703,1.67947061 3.39659259,1.65839506 C3.39718315,1.6397306 3.3847499,1.62315294 3.36666667,1.61849383 L2.86790123,1.43644444 C2.67335414,1.36290075 2.49657521,1.24901432 2.34918519,1.1022716 C2.198625,0.95360749 2.08354571,0.772890372 2.01251852,0.573580247 L1.83046914,0.0748148148 C1.82666985,0.0520012132 1.80615887,0.0358083344 1.78308642,0.0374074074 L1.78308642,0.0374074074 Z" id="Path"></path>
                    </g>
                    <g id="Layer0_3_MEMBER_13_FILL" transform="translate(34.414815, 0.000000)" fill="#FFFFFF">
                        <path d="M1.7082716,0.239406533 C1.68832099,0.239406533 1.67335802,0.239406533 1.65839506,0.276814815 L1.47634568,0.775580247 C1.40528753,0.974288837 1.291173,1.15482825 1.14217284,1.3042716 C0.994362369,1.45049115 0.817701311,1.56430164 0.62345679,1.63844444 L0.124691358,1.82049383 C0.106608121,1.82515294 0.0941748704,1.8417306 0.0947654321,1.86039506 C0.0913909937,1.88147061 0.104210758,1.90176857 0.124691358,1.90777778 L0.62345679,2.08982716 C1.02000747,2.24111793 1.33064912,2.55813638 1.47385185,2.95767901 L1.65590123,3.45644444 C1.66623598,3.47437078 1.68509702,3.4856874 1.70577778,3.48637037 C1.7266239,3.48869018 1.74629757,3.4762647 1.75316049,3.45644444 L1.93520988,2.95767901 C2.08155787,2.5589593 2.39359641,2.24328183 2.79059259,2.09232099 L3.28935802,1.9102716 C3.30983862,1.9042624 3.32265839,1.88396444 3.31928395,1.86288889 C3.31987451,1.84422443 3.30744126,1.82764676 3.28935802,1.82298765 L2.79059259,1.64093827 C2.5960455,1.56739458 2.41926657,1.45350815 2.27187654,1.30676543 C2.12131636,1.15810132 2.00623706,0.977384199 1.93520988,0.778074074 L1.75316049,0.279308642 C1.75060895,0.256482911 1.73123906,0.239265239 1.7082716,0.239406533 Z" id="Path"></path>
                    </g>
                    <g id="Layer0_3_MEMBER_14_FILL" transform="translate(19.202469, 25.686420)" fill="#FFFFFF">
                        <path d="M1.08980247,0.13217284 C1.08980247,0.13217284 1.06985185,0.13217284 1.06237037,0.154617284 L0.960123457,0.428938272 C0.920318095,0.541705647 0.855524962,0.644010593 0.770592593,0.728197531 C0.687907425,0.810790444 0.588387084,0.874585534 0.478814815,0.915234568 L0.199506173,1.01997531 C0.189471433,1.02123925 0.181970095,1.02981221 0.18204876,1.03992593 C0.18204876,1.05488889 0.18204876,1.0648642 0.199506173,1.06735802 L0.478814815,1.16960494 C0.704470695,1.25747319 0.880347021,1.43972845 0.960123457,1.66837037 L1.06237037,1.94518519 C1.06864757,1.9542148 1.07881221,1.95975915 1.08980247,1.96014815 C1.10476543,1.96014815 1.11474074,1.96014815 1.11723457,1.94518519 L1.21948148,1.66837037 C1.25814776,1.55577821 1.32312428,1.45403865 1.40901235,1.37160494 C1.48959203,1.28585595 1.58968881,1.22083582 1.70079012,1.18207407 L1.98259259,1.07982716 C1.98259259,1.07982716 1.99756564,1.07982716 1.99756564,1.05239506 C1.99785084,1.04306283 1.99163421,1.034774 1.98259259,1.03244444 L1.70079012,0.927703704 C1.59121785,0.88705467 1.49169751,0.82325958 1.40901235,0.740666667 C1.32492403,0.655804211 1.26025832,0.553700465 1.21948148,0.441407407 L1.11723457,0.16708642 C1.12115335,0.158583688 1.11997967,0.148602408 1.11419542,0.141240633 C1.10841117,0.133878859 1.09899095,0.130377004 1.08980247,0.13217284 L1.08980247,0.13217284 Z" id="Path"></path>
                    </g>
                    <g id="Layer0_3_MEMBER_15_FILL" transform="translate(62.595062, 27.930864)" fill="#FFFFFF">
                        <path d="M0.97508642,0.169580247 C0.97508642,0.169580247 0.955135802,0.169580247 0.947654321,0.192024691 L0.845407407,0.466345679 C0.805602045,0.579113055 0.740808913,0.681418001 0.655876543,0.765604938 C0.573191376,0.848197851 0.473671035,0.911992941 0.364098765,0.952641975 L0.0847901235,1.05738272 C0.0747553834,1.05864666 0.0672540456,1.06721962 0.0673327106,1.07733333 C0.0673327106,1.0922963 0.0673327106,1.1022716 0.0847901235,1.10476543 L0.364098765,1.20701235 C0.589754646,1.2948806 0.765630972,1.47713586 0.845407407,1.70577778 L0.947654321,1.98259259 C0.953931518,1.9916222 0.964096163,1.99716655 0.97508642,1.99755556 C0.990049383,1.99755556 1.00002469,1.99755556 1.00251852,1.98259259 L1.10476543,1.70577778 C1.14343171,1.59318562 1.20840823,1.49144605 1.2942963,1.40901235 C1.37487598,1.32326335 1.47497276,1.25824322 1.58607407,1.21948148 L1.86787654,1.11723457 C1.86787654,1.11723457 1.88284959,1.10476543 1.88284959,1.08980247 C1.88313479,1.08047024 1.87691816,1.07218141 1.86787654,1.06985185 L1.58607407,0.965111111 C1.4765018,0.924462077 1.37698146,0.860666987 1.2942963,0.778074074 C1.21020798,0.693211618 1.14554227,0.591107873 1.10476543,0.478814815 L1.00251852,0.204493827 C1.0064373,0.195991096 1.00526362,0.186009815 0.999479373,0.178648041 C0.993695122,0.171286266 0.984274905,0.167784411 0.97508642,0.169580247 Z" id="Path"></path>
                    </g>
                    <g id="Layer0_3_MEMBER_16_FILL" transform="translate(54.614815, 30.674074)" fill="#FFFFFF">
                        <path d="M1.69330864,0.0872839506 C1.66862049,0.059215328 1.63793812,0.0370558428 1.60353086,0.0224444444 C1.56748127,0.0136674681 1.52985206,0.0136674681 1.49380247,0.0224444444 C1.45865981,0.0320754032 1.42677666,0.0510329494 1.40153086,0.077308642 C1.37521268,0.105744851 1.35786374,0.141310193 1.35165432,0.179555556 L1.20202469,1.212 L0.226938272,1.57360494 C0.193593425,1.58642139 0.164905121,1.6090243 0.144641975,1.63844444 C0.120017975,1.66774369 0.106742216,1.70491581 0.107234568,1.74318519 C0.105028043,1.77949199 0.112789296,1.81571117 0.129679012,1.84792593 C0.148463941,1.88007367 0.176189904,1.90606676 0.209481481,1.92274074 L1.14716049,2.38409877 L1.1845679,3.43150617 C1.18734396,3.46881184 1.20124293,3.50442796 1.22446914,3.53375309 C1.24410646,3.56375324 1.27300312,3.58652031 1.30676543,3.59859259 C1.34570091,3.61100788 1.38753366,3.61100788 1.42646914,3.59859259 C1.4586743,3.58936051 1.48846687,3.5731874 1.51375309,3.55120988 L2.23945679,2.80306173 L3.23698765,3.08985185 C3.27269329,3.10113714 3.31101041,3.10113714 3.34671605,3.08985185 C3.38304679,3.08020176 3.41536357,3.05923952 3.43898765,3.03 C3.46112484,3.00122301 3.47415191,2.96648416 3.47639506,2.93024691 C3.48249392,2.89355489 3.47636005,2.85587542 3.45893827,2.82301235 L2.96017284,1.89780247 L3.54123457,1.02745679 C3.56125983,0.996092167 3.57245935,0.959909096 3.57365432,0.922716049 C3.57444537,0.885586635 3.56401558,0.84908237 3.5437284,0.817975309 C3.52601526,0.785421246 3.50025837,0.757947226 3.46891358,0.73817284 C3.43442617,0.723067025 3.39618264,0.718721169 3.35918519,0.725703704 L2.32923457,0.900271605 L1.69330864,0.0872839506 Z" id="Path"></path>
                    </g>
                    <g id="Layer0_3_MEMBER_17_FILL" transform="translate(22.444444, 18.703704)" fill="#FFFFFF">
                        <path d="M1.28432099,0.077308642 C1.26609654,0.0539733349 1.24199857,0.0358998515 1.21449383,0.0249382716 C1.18588273,0.0174365522 1.15582097,0.0174365522 1.12720988,0.0249382716 C1.09960802,0.0320175862 1.07454944,0.0467070996 1.05488889,0.0673333333 C1.03384519,0.0902856792 1.01997522,0.118892494 1.01498765,0.14962963 L0.897777778,0.962617284 L0.127185185,1.23693827 C0.101291936,1.24710059 0.0788097561,1.26439457 0.062345679,1.28681481 C0.0451221256,1.31104136 0.034780799,1.33948001 0.0323953164,1.36911111 C0.0319627047,1.3983115 0.0379219054,1.42725619 0.0498765432,1.45390123 C0.0648080735,1.47853828 0.0864284394,1.49842901 0.112222222,1.51125926 L0.86037037,1.87535802 L0.890296296,2.70081481 C0.892900251,2.73005408 0.904190749,2.75784607 0.922716049,2.78061728 C0.937523981,2.80513328 0.960472894,2.82366894 0.987555556,2.83298765 C1.01751713,2.84288134 1.04986559,2.84288134 1.07982716,2.83298765 C1.10569533,2.82611871 1.12960455,2.8133102 1.14965432,2.79558025 L1.72323457,2.20454321 L2.51377778,2.42898765 C2.542033,2.43887155 2.57280651,2.43887155 2.60106173,2.42898765 C2.62922551,2.42198623 2.65397815,2.4051898 2.67088889,2.38160494 C2.69036543,2.36059928 2.70107194,2.33294079 2.70081481,2.3042963 C2.70977002,2.27674228 2.70977002,2.24706019 2.70081481,2.21950617 L2.3142716,1.49130864 L2.7731358,0.805506173 C2.78919028,0.781043363 2.79784903,0.752469486 2.79807407,0.723209877 C2.79903561,0.694145262 2.79121391,0.665465701 2.77562963,0.64091358 C2.75847503,0.617279039 2.73634086,0.597698808 2.71079012,0.583555556 C2.68216486,0.576164545 2.65213143,0.576164545 2.62350617,0.583555556 L1.81301235,0.723209877 L1.28432099,0.077308642 Z" id="Path"></path>
                    </g>
                </g>
            </g>
        </g>
    </g>
</svg>