<?xml version="1.0" encoding="UTF-8"?>
<svg width="100px" height="100px" viewBox="0 0 100 100" version="1.1" xmlns="http://www.w3.org/2000/svg" xmlns:xlink="http://www.w3.org/1999/xlink">
    <title>71844177-3DC1-4C87-8228-66457C790B66</title>
    <defs>
        <linearGradient x1="59.4047976%" y1="38.6474743%" x2="20.0363941%" y2="94.7046044%" id="linearGradient-1">
            <stop stop-color="#FFE670" offset="0%"></stop>
            <stop stop-color="#EE5EB0" offset="100%"></stop>
        </linearGradient>
        <linearGradient x1="65.7608611%" y1="-25.6121416%" x2="21.1405469%" y2="140.117472%" id="linearGradient-2">
            <stop stop-color="#FFC85F" offset="0%"></stop>
            <stop stop-color="#D64497" offset="100%"></stop>
        </linearGradient>
        <linearGradient x1="31.4131986%" y1="74.4228359%" x2="68.4612792%" y2="26.0132676%" id="linearGradient-3">
            <stop stop-color="#EE6760" offset="0%"></stop>
            <stop stop-color="#FFF083" offset="64%"></stop>
        </linearGradient>
        <linearGradient x1="49.2947092%" y1="34.0083443%" x2="50.9954723%" y2="57.0351777%" id="linearGradient-4">
            <stop stop-color="#5331E9" offset="0%"></stop>
            <stop stop-color="#250D93" offset="100%"></stop>
        </linearGradient>
        <linearGradient x1="12.212761%" y1="21.3920495%" x2="11.6878572%" y2="25.0911801%" id="linearGradient-5">
            <stop stop-color="#5331E9" offset="0%"></stop>
            <stop stop-color="#250D93" offset="100%"></stop>
        </linearGradient>
        <linearGradient x1="19.3699865%" y1="-326.28875%" x2="19.3699865%" y2="-208.138333%" id="linearGradient-6">
            <stop stop-color="#5331E9" offset="0%"></stop>
            <stop stop-color="#250D93" offset="100%"></stop>
        </linearGradient>
        <linearGradient x1="54.1768204%" y1="90.9764744%" x2="47.8719275%" y2="7.57791356%" id="linearGradient-7">
            <stop stop-color="#4358D2" offset="0%"></stop>
            <stop stop-color="#7C72FF" offset="100%"></stop>
        </linearGradient>
    </defs>
    <g id="Page-2" stroke="none" stroke-width="1" fill="none" fill-rule="evenodd">
        <g id="Icons" transform="translate(-639.000000, -600.000000)" fill-rule="nonzero">
            <g id="Elements/Graphics/SubjectGraphics/HindiLiterature/Hero" transform="translate(639.000000, 600.000000)">
                <g id="Hindi_Literature_Hero" transform="translate(25.800000, 0.000000)">
                    <g id="Layer0_0_MEMBER_0_MEMBER_0_MEMBER_0_FILL" transform="translate(19.543125, 0.000000)" fill="url(#linearGradient-1)">
                        <path d="M28.6727045,0 C26.1238319,3.666 23.2193845,6.39435 19.9593623,8.18505 C9.28507818,17.14419 2.68758197,30.18669 0.166873704,47.31255 C4.8801757,45.88986 8.79713103,43.166445 11.9177397,39.142305 C10.0560769,40.500135 8.42254533,41.11983 7.01714485,41.00139 C8.56618345,40.32318 10.2757588,39.066165 12.1458708,37.230345 C13.6836437,35.895075 15.0862277,35.178795 16.353623,35.081505 C14.945406,35.039205 13.049242,35.362095 10.6651308,36.050175 L4.96185228,37.936755 C8.20075116,36.502785 10.5531775,35.216865 12.0191313,34.078995 C14.2986832,31.7840731 16.3397857,29.2634786 18.1110777,26.55594 C14.4163764,27.9940571 10.4930103,28.7535016 6.52919769,28.79784 C11.2199682,27.78828 15.1629756,26.63631 18.3582197,25.34193 L23.2165681,17.911935 C21.1957768,17.608785 18.7426629,17.890785 15.8572265,18.757935 C18.4282687,17.1814045 21.3578128,16.2861435 24.3698977,16.156485 C27.7651087,10.932435 29.1993776,5.54694 28.6727045,0 Z" id="Path"></path>
                    </g>
                    <g id="Layer0_0_MEMBER_0_MEMBER_0_MEMBER_1_FILL" transform="translate(15.409002, 3.760000)" fill="url(#linearGradient-2)">
                        <path d="M26.3730256,0.0592838835 C25.4279501,1.70543316 23.9876135,3.01227251 22.2566122,3.79416854 C16.038892,5.59526939 11.0837929,9.32168492 7.39131493,14.9734151 C6.81193645,18.483868 6.8161758,21.7571852 7.40403299,24.793367 C5.94145562,23.5738128 5.28718187,21.4438276 5.44121176,18.4034113 C1.38414931,24.0494954 0.425348589,30.5276712 2.5648096,37.8379386 C1.77205027,37.1152399 0.936897389,35.6860748 0.0593509658,33.5504435 C0.953854808,38.6319192 2.33164509,41.9652261 4.1927218,43.5503643 C6.72220344,26.4088528 13.3426624,13.3522832 24.0540986,4.38065553 C25.6579878,2.55555883 26.4309635,1.11510162 26.3730256,0.0592838835 Z" id="Path"></path>
                    </g>
                    <g id="Layer0_0_MEMBER_0_MEMBER_0_MEMBER_2_FILL" transform="translate(27.059711, 19.176000)" fill="#FF8A41" fill-opacity="0.32">
                        <path d="M0.971304027,2.85418182 L0.123003567,4.49063636 C4.43095607,2.74309091 8.76859909,2.068 13.1359326,2.46536364 L14.6713565,0.158090909 C9.96555761,0.0563925456 5.29312843,0.975899526 0.971304027,2.85418182 L0.971304027,2.85418182 Z" id="Path"></path>
                    </g>
                    <g id="Layer0_0_MEMBER_0_MEMBER_0_MEMBER_3_FILL" transform="translate(18.979381, 11.092000)" fill="#B63A69">
                        <path d="M0.716388499,12.7441619 L0.113001757,13.9518381 C-0.186914856,20.42244 0.615468691,24.6493067 2.5201524,26.6324381 L3.37299585,24.003094 C1.4341984,22.6386317 0.548662621,18.8856544 0.716388499,12.7441619 Z" id="Path" fill-opacity="0.42"></path>
                        <path d="M11.0336622,0.154667302 L10.1253839,0.80511746 C8.90866056,3.02554667 8.73240624,5.97693778 9.59662094,9.65929079 L10.9078677,7.75243365 C9.58169618,5.36956847 9.62362765,2.83697968 11.0336622,0.154667302 Z" id="Path" fill-opacity="0.21"></path>
                    </g>
                    <g id="Layer0_0_MEMBER_0_MEMBER_1_MEMBER_0_FILL" transform="translate(17.851893, 10.904000)" fill="url(#linearGradient-3)">
                        <path d="M0.101473916,47.029967 L1.33607322,49.0889947 C2.41423358,27.4226967 8.6971602,10.7538743 18.592981,0.173347296 C7.88959695,10.1788687 1.78002161,25.7632134 0.101473916,47.029967 Z" id="Path"></path>
                    </g>
                    <g id="Layer0_0_MEMBER_0_MEMBER_1_MEMBER_1_FILL" transform="translate(17.663978, 48.316000)" fill="#F08D40">
                        <path d="M2.5365347,0.03807 L1.18824703,0.590085 C0.735163904,3.473535 0.380005199,6.478245 0.12277091,9.604215 L1.40309612,11.664225 C1.60917586,7.597785 1.98698872,3.7224 2.5365347,0.03807 Z" id="Path"></path>
                    </g>
                    <g id="Layer0_0_MEMBER_1_MEMBER_0_FILL" transform="translate(0.000000, 55.272000)" fill="url(#linearGradient-4)">
                        <path d="M8.87277622,5.327685 C8.7914847,5.34054192 8.71089409,5.35748343 8.63131132,5.378445 C5.49226754,6.203295 2.93852906,7.66335 0.970095849,9.75861 C-0.254173585,11.50983 -0.318423019,13.288545 0.777347547,15.094755 L6.58097773,27.80379 C7.54260113,29.82996 9.49832566,30.624495 12.4481513,30.187395 L26.3281472,29.31813 C29.3175109,29.39991 31.1637996,28.37766 31.8670132,26.25138 L36.1180664,12.92688 C36.989317,11.01069 36.7160804,9.25242 35.2983566,7.65207 C33.0771619,5.81907 30.3582106,4.679085 27.1415026,4.232115 L27.1309121,4.232115 C27.0530216,4.22049611 26.9745175,4.21343406 26.8958015,4.210965 L26.6479823,0.0846 L8.62283886,1.165365 L8.87277622,5.327685 Z" id="Path"></path>
                    </g>
                    <g id="Layer0_0_MEMBER_1_MEMBER_1_FILL" transform="translate(8.456160, 55.272000)" fill="url(#linearGradient-5)">
                        <polygon id="Path" points="0.146055049 1.095805 0.268825959 3.151585 18.2928657 2.07928 18.1700947 0.021385"></polygon>
                    </g>
                    <g id="Layer0_0_MEMBER_1_MEMBER_2_FILL" transform="translate(2.254976, 54.708000)" fill="#000000" fill-opacity="0.07">
                        <path d="M7.10311147,8.199855 C2.03742502,9.619725 -0.249826275,11.37306 0.241357588,13.45986 L6.15461849,27.20736 C7.21135834,28.2652396 8.68897005,28.7911959 10.177245,28.639215 L16.3911443,27.196785 C18.441978,27.009255 20.8372051,27.18762 23.5768254,27.73188 C25.510509,28.02234 26.7871636,27.363165 27.4067892,25.754355 L31.6030238,11.583855 C31.8415585,9.451935 29.3616446,7.984125 24.163282,7.180425 C22.7433654,7.022505 21.9727149,6.270975 21.8513304,4.925835 L21.5612778,0.10575 L8.83919236,0.860805 L9.12712773,5.68089 C9.17088261,7.03308 8.49621053,7.872735 7.10311147,8.199855 Z" id="Path"></path>
                    </g>
                    <g id="Layer0_0_MEMBER_1_MEMBER_3_FILL" transform="translate(2.254976, 59.972000)" fill="#000000" fill-opacity="0.22">
                        <path d="M18.0603896,3.94630631 C17.8640188,4.07907336 17.7483636,4.30223325 17.753168,4.5390991 C17.7754165,4.7720838 17.9175268,4.97665938 18.1281902,5.07896396 C18.3843131,5.22831199 18.6801225,5.29555615 18.9756979,5.27162162 C19.2714691,5.26326653 19.5567118,5.16009512 19.7893053,4.97734234 C19.9916247,4.85461059 20.1134541,4.63371503 20.1092395,4.39725225 C20.0842774,4.15847397 19.9376532,3.94951729 19.7215047,3.84468468 C19.4640644,3.69939559 19.1684491,3.63588787 18.873997,3.66261261 C18.5766043,3.67378426 18.2891387,3.77247748 18.047677,3.94630631 M17.0603305,6.25396396 C14.6039706,7.3463964 11.9427963,7.17632132 9.07680771,5.74373874 C6.87752517,8.39436937 3.91124814,9.17981982 0.177976622,8.10009009 L5.98128576,21.6094144 C6.97004477,23.0321171 8.52380893,23.5543393 10.6425782,23.1760811 C14.4803757,21.8535886 18.6578825,21.5945946 23.1750987,22.3990991 C25.3192932,22.5162462 26.8024317,21.799955 27.6245142,20.2502252 L31.5272873,6.21162162 C29.5977947,7.75429429 27.3137614,7.74864865 24.6751874,6.19468468 C22.4773173,4.6633033 19.945388,4.68094595 17.0793994,6.24761261 M15.0686873,1.09878378 C15.2719414,0.865192228 15.2821326,0.520783991 15.0930457,0.275600975 C14.9039588,0.030417959 14.5680645,-0.0475027538 14.2902123,0.0893598101 C14.0123602,0.226222374 13.8696528,0.539889526 13.9491222,0.839067219 C14.0285915,1.13824491 14.3081853,1.33991281 14.6173895,1.32108108 C14.7887996,1.31208117 14.9492807,1.23419396 15.062331,1.10513514 L15.0686873,1.09878378 Z" id="Shape"></path>
                    </g>
                    <g id="Layer0_0_MEMBER_1_MEMBER_4_FILL" transform="translate(6.389098, 49.820000)" fill="url(#linearGradient-6)">
                        <path d="M1.01262512,5.936805 C1.50711339,6.42711581 2.18910059,6.67998969 2.88355044,6.630525 L19.5738955,5.6259 C20.2662279,5.59116528 20.9097885,5.25882923 21.3391189,4.714335 C21.8028242,4.1687388 22.0309503,3.46122684 21.9733308,2.747385 L21.9733308,2.734695 C21.9452522,2.01011464 21.6322066,1.32596661 21.1023464,0.831195 C20.6079343,0.348552481 19.9310994,0.100010474 19.2419913,0.14805 L2.55376021,1.15056 C1.85986879,1.18370227 1.21307935,1.51147567 0.775852648,2.05155 C0.326628118,2.61317466 0.107483332,3.32458465 0.162781073,4.041765 L0.162781073,4.054455 C0.188774203,4.76902836 0.493911301,5.44488745 1.01262512,5.936805 Z" id="Path"></path>
                    </g>
                    <g id="Layer0_0_MEMBER_1_MEMBER_5_FILL" transform="translate(18.791466, 50.760000)" fill="#4A5AFF">
                        <path d="M5.97639083,0.06768 L0.636326014,0.387045 C0.489997332,0.393219436 0.352539108,0.458923747 0.255798829,0.568935 C0.10804356,0.735599794 0.0753962305,0.974984608 0.173121991,1.17515855 C0.270847751,1.37533249 0.479635664,1.49674052 0.701861251,1.482615 L6.04192607,1.161135 C6.18799352,1.15574712 6.32549319,1.09078723 6.42245325,0.98136 C6.52074303,0.872595888 6.56904074,0.727636936 6.55563777,0.581625 C6.55025233,0.435491216 6.48532193,0.297929095 6.37594437,0.200925 C6.26722964,0.102590588 6.12233649,0.0542709379 5.97639083,0.06768 L5.97639083,0.06768 Z" id="Path"></path>
                    </g>
                    <g id="Layer0_0_MEMBER_1_MEMBER_6_FILL" transform="translate(29.690516, 60.724000)" fill="#574AFF">
                        <path d="M1.54156343,2.09192727 C1.9395304,2.1795401 2.35508955,2.15101273 2.73659012,2.00989091 C3.03974081,1.92650132 3.27480197,1.6922749 3.35405558,1.39461818 C3.40236071,1.13210182 3.28684846,0.869585455 3.0033184,0.60912 C2.36480157,0.0980392178 1.50437478,-0.0618195443 0.718276149,0.184581818 C0.36333852,0.324043636 0.161717145,0.525032727 0.113412024,0.7896 C0.0651069024,1.05416727 0.170118035,1.32693818 0.453648094,1.58740364 C0.761870187,1.85008087 1.13831091,2.02465626 1.54156343,2.09192727 L1.54156343,2.09192727 Z" id="Path"></path>
                    </g>
                    <g id="Layer0_0_MEMBER_2_FILL" transform="translate(6.389098, 61.852000)" fill="url(#linearGradient-7)">
                        <path d="M1.62097555,2.36243226 C0.165060173,3.13080645 -0.270162591,4.23737849 0.315307254,5.68214839 L4.33600378,18.4876774 C4.57301326,19.2970882 5.4526288,19.6558043 6.9748504,19.5638258 L18.4020932,18.8761097 C19.9384225,18.7827161 20.7848849,18.3199935 20.9414804,17.4879419 L23.3919892,4.29185806 C23.7630219,2.71548817 23.0611634,1.61952903 21.2864139,1.00398065 C18.1886003,0.224473107 14.989469,-0.0712101811 11.8018024,0.127354839 C8.31424967,0.346074591 4.88074789,1.09985839 1.62097555,2.36243226 Z" id="Path"></path>
                    </g>
                    <g id="Layer0_0_MEMBER_3_FILL" transform="translate(11.274880, 63.356000)" fill="#8EE9FF">
                        <path d="M4.14988308,4.29101671 C3.51361928,4.56461584 3.03391683,5.1087964 2.84296694,5.77359899 C2.77409642,5.97087714 2.7215864,6.17347286 2.68596727,6.37933975 C2.64305473,7.12818002 2.69869104,7.87940489 2.8514534,8.61380304 C3.02331806,9.62890244 3.50406939,10.5665698 4.22838291,11.2993949 C4.54429862,11.6354125 4.9099231,11.9211242 5.31252926,12.1465848 C6.55155365,12.8878759 7.99920373,12.9895387 9.65547949,12.4515732 C10.1646676,12.8455165 10.2813565,13.387718 10.0055463,14.0781777 C9.97919854,14.1155849 9.94695704,14.1484863 9.91007355,14.1756046 C9.60970079,14.5471742 9.10794009,14.6904093 8.65619783,14.5335423 C8.55846017,14.5176091 8.46391082,14.4861468 8.37614437,14.4403514 L10.4977615,16.5583261 C10.5253024,16.5604264 10.5529637,16.5604264 10.5805046,16.5583261 C10.8721453,16.4892619 11.149348,16.3695381 11.3994488,16.2046243 C11.5042309,16.131763 11.6009547,16.047985 11.6879887,15.9547033 C12.0461011,15.5614094 12.243001,15.0480805 12.2396091,14.5165985 C12.1363571,13.5931615 11.5564484,12.7685634 10.4998831,12.0428041 C11.163445,11.3969827 11.5120477,10.4944917 11.4546108,9.57112759 C11.2693229,8.30034278 10.5543379,7.68895409 9.3096559,7.73696152 C9.02076286,7.82179164 8.7556299,7.97262171 8.53526566,8.17750025 C8.47031428,8.20637081 8.41401244,8.25162693 8.37190114,8.30881468 C8.18175997,8.55550443 8.05960892,8.84757949 8.01759108,9.15600456 C7.96681706,9.55278318 7.98403568,9.95529352 8.06850989,10.3463063 C7.60865087,10.6051221 7.09204607,10.7469627 6.56428336,10.7593114 C6.02770244,10.758798 5.49421929,10.6781277 4.98155699,10.5199803 C4.23474776,10.0963853 3.87831609,9.42498734 3.92074843,8.49096051 C3.92527661,8.20475894 3.96518196,7.92021015 4.03955899,7.64377063 C4.09874307,7.43935203 4.17834984,7.24138631 4.27718011,7.0528557 C4.54579818,6.59804576 4.98607505,6.26993112 5.49923156,6.14212658 L10.3131808,5.86255392 L10.1158704,2.43778886 L13.0734047,2.27046886 L11.032409,0.137668354 L0.0636485135,0.785768608 L2.1449549,2.91433316 L7.81603746,2.58604709 L7.8711995,3.82506228 L5.07702976,4.00297215 C4.7573222,4.06068657 4.44593677,4.15742734 4.14988308,4.29101671 L4.14988308,4.29101671 Z" id="Path"></path>
                    </g>
                    <g id="Layer0_2_FILL" transform="translate(9.019904, 86.856000)" fill="#5D38A1">
                        <path d="M22.1957462,6.09028686 C24.729895,5.40596686 25.9969695,4.568024 25.9969695,3.57645829 C25.9969695,2.58489257 24.729895,1.74694971 22.1957462,1.06262971 C19.668676,0.364344 16.6177873,0.0152011429 13.0430801,0.0152011429 C9.46837291,0.0152011429 6.41394489,0.364344 3.87979605,1.06262971 C1.35272582,1.76091543 0.0891907137,2.59885829 0.0891907137,3.57645829 C0.0891907137,4.55405829 1.35272582,5.39200114 3.87979605,6.09028686 C6.41394489,6.78857257 9.46837291,7.13771543 13.0430801,7.13771543 C16.6177873,7.13771543 19.668676,6.78857257 22.1957462,6.09028686 Z" id="Path"></path>
                    </g>
                </g>
            </g>
        </g>
    </g>
</svg>