<?xml version="1.0" encoding="UTF-8"?>
<svg width="40px" height="40px" viewBox="0 0 40 40" version="1.1" xmlns="http://www.w3.org/2000/svg" xmlns:xlink="http://www.w3.org/1999/xlink">
    <title>44308429-C160-41D7-9F6E-1F095FBB68BC</title>
    <g id="My-Lessons" stroke="none" stroke-width="1" fill="none" fill-rule="evenodd">
        <g id="B-05.4-FullScheduleFilter" transform="translate(-16.000000, -565.000000)" fill-rule="nonzero">
            <g id="Elements/Highlight/Expanded-Copy-11" transform="translate(16.000000, 565.000000)">
                <g id="Elements/Graphics/Style3/Photos/Black" transform="translate(8.000000, 8.000000)">
                    <g id="edit" transform="translate(2.250000, 2.250000)">
                        <path d="M13.3666406,18.28125 C13.4072656,18.28125 13.4392578,18.2695703 13.4626172,18.2462109 C13.4859766,18.2228516 13.5078125,18.1969531 13.528125,18.1685156 L13.528125,18.1685156 L14.2471875,17.1173438 C14.275625,17.070625 14.2969531,17.0178125 14.3111719,16.9589063 L14.3111719,16.9589063 L15.088125,18.1685156 C15.104375,18.1969531 15.1251953,18.2228516 15.1505859,18.2462109 C15.1759766,18.2695703 15.2110156,18.28125 15.2557031,18.28125 L15.2557031,18.28125 L15.7767187,18.28125 L14.6950781,16.6694531 L15.7340625,15.1947656 L15.234375,15.1947656 C15.2039062,15.1947656 15.1785156,15.2033984 15.1582031,15.2206641 C15.1378906,15.2379297 15.1175781,15.2607813 15.0972656,15.2892188 L15.0972656,15.2892188 L14.4330469,16.2642188 C14.3985156,16.3210938 14.3721094,16.3779688 14.3538281,16.4348438 L14.3538281,16.4348438 L13.5982031,15.2770313 C13.5819531,15.250625 13.5636719,15.2303125 13.5433594,15.2160938 C13.5230469,15.201875 13.4905469,15.1947656 13.4458594,15.1947656 L13.4458594,15.1947656 L12.9248437,15.1947656 L13.9638281,16.6999219 L12.8821875,18.28125 L13.3666406,18.28125 Z M19.0978125,18.28125 L19.0978125,17.9521875 C19.0978125,17.8973438 19.0805469,17.8526563 19.0460156,17.818125 C19.0114844,17.7835938 18.9647656,17.7663281 18.9058594,17.7663281 L18.9058594,17.7663281 L17.4433594,17.7663281 C17.3661719,17.7663281 17.2859375,17.7729297 17.2026562,17.7861328 C17.119375,17.7993359 17.0371094,17.8171094 16.9558594,17.8394531 L16.9558594,17.8394531 L18.1045312,16.6633594 C18.2264062,16.5394531 18.3416797,16.4180859 18.4503516,16.2992578 C18.5590234,16.1804297 18.655,16.0575391 18.7382812,15.9305859 C18.8215625,15.8036328 18.8875781,15.6710938 18.9363281,15.5329688 C18.9850781,15.3948438 19.0094531,15.2445313 19.0094531,15.0820313 C19.0094531,14.8910938 18.9759375,14.7204688 18.9089062,14.5701563 C18.841875,14.4198438 18.7499609,14.2923828 18.6331641,14.1877734 C18.5163672,14.0831641 18.3777344,14.0034375 18.2172656,13.9485938 C18.0567969,13.89375 17.8841406,13.8663281 17.6992969,13.8663281 C17.5124219,13.8663281 17.3382422,13.8932422 17.1767578,13.9470703 C17.0152734,14.0008984 16.8720703,14.0796094 16.7471484,14.1832031 C16.6222266,14.2867969 16.5191406,14.4152734 16.4378906,14.5686328 C16.3566406,14.7219922 16.3017969,14.8982031 16.2733594,15.0972656 L16.2733594,15.0972656 L16.5567187,15.1460156 C16.5709375,15.1480469 16.5836328,15.1495703 16.5948047,15.1505859 C16.6059766,15.1516016 16.6166406,15.1521094 16.6267969,15.1521094 C16.6796094,15.1521094 16.7222656,15.1389063 16.7547656,15.1125 C16.7872656,15.0860938 16.8116406,15.0434375 16.8278906,14.9845313 C16.8482031,14.8890625 16.8832422,14.8017188 16.9330078,14.7225 C16.9827734,14.6432813 17.0437109,14.5747266 17.1158203,14.5168359 C17.1879297,14.4589453 17.2707031,14.41375 17.3641406,14.38125 C17.4575781,14.34875 17.5591406,14.3325 17.6688281,14.3325 C17.7785156,14.3325 17.8810937,14.3482422 17.9765625,14.3797266 C18.0720312,14.4112109 18.1553125,14.4584375 18.2264062,14.5214063 C18.2975,14.584375 18.3533594,14.6641016 18.3939844,14.7605859 C18.4346094,14.8570703 18.4549219,14.9692969 18.4549219,15.0972656 C18.4549219,15.2252344 18.4366406,15.3455859 18.4000781,15.4583203 C18.3635156,15.5710547 18.3112109,15.6822656 18.2431641,15.7919531 C18.1751172,15.9016406 18.0933594,16.0108203 17.9978906,16.1194922 C17.9024219,16.2281641 17.7967969,16.3414063 17.6810156,16.4592188 L17.6810156,16.4592188 L16.2825,17.8638281 C16.2479687,17.8983594 16.2230859,17.9359375 16.2078516,17.9765625 C16.1926172,18.0171875 16.185,18.0567969 16.185,18.0953906 L16.185,18.0953906 L16.185,18.28125 L19.0978125,18.28125 Z" id="x2" fill="#D75A4A" opacity="0.8"></path>
                        <g id="pencil">
                            <path d="M14.2992778,0.846083333 C15.4273889,-0.282027778 17.2567778,-0.282027778 18.3848889,0.846083333 C19.513,1.97419444 19.513,3.80358333 18.3848889,4.93169444 L14.2992778,0.846083333 Z" id="Path" fill="#D75A4A"></path>
                            <polygon id="Path" fill="#ED8A19" points="15.3205 6.46352778 5.96266667 15.8217222 5.77127778 17.5453056 16.0867778 7.22944444 16.0867778 7.22944444"></polygon>
                            <polygon id="Path" fill="#ED8A19" points="3.72847222 15.5025 5.45205556 15.3111111 14.8098889 5.95291667 13.2780556 4.42108333 3.91986111 13.7789167"></polygon>
                            <polygon id="Path" fill="#ED8A19" points="12.7674444 3.91047222 12.0011667 3.14419444 12.0011667 3.14419444 1.68566667 13.4596944 3.40925 13.2683056"></polygon>
                            <polygon id="Path" fill="#C7CAC7" points="17.6186111 5.69761111 17.6186111 5.69761111 18.3848889 4.93169444 14.2992778 0.846083333 13.533 1.61236111 13.5333611 1.61236111"></polygon>
                            <polygon id="Path" fill="#C7CAC7" points="13.0223889 2.12297222 13.0223889 2.12297222 12.5117778 2.63358333 12.5117778 2.63358333 16.5973889 6.71883333 16.5973889 6.71883333 17.108 6.20822222 17.108 6.20822222"></polygon>
                            <path d="M5.20866667,16.0651111 L3.35905556,16.2705833 C3.34605556,16.2720278 3.33269444,16.27275 3.31969444,16.27275 C3.31969444,16.27275 3.31933333,16.27275 3.31933333,16.27275 L3.31933333,16.27275 L3.31933333,16.27275 C3.31897222,16.27275 3.31897222,16.27275 3.31897222,16.27275 C3.30597222,16.27275 3.29261111,16.2720278 3.27961111,16.2705833 C3.26552778,16.2691389 3.25397222,16.2611944 3.24061111,16.2579444 C3.21461111,16.2518056 3.18969444,16.2453056 3.16586111,16.23375 C3.14780556,16.2250833 3.13227778,16.2146111 3.11602778,16.2034167 C3.09544444,16.1889722 3.07666667,16.1734444 3.05933333,16.1550278 C3.04561111,16.1405833 3.03441667,16.1257778 3.02322222,16.1091667 C3.0095,16.0885833 2.99830556,16.0672778 2.98891667,16.0438056 C2.98097222,16.0243056 2.97519444,16.0051667 2.97086111,15.9842222 C2.96833333,15.9726667 2.96219444,15.9629167 2.96075,15.951 C2.95930556,15.9372778 2.96436111,15.9246389 2.96436111,15.9112778 C2.96436111,15.8975556 2.95930556,15.8852778 2.96075,15.8715556 L3.16622222,14.0219444 L1.31661111,14.2274167 C1.30325,14.2288611 1.28952778,14.2295833 1.27652778,14.2295833 C1.248,14.2295833 1.22163889,14.2209167 1.19455556,14.2144167 L0.159611111,18.56075 L0.920111111,17.80025 C1.06130556,17.6590556 1.28952778,17.6590556 1.43072222,17.80025 C1.57191667,17.9414444 1.57191667,18.1696667 1.43072222,18.3108611 L0.670222222,19.0713611 L5.01438889,18.0371389 C5.005,17.9977778 4.99886111,17.9569722 5.00355556,17.9147222 L5.20866667,16.0651111 Z" id="Path" fill="#FBCE9D"></path>
                            <path d="M1.43072222,17.80025 C1.28952778,17.6590556 1.06130556,17.6590556 0.920111111,17.80025 L0.159611111,18.56075 L0,19.2309722 L0.670222222,19.0713611 L1.43072222,18.3108611 C1.57155556,18.1696667 1.57155556,17.9414444 1.43072222,17.80025 Z" id="Path" fill="#38454F"></path>
                            <polygon id="Path" fill="#F2ECBF" points="17.6186111 5.69761111 13.5333611 1.61236111 13.533 1.61236111 13.0223889 2.12297222 13.0223889 2.12297222 17.108 6.20822222 17.108 6.20822222"></polygon>
                            <path d="M14.8098889,5.95291667 L5.45205556,15.3111111 L3.72847222,15.5025 L3.91986111,13.7789167 L13.2780556,4.42108333 L12.7674444,3.91047222 L3.40925,13.2683056 L1.68566667,13.4596944 L1.27652778,13.8688333 L1.19419444,14.2144167 C1.22127778,14.2209167 1.24727778,14.2295833 1.27616667,14.2295833 C1.28916667,14.2295833 1.30288889,14.2288611 1.31625,14.2274167 L3.16586111,14.0219444 L2.96038889,15.8715556 C2.95894444,15.8852778 2.964,15.8979167 2.964,15.9112778 C2.964,15.925 2.95894444,15.9372778 2.96038889,15.951 C2.96183333,15.9629167 2.96797222,15.9726667 2.9705,15.9842222 C2.97483333,16.0048056 2.98097222,16.0246667 2.98855556,16.0438056 C2.99794444,16.0669167 3.00913889,16.0885833 3.02286111,16.1091667 C3.03369444,16.1254167 3.04561111,16.1409444 3.05897222,16.1550278 C3.07594444,16.1730833 3.09508333,16.1889722 3.11566667,16.2034167 C3.13155556,16.2146111 3.14780556,16.2254444 3.1655,16.23375 C3.18897222,16.2449444 3.21425,16.2518056 3.24025,16.2579444 C3.25397222,16.2611944 3.26516667,16.2687778 3.27925,16.2705833 C3.29225,16.2720278 3.30525,16.27275 3.31861111,16.27275 L3.31897222,16.27275 L3.31897222,16.27275 L3.31933333,16.27275 L3.31969444,16.27275 C3.31969444,16.27275 3.32005556,16.27275 3.32005556,16.27275 L3.32005556,16.27275 C3.33269444,16.27275 3.34605556,16.2720278 3.35941667,16.2705833 L5.20902778,16.0651111 L5.00355556,17.9147222 C4.99886111,17.9573333 5.005,17.9977778 5.01438889,18.0371389 L5.36213889,17.9544444 L5.77127778,17.5456667 L5.96266667,15.8220833 L15.3205,6.46388889 L14.8098889,5.95291667 Z" id="Path" fill="#EBBA16"></path>
                            <polygon id="Path" fill="#F2ECBF" points="16.5973889 6.71883333 12.5117778 2.63358333 12.5117778 2.63358333 12.0011667 3.14419444 12.0011667 3.14419444 12.7674444 3.91047222 13.2780556 4.42108333 14.8098889 5.95291667 15.3205 6.46352778 16.0867778 7.22944444 16.0867778 7.22944444"></polygon>
                        </g>
                    </g>
                </g>
            </g>
        </g>
    </g>
</svg>