<?xml version="1.0" encoding="UTF-8"?>
<svg width="500px" height="500px" viewBox="0 0 500 500" version="1.1" xmlns="http://www.w3.org/2000/svg" xmlns:xlink="http://www.w3.org/1999/xlink">
    <title>SubjectGraphics/Maths/Hero</title>
    <defs>
        <linearGradient x1="18.0927151%" y1="-8.06662323%" x2="77.4146846%" y2="86.9270307%" id="linearGradient-1">
            <stop stop-color="#F37E86" offset="10.39%"></stop>
            <stop stop-color="#DF3350" offset="48.39%"></stop>
            <stop stop-color="#790E33" offset="96.97%"></stop>
        </linearGradient>
        <linearGradient x1="29.4811041%" y1="37.1892309%" x2="67.5681731%" y2="60.455978%" id="linearGradient-2">
            <stop stop-color="#811619" offset="5.92%"></stop>
            <stop stop-color="#A31D48" offset="46.65%"></stop>
            <stop stop-color="#E71569" offset="100%"></stop>
        </linearGradient>
        <linearGradient x1="14.0221974%" y1="-18.0642553%" x2="68.4988147%" y2="77.3565898%" id="linearGradient-3">
            <stop stop-color="#811619" offset="5.92%"></stop>
            <stop stop-color="#A31D48" offset="46.65%"></stop>
            <stop stop-color="#E71569" offset="100%"></stop>
        </linearGradient>
        <linearGradient x1="36.2736706%" y1="39.5336402%" x2="72.491017%" y2="65.3062018%" id="linearGradient-4">
            <stop stop-color="#F48C9C" offset="1.12%"></stop>
            <stop stop-color="#F16993" offset="93.23%"></stop>
        </linearGradient>
        <linearGradient x1="52.1061655%" y1="66.9531008%" x2="44.4547052%" y2="5.21356589%" id="linearGradient-5">
            <stop stop-color="#811619" offset="10.39%"></stop>
            <stop stop-color="#CD202C" offset="100%"></stop>
        </linearGradient>
        <linearGradient x1="-0.251322567%" y1="49.6871397%" x2="99.7622499%" y2="49.6871397%" id="linearGradient-6">
            <stop stop-color="#811619" offset="10.39%"></stop>
            <stop stop-color="#CD202C" offset="100%"></stop>
        </linearGradient>
        <linearGradient x1="-0.162400272%" y1="49.8515808%" x2="99.8511722%" y2="49.8515808%" id="linearGradient-7">
            <stop stop-color="#811619" offset="10.39%"></stop>
            <stop stop-color="#CD202C" offset="100%"></stop>
        </linearGradient>
        <linearGradient x1="-0.137333421%" y1="49.9099227%" x2="99.8410885%" y2="49.9099227%" id="linearGradient-8">
            <stop stop-color="#811619" offset="10.39%"></stop>
            <stop stop-color="#CD202C" offset="100%"></stop>
        </linearGradient>
        <linearGradient x1="-0.114434508%" y1="50.387937%" x2="99.7586881%" y2="50.387937%" id="linearGradient-9">
            <stop stop-color="#811619" offset="10.39%"></stop>
            <stop stop-color="#CD202C" offset="100%"></stop>
        </linearGradient>
        <linearGradient x1="-0.205297284%" y1="50.0827434%" x2="99.7172383%" y2="50.0827434%" id="linearGradient-10">
            <stop stop-color="#811619" offset="10.39%"></stop>
            <stop stop-color="#CD202C" offset="100%"></stop>
        </linearGradient>
        <linearGradient x1="-0.0250464482%" y1="50.2359293%" x2="99.7572005%" y2="50.2359293%" id="linearGradient-11">
            <stop stop-color="#811619" offset="10.39%"></stop>
            <stop stop-color="#CD202C" offset="100%"></stop>
        </linearGradient>
        <linearGradient x1="-0.163542495%" y1="50.2505732%" x2="99.864036%" y2="50.2505732%" id="linearGradient-12">
            <stop stop-color="#811619" offset="10.39%"></stop>
            <stop stop-color="#CD202C" offset="100%"></stop>
        </linearGradient>
        <linearGradient x1="0.135661103%" y1="50.0374559%" x2="99.9179081%" y2="50.0374559%" id="linearGradient-13">
            <stop stop-color="#811619" offset="10.39%"></stop>
            <stop stop-color="#CD202C" offset="100%"></stop>
        </linearGradient>
        <linearGradient x1="-0.0657894737%" y1="50.0396825%" x2="99.8026316%" y2="50.0396825%" id="linearGradient-14">
            <stop stop-color="#F48C9C" offset="1.12%"></stop>
            <stop stop-color="#F7B11E" offset="93.23%"></stop>
        </linearGradient>
        <linearGradient x1="0.366840161%" y1="50.0612594%" x2="99.7443966%" y2="50.0612594%" id="linearGradient-15">
            <stop stop-color="#F48C9C" offset="1.12%"></stop>
            <stop stop-color="#F7B11E" offset="93.23%"></stop>
        </linearGradient>
        <linearGradient x1="0.0992952426%" y1="50.1963659%" x2="100.011801%" y2="50.1963659%" id="linearGradient-16">
            <stop stop-color="#F48C9C" offset="1.12%"></stop>
            <stop stop-color="#F7B11E" offset="93.23%"></stop>
        </linearGradient>
        <linearGradient x1="0.0487462892%" y1="50.0070426%" x2="100.06235%" y2="50.0070426%" id="linearGradient-17">
            <stop stop-color="#F48C9C" offset="1.12%"></stop>
            <stop stop-color="#F7B11E" offset="93.23%"></stop>
        </linearGradient>
        <linearGradient x1="48.8387721%" y1="-19.1248972%" x2="50.7560355%" y2="92.6774371%" id="linearGradient-18">
            <stop stop-color="#F37E86" offset="10.39%"></stop>
            <stop stop-color="#DF3350" offset="48.39%"></stop>
            <stop stop-color="#790E33" offset="96.97%"></stop>
        </linearGradient>
        <linearGradient x1="15.7081436%" y1="29.3233598%" x2="84.834355%" y2="75.765741%" id="linearGradient-19">
            <stop stop-color="#971B43" offset="10.39%"></stop>
            <stop stop-color="#D71963" offset="62.29%"></stop>
            <stop stop-color="#F48A9B" offset="100%"></stop>
        </linearGradient>
        <linearGradient x1="40.8023678%" y1="-27.7795179%" x2="54.6861494%" y2="84.3732284%" id="linearGradient-20">
            <stop stop-color="#811619" offset="5.92%"></stop>
            <stop stop-color="#A31D48" offset="46.65%"></stop>
            <stop stop-color="#E71569" offset="100%"></stop>
        </linearGradient>
        <linearGradient x1="52.744444%" y1="26.9386517%" x2="45.543705%" y2="87.6987922%" id="linearGradient-21">
            <stop stop-color="#F48C9C" offset="1.12%"></stop>
            <stop stop-color="#F16993" offset="93.23%"></stop>
        </linearGradient>
        <linearGradient x1="3.13459107%" y1="18.5720341%" x2="97.6426359%" y2="82.08612%" id="linearGradient-22">
            <stop stop-color="#811619" offset="10.39%"></stop>
            <stop stop-color="#CD202C" offset="100%"></stop>
        </linearGradient>
        <linearGradient x1="2.50309872%" y1="18.1173181%" x2="97.8302006%" y2="82.1957831%" id="linearGradient-23">
            <stop stop-color="#811619" offset="10.39%"></stop>
            <stop stop-color="#CD202C" offset="100%"></stop>
        </linearGradient>
        <linearGradient x1="2.84606533%" y1="17.9155523%" x2="96.8970088%" y2="81.8627%" id="linearGradient-24">
            <stop stop-color="#811619" offset="10.39%"></stop>
            <stop stop-color="#CD202C" offset="100%"></stop>
        </linearGradient>
        <linearGradient x1="3.00826805%" y1="18.309839%" x2="97.2996379%" y2="81.4695207%" id="linearGradient-25">
            <stop stop-color="#811619" offset="10.39%"></stop>
            <stop stop-color="#CD202C" offset="100%"></stop>
        </linearGradient>
        <linearGradient x1="66.663011%" y1="84.898866%" x2="33.6889183%" y2="15.1922741%" id="linearGradient-26">
            <stop stop-color="#811619" offset="10.39%"></stop>
            <stop stop-color="#CD202C" offset="100%"></stop>
        </linearGradient>
        <linearGradient x1="31.4960654%" y1="22.3743027%" x2="68.1531277%" y2="77.6601753%" id="linearGradient-27">
            <stop stop-color="#811619" offset="10.39%"></stop>
            <stop stop-color="#CD202C" offset="100%"></stop>
        </linearGradient>
        <linearGradient x1="32.0323218%" y1="22.4987749%" x2="67.9026259%" y2="77.406581%" id="linearGradient-28">
            <stop stop-color="#811619" offset="10.39%"></stop>
            <stop stop-color="#CD202C" offset="100%"></stop>
        </linearGradient>
        <linearGradient x1="-0.0366498774%" y1="50.1886909%" x2="99.7931536%" y2="50.1886909%" id="linearGradient-29">
            <stop stop-color="#F48C9C" offset="1.12%"></stop>
            <stop stop-color="#F7B11E" offset="93.23%"></stop>
        </linearGradient>
        <linearGradient x1="-19.7523682%" y1="49.9243463%" x2="80.2168461%" y2="49.9243463%" id="linearGradient-30">
            <stop stop-color="#F48C9C" offset="1.12%"></stop>
            <stop stop-color="#F7B11E" offset="93.23%"></stop>
        </linearGradient>
        <linearGradient x1="66.6675452%" y1="84.935923%" x2="33.6259976%" y2="15.230107%" id="linearGradient-31">
            <stop stop-color="#811619" offset="10.39%"></stop>
            <stop stop-color="#CD202C" offset="100%"></stop>
        </linearGradient>
        <linearGradient x1="-0.0160056284%" y1="50.0197466%" x2="100.708685%" y2="50.0197466%" id="linearGradient-32">
            <stop stop-color="#F48C9C" offset="1.12%"></stop>
            <stop stop-color="#F7B11E" offset="93.23%"></stop>
        </linearGradient>
        <linearGradient x1="-0.122171872%" y1="50.1121966%" x2="99.9586518%" y2="50.1121966%" id="linearGradient-33">
            <stop stop-color="#F48C9C" offset="1.12%"></stop>
            <stop stop-color="#F7B11E" offset="93.23%"></stop>
        </linearGradient>
        <linearGradient x1="66.4617151%" y1="84.4156283%" x2="33.5193057%" y2="14.8815313%" id="linearGradient-34">
            <stop stop-color="#811619" offset="10.39%"></stop>
            <stop stop-color="#CD202C" offset="100%"></stop>
        </linearGradient>
        <linearGradient x1="-0.0418345203%" y1="49.7980461%" x2="99.6331057%" y2="49.7980461%" id="linearGradient-35">
            <stop stop-color="#F48C9C" offset="1.12%"></stop>
            <stop stop-color="#F7B11E" offset="93.23%"></stop>
        </linearGradient>
        <linearGradient x1="66.6047802%" y1="84.9939382%" x2="33.426342%" y2="15.3277099%" id="linearGradient-36">
            <stop stop-color="#811619" offset="10.39%"></stop>
            <stop stop-color="#CD202C" offset="100%"></stop>
        </linearGradient>
        <linearGradient x1="66.6554348%" y1="84.8857211%" x2="33.47678%" y2="15.2190379%" id="linearGradient-37">
            <stop stop-color="#811619" offset="10.39%"></stop>
            <stop stop-color="#CD202C" offset="100%"></stop>
        </linearGradient>
        <linearGradient x1="66.3407488%" y1="84.8900447%" x2="33.1620939%" y2="15.2233616%" id="linearGradient-38">
            <stop stop-color="#811619" offset="10.39%"></stop>
            <stop stop-color="#CD202C" offset="100%"></stop>
        </linearGradient>
        <linearGradient x1="0.305347185%" y1="50.0526285%" x2="100.527993%" y2="50.0526285%" id="linearGradient-39">
            <stop stop-color="#F48C9C" offset="1.12%"></stop>
            <stop stop-color="#F7B11E" offset="93.23%"></stop>
        </linearGradient>
        <linearGradient x1="0.0618472247%" y1="50%" x2="99.6225989%" y2="50%" id="linearGradient-40">
            <stop stop-color="#F48C9C" offset="1.12%"></stop>
            <stop stop-color="#F7B11E" offset="93.23%"></stop>
        </linearGradient>
        <linearGradient x1="0.13514226%" y1="49.9731329%" x2="99.9164711%" y2="49.9731329%" id="linearGradient-41">
            <stop stop-color="#F48C9C" offset="1.12%"></stop>
            <stop stop-color="#F7B11E" offset="93.23%"></stop>
        </linearGradient>
        <linearGradient x1="-122.403571%" y1="50.2380952%" x2="189.653571%" y2="50.2380952%" id="linearGradient-42">
            <stop stop-color="#F48C9C" offset="1.12%"></stop>
            <stop stop-color="#F16993" offset="93.23%"></stop>
        </linearGradient>
        <linearGradient x1="-3465.07436%" y1="49.7560976%" x2="-3460.39359%" y2="49.7560976%" id="linearGradient-43">
            <stop stop-color="#F48C9C" offset="0%"></stop>
            <stop stop-color="#F16993" offset="93.23%"></stop>
        </linearGradient>
    </defs>
    <g id="Symbols" stroke="none" stroke-width="1" fill="none" fill-rule="evenodd">
        <g id="SubjectGraphics/Maths/Hero" fill-rule="nonzero">
            <g id="Group-3" transform="translate(0.000000, -61.000000)">
                <g id="Group-2" transform="translate(49.733986, 97.263137)">
                    <ellipse id="Oval" fill="#8C1D58" transform="translate(256.000710, 394.964806) rotate(-12.000000) translate(-256.000710, -394.964806) " cx="256.00071" cy="394.964806" rx="130" ry="12"></ellipse>
                    <path d="M168.512194,196.242954 L171.412194,295.942954 C171.612194,302.442954 175.112194,308.342954 180.712194,311.642954 L273.912194,366.542954 C280.312194,370.342954 288.312194,369.942954 294.312194,365.742954 L372.412194,310.842954 C377.412194,307.342954 380.412194,301.542954 380.412194,295.442954 L380.412194,194.742954 C380.412194,186.442954 374.912194,179.042954 366.912194,176.742954 L271.912194,148.442954 C268.012194,147.242954 263.812194,147.442954 260.012194,148.842954 L180.812194,177.942954 C173.212194,180.842954 168.312194,188.142954 168.512194,196.242954 Z" id="Path" fill="url(#linearGradient-1)" transform="translate(274.459244, 258.407410) rotate(-12.000000) translate(-274.459244, -258.407410) "></path>
                    <path d="M287.870746,215.180649 L373.170746,175.080649 C374.670746,174.380649 376.470746,175.480649 376.470746,177.180649 L377.370746,286.580649 C377.370746,287.380649 376.970746,288.080649 376.370746,288.480649 L291.870746,348.480649 C290.370746,349.580649 288.270746,348.480649 288.170746,346.680649 L284.470746,220.780649 C284.370746,218.380649 285.770746,216.180649 287.870746,215.180649 Z" id="Path" fill="url(#linearGradient-2)" transform="translate(330.918231, 261.893447) rotate(-12.000000) translate(-330.918231, -261.893447) "></path>
                    <path d="M183.797833,200.481538 C203.297833,208.081538 262.597833,232.481538 276.097833,237.981538 C277.797833,238.681538 278.797833,240.281538 278.897833,242.081538 L280.097833,364.881538 C280.097833,368.381538 276.397833,370.481538 273.397833,368.781538 L181.897833,314.981538 C180.597833,314.181538 179.697833,312.781538 179.697833,311.181538 C179.397833,296.981538 178.197833,226.581538 177.797833,204.681538 C177.697833,201.481538 180.897833,199.281538 183.797833,200.481538 Z" id="Path" fill="url(#linearGradient-3)" transform="translate(228.946691, 284.765706) rotate(-12.000000) translate(-228.946691, -284.765706) "></path>
                    <path d="M161.476047,184.432905 L256.276047,222.532905 C258.876047,223.632905 261.876047,223.532905 264.476047,222.432905 L355.176047,182.132905 L251.176047,150.332905 L161.476047,184.432905 Z" id="Path" fill="url(#linearGradient-4)" transform="translate(258.326047, 186.821256) rotate(-12.000000) translate(-258.326047, -186.821256) "></path>
                    <ellipse id="Oval" fill="url(#linearGradient-5)" transform="translate(337.351387, 252.947633) rotate(-12.000000) translate(-337.351387, -252.947633) " cx="337.351387" cy="252.947633" rx="8.1" ry="12.9"></ellipse>
                    <path d="M258.611612,178.739375 C264.711612,180.539375 269.011612,184.339375 268.211612,187.439375 C267.411612,190.539375 261.611612,191.539375 255.511612,189.739375 C249.411612,187.939375 245.111612,184.139375 245.911612,181.039375 C246.711612,177.939375 252.411612,176.939375 258.611612,178.739375 Z" id="Path" fill="url(#linearGradient-6)" transform="translate(257.061612, 184.239375) rotate(-12.000000) translate(-257.061612, -184.239375) "></path>
                    <path d="M214.640395,188.801138 C220.740395,190.601138 225.040395,194.401138 224.240395,197.501138 C223.340395,200.501138 217.640395,201.601138 211.540395,199.801138 C205.440395,198.001138 201.140395,194.201138 201.940395,191.101138 C202.740395,188.001138 208.440395,187.001138 214.640395,188.801138 Z" id="Path" fill="url(#linearGradient-7)" transform="translate(213.090395, 194.290080) rotate(-12.000000) translate(-213.090395, -194.290080) "></path>
                    <path d="M254.789136,158.809603 C261.289136,160.709603 265.789136,164.609603 264.889136,167.709603 C263.989136,170.809603 258.089136,171.709603 251.589136,169.909603 C245.089136,168.009603 240.589136,164.109603 241.489136,161.009603 C242.289136,157.909603 248.289136,156.909603 254.789136,158.809603 Z" id="Path" fill="url(#linearGradient-8)" transform="translate(253.189136, 164.337398) rotate(-12.000000) translate(-253.189136, -164.337398) "></path>
                    <path d="M297.602912,169.195014 C303.702912,170.995014 308.102912,174.695014 307.302912,177.495014 C306.502912,180.295014 300.802912,181.195014 294.702912,179.395014 C288.602912,177.595014 284.202912,173.895014 285.002912,171.095014 C285.802912,168.295014 291.402912,167.495014 297.602912,169.195014 Z" id="Path" fill="url(#linearGradient-9)" transform="translate(296.152912, 174.317184) rotate(-12.000000) translate(-296.152912, -174.317184) "></path>
                    <path d="M263.363261,199.329447 C269.463261,201.129447 273.763261,205.129447 272.863261,208.329447 C271.963261,211.529447 266.263261,212.729447 260.063261,210.929447 C253.963261,209.129447 249.663261,205.129447 250.563261,201.929447 C251.463261,198.829447 257.163261,197.629447 263.363261,199.329447 Z" id="Path" fill="url(#linearGradient-10)" transform="translate(261.713261, 205.161713) rotate(-12.000000) translate(-261.713261, -205.161713) "></path>
                    <ellipse id="Oval" fill="#F8E1C0" transform="translate(257.177916, 184.636911) rotate(-86.008170) translate(-257.177916, -184.636911) " cx="257.177916" cy="184.636911" rx="5.39999444" ry="11.3999883"></ellipse>
                    <ellipse id="Oval" fill="#F8E1C0" transform="translate(213.278629, 194.744461) rotate(-86.008170) translate(-213.278629, -194.744461) " cx="213.278629" cy="194.744461" rx="5.29999454" ry="11.3999883"></ellipse>
                    <ellipse id="Oval" fill="#F8E1C0" transform="translate(253.265630, 164.719304) rotate(-86.008170) translate(-253.265630, -164.719304) " cx="253.26563" cy="164.719304" rx="5.39999444" ry="11.9999876"></ellipse>
                    <ellipse id="Oval" fill="#F8E1C0" transform="translate(296.138217, 174.723109) rotate(-86.008170) translate(-296.138217, -174.723109) " cx="296.138217" cy="174.723109" rx="4.99999485" ry="11.5999881"></ellipse>
                    <ellipse id="Oval" fill="#F8E1C0" transform="translate(261.683800, 205.592536) rotate(-86.008170) translate(-261.683800, -205.592536) " cx="261.6838" cy="205.592536" rx="5.59999423" ry="11.5999881"></ellipse>
                    <path d="M208.697753,307.056029 C211.997753,313.356029 211.397753,320.156029 207.397753,322.156029 C203.397753,324.156029 197.497753,320.756029 194.297753,314.456029 C190.997753,308.156029 191.597753,301.356029 195.597753,299.356029 C199.597753,297.256029 205.397753,300.756029 208.697753,307.056029 Z" id="Path" fill="url(#linearGradient-11)" transform="translate(201.497753, 310.737046) rotate(-12.000000) translate(-201.497753, -310.737046) "></path>
                    <path d="M233.664878,280.684891 C236.964878,286.984891 236.364878,293.784891 232.364878,295.784891 C228.364878,297.784891 222.464878,294.384891 219.264878,288.084891 C216.064878,281.784891 216.564878,274.984891 220.564878,272.984891 C224.564878,270.984891 230.364878,274.384891 233.664878,280.684891 Z" id="Path" fill="url(#linearGradient-12)" transform="translate(226.485671, 284.384891) rotate(-12.000000) translate(-226.485671, -284.384891) "></path>
                    <path d="M258.645809,254.421043 C261.945809,260.721043 261.345809,267.521043 257.345809,269.521043 C253.345809,271.521043 247.445809,268.121043 244.245809,261.821043 C240.945809,255.521043 241.545809,248.721043 245.545809,246.721043 C249.545809,244.621043 255.445809,248.121043 258.645809,254.421043 Z" id="Path" fill="url(#linearGradient-13)" transform="translate(251.445809, 258.102060) rotate(-12.000000) translate(-251.445809, -258.102060) "></path>
                    <ellipse id="Oval" fill="url(#linearGradient-14)" transform="translate(336.820731, 252.855959) rotate(-12.000000) translate(-336.820731, -252.855959) " cx="336.820731" cy="252.855959" rx="7.6" ry="12.6"></ellipse>
                    <path d="M208.651377,306.97682 C211.951377,313.27682 211.551377,319.97682 207.751377,321.87682 C203.951377,323.77682 198.351377,320.27682 195.051377,313.97682 C191.751377,307.67682 192.151377,300.97682 195.951377,299.07682 C199.751377,297.17682 205.351377,300.67682 208.651377,306.97682 Z" id="Path" fill="url(#linearGradient-15)" transform="translate(201.851377, 310.476820) rotate(-12.000000) translate(-201.851377, -310.476820) "></path>
                    <path d="M233.615009,280.61042 C236.915009,286.91042 236.415009,293.61042 232.715009,295.51042 C228.915009,297.41042 223.315009,293.91042 220.015009,287.61042 C216.715009,281.31042 217.215009,274.61042 220.915009,272.71042 C224.715009,270.81042 230.315009,274.31042 233.615009,280.61042 Z" id="Path" fill="url(#linearGradient-16)" transform="translate(226.815009, 284.110420) rotate(-12.000000) translate(-226.815009, -284.110420) "></path>
                    <path d="M258.59559,254.342238 C261.89559,260.642238 261.39559,267.342238 257.69559,269.242238 C253.99559,271.142238 248.29559,267.642238 244.99559,261.342238 C241.69559,255.042238 242.19559,248.342238 245.89559,246.442238 C249.69559,244.442238 255.39559,248.042238 258.59559,254.342238 Z" id="Path" fill="url(#linearGradient-17)" transform="translate(251.795590, 257.823757) rotate(-12.000000) translate(-251.795590, -257.823757) "></path>
                    <path d="M71.5450284,31.0136213 L22.5450284,113.913621 C19.3450284,119.313621 19.1450284,125.913621 22.0450284,131.513621 L69.8450284,224.213621 C73.1450284,230.513621 79.7450284,234.413621 86.9450284,234.013621 L178.845028,229.313621 C184.745028,229.013621 190.145028,225.813621 193.245028,220.813621 L245.045028,138.713621 C249.345028,131.913621 248.645028,123.113621 243.345028,117.113621 L180.445028,45.2136213 C177.845028,42.2136213 174.345028,40.2136213 170.545028,39.4136213 L90.9450284,22.5136213 C83.3450284,20.9136213 75.5450284,24.3136213 71.5450284,31.0136213 Z" id="Path" fill="url(#linearGradient-18)" transform="translate(133.925591, 128.082040) rotate(-12.000000) translate(-133.925591, -128.082040) "></path>
                    <path d="M161.56454,109.413466 L246.36454,119.813466 C249.76454,120.213466 251.66454,124.113466 249.76454,127.013466 L196.96454,212.413466 C196.16454,213.713466 194.76454,214.513466 193.16454,214.613466 L99.2645395,219.713466 C95.4645395,219.913466 92.9645395,215.813466 94.9645395,212.613466 L153.46454,113.413466 C155.16454,110.513466 158.36454,109.013466 161.56454,109.413466 Z" id="Path" fill="url(#linearGradient-19)" transform="translate(172.387796, 164.535111) rotate(-12.000000) translate(-172.387796, -164.535111) "></path>
                    <path d="M83.6146307,42.9550584 C95.5146307,59.1550584 131.514631,109.555058 139.614631,120.955058 C140.614631,122.355058 140.714631,124.255058 139.814631,125.655058 L77.6146307,226.555058 C75.8146307,229.355058 71.7146307,229.255058 70.1146307,226.255058 L23.1146307,135.355058 C22.4146307,134.055058 22.5146307,132.455058 23.2146307,131.155058 C30.3146307,119.455058 65.5146307,61.3550584 76.5146307,43.2550584 C78.1146307,40.6550584 81.8146307,40.4550584 83.6146307,42.9550584 Z" id="Path" fill="url(#linearGradient-20)" transform="translate(81.534263, 134.885306) rotate(-12.000000) translate(-81.534263, -134.885306) "></path>
                    <path d="M79.1884719,27.479019 L129.788472,97.479019 C132.088472,100.579019 135.488472,102.779019 139.388472,103.279019 L221.588472,115.279019 C225.288472,115.779019 227.688472,111.479019 225.288472,108.579019 L164.688472,38.279019 C164.088472,37.579019 163.288472,37.079019 162.388472,36.979019 L83.2884719,21.079019 C79.6884719,20.379019 76.9884719,24.479019 79.1884719,27.479019 Z" id="Path" fill="url(#linearGradient-21)" transform="translate(152.323551, 68.159502) rotate(-12.000000) translate(-152.323551, -68.159502) "></path>
                    <path d="M114.788463,50.1338773 C118.888463,54.7338773 120.388463,60.1338773 118.088463,62.1338773 C115.788463,64.1338773 110.688463,62.0338773 106.488463,57.4338773 C102.288463,52.8338773 100.888463,47.4338773 103.188463,45.4338773 C105.488463,43.4338773 110.688463,45.5338773 114.788463,50.1338773 Z" id="Path" fill="url(#linearGradient-22)" transform="translate(110.627963, 53.783877) rotate(-12.000000) translate(-110.627963, -53.783877) "></path>
                    <path d="M162.952994,46.3369296 C167.252994,51.1369296 168.952994,56.7369296 166.652994,58.7369296 C164.352994,60.7369296 159.052994,58.5369296 154.652994,53.6369296 C150.252994,48.7369296 148.652994,43.2369296 150.952994,41.2369296 C153.252994,39.2369296 158.652994,41.5369296 162.952994,46.3369296 Z" id="Path" fill="url(#linearGradient-23)" transform="translate(158.793249, 49.993828) rotate(-12.000000) translate(-158.793249, -49.993828) "></path>
                    <path d="M192.612771,76.8685842 C196.712771,81.4685842 198.312771,86.7685842 196.212771,88.6685842 C194.112771,90.5685842 189.012771,88.3685842 184.912771,83.7685842 C180.812771,79.1685842 179.212771,73.8685842 181.312771,71.9685842 C183.412771,70.0685842 188.412771,72.2685842 192.612771,76.8685842 Z" id="Path" fill="url(#linearGradient-24)" transform="translate(188.762771, 80.318584) rotate(-12.000000) translate(-188.762771, -80.318584) "></path>
                    <path d="M149.096556,83.8825237 C153.196556,88.4825237 154.596556,93.9825237 152.196556,96.0825237 C149.796556,98.1825237 144.496556,96.1825237 140.396556,91.6825237 C136.296556,87.0825237 134.896556,81.5825237 137.296556,79.4825237 C139.696556,77.2825237 144.996556,79.2825237 149.096556,83.8825237 Z" id="Path" fill="url(#linearGradient-25)" transform="translate(144.746556, 87.752724) rotate(-12.000000) translate(-144.746556, -87.752724) "></path>
                    <ellipse id="Oval" fill="#F8E1C0" transform="translate(110.634142, 54.355197) rotate(-53.785334) translate(-110.634142, -54.355197) " cx="110.634142" cy="54.3551974" rx="5.09968137" ry="10.899319"></ellipse>
                    <ellipse id="Oval" fill="#F8E1C0" transform="translate(158.687739, 50.372450) rotate(-53.785334) translate(-158.687739, -50.372450) " cx="158.687739" cy="50.3724503" rx="5.19967512" ry="11.5992753"></ellipse>
                    <ellipse id="Oval" fill="#F8E1C0" transform="translate(188.504022, 80.526484) rotate(-53.785334) translate(-188.504022, -80.526484) " cx="188.504022" cy="80.5264843" rx="4.79970011" ry="11.1993003"></ellipse>
                    <ellipse id="Oval" fill="#F8E1C0" transform="translate(144.514112, 88.018009) rotate(-53.785334) translate(-144.514112, -88.018009) " cx="144.514112" cy="88.0180086" rx="5.39966262" ry="11.1993003"></ellipse>
                    <path d="M161.490773,132.923034 C165.290773,127.223034 171.190773,124.523034 174.790773,126.823034 C178.390773,129.223034 178.290773,135.723034 174.490773,141.523034 C170.690773,147.223034 164.790773,149.923034 161.190773,147.623034 C157.690773,145.223034 157.790773,138.723034 161.490773,132.923034 Z" id="Path" fill="url(#linearGradient-26)" transform="translate(168.028244, 137.223034) rotate(-12.000000) translate(-168.028244, -137.223034) "></path>
                    <path d="M64.377576,145.228802 C62.077576,151.628802 56.877576,155.728802 52.777576,154.228802 C48.677576,152.728802 47.277576,146.328802 49.577576,139.928802 C51.877576,133.528802 57.077576,129.428802 61.177576,130.928802 C65.277576,132.428802 66.677576,138.828802 64.377576,145.228802 Z" id="Path" fill="url(#linearGradient-27)" transform="translate(56.977576, 142.578802) rotate(-12.000000) translate(-56.977576, -142.578802) "></path>
                    <path d="M107.450409,125.077815 C104.850409,132.177815 99.1504093,136.677815 94.6504093,135.077815 C90.1504093,133.477815 88.6504093,126.377815 91.1504093,119.177815 C93.6504093,111.977815 99.4504093,107.577815 103.950409,109.177815 C108.450409,110.877815 110.050409,117.977815 107.450409,125.077815 Z" id="Path" fill="url(#linearGradient-28)" transform="translate(99.322623, 122.125370) rotate(-12.000000) translate(-99.322623, -122.125370) "></path>
                    <path d="M64.3907188,145.153848 C62.0907188,151.553848 56.9907188,155.653848 53.0907188,154.253848 C49.1907188,152.853848 47.9907188,146.453848 50.2907188,140.053848 C52.5907188,133.653848 57.6907188,129.553848 61.5907188,130.953848 C65.4907188,132.353848 66.6907188,138.753848 64.3907188,145.153848 Z" id="Path" fill="url(#linearGradient-29)" transform="translate(57.340719, 142.603848) rotate(-12.000000) translate(-57.340719, -142.603848) "></path>
                    <path d="M107.473363,124.991319 C104.873363,132.091319 99.3733634,136.691319 95.0733634,135.091319 C90.7733634,133.491319 89.4733634,126.491319 91.9733634,119.391319 C94.4733634,112.291319 100.073363,107.691319 104.373363,109.291319 C108.673363,110.891319 110.073363,117.891319 107.473363,124.991319 Z" id="Path" fill="url(#linearGradient-30)" transform="translate(99.745577, 122.191319) rotate(-12.000000) translate(-99.745577, -122.191319) "></path>
                    <path d="M150.921425,164.003728 C154.721425,158.303728 160.621425,155.603728 164.221425,157.903728 C167.821425,160.303728 167.721425,166.803728 163.921425,172.603728 C160.121425,178.303728 154.221425,181.003728 150.621425,178.703728 C147.021425,176.303728 147.221425,169.703728 150.921425,164.003728 Z" id="Path" fill="url(#linearGradient-31)" transform="translate(157.439584, 168.303728) rotate(-12.000000) translate(-157.439584, -168.303728) "></path>
                    <path d="M161.447695,133.013175 C165.247695,127.313175 171.047695,124.413175 174.347695,126.713175 C177.647695,129.013175 177.447695,135.413175 173.747695,141.113175 C170.047695,146.813175 164.147695,149.713175 160.847695,147.413175 C157.447695,145.213175 157.747695,138.813175 161.447695,133.013175 Z" id="Path" fill="url(#linearGradient-32)" transform="translate(167.577887, 137.063175) rotate(-12.000000) translate(-167.577887, -137.063175) "></path>
                    <path d="M150.876399,164.07534 C154.676399,158.37534 160.476399,155.47534 163.876399,157.77534 C167.276399,159.97534 166.976399,166.47534 163.276399,172.17534 C159.476399,177.87534 153.676399,180.77534 150.276399,178.47534 C146.876399,176.27534 147.176399,169.77534 150.876399,164.07534 Z" id="Path" fill="url(#linearGradient-33)" transform="translate(157.076399, 168.125340) rotate(-12.000000) translate(-157.076399, -168.125340) "></path>
                    <path d="M138.805058,196.435965 C142.605058,190.735965 148.505058,188.035965 152.105058,190.335965 C155.705058,192.735965 155.605058,199.235965 151.805058,205.035965 C148.005058,210.835965 142.105058,213.535965 138.505058,211.135965 C134.905058,208.635965 135.005058,202.135965 138.805058,196.435965 Z" id="Path" fill="url(#linearGradient-34)" transform="translate(145.305058, 200.763673) rotate(-12.000000) translate(-145.305058, -200.763673) "></path>
                    <path d="M138.754692,196.512173 C142.554692,190.812173 148.354692,187.912173 151.754692,190.212173 C155.154692,192.412173 154.854692,198.912173 151.154692,204.612173 C147.354692,210.312173 141.554692,213.212173 138.154692,210.912173 C134.654692,208.612173 134.954692,202.212173 138.754692,196.512173 Z" id="Path" fill="url(#linearGradient-35)" transform="translate(144.917338, 200.562173) rotate(-12.000000) translate(-144.917338, -200.562173) "></path>
                    <path d="M204.844121,130.333485 C208.044121,125.433485 213.144121,123.133485 216.244121,125.133485 C219.344121,127.133485 219.244121,132.733485 216.044121,137.633485 C212.844121,142.533485 207.744121,144.833485 204.644121,142.833485 C201.544121,140.833485 201.644121,135.233485 204.844121,130.333485 Z" id="Path" fill="url(#linearGradient-36)" transform="translate(210.444121, 133.983485) rotate(-12.000000) translate(-210.444121, -133.983485) "></path>
                    <path d="M195.023796,160.12629 C198.223796,155.22629 203.323796,152.92629 206.423796,154.92629 C209.523796,156.92629 209.423796,162.52629 206.223796,167.42629 C203.023796,172.32629 197.923796,174.62629 194.823796,172.62629 C191.723796,170.62629 191.823796,165.02629 195.023796,160.12629 Z" id="Path" fill="url(#linearGradient-37)" transform="translate(200.623796, 163.776290) rotate(-12.000000) translate(-200.623796, -163.776290) "></path>
                    <path d="M187.422505,186.891573 C190.622505,181.991573 195.722505,179.691573 198.822505,181.691573 C201.922505,183.691573 201.822505,189.291573 198.622505,194.191573 C195.422505,199.091573 190.322505,201.391573 187.222505,199.391573 C184.122505,197.391573 184.222505,191.791573 187.422505,186.891573 Z" id="Path" fill="url(#linearGradient-38)" transform="translate(193.022505, 190.541573) rotate(-12.000000) translate(-193.022505, -190.541573) "></path>
                    <path d="M204.81128,130.42102 C208.01128,125.52102 212.91128,123.12102 215.81128,125.02102 C218.71128,126.92102 218.41128,132.42102 215.21128,137.32102 C212.01128,142.22102 207.11128,144.62102 204.21128,142.72102 C201.31128,140.82102 201.61128,135.32102 204.81128,130.42102 Z" id="Path" fill="url(#linearGradient-39)" transform="translate(210.011280, 133.871020) rotate(-12.000000) translate(-210.011280, -133.871020) "></path>
                    <path d="M194.988336,160.188913 C198.188336,155.288913 203.088336,152.888913 206.088336,154.788913 C209.088336,156.688913 208.788336,162.188913 205.588336,167.088913 C202.388336,171.988913 197.488336,174.388913 194.488336,172.488913 C191.588336,170.588913 191.788336,165.088913 194.988336,160.188913 Z" id="Path" fill="url(#linearGradient-40)" transform="translate(200.308154, 163.638913) rotate(-12.000000) translate(-200.308154, -163.638913) "></path>
                    <path d="M187.628715,186.850656 C191.128715,182.150656 196.228715,180.050656 199.028715,182.050656 C201.828715,184.050656 201.328715,189.650656 197.828715,194.350656 C194.328715,199.050656 189.228715,201.150656 186.428715,199.150656 C183.628715,197.050656 184.228715,191.550656 187.628715,186.850656 Z" id="Path" fill="url(#linearGradient-41)" transform="translate(192.744539, 190.600656) rotate(-12.000000) translate(-192.744539, -190.600656) "></path>
                    <circle id="Oval" fill="url(#linearGradient-42)" transform="translate(142.208307, 110.200800) rotate(-12.000000) translate(-142.208307, -110.200800) " cx="142.208307" cy="110.2008" r="4.2"></circle>
                    <ellipse id="Oval" fill="url(#linearGradient-43)" transform="translate(271.840217, 226.592242) rotate(-12.000000) translate(-271.840217, -226.592242) " cx="271.840217" cy="226.592242" rx="3.9" ry="4.1"></ellipse>
                </g>
            </g>
        </g>
    </g>
</svg>