<?xml version="1.0" encoding="UTF-8"?>
<svg width="40px" height="40px" viewBox="0 0 40 40" version="1.1" xmlns="http://www.w3.org/2000/svg" xmlns:xlink="http://www.w3.org/1999/xlink">
    <title></title>
    <g id="Lesson-Completion-&amp;-Notes---Jira" stroke="none" stroke-width="1" fill="none" fill-rule="evenodd">
        <g id="AFS-2194" transform="translate(-795.000000, -505.000000)" fill="#1268B3">
            <g id="Group-3" transform="translate(437.000000, 330.000000)">
                <g id="Zoom-in" transform="translate(358.000000, 175.000000)">
                    <circle id="Oval" style="fill: #fff" fill-opacity="0.6" cx="20" cy="20" r="16"></circle>
                    <g transform="translate(10.000000, 10.000000)" id="icon/widescreen">
                        <path d="M1.11111111,12.5925926 C1.72476083,12.5925926 2.22222222,13.090054 2.22222222,13.7037037 L2.22222222,17.4074074 L5.92592593,17.4074074 C6.53957565,17.4074074 7.03703704,17.9048688 7.03703704,18.5185185 C7.03703704,19.1321682 6.53957565,19.6296296 5.92592593,19.6296296 L1.11111111,19.6296296 C0.497461389,19.6296296 0,19.1321682 0,18.5185185 L0,13.7037037 C0,13.090054 0.497461389,12.5925926 1.11111111,12.5925926 Z M18.5185185,12.5925926 C19.1321682,12.5925926 19.6296296,13.090054 19.6296296,13.7037037 L19.6296296,13.7037037 L19.6296296,18.5185185 C19.6296296,19.1321682 19.1321682,19.6296296 18.5185185,19.6296296 L18.5185185,19.6296296 L13.7037037,19.6296296 C13.090054,19.6296296 12.5925926,19.1321682 12.5925926,18.5185185 C12.5925926,17.9048688 13.090054,17.4074074 13.7037037,17.4074074 L13.7037037,17.4074074 L17.4074074,17.4074074 L17.4074074,13.7037037 C17.4074074,13.090054 17.9048688,12.5925926 18.5185185,12.5925926 Z M5.92592593,0 C6.53957565,0 7.03703704,0.497461389 7.03703704,1.11111111 C7.03703704,1.72476083 6.53957565,2.22222222 5.92592593,2.22222222 L5.92592593,2.22222222 L2.22222222,2.22222222 L2.22222222,5.92592593 C2.22222222,6.53957565 1.72476083,7.03703704 1.11111111,7.03703704 C0.497461389,7.03703704 0,6.53957565 0,5.92592593 L0,5.92592593 L0,1.11111111 C0,0.497461389 0.497461389,0 1.11111111,0 L1.11111111,0 Z M18.5185185,0 C19.1321682,0 19.6296296,0.497461389 19.6296296,1.11111111 L19.6296296,5.92592593 C19.6296296,6.53957565 19.1321682,7.03703704 18.5185185,7.03703704 C17.9048688,7.03703704 17.4074074,6.53957565 17.4074074,5.92592593 L17.4074074,2.22222222 L13.7037037,2.22222222 C13.090054,2.22222222 12.5925926,1.72476083 12.5925926,1.11111111 C12.5925926,0.497461389 13.090054,0 13.7037037,0 L18.5185185,0 Z"></path>
                    </g>
                </g>
            </g>
        </g>
    </g>
</svg>