<?xml version="1.0" encoding="UTF-8"?>
<svg width="24px" height="24px" viewBox="0 0 24 24" version="1.1" xmlns="http://www.w3.org/2000/svg" xmlns:xlink="http://www.w3.org/1999/xlink">
    <title>CorrectAnswer</title>
    <g id="Symbols" stroke="none" stroke-width="1" fill="none" fill-rule="evenodd">
        <g id="Elements/Graphics/Style3/CorrectAnswer" fill-rule="nonzero">
            <g id="CorrectAnswer">
                <g id="Smiley-Right">
                    <circle id="Oval" stroke="#202020" stroke-width="1.3" fill="#07D600" transform="translate(12.000000, 12.000000) scale(1, -1) translate(-12.000000, -12.000000) " cx="12" cy="12" r="11.35"></circle>
                    <circle id="Oval" fill="#202020" transform="translate(8.200000, 9.200000) scale(1, -1) translate(-8.200000, -9.200000) " cx="8.2" cy="9.2" r="1.2"></circle>
                    <circle id="Oval" fill="#202020" transform="translate(16.200000, 9.200000) scale(1, -1) translate(-16.200000, -9.200000) " cx="16.2" cy="9.2" r="1.2"></circle>
                    <g id="Group" transform="translate(12.000000, 17.062500) scale(1, -1) translate(-12.000000, -17.062500) translate(6.000000, 15.062500)" fill="#202020">
                        <path d="M11,3.5985 C10.808,3.5985 10.616,3.5255 10.47,3.3785 C9.276,2.1845 7.688,1.5265 6,1.5265 C4.312,1.5265 2.724,2.1845 1.53,3.3785 C1.237,3.6715 0.762,3.6715 0.469,3.3785 C0.176,3.0855 0.176,2.6105 0.469,2.3175 C1.947,0.8405 3.911,0.0265 6,0.0265 C8.089,0.0265 10.053,0.8395 11.53,2.3175 C11.823,2.6105 11.823,3.0855 11.53,3.3785 C11.384,3.5245 11.192,3.5985 11,3.5985 Z" id="Path"></path>
                    </g>
                </g>
            </g>
        </g>
    </g>
</svg>