<?xml version="1.0" encoding="UTF-8"?>
<svg width="40px" height="70px" viewBox="0 0 40 70" version="1.1" xmlns="http://www.w3.org/2000/svg" xmlns:xlink="http://www.w3.org/1999/xlink">
    <title></title>
    <g id="Continue-&amp;-Skip-Flow" stroke="none" stroke-width="1" fill="none" fill-rule="evenodd">
        <g id="A-2" transform="translate(-1012.000000, -385.000000)" fill-rule="nonzero">
            <g id="Back" transform="translate(1012.000000, 385.000000)">
                <path d="M5,70 C24.3299662,70 40,54.3299662 40,35 C40,15.6700338 24.3299662,0 5,0 L5,70 Z" id="Oval" fill="#F0F7FC" transform="translate(22.500000, 35.000000) scale(-1, 1) translate(-22.500000, -35.000000) "></path>
                <g id="Next" transform="translate(27.863636, 35.000000) scale(-1, 1) translate(-27.863636, -35.000000) translate(21.363636, 23.000000)" fill="#1268B3" fill-opacity="0.7">
                    <path d="M12.1027862,11.1286525 L1.51425336,0.266308983 C1.16733243,-0.0893742261 0.605659452,-0.0887762846 0.259319783,0.268148803 C-0.0867516139,0.625027896 -0.0858573725,1.20314535 0.261108266,1.55910453 L10.2193798,11.7749353 L0.260750569,21.99072 C-0.086170357,22.3467252 -0.0870645983,22.9244747 0.258962086,23.2813998 C0.432579042,23.4603223 0.660029325,23.5497835 0.887479609,23.5497835 C1.11434864,23.5497835 1.34090468,23.4609202 1.51420865,23.2832396 L12.1027862,12.4211721 C12.2698752,12.2501608 12.3636364,12.0174236 12.3636364,11.7749353 C12.3636364,11.532447 12.2696069,11.2999857 12.1027862,11.1286525 Z" id="Path" transform="translate(6.181818, 11.774892) scale(-1, 1) translate(-6.181818, -11.774892) "></path>
                </g>
            </g>
        </g>
    </g>
</svg>