<svg width="59" height="71" viewBox="0 0 59 71" fill="none" xmlns="http://www.w3.org/2000/svg">
<path d="M0 29.5C0 13.2076 13.2076 0 29.5 0C45.7924 0 59 13.2076 59 29.5V31.5C59 47.7924 45.7924 61 29.5 61C13.2076 61 0 47.7924 0 31.5V29.5Z" fill="#2D2D2D" fill-opacity="0.09"/>
<path d="M14 66L18 70C29.5 60.5 38 69.5 43.5 70C51.5 70.7273 55.5 68 58 66C57 64 55.4524 60.2871 55 60.5C46.5 64.5 41 61.5 35.5 60.5C34.7576 60.365 32 61.5 29 60.5C27.5 61.5 23.5 60.2228 22.5 60.2228C19.6394 61.1195 16.6715 62.857 14 66Z" fill="#2D2D2D" fill-opacity="0.09"/>
</svg>
