<svg width="24" height="24" viewBox="0 0 24 24" fill="none" xmlns="http://www.w3.org/2000/svg">
<circle cx="12" cy="12" r="12" fill="#F0F7FC"/>
<path fill-rule="evenodd" clip-rule="evenodd" d="M11.3431 12.0503L7.1967 7.90381L7.90381 7.1967L12.0503 11.3431L16.1967 7.1967L16.9038 7.90381L12.7574 12.0503L16.9038 16.1967L16.1967 16.9038L12.0503 12.7574L7.90381 16.9038L7.1967 16.1967L11.3431 12.0503Z" fill="#1268B3"/>
<path d="M7.1967 7.90381L6.84315 7.55025L6.48959 7.90381L6.84315 8.25736L7.1967 7.90381ZM11.3431 12.0503L11.6967 12.4038L12.0503 12.0503L11.6967 11.6967L11.3431 12.0503ZM7.90381 7.1967L8.25736 6.84315L7.90381 6.48959L7.55025 6.84315L7.90381 7.1967ZM12.0503 11.3431L11.6967 11.6967L12.0503 12.0503L12.4038 11.6967L12.0503 11.3431ZM16.1967 7.1967L16.5503 6.84315L16.1967 6.48959L15.8431 6.84315L16.1967 7.1967ZM16.9038 7.90381L17.2574 8.25736L17.6109 7.90381L17.2574 7.55025L16.9038 7.90381ZM12.7574 12.0503L12.4038 11.6967L12.0503 12.0503L12.4038 12.4038L12.7574 12.0503ZM16.9038 16.1967L17.2574 16.5503L17.6109 16.1967L17.2574 15.8431L16.9038 16.1967ZM16.1967 16.9038L15.8431 17.2574L16.1967 17.6109L16.5503 17.2574L16.1967 16.9038ZM12.0503 12.7574L12.4038 12.4038L12.0503 12.0503L11.6967 12.4038L12.0503 12.7574ZM7.90381 16.9038L7.55025 17.2574L7.90381 17.6109L8.25736 17.2574L7.90381 16.9038ZM7.1967 16.1967L6.84315 15.8431L6.48959 16.1967L6.84315 16.5503L7.1967 16.1967ZM6.84315 8.25736L10.9896 12.4038L11.6967 11.6967L7.55025 7.55025L6.84315 8.25736ZM7.55025 6.84315L6.84315 7.55025L7.55025 8.25736L8.25736 7.55025L7.55025 6.84315ZM12.4038 10.9896L8.25736 6.84315L7.55025 7.55025L11.6967 11.6967L12.4038 10.9896ZM12.4038 11.6967L16.5503 7.55025L15.8431 6.84315L11.6967 10.9896L12.4038 11.6967ZM15.8431 7.55025L16.5503 8.25736L17.2574 7.55025L16.5503 6.84315L15.8431 7.55025ZM16.5503 7.55025L12.4038 11.6967L13.1109 12.4038L17.2574 8.25736L16.5503 7.55025ZM17.2574 15.8431L13.1109 11.6967L12.4038 12.4038L16.5503 16.5503L17.2574 15.8431ZM16.5503 17.2574L17.2574 16.5503L16.5503 15.8431L15.8431 16.5503L16.5503 17.2574ZM11.6967 13.1109L15.8431 17.2574L16.5503 16.5503L12.4038 12.4038L11.6967 13.1109ZM11.6967 12.4038L7.55025 16.5503L8.25736 17.2574L12.4038 13.1109L11.6967 12.4038ZM8.25736 16.5503L7.55025 15.8431L6.84315 16.5503L7.55025 17.2574L8.25736 16.5503ZM7.55025 16.5503L11.6967 12.4038L10.9896 11.6967L6.84315 15.8431L7.55025 16.5503Z" fill="#0069B9"/>
</svg>
