<svg width="24" height="24" viewBox="0 0 24 24" fill="none" xmlns="http://www.w3.org/2000/svg">
<rect width="24" height="24" fill="#969696"/>
<path fill-rule="evenodd" clip-rule="evenodd" d="M16.4896 17.9994C16.6657 17.992 16.8301 17.9113 16.9438 17.7769C18.1712 16.323 18.8471 14.4739 18.8468 12.5706C18.8468 10.5923 18.1239 8.68881 16.8115 7.21124C16.6965 7.08175 16.5328 7.00526 16.3597 7.00034C16.1774 6.99454 16.0184 7.06226 15.8961 7.18519L15.8136 7.26779C15.5794 7.50294 15.5682 7.87963 15.7883 8.12847C16.874 9.35422 17.4722 10.9318 17.4722 12.5706C17.4722 14.1461 16.9135 15.6778 15.8993 16.8839C15.6895 17.1337 15.7051 17.5026 15.936 17.7333L16.0186 17.8159C16.1369 17.9342 16.2967 18 16.4633 18C16.4722 18 16.481 17.9997 16.4896 17.9994ZM11.9275 16.8162C11.9275 17.0601 11.7866 17.2818 11.566 17.3852C11.4808 17.4255 11.3894 17.445 11.2986 17.445C11.1548 17.445 11.0124 17.3956 10.8973 17.3002L7.4597 14.4516H5.6288C5.28158 14.4519 5 14.1702 5 13.823V11.3177C5 10.9704 5.28158 10.6888 5.6288 10.6888H7.45985L10.8975 7.84019C11.0853 7.68451 11.3458 7.65132 11.5662 7.7555C11.7866 7.85894 11.9277 8.08069 11.9277 8.32448L11.9275 16.8162ZM14.3441 15.8336C14.3288 15.8347 14.314 15.8353 14.2988 15.8353C14.1327 15.8353 13.9726 15.7696 13.8543 15.6512L13.7702 15.5668C13.5496 15.3467 13.5237 14.998 13.7095 14.7476C14.1804 14.1127 14.4289 13.3601 14.4289 12.5706C14.4289 11.7214 14.1467 10.9248 13.6127 10.267C13.4094 10.017 13.4282 9.65382 13.656 9.42611L13.74 9.34202C13.8656 9.21641 14.0339 9.14795 14.2161 9.15881C14.3935 9.16774 14.5591 9.25124 14.6717 9.38875C15.4124 10.2951 15.8036 11.3956 15.8036 12.5707C15.8036 13.6652 15.4576 14.707 14.8028 15.583C14.6934 15.729 14.5261 15.8207 14.3441 15.8336Z" fill="white"/>
</svg>
