<svg width="100" height="100" viewBox="0 0 100 100" fill="none" xmlns="http://www.w3.org/2000/svg">
<path d="M69.9336 17.5953C69.3323 17.5739 68.9672 18.066 68.8598 19.1146L67.0988 38.9298C66.7766 43.017 64.9941 45.0499 61.7296 45.0499L60.3981 44.9429C58.9807 44.7717 58.1216 45.4993 57.8854 47.1684C57.8209 47.5963 57.7995 48.0885 57.8424 48.6449C57.9713 49.3724 58.2505 49.7576 58.68 49.8004L61.4075 50.0358C66.3686 50.0572 69.1175 46.933 69.6115 40.6845L70.7712 19.243C70.8142 18.173 70.535 17.6381 69.9336 17.5953Z" fill="#C0FF3F"/>
<path d="M70.5015 23.5054C70.3613 23.6514 70.2026 23.7223 70.0155 23.7298C69.8164 23.7276 69.6545 23.6556 69.5201 23.5258C69.3736 23.3862 69.3027 23.2281 69.2952 23.0417C69.2976 22.8433 69.3579 22.6721 69.4883 22.5381L72.2526 19.665C72.3928 19.519 72.5515 19.4482 72.7506 19.4504C72.9377 19.4428 73.1094 19.5028 73.2559 19.6424C73.3804 19.7842 73.4514 19.9423 73.449 20.1407C73.4565 20.3271 73.3841 20.4885 73.2439 20.6345L70.5015 23.5054Z" fill="#C0FF3F"/>
<path d="M67.9043 27.0196C68.0504 27.1906 68.2334 27.2765 68.4288 27.3015C68.6365 27.3145 68.8323 27.2421 68.9916 27.1088C69.1632 26.9633 69.2494 26.7809 69.2746 26.5862C69.2998 26.3671 69.2272 26.1721 69.0934 26.0133L66.2216 22.6422C66.0756 22.4712 65.9049 22.3732 65.6972 22.3603C65.4773 22.3351 65.2938 22.3953 65.1222 22.5408C64.9505 22.6863 64.8643 22.8686 64.8514 23.0756C64.8384 23.2825 64.8988 23.4654 65.0449 23.6364L67.9043 27.0196Z" fill="#C0FF3F"/>
<path d="M87.0895 6.84859C73.1034 5.82872 68.2295 10.7159 72.4381 21.449C76.2903 17.8392 81.1669 12.9733 87.0895 6.84859Z" fill="#C0FF3F"/>
<path d="M66.5405 24.6353C69.4398 17.5523 65.0586 14.2355 53.3969 14.7062C52.9674 21.9176 57.3486 25.2344 66.5405 24.6353Z" fill="#73D70B"/>
<path d="M66.734 25.5982L66.8843 23.5653C63.1689 19.6494 58.6159 16.6749 53.1824 14.6635C57.9287 17.4025 62.4387 21.0617 66.734 25.5982Z" fill="#C0FF3F"/>
<path d="M59.4859 49.1156C59.0564 49.1156 58.7127 49.4366 58.4765 50.1213C58.3476 50.6563 58.2832 51.1485 58.2832 51.5765C58.2832 53.2456 58.9919 54.1015 60.4308 54.1443L61.7624 54.2299C64.9624 54.7221 66.4228 57.0117 66.1221 61.0989L64.8335 80.9356C64.7691 81.9841 65.0483 82.5405 65.6496 82.6261C66.251 82.6689 66.6161 82.1767 66.7664 81.1496L68.8926 59.7936C69.365 53.5451 67.1315 50.0357 62.2134 49.3082L59.4859 49.1156Z" fill="#FFFD72"/>
<path d="M68.188 66.6658C67.9935 66.4677 67.7607 66.3775 67.5178 66.3633C67.2608 66.3652 67.0258 66.4711 66.8409 66.649C66.6419 66.8429 66.5513 67.0749 66.537 67.317C66.5247 67.589 66.6309 67.8231 66.8093 68.0073L70.6357 71.9144C70.8302 72.1125 71.063 72.2027 71.32 72.2008C71.593 72.213 71.814 72.1231 72.0129 71.9292C72.1818 71.7372 72.2884 71.5193 72.2847 71.2332C72.2829 70.9771 72.1928 70.757 71.9983 70.5589L68.188 66.6658Z" fill="#FFFD72"/>
<path d="M67.1246 76.8806C67.0085 76.7149 66.8519 76.6223 66.679 76.5831C66.4941 76.5537 66.3125 76.6017 66.1583 76.7075C65.9922 76.8231 65.8993 76.9791 65.8601 77.1513C65.8187 77.3454 65.867 77.5264 65.9733 77.6801L68.2567 80.9459C68.3728 81.1116 68.5294 81.2042 68.7143 81.2336C68.9091 81.275 69.0787 81.2368 69.2449 81.1212C69.4111 81.0056 69.5039 80.8496 69.5333 80.6654C69.5747 80.4713 69.5263 80.2903 69.4201 80.1366L67.1246 76.8806Z" fill="#FFFD72"/>
<path d="M65.2406 71.0105C65.4111 70.8638 65.5942 70.8023 65.802 70.8137C66.0221 70.8372 66.1935 70.934 66.3285 71.0918C66.4758 71.2618 66.5376 71.4442 66.5261 71.6513C66.5024 71.8705 66.4176 72.0535 66.2592 72.188L62.8967 75.0738C62.7261 75.2206 62.543 75.2821 62.323 75.2586C62.1152 75.2471 61.9315 75.1626 61.7843 74.9926C61.637 74.8227 61.5752 74.6403 61.5989 74.421C61.6104 74.214 61.7075 74.0431 61.8781 73.8964L65.2406 71.0105Z" fill="#FFFD72"/>
<path d="M37.7857 24.7182C33.4604 27.1576 30.6245 30.7557 29.2779 35.5126C27.9926 40.0458 27.2785 44.2741 27.0949 48.1975C26.9113 51.9379 27.1969 56.2272 27.9518 61.0857C28.7271 65.9646 31.1141 69.8676 35.1334 72.8152C39.173 75.7425 43.6411 76.8403 48.558 76.0881C53.4546 75.336 57.3922 72.9372 60.3505 68.9325C63.2884 64.9278 64.3901 60.4556 63.6557 55.5767C63.2884 53.239 63.1252 51.511 63.1456 50.3523C63.1864 48.9497 63.4924 47.2421 64.0637 45.2296C65.3899 40.4321 64.8186 35.8785 62.3907 31.5485C59.9017 27.2186 56.2905 24.3929 51.5163 23.0716C46.7014 21.6892 42.1313 22.2584 37.7857 24.7182Z" fill="#ECEA5B"/>
<path d="M63.129 50.3108C63.1698 48.9081 63.4758 47.2005 64.0471 45.188C64.1287 44.9034 64.1899 44.6188 64.2715 44.3342C62.3741 45.31 61.3132 47.0582 61.048 49.579C61.0888 52.0997 61.9253 53.9496 63.5574 55.1286C63.2514 53.0145 63.0882 51.4085 63.129 50.3108Z" fill="#E5AF2A"/>
<path d="M36.2552 65.5391C35.9288 65.0918 35.5004 64.8276 34.9699 64.7259C34.4394 64.6243 33.9498 64.7462 33.5009 65.0715C33.052 65.3968 32.7868 65.8033 32.6848 66.3522C32.5828 66.9011 32.7052 67.3687 33.0316 67.8159C36.3981 72.6135 41.2539 74.7277 47.6399 74.1585C52.5365 73.6909 56.3925 71.3328 59.2285 67.0637C59.5345 66.6165 59.6162 66.1083 59.5141 65.5797C59.4121 65.0512 59.1265 64.6243 58.6572 64.3397C58.2084 64.0347 57.6983 63.9534 57.1678 64.0551C56.6374 64.1567 56.2089 64.4413 55.9233 64.9089C53.8014 68.1005 50.9247 69.8894 47.2726 70.2553C42.478 70.6619 38.8056 69.0966 36.2552 65.5391Z" fill="#D7D54D"/>
<path d="M48.2725 27.7066C48.3949 27.1781 48.2929 26.6902 48.0072 26.2226C47.7216 25.7551 47.2931 25.4705 46.7627 25.3485C44.6612 24.8809 42.8658 25.1655 41.3764 26.182C40.9275 26.4869 40.6419 26.8935 40.5195 27.422C40.3971 27.9506 40.4991 28.4385 40.8051 28.906C41.1112 29.3532 41.5192 29.6379 42.0497 29.7598C42.5802 29.8615 43.0698 29.7802 43.5391 29.4955C44.192 29.1093 44.9877 29.0077 45.9058 29.2109C46.4362 29.3329 46.9259 29.2313 47.3952 28.9467C47.844 28.6417 48.15 28.2352 48.2725 27.7066Z" fill="#F7F5AF"/>
<path d="M69.9336 17.5953C69.3323 17.5739 68.9672 18.066 68.8598 19.1146L67.0988 38.9298C66.7766 43.017 64.9941 45.0499 61.7296 45.0499L60.3981 44.9429C58.9807 44.7717 58.1216 45.4993 57.8854 47.1684C57.8209 47.5963 57.7995 48.0885 57.8424 48.6449C57.9713 49.3724 58.2505 49.7576 58.68 49.8004L61.4075 50.0358C66.3686 50.0572 69.1175 46.933 69.6115 40.6845L70.7712 19.243C70.8142 18.173 70.535 17.6381 69.9336 17.5953Z" fill="#C0FF3F"/>
<path d="M70.5015 23.5054C70.3613 23.6514 70.2026 23.7223 70.0155 23.7298C69.8164 23.7276 69.6545 23.6556 69.5201 23.5258C69.3736 23.3862 69.3027 23.2281 69.2952 23.0417C69.2976 22.8433 69.3579 22.6721 69.4883 22.5381L72.2526 19.665C72.3928 19.519 72.5515 19.4482 72.7506 19.4504C72.9377 19.4428 73.1094 19.5028 73.2559 19.6424C73.3804 19.7842 73.4514 19.9423 73.449 20.1407C73.4565 20.3271 73.3841 20.4885 73.2439 20.6345L70.5015 23.5054Z" fill="#C0FF3F"/>
<path d="M67.9043 27.0196C68.0504 27.1906 68.2334 27.2765 68.4288 27.3015C68.6365 27.3145 68.8323 27.2421 68.9916 27.1088C69.1632 26.9633 69.2494 26.7809 69.2746 26.5862C69.2998 26.3671 69.2272 26.1721 69.0934 26.0133L66.2216 22.6422C66.0756 22.4712 65.9049 22.3732 65.6972 22.3603C65.4773 22.3351 65.2938 22.3953 65.1222 22.5408C64.9505 22.6863 64.8643 22.8686 64.8514 23.0756C64.8384 23.2825 64.8988 23.4654 65.0449 23.6364L67.9043 27.0196Z" fill="#C0FF3F"/>
<path d="M87.093 6.85276C73.0904 5.86842 68.1937 10.7259 72.4246 21.4681C76.2904 17.8303 81.1655 12.9728 87.093 6.85276Z" fill="#5EE900"/>
<path d="M66.4331 24.6353C62.5673 20.5481 58.2076 17.2313 53.3754 14.7277C52.9674 21.8962 57.3271 25.2131 66.4331 24.6353Z" fill="#56D401"/>
<path d="M66.4333 24.6353C66.4762 24.6353 66.4977 24.6353 66.5407 24.6353C69.44 17.5523 65.0588 14.2355 53.3971 14.7062V14.7276C58.2078 17.2313 62.5461 20.5267 66.4333 24.6353Z" fill="#C0FF3F"/>
<path d="M66.734 25.5982L66.8843 23.5653C63.1689 19.6494 58.6159 16.6749 53.1824 14.6635C57.9287 17.4025 62.4387 21.0617 66.734 25.5982Z" fill="#C0FF3F"/>
<path d="M60.42 44.9428C59.0025 44.7716 58.1435 45.4992 57.9072 47.1683C57.8428 47.5963 57.8213 48.0885 57.8643 48.6448C57.9931 49.3724 58.2723 49.7576 58.7018 49.8004L61.4294 50.0357C65.381 50.0571 67.9367 48.0671 69.0535 44.1083C67.8723 43.8515 67.185 42.3964 66.9917 39.8071C66.4978 43.3379 64.7367 45.0926 61.73 45.0926L60.42 44.9428Z" fill="#56D401"/>
<path d="M81.4022 12.6735L81.8532 6.76746C80.6935 6.83165 79.6197 6.96005 78.6318 7.13124L78.1163 15.9475C79.1687 14.9204 80.264 13.8291 81.4022 12.6735Z" fill="#67FF02"/>
<path d="M59.4859 49.1156C59.0564 49.1156 58.7127 49.4366 58.4765 50.1213C58.3476 50.6563 58.2832 51.1485 58.2832 51.5765C58.2832 53.2456 58.9919 54.1015 60.4308 54.1443L61.7624 54.2299C64.9624 54.7221 66.4228 57.0117 66.1221 61.0989L64.8335 80.9356C64.7691 81.9841 65.0483 82.5405 65.6496 82.6261C66.251 82.6689 66.6161 82.1767 66.7664 81.1496L68.8926 59.7936C69.365 53.5451 67.1315 50.0357 62.2134 49.3082L59.4859 49.1156Z" fill="#FFFD72"/>
<path d="M68.188 66.6658C67.9935 66.4677 67.7607 66.3775 67.5178 66.3633C67.2608 66.3652 67.0258 66.4711 66.8409 66.649C66.6419 66.8429 66.5513 67.0749 66.537 67.317C66.5247 67.589 66.6309 67.8231 66.8093 68.0073L70.6357 71.9144C70.8302 72.1125 71.063 72.2027 71.32 72.2008C71.593 72.213 71.814 72.1231 72.0129 71.9292C72.1818 71.7372 72.2884 71.5193 72.2847 71.2332C72.2829 70.9771 72.1928 70.757 71.9983 70.5589L68.188 66.6658Z" fill="#FFFD72"/>
<path d="M67.1246 76.8806C67.0085 76.7149 66.8519 76.6223 66.679 76.5831C66.4941 76.5537 66.3125 76.6017 66.1583 76.7075C65.9922 76.8231 65.8993 76.9791 65.8601 77.1513C65.8187 77.3454 65.867 77.5264 65.9733 77.6801L68.2567 80.9459C68.3728 81.1116 68.5294 81.2042 68.7143 81.2336C68.9091 81.275 69.0787 81.2368 69.2449 81.1212C69.4111 81.0056 69.5039 80.8496 69.5333 80.6654C69.5747 80.4713 69.5263 80.2903 69.4201 80.1366L67.1246 76.8806Z" fill="#FFFD72"/>
<path d="M65.2406 71.0105C65.4111 70.8638 65.5942 70.8023 65.802 70.8137C66.0221 70.8372 66.1935 70.934 66.3285 71.0918C66.4758 71.2618 66.5376 71.4442 66.5261 71.6513C66.5024 71.8705 66.4176 72.0535 66.2592 72.188L62.8967 75.0738C62.7261 75.2206 62.543 75.2821 62.323 75.2586C62.1152 75.2471 61.9315 75.1626 61.7843 74.9926C61.637 74.8227 61.5752 74.6403 61.5989 74.421C61.6104 74.214 61.7075 74.0431 61.8781 73.8964L65.2406 71.0105Z" fill="#FFFD72"/>
<path d="M58.2935 51.5979C58.2935 53.267 59.0022 54.1229 60.4411 54.1657L61.7726 54.2513C63.4478 54.5081 64.6505 55.2357 65.3592 56.4768C65.9176 57.4397 66.1753 58.7022 66.1538 60.2644C67.1632 60.2002 67.9364 61.5911 68.4303 64.4371L68.9028 59.7936C69.3753 53.5451 67.1417 50.0357 62.2236 49.3082L59.4961 49.1156C59.0666 49.1156 58.723 49.4366 58.4867 50.1213C58.3579 50.6777 58.2935 51.1485 58.2935 51.5979Z" fill="#E5BA30"/>
<path d="M64.5538 38.5017C64.3089 36.7128 63.7785 34.9442 62.942 33.2162C62.7583 32.83 62.5543 32.4234 62.3299 32.0372C59.8408 27.7071 56.2295 24.8814 51.4553 23.5601C46.6607 22.2184 42.0906 22.7876 37.7448 25.2474C33.4195 27.6868 30.5835 31.285 29.237 36.0419C27.9516 40.5753 27.2375 44.8036 27.0539 48.7271C26.8703 52.4676 27.1559 56.757 27.9108 61.6155C28.0332 62.3677 28.1964 63.0995 28.4005 63.8314C28.8901 65.5796 29.6042 67.1653 30.5427 68.6289C31.7057 70.4179 33.2359 71.9832 35.0925 73.3452C39.1322 76.2726 43.6003 77.3703 48.5174 76.6181C53.414 75.866 57.3517 73.4672 60.31 69.4624C63.248 65.4577 64.3497 60.9853 63.6152 56.1064C63.248 53.7686 63.0848 52.0407 63.1052 50.8819C63.146 49.4792 63.452 47.7716 64.0233 45.7591C64.6966 43.2586 64.8802 40.8395 64.5538 38.5017Z" fill="#ECEA5B"/>
<path d="M64.5739 38.5016C64.5331 38.1967 64.4923 37.9121 64.4311 37.6072L27.8494 61.1276C27.8698 61.2902 27.8902 61.4528 27.9106 61.6155C28.033 62.3676 28.1962 63.0995 28.4002 63.8313C28.8899 65.5796 29.604 67.1652 30.5425 68.6289C31.7054 70.4178 33.2356 71.9831 35.0923 73.3451C39.132 76.2725 43.6001 77.3702 48.5171 76.6181C53.4137 75.8659 57.3514 73.4671 60.3098 69.4624C63.2478 65.4576 64.3495 60.9853 63.615 56.1064C63.2478 53.7685 63.0845 52.0406 63.1049 50.8819C63.1457 49.4792 63.4518 47.7716 64.0231 45.759C64.7167 43.2586 64.9004 40.8395 64.5739 38.5016Z" fill="#DBD940"/>
<path d="M61.2283 52.02C61.5751 53.5853 62.3504 54.8051 63.5338 55.6589C63.2073 53.5447 63.0645 51.9387 63.0849 50.8613C63.1053 50.0278 63.2277 49.0927 63.4317 48.0559C62.1464 48.2795 61.4119 49.6009 61.2283 52.02Z" fill="#BF901C"/>
<path d="M63.4318 48.0354C63.5746 47.3036 63.7787 46.5311 64.0031 45.7179C64.0847 45.4333 64.1459 45.1487 64.2275 44.8641C62.3301 45.8399 61.2691 47.5882 61.0039 50.109C61.0243 50.8001 61.0855 51.4303 61.2079 52.0199C61.412 49.6007 62.1464 48.2794 63.4318 48.0354Z" fill="#AF751E"/>
<path d="M36.2552 65.5391C35.9288 65.0918 35.5004 64.8276 34.9699 64.7259C34.4394 64.6243 33.9498 64.7462 33.5009 65.0715C33.052 65.3968 32.7868 65.8033 32.6848 66.3522C32.5828 66.9011 32.7052 67.3687 33.0316 67.8159C36.3981 72.6135 41.2539 74.7277 47.6399 74.1585C52.5365 73.6909 56.3925 71.3328 59.2285 67.0637C59.5345 66.6165 59.6162 66.1083 59.5141 65.5797C59.4121 65.0512 59.1265 64.6243 58.6572 64.3397C58.2084 64.0347 57.6983 63.9534 57.1678 64.0551C56.6374 64.1567 56.2089 64.4413 55.9233 64.9089C53.8014 68.1005 50.9247 69.8894 47.2726 70.2553C42.478 70.6619 38.8056 69.0966 36.2552 65.5391Z" fill="#CBC934"/>
<path d="M48.2725 27.7066C48.3949 27.1781 48.2929 26.6902 48.0072 26.2226C47.7216 25.7551 47.2931 25.4705 46.7627 25.3485C44.6612 24.8809 42.8658 25.1655 41.3764 26.182C40.9275 26.4869 40.6419 26.8935 40.5195 27.422C40.3971 27.9506 40.4991 28.4385 40.8051 28.906C41.1112 29.3532 41.5192 29.6379 42.0497 29.7598C42.5802 29.8615 43.0698 29.7802 43.5391 29.4955C44.192 29.1093 44.9877 29.0077 45.9058 29.2109C46.4362 29.3329 46.9259 29.2313 47.3952 28.9467C47.844 28.6417 48.15 28.2352 48.2725 27.7066Z" fill="#F7F5AF"/>
<path d="M70.5015 23.5054C70.3613 23.6514 70.2026 23.7223 70.0155 23.7298C69.8164 23.7276 69.6545 23.6556 69.5201 23.5258C69.3736 23.3862 69.3027 23.2281 69.2952 23.0417C69.2976 22.8433 69.3579 22.6721 69.4883 22.5381L72.2526 19.665C72.3928 19.519 72.5515 19.4482 72.7506 19.4504C72.9377 19.4428 73.1094 19.5028 73.2559 19.6424C73.3804 19.7842 73.4514 19.9423 73.449 20.1407C73.4565 20.3271 73.3841 20.4885 73.2439 20.6345L70.5015 23.5054Z" fill="#C0FF3F"/>
<path d="M69.9336 17.5953C69.3323 17.5739 68.9672 18.066 68.8598 19.1146L67.0988 38.9298C66.7766 43.017 64.9941 45.0499 61.7296 45.0499L60.3981 44.9429C58.9807 44.7717 58.1216 45.4993 57.8854 47.1684C57.8209 47.5963 57.7995 48.0885 57.8424 48.6449C57.9713 49.3724 58.2505 49.7576 58.68 49.8004L61.4075 50.0358C66.3686 50.0572 69.1175 46.933 69.6115 40.6845L70.7712 19.243C70.8142 18.173 70.535 17.6381 69.9336 17.5953Z" fill="url(#paint0_linear_3120_52877)"/>
<path d="M67.9043 27.0196C68.0504 27.1906 68.2334 27.2765 68.4288 27.3015C68.6365 27.3145 68.8323 27.2421 68.9916 27.1088C69.1632 26.9633 69.2494 26.7809 69.2746 26.5862C69.2998 26.3671 69.2272 26.1721 69.0934 26.0133L66.2216 22.6422C66.0756 22.4712 65.9049 22.3732 65.6972 22.3603C65.4773 22.3351 65.2938 22.3953 65.1222 22.5408C64.9505 22.6863 64.8643 22.8686 64.8514 23.0756C64.8384 23.2825 64.8988 23.4654 65.0449 23.6364L67.9043 27.0196Z" fill="#C0FF3F"/>
<path d="M87.093 6.85276C73.0904 5.86842 68.1937 10.7259 72.4246 21.4681C76.2904 17.8303 81.1655 12.9728 87.093 6.85276Z" fill="url(#paint1_radial_3120_52877)"/>
<path d="M66.4331 24.6353C62.5673 20.5481 58.2076 17.2313 53.3754 14.7277C52.9674 21.8962 57.3271 25.2131 66.4331 24.6353Z" fill="#56D401"/>
<path d="M66.4333 24.6353C66.4762 24.6353 66.4977 24.6353 66.5407 24.6353C69.44 17.5523 65.0588 14.2355 53.3971 14.7062V14.7276C58.2078 17.2313 62.5461 20.5267 66.4333 24.6353Z" fill="url(#paint2_linear_3120_52877)"/>
<path d="M66.734 25.5982L66.8843 23.5653C63.1689 19.6494 58.6159 16.6749 53.1824 14.6635C57.9287 17.4025 62.4387 21.0617 66.734 25.5982Z" fill="url(#paint3_linear_3120_52877)"/>
<path d="M60.42 44.9428C59.0025 44.7716 58.1435 45.4992 57.9072 47.1683C57.8428 47.5963 57.8213 48.0885 57.8643 48.6448C57.9931 49.3724 58.2723 49.7576 58.7018 49.8004L61.4294 50.0357C65.381 50.0571 67.9367 48.0671 69.0535 44.1083C67.8723 43.8515 67.185 42.3964 66.9917 39.8071C66.4978 43.3379 64.7367 45.0926 61.73 45.0926L60.42 44.9428Z" fill="#56D401"/>
<path d="M75.1956 8.22257C74.358 8.62915 73.6278 9.09992 73.0265 9.67769L74.1218 17.9162L75.1956 8.22257ZM82.0036 6.76746C81.2305 6.81025 80.4788 6.87445 79.7916 6.96005C79.7486 6.96005 79.7057 6.96005 79.6842 6.96005L76.2694 16.4183L82.0036 6.76746Z" fill="url(#paint4_radial_3120_52877)"/>
<path d="M61.751 20.2698C62.5457 18.3439 62.3094 16.632 61.0423 15.1127C58.9806 14.7275 56.4249 14.5777 53.3752 14.7061V14.7275C56.339 16.2682 59.1309 18.1085 61.751 20.2698Z" fill="white" fill-opacity="0.5882"/>
<path d="M68.188 66.6658C67.9935 66.4677 67.7607 66.3775 67.5178 66.3633C67.2608 66.3652 67.0258 66.4711 66.8409 66.649C66.6419 66.8429 66.5513 67.0749 66.537 67.317C66.5247 67.589 66.6309 67.8231 66.8093 68.0073L70.6357 71.9144C70.8302 72.1125 71.063 72.2027 71.32 72.2008C71.593 72.213 71.814 72.1231 72.0129 71.9292C72.1818 71.7372 72.2884 71.5193 72.2847 71.2332C72.2829 70.9771 72.1928 70.757 71.9983 70.5589L68.188 66.6658Z" fill="#FFFD72"/>
<path d="M67.1246 76.8806C67.0085 76.7149 66.8519 76.6223 66.679 76.5831C66.4941 76.5537 66.3125 76.6017 66.1583 76.7075C65.9922 76.8231 65.8993 76.9791 65.8601 77.1513C65.8187 77.3454 65.867 77.5264 65.9733 77.6801L68.2567 80.9459C68.3728 81.1116 68.5294 81.2042 68.7143 81.2336C68.9091 81.275 69.0787 81.2368 69.2449 81.1212C69.4111 81.0056 69.5039 80.8496 69.5333 80.6654C69.5747 80.4713 69.5263 80.2903 69.4201 80.1366L67.1246 76.8806Z" fill="#FFFD72"/>
<path d="M65.2406 71.0105C65.4111 70.8638 65.5942 70.8023 65.802 70.8137C66.0221 70.8372 66.1935 70.934 66.3285 71.0918C66.4758 71.2618 66.5376 71.4442 66.5261 71.6513C66.5024 71.8705 66.4176 72.0535 66.2592 72.188L62.8967 75.0738C62.7261 75.2206 62.543 75.2821 62.323 75.2586C62.1152 75.2471 61.9315 75.1626 61.7843 74.9926C61.637 74.8227 61.5752 74.6403 61.5989 74.421C61.6104 74.214 61.7075 74.0431 61.8781 73.8964L65.2406 71.0105Z" fill="#FFFD72"/>
<path d="M58.2935 51.5981C58.2935 53.2672 59.0022 54.1231 60.4411 54.1659L61.7726 54.2515C64.9726 54.7437 66.433 57.0333 66.1324 61.1205L64.8438 80.9572C64.7793 82.0057 65.0585 82.5621 65.6599 82.6477C66.2612 82.6905 66.6263 82.1983 66.7766 81.1712L68.9028 59.8152C69.3753 53.5668 67.1417 50.0574 62.2236 49.3298L59.4961 49.1372C59.0666 49.1372 58.723 49.4582 58.4867 50.1429C58.3579 50.6779 58.2935 51.1487 58.2935 51.5981Z" fill="url(#paint5_linear_3120_52877)"/>
<path d="M58.2935 51.5979C58.2935 53.267 59.0022 54.1229 60.4411 54.1657L61.7726 54.2513C63.4478 54.5081 64.6505 55.2357 65.3592 56.4768C65.9176 57.4397 66.1753 58.7022 66.1538 60.2644C67.1632 60.2002 67.9364 61.5911 68.4303 64.4371L68.9028 59.7936C69.3753 53.5451 67.1417 50.0357 62.2236 49.3082L59.4961 49.1156C59.0666 49.1156 58.723 49.4366 58.4867 50.1213C58.3579 50.6777 58.2935 51.1485 58.2935 51.5979Z" fill="url(#paint6_radial_3120_52877)"/>
<path d="M65.252 38.5445C65.0157 36.747 64.4788 34.9923 63.6412 33.259C63.448 32.8524 63.2547 32.4673 63.0184 32.0821C60.5272 27.7595 56.9191 24.9135 52.1299 23.6082C47.3406 22.26 42.7662 22.8378 38.4279 25.2987C34.1112 27.7381 31.2763 31.3331 29.9233 36.0837C28.6561 40.6202 27.9259 44.8572 27.7327 48.7731C27.5608 52.5179 27.84 56.8191 28.5917 61.6552C28.7206 62.4041 28.8709 63.1531 29.0857 63.8593C29.5582 65.5926 30.2884 67.1975 31.2333 68.6526C32.393 70.4287 33.9179 72.0122 35.7863 73.3817C39.8239 76.3133 44.3125 77.4047 49.2091 76.6557C54.1057 75.9068 58.0359 73.5101 60.9996 69.4871C63.9419 65.4856 65.0587 61.0346 64.307 56.1343C63.9419 53.8018 63.7701 52.0471 63.7916 50.8916C63.8345 49.4793 64.1352 47.7888 64.7151 45.7773C65.3808 43.295 65.5741 40.8984 65.252 38.5445Z" fill="url(#paint7_radial_3120_52877)"/>
<path d="M65.51 56.6265C64.9086 54.1871 65.3596 52.518 66.8415 51.5978C65.8966 50.3995 64.5435 49.6719 62.7825 49.4152L63.4482 54.5723C64.3717 55.0858 65.059 55.7706 65.51 56.6265Z" fill="#6B3307" fill-opacity="0.2784"/>
<path d="M62.3306 57.0121C60.5481 54.5084 60.4407 51.1274 62.0085 46.8477C63.7481 43.1885 64.0273 40.0857 62.8675 37.5178C55.0072 54.7438 44.1186 63.4531 30.1589 63.6457C31.4475 68.2679 34.6046 72.248 39.6515 75.5648C42.6367 76.806 45.8152 77.1697 49.2085 76.6348C51.9575 76.2068 54.4058 75.2653 56.5535 73.8101L57.7561 72.89C61.9011 69.3806 63.4259 64.0737 62.3306 57.0121Z" fill="url(#paint8_radial_3120_52877)"/>
<path d="M61.9236 52.0688C62.2672 53.6523 63.0404 54.8506 64.243 55.7066C63.9209 53.5881 63.7706 51.9832 63.792 50.8919C63.8135 50.0573 63.9424 49.1372 64.1357 48.0886C62.8471 48.324 62.0954 49.6507 61.9236 52.0688Z" fill="#BF901C"/>
<path d="M64.1354 48.0887C64.2858 47.3611 64.4791 46.5908 64.6938 45.7562C64.7797 45.4566 64.8442 45.1785 64.9086 44.9003C63.0187 45.8846 61.9449 47.6179 61.6871 50.143C61.7086 50.8277 61.773 51.4697 61.9019 52.0475C62.0952 49.6508 62.8469 48.3241 64.1354 48.0887Z" fill="#AF751E"/>
<path d="M48.6771 28.4278C48.7995 27.8993 48.6975 27.4114 48.4119 26.9438C48.1263 26.4762 47.6978 26.1916 47.1673 26.0697C45.0659 25.6021 43.2704 25.8867 41.7811 26.9032C41.3322 27.2081 41.0466 27.6147 40.9242 28.1432C40.8017 28.6718 40.9038 29.1596 41.2098 29.6272C41.5158 30.0744 41.9239 30.359 42.4543 30.481C42.9848 30.5827 43.4745 30.5013 43.9437 30.2167C44.5966 29.8305 45.3923 29.7289 46.3104 29.9321C46.8409 30.0541 47.3306 29.9525 47.7998 29.6679C48.2691 29.3629 48.5547 28.9564 48.6771 28.4278Z" fill="white"/>
<path opacity="0.4" d="M50.5982 95.2805C58.9507 94.8676 65.6155 92.399 65.4845 89.7665C65.3534 87.1341 58.4761 85.3347 50.1236 85.7475C41.7711 86.1603 35.1062 88.629 35.2373 91.2615C35.3683 93.8939 42.2456 95.6933 50.5982 95.2805Z" fill="black"/>
<defs>
<linearGradient id="paint0_linear_3120_52877" x1="68.1781" y1="33.9876" x2="72.052" y2="34.2851" gradientUnits="userSpaceOnUse">
<stop stop-color="#C0FF3F"/>
<stop offset="0.749" stop-color="#EEC232"/>
<stop offset="1" stop-color="#7FFF2A"/>
</linearGradient>
<radialGradient id="paint1_radial_3120_52877" cx="0" cy="0" r="1" gradientUnits="userSpaceOnUse" gradientTransform="translate(85.6799 6.25794) rotate(4.36047) scale(13.1543 13.1073)">
<stop stop-color="#FFFD38"/>
<stop offset="1" stop-color="#C0FF3F"/>
</radialGradient>
<linearGradient id="paint2_linear_3120_52877" x1="68.0562" y1="24.8933" x2="55.6549" y2="11.6598" gradientUnits="userSpaceOnUse">
<stop stop-color="#C0FF3F"/>
<stop offset="1" stop-color="#FFFD38"/>
</linearGradient>
<linearGradient id="paint3_linear_3120_52877" x1="65.4521" y1="24.7407" x2="55.5925" y2="14.4057" gradientUnits="userSpaceOnUse">
<stop stop-color="#C0FF3F"/>
<stop offset="1" stop-color="#FFFD38"/>
</linearGradient>
<radialGradient id="paint4_radial_3120_52877" cx="0" cy="0" r="1" gradientUnits="userSpaceOnUse" gradientTransform="translate(84.6657 19.485) rotate(4.36047) scale(13.1543 13.1073)">
<stop stop-color="#F7F52B"/>
<stop offset="1" stop-color="#B6F536"/>
</radialGradient>
<linearGradient id="paint5_linear_3120_52877" x1="62.5286" y1="65.8703" x2="68.1733" y2="66.3039" gradientUnits="userSpaceOnUse">
<stop offset="0.6353" stop-color="#FFFD72"/>
<stop offset="0.8157" stop-color="#FFDE72"/>
<stop offset="0.9176" stop-color="#FFFD72"/>
</linearGradient>
<radialGradient id="paint6_radial_3120_52877" cx="0" cy="0" r="1" gradientUnits="userSpaceOnUse" gradientTransform="translate(56.8398 63.4211) rotate(12.6008) scale(13.056 17.1583)">
<stop offset="0.5608" stop-color="#E5BA30"/>
<stop offset="0.8353" stop-color="#D28222"/>
<stop offset="1" stop-color="#E5BA30"/>
</radialGradient>
<radialGradient id="paint7_radial_3120_52877" cx="0" cy="0" r="1" gradientUnits="userSpaceOnUse" gradientTransform="translate(46.3489 35.3589) rotate(4.36047) scale(31.4404 44.609)">
<stop stop-color="#FFFEB1"/>
<stop offset="0.4" stop-color="#F9ED49"/>
<stop offset="0.749" stop-color="#EEC232"/>
<stop offset="1" stop-color="#7FFF2A"/>
</radialGradient>
<radialGradient id="paint8_radial_3120_52877" cx="0" cy="0" r="1" gradientUnits="userSpaceOnUse" gradientTransform="translate(46.3483 35.3593) rotate(4.36047) scale(31.4404 44.609)">
<stop stop-color="#EEED9F"/>
<stop offset="0.4" stop-color="#ECE041"/>
<stop offset="0.749" stop-color="#DBB22A"/>
<stop offset="1" stop-color="#72E724"/>
</radialGradient>
</defs>
</svg>
