<?xml version="1.0" encoding="utf-8"?>
<!-- Generator: Adobe Illustrator 23.0.3, SVG Export Plug-In . SVG Version: 6.00 Build 0)  -->
<svg version="1.1" id="Layer_1" xmlns="http://www.w3.org/2000/svg" xmlns:xlink="http://www.w3.org/1999/xlink" x="0px" y="0px"
	 viewBox="0 0 5120 2880" style="enable-background:new 0 0 5120 2880;" xml:space="preserve">
<style type="text/css">
	.st0{clip-path:url(#SVGID_2_);}
	.st1{fill:url(#SVGID_3_);}
	.st2{fill:#FFFFFF;}
	.st3{fill:url(#SVGID_4_);}
	.st4{fill:url(#SVGID_5_);}
	.st5{fill:url(#SVGID_6_);}
	.st6{fill:url(#SVGID_7_);}
</style>
<g>
	<defs>
		<rect id="SVGID_1_" width="5120" height="2880"/>
	</defs>
	<clipPath id="SVGID_2_">
		<use xlink:href="#SVGID_1_"  style="overflow:visible;"/>
	</clipPath>
	<g transform="matrix( 1, 0, 0, 1, 0,0) " class="st0">
		<g>
			<g id="Layer8_0_FILL">
				
					<linearGradient id="SVGID_3_" gradientUnits="userSpaceOnUse" x1="2563.375" y1="1063.275" x2="2563.375" y2="3398.7251" gradientTransform="matrix(1 0 0 -1 0 2880)">
					<stop  offset="0" style="stop-color:#DEF4FF"/>
					<stop  offset="1" style="stop-color:#FFFFFF"/>
				</linearGradient>
				<path class="st1" d="M5195.9,2926.9V-51.8h-5265v2978.8H5195.9z"/>
			</g>
		</g>
	</g>
	<g transform="matrix( 1, 0, 0, 1, 0,0) " class="st0">
		<g>
			<g id="Layer7_0_FILL">
				<path class="st2" d="M4003.1,1247c-34.4,34.4-51.6,76-51.6,124.7c0,15,1.7,29.4,4.9,43.1c-20.3,6.7-38.5,18.3-54.8,34.6
					c-24.2,24.2-37.9,52.8-41.1,85.8c-25.3-20.5-54.9-30.8-88.7-30.8c-11.9,0-23.2,1.3-34,3.8c-6.8-32.5-22.8-61.3-47.8-86.3
					c-34.4-34.4-75.9-51.6-124.6-51.6c-29.8,0-56.9,6.5-81.4,19.3c-4-8.3-9.6-16-16.6-23c-16.5-16.4-36.3-24.7-59.6-24.7
					c-23.3,0-43.1,8.2-59.6,24.7c-16.5,16.5-24.7,36.3-24.7,59.6c0,3.9,0.2,7.7,0.7,11.4c-2.8-0.1-5.6-0.2-8.4-0.2
					c-48.7,0-90.2,17.2-124.7,51.6c-3.2,3.2-6.3,6.5-9.3,9.9c-24.2-17.9-52-26.8-83.6-26.8c-39.4,0-73.1,13.9-100.9,41.8
					c-21.8,21.8-35.1,47.2-39.8,76.1c-4.9-6.3-10.3-12.5-16.2-18.3c-34.4-34.4-75.9-51.6-124.6-51.6c-44.5,0-83.1,14.4-115.7,43.2
					c-4.4-21.6-14.9-40.7-31.4-57.3c-19.1-19.1-41.6-30.2-67.4-33.1c-6.3-23.4-18.6-44.2-36.9-62.5c-27.9-27.9-61.5-41.8-100.9-41.8
					c-39.4,0-73.1,13.9-100.9,41.8c-13.3,13.3-23.4,27.9-30.4,43.9c-23.2-11.3-48.7-16.9-76.5-16.9c-48.7,0-90.2,17.2-124.6,51.6
					c-15.1,15.1-26.9,31.7-35.4,49.6c-8.5-17.9-20.3-34.5-35.4-49.6c-34.4-34.4-75.9-51.6-124.6-51.6c-42,0-78.8,12.8-110.2,38.5
					c-5.6-12.5-13.7-24.1-24.2-34.6c-18.2-18.2-39.4-29-63.7-32.5c-8.3-25.6-22.7-48.7-43.3-69.3c-34.4-34.4-75.9-51.6-124.6-51.6
					s-90.2,17.2-124.7,51.6c-15.9,15.9-28.1,33.3-36.7,52.3c-2.4-2.8-4.9-5.5-7.6-8.2c-27.9-27.9-61.5-41.8-100.9-41.8
					c-26.1,0-49.7,6.1-70.8,18.4c-2.5-43.8-19.6-81.6-51.3-113.3c-34.4-34.4-75.9-51.6-124.6-51.6c-18.5,0-36,2.5-52.4,7.4
					c-1.7-45.4-18.9-84.4-51.5-117c-34.4-34.4-75.9-51.6-124.6-51.6c-48.7,0-90.2,17.2-124.7,51.6c-17,17-29.8,35.8-38.4,56.3
					c-21.8-13.4-46.3-20.1-73.7-20.1c-39.4,0-73,13.9-101,41.8c-12.7,12.7-22.5,26.6-29.4,41.7c-21.6-19.5-47.2-29.3-76.9-29.3
					c-11.4,0-22.2,1.5-32.4,4.3c0.4-4.9,0.5-9.9,0.5-14.9c0-48.7-17.2-90.2-51.6-124.7c-34.4-34.4-75.9-51.6-124.6-51.6
					c-28.7,0-54.9,6-78.7,17.9c7.8-20,11.7-41.5,11.7-64.7c0-48.7-17.2-90.2-51.7-124.7c-34.4-34.4-75.9-51.6-124.6-51.6
					c-2.7,0-5.3,0-7.9,0.1v2342.6H5190V882c-20.5-8.4-42.8-12.6-66.9-12.6c-48.7,0-90.2,17.2-124.6,51.6
					c-34.4,34.4-51.6,76-51.6,124.6c0,28.3,5.8,54.2,17.5,77.7c-6.7-0.9-13.5-1.3-20.5-1.3c-39.4,0-73,13.9-101,41.8
					c-19,19-31.6,40.8-37.6,65.3c-30-22.4-64.6-33.7-103.9-33.7c-48.7,0-90.2,17.2-124.6,51.6c-28.4,28.4-45.1,61.7-50,99.8
					c-9-3.3-18.7-4.9-29.1-4.9c-16,0-30.3,3.9-43.1,11.7c-2.4-34.7-16.2-64.6-41.4-89.8c-27.9-27.9-61.5-41.8-101-41.8
					c-25.1,0-47.9,5.7-68.4,17c-32.7-29-71.4-43.5-116-43.5C4079.1,1195.4,4037.5,1212.6,4003.1,1247z"/>
			</g>
		</g>
	</g>
	<g transform="matrix( 1, 0, 0, 1, 0,0) " class="st0">
		<g>
			<g id="Layer6_0_FILL">
				
					<linearGradient id="SVGID_4_" gradientUnits="userSpaceOnUse" x1="2559.075" y1="638" x2="2559.075" y2="1919.8" gradientTransform="matrix(1 0 0 -1 0 2880)">
					<stop  offset="0" style="stop-color:#DEF4FF"/>
					<stop  offset="1" style="stop-color:#FFFFFF"/>
				</linearGradient>
				<path class="st3" d="M5193,3112.1V885c-20.5-8.4-42.8-12.6-66.9-12.6c-48.7,0-90.2,17.2-124.6,51.6
					c-34.4,34.4-51.6,76-51.6,124.6c0,28.3,5.8,54.2,17.5,77.7c-6.7-0.9-13.5-1.3-20.5-1.3c-39.4,0-73,13.9-101,41.8
					c-19,19-31.6,40.8-37.6,65.3c-30-22.4-64.6-33.6-103.9-33.6c-48.7,0-90.2,17.2-124.6,51.6c-28.4,28.4-45.1,61.7-50,99.8
					c-9-3.3-18.7-4.9-29.1-4.9c-16,0-30.3,3.9-43.1,11.6c-2.4-34.7-16.2-64.6-41.4-89.8c-27.9-27.9-61.5-41.8-101-41.8
					c-25.1,0-47.9,5.7-68.4,17c-32.7-29-71.4-43.5-116-43.5c-48.7,0-90.2,17.2-124.6,51.6c-34.4,34.4-51.6,76-51.6,124.7
					c0,15,1.7,29.4,4.9,43.1c-20.3,6.7-38.5,18.3-54.8,34.5c-24.2,24.2-37.9,52.9-41.1,85.9c-25.3-20.5-54.9-30.7-88.7-30.8
					c-11.9,0-23.2,1.3-34,3.8c-6.8-32.5-22.8-61.3-47.8-86.3c-34.4-34.4-75.9-51.6-124.6-51.6c-29.8,0-56.9,6.4-81.4,19.3
					c-4-8.3-9.6-16-16.6-23.1c-16.5-16.4-36.3-24.6-59.6-24.6c-23.3,0-43.1,8.2-59.6,24.6c-16.5,16.5-24.7,36.3-24.7,59.6
					c0,3.9,0.2,7.7,0.7,11.4c-2.8-0.1-5.6-0.2-8.4-0.2c-48.7,0-90.2,17.2-124.7,51.6c-3.2,3.2-6.3,6.6-9.3,9.9
					c-24.2-17.9-52-26.8-83.6-26.8c-39.4,0-73.1,13.9-100.9,41.8c-21.8,21.8-35.1,47.2-39.8,76.1c-4.9-6.3-10.3-12.4-16.2-18.3
					c-34.4-34.4-75.9-51.6-124.6-51.6c-44.5,0-83.1,14.4-115.7,43.2c-4.4-21.6-14.9-40.7-31.4-57.3c-19.1-19.1-41.6-30.2-67.4-33.1
					c-6.3-23.4-18.6-44.2-36.9-62.5c-27.9-27.9-61.5-41.8-100.9-41.8c-39.4,0-73.1,13.9-100.9,41.8c-13.3,13.3-23.4,27.9-30.4,43.9
					c-23.2-11.3-48.7-16.9-76.5-16.9c-48.7,0-90.2,17.2-124.6,51.6c-15.1,15.1-26.9,31.7-35.4,49.6c-8.5-17.9-20.3-34.5-35.4-49.6
					c-34.4-34.4-75.9-51.6-124.6-51.6c-42,0-78.8,12.8-110.2,38.5c-5.6-12.5-13.7-24.1-24.2-34.6c-18.2-18.2-39.4-29-63.7-32.6
					c-8.3-25.6-22.7-48.7-43.3-69.3c-34.4-34.4-75.9-51.6-124.6-51.6s-90.2,17.2-124.7,51.6c-15.9,15.9-28.1,33.3-36.7,52.3
					c-2.4-2.8-4.9-5.5-7.6-8.2c-27.9-27.9-61.5-41.8-100.9-41.8c-26.1,0-49.7,6.1-70.8,18.4c-2.5-43.8-19.6-81.6-51.3-113.3
					c-34.4-34.4-75.9-51.6-124.6-51.6c-18.5,0-36,2.5-52.4,7.4c-1.7-45.4-18.9-84.4-51.5-117c-34.4-34.4-75.9-51.6-124.6-51.6
					c-48.7,0-90.2,17.2-124.7,51.6c-17,17-29.8,35.8-38.4,56.3c-21.8-13.4-46.3-20.1-73.7-20.1c-39.4,0-73,13.9-101,41.8
					c-12.7,12.7-22.5,26.6-29.4,41.7c-21.6-19.5-47.2-29.3-76.9-29.3c-11.4,0-22.2,1.4-32.4,4.3c0.4-4.9,0.5-9.9,0.5-14.9
					c0-48.7-17.2-90.2-51.6-124.7c-34.4-34.4-75.9-51.6-124.6-51.6c-28.7,0-54.9,6-78.7,18c7.8-20,11.7-41.5,11.7-64.7
					c0-48.7-17.2-90.2-51.7-124.6c-34.4-34.4-75.9-51.6-124.6-51.6c-2.7,0-5.3,0.1-7.9,0.2v2342.7H5193z"/>
			</g>
		</g>
	</g>
	<g transform="matrix( 1, 0, 0, 1, 0,0) " class="st0">
		<g>
			<g id="Layer5_0_FILL">
				<path class="st2" d="M3152,1657.6c-25.6,25.6-39.4,56-41.5,91.3c-21.5-9.3-44.8-13.9-70.1-13.9c-34.5,0-65.4,8.6-92.8,25.9
					c-27.1-25.5-59.6-38.3-97.3-38.3c-39.4,0-73.1,13.9-100.9,41.8c-18.4,18.4-30.7,39.3-36.9,62.8c-34.2-33.7-75.4-50.6-123.6-50.6
					c-16.5,0-32.2,2-47.1,6c2-9.7,3-19.8,3-30.3c0-39.4-13.9-73.1-41.8-100.9c-27.9-27.9-61.5-41.8-100.9-41.8
					c-23.2,0-44.4,4.8-63.7,14.6c-8.3-16.5-19.5-31.8-33.6-45.9c-34.4-34.4-75.9-51.6-124.6-51.6c-48.7,0-90.2,17.2-124.6,51.6
					c-7.5,7.6-14.3,15.5-20.2,23.7c-15.3-5.5-31.7-8.3-49.3-8.3c-39.4,0-73.1,13.9-101,41.8c-11.7,11.7-20.9,24.3-27.6,38
					c-7.6-12.7-16.9-24.6-28.1-35.7c-34.4-34.4-75.9-51.6-124.6-51.6c-48.7,0-90.2,17.2-124.7,51.6c-9.3,9.3-17.3,19.1-24.1,29.4
					c-5.2-9.4-11.9-18.2-20.1-26.3c-22.6-22.6-49.8-33.9-81.8-33.9c-31.9,0-59.1,11.3-81.8,33.9c-17.2,17.2-27.9,37.2-32,59.8
					c-1.4-46.8-19-87.2-52.7-121.2c-35-35.2-76.8-52.8-125.5-52.8s-90.2,17.2-124.6,51.6c-16,16-28.3,33.6-36.8,52.7
					c-16.3-4.8-33.5-7.3-51.8-7.3c-48.7,0-90.2,17.2-124.7,51.6c-2.1,2.1-4.1,4.2-6,6.3c-6.2-10.7-14-20.8-23.4-30.2
					c-27.9-27.9-61.5-41.8-101-41.8c-29.4,0-55.5,7.7-78.5,23.2c3.7-11.4,5.5-23.5,5.5-36.5c0-31.9-11.3-59.2-33.8-81.8
					c-22.6-22.6-49.8-33.8-81.8-33.8c-31.9,0-59.1,11.3-81.8,33.8c-11.6,11.6-20.3,24.5-25.9,38.6c-10.9-2-22.3-3-34-3
					c-48.7,0-90.2,17.2-124.6,51.6c-11.3,11.4-20.8,23.5-28.4,36.4c-1.7-1.8-3.4-3.7-5.2-5.4c-27.9-27.9-61.5-41.8-100.9-41.8
					c-17.5,0-33.9,2.8-49.1,8.3c-8.4-24.6-22.6-46.9-42.5-66.8c-26.2-26.2-56.6-42.5-91.2-48.7l0.3,1558.4h5267.6V1502.7
					c-20.5-8.3-42.7-12.5-66.6-12.5c-48.7,0-90.2,17.2-124.6,51.6c-34.4,34.4-51.6,76-51.6,124.6c0,1.9,0,3.8,0.1,5.8
					c-33.8-32.4-74.3-48.6-121.5-48.6c-48.7,0-90.2,17.2-124.7,51.6c-20.7,20.7-35.2,44.1-43.4,70c-3.5-4.4-7.3-8.7-11.4-12.8
					c-27.9-27.9-61.5-41.8-101-41.8c-5,0-9.8,0.2-14.6,0.7c-6.4-33.9-22.6-63.8-48.4-89.7c-34.4-34.4-75.9-51.6-124.6-51.6
					c-48.7,0-90.2,17.2-124.6,51.6c-31.7,31.7-48.8,69.4-51.3,113.2c-23.3-16.1-49.9-24.2-79.9-24.2c-39.4,0-73,13.9-100.9,41.8
					c-14,14-24.5,29.5-31.5,46.4c-1.5-1.6-2.9-3.1-4.4-4.6c-34.4-34.4-75.9-51.6-124.6-51.6c-48.7,0-90.2,17.2-124.7,51.6
					c-6.7,6.7-12.8,13.8-18.3,21.1c-2.4-0.1-4.9-0.2-7.3-0.2c-39.4,0-73.1,13.9-101,41.8c-2.1,2.1-4.2,4.3-6.2,6.5
					c-8.3-25.6-22.7-48.7-43.3-69.3c-34.4-34.4-75.9-51.6-124.6-51.6c-7.9,0-15.6,0.4-23.1,1.3c-5.9-24.9-18.6-47.1-37.9-66.4
					c-27.9-27.9-61.5-41.8-100.9-41.8C3213.6,1615.8,3179.9,1629.7,3152,1657.6z"/>
			</g>
		</g>
	</g>
	<g transform="matrix( 1, 0, 0, 1, 0,0) " class="st0">
		<g>
			<g id="Layer4_0_FILL">
				
					<linearGradient id="SVGID_5_" gradientUnits="userSpaceOnUse" x1="2558.825" y1="287.8999" x2="2558.825" y2="1471.3" gradientTransform="matrix(1 0 0 -1 0 2880)">
					<stop  offset="0" style="stop-color:#DEF4FF"/>
					<stop  offset="1" style="stop-color:#FFFFFF"/>
				</linearGradient>
				<path class="st4" d="M5192.8,3044.9V1505.7c-20.5-8.3-42.7-12.5-66.6-12.5c-48.7,0-90.2,17.2-124.6,51.6
					c-34.4,34.4-51.6,76-51.6,124.6c0,1.9,0,3.8,0.1,5.8c-33.8-32.4-74.3-48.6-121.5-48.6c-48.7,0-90.2,17.2-124.7,51.6
					c-20.7,20.7-35.2,44.1-43.4,70c-3.5-4.4-7.3-8.7-11.4-12.8c-27.9-27.9-61.5-41.8-101-41.8c-5,0-9.8,0.2-14.6,0.7
					c-6.4-33.9-22.6-63.8-48.4-89.7c-34.4-34.4-75.9-51.6-124.6-51.6c-48.7,0-90.2,17.2-124.6,51.6c-31.7,31.7-48.8,69.4-51.3,113.2
					c-23.3-16.1-49.9-24.2-79.9-24.2c-39.4,0-73,13.9-100.9,41.8c-14,14-24.5,29.5-31.5,46.4c-1.5-1.6-2.9-3.1-4.4-4.6
					c-34.4-34.4-75.9-51.6-124.6-51.6c-48.7,0-90.2,17.2-124.7,51.6c-6.7,6.7-12.8,13.8-18.3,21.1c-2.4-0.1-4.9-0.2-7.3-0.2
					c-39.4,0-73.1,13.9-101,41.8c-2.1,2.1-4.2,4.3-6.2,6.5c-8.3-25.6-22.7-48.7-43.3-69.3c-34.4-34.4-75.9-51.6-124.6-51.6
					c-7.9,0-15.6,0.4-23.1,1.3c-5.9-24.9-18.6-47.1-37.9-66.4c-27.9-27.9-61.5-41.8-100.9-41.8c-39.4,0-73,13.9-100.9,41.8
					c-25.6,25.6-39.4,56-41.5,91.3c-21.5-9.3-44.8-13.9-70.1-13.9c-34.5,0-65.4,8.6-92.8,25.9c-27.1-25.5-59.6-38.3-97.3-38.3
					c-39.4,0-73.1,13.9-100.9,41.8c-18.4,18.4-30.7,39.3-36.9,62.8c-34.2-33.7-75.4-50.6-123.6-50.6c-16.5,0-32.2,2-47.1,6
					c2-9.7,3-19.8,3-30.3c0-39.4-13.9-73.1-41.8-100.9c-27.9-27.9-61.5-41.8-100.9-41.8c-23.2,0-44.4,4.8-63.7,14.6
					c-8.3-16.5-19.5-31.8-33.6-45.9c-34.4-34.4-75.9-51.6-124.6-51.6c-48.7,0-90.2,17.2-124.6,51.6c-7.5,7.6-14.3,15.5-20.2,23.7
					c-15.3-5.5-31.7-8.3-49.3-8.3c-39.4,0-73.1,13.9-101,41.8c-11.7,11.7-20.9,24.3-27.6,38c-7.6-12.7-16.9-24.6-28.1-35.7
					c-34.4-34.4-75.9-51.6-124.6-51.6c-48.7,0-90.2,17.2-124.7,51.6c-9.3,9.3-17.3,19.1-24.1,29.4c-5.2-9.4-11.9-18.2-20.1-26.3
					c-22.6-22.6-49.8-33.9-81.8-33.9c-31.9,0-59.1,11.3-81.8,33.9c-17.2,17.2-27.9,37.2-32,59.8c-1.4-46.8-19-87.2-52.7-121.2
					c-35-35.2-76.8-52.8-125.5-52.8s-90.2,17.2-124.6,51.6c-16,16-28.3,33.6-36.8,52.7c-16.3-4.8-33.5-7.3-51.8-7.3
					c-48.7,0-90.2,17.2-124.7,51.6c-2.1,2.1-4.1,4.2-6,6.3c-6.2-10.7-14-20.8-23.4-30.2c-27.9-27.9-61.5-41.8-101-41.8
					c-29.4,0-55.5,7.7-78.5,23.2c3.7-11.4,5.5-23.5,5.5-36.5c0-31.9-11.3-59.2-33.8-81.8c-22.6-22.6-49.8-33.8-81.8-33.8
					c-31.9,0-59.1,11.3-81.8,33.8c-11.6,11.6-20.3,24.5-25.9,38.6c-10.9-2-22.3-3-34-3c-48.7,0-90.2,17.2-124.6,51.6
					c-11.3,11.4-20.8,23.5-28.4,36.4c-1.7-1.8-3.4-3.7-5.2-5.4c-27.9-27.9-61.5-41.8-100.9-41.8c-17.5,0-33.9,2.8-49.1,8.3
					c-8.4-24.6-22.6-46.9-42.5-66.8c-26.2-26.2-56.6-42.5-91.2-48.7l0.3,1558.4H5192.8z"/>
			</g>
		</g>
	</g>
	<g transform="matrix( 1, 0, 0, 1, 0,0) " class="st0">
		<g>
			<g id="Layer3_0_FILL">
				<path class="st2" d="M5192.9,1512.7c-2.6-0.1-5.2-0.2-7.9-0.2c-48.7,0-90.2,17.2-124.6,51.6c-34.4,34.4-51.6,76-51.6,124.7
					c0,23.2,3.9,44.7,11.7,64.7c-23.7-12-50-17.9-78.6-17.9c-48.7,0-90.2,17.2-124.6,51.6c-34.4,34.4-51.6,76-51.6,124.7
					c0,5.1,0.2,10,0.5,14.9c-10.2-2.9-21-4.3-32.4-4.3c-29.7,0-55.3,9.8-76.9,29.3c-6.9-15.1-16.7-29-29.4-41.7
					c-27.9-27.9-61.5-41.8-100.9-41.8c-27.4,0-51.9,6.7-73.7,20.1c-8.6-20.5-21.4-39.3-38.4-56.3c-34.4-34.4-76-51.6-124.6-51.6
					c-48.7,0-90.2,17.2-124.6,51.6c-32.6,32.6-49.8,71.6-51.5,117c-16.4-5-33.9-7.4-52.4-7.4c-48.7,0-90.2,17.2-124.6,51.6
					c-31.7,31.7-48.9,69.5-51.4,113.3c-21.1-12.3-44.7-18.4-70.8-18.4c-39.4,0-73.1,13.9-101,41.8c-2.7,2.7-5.2,5.4-7.6,8.1
					c-8.5-19-20.8-36.4-36.7-52.3c-34.4-34.4-76-51.6-124.6-51.6c-48.7,0-90.2,17.2-124.6,51.6c-20.5,20.5-34.9,43.6-43.3,69.3
					c-24.3,3.5-45.5,14.4-63.6,32.6c-10.5,10.5-18.6,22-24.2,34.6c-31.4-25.7-68.1-38.5-110.2-38.5c-48.7,0-90.2,17.2-124.6,51.6
					c-15.1,15.1-26.9,31.7-35.4,49.6c-8.5-17.9-20.3-34.5-35.4-49.6c-34.4-34.4-76-51.6-124.6-51.6c-27.8,0-53.3,5.6-76.5,16.9
					c-7-16-17.1-30.6-30.4-43.9c-27.9-27.9-61.6-41.8-100.9-41.8c-39.4,0-73.1,13.9-100.9,41.8c-18.3,18.3-30.7,39.2-36.9,62.6
					c-25.8,2.9-48.3,13.9-67.4,33.1c-16.6,16.6-27.1,35.6-31.4,57.3c-32.6-28.8-71.2-43.2-115.7-43.2c-48.7,0-90.2,17.2-124.6,51.6
					c-5.9,5.9-11.3,12-16.2,18.4c-4.7-28.9-18-54.3-39.8-76.1c-27.9-27.9-61.6-41.8-100.9-41.8c-31.6,0-59.4,8.9-83.6,26.8
					c-2.9-3.4-6-6.7-9.3-9.9c-34.4-34.4-76-51.6-124.7-51.6c-2.8,0-5.6,0.1-8.4,0.2c0.5-3.7,0.7-7.5,0.7-11.4
					c0-23.3-8.2-43.1-24.7-59.6c-16.5-16.4-36.3-24.6-59.6-24.6s-43.1,8.2-59.6,24.6c-7,7.1-12.6,14.8-16.6,23.1
					c-24.5-12.9-51.6-19.3-81.4-19.3c-48.7,0-90.2,17.2-124.6,51.6c-25,25-41,53.8-47.8,86.4c-10.8-2.5-22.1-3.8-34-3.8
					c-33.8,0-63.4,10.3-88.7,30.8c-3.2-33-16.9-61.6-41.1-85.9c-16.3-16.3-34.6-27.8-54.8-34.5c3.3-13.7,4.9-28.1,4.9-43.1
					c0-48.7-17.2-90.2-51.6-124.7c-34.4-34.4-76-51.6-124.7-51.6c-44.7,0-83.4,14.5-116,43.6c-20.4-11.3-43.2-17-68.4-17
					c-39.4,0-73.1,13.9-100.9,41.8c-25.2,25.2-39,55.1-41.5,89.8c-12.8-7.8-27.1-11.6-43.1-11.6c-10.4,0-20.1,1.6-29.1,4.9
					c-4.9-38.1-21.6-71.4-50-99.8c-34.4-34.4-76-51.6-124.6-51.6c-39.3,0-73.9,11.2-103.9,33.7c-6-24.5-18.6-46.2-37.6-65.3
					c-27.9-27.9-61.6-41.8-101-41.8c-7,0-13.8,0.4-20.5,1.3c11.6-23.5,17.5-49.4,17.5-77.6c0-48.7-17.2-90.2-51.6-124.7
					c-34.4-34.4-76-51.6-124.7-51.6c-24,0-46.3,4.2-66.8,12.6V2980l5267.9-0.1V1512.7z"/>
			</g>
		</g>
	</g>
	<g transform="matrix( 1, 0, 0, 1, 0,0) " class="st0">
		<g>
			<g id="Layer2_0_FILL">
				
					<linearGradient id="SVGID_6_" gradientUnits="userSpaceOnUse" x1="2561.925" y1="12.1875" x2="2561.925" y2="1002.7125" gradientTransform="matrix(1 0 0 -1 0 2880)">
					<stop  offset="0" style="stop-color:#DEF4FF"/>
					<stop  offset="1" style="stop-color:#FFFFFF"/>
				</linearGradient>
				<path class="st5" d="M3547.5,2037.1c-48.7,0-90.2,17.2-124.6,51.6c-20.5,20.5-34.9,43.6-43.3,69.3
					c-24.3,3.5-45.5,14.4-63.6,32.6c-10.5,10.5-18.6,22-24.2,34.6c-31.4-25.7-68.1-38.5-110.2-38.5c-48.7,0-90.2,17.2-124.6,51.6
					c-15.1,15.1-26.9,31.7-35.4,49.6c-8.5-17.9-20.3-34.5-35.4-49.6c-34.4-34.4-76-51.6-124.6-51.6c-27.8,0-53.3,5.6-76.5,16.9
					c-7-16-17.1-30.6-30.4-43.9c-27.9-27.9-61.6-41.8-100.9-41.8c-39.4,0-73.1,13.9-100.9,41.8c-18.3,18.3-30.7,39.2-36.9,62.6
					c-25.8,2.9-48.3,13.9-67.4,33.1c-16.6,16.6-27.1,35.6-31.4,57.3c-32.6-28.8-71.2-43.2-115.7-43.2c-48.7,0-90.2,17.2-124.6,51.6
					c-5.9,5.9-11.3,12-16.2,18.4c-4.7-28.9-18-54.3-39.8-76.1c-27.9-27.9-61.6-41.8-100.9-41.8c-31.6,0-59.4,8.9-83.6,26.8
					c-2.9-3.4-6-6.7-9.3-9.9c-34.4-34.4-76-51.6-124.7-51.6c-2.8,0-5.6,0.1-8.4,0.2c0.5-3.7,0.7-7.5,0.7-11.4
					c0-23.3-8.2-43.1-24.7-59.6c-16.5-16.4-36.3-24.6-59.6-24.6s-43.1,8.2-59.6,24.6c-7,7.1-12.6,14.8-16.6,23.1
					c-24.5-12.9-51.6-19.3-81.4-19.3c-48.7,0-90.2,17.2-124.6,51.6c-25,25-41,53.8-47.8,86.4c-10.8-2.5-22.1-3.8-34-3.8
					c-33.8,0-63.4,10.3-88.7,30.8c-3.2-33-16.9-61.6-41.1-85.9c-16.3-16.3-34.6-27.8-54.8-34.5c3.3-13.7,4.9-28.1,4.9-43.1
					c0-48.7-17.2-90.2-51.6-124.7c-34.4-34.4-76-51.6-124.7-51.6c-44.7,0-83.4,14.5-116,43.6c-20.4-11.3-43.2-17-68.4-17
					c-39.4,0-73.1,13.9-100.9,41.8c-25.2,25.2-39,55.1-41.5,89.8c-12.8-7.8-27.1-11.6-43.1-11.6c-10.4,0-20.1,1.6-29.1,4.9
					c-4.9-38.1-21.6-71.4-50-99.8c-34.4-34.4-76-51.6-124.6-51.6c-39.3,0-73.9,11.2-103.9,33.7c-6-24.5-18.6-46.2-37.6-65.3
					c-27.9-27.9-61.6-41.8-101-41.8c-7,0-13.8,0.4-20.5,1.3c11.6-23.5,17.5-49.4,17.5-77.6c0-48.7-17.2-90.2-51.6-124.7
					c-34.4-34.4-76-51.6-124.7-51.6c-24,0-46.3,4.2-66.8,12.6V2983l5267.9-0.1V1515.7c-2.6-0.1-5.2-0.2-7.9-0.2
					c-48.7,0-90.2,17.2-124.6,51.6c-34.4,34.4-51.6,76-51.6,124.7c0,23.2,3.9,44.7,11.7,64.7c-23.7-12-50-17.9-78.6-17.9
					c-48.7,0-90.2,17.2-124.6,51.6c-34.4,34.4-51.6,76-51.6,124.7c0,5.1,0.2,10,0.5,14.9c-10.2-2.9-21-4.3-32.4-4.3
					c-29.7,0-55.3,9.8-76.9,29.3c-6.9-15.1-16.7-29-29.4-41.7c-27.9-27.9-61.5-41.8-100.9-41.8c-27.4,0-51.9,6.7-73.7,20.1
					c-8.6-20.5-21.4-39.3-38.4-56.3c-34.4-34.4-76-51.6-124.6-51.6c-48.7,0-90.2,17.2-124.6,51.6c-32.6,32.6-49.8,71.6-51.5,117
					c-16.4-5-33.9-7.4-52.4-7.4c-48.7,0-90.2,17.2-124.6,51.6c-31.7,31.7-48.9,69.5-51.4,113.3c-21.1-12.3-44.7-18.4-70.8-18.4
					c-39.4,0-73.1,13.9-101,41.8c-2.7,2.7-5.2,5.4-7.6,8.1c-8.5-19-20.8-36.4-36.7-52.3C3637.7,2054.3,3596.2,2037.1,3547.5,2037.1z
					"/>
			</g>
		</g>
	</g>
	<g transform="matrix( 1, 0, 0, 1, 0,0) " class="st0">
		<g>
			<g id="Layer1_0_FILL">
				<path class="st2" d="M3996.4,2121.8c-22.6-22.6-49.8-33.9-81.8-33.9c-31.9,0-59.1,11.3-81.8,33.9c-14.2,14.2-24,30.3-29.3,48.3
					c-35.7,3.1-67.3,16.2-94.7,39.2c-4.4,3.6-8.6,7.5-12.8,11.6c-20.6,20.6-35,43.7-43.3,69.4c-22.9-15.3-48.9-22.9-78.1-22.9
					c-39.4,0-73.1,13.9-101,41.8c-27.9,27.9-41.8,61.5-41.8,101c0,6.9,0.4,13.6,1.3,20.1c-25.6,6-48.9,17.7-69.7,35.2
					c-4.4,3.6-8.6,7.5-12.8,11.7c-3.6,3.6-6.9,7.2-10.1,10.9c-3.2-3.7-6.6-7.4-10.2-10.9c-4.1-4.1-8.4-8-12.7-11.7
					c-31.8-26.6-69.1-39.9-111.9-39.9c-24.2,0-46.6,4.3-67.4,12.8c-7-17.2-17.5-32.9-31.7-47.1c-27.9-27.9-61.5-41.8-100.9-41.8
					c-39.4,0-73.1,13.9-100.9,41.8c-26.2,26.2-40.1,57.5-41.7,94c-16.8-9.6-35.6-14.4-56.4-14.4c-31.9,0-59.2,11.3-81.8,33.8
					c-14.1,14-23.8,29.9-29.1,47.6c-30.7-24-66.4-36-107.1-36c-21.6,0-41.7,3.4-60.5,10.2c-8.5-17.8-20.2-34.2-35.3-49.3
					c-4.1-4.1-8.4-8-12.7-11.7c-31.8-26.6-69.1-39.9-111.9-39.9s-80.1,13.3-111.9,39.9c-4.4,3.6-8.6,7.5-12.8,11.7
					c-5.4,5.4-10.4,11-14.9,16.8c-20-15.4-43.1-23.1-69.4-23.1c-31.9,0-59.2,11.3-81.8,33.8s-33.9,49.8-33.9,81.8
					c0,4.9,0.3,9.8,0.8,14.5c-16.2-4.8-33.3-7.1-51.4-7.1c-42.8,0-80.1,13.3-111.9,39.9c-4.4,3.6-8.6,7.5-12.8,11.7
					c-5.9,5.9-11.3,12.1-16.3,18.5c-1.9-2.3-3.8-4.4-5.9-6.6c-16.5-16.4-36.3-24.7-59.6-24.7c-20,0-37.4,6.1-52.4,18.2
					c0-1.9,0.1-3.8,0.1-5.7c0-48.7-17.2-90.2-51.7-124.6c-4.1-4.1-8.4-8-12.7-11.6c-31.8-26.6-69.1-40-111.9-40
					c-23.6,0-45.6,4.1-65.8,12.2c-3.4-15.1-10.9-28.4-22.5-40.1c-16.5-16.4-36.3-24.6-59.6-24.6s-43.1,8.2-59.6,24.6
					c-16.5,16.5-24.7,36.3-24.7,59.6c0,3.6,0.2,7.1,0.6,10.4c-2-0.1-3.9-0.2-5.9-0.2c-31.9,0-59.2,11.3-81.8,33.9
					c-11.6,11.6-20.3,24.4-25.9,38.6c-1.7-1.9-3.5-3.8-5.3-5.6c-27.9-27.9-61.5-41.8-101-41.8c-32.8,0-61.6,9.7-86.4,29
					c-6.7-33.1-22.7-62.4-48.1-87.8c-4.1-4.1-8.4-8-12.7-11.7c-31.8-26.6-69.1-39.9-111.9-39.9c-42.8,0-80.1,13.3-111.9,39.9
					c-4.4,3.6-8.6,7.5-12.8,11.7c-26.9,27-43.3,58.3-49.2,94c-18.2-6.3-37.7-9.4-58.5-9.4c-28.2,0-54,5.8-77.5,17.4
					c-2.4-34.6-16.2-64.5-41.4-89.7c-27.9-27.9-61.5-41.8-100.9-41.8c-39.4,0-73.1,13.9-101,41.8c-8.9,8.9-16.4,18.4-22.4,28.5
					c-8.3-1.1-16.7-1.7-25.5-1.7c-32.4,0-61.6,7.6-87.6,22.9c-7.6-29.6-23-56-46.1-79.1c-4.1-4.1-8.4-8-12.7-11.6
					c-31.8-26.6-69.1-39.9-111.9-39.9c-24.5,0-47.1,4.3-68,13v447.3h5267.2v-540.6c-13.2,6.2-25.7,14.2-37.4,24
					c-4.4,3.6-8.6,7.5-12.8,11.7c-12.8,12.8-23.2,26.6-31.2,41.3c-1.3-1.4-2.7-2.8-4-4.1c-4.1-4.1-8.4-8-12.7-11.6
					c-31.8-26.6-69.1-40-111.9-40s-80.1,13.3-111.9,40c-4.4,3.6-8.6,7.5-12.8,11.6c-8.1,8.1-15.3,16.7-21.5,25.6
					c5.1-14.8,7.7-30.7,7.7-47.6c0-39.4-13.9-73.1-41.8-100.9c-27.9-27.9-61.5-41.8-101-41.8c-11.1,0-21.7,1.1-31.9,3.3
					c3.2-13.5,4.8-27.7,4.8-42.5c0-48.7-17.2-90.2-51.6-124.6c-4.1-4.1-8.4-8-12.7-11.6c-31.8-26.6-69.1-40-111.9-40
					c-42.8,0-80.1,13.3-111.9,40c-4.4,3.6-8.6,7.5-12.8,11.6c-34.4,34.4-51.6,76-51.6,124.6c0,10.5,0.8,20.6,2.4,30.4
					c-16.2-8.7-34.3-13.1-54.1-13.1c-31.9,0-59.1,11.3-81.8,33.9c-11.8,11.8-20.5,24.9-26.1,39.3c-2.8-3.2-5.7-6.4-8.8-9.4
					c-27.9-27.9-61.5-41.8-100.9-41.8c-7.6,0-15,0.5-22.2,1.6c3.2-10.8,4.9-22.2,4.9-34.3C4030.3,2171.6,4019,2144.4,3996.4,2121.8z
					"/>
			</g>
		</g>
	</g>
	<g transform="matrix( 1, 0, 0, 1, 0,0) " class="st0">
		<g>
			<g id="Layer0_0_FILL">
				
					<linearGradient id="SVGID_7_" gradientUnits="userSpaceOnUse" x1="2556.8" y1="-285.075" x2="2556.8" y2="755.7749" gradientTransform="matrix(1 0 0 -1 0 2880)">
					<stop  offset="0" style="stop-color:#DEF4FF"/>
					<stop  offset="1" style="stop-color:#FFFFFF"/>
				</linearGradient>
				<path class="st6" d="M5190.4,3112.1v-781.4c-13.2,6.2-25.7,14.2-37.4,24.1c-4.4,3.6-8.6,7.5-12.8,11.6
					c-12.8,12.8-23.2,26.6-31.2,41.4c-1.3-1.4-2.7-2.8-4-4.1c-4.1-4.1-8.4-8-12.7-11.7c-31.8-26.6-69.1-39.9-111.9-39.9
					c-42.8,0-80.1,13.3-111.9,39.9c-4.4,3.6-8.6,7.5-12.8,11.7c-8.1,8.1-15.3,16.7-21.5,25.6c5.1-14.8,7.7-30.6,7.7-47.6
					c0-39.4-13.9-73.1-41.8-100.9c-27.9-27.9-61.5-41.8-101-41.8c-11.1,0-21.8,1.1-31.9,3.4c3.2-13.5,4.8-27.7,4.8-42.5
					c0-48.7-17.2-90.2-51.6-124.6c-4.1-4.1-8.4-8-12.7-11.7c-31.8-26.6-69.1-39.9-111.9-39.9s-80.1,13.3-111.9,39.9
					c-4.4,3.6-8.6,7.5-12.8,11.7c-34.4,34.4-51.6,76-51.6,124.6c0,10.5,0.8,20.6,2.4,30.4c-16.2-8.7-34.3-13.1-54.1-13.1
					c-31.9,0-59.1,11.3-81.8,33.8c-11.8,11.8-20.5,24.9-26.1,39.3c-2.8-3.2-5.7-6.4-8.8-9.4c-27.9-27.9-61.5-41.8-101-41.8
					c-7.6,0-15,0.5-22.1,1.6c3.2-10.8,4.9-22.2,4.9-34.3c0-31.9-11.3-59.2-33.9-81.8s-49.8-33.8-81.8-33.8
					c-31.9,0-59.2,11.3-81.8,33.8c-14.2,14.2-24,30.3-29.3,48.3c-35.7,3.1-67.3,16.2-94.7,39.2c-4.4,3.6-8.6,7.5-12.8,11.6
					c-20.6,20.6-35,43.7-43.3,69.4c-22.9-15.3-48.9-22.9-78.1-22.9c-39.4,0-73,13.9-100.9,41.8c-27.9,27.9-41.8,61.5-41.8,100.9
					c0,6.9,0.4,13.6,1.3,20.1c-25.6,6-48.9,17.7-69.7,35.2c-4.4,3.6-8.6,7.5-12.8,11.6c-3.6,3.6-7,7.2-10.2,11
					c-3.2-3.7-6.6-7.4-10.1-11c-4.1-4.1-8.4-8-12.7-11.6c-31.8-26.6-69.1-39.9-111.9-39.9c-24.2,0-46.6,4.3-67.3,12.8
					c-7-17.2-17.5-32.9-31.7-47.1c-27.9-27.9-61.5-41.8-101-41.8c-39.4,0-73.1,13.9-100.9,41.8c-26.2,26.2-40.1,57.5-41.6,94
					c-16.8-9.6-35.6-14.4-56.4-14.4c-31.9,0-59.2,11.3-81.8,33.9c-14.1,14-23.8,29.9-29.1,47.6c-30.7-24-66.4-36-107.1-36
					c-21.6,0-41.7,3.4-60.5,10.1c-8.5-17.8-20.2-34.2-35.3-49.3c-4.1-4.1-8.4-8-12.7-11.6c-31.8-26.6-69.1-39.9-111.9-39.9
					s-80.1,13.3-111.9,39.9c-4.4,3.6-8.6,7.5-12.8,11.6c-5.4,5.4-10.4,11-14.9,16.8c-20-15.4-43.1-23.1-69.4-23.1
					c-31.9,0-59.2,11.3-81.8,33.9c-22.6,22.6-33.9,49.8-33.9,81.8c0,4.9,0.3,9.8,0.9,14.5c-16.2-4.8-33.3-7.1-51.5-7.1
					c-42.8,0-80.1,13.3-111.9,39.9c-4.4,3.6-8.6,7.5-12.8,11.6c-5.9,5.9-11.3,12.1-16.3,18.5c-1.9-2.3-3.8-4.4-5.9-6.6
					c-16.5-16.4-36.3-24.6-59.6-24.6c-20,0-37.4,6.1-52.3,18.1c0-1.9,0-3.7,0-5.6c0-48.7-17.2-90.2-51.7-124.6
					c-4.1-4.1-8.4-8-12.7-11.7c-31.8-26.6-69.1-39.9-111.9-39.9c-23.6,0-45.6,4.1-65.8,12.1c-3.4-15.1-10.9-28.4-22.6-40
					c-16.5-16.4-36.3-24.7-59.6-24.7c-23.3,0-43.1,8.2-59.6,24.7c-16.5,16.5-24.7,36.3-24.7,59.6c0,3.6,0.2,7.1,0.6,10.4
					c-2-0.1-3.9-0.1-5.9-0.1c-31.9,0-59.2,11.3-81.8,33.9c-11.6,11.6-20.3,24.4-25.9,38.5c-1.7-1.9-3.5-3.8-5.3-5.6
					c-27.9-27.9-61.5-41.8-100.9-41.8c-32.8,0-61.6,9.7-86.5,29c-6.7-33.1-22.7-62.4-48.1-87.8c-4.1-4.1-8.4-8-12.7-11.6
					c-31.8-26.6-69.1-39.9-111.9-39.9c-42.8,0-80.1,13.3-111.9,39.9c-4.4,3.6-8.6,7.5-12.8,11.6c-26.9,27-43.3,58.3-49.2,94.1
					c-18.2-6.3-37.7-9.4-58.5-9.4c-28.2,0-54,5.8-77.4,17.3c-2.4-34.6-16.2-64.5-41.4-89.6c-27.9-27.9-61.5-41.8-101-41.8
					c-39.4,0-73,13.9-100.9,41.8c-8.9,8.9-16.4,18.4-22.4,28.4c-8.3-1.1-16.8-1.6-25.5-1.6c-32.4,0-61.6,7.6-87.6,22.8
					c-7.6-29.6-23-56-46.1-79.1c-4.1-4.1-8.4-8-12.7-11.7c-31.8-26.6-69.1-39.9-111.9-39.9c-24.5,0-47.1,4.4-68,13.1v688.1H5190.4z"
					/>
			</g>
		</g>
	</g>
</g>
</svg>
