<svg xmlns="http://www.w3.org/2000/svg" xmlns:xlink="http://www.w3.org/1999/xlink" width="477px" height="86px" viewBox="0 0 477 86" version="1.1" style="">
    <title>0E6A6B72-FD33-473B-AC14-741A9929A1F5</title>
    <defs>
        <polygon id="path-1" points="0 0 401.378049 0 477 0 477 86 0 86"/>
    </defs>
    <g id="Page-2" stroke="none" stroke-width="1" fill="none" fill-rule="evenodd">
        <g id="Backgrounds" transform="translate(-60.000000, -524.000000)">
            <g id="Group" transform="translate(60.000000, 524.000000)">
                <mask id="mask-2" fill="#FFF">
                    <use xlink:href="#path-1"/>
                </mask>
                <use id="Mask" fill="none" xlink:href="#path-1"/>
                <g id="Elements/Background/Cards/Desktop" mask="url(#mask-2)">
                    <g transform="translate(-4.000000, -46.000000)"/>
                </g>
                <g id="Small" mask="url(#mask-2)" fill="#FFFFFF">
                    <g transform="translate(-4.000000, 10.774848)">
                        <polyline id="Fill-47" fill-opacity="0.22" points="4.35395538 60.04 4.55008085 69.5950251 24.5293262 60.0561782 8.70791075 54.7733333"/>
                        <polygon id="Fill-48" fill-opacity="0.06" points="4.35395538 36.8666667 24.6724138 27.3866667 4.35395538 15.8"/>
                        <polygon id="Fill-49" fill-opacity="0.24" points="4.35395538 69.52 4.35395538 74.7866667 29.0263692 74.7866667 24.5293262 60.0561782"/>
                        <polygon id="Fill-55" fill-opacity="0.11" points="4.35395538 36.8666667 33.3803245 46.3466667 24.6724138 27.3866667"/>
                        <polygon id="Fill-56" fill-opacity="0.22" points="24.5293262 60.0561782 33.3803245 46.3466667 8.70791075 54.7733333"/>
                        <polygon id="Fill-57" fill-opacity="0.17" points="4.35395538 36.8666667 8.70791075 54.7733333 33.3803245 46.3466667"/>
                        <polygon id="Fill-61" fill-opacity="0.04" points="33.3803245 46.3466667 53.698783 64.2533333 50.796146 46.3466667"/>
                        <polyline id="Fill-66" fill-opacity="0.14" points="24.5293262 60.0561782 29.0263692 74.7866667 53.698783 64.2533333 24.6724138 60.04"/>
                        <polygon id="Fill-67" fill-opacity="0.08" points="24.6724138 60.04 53.698783 64.2533333 33.3803245 46.3466667"/>
                        <polyline id="Fill-42" fill-opacity="0" points="53.6773131 63.4106397 73.8872053 78.8378544 80.5233297 61.8225102 53.6773131 63.4106397"/>
                        <polygon id="Fill-42" fill-opacity="0.16" transform="translate(50.215619, 68.940667) scale(1, -1) translate(-50.215619, -68.940667) " points="53.698783 73.628 66.7606491 64.2533333 33.6705882 65.096"/>
                        <polygon id="Fill-42" fill-opacity="0.16" transform="translate(48.670866, 73.684691) scale(-1, 1) translate(-48.670866, -73.684691) " points="68.3153628 74.7866667 72.5659229 72.5827153 24.775809 73.7333333 29.1297644 74.7866667"/>
                        <polygon id="Fill-21" fill-opacity="0.06" points="69.663286 54.7733333 81.2738337 41.08 65.3308419 37.2109261"/>
                        <polygon id="Fill-22" fill-opacity="0.06" points="24.6724138 27.3866667 33.3803245 46.3466667 42.9590264 27.3866667"/>
                        <polyline id="Fill-23" fill-opacity="0.01" points="64.4478523 21.0024664 65.3308419 37.2109261 80.3391916 40.1787375 64.4478523 21.0024664"/>
                        <polygon id="Fill-43" fill-opacity="0.03" points="49.3448276 66.36 80.3391916 63.6923446 69.663286 54.7733333"/>
                        <polyline id="Fill-45" fill-opacity="0.03" points="-1.05700438e-13 13.4690447 24.7197513 28.7642846 27.6625553 15.295362 -1.05700438e-13 13.4690447"/>
                        <polyline id="Fill-46" fill-opacity="0.01" points="27.6625553 15.29524 24.7197513 28.7642846 44.1423895 26.9379673 27.6625553 15.29524"/>
                        <polyline id="Fill-50" fill-opacity="0.02" points="27.6625553 15.29524 44.1423895 26.9379673 49.1451727 -3.92930133e-14 27.6625553 15.29524"/>
                        <polyline id="Fill-51" fill-opacity="0.01" points="13.2427004 5.93550086 -1.05700438e-13 13.4690447 27.6625553 15.295362 13.2427004 5.93550086"/>
                        <polyline id="Fill-58" fill-opacity="0.01" points="22.659772 -1.21621232e-14 27.6625553 15.29524 49.1451727 -1.21621232e-14 22.659772 -1.21621232e-14"/>
                        <polyline id="Fill-62" fill-opacity="0.05" points="50.9109869 46.5707872 53.698783 64.2533333 69.663286 54.7733333 50.796146 46.3466667"/>
                        <polygon id="Fill-63" fill-opacity="0.1" points="33.3803245 46.3466667 50.796146 46.3466667 43.5395538 26.3333333"/>
                        <polyline id="Fill-71" fill-opacity="0.02" points="49.1451727 -3.92930133e-14 44.1423895 26.9379673 64.4478523 21.0024664 49.1451727 -3.92930133e-14"/>
                        <polygon id="Fill-73" fill-opacity="0.07" points="43.5395538 26.3333333 50.796146 46.3466667 65.3093306 36.8666667"/>
                        <polygon id="Fill-74" fill-opacity="0.04" points="43.5395538 26.3333333 65.3093306 36.8666667 63.8580122 21.0666667"/>
                        <polyline id="Fill-1" fill-opacity="0.02" points="64.4478523 21.0024664 80.3391916 40.1787375 80.3391916 16.2084597 64.4478523 21.0024664"/>
                        <polygon id="Fill-7" fill-opacity="0.04" points="79.8225152 63.2 79.8225152 40.0266667 69.663286 54.7733333"/>
                        <polygon id="Fill-75" fill-opacity="0.04" points="50.796146 46.3466667 69.663286 54.7733333 65.3093306 36.8666667"/>
                        <polyline id="Fill-44" fill-opacity="0.04" points="22.659772 5.61328761e-15 13.2427004 5.93550086 27.6625553 15.295362 22.659772 5.61328761e-15"/>
                        <polyline id="Fill-70" fill-opacity="0.04" points="49.1451727 1.4968767e-14 64.4478523 21.0024664 68.5678109 6.62032412 49.1451727 1.4968767e-14"/>
                        <polyline id="Fill-6" fill-opacity="0.06" points="68.5678109 6.62032412 64.4478523 21.0024664 80.3391916 16.2084597 68.5678109 6.62032412"/>
                        <polyline id="Fill-5" fill-opacity="0.02" points="70.4277485 7.33782772 58.6563678 13.9581518 70.4277485 23.5462874 70.4277485 7.33782772"/>
                    </g>
                </g>
                <g id="Big" mask="url(#mask-2)" fill="#FFFFFF">
                    <g transform="translate(339.595335, 37.500000) scale(-1, -1) rotate(90.000000) translate(-339.595335, -37.500000) translate(256.095335, -111.000000)">
                        <polygon id="Fill-47" fill-opacity="0.12" points="14.7875254 246.100707 38.0086207 229.309187 14.7875254 217.765018"/>
                        <polygon id="Fill-48" fill-opacity="0.06" points="14.7875254 132.757951 36.5573022 112.818021 14.7875254 91.8286219"/>
                        <polygon id="Fill-48" fill-opacity="0.06" transform="translate(33.131447, 82.255970) rotate(-27.000000) translate(-33.131447, -82.255970) " points="24.3522349 59.0801845 12.441 82.4572991 22.3090254 111.042263 53.8218939 81.1628118 27.2109313 53.469677"/>
                        <polygon id="Fill-48" fill-opacity="0.06" transform="translate(23.229076, 45.334683) rotate(-47.000000) translate(-23.229076, -45.334683) " points="27.9853949 29.3569799 7.26198378 48.6818734 12.86976 61.3123858 39.1961674 36.7626137"/>
                        <polygon id="Fill-49" fill-opacity="0.1" points="35.2251521 246.100707 35.2251521 285.980565 53.2251521 285.774848 38.0086207 229.309187"/>
                        <polygon id="Fill-55" fill-opacity="0.06" points="36.5573022 112.818021 14.7875254 132.757951 14.7875254 153.74735 55.4244422 177.885159"/>
                        <polygon id="Fill-56" fill-opacity="0.08" points="14.7875254 211.468198 14.7875254 217.765018 38.0086207 229.309187 55.4244422 177.885159 14.7875254 204.121908"/>
                        <polygon id="Fill-57" fill-opacity="0.16" points="14.7908741 204.121908 55.4244422 177.885159 14.7875254 153.74735"/>
                        <polygon id="Fill-61" fill-opacity="0.07" points="55.4244422 177.885159 107.671907 242.952297 99.20121 176.594057"/>
                        <polygon id="Fill-66" fill-opacity="0.07" points="53.2251521 285.774848 107.225152 242.774848 38.0086207 229.309187"/>
                        <polygon id="Fill-67" fill-opacity="0.12" points="38.0086207 229.309187 107.671907 242.952297 55.4244422 177.885159"/>
                        <polyline id="Fill-42" fill-opacity="0.02" points="104.503644 241.183764 151.055777 296.93098 166.341645 235.444958 104.503644 241.183764"/>
                        <polygon id="Fill-42" fill-opacity="0.09" transform="translate(101.510396, 259.130357) scale(1, -1) translate(-101.510396, -259.130357) " points="107.225152 275.485866 133.795639 242.774848 69.2251521 245.485866"/>
                        <polygon id="Fill-42" fill-opacity="0.12" transform="translate(93.510396, 279.377707) scale(-1, 1) translate(-93.510396, -279.377707) " points="133.795639 285.774848 117.795639 272.774848 53.2251521 275.485866 69.1896552 285.980565"/>
                    </g>
                </g>
            </g>
        </g>
    </g>
</svg>