<?xml version="1.0" encoding="UTF-8"?>
<svg width="500px" height="500px" viewBox="0 0 500 500" version="1.1" xmlns="http://www.w3.org/2000/svg" xmlns:xlink="http://www.w3.org/1999/xlink">
    <title>SubjectGraphics/Geography/Hero</title>
    <defs>
        <radialGradient cx="77.2078465%" cy="7.07425073%" fx="77.2078465%" fy="7.07425073%" r="114.35826%" gradientTransform="translate(0.772078,0.070743),scale(1.000000,0.989658),rotate(9.997359),translate(-0.772078,-0.070743)" id="radialGradient-1">
            <stop stop-color="#00FFF7" offset="29.02%"></stop>
            <stop stop-color="#0069DE" offset="65.49%"></stop>
            <stop stop-color="#00DBFF" offset="85.49%"></stop>
        </radialGradient>
        <radialGradient cx="74.2099361%" cy="17.48141%" fx="74.2099361%" fy="17.48141%" r="94.3804469%" gradientTransform="translate(0.742099,0.174814),scale(1.000000,0.991919),rotate(9.997359),translate(-0.742099,-0.174814)" id="radialGradient-2">
            <stop stop-color="#2ABEFF" offset="29.02%"></stop>
            <stop stop-color="#286BDE" offset="65.49%"></stop>
            <stop stop-color="#2694F5" offset="85.49%"></stop>
        </radialGradient>
        <radialGradient cx="77.4194842%" cy="14.4930658%" fx="77.4194842%" fy="14.4930658%" r="109.212003%" gradientTransform="translate(0.774195,0.144931),scale(0.998608,1.000000),rotate(9.997359),translate(-0.774195,-0.144931)" id="radialGradient-3">
            <stop stop-color="#F9FF8E" offset="29.02%"></stop>
            <stop stop-color="#E5B61B" offset="65.49%"></stop>
            <stop stop-color="#EEFF5B" offset="85.49%"></stop>
        </radialGradient>
    </defs>
    <g id="Symbols" stroke="none" stroke-width="1" fill="none" fill-rule="evenodd">
        <g id="Icon" transform="translate(-0.000000, 0.000000)">
            <g id="Group" transform="translate(83.080068, 31.874217)"></g>
            <path d="M257,434.4 C242.6,430.7 225.4,428.9 205.3,429.3 C185.2,429.7 167.9,432 153.9,436.3 C139.7,440.7 132.7,445.7 132.798944,451.4 C132.9,457.1 140.1,461.9 154.5,465.8 C168.9,469.6 186,471.4 206.1,471 C226.2,470.6 243.5,468.3 257.6,463.9 C271.8,459.5 278.8,454.5 278.701056,448.8 C278.6,443.1 271.4,438.3 257,434.4 Z" id="Path" fill="#3339E0" fill-rule="nonzero"></path>
            <polygon id="Path" fill="#0B0B51" fill-rule="nonzero" points="357.306561 49.113446 352.136963 45.3737366 133.693933 341.250751 138.863531 344.99046"></polygon>
            <path d="M341.8,71.9 C340.2,70.4 338.5,68.9 336.9,67.5 C306.1,41.6 270.3,29.7 229.7,32.2 C195.2,34.2 165.5,45.8 140.3,67.1 C134.1,72.3 128.3,77.9 122.7,84.2 C112.5,95.6 104.4,107.6 98.1,120.4 C86.8,143.7 81.7,169.3 83.4,197.2 C85.8,240.3 103.1,276.4 135,305.3 C167,334.2 204.4,347.4 247.3,344.9 C271.1,343.6 292.7,337.7 312.2,327 C327.7,318.5 341.7,307.1 354.3,292.9 C358.8,287.7 363,282.6 366.7,277.3 C386.7,248.7 395.6,216.1 393.5,179.7 C392.2,157 386.9,136.1 377.4,117.3 C368.8,100.7 356.9,85.4 341.8,71.9 Z" id="Path" fill="#00E9FF" fill-rule="nonzero"></path>
            <polygon id="Path" fill="#202072" fill-rule="nonzero" points="196.028857 365.37876 187.559515 413.00506 209.777789 416.854761 218.247131 369.118469"></polygon>
            <path d="M387.9,75.8 C387.5,75.3 387.1,74.7 386.7,74 C379.7,64.7 372.2,56.2 364.1,48.6 L364,48.6 C363.5,48.2 363,47.7 362.6,47.3 C359.1,44.3 355.6,41.4 352.1,38.6 C347.7,36.1 343.8,36.5 340.1,40 C336.4,44.9 336.5,49.3 340.3,53.2 C343.7,55.7 347.1,58.6 350.5,61.4 C350.9,61.8 351.7,62.5 352.6,63.4 C359.5,70 366.1,77.3 372,85.3 C372.3,85.8 372.8,86.3 373.1,86.8 C374.2,88.3 375.2,89.7 376.2,91.2 C388.7,109.3 397.4,128.2 402.3,147.9 C407.7,170.1 408.2,193.2 403.9,217.5 C397.1,256.3 379.6,288.3 351.7,313.5 C346.3,318.2 340.8,322.7 334.8,327 C317.9,338.9 300.3,347.3 282.1,352.5 C259.2,358.9 234.9,359.9 209.6,355.4 C186.8,351.3 166.4,343.5 148.3,331.9 C145.4,330.1 142.6,328.3 140,326.2 C135.5,323.5 131.4,324 127.9,327.7 C124.5,332.1 124.5,336.3 127.8,340 C131.2,342.9 134.6,345.5 138.1,347.9 C158.2,360.8 180.9,369.5 206.3,374 C234.5,378.9 261.4,378 287,370.9 C307.3,365.3 326.8,355.9 345.6,342.7 C352.2,338 358.5,332.9 364.4,327.9 C395.5,299.9 414.9,264.4 422.6,221.3 C427.3,194.4 426.8,168.6 420.7,143.9 C415.3,121.8 405.7,100.9 391.7,80.8 C390.1,79 388.9,77.4 387.9,75.8 Z" id="Shape" fill="#3331C9" fill-rule="nonzero"></path>
            <path d="M240.65,427.75 C241.15,424.65 240.55,421.85 238.65,419.15 C236.85,416.65 234.45,415.05 231.45,414.55 L167.55,403.35 C164.45,402.85 161.65,403.45 159.05,405.25 C156.55,407.15 154.95,409.55 154.45,412.65 C153.95,415.75 154.55,418.55 156.35,420.95 C158.25,423.45 160.55,425.15 163.55,425.65 L227.45,436.85 C230.55,437.35 233.45,436.75 235.95,434.85 C238.65,433.25 240.15,430.65 240.65,427.75 Z" id="Path" fill="#202072" fill-rule="nonzero"></path>
            <path d="M338.2,76.8 C336.6,75.3 335.1,73.9 333.5,72.5 C303.9,47.7 269.6,36.4 230.6,38.5 C197.6,40.5 168.9,51.6 144.8,72.1 C138.9,77 133.3,82.5 127.9,88.7 C118.1,99.6 110.3,111.2 104.4,123.5 C93.5,146 88.8,170.6 90.1,197.5 C92.4,239 109,273.5 139.7,301.3 C170.5,329 206.4,341.7 247.5,339.4 C270.3,338.1 291.1,332.5 309.7,322.3 C324.6,314.1 338.1,303.2 350.2,289.5 C354.5,284.6 358.4,279.5 362.2,274.6 C381.3,247.1 389.9,215.8 387.9,180.9 C386.7,159 381.6,139 372.4,121 C364.1,104.6 352.8,89.9 338.2,76.8 Z" id="Path" fill="url(#radialGradient-1)" fill-rule="nonzero"></path>
            <path d="M310.5,93 L300.8,86 L257.4,88.4 C254.3,88.5 249.8,89.7 243.7,92 L243.4,94.1 C243,99.5 243.8,102.8 245.9,104 L249.9,106.9 C252.1,108.5 254.1,108.3 255.7,106 L257.5,103.7 L271.5,113.9 C273.5,115.9 273.6,117.6 272,119.6 L265,129.5 L271.9,189.9 C272.2,193.9 274,195.5 277.4,194.6 L289,190.9 C290.6,190.4 291.4,189.3 291.5,187.8 L291.2,184.4 C290.9,182.8 289.9,182.1 288.2,182.3 L284.4,183.5 C282.6,183.5 282,182.6 282.1,181 L282.3,169.8 L288.7,160.9 C290.8,158.8 292.8,158.7 294.5,160.4 L305.8,168.7 C307.6,170.2 307.9,171.9 306.9,173.9 L304,178 C301.9,180.9 302.1,183.7 305.1,186.5 L308.8,189.2 C311,190.7 311.3,192.3 309.8,194 L305.7,199.7 L300.4,226.1 C303.6,228.2 306.7,227.7 309.6,224.7 L315.1,217.2 L326.5,214.5 C329.4,214.1 330.9,215.2 330.9,217.9 L330.9,246.9 C331.7,250.4 333.4,251.8 336.6,251.1 L351.3,245.4 C353.9,244.6 356.3,242.7 358.4,239.4 L365.1,230.1 C366.6,227.4 368.8,226.1 371.7,226.5 L382,228 C383.9,218.7 385.2,208.2 386.1,196.8 C387,185.4 386.3,174.5 384.1,164.4 L377.5,167.5 C374.2,168.6 371.4,167.9 369,165.6 L361.1,159.4 C358.4,157.2 357.4,154.2 358.2,150.5 L362.3,138.6 C363.3,135.6 362.5,132.8 360,130.3 L335.6,112.6 C332.1,110.2 328.7,109.7 325.4,111.3 L318.5,114.3 L311.5,109.1 C309.2,108 308.3,106.1 309,103.2 L310.5,93 M213.8,56.8 C200.4,56.5 191.2,57.6 185.8,59.8 C172.5,65.3 160.7,72.1 150.1,80.3 C145.5,83.9 141.1,87.8 136.8,91.9 C137.2,93.3 137.9,94.6 138.9,96 L144.5,108.4 L155.5,93.4 C158.7,89.7 162.2,87.5 165.9,87.2 L205.9,78 C208.9,77.9 211.5,76.2 213.5,73.1 L215.4,70.7 C216.2,67.6 215.8,63 213.8,56.8 M263,47.2 C248.8,47.2 236.7,48 226.3,49.3 C223.8,53.4 224.5,55.5 229.2,55.9 L269.7,58.6 L263,47.2 M308.3,319.5 C305.8,317.4 303,317.1 300.5,318 L286.6,321.7 L284.1,319.8 C281.9,318.4 279.5,318.8 277.3,321.1 L266.4,342.5 C281.9,340.4 297.9,334.8 314.4,326.1 L308.3,319.5 M106.8,136.8 C106.4,137.8 106,138.7 105.6,139.4 C102.9,146.1 100.4,152.9 98.7,159.7 C98.9,160.2 99.1,160.9 99.4,161.5 L100.4,170.4 L95,177.8 C93.5,188 93.2,198.1 94,208.4 C96.6,207.3 99.2,205.5 101.5,202.9 L108.3,193.4 L126.8,187.4 C131,187 134.4,184.8 137.1,180.6 L145.4,169.2 C147.4,166.2 146.8,163.1 143.8,160.1 L137.7,155.7 L145.6,122.4 L125.1,123.1 C120.4,123 116.1,125 112.5,128.7 L106.8,136.8 M249.5,192.6 L255.7,184 L259.9,187 L263.1,182.6 L260.5,149.1 C260.6,143.4 258.5,138.8 254.4,135.3 L226.3,115 C222.7,113 219.2,112.9 215.7,114.2 L197.9,120.3 C194.2,121.6 191.4,124 189.4,127.7 L181.9,138 C180.1,140.9 179.7,144.2 180.3,148 L184,165.3 C184.3,168.7 185.9,171.5 188.5,173.6 L194.2,177.8 C197.3,180.8 197.7,183.9 195.6,186.9 L154.6,243.2 C151.5,247 151.7,250.7 155.1,254 L170.1,265 C180.4,271.7 191,269.6 201.6,258.5 L211.7,244.8 C215.3,239.2 218.7,236.1 222.1,235.7 L233.7,235.7 C240.9,235.7 246.8,231.9 250.8,224.3 L256.1,217.1 C260.1,211.9 259.2,207.2 253.8,203.2 L249.7,200.2 C247.2,198.1 247,195.7 249.5,192.6 Z" id="Shape" fill="url(#radialGradient-2)" fill-rule="nonzero"></path>
            <path d="M313.7,316.2 C313.5,316.1 313.3,315.9 313,315.8 L307.5,311.8 C304.9,309.7 302.2,309.4 299.6,310.3 L285.6,314 L283.1,312 C280.9,310.6 278.6,311.1 276.4,313.4 L264.1,330.4 C263.3,332.2 263.4,333.5 264.3,334.4 C274.6,332.4 284.8,329.4 295,325.1 C301,322.7 306.6,319.9 312,317.1 C312.6,316.8 313.1,316.5 313.7,316.2 M145.2,114.7 L124.7,115.4 C120,115.3 115.7,117.3 112.1,121 L106.1,129.2 C105.7,130.1 105.3,131.1 104.9,131.8 C102,138.5 99.6,145.3 97.9,152 C98.1,152.5 98.3,153.2 98.6,153.9 L99.6,162.7 L94.2,169.9 C92.8,180.1 92.4,190.3 93.3,200.6 C95.9,199.5 98.5,197.7 100.8,195 L107.6,185.6 L126,179.5 C130.1,179.2 133.6,176.9 136.3,172.7 L144.6,161.2 C146.7,158.2 146.1,155.1 143.1,152.2 L137.1,147.8 L145.2,114.7 M225.6,41.5 C223.1,45.5 223.8,47.7 228.3,48.1 L269,50.8 L256.6,41.3 C246.2,40.1 236,40.1 225.6,41.5 M200.9,46.5 C195.5,48.1 190.4,49.9 185.1,52.2 C171.8,57.7 159.9,64.5 149.3,72.7 C144.7,76.3 140.3,80.2 136.2,84.3 C136.6,85.7 137.3,86.9 138.3,88.4 L143.9,100.8 L154.9,85.9 C158.1,82.1 161.6,80 165.3,79.6 L205.1,70.4 C208.1,70.4 210.7,68.6 212.8,65.5 L214.7,63 C215.6,60 214.7,57.1 212.1,54.7 L200.9,46.5 M259.7,141.5 C259.8,135.8 257.7,131.2 253.6,127.7 L225.7,107.4 C222.2,105.4 218.6,105.3 215.1,106.6 L197.3,112.7 C193.7,114.1 190.9,116.4 189,120.1 L181.5,130.4 C179.7,133.1 179.3,136.5 180,140.4 L183.6,157.7 C183.9,161.1 185.5,163.9 188.1,166 L193.8,170.1 C196.8,173.2 197.3,176.2 195.2,179.2 L154.2,235.6 C151.2,239.4 151.5,243 154.9,246.2 L169.8,257.2 C180.1,263.9 190.8,261.8 201.4,250.8 L211.4,237 C214.9,231.4 218.4,228.3 221.8,227.9 L233.4,227.9 C240.8,227.9 246.5,224.1 250.5,216.5 L255.9,209.3 C259.7,204.1 259,199.5 253.6,195.4 L249.5,192.4 C246.4,190.3 246.2,187.8 248.7,184.8 L254.9,176.2 L259.1,179.2 L262.3,174.8 L259.7,141.5 M309.8,85.3 L300.1,78.3 L256.7,80.6 C253.7,80.6 251,81.9 248.8,84.3 L244,91 C242.7,93.1 243.1,94.8 245.2,96 L249.2,98.9 C251.4,100.7 253.4,100.4 255,98.1 L256.9,95.7 L270.9,105.9 C272.9,107.9 273,109.7 271.3,111.6 L264.3,121.5 L271.2,181.8 C271.5,185.8 273.3,187.4 276.7,186.6 L288.3,182.9 C289.9,182.4 290.7,181.3 290.8,179.8 L290.5,176.4 C290.2,174.8 289.2,174.1 287.5,174.3 L283.7,175.5 C282.1,175.5 281.3,174.6 281.3,173 L281.5,161.7 L287.9,152.9 C290,150.8 292,150.7 293.7,152.4 L305,160.7 C306.9,162.2 307.1,163.9 306.1,165.9 L303.2,170 C301,172.9 301.3,175.7 304.3,178.3 L308,180.9 C310.2,182.5 310.4,184.1 308.9,185.8 L304.8,191.5 L299.6,217.9 C302.8,220 305.8,219.7 308.7,216.5 L314.2,209 L325.7,206.3 C328.6,205.9 330,207.1 330,209.8 L330,238.7 C330.8,242.2 332.5,243.6 335.7,242.8 L350.4,237.1 C353.1,236.4 355.6,234.5 357.6,231.1 L364.3,221.8 C365.8,219.1 368,217.8 370.9,218.2 L383.7,219 C386.1,208.1 387.3,197.2 387.2,186.2 C387.1,176.2 385.8,166.4 383.5,156.5 L376.8,159.6 C373.6,160.7 370.8,160 368.5,157.8 L360.4,151.8 C357.5,149.7 356.6,146.6 357.4,142.8 L361.6,131.1 C362.5,128.1 361.7,125.3 359.2,122.8 L334.8,105 C331.4,102.6 328,102.1 324.6,103.7 L317.8,106.8 L310.7,101.6 C308.4,100.5 307.5,98.6 308.2,95.7 L309.8,85.3 Z" id="Shape" fill="url(#radialGradient-3)" fill-rule="nonzero"></path>
            <path d="M148.3,332 C145.4,330.2 142.6,328.4 140.1,326.2 C135.6,323.5 131.5,324 127.9,327.7 C124.5,332.1 124.5,336.3 127.9,340 C131.2,342.9 134.6,345.5 138.2,347.9 C158.3,360.8 181.1,369.5 206.4,374 C234.6,378.9 261.5,378 287.1,370.9 C307.4,365.3 326.9,355.9 345.7,342.7 C352.3,338 358.6,332.9 364.5,327.9 C367.4,325.4 370.1,322.6 372.7,320 L359,307.2 C356.8,309.4 354.4,311.7 352.1,313.8 C346.7,318.5 341.2,323 335.2,327.3 C318.3,339.2 300.7,347.6 282.5,352.8 C259.6,359.2 235.3,360.2 210,355.7 C186.8,351.5 166.4,343.7 148.3,332 Z" id="Path" fill="#201E98" fill-rule="nonzero"></path>
            <path d="M303.922103,60.5806567 C301.010305,61.9133069 299.324528,63.9440121 298.86477,66.4823935 C298.405013,69.0842345 299.324528,71.4956969 301.623315,73.7802402 C303.922103,76.0647835 306.884984,77.5243528 310.614128,78.1589482 C314.241104,78.8570031 317.612659,78.4127863 320.473372,77.0166765 C323.436253,75.6840263 325.122031,73.6533211 325.581788,71.1149397 C326.041546,68.5130987 325.122031,66.1016363 322.823243,63.817093 C320.57554,61.5325497 317.561574,60.0729804 313.934599,59.438385 C310.154371,58.8672492 306.884984,59.1845469 303.922103,60.5806567 Z" id="Path" fill="#FFFFFF" fill-rule="nonzero" transform="translate(312.223279, 68.826786) rotate(14.998586) translate(-312.223279, -68.826786) "></path>
        </g>
    </g>
</svg>