<?xml version="1.0" encoding="UTF-8"?>
<svg width="40px" height="40px" viewBox="0 0 40 40" version="1.1" xmlns="http://www.w3.org/2000/svg" xmlns:xlink="http://www.w3.org/1999/xlink">
    <title>E9B94ED9-EEA6-4ECF-8DE3-5C2AAB39D48F</title>
    <g id="My-Lessons" stroke="none" stroke-width="1" fill="none" fill-rule="evenodd" opacity="0.8">
        <g id="B-05.4-FullScheduleFilter" transform="translate(-16.000000, -615.000000)" fill-rule="nonzero">
            <g id="Elements/Highlight/Expanded-Copy-10" transform="translate(16.000000, 615.000000)">
                <g id="Elements/Graphics/Style3/Photos/Black" transform="translate(8.000000, 8.000000)">
                    <g id="edit" transform="translate(2.250000, 2.250000)">
                        <path d="M13.3666406,18.890625 C13.4072656,18.890625 13.4392578,18.8789453 13.4626172,18.8555859 C13.4859766,18.8322266 13.5078125,18.8063281 13.528125,18.7778906 L13.528125,18.7778906 L14.2471875,17.7267188 C14.275625,17.68 14.2969531,17.6271875 14.3111719,17.5682813 L14.3111719,17.5682813 L15.088125,18.7778906 C15.104375,18.8063281 15.1251953,18.8322266 15.1505859,18.8555859 C15.1759766,18.8789453 15.2110156,18.890625 15.2557031,18.890625 L15.2557031,18.890625 L15.7767187,18.890625 L14.6950781,17.2788281 L15.7340625,15.8041406 L15.234375,15.8041406 C15.2039062,15.8041406 15.1785156,15.8127734 15.1582031,15.8300391 C15.1378906,15.8473047 15.1175781,15.8701563 15.0972656,15.8985938 L15.0972656,15.8985938 L14.4330469,16.8735938 C14.3985156,16.9304688 14.3721094,16.9873438 14.3538281,17.0442188 L14.3538281,17.0442188 L13.5982031,15.8864063 C13.5819531,15.86 13.5636719,15.8396875 13.5433594,15.8254688 C13.5230469,15.81125 13.4905469,15.8041406 13.4458594,15.8041406 L13.4458594,15.8041406 L12.9248437,15.8041406 L13.9638281,17.3092969 L12.8821875,18.890625 L13.3666406,18.890625 Z M17.6749219,18.939375 C17.8760156,18.939375 18.0644141,18.9094141 18.2401172,18.8494922 C18.4158203,18.7895703 18.5696875,18.7032422 18.7017187,18.5905078 C18.83375,18.4777734 18.9378516,18.3411719 19.0140234,18.1807031 C19.0901953,18.0202344 19.1282812,17.8394531 19.1282812,17.6383594 C19.1282812,17.3722656 19.0566797,17.1508594 18.9134766,16.9741406 C18.7702734,16.7974219 18.5564844,16.6714844 18.2721094,16.5963281 C18.3878906,16.5617969 18.4925,16.5160938 18.5859375,16.4592188 C18.679375,16.4023438 18.7591016,16.3327734 18.8251172,16.2505078 C18.8911328,16.1682422 18.9419141,16.0727734 18.9774609,15.9641016 C19.0130078,15.8554297 19.0307812,15.7320313 19.0307812,15.5939063 C19.0307812,15.4253125 18.9992969,15.2719531 18.9363281,15.1338281 C18.8733594,14.9957031 18.7855078,14.8778906 18.6727734,14.7803906 C18.5600391,14.6828906 18.4254687,14.6077344 18.2690625,14.5549219 C18.1126562,14.5021094 17.9420312,14.4757031 17.7571875,14.4757031 C17.5703125,14.4757031 17.3961328,14.5026172 17.2346484,14.5564453 C17.0731641,14.6102734 16.9299609,14.6889844 16.8050391,14.7925781 C16.6801172,14.8961719 16.5770312,15.0246484 16.4957812,15.1780078 C16.4145312,15.3313672 16.3596875,15.5075781 16.33125,15.7066406 L16.33125,15.7066406 L16.6146094,15.7553906 C16.6288281,15.7574219 16.6415234,15.7589453 16.6526953,15.7599609 C16.6638672,15.7609766 16.6745312,15.7614844 16.6846875,15.7614844 C16.7354687,15.7614844 16.7771094,15.7482813 16.8096094,15.721875 C16.8421094,15.6954688 16.8664844,15.6528125 16.8827344,15.5939063 C16.9071094,15.5004688 16.9436719,15.4136328 16.9924219,15.3333984 C17.0411719,15.2531641 17.1016016,15.1841016 17.1737109,15.1262109 C17.2458203,15.0683203 17.3285937,15.023125 17.4220312,14.990625 C17.5154687,14.958125 17.6170312,14.941875 17.7267187,14.941875 C17.8364062,14.941875 17.9384766,14.9571094 18.0329297,14.9875781 C18.1273828,15.0180469 18.2091406,15.06375 18.2782031,15.1246875 C18.3472656,15.185625 18.4016016,15.2628125 18.4412109,15.35625 C18.4808203,15.4496875 18.500625,15.559375 18.500625,15.6853125 C18.500625,15.7990625 18.4818359,15.9026563 18.4442578,15.9960938 C18.4066797,16.0895313 18.34625,16.1697656 18.2629687,16.2367969 C18.1796875,16.3038281 18.0725391,16.3566406 17.9415234,16.3952344 C17.8105078,16.4338281 17.6525781,16.4541406 17.4677344,16.4561719 L17.4677344,16.4561719 L17.4677344,16.8492188 C17.6952344,16.8492188 17.8816016,16.8695313 18.0268359,16.9101563 C18.1720703,16.9507813 18.2858203,17.0066406 18.3680859,17.0777344 C18.4503516,17.1488281 18.5072266,17.233125 18.5387109,17.330625 C18.5701953,17.428125 18.5859375,17.5357813 18.5859375,17.6535938 C18.5859375,17.7490625 18.5666406,17.8455469 18.5280469,17.9430469 C18.4894531,18.0405469 18.4320703,18.1289063 18.3558984,18.208125 C18.2797266,18.2873438 18.1842578,18.3518359 18.0694922,18.4016016 C17.9547266,18.4513672 17.8211719,18.47625 17.6688281,18.47625 C17.5164844,18.47625 17.3890234,18.4539063 17.2864453,18.4092188 C17.1838672,18.3645313 17.0980469,18.3096875 17.0289844,18.2446875 C16.9599219,18.1796875 16.9050781,18.1101172 16.8644531,18.0359766 C16.8238281,17.9618359 16.7892969,17.8953125 16.7608594,17.8364063 C16.7567969,17.82625 16.7527344,17.8166016 16.7486719,17.8074609 C16.7446094,17.7983203 16.7405469,17.7896875 16.7364844,17.7815625 C16.7202344,17.745 16.6963672,17.7180859 16.6648828,17.7008203 C16.6333984,17.6835547 16.5973437,17.6749219 16.5567187,17.6749219 C16.5140625,17.6749219 16.4714062,17.6840625 16.42875,17.7023438 L16.42875,17.7023438 L16.1971875,17.7998438 C16.2479687,17.9623438 16.3099219,18.1131641 16.3830469,18.2523047 C16.4561719,18.3914453 16.5496094,18.5117969 16.6633594,18.6133594 C16.7771094,18.7149219 16.91625,18.7946484 17.0807812,18.8525391 C17.2453125,18.9104297 17.4433594,18.939375 17.6749219,18.939375 Z" id="x3" fill="#DF7B6F"></path>
                        <g id="pencil">
                            <path d="M14.2992778,0.846083333 C15.4273889,-0.282027778 17.2567778,-0.282027778 18.3848889,0.846083333 C19.513,1.97419444 19.513,3.80358333 18.3848889,4.93169444 L14.2992778,0.846083333 Z" id="Path" fill="#D75A4A"></path>
                            <polygon id="Path" fill="#ED8A19" points="15.3205 6.46352778 5.96266667 15.8217222 5.77127778 17.5453056 16.0867778 7.22944444 16.0867778 7.22944444"></polygon>
                            <polygon id="Path" fill="#ED8A19" points="3.72847222 15.5025 5.45205556 15.3111111 14.8098889 5.95291667 13.2780556 4.42108333 3.91986111 13.7789167"></polygon>
                            <polygon id="Path" fill="#ED8A19" points="12.7674444 3.91047222 12.0011667 3.14419444 12.0011667 3.14419444 1.68566667 13.4596944 3.40925 13.2683056"></polygon>
                            <polygon id="Path" fill="#C7CAC7" points="17.6186111 5.69761111 17.6186111 5.69761111 18.3848889 4.93169444 14.2992778 0.846083333 13.533 1.61236111 13.5333611 1.61236111"></polygon>
                            <polygon id="Path" fill="#C7CAC7" points="13.0223889 2.12297222 13.0223889 2.12297222 12.5117778 2.63358333 12.5117778 2.63358333 16.5973889 6.71883333 16.5973889 6.71883333 17.108 6.20822222 17.108 6.20822222"></polygon>
                            <path d="M5.20866667,16.0651111 L3.35905556,16.2705833 C3.34605556,16.2720278 3.33269444,16.27275 3.31969444,16.27275 C3.31969444,16.27275 3.31933333,16.27275 3.31933333,16.27275 L3.31933333,16.27275 L3.31933333,16.27275 C3.31897222,16.27275 3.31897222,16.27275 3.31897222,16.27275 C3.30597222,16.27275 3.29261111,16.2720278 3.27961111,16.2705833 C3.26552778,16.2691389 3.25397222,16.2611944 3.24061111,16.2579444 C3.21461111,16.2518056 3.18969444,16.2453056 3.16586111,16.23375 C3.14780556,16.2250833 3.13227778,16.2146111 3.11602778,16.2034167 C3.09544444,16.1889722 3.07666667,16.1734444 3.05933333,16.1550278 C3.04561111,16.1405833 3.03441667,16.1257778 3.02322222,16.1091667 C3.0095,16.0885833 2.99830556,16.0672778 2.98891667,16.0438056 C2.98097222,16.0243056 2.97519444,16.0051667 2.97086111,15.9842222 C2.96833333,15.9726667 2.96219444,15.9629167 2.96075,15.951 C2.95930556,15.9372778 2.96436111,15.9246389 2.96436111,15.9112778 C2.96436111,15.8975556 2.95930556,15.8852778 2.96075,15.8715556 L3.16622222,14.0219444 L1.31661111,14.2274167 C1.30325,14.2288611 1.28952778,14.2295833 1.27652778,14.2295833 C1.248,14.2295833 1.22163889,14.2209167 1.19455556,14.2144167 L0.159611111,18.56075 L0.920111111,17.80025 C1.06130556,17.6590556 1.28952778,17.6590556 1.43072222,17.80025 C1.57191667,17.9414444 1.57191667,18.1696667 1.43072222,18.3108611 L0.670222222,19.0713611 L5.01438889,18.0371389 C5.005,17.9977778 4.99886111,17.9569722 5.00355556,17.9147222 L5.20866667,16.0651111 Z" id="Path" fill="#FBCE9D"></path>
                            <path d="M1.43072222,17.80025 C1.28952778,17.6590556 1.06130556,17.6590556 0.920111111,17.80025 L0.159611111,18.56075 L0,19.2309722 L0.670222222,19.0713611 L1.43072222,18.3108611 C1.57155556,18.1696667 1.57155556,17.9414444 1.43072222,17.80025 Z" id="Path" fill="#38454F"></path>
                            <polygon id="Path" fill="#F2ECBF" points="17.6186111 5.69761111 13.5333611 1.61236111 13.533 1.61236111 13.0223889 2.12297222 13.0223889 2.12297222 17.108 6.20822222 17.108 6.20822222"></polygon>
                            <path d="M14.8098889,5.95291667 L5.45205556,15.3111111 L3.72847222,15.5025 L3.91986111,13.7789167 L13.2780556,4.42108333 L12.7674444,3.91047222 L3.40925,13.2683056 L1.68566667,13.4596944 L1.27652778,13.8688333 L1.19419444,14.2144167 C1.22127778,14.2209167 1.24727778,14.2295833 1.27616667,14.2295833 C1.28916667,14.2295833 1.30288889,14.2288611 1.31625,14.2274167 L3.16586111,14.0219444 L2.96038889,15.8715556 C2.95894444,15.8852778 2.964,15.8979167 2.964,15.9112778 C2.964,15.925 2.95894444,15.9372778 2.96038889,15.951 C2.96183333,15.9629167 2.96797222,15.9726667 2.9705,15.9842222 C2.97483333,16.0048056 2.98097222,16.0246667 2.98855556,16.0438056 C2.99794444,16.0669167 3.00913889,16.0885833 3.02286111,16.1091667 C3.03369444,16.1254167 3.04561111,16.1409444 3.05897222,16.1550278 C3.07594444,16.1730833 3.09508333,16.1889722 3.11566667,16.2034167 C3.13155556,16.2146111 3.14780556,16.2254444 3.1655,16.23375 C3.18897222,16.2449444 3.21425,16.2518056 3.24025,16.2579444 C3.25397222,16.2611944 3.26516667,16.2687778 3.27925,16.2705833 C3.29225,16.2720278 3.30525,16.27275 3.31861111,16.27275 L3.31897222,16.27275 L3.31897222,16.27275 L3.31933333,16.27275 L3.31969444,16.27275 C3.31969444,16.27275 3.32005556,16.27275 3.32005556,16.27275 L3.32005556,16.27275 C3.33269444,16.27275 3.34605556,16.2720278 3.35941667,16.2705833 L5.20902778,16.0651111 L5.00355556,17.9147222 C4.99886111,17.9573333 5.005,17.9977778 5.01438889,18.0371389 L5.36213889,17.9544444 L5.77127778,17.5456667 L5.96266667,15.8220833 L15.3205,6.46388889 L14.8098889,5.95291667 Z" id="Path" fill="#EBBA16"></path>
                            <polygon id="Path" fill="#F2ECBF" points="16.5973889 6.71883333 12.5117778 2.63358333 12.5117778 2.63358333 12.0011667 3.14419444 12.0011667 3.14419444 12.7674444 3.91047222 13.2780556 4.42108333 14.8098889 5.95291667 15.3205 6.46352778 16.0867778 7.22944444 16.0867778 7.22944444"></polygon>
                        </g>
                    </g>
                </g>
            </g>
        </g>
    </g>
</svg>