<?xml version="1.0" encoding="UTF-8"?>
<svg width="40px" height="40px" viewBox="0 0 40 40" version="1.1" xmlns="http://www.w3.org/2000/svg" xmlns:xlink="http://www.w3.org/1999/xlink">
    <title>5C0B0F17-48EE-49EC-A14E-65EDE894BF49</title>
    <g id="My-Lessons" stroke="none" stroke-width="1" fill="none" fill-rule="evenodd">
        <g id="B-05.4-FullScheduleFilter" transform="translate(-16.000000, -465.000000)" fill-rule="nonzero">
            <g id="Elements/Highlight/Expanded-Copy-7" transform="translate(16.000000, 465.000000)">
                <g id="Elements/Graphics/Style3/Photos/Black" transform="translate(8.000000, 8.000000)">
                    <g id="google-play" transform="translate(12.375000, 12.375000) rotate(-10.000000) translate(-12.375000, -12.375000) translate(2.250000, 2.250000)">
                        <circle id="Oval" fill="#EBBA16" cx="10.125" cy="10.125" r="10.125"></circle>
                        <g id="Group" transform="translate(7.331897, 4.538793)" fill="#FFFFFF">
                            <polygon id="Path" points="8.03017241 5.5862069 0.349137931 10.8232759 0.349137931 5.68152155 0.349137931 0.349137931"></polygon>
                            <path d="M0.349137931,11.1724138 C0.293275862,11.1724138 0.237064655,11.1591466 0.186090517,11.1319138 C0.0715732759,11.0715129 0,10.952806 0,10.8232759 L0,0.349137931 C0,0.219607759 0.0715732759,0.100900862 0.186090517,0.0405 C0.300607759,-0.02025 0.438866379,-0.0118706897 0.546051724,0.06075 L8.22708621,5.29781897 C8.32205172,5.36275862 8.37931034,5.47064224 8.37931034,5.5862069 C8.37931034,5.70177155 8.32205172,5.80965517 8.22673707,5.87459483 L0.545702586,11.1116638 C0.486698276,11.1518147 0.417918103,11.1724138 0.349137931,11.1724138 Z M0.698275862,1.01005603 L0.698275862,10.1627069 L7.41045259,5.5862069 L0.698275862,1.01005603 Z" id="Shape"></path>
                        </g>
                    </g>
                </g>
            </g>
        </g>
    </g>
</svg>