<?xml version="1.0" encoding="UTF-8"?>
<svg width="24px" height="24px" viewBox="0 0 24 24" version="1.1" xmlns="http://www.w3.org/2000/svg" xmlns:xlink="http://www.w3.org/1999/xlink">
    <title>292F670D-C2F8-4E69-9024-ED624D344B11</title>
    <g id="Experience" stroke="none" stroke-width="1" fill="none" fill-rule="evenodd">
        <g id="F:08-ST-Navigation" transform="translate(-273.000000, -286.000000)" fill="#202020" fill-rule="nonzero">
            <g id="*-Players/Quiz/Navigator/Expanded">
                <g id="TeachingQuestion1" transform="translate(8.000000, 273.000000)">
                    <g id="Group">
                        <g id="Elements/Graphics/Style3/Flag/Black" transform="translate(265.000000, 13.000000)">
                            <g id="Flag">
                                <g transform="translate(4.000000, 1.000000)" id="Shape">
                                    <path d="M15.9027,1.15353333 C15.7344,1.0857 11.7377333,-0.478866667 8.62803333,1.17003333 C6.16403333,2.47793333 1.83883333,1.49673333 0.733333333,1.21293333 L0.733333333,0.366666667 C0.733333333,0.1639 0.569433333,0 0.366666667,0 C0.1639,0 0,0.1639 0,0.366666667 L0,1.46666667 C0,1.4718 0.00256666667,1.4762 0.00293333333,1.48133333 C0.00293333333,1.48573333 0,1.4894 0,1.4938 L0,12.1 L0,12.4938 L0,21.6333333 C0,21.8361 0.1639,22 0.366666667,22 C0.569433333,22 0.733333333,21.8361 0.733333333,21.6333333 L0.733333333,12.9708333 C1.56676667,13.1787333 3.38323333,13.5692333 5.26826667,13.5692333 C6.5725,13.5692333 7.90826667,13.3818667 8.97196667,12.8179333 C11.7777,11.3289 15.5925,12.8194 15.6306333,12.8344333 C15.7439333,12.8799 15.8715333,12.8659667 15.9723667,12.7970333 C16.0728333,12.7292 16.1333333,12.6155333 16.1333333,12.4938 L16.1333333,1.4938 C16.1333333,1.34383333 16.0420333,1.20926667 15.9027,1.15353333 Z"></path>
                                </g>
                            </g>
                        </g>
                    </g>
                </g>
            </g>
        </g>
    </g>
</svg>