<?xml version="1.0" encoding="UTF-8"?>
<svg width="40px" height="40px" viewBox="0 0 40 40" version="1.1" xmlns="http://www.w3.org/2000/svg" xmlns:xlink="http://www.w3.org/1999/xlink">
    <title>27522224-9D1A-4952-B186-BA51F29CE0BC</title>
    <g id="Today--------------------------------------------" stroke="none" stroke-width="1" fill="none" fill-rule="evenodd">
        <g id="L---Quiz-Engine---Practice" transform="translate(-764.000000, -445.000000)" fill-rule="nonzero">
            <g id="Group" transform="translate(228.000000, 210.000000)">
                <g id="Elements/Graphics/Style3/Photos/Black" transform="translate(536.000000, 235.000000)">
                    <g id="idea" transform="translate(20.471698, 19.000000) rotate(10.000000) translate(-20.471698, -19.000000) translate(7.000000, 5.000000)">
                        <path d="M13.8084906,4.66666667 C9.15812353,4.66666667 5.38867925,8.46575758 5.38867925,13.1515152 C5.38867925,16.9108333 7.81726857,20.0937121 11.1772995,21.2078788 L11.1772995,26.4090909 L12.2297759,26.4090909 L12.2297759,28 L15.3872052,28 L15.3872052,26.4090909 L16.4396816,26.4090909 L16.4396816,21.2078788 C19.7997126,20.0937121 22.2283019,16.9108333 22.2283019,13.1515152 C22.2283019,8.46575758 18.4588576,4.66666667 13.8084906,4.66666667 Z" id="Path" fill="#EFCE4A"></path>
                        <g id="Group" fill="#EFCE4A">
                            <path d="M13.4716981,0 C13.1795472,0 12.9433962,0.235627907 12.9433962,0.527131783 L12.9433962,2.63565891 C12.9433962,2.92716279 13.1795472,3.1627907 13.4716981,3.1627907 C13.7638491,3.1627907 14,2.92716279 14,2.63565891 L14,0.527131783 C14,0.235627907 13.7638491,0 13.4716981,0 Z" id="Path"></path>
                            <path d="M26.1509434,12.6511628 L24.0377358,12.6511628 C23.7455849,12.6511628 23.509434,12.8867907 23.509434,13.1782946 C23.509434,13.4697984 23.7455849,13.7054264 24.0377358,13.7054264 L26.1509434,13.7054264 C26.4430943,13.7054264 26.6792453,13.4697984 26.6792453,13.1782946 C26.6792453,12.8867907 26.4430943,12.6511628 26.1509434,12.6511628 Z" id="Path"></path>
                            <path d="M2.90566038,12.6511628 L0.79245283,12.6511628 C0.500301887,12.6511628 0.264150943,12.8867907 0.264150943,13.1782946 C0.264150943,13.4697984 0.500301887,13.7054264 0.79245283,13.7054264 L2.90566038,13.7054264 C3.19781132,13.7054264 3.43396226,13.4697984 3.43396226,13.1782946 C3.43396226,12.8867907 3.19781132,12.6511628 2.90566038,12.6511628 Z" id="Path"></path>
                            <path d="M22.064,3.85965891 L20.5699623,5.3503876 C20.3633962,5.55649612 20.3633962,5.88964341 20.5699623,6.09575194 C20.6729811,6.19854264 20.8082264,6.25020155 20.9434717,6.25020155 C21.078717,6.25020155 21.2139623,6.19854264 21.3169811,6.09575194 L22.8110189,4.60502326 C23.0175849,4.39891473 23.0175849,4.06576744 22.8110189,3.85965891 C22.6044528,3.65355039 22.2700377,3.65407752 22.064,3.85965891 Z" id="Path"></path>
                            <path d="M5.62641509,20.2608372 L4.13237736,21.7515659 C3.92581132,21.9576744 3.92581132,22.2908217 4.13237736,22.4969302 C4.23539623,22.5997209 4.37064151,22.6513798 4.50588679,22.6513798 C4.64113208,22.6513798 4.77637736,22.5997209 4.87939623,22.4969302 L6.37343396,21.0062016 C6.58,20.800093 6.58,20.4669457 6.37343396,20.2608372 C6.16686792,20.0547287 5.83298113,20.0547287 5.62641509,20.2608372 Z" id="Path"></path>
                            <path d="M21.3169811,20.2608372 C21.1104151,20.0547287 20.7765283,20.0547287 20.5699623,20.2608372 C20.3633962,20.4669457 20.3633962,20.800093 20.5699623,21.0062016 L22.064,22.4969302 C22.1670189,22.5997209 22.3022642,22.6513798 22.4375094,22.6513798 C22.5727547,22.6513798 22.708,22.5997209 22.8110189,22.4969302 C23.0175849,22.2908217 23.0175849,21.9576744 22.8110189,21.7515659 L21.3169811,20.2608372 Z" id="Path"></path>
                            <path d="M4.87939623,3.85965891 C4.67283019,3.65355039 4.3389434,3.65355039 4.13237736,3.85965891 C3.92581132,4.06576744 3.92581132,4.39891473 4.13237736,4.60502326 L5.62641509,6.09575194 C5.72943396,6.19854264 5.86467925,6.25020155 5.99992453,6.25020155 C6.13516981,6.25020155 6.27041509,6.19854264 6.37343396,6.09575194 C6.58,5.88964341 6.58,5.55649612 6.37343396,5.3503876 L4.87939623,3.85965891 Z" id="Path"></path>
                        </g>
                        <path d="M7.9275762,13.3333333 C7.64104354,13.3333333 7.40943396,13.1041026 7.40943396,12.8205128 C7.40943396,9.42717949 10.1985936,6.66666667 13.6271408,6.66666667 C13.9136734,6.66666667 14.145283,6.89589744 14.145283,7.17948718 C14.145283,7.46307692 13.9136734,7.69230769 13.6271408,7.69230769 C10.7701045,7.69230769 8.44571843,9.99282051 8.44571843,12.8205128 C8.44571843,13.1041026 8.21410885,13.3333333 7.9275762,13.3333333 Z" id="Path" fill="#F7E6A1"></path>
                        <polygon id="Path" fill="#556080" points="10.7773585 22.6666667 10.7773585 26.4 11.8550943 26.4 11.8550943 28 15.0883019 28 15.0883019 26.4 16.1660377 26.4 16.1660377 22.6666667"></polygon>
                    </g>
                </g>
            </g>
        </g>
    </g>
</svg>