<?xml version="1.0" encoding="UTF-8"?>
<svg width="30px" height="30px" viewBox="0 0 30 30" version="1.1" xmlns="http://www.w3.org/2000/svg" xmlns:xlink="http://www.w3.org/1999/xlink">
    <g id="FINAL" stroke="none" stroke-width="1" fill="none" fill-rule="evenodd">
        <g id="C-17-NL-RecalculatingSchedule" transform="translate(-165.000000, -407.000000)" fill="#1AAFFA" fill-rule="nonzero">
            <g id="Preloader" transform="translate(160.000000, 402.000000)">
                <g id="Group" transform="translate(0.714286, 0.714286)">
                    <path d="M19.2857143,4.28571429 C27.5699855,4.28571429 34.2857143,11.001443 34.2857143,19.2857143 C34.2857143,27.5699855 27.5699855,34.2857143 19.2857143,34.2857143 C11.001443,34.2857143 4.28571429,27.5699855 4.28571429,19.2857143 C4.28571429,18.6939806 4.7654092,18.2142857 5.35714286,18.2142857 C5.94887652,18.2142857 6.42857143,18.6939806 6.42857143,19.2857143 L6.42857143,19.2857143 L6.42771429,19.2857143 L6.43218518,19.5935843 C6.59570422,26.5521596 12.2878206,32.1428571 19.2857143,32.1428571 C26.3865182,32.1428571 32.1428571,26.3865182 32.1428571,19.2857143 C32.1428571,12.1852445 26.3870599,6.42911315 19.2867166,6.42857147 C18.6939806,6.42857143 18.2142857,5.94887652 18.2142857,5.35714286 C18.2142857,4.7654092 18.6939806,4.28571429 19.2857143,4.28571429 L19.2857143,4.28571429 L19.2857143,4.28571429 Z" id="Combined-Shape" transform="translate(19.285714, 19.285714) rotate(75.000000) translate(-19.285714, -19.285714) "></path>
                    <path d="M19.1689703,10.7079987 C18.6321533,10.6498284 18.2142857,10.1951419 18.2142857,9.64285714 C18.2142857,9.05112348 18.6939806,8.57142857 19.2857143,8.57142857 L19.2857143,8.57142857 C25.2030509,8.57142857 30,13.3683777 30,19.2857143 C30,25.2030509 25.2030509,30 19.2857143,30 L19.1689703,29.993713 C18.6321533,29.9355427 18.2142857,29.4808562 18.2142857,28.9285714 C18.2142857,28.3368378 18.6939806,27.8571429 19.2857143,27.8571429 L19.2857143,27.8571429 C24.0195836,27.8571429 27.8571429,24.0195836 27.8571429,19.2857143 C27.8571429,14.551845 24.0195836,10.7142857 19.2857143,10.7142857 Z" id="Combined-Shape"></path>
                    <path d="M19.1689703,14.993713 C18.6321533,14.9355427 18.2142857,14.4808562 18.2142857,13.9285714 C18.2142857,13.3368378 18.6939806,12.8571429 19.2857143,12.8571429 L19.2857143,12.8571429 C22.8361162,12.8571429 25.7142857,15.7353123 25.7142857,19.2857143 C25.7142857,22.8361162 22.8361162,25.7142857 19.2857143,25.7142857 C15.7353123,25.7142857 12.8571429,22.8361162 12.8571429,19.2857143 L12.8634299,19.1689703 C12.9216001,18.6321533 13.3762867,18.2142857 13.9285714,18.2142857 C14.5203051,18.2142857 15,18.6939806 15,19.2857143 L15,19.2857143 C15,21.6526489 16.9187796,23.5714286 19.2857143,23.5714286 C21.6526489,23.5714286 23.5714286,21.6526489 23.5714286,19.2857143 C23.5714286,16.9187796 21.6526489,15 19.2857143,15 Z" id="Combined-Shape" transform="translate(19.285714, 19.285714) rotate(45.000000) translate(-19.285714, -19.285714) "></path>
                </g>
            </g>
        </g>
    </g>
</svg>