<svg width="100" height="100" viewBox="0 0 100 100" fill="none" xmlns="http://www.w3.org/2000/svg">
<g opacity="0.46">
<path opacity="0.82" d="M50.3211 98.119C60.1317 97.6324 67.9599 94.7222 67.806 91.619C67.6521 88.5158 59.5742 86.3947 49.7636 86.8813C39.9531 87.3679 32.1248 90.2781 32.2787 93.3813C32.4326 96.4845 40.5105 98.6057 50.3211 98.119Z" fill="black"/>
</g>
<path d="M45.1332 67.35C42.2574 66.9975 40.0494 66.1069 38.5094 64.6411C36.9138 63.1197 36.0046 61.2643 35.782 59.0192C35.6521 57.6277 35.8562 54.6405 36.32 50.0576L39.4186 21.1504L28.6572 20L25.5958 48.462C24.965 54.4364 24.8351 58.9821 25.2062 62.0992C25.4659 64.2144 26.2637 66.2924 27.5996 68.3519C28.9355 70.3929 30.8466 72.1555 33.3514 73.6027C35.7634 74.9943 39.3629 75.9776 44.1499 76.5343L45.1332 67.35Z" fill="url(#paint0_linear_3120_53163)"/>
<path d="M44.8549 67.3129C47.7308 67.5726 50.0872 67.1644 51.9055 66.0512C53.7795 64.9194 55.0597 63.2866 55.7647 61.1344C56.1729 59.7985 56.6368 56.8484 57.1192 52.2655L60.2363 23.3583L70.9976 24.5086L67.9362 52.9891C67.3054 58.9635 66.4704 63.4351 65.4314 66.4223C64.7264 68.4261 63.5203 70.3001 61.7763 72.0071C60.0507 73.714 57.8057 75.0314 55.0411 75.922C52.3879 76.7755 48.6771 76.9796 43.8716 76.5157L44.8549 67.3129Z" fill="url(#paint1_linear_3120_53163)"/>
<path d="M44.8549 67.3129L47.6195 70.5599L40.8844 73.881L36.8025 67.9252L36.2644 64.3442L39.3815 65.3462C39.4186 65.3462 41.0514 66.7377 44.8549 67.3129Z" fill="#EA658E"/>
<path d="M47.9163 70.5784C45.0219 70.2259 42.7768 69.3167 41.2183 67.8695C39.6041 66.3481 38.6764 64.4927 38.4352 62.2476C38.3053 60.8561 38.5094 57.8689 38.9732 53.286L42.0718 24.3787L31.1805 23.2284L28.1377 51.6903C27.5068 57.6648 27.3769 62.2105 27.748 65.3276C28.0078 67.4428 28.8242 69.5208 30.1786 71.5803C31.5145 73.6213 33.4627 75.3839 36.0046 76.8497C38.4352 78.2412 42.0718 79.2431 46.9329 79.7998L47.9163 70.5784Z" fill="url(#paint2_linear_3120_53163)"/>
<path d="M47.6195 70.5413C50.5325 70.801 52.9074 70.3928 54.7442 69.3167C56.6368 68.1849 57.9355 66.5521 58.6406 64.3999C59.0673 63.0825 59.5126 60.1139 60.0136 55.531L63.1121 26.6238L74.0034 27.7927L70.9419 56.2546C70.3111 62.229 69.4576 66.7006 68.4186 69.6878C67.7135 71.6916 66.489 73.5656 64.7263 75.2726C62.9637 76.9795 60.7001 78.2783 57.917 79.1689C55.2452 80.0224 51.4787 80.2265 46.6176 79.7441L47.6195 70.5413Z" fill="url(#paint3_linear_3120_53163)"/>
<path d="M60.2177 23.3954L62.9822 26.6238L74.0775 27.7185L70.9976 24.5457L60.2177 23.3954Z" fill="#DFE8EB"/>
<path d="M27.5625 30.2604L30.0302 33.9898L31.1805 23.2284L28.6757 20" fill="url(#paint4_linear_3120_53163)"/>
<path d="M59.1045 33.6558L61.8319 37.4223L62.9823 26.6238L60.2177 23.3954" fill="url(#paint5_linear_3120_53163)"/>
<path d="M41.0327 35.1587L30.0302 33.9898L31.1805 23.2284L42.1831 24.3973L41.0327 35.1587Z" fill="url(#paint6_linear_3120_53163)"/>
<path d="M72.9272 38.5541L61.8319 37.4037L62.9823 26.6238L74.0776 27.8112L72.9272 38.5541Z" fill="url(#paint7_linear_3120_53163)"/>
<path d="M28.6758 20L39.4371 21.1504L42.146 24.3417L31.1806 23.2284L28.6758 20Z" fill="#DFE8EB"/>
<path d="M61.8319 37.4222L59.1045 62.6187C58.9004 64.4555 58.1768 66.2182 56.9337 67.6097C55.338 69.428 52.3508 71.0793 47.601 70.5413" stroke="#2E9AB7" stroke-width="0.9263" stroke-miterlimit="10"/>
<path d="M60.2177 23.3954L63.0008 26.6238L74.0775 27.8113" stroke="white" stroke-width="0.9263" stroke-miterlimit="10"/>
<path d="M31.1805 23.2284L30.0302 33.9898" stroke="white" stroke-width="0.9263" stroke-miterlimit="10"/>
<path d="M28.6758 20L31.1806 23.2284L42.146 24.3417" stroke="white" stroke-width="0.9263" stroke-miterlimit="10"/>
<path d="M61.8319 37.4223L62.9823 26.6238" stroke="white" stroke-width="0.9263" stroke-miterlimit="10"/>
<path d="M30.0302 33.9897L27.5811 56.904C27.5811 56.904 26.6719 67.2943 29.8076 71.0237" stroke="#EA658E" stroke-width="0.9263" stroke-miterlimit="10"/>
<defs>
<linearGradient id="paint0_linear_3120_53163" x1="38.6949" y1="32.998" x2="33.5893" y2="67.0208" gradientUnits="userSpaceOnUse">
<stop offset="0.0215" stop-color="#AB324D"/>
<stop offset="0.8659" stop-color="#751A37"/>
</linearGradient>
<linearGradient id="paint1_linear_3120_53163" x1="55.4095" y1="68.4585" x2="58.3539" y2="43.8211" gradientUnits="userSpaceOnUse">
<stop offset="0.0382" stop-color="#329CC6"/>
<stop offset="0.8659" stop-color="#2B4363"/>
</linearGradient>
<linearGradient id="paint2_linear_3120_53163" x1="39.7049" y1="41.9019" x2="35.9515" y2="84.6369" gradientUnits="userSpaceOnUse">
<stop offset="0.0215" stop-color="#E93A5F"/>
<stop offset="1" stop-color="#C42F50"/>
</linearGradient>
<linearGradient id="paint3_linear_3120_53163" x1="58.4433" y1="69.6764" x2="62.8943" y2="37.6316" gradientUnits="userSpaceOnUse">
<stop stop-color="#008EEF"/>
<stop offset="0.8874" stop-color="#03B4F9"/>
</linearGradient>
<linearGradient id="paint4_linear_3120_53163" x1="30.3923" y1="18.2059" x2="28.6567" y2="32.8829" gradientUnits="userSpaceOnUse">
<stop stop-color="white"/>
<stop offset="0.7821" stop-color="#878E91"/>
</linearGradient>
<linearGradient id="paint5_linear_3120_53163" x1="62.5287" y1="19.6967" x2="60.1314" y2="36.7728" gradientUnits="userSpaceOnUse">
<stop stop-color="white"/>
<stop offset="0.7821" stop-color="#878E91"/>
</linearGradient>
<linearGradient id="paint6_linear_3120_53163" x1="36.6096" y1="24.6579" x2="35.4154" y2="35.427" gradientUnits="userSpaceOnUse">
<stop stop-color="white"/>
<stop offset="1" stop-color="#C9CED2"/>
</linearGradient>
<linearGradient id="paint7_linear_3120_53163" x1="68.5166" y1="27.3419" x2="67.3662" y2="38.0985" gradientUnits="userSpaceOnUse">
<stop stop-color="white"/>
<stop offset="1" stop-color="#C9CED2"/>
</linearGradient>
</defs>
</svg>
