<?xml version="1.0" encoding="UTF-8"?>
<svg width="500px" height="500px" viewBox="0 0 500 500" version="1.1" xmlns="http://www.w3.org/2000/svg" xmlns:xlink="http://www.w3.org/1999/xlink">
    <title>SubjectGraphics/PoliticalScience/Hero</title>
    <defs>
        <linearGradient x1="50.01813%" y1="60.7205979%" x2="49.9858609%" y2="41.62953%" id="linearGradient-1">
            <stop stop-color="#331237" offset="16%"></stop>
            <stop stop-color="#B55CA4" offset="77%"></stop>
        </linearGradient>
        <linearGradient x1="49.7153787%" y1="53.1682403%" x2="50.5337713%" y2="44.0776941%" id="linearGradient-2">
            <stop stop-color="#E6F5FD" offset="17%"></stop>
            <stop stop-color="#E6F5FC" offset="18%"></stop>
            <stop stop-color="#E4EFE6" offset="24%"></stop>
            <stop stop-color="#E3EAD5" offset="32%"></stop>
            <stop stop-color="#E3E6CA" offset="41%"></stop>
            <stop stop-color="#E2E5C3" offset="74.67%"></stop>
            <stop stop-color="#E2E4C1" offset="98.26%"></stop>
        </linearGradient>
        <linearGradient x1="49.6348333%" y1="95.0967805%" x2="50.2940229%" y2="7.26965854%" id="linearGradient-3">
            <stop stop-color="#8E00B4" offset="0%"></stop>
            <stop stop-color="#C710C7" offset="44%"></stop>
            <stop stop-color="#C614CC" offset="91%"></stop>
        </linearGradient>
        <linearGradient x1="79.4932132%" y1="51.6788374%" x2="17.5348162%" y2="48.4491261%" id="linearGradient-4">
            <stop stop-color="#8E00B4" offset="0%"></stop>
            <stop stop-color="#C710C7" offset="44%"></stop>
            <stop stop-color="#C614CC" offset="91%"></stop>
        </linearGradient>
        <linearGradient x1="53.4862624%" y1="49.0944978%" x2="45.9835113%" y2="50.8149188%" id="linearGradient-5">
            <stop stop-color="#8E00B4" offset="0%"></stop>
            <stop stop-color="#C710C7" offset="44%"></stop>
            <stop stop-color="#C614CC" offset="91%"></stop>
        </linearGradient>
        <linearGradient x1="-68.3787879%" y1="50%" x2="226.972727%" y2="50%" id="linearGradient-6">
            <stop stop-color="#FF00FF" offset="13.57%"></stop>
            <stop stop-color="#C712C9" offset="61.17%"></stop>
        </linearGradient>
        <linearGradient x1="-0.344444444%" y1="50%" x2="97.5916667%" y2="50%" id="linearGradient-7">
            <stop stop-color="#FF00FF" offset="0%"></stop>
            <stop stop-color="#C712C9" offset="61.17%"></stop>
        </linearGradient>
        <linearGradient x1="0.00966072873%" y1="49.9966731%" x2="65.4709799%" y2="49.9966731%" id="linearGradient-8">
            <stop stop-color="#FF00FF" offset="0%"></stop>
            <stop stop-color="#F4ECFB" stop-opacity="0.5937" offset="61.17%"></stop>
        </linearGradient>
        <linearGradient x1="-0.186024338%" y1="49.8541715%" x2="100.210334%" y2="49.8541715%" id="linearGradient-9">
            <stop stop-color="#FF00FF" offset="0%"></stop>
            <stop stop-color="#DC97FF" stop-opacity="0.52" offset="88.29%"></stop>
        </linearGradient>
        <linearGradient x1="50.7384588%" y1="90.6443005%" x2="49.2200475%" y2="7.08341969%" id="linearGradient-10">
            <stop stop-color="#FF2D2E" offset="0%"></stop>
            <stop stop-color="#D1002B" offset="100%"></stop>
        </linearGradient>
    </defs>
    <g id="Symbols" stroke="none" stroke-width="1" fill="none" fill-rule="evenodd">
        <g id="Group-2" transform="translate(0.000000, -37.000000)">
            <g id="pol-sci_hero" transform="translate(250.000000, 287.500000) rotate(-15.000000) translate(-250.000000, -287.500000) translate(75.000000, 37.000000)">
                <g id="Group" transform="translate(38.000000, 58.000000)">
                    <ellipse id="Oval" fill="#490893" fill-rule="nonzero" cx="166" cy="386.7" rx="102.8" ry="11.9"></ellipse>
                    <path d="M32.9,227.4 L244.6,227.4 C258.8,227.4 270.3,238.9 270.3,253.1 L270.3,316.5 C270.3,330.7 258.8,342.2 244.6,342.2 L32.9,342.2 C18.7,342.2 7.2,330.7 7.2,316.5 L7.2,253.1 C7.2,239 18.7,227.4 32.9,227.4 Z" id="Path" fill="url(#linearGradient-1)" fill-rule="nonzero"></path>
                    <path d="M24,269 L243.4,269 C254.3,269 263.1,277.8 263.1,288.7 L263.1,312 C263.1,322.9 254.3,331.7 243.4,331.7 L24,331.7 C13.1,331.7 4.3,322.9 4.3,312 L4.3,288.7 C4.4,277.8 13.2,269 24,269 Z" id="Path" fill="url(#linearGradient-2)" fill-rule="nonzero"></path>
                    <path d="M244.1,292.700721 L155.6,291.7 L10.2,292.700721 L0.2,41.1 C0.2,23.6 14.4,9.4 31.9,9.4 L31.9,9.4 L240.1,9.4 C257.6,9.4 271.901244,23.7 271.901244,41.2 L271.901244,263 C272,282.5 266.1,292.8 244.1,292.700721 Z" id="Path" fill="#321436" fill-rule="nonzero"></path>
                    <path d="M233.8,284.1 L81.8,283.4 L11,289.1 L0,308.4 L0,32.7 C0,15.2 14.2,1 31.7,0.9 C31.7,0.9 31.7,0.9 31.8,0.9 L240.1,0.9 C257.6,0.9 271.90061,15.2 271.90061,32.7 L271.90061,254.5 C272,272 259.8,284.4 233.8,284.1 Z" id="Path" fill="url(#linearGradient-3)" fill-rule="nonzero"></path>
                    <path d="M69.9,14 L238.6,14 C252.5,14 263.8,25.2 263.8,39.2 L263.8,39.2 L263.8,252 C263.8,265.9 252.6,277.2 238.6,277.2 L238.6,277.2 L69.9,277.2 C66.6,277.2 63.9,274.5 63.9,271.3 L63.9,20 C64,16.8 66.6,14 69.9,14 L69.9,14 L69.9,14 Z" id="Path" fill="url(#linearGradient-4)" fill-rule="nonzero"></path>
                    <path d="M42.1,277.2 L33.7,277.2 C30.7,277.2 27.4,276.4 20.4,277.7 C15.6,278.8 11.2,281.1 7.6,284.4 L7.2,284.8 L7.2,38.6 C7.2,25 18.3,14 31.8,14 L42.1,14 C45.4,14 48,16.7 48,19.9 L48,271.1 C48.1,274.5 45.4,277.2 42.1,277.2 Z" id="Path" fill="url(#linearGradient-5)" fill-rule="nonzero"></path>
                    <path d="M244.1,288 L27.9,288 C15,288 4.3,298.9 4.3,312.3 L4.3,312.3 C4.3,325.7 14.9,336.6 27.9,336.6 L212.3,336.6" id="Path" stroke="#331237" stroke-width="9.5513" stroke-linecap="round" stroke-linejoin="round"></path>
                    <rect id="Rectangle" fill="#5D2568" fill-rule="nonzero" opacity="0.74" x="57.3" y="0.8" width="1" height="282.5"></rect>
                    <path d="M9.6,28.6 L9.6,28.6 C10.6,28.6 11.3,31.3 11.3,34.4 L11.3,269.7 C11.3,272.9 10.6,275.5 9.7,275.5 L9.6,275.5 C8.8,275.5 8,272.8 8,269.7 L8,34.5 C8,31.2 8.7,28.6 9.6,28.6 Z" id="Path" fill="url(#linearGradient-6)" fill-rule="nonzero" opacity="0.79"></path>
                    <path d="M65.7,14 L65.7,14 C66.7,14 67.5,16.7 67.5,19.8 L67.5,271.3 C67.5,274.5 66.7,277.1 65.7,277.1 L65.7,277.1 C64.7,277.1 63.9,274.4 63.9,271.3 L63.9,19.8 C63.9,16.7 64.7,14 65.7,14 Z" id="Path" fill="url(#linearGradient-7)" fill-rule="nonzero" opacity="0.71"></path>
                    <path d="M37.3,166.4 C83.3,181.9 163,196.8 225.2,145.7 C243.7,130.5 271.5,143.7 271.301073,167.7 L270.6,255.7 C270.5,271.2 257.9,283.6 242.4,283.6 L28.2,283.4 C22.1,283.4 16.1,285.3 11.3,289 C5.4,293.5 -0.6,300.8 0.2,311.7 L0.1,193.1 C0.1,173.8 19,160.3 37.3,166.4 Z" id="Path" stroke="url(#linearGradient-9)" stroke-width="1.0613" fill="url(#linearGradient-8)" fill-rule="nonzero" opacity="0.3"></path>
                    <polygon id="Path" fill="url(#linearGradient-10)" fill-rule="nonzero" points="82.4 317.1 113.4 317.1 113.3 355.7 97 345.4 81.2 355.7"></polygon>
                    <g opacity="0.5" transform="translate(14.000000, 298.000000)" id="Path" stroke="#9FA381" stroke-linecap="round" stroke-linejoin="round" stroke-width="1.0613">
                        <line x1="0.9" y1="1.2" x2="105.2" y2="1.2"></line>
                        <line x1="144" y1="3.7" x2="248.2" y2="3.7"></line>
                        <line x1="179.8" y1="10.3" x2="248.6" y2="10.3"></line>
                        <line x1="174.3" y1="27.3" x2="243" y2="27.3"></line>
                        <line x1="8.1" y1="27.3" x2="67.2" y2="27.3"></line>
                        <line x1="63.5" y1="18.7" x2="171.1" y2="18.7"></line>
                    </g>
                    <g opacity="0.48" transform="translate(99.000000, 68.000000)">
                        <polyline id="Path" stroke="#F4F6FB" stroke-width="4.245" stroke-linecap="round" points="2 46.1 22.2 10.1 42.5 46.1"></polyline>
                        <polyline id="Path" stroke="#F4F6FB" stroke-width="4.245" stroke-linecap="round" points="87.6 56.6 107.7 20.8 127.9 56.6"></polyline>
                        <path d="M40,91.9 C40,81.4 49.7,72.8 61.6,72.8 C73.5,72.8 83.2,81.3 83.2,91.9" id="Path" fill="#F4F6FB" fill-rule="nonzero"></path>
                        <path d="M0.5,46.4 C0.5,56.9 10.3,65.5 22.1,65.4 C34,65.3 43.7,56.8 43.7,46.3" id="Path" fill="#F4F6FB" fill-rule="nonzero"></path>
                        <path d="M129.4,55.8 C129.4,66.3 119.7,74.9 107.8,74.9 C95.8,74.9 86.2,66.4 86.2,55.9" id="Path" fill="#F4F6FB" fill-rule="nonzero"></path>
                        <rect id="Rectangle" fill="#F4F6FB" fill-rule="nonzero" transform="translate(65.029645, 11.363065) rotate(-82.507580) translate(-65.029645, -11.363065) " x="62.3795438" y="-46.8891604" width="5.30020248" height="116.504451"></rect>
                        <rect id="Rectangle" fill="#F4F6FB" fill-rule="nonzero" x="58.4" y="0.1" width="6.6" height="88"></rect>
                        <circle id="Oval" fill="#F4F6FB" fill-rule="nonzero" cx="61.7" cy="11.3" r="9.2"></circle>
                    </g>
                    <path d="M0.1,253.6 C0.1,253.6 9.2,235.9 29.3,236.8 L272,236.8 L272,201.2 L32.2,201.2 C19.4,200.6 7.2,206.8 0.2,217.6" id="Path" fill="#7B2A82" fill-rule="nonzero" opacity="0.74"></path>
                    <line x1="58.7" y1="0.8" x2="58.7" y2="283.3" id="Path"></line>
                </g>
            </g>
        </g>
    </g>
</svg>