<?xml version="1.0" encoding="UTF-8"?>
<svg width="100px" height="100px" viewBox="0 0 100 100" version="1.1" xmlns="http://www.w3.org/2000/svg" xmlns:xlink="http://www.w3.org/1999/xlink">
    <title>F9C65387-03F8-495D-A928-01A7976F4462</title>
    <defs>
        <linearGradient x1="4.69552829%" y1="31.0132109%" x2="32.017116%" y2="44.1395192%" id="linearGradient-1">
            <stop stop-color="#EC9248" offset="0%"></stop>
            <stop stop-color="#77003E" offset="97%"></stop>
        </linearGradient>
        <linearGradient x1="40.4427949%" y1="39.084054%" x2="57.5524686%" y2="51.8850061%" id="linearGradient-2">
            <stop stop-color="#EB9B45" offset="1%"></stop>
            <stop stop-color="#E98E3D" offset="5%"></stop>
            <stop stop-color="#E36623" offset="21%"></stop>
            <stop stop-color="#DE4C13" offset="34%"></stop>
            <stop stop-color="#DD430D" offset="42%"></stop>
            <stop stop-color="#D74011" offset="56%"></stop>
            <stop stop-color="#C8391D" offset="73%"></stop>
            <stop stop-color="#AE2D30" offset="93%"></stop>
            <stop stop-color="#A22739" offset="100%"></stop>
        </linearGradient>
        <linearGradient x1="-0.00327250236%" y1="50.0049914%" x2="100.001295%" y2="50.0049914%" id="linearGradient-3">
            <stop stop-color="#FFEBC1" offset="12%"></stop>
            <stop stop-color="#FCD295" offset="46%"></stop>
            <stop stop-color="#FFFFAD" offset="95%"></stop>
        </linearGradient>
        <linearGradient x1="96.8075045%" y1="48.2937095%" x2="-3.46229173%" y2="51.9025444%" id="linearGradient-4">
            <stop stop-color="#FFEBC1" offset="0%"></stop>
            <stop stop-color="#F7B574" offset="93%"></stop>
        </linearGradient>
        <linearGradient x1="62.1753321%" y1="53.729528%" x2="16.9679182%" y2="38.5284112%" id="linearGradient-5">
            <stop stop-color="#FFA945" offset="10%"></stop>
            <stop stop-color="#FF6D27" offset="61%"></stop>
            <stop stop-color="#FF6222" offset="70%"></stop>
        </linearGradient>
        <linearGradient x1="109.374332%" y1="52.9364746%" x2="23.696899%" y2="48.7680948%" id="linearGradient-6">
            <stop stop-color="#D95A33" offset="19%"></stop>
            <stop stop-color="#C74835" offset="29%"></stop>
            <stop stop-color="#B33537" offset="44%"></stop>
            <stop stop-color="#A72938" offset="59%"></stop>
            <stop stop-color="#A32538" offset="74%"></stop>
            <stop stop-color="#A12438" offset="85%"></stop>
            <stop stop-color="#992139" offset="91%"></stop>
            <stop stop-color="#8B1B3B" offset="95%"></stop>
            <stop stop-color="#7F163D" offset="98%"></stop>
        </linearGradient>
        <linearGradient x1="0.00209304414%" y1="50.0018138%" x2="99.9980898%" y2="50.0018138%" id="linearGradient-7">
            <stop stop-color="#FF5A43" offset="12%"></stop>
            <stop stop-color="#FFB600" offset="91%"></stop>
        </linearGradient>
        <linearGradient x1="109.374332%" y1="52.9364746%" x2="23.696899%" y2="48.7680948%" id="linearGradient-8">
            <stop stop-color="#EC9248" offset="7%"></stop>
            <stop stop-color="#CA4B10" offset="58%"></stop>
            <stop stop-color="#D33141" offset="96%"></stop>
        </linearGradient>
        <linearGradient x1="71.592508%" y1="50.2704883%" x2="13.653271%" y2="49.5781894%" id="linearGradient-9">
            <stop stop-color="#FFB600" offset="24%"></stop>
            <stop stop-color="#FF5A43" offset="93%"></stop>
        </linearGradient>
        <linearGradient x1="94.9730096%" y1="52.2368349%" x2="38.0385887%" y2="49.4677345%" id="linearGradient-10">
            <stop stop-color="#FCC768" offset="4%"></stop>
            <stop stop-color="#F9B460" offset="18%"></stop>
            <stop stop-color="#EE6740" offset="74%"></stop>
            <stop stop-color="#EA4934" offset="100%"></stop>
        </linearGradient>
        <linearGradient x1="7.80401745%" y1="50.0017641%" x2="107.805167%" y2="50.0017641%" id="linearGradient-11">
            <stop stop-color="#FFC500" offset="11%"></stop>
            <stop stop-color="#FFEBFF" offset="100%"></stop>
        </linearGradient>
        <linearGradient x1="95.0177406%" y1="46.1134712%" x2="-3.2868123%" y2="54.4250543%" id="linearGradient-12">
            <stop stop-color="#FFEBC1" offset="0%"></stop>
            <stop stop-color="#FCC69D" offset="97%"></stop>
        </linearGradient>
        <linearGradient x1="76.2786374%" y1="37.6077942%" x2="4.83902025%" y2="86.7021824%" id="linearGradient-13">
            <stop stop-color="#FEFEFE" offset="0%"></stop>
            <stop stop-color="#FEF8FA" offset="22%"></stop>
            <stop stop-color="#FDE9EE" offset="49%"></stop>
            <stop stop-color="#FCCFDB" offset="80%"></stop>
            <stop stop-color="#FBBACC" offset="100%"></stop>
        </linearGradient>
        <linearGradient x1="31.0831157%" y1="51.7133151%" x2="69.0959135%" y2="48.3305913%" id="linearGradient-14">
            <stop stop-color="#FEFEFE" offset="0%"></stop>
            <stop stop-color="#FEF8FA" offset="22%"></stop>
            <stop stop-color="#FDE9EE" offset="49%"></stop>
            <stop stop-color="#FCCFDB" offset="80%"></stop>
            <stop stop-color="#FBBACC" offset="100%"></stop>
        </linearGradient>
    </defs>
    <g id="Page-2" stroke="none" stroke-width="1" fill="none" fill-rule="evenodd">
        <g id="Icons" transform="translate(-761.000000, -601.000000)" fill-rule="nonzero">
            <g id="Elements/Graphics/SubjectGraphics/Sanskrit/Hero" transform="translate(761.000000, 601.000000)">
                <g id="Hero-Image" transform="translate(16.800000, 11.200000)">
                    <g id="Layer_4-2" transform="translate(0.000000, 23.586207)">
                        <path d="M0.0428840125,14.5567398 L8.09554859,23.1097179 C8.21570732,23.2108596 8.38495885,23.2296653 8.52438871,23.1573668 L44.0228213,8.45768025 C44.1895925,8.3862069 44.2372414,8.21943574 44.1419436,8.12413793 L35.6366144,0.50031348 C35.5210486,0.410168916 35.3649301,0.391802042 35.2315987,0.452664577 L0.209655172,14.2470219 C0.0190595611,14.2946708 -0.0524137931,14.461442 0.0428840125,14.5567398 Z" id="Path" fill="#F9B564"></path>
                        <path d="M0.0667084639,14.3184953 L8.11937304,22.9191223 C8.23953177,23.0202639 8.4087833,23.0390697 8.54821317,22.9667712 L43.9989969,8.24326019 C44.165768,8.17178683 44.2134169,8.00501567 44.1181191,7.90971787 L35.61279,0.262068966 C35.4972241,0.171924402 35.3411057,0.153557528 35.2077743,0.214420063 L0.16200627,14.0087774 C-0.00476489028,14.0564263 -0.0524137931,14.2231975 0.0667084639,14.3184953 Z" id="Path" fill="url(#linearGradient-1)"></path>
                    </g>
                    <g id="Layer_4-3" transform="translate(-0.000000, 19.774295)">
                        <path d="M0.281128527,14.6043887 L8.59586207,25.9924765 C8.70971372,26.1197469 8.89302551,26.1583389 9.04852665,26.0877743 L45.4046395,11.030721 C45.4885314,11.0098295 45.556324,10.9482038 45.5850977,10.8666784 C45.6138713,10.785153 45.5997688,10.6946269 45.5475862,10.6257053 L36.6848903,0.381191223 C36.5746856,0.265064111 36.4050659,0.227370848 36.2560502,0.285893417 L0.424075235,14.199373 C0.342344582,14.2232142 0.277090491,14.2849458 0.248755202,14.3652291 C0.220419913,14.4455124 0.23246926,14.5345276 0.281128527,14.6043887 Z" id="Path" fill="#F9B564"></path>
                        <path d="M0.328777429,14.3661442 L8.64351097,25.8018809 C8.75736262,25.9291513 8.94067441,25.9677433 9.09617555,25.8971787 L45.4522884,10.8163009 C45.5361803,10.7954095 45.6039729,10.7337837 45.6327466,10.6522583 C45.6615202,10.570733 45.6474177,10.4802068 45.5952351,10.4112853 L36.7325392,0.142946708 C36.6223345,0.0268195964 36.4527148,-0.0108736664 36.3036991,0.0476489028 L0.471724138,13.9611285 C0.38625911,13.9797762 0.316530852,14.041324 0.287417165,14.1238127 C0.258303478,14.2063015 0.273951173,14.297982 0.328777429,14.3661442 L0.328777429,14.3661442 Z" id="Path" fill="url(#linearGradient-2)"></path>
                    </g>
                    <g id="Layer_4_copy" transform="translate(1.905956, 16.677116)">
                        <path d="M0.16200627,14.0802508 L7.38081505,28.1366771 C7.46552911,28.287762 7.65123299,28.3496633 7.80965517,28.2796238 L43.7131034,13.6275862 C43.8021976,13.5907639 43.8713508,13.517681 43.9031978,13.4266897 C43.9350447,13.3356985 43.9265601,13.2354423 43.8798746,13.1510972 L36.0654545,0.405015674 C35.9838403,0.264409401 35.8122299,0.203841053 35.6604389,0.262068966 L0.376426332,13.6037618 C0.284364149,13.6379423 0.20984687,13.7076024 0.169547983,13.7971555 C0.129249097,13.8867086 0.126532582,13.9886791 0.16200627,14.0802508 Z" id="Path" fill="url(#linearGradient-3)"></path>
                        <path d="M0.209655172,13.8896552 L7.42846395,27.969906 C7.51317802,28.1209908 7.6988819,28.1828921 7.85730408,28.1128527 L43.7607524,13.4369906 C43.8498465,13.4001683 43.9189997,13.3270854 43.9508467,13.2360941 C43.9826936,13.1451029 43.974209,13.0448467 43.9275235,12.9605016 L36.1131034,0.190595611 C36.0314892,0.0499893387 35.8598788,-0.0105790096 35.7080878,0.0476489028 L0.400250784,13.4369906 C0.313759909,13.4702674 0.244556923,13.5373418 0.208595078,13.6227511 C0.172633234,13.7081605 0.173016012,13.8045341 0.209655172,13.8896552 L0.209655172,13.8896552 Z" id="Path" fill="url(#linearGradient-4)"></path>
                        <polygon id="Path" fill="#FFEBB8" points="35.6604389 0.0714733542 0.304952978 13.4846395 0.805266458 13.5799373 35.6604389 0.381191223"></polygon>
                    </g>
                    <g id="Layer_5_copy" transform="translate(9.529781, 39.072100)">
                        <path d="M0.209655172,15.2952978 L10.6447649,24.1341693 C10.685696,24.1649035 10.7390251,24.1737917 10.7877116,24.1579937 L48.0253292,7.38557994 C48.120627,7.33793103 48.120627,6.95673981 48.0491536,6.90909091 L36.6372414,0.50031348 C36.6011876,0.476224017 36.5541729,0.476224017 36.5181191,0.50031348 L0.233479624,14.7949843 C0.14290812,14.9474395 0.133980187,15.1349261 0.209655172,15.2952978 Z" id="Path" fill="url(#linearGradient-5)"></path>
                        <path d="M0.209655172,14.9617555 L10.6447649,23.800627 C10.685696,23.8313612 10.7390251,23.8402494 10.7877116,23.8244514 L48.0253292,7.05203762 C48.067233,7.02897561 48.0951062,6.98677127 48.0998655,6.93917778 C48.1046249,6.89158428 48.085661,6.84469624 48.0491536,6.8137931 L36.6372414,0.16677116 C36.6011876,0.142681698 36.5541729,0.142681698 36.5181191,0.16677116 L0.233479624,14.6996865 C0.190987871,14.7280702 0.163604431,14.7741412 0.158978081,14.8250311 C0.154351731,14.8759209 0.172978367,14.9261747 0.209655172,14.9617555 Z" id="Path" fill="url(#linearGradient-6)"></path>
                    </g>
                    <g id="Layer_5_copy-2" transform="translate(10.006270, 35.974922)">
                        <path d="M0.209655172,15.2952978 L10.6447649,24.1341693 C10.685696,24.1649035 10.7390251,24.1737917 10.7877116,24.1579937 L48.0253292,7.38557994 C48.120627,7.33793103 48.120627,6.95673981 48.0491536,6.90909091 L36.6372414,0.50031348 C36.6011876,0.476224017 36.5541729,0.476224017 36.5181191,0.50031348 L0.233479624,14.7949843 C0.14290812,14.9474395 0.133980187,15.1349261 0.209655172,15.2952978 L0.209655172,15.2952978 Z" id="Path" fill="url(#linearGradient-7)"></path>
                        <path d="M0.209655172,14.9617555 L10.6447649,23.800627 C10.685696,23.8313612 10.7390251,23.8402494 10.7877116,23.8244514 L48.0253292,7.05203762 C48.067233,7.02897561 48.0951062,6.98677127 48.0998655,6.93917778 C48.1046249,6.89158428 48.085661,6.84469624 48.0491536,6.8137931 L36.6372414,0.16677116 C36.6011876,0.142681698 36.5541729,0.142681698 36.5181191,0.16677116 L0.233479624,14.6996865 C0.190987871,14.7280702 0.163604431,14.7741412 0.158978081,14.8250311 C0.154351731,14.8759209 0.172978367,14.9261747 0.209655172,14.9617555 Z" id="Path" fill="url(#linearGradient-8)"></path>
                    </g>
                    <g id="Layer_5_copy-3" transform="translate(10.244514, 33.830721)">
                        <path d="M0.209655172,15.2952978 L10.6447649,24.1341693 C10.685696,24.1649035 10.7390251,24.1737917 10.7877116,24.1579937 L48.0253292,7.38557994 C48.120627,7.33793103 48.120627,6.95673981 48.0491536,6.90909091 L36.6372414,0.50031348 C36.6011876,0.476224017 36.5541729,0.476224017 36.5181191,0.50031348 L0.233479624,14.7949843 C0.14290812,14.9474395 0.133980187,15.1349261 0.209655172,15.2952978 Z" id="Path" fill="url(#linearGradient-9)"></path>
                        <path d="M0.209655172,14.9617555 L10.6447649,23.800627 C10.685696,23.8313612 10.7390251,23.8402494 10.7877116,23.8244514 L48.0253292,7.05203762 C48.067233,7.02897561 48.0951062,6.98677127 48.0998655,6.93917778 C48.1046249,6.89158428 48.085661,6.84469624 48.0491536,6.8137931 L36.6372414,0.16677116 C36.6011876,0.142681698 36.5541729,0.142681698 36.5181191,0.16677116 L0.233479624,14.6996865 C0.190987871,14.7280702 0.163604431,14.7741412 0.158978081,14.8250311 C0.154351731,14.8759209 0.172978367,14.9261747 0.209655172,14.9617555 Z" id="Path" fill="url(#linearGradient-10)"></path>
                    </g>
                    <g id="Layer_5_copy-4" transform="translate(10.244514, 30.971787)">
                        <path d="M0.209655172,15.7479624 L10.6447649,24.8489028 C10.685696,24.8796371 10.7390251,24.8885253 10.7877116,24.8727273 L48.0253292,7.62382445 C48.120627,7.57617555 48.120627,7.19498433 48.0491536,7.14733542 L36.6372414,0.547962382 C36.6011876,0.52387292 36.5541729,0.52387292 36.5181191,0.547962382 L0.233479624,15.2714734 C0.138181818,15.3191223 0.138181818,15.676489 0.209655172,15.7479624 Z" id="Path" fill="url(#linearGradient-11)"></path>
                        <path d="M0.209655172,15.4144201 L10.6447649,24.5153605 C10.685696,24.5460947 10.7390251,24.5549829 10.7877116,24.539185 L48.0253292,7.29028213 C48.067233,7.26722012 48.0951062,7.22501578 48.0998655,7.17742229 C48.1046249,7.1298288 48.085661,7.08294075 48.0491536,7.05203762 L36.6372414,0.214420063 C36.6011876,0.1903306 36.5541729,0.1903306 36.5181191,0.214420063 L0.233479624,15.1761755 C0.191575736,15.1992376 0.163702591,15.2414419 0.158943242,15.2890354 C0.154183892,15.3366289 0.173147799,15.3835169 0.209655172,15.4144201 Z" id="Path" fill="url(#linearGradient-12)"></path>
                        <polygon id="Path" fill="#FFEBB8" points="36.1369279 0.357366771 0.328777429 15.1285266 0.829090909 15.2238245 36.2322257 0.643260188"></polygon>
                    </g>
                    <polygon id="Path" fill="#BE4B27" points="13.8610658 43.1222571 13.289279 43.3366771 5.97517241 29.0181818 6.49931034 28.8275862"></polygon>
                    <polygon id="Path" fill="#BE4B27" points="15.5287774 42.431348 14.9569906 42.645768 7.69053292 28.3749216 8.16702194 28.184326"></polygon>
                    <polygon id="Path" fill="#BE4B27" points="25.2729781 53.5335423 24.5582445 53.8432602 14.1946082 44.9805643 14.8616928 44.6946708"></polygon>
                    <polygon id="Path" fill="#BE4B27" points="27.0359875 52.723511 26.4403762 53.0094044 16.2673354 44.122884 16.8152978 43.8846395"></polygon>
                    <polygon id="Path" fill="#BE4B27" points="52.3852038 41.0733542 51.7895925 41.2401254 41.8786207 33.4495298 42.3551097 33.3065831"></polygon>
                    <polygon id="Path" fill="#BE4B27" points="54.243511 40.3586207 53.504953 40.7159875 43.3080878 32.8539185 43.9275235 32.5680251"></polygon>
                    <polygon id="Path" fill="#BE4B27" points="41.2353605 31.9247649 40.9018182 32.0677116 33.7068339 18.1780564 33.9689028 18.0827586"></polygon>
                    <polygon id="Path" fill="#BE4B27" points="42.5695298 31.3529781 42.2359875 31.4959248 35.0410031 17.7015674 35.350721 17.5824451"></polygon>
                    <g id="Layer_8" transform="translate(16.438871, 63.611285)" fill="#B94772" opacity="0.82">
                        <ellipse id="Oval" transform="translate(17.095478, 6.152603) rotate(-2.840000) translate(-17.095478, -6.152603) " cx="17.095478" cy="6.15260269" rx="16.7962382" ry="5.31285266"></ellipse>
                    </g>
                    <g id="Layer_2" transform="translate(17.868339, 31.924765)" fill="#581D77">
                        <ellipse id="Oval" cx="0.972037618" cy="7.36175549" rx="1" ry="1"></ellipse>
                        <ellipse id="Oval" cx="0.924388715" cy="7.38557994" rx="1" ry="1"></ellipse>
                        <ellipse id="Oval" transform="translate(3.666777, 11.362381) rotate(-17.580000) translate(-3.666777, -11.362381) " cx="3.66677665" cy="11.362381" rx="1" ry="1"></ellipse>
                        <ellipse id="Oval" transform="translate(3.714631, 11.387378) rotate(-17.580000) translate(-3.714631, -11.387378) " cx="3.71463115" cy="11.3873782" rx="1" ry="1"></ellipse>
                        <ellipse id="Oval" transform="translate(20.319943, 4.644173) rotate(-10.640000) translate(-20.319943, -4.644173) " cx="20.3199426" cy="4.64417276" rx="1" ry="1"></ellipse>
                        <ellipse id="Oval" transform="translate(20.319211, 4.691002) rotate(-10.640000) translate(-20.319211, -4.691002) " cx="20.3192106" cy="4.69100242" rx="1" ry="1"></ellipse>
                        <ellipse id="Oval" cx="17.7444514" cy="0.881504702" rx="1" ry="1"></ellipse>
                        <ellipse id="Oval" cx="17.6968025" cy="0.905329154" rx="1" ry="1"></ellipse>
                    </g>
                    <g id="Layer_5" transform="translate(17.630094, 31.924765)">
                        <g id="Group" opacity="0.38" transform="translate(0.000000, 6.670846)" fill="#191719">
                            <path d="M4.0215674,4.19310345 C3.6223393,3.98501296 3.23998401,3.7460409 2.87799373,3.47836991 L1.71059561,3.95485893 C1.99768697,4.23814313 2.31761655,4.48608856 2.66357367,4.69341693 C2.66357367,4.69341693 3.59272727,5.38432602 3.95009404,5.26520376 C4.25247485,5.18348994 4.43989695,4.8815321 4.37893417,4.57429467 C4.33399522,4.39384555 4.19874509,4.24957875 4.0215674,4.19310345 L4.0215674,4.19310345 Z" id="Path" opacity="0.41"></path>
                            <path d="M0.709968652,2.62068966 L1.75824451,2.19184953 C1.60334794,1.96105527 1.47544756,1.71324828 1.37705329,1.45329154 C1.27874658,1.19928921 1.20689324,0.935826979 1.16263323,0.667084639 L1.16263323,0.619435737 C1.14543727,0.456492983 1.05269834,0.311091722 0.912200171,0.226792818 C0.771701998,0.142493914 0.59976492,0.129089573 0.447899687,0.190595611 C0.151567425,0.329046104 -3.67978129e-06,0.662502535 0.0905329154,0.976802508 C0.188217271,1.55981341 0.398620016,2.11818993 0.709968652,2.62068966 Z" id="Path" opacity="0.41"></path>
                        </g>
                        <g id="Group" opacity="0.38" transform="translate(16.677116, 0.238245)" fill="#191719">
                            <path d="M3.75949843,3.85956113 C3.3878233,3.66493432 3.03663556,3.43346968 2.71122257,3.16865204 L1.63912226,3.62131661 C1.90622297,3.89076302 2.20178992,4.13041189 2.52062696,4.33605016 C2.52062696,4.33605016 3.37830721,4.97931034 3.71184953,4.88401254 C3.99315771,4.79474133 4.15894817,4.50460802 4.09304075,4.2169279 C4.05609038,4.04550518 3.9279687,3.90823195 3.75949843,3.85956113 Z" id="Path" opacity="0.41"></path>
                            <path d="M0.709968652,2.38244514 L1.68677116,1.97742947 C1.53477644,1.75708969 1.41447938,1.51649557 1.32940439,1.26269592 C1.24406129,1.02265988 1.18027719,0.775496476 1.13880878,0.524137931 L1.13880878,0.476489028 C1.12861925,0.321430939 1.04346023,0.181082211 0.910632642,0.100436887 C0.77780505,0.0197915636 0.613997313,0.00898190561 0.471724138,0.0714733542 C0.203363964,0.211128055 0.0655152211,0.516364557 0.138181818,0.810031348 C0.247560195,1.36023752 0.440381694,1.89049664 0.709968652,2.38244514 L0.709968652,2.38244514 Z" id="Path" opacity="0.41"></path>
                        </g>
                        <path d="M0.781442006,6.69467085 C0.989492184,6.46454306 1.33569523,6.42381329 1.59147335,6.59937304 C2.90008019,7.38375264 3.84939296,8.649503 4.23598746,10.1253918 C4.23598746,10.1253918 4.59335423,11.1974922 4.40275862,11.50721 C4.23798728,11.7609125 3.90515203,11.8441213 3.64037618,11.6978056 C3.48238943,11.603504 3.39041817,11.4287586 3.40213166,11.2451411 C3.31508188,10.740859 3.17944473,10.2461823 2.99711599,9.76802508 C2.88159063,9.48436559 2.73792594,9.21299895 2.56827586,8.95799373 C2.32387805,8.58395671 2.02701052,8.24697195 1.68677116,7.95736677 C1.4830974,7.78725015 1.25900736,7.64319226 1.01968652,7.52852665 L0.972037618,7.50470219 C0.827404355,7.4336667 0.722188145,7.30158808 0.685281655,7.1447355 C0.648375164,6.98788291 0.683658224,6.82274564 0.781442006,6.69467085 Z" id="Path" fill="#F9E5EB"></path>
                        <path d="M17.6253292,0.309717868 C17.8288128,0.0899279819 18.1614343,0.0496102297 18.4115361,0.214420063 C19.6485979,0.968351758 20.5452623,2.17244403 20.9131034,3.57366771 C20.9131034,3.57366771 21.2704702,4.59811912 21.0798746,4.88401254 C20.9275995,5.12609102 20.6088282,5.20047098 20.3651411,5.0507837 C20.2202257,4.95553799 20.1312065,4.79530345 20.1268966,4.62194357 C20.0534804,4.14547846 19.9172914,3.68083353 19.7218809,3.24012539 C19.4468205,2.58040242 19.0227984,1.99329491 18.4830094,1.52476489 C18.2919637,1.36751294 18.0842425,1.23169522 17.8635737,1.11974922 L17.8159248,1.09592476 C17.6723773,1.0303298 17.5668675,0.902492302 17.529684,0.749110515 C17.4925006,0.595728729 17.5277558,0.433766367 17.6253292,0.309717868 L17.6253292,0.309717868 Z" id="Path" fill="#F9E5EB"></path>
                    </g>
                    <g id="Layer_6_copy" transform="translate(44.789969, 0.000000)">
                        <g id="Layer0_0_MEMBER_0_FILL" transform="translate(2.620690, 0.000000)" fill="url(#linearGradient-13)">
                            <path d="M15.9337931,17.1059561 L20.3889655,12.3648903 C19.0547962,11.8645768 17.3394357,11.7216301 15.2667085,11.9360502 C17.229944,11.1462548 19.3695532,10.8993768 21.4610658,11.2213166 C24.582069,7.88589342 26.3927273,4.169279 26.8692163,-3.38565818e-15 C24.582069,2.31097179 22.1519749,3.93103448 19.674232,4.74106583 C11.0497806,9.76802508 4.55364681,18.3765935 0.185830721,30.5667712 C3.59272727,30.1855799 6.68990596,28.7799373 9.42971787,26.2545455 C7.97642633,26.969279 6.76137931,27.2075235 5.80840125,26.9216301 C6.95197492,26.6357367 8.30996865,25.968652 9.88238245,24.8965517 C11.1212539,24.1341693 12.2171787,23.8244514 13.0748589,23.9197492 C12.0980564,23.6815047 10.7638871,23.6576803 9.0723511,23.8244514 L4.9030721,24.3962382 C7.33316614,23.8244514 9.14382445,23.2050157 10.2873981,22.5617555 C12.2045756,21.1980283 13.9768547,19.6412966 15.5764263,17.9159875 C12.8616793,18.4400987 10.0717376,18.4400987 7.3569906,17.9159875 C10.7162382,17.8683386 13.5751724,17.6062696 15.9337931,17.1059561 Z" id="Path"></path>
                        </g>
                        <g id="Layer0_0_MEMBER_1_FILL" transform="translate(1.429467, 1.905956)" fill="#FFFFFF">
                            <path d="M23.104953,0.0476489028 C22.2460665,1.10631431 21.0675834,1.85853755 19.7457053,2.19184953 C15.242884,2.62068966 11.3118495,4.66959248 7.95260188,8.26708464 C7.04984286,10.5552389 6.54231091,12.9801138 6.45166144,15.4382445 C5.66545455,14.3423197 5.54633229,12.6746082 6.11811912,10.4589342 C2.49680251,14.0087774 0.852915361,18.630721 1.16263323,24.277116 C0.757617555,23.6576803 0.400250784,22.4902821 0.114357367,20.7987461 C-0.0762382445,24.6583072 0.352601881,27.2789969 1.37705329,28.7084639 C5.71310345,16.5579937 12.2092372,7.94942529 20.8654545,2.88275862 C22.2234483,1.78683386 22.9620063,0.810031348 23.104953,0.0476489028 Z" id="Path"></path>
                        </g>
                        <g id="Layer0_0_MEMBER_2_FILL" transform="translate(11.435737, 12.626959)" fill="#FEFEFE" fill-opacity="0.32">
                            <path d="M0.995862069,0.690909091 L0.16200627,1.7630094 C3.35448276,1.11974922 6.38018809,1.21504702 9.26294671,2.12037618 L10.6685893,0.667084639 C7.48350561,-0.0517886849 4.17736593,-0.0436454838 0.995862069,0.690909091 L0.995862069,0.690909091 Z" id="Path"></path>
                        </g>
                        <g id="Layer0_0_MEMBER_3_FILL" transform="translate(4.764890, 5.479624)" fill="#EDC7CC">
                            <path d="M1.75824451,7.88589342 L1.16263323,8.67210031 C-0.0524137931,13.3655172 -0.147711599,16.5579937 0.829090909,18.2733542 L1.80589342,16.4865204 C0.733793103,15.2238245 0.733793103,12.3648903 1.75824451,7.88589342 Z" id="Path" fill-opacity="0.42"></path>
                            <path d="M10.6447649,0.142946708 L9.93003135,0.50031348 C8.76263323,1.95360502 8.21467085,4.07398119 8.21467085,6.88526646 L9.38206897,5.69404389 C8.88175549,3.74043887 9.28677116,1.88213166 10.6447649,0.142946708 Z" id="Path" fill-opacity="0.21"></path>
                        </g>
                        <g id="Layer0_1_MEMBER_0_FILL" transform="translate(0.000000, 6.194357)" fill="url(#linearGradient-14)">
                            <path d="M0.0190595611,31.8532915 L0.543197492,33.5210031 C4.61717868,17.8206897 11.8359875,6.59937304 19.7933542,0.16677116 C11.2403762,5.9322884 4.42658307,16.5103448 0.0190595611,31.8532915 Z" id="Path"></path>
                        </g>
                        <polygon id="Path" fill="#A06857" points="0.0190595611 38.0476489 0.543197492 39.7153605 2.33003135 33.6401254 0.495548589 38.7147335"></polygon>
                    </g>
                    <g id="Layer_9" opacity="0.41" transform="translate(12.626959, 22.633229)" fill="#77372C">
                        <polygon id="Path" points="19.7218809 0.762382445 0.590846395 8.10031348 0.16200627 7.45705329 19.2692163 0.142946708"></polygon>
                        <polygon id="Path" points="29.6566771 15.1047022 10.8115361 22.9429467 10.120627 22.4188088 29.0134169 14.6520376"></polygon>
                        <polygon id="Path" points="32.4441379 17.3442006 13.5989969 25.1824451 12.9080878 24.6583072 31.8008777 16.8915361"></polygon>
                        <polygon id="Path" points="21.1275235 3.59749216 1.99648903 10.9354232 1.59147335 10.292163 20.6986834 2.97805643"></polygon>
                        <polygon id="Path" points="22.6761129 6.55172414 3.54507837 13.8896552 3.1400627 13.246395 22.2472727 5.9322884"></polygon>
                    </g>
                    <path d="M44.904326,41.430721 L49.7883386,40.5968652 L53.504953,39.1673981 C53.504953,39.1673981 55.0297179,38.6670846 56.0303448,38.6432602 C56.6427262,38.6294442 57.2553775,38.6533137 57.8648276,38.7147335 L51.0033856,41.8833856 L49.7883386,41.3592476 L44.0704702,41.9786834 L44.904326,41.430721 Z" id="Path" fill="#84301C" opacity="0.17"></path>
                </g>
            </g>
        </g>
    </g>
</svg>