<svg width="100" height="100" viewBox="0 0 100 100" fill="none" xmlns="http://www.w3.org/2000/svg">
<path opacity="0.4" d="M51.1474 92.5053C59.794 92.0763 66.6935 89.5109 66.5578 86.7753C66.4222 84.0396 59.3027 82.1698 50.6561 82.5987C42.0095 83.0277 35.11 85.5931 35.2456 88.3287C35.3813 91.0643 42.5008 92.9342 51.1474 92.5053Z" fill="black"/>
<path d="M68.4236 36.401C66.2946 33.8682 63.8719 31.9043 61.1556 30.5094L62.4403 16.1385L45.0778 14.5785L43.793 28.9494C40.8564 29.8304 38.1217 31.317 35.5889 33.446C30.6518 37.5756 27.8988 42.8431 27.3115 49.2485C26.7241 55.6539 28.5044 61.3252 32.634 66.2623C36.7636 71.2178 42.0311 73.9708 48.4365 74.5398C54.8419 75.1087 60.5315 73.3468 65.4687 69.1989C70.4058 65.0877 73.1589 59.8202 73.7462 53.3964C74.3335 46.9726 72.5532 41.3381 68.4236 36.401Z" fill="url(#paint0_linear_3120_53020)"/>
<path d="M58.8257 32.86L60.3491 15.9563L47.1712 14.7633L45.6478 31.667L58.8257 32.86Z" fill="#FFD200"/>
<path d="M65.1021 14.1388C65.1938 13.2027 64.9185 12.3585 64.3129 11.6243C63.7072 10.9085 62.9363 10.5048 62.0003 10.413L46.5833 9.01811C45.6472 8.92634 44.803 9.18329 44.0688 9.78896C43.353 10.3946 42.9492 11.1655 42.8575 12.1199C42.7657 13.0743 43.0226 13.9002 43.6283 14.616C44.234 15.3501 45.0048 15.7539 45.9592 15.8273L61.3763 17.2222C62.3123 17.314 63.1566 17.0387 63.8724 16.433C64.6065 15.864 65.0103 15.0932 65.1021 14.1388Z" fill="url(#paint1_linear_3120_53020)"/>
<path d="M66.8825 37.6859C63.12 33.1709 58.293 30.6564 52.4382 30.1242C46.5834 29.5919 41.4077 31.2254 36.8927 34.9879C32.3777 38.7504 29.8632 43.559 29.331 49.4322C28.7987 55.287 30.4322 60.4627 34.1947 64.9777C37.9572 69.4927 42.7842 72.0072 48.639 72.5394C54.4938 73.0717 59.6695 71.4382 64.1845 67.6757C68.6995 63.9132 71.214 59.0862 71.7462 53.2314C72.2785 47.3766 70.645 42.2009 66.8825 37.6859Z" fill="url(#paint2_radial_3120_53020)"/>
<path d="M53.9339 28.7392C53.6403 28.3904 53.2732 28.2069 52.8327 28.1702C52.3922 28.1335 51.9884 28.262 51.6397 28.5373C51.291 28.8309 51.1075 29.198 51.0524 29.6568C51.0157 30.1157 51.1442 30.5011 51.4195 30.8498C51.7131 31.1986 52.0802 31.4004 52.5391 31.4372C52.9979 31.4739 53.3833 31.3454 53.732 31.0517C54.0808 30.7581 54.2826 30.391 54.3194 29.9505C54.3561 29.4917 54.2276 29.0879 53.9339 28.7392ZM52.7593 28.9227C52.9979 28.9411 53.1998 29.0512 53.3466 29.2347C53.5118 29.4183 53.5669 29.6385 53.5485 29.8771C53.5301 30.1157 53.42 30.2992 53.2365 30.4461C53.053 30.6112 52.8511 30.6663 52.6125 30.6479C52.3739 30.6296 52.172 30.5195 52.0251 30.3359C51.8783 30.1524 51.8049 29.9505 51.8233 29.7119C51.8416 29.4733 51.9517 29.2714 52.1353 29.1246C52.3005 28.9594 52.5207 28.9044 52.7593 28.9227Z" fill="#FFFC09"/>
<path d="M58.1461 29.4636L58.2929 27.8302L27.1468 25.0404L27 26.6739L58.1461 29.4636Z" fill="url(#paint3_linear_3120_53020)"/>
<path d="M55.4301 22.7279L55.3567 23.5354L61.7437 24.1044L61.8171 23.2968L55.4301 22.7279ZM55.0263 27.1695L54.9529 27.977L61.3399 28.546L61.4134 27.7384L55.0263 27.1695ZM57.9812 25.224L57.9078 26.0315L61.5418 26.3619L61.6152 25.5543L57.9812 25.224ZM62.1291 19.6995L62.2026 18.892L55.8155 18.323L55.7421 19.1306L62.1291 19.6995ZM61.9273 21.9203L62.0007 21.1128L58.3667 20.7824L58.2932 21.5899L61.9273 21.9203Z" fill="#F58A38"/>
<path d="M63.7804 28.0878C63.5234 27.7758 63.1747 27.5922 62.7709 27.5555L42.7471 25.7569C42.3433 25.7202 41.9763 25.8303 41.6643 26.0872C41.3522 26.3442 41.1687 26.6929 41.132 27.0967C41.0953 27.5005 41.2054 27.8676 41.4624 28.1796C41.7193 28.4916 42.068 28.6751 42.4718 28.7118L62.4956 30.5105C62.8994 30.5472 63.2665 30.4371 63.5785 30.1618C63.8905 29.9048 64.074 29.5744 64.1107 29.1523C64.1475 28.7669 64.0373 28.4182 63.7804 28.0878Z" fill="url(#paint4_linear_3120_53020)"/>
<path d="M30.7074 50.3499C29.3676 51.3594 29.0005 52.7726 29.6062 54.5713C30.7992 56.6819 33.5522 57.6363 37.8286 57.4161C43.1512 56.3332 49.5566 51.6897 57.0449 43.504C54.0716 46.3305 49.2262 47.9089 42.4905 48.2393C37.1495 47.9273 33.2219 48.6247 30.7074 50.3499Z" fill="url(#paint5_radial_3120_53020)"/>
<path d="M53.8236 43.6968C53.5299 43.3481 53.1628 43.1646 52.7224 43.1278C52.2635 43.0911 51.8781 43.2196 51.5294 43.4949C51.1807 43.7886 50.9971 44.1557 50.9421 44.6145C50.9053 45.0733 51.0338 45.4588 51.3091 45.8075C51.6028 46.1562 51.9699 46.3581 52.4287 46.3948C52.8875 46.4315 53.273 46.303 53.6217 46.0094C53.9704 45.7157 54.1723 45.3486 54.209 44.9081C54.2457 44.4493 54.1172 44.0455 53.8236 43.6968ZM52.6489 43.8803C52.8875 43.8987 53.0894 44.0088 53.2363 44.1924C53.4014 44.3759 53.4565 44.5961 53.4381 44.8347C53.4198 45.0733 53.3097 45.2752 53.1261 45.4221C52.9426 45.5872 52.7407 45.6423 52.5021 45.6239C52.2635 45.6056 52.0616 45.4955 51.9148 45.3119C51.768 45.1284 51.6946 44.9265 51.7129 44.6879C51.7313 44.4493 51.8414 44.2474 52.0249 44.1006C52.2085 43.9171 52.4103 43.862 52.6489 43.8803Z" fill="#FFFC09"/>
<path d="M29.2932 53.1587C29.3483 54.003 29.4584 54.8105 29.6236 55.6181C30.3027 59.0135 31.826 62.1336 34.1936 64.9785C37.9561 69.4935 42.7831 72.0079 48.6379 72.5402C54.4928 73.0724 59.6685 71.4389 64.1835 67.6764C68.6985 63.9139 71.2129 59.0869 71.7452 53.2321C71.9654 50.8278 71.8186 48.5152 71.3047 46.3312C71.1211 45.5236 70.8825 44.7344 70.5889 43.9635C64.4588 39.9992 57.0806 41.0086 48.4728 47.0102C39.9016 53.4707 33.5145 55.5263 29.2932 53.1587Z" fill="url(#paint6_radial_3120_53020)"/>
<path d="M47.4272 43.1105C47.1336 42.7618 46.7665 42.5783 46.326 42.5415C45.8672 42.5048 45.4817 42.6333 45.133 42.9086C44.7843 43.2023 44.6008 43.5693 44.5457 44.0282C44.509 44.487 44.6375 44.8725 44.9128 45.2212C45.2064 45.5699 45.5735 45.7718 46.0323 45.8085C46.4728 45.8452 46.8766 45.7167 47.2253 45.4231C47.574 45.1294 47.7576 44.7623 47.7943 44.3218C47.831 43.8814 47.7209 43.4592 47.4272 43.1105ZM46.2526 43.294C46.4912 43.3124 46.6931 43.4225 46.8399 43.6061C47.0051 43.7896 47.0601 44.0098 47.0418 44.2484C47.0234 44.487 46.9133 44.6889 46.7298 44.8357C46.5462 45.0009 46.3444 45.056 46.1058 45.0376C45.8672 45.0193 45.6653 44.9092 45.5184 44.7256C45.3716 44.5421 45.2982 44.3402 45.3165 44.1016C45.3349 43.863 45.445 43.6611 45.6286 43.5143C45.7937 43.3491 46.014 43.2757 46.2526 43.294Z" fill="#FFFC09"/>
<path d="M53.4502 36.0865C53.2673 35.8694 53.0387 35.7551 52.7644 35.7322C52.4901 35.7094 52.2387 35.7894 52.0215 35.9608C51.8044 36.1437 51.6901 36.3723 51.6558 36.658C51.6329 36.9437 51.7129 37.1837 51.8844 37.4009C52.0673 37.6181 52.2958 37.7438 52.5816 37.7666C52.8673 37.7895 53.1073 37.6981 53.3245 37.5152C53.5416 37.3323 53.6674 37.1037 53.6902 36.8294C53.7131 36.5551 53.6331 36.3037 53.4502 36.0865ZM52.7187 36.2008C52.8673 36.2122 52.993 36.2808 53.0845 36.3951C53.1873 36.5094 53.2216 36.6466 53.2102 36.7951C53.1988 36.9437 53.1302 37.0694 53.0159 37.1609C52.9016 37.2637 52.7759 37.298 52.6273 37.2866C52.4787 37.2752 52.353 37.2066 52.2616 37.0923C52.1701 36.978 52.1244 36.8523 52.1358 36.7037C52.1473 36.5551 52.2158 36.4294 52.3301 36.338C52.433 36.2237 52.5701 36.1894 52.7187 36.2008Z" fill="#FFFC09"/>
<path d="M57.9532 39.5647C57.7903 39.3713 57.5868 39.2695 57.3425 39.2491C57.0982 39.2288 56.8743 39.3 56.6809 39.4527C56.4875 39.6155 56.3857 39.8191 56.3552 40.0736C56.3349 40.328 56.4061 40.5417 56.5588 40.7351C56.7216 40.9285 56.9252 41.0405 57.1796 41.0608C57.4341 41.0812 57.6478 41.0099 57.8412 40.8471C58.0346 40.6842 58.1465 40.4807 58.1669 40.2364C58.1873 39.982 58.116 39.758 57.9532 39.5647ZM57.3018 39.6664C57.4341 39.6766 57.546 39.7377 57.6275 39.8395C57.7191 39.9412 57.7496 40.0634 57.7394 40.1957C57.7292 40.328 57.6682 40.44 57.5664 40.5214C57.4646 40.613 57.3527 40.6435 57.2203 40.6333C57.088 40.6232 56.9761 40.5621 56.8946 40.4603C56.8132 40.3585 56.7725 40.2466 56.7827 40.1143C56.7929 39.982 56.8539 39.87 56.9557 39.7886C57.0575 39.697 57.1695 39.6563 57.3018 39.6664Z" fill="#FFFC09"/>
<path d="M59.862 46.864C59.5684 46.5153 59.2013 46.3318 58.7608 46.2951C58.302 46.2584 57.9165 46.3869 57.5678 46.6622C57.2191 46.9558 57.0356 47.3229 56.9805 47.7817C56.9438 48.2406 57.0723 48.626 57.3476 48.9747C57.6412 49.3234 58.0083 49.5253 58.4672 49.562C58.926 49.5987 59.3114 49.4703 59.6601 49.1766C60.0089 48.8829 60.2107 48.5159 60.2475 48.0754C60.2842 47.6165 60.1557 47.2128 59.862 46.864ZM58.6874 47.0476C58.926 47.0659 59.1279 47.1761 59.2747 47.3596C59.4399 47.5431 59.495 47.7634 59.4766 48.002C59.4582 48.2406 59.3481 48.4425 59.1646 48.5893C58.9811 48.7545 58.7792 48.8095 58.5406 48.7912C58.302 48.7545 58.1001 48.6627 57.9349 48.4608C57.7881 48.2773 57.7147 48.0754 57.733 47.8368C57.7514 47.5982 57.8615 47.3963 58.045 47.2495C58.2469 47.0843 58.4488 47.0292 58.6874 47.0476Z" fill="#FFD71C"/>
<path d="M49.2553 59.1806C49.033 58.9167 48.7552 58.7778 48.4218 58.75C48.0885 58.7222 47.7829 58.8195 47.519 59.0278C47.255 59.2501 47.1161 59.5279 47.0745 59.8751C47.0467 60.2224 47.1439 60.5141 47.3523 60.778C47.5745 61.0419 47.8523 61.1947 48.1996 61.2225C48.5469 61.2503 48.8386 61.1531 49.1025 60.9308C49.3664 60.7086 49.5192 60.4307 49.547 60.0974C49.5747 59.7362 49.4775 59.4445 49.2553 59.1806ZM48.3663 59.3195C48.5469 59.3334 48.6997 59.4168 48.8108 59.5557C48.9358 59.6946 48.9775 59.8612 48.9636 60.0418C48.9497 60.2224 48.8663 60.3752 48.7274 60.4863C48.5885 60.6113 48.4357 60.653 48.2552 60.6391C48.0746 60.6252 47.9218 60.5419 47.8107 60.403C47.6995 60.2641 47.644 60.1113 47.6579 59.9307C47.6718 59.7501 47.7551 59.5973 47.894 59.4862C48.0329 59.3473 48.1857 59.3056 48.3663 59.3195Z" fill="#FFD71C"/>
<path d="M65.9825 44.5459C65.837 44.3732 65.6551 44.2822 65.4369 44.264C65.2095 44.2458 65.0186 44.3095 64.8458 44.4459C64.673 44.5914 64.5821 44.7733 64.5548 45.0006C64.5366 45.2279 64.6003 45.4189 64.7367 45.5917C64.8822 45.7644 65.064 45.8645 65.2914 45.8826C65.5187 45.9008 65.7097 45.8372 65.8824 45.6917C66.0552 45.5462 66.1552 45.3643 66.1734 45.1461C66.1916 44.9278 66.128 44.7187 65.9825 44.5459ZM65.4005 44.6369C65.5187 44.646 65.6187 44.7005 65.6915 44.7914C65.7733 44.8824 65.8006 44.9915 65.7915 45.1097C65.7824 45.2279 65.7278 45.328 65.6369 45.4007C65.546 45.4825 65.446 45.5098 65.3277 45.5007C65.2095 45.4916 65.1095 45.4371 65.0367 45.3461C64.964 45.2552 64.9276 45.1552 64.9367 45.037C64.9458 44.9188 65.0004 44.8187 65.0913 44.746C65.1822 44.655 65.2823 44.6278 65.4005 44.6369Z" fill="#FFD71C"/>
<path d="M50.3951 47.9295C50.2469 47.7535 50.0617 47.6609 49.8395 47.6424C49.6172 47.6239 49.4135 47.6887 49.2375 47.8276C49.0616 47.9758 48.969 48.161 48.9412 48.3925C48.9134 48.624 48.9875 48.8184 49.1264 48.9944C49.2746 49.1703 49.4598 49.2722 49.6913 49.2907C49.9228 49.3092 50.1173 49.2444 50.2932 49.0962C50.4691 48.9481 50.571 48.7629 50.5895 48.5406C50.6081 48.3091 50.5432 48.1054 50.3951 47.9295ZM49.8024 48.0221C49.9228 48.0313 50.0247 48.0869 50.0987 48.1795C50.1821 48.2721 50.2099 48.3832 50.2006 48.5036C50.1913 48.624 50.1358 48.7258 50.0432 48.7999C49.9506 48.8833 49.8487 48.911 49.7283 48.9018C49.6079 48.8925 49.5061 48.837 49.432 48.7444C49.3579 48.6518 49.3209 48.5499 49.3301 48.4295C49.3394 48.3091 49.395 48.2073 49.4876 48.1332C49.5709 48.0498 49.682 48.0128 49.8024 48.0221Z" fill="#FFD71C"/>
<path d="M52.72 21.3847C52.5371 21.1676 52.3085 21.0533 52.0342 21.0304C51.7485 21.0076 51.5085 21.0876 51.2913 21.259C51.0742 21.4419 50.9599 21.6705 50.9256 21.9562C50.9027 22.2419 50.9827 22.482 51.1542 22.6991C51.337 22.9163 51.5656 23.042 51.8514 23.0649C52.1371 23.0877 52.3771 23.0077 52.5943 22.8248C52.8114 22.642 52.9371 22.4134 52.96 22.1391C52.9829 21.8533 52.9028 21.6019 52.72 21.3847ZM51.9885 21.499C52.1371 21.5105 52.2628 21.579 52.3542 21.6933C52.4571 21.8076 52.4914 21.9448 52.48 22.0934C52.4685 22.2419 52.4 22.3677 52.2857 22.4591C52.1714 22.562 52.0456 22.5962 51.8971 22.5848C51.7485 22.5734 51.6228 22.5048 51.5313 22.3905C51.4399 22.2762 51.3942 22.1505 51.4056 22.0019C51.417 21.8533 51.4856 21.7276 51.5999 21.6362C51.7142 21.5333 51.8399 21.4876 51.9885 21.499Z" fill="#FFFC09"/>
<path d="M38.5345 57.3228C38.3863 57.1468 38.2011 57.0542 37.9789 57.0357C37.7566 57.0172 37.5529 57.082 37.3769 57.2209C37.201 57.3691 37.1084 57.5543 37.0806 57.7858C37.0621 58.0173 37.1269 58.2117 37.2658 58.3877C37.414 58.5636 37.5992 58.6655 37.8307 58.684C38.0622 58.7025 38.2567 58.6377 38.4326 58.4896C38.6086 58.3414 38.7104 58.1562 38.7289 57.9339C38.7475 57.7024 38.6826 57.4987 38.5345 57.3228ZM37.9418 57.4154C38.0622 57.4246 38.1641 57.4802 38.2381 57.5728C38.3215 57.6654 38.3493 57.7765 38.34 57.8969C38.3308 58.0173 38.2752 58.1191 38.1826 58.1932C38.09 58.2766 37.9881 58.3043 37.8677 58.2951C37.7474 58.2858 37.6455 58.2303 37.5714 58.1377C37.4973 58.0451 37.4603 57.9432 37.4695 57.8228C37.4788 57.7024 37.5344 57.6006 37.627 57.5265C37.7196 57.4431 37.8214 57.4061 37.9418 57.4154Z" fill="#FFD71C"/>
<path d="M62.7716 64.1704C62.3862 64.1337 62.0374 64.2438 61.7438 64.4824C61.652 64.5742 61.5602 64.6476 61.4685 64.721C60.6609 65.4001 59.8166 65.9874 58.954 66.5013C58.6237 66.7032 58.4034 66.9785 58.3116 67.3456C58.2199 67.7126 58.2566 68.0797 58.4585 68.4101C58.6604 68.7404 58.9357 68.9607 59.3027 69.0524C59.6698 69.1626 60.0369 69.1075 60.3673 68.924C61.3767 68.3366 62.3494 67.6576 63.2671 66.8684C63.3589 66.7949 63.4507 66.7215 63.5424 66.6298C63.8361 66.3912 64.0013 66.0792 64.038 65.6937C64.0747 65.3083 63.9646 64.9779 63.726 64.6659C63.469 64.3723 63.157 64.2071 62.7716 64.1704Z" fill="#FFFF00"/>
<path d="M41.7568 31.025C41.3897 30.8965 41.041 30.9149 40.6923 31.0984C39.2607 31.8142 37.9943 32.6768 36.838 33.7046C36.5443 33.9616 36.3975 34.2919 36.3792 34.6773C36.3608 35.0628 36.4709 35.3931 36.7462 35.6868C37.0032 35.9621 37.3335 36.1273 37.719 36.1456C38.1044 36.164 38.4348 36.0539 38.7284 35.7786C39.6828 34.9159 40.7473 34.2002 41.9403 33.5945C42.289 33.4293 42.5276 33.154 42.6561 32.7869C42.7662 32.4198 42.7479 32.0711 42.5827 31.7224C42.3991 31.3737 42.1238 31.1351 41.7568 31.025Z" fill="#FFF9D0"/>
<path d="M52.0897 13.4046L53.0991 13.478C53.4846 13.5147 53.8149 13.4046 54.1086 13.166C54.4022 12.9274 54.5674 12.6154 54.6041 12.23C54.6408 11.8446 54.5307 11.5142 54.2921 11.2022C54.0535 10.9085 53.7415 10.7433 53.3561 10.7066L51.6125 10.5414L49.9056 10.3946C49.5202 10.3579 49.1898 10.468 48.8961 10.7066C48.6025 10.9452 48.4373 11.2572 48.4006 11.6427C48.3639 12.0281 48.474 12.3768 48.7126 12.6705C48.9512 12.9641 49.2632 13.1293 49.6486 13.166L52.0897 13.4046Z" fill="#FFF9D0"/>
<path d="M70.5902 43.9626C64.4968 39.7596 56.8434 40.971 47.6482 47.5966C42.087 51.4142 37.8473 53.5249 34.9108 53.9286C39.0036 53.4514 43.7572 51.2857 49.1532 47.4498C56.6415 42.0355 63.781 40.8609 70.5902 43.9626Z" fill="#FFFC00"/>
<defs>
<linearGradient id="paint0_linear_3120_53020" x1="50.631" y1="50.4614" x2="47.8418" y2="76.21" gradientUnits="userSpaceOnUse">
<stop stop-color="#FFEE00"/>
<stop offset="1" stop-color="#FC6E00"/>
</linearGradient>
<linearGradient id="paint1_linear_3120_53020" x1="54.3833" y1="8.54126" x2="53.7006" y2="16.1358" gradientUnits="userSpaceOnUse">
<stop stop-color="#FFF577"/>
<stop offset="0.7686" stop-color="#FCD000"/>
<stop offset="1" stop-color="#FFEE00"/>
</linearGradient>
<radialGradient id="paint2_radial_3120_53020" cx="0" cy="0" r="1" gradientUnits="userSpaceOnUse" gradientTransform="translate(54.939 39.7817) rotate(5.13636) scale(31.4593)">
<stop offset="0.4784" stop-color="#FFD200"/>
<stop offset="0.749" stop-color="#FFB11C"/>
<stop offset="0.8863" stop-color="#FFD200"/>
</radialGradient>
<linearGradient id="paint3_linear_3120_53020" x1="27.0786" y1="25.8504" x2="58.2131" y2="28.649" gradientUnits="userSpaceOnUse">
<stop stop-color="#C45E37"/>
<stop offset="0.7373" stop-color="#79371E"/>
<stop offset="1" stop-color="#C45E37"/>
</linearGradient>
<linearGradient id="paint4_linear_3120_53020" x1="46.6872" y1="27.6175" x2="63.1519" y2="29.0974" gradientUnits="userSpaceOnUse">
<stop stop-color="#C45E37"/>
<stop offset="0.7373" stop-color="#79371E"/>
<stop offset="1" stop-color="#C45E37"/>
</linearGradient>
<radialGradient id="paint5_radial_3120_53020" cx="0" cy="0" r="1" gradientUnits="userSpaceOnUse" gradientTransform="translate(49.7631 67.4199) rotate(5.13636) scale(34.9125 34.9125)">
<stop offset="0.4784" stop-color="#FFD409"/>
<stop offset="0.749" stop-color="#FFF9D2"/>
<stop offset="0.8863" stop-color="#FFE109"/>
</radialGradient>
<radialGradient id="paint6_radial_3120_53020" cx="0" cy="0" r="1" gradientUnits="userSpaceOnUse" gradientTransform="translate(55.4662 42.2224) rotate(5.13636) scale(30.3553 30.3553)">
<stop offset="0.4784" stop-color="#FFAB09"/>
<stop offset="0.749" stop-color="#D77600"/>
<stop offset="1" stop-color="#FFC609"/>
</radialGradient>
</defs>
</svg>
