<?xml version="1.0" encoding="UTF-8"?>
<svg width="100px" height="100px" viewBox="0 0 100 100" version="1.1" xmlns="http://www.w3.org/2000/svg" xmlns:xlink="http://www.w3.org/1999/xlink">
    <title>C148B647-7B96-41E0-9E75-1BE7049189DF</title>
    <defs>
        <linearGradient x1="54.2950649%" y1="59.0279996%" x2="45.981907%" y2="40.7115235%" id="linearGradient-1">
            <stop stop-color="#F3BD6B" offset="0%"></stop>
            <stop stop-color="#E9E1BA" offset="100%"></stop>
        </linearGradient>
        <linearGradient x1="50.2946994%" y1="63.4436762%" x2="49.8366262%" y2="32.0727599%" id="linearGradient-2">
            <stop stop-color="#F3BD6B" offset="0%"></stop>
            <stop stop-color="#E9E1BA" offset="100%"></stop>
        </linearGradient>
        <linearGradient x1="53.5939077%" y1="56.2965668%" x2="49.7984896%" y2="49.2550856%" id="linearGradient-3">
            <stop stop-color="#FFEEA1" offset="0%"></stop>
            <stop stop-color="#FFFBE8" offset="100%"></stop>
        </linearGradient>
        <linearGradient x1="1.22112539%" y1="52.6188445%" x2="101.22658%" y2="48.9003136%" id="linearGradient-4">
            <stop stop-color="#733DA5" offset="0%"></stop>
            <stop stop-color="#41218E" offset="100%"></stop>
        </linearGradient>
        <linearGradient x1="0.907229306%" y1="52.3988211%" x2="100.854144%" y2="49.0706073%" id="linearGradient-5">
            <stop stop-color="#A754DD" offset="0%"></stop>
            <stop stop-color="#6949CE" offset="100%"></stop>
        </linearGradient>
        <linearGradient x1="1.62799778%" y1="52.0945671%" x2="97.4501153%" y2="48.9423187%" id="linearGradient-6">
            <stop stop-color="#F3BD6B" offset="0%"></stop>
            <stop stop-color="#E9E1BA" offset="100%"></stop>
        </linearGradient>
        <linearGradient x1="-1.92567568%" y1="52.9168573%" x2="100.691441%" y2="48.1831113%" id="linearGradient-7">
            <stop stop-color="#F3BD6B" offset="0%"></stop>
            <stop stop-color="#E9E1BA" offset="100%"></stop>
        </linearGradient>
    </defs>
    <g id="Invision-Assets" stroke="none" stroke-width="1" fill="none" fill-rule="evenodd">
        <g id="Icons" transform="translate(-750.000000, -600.000000)" fill-rule="nonzero">
            <g id="Elements/Graphics/SubjectGraphics/HindiLiterature/Hero-Copy" transform="translate(750.000000, 600.000000)">
                <g id="Group" transform="translate(9.800000, 9.600000)">
                    <g id="Layer0_0_MEMBER_0_FILL" transform="translate(8.825243, 9.609709)" fill="#FFEE00" fill-opacity="0.1">
                        <path d="M62.0310401,38.2427184 C62.5068535,35.9696372 62.7572816,33.6216192 62.7572816,31.2985802 C62.7572816,22.6558757 59.7020587,15.2870958 53.5665703,9.1672617 C47.4310819,3.0474276 40.043453,0 31.3786408,0 C22.7138286,0 15.3261996,3.0474276 9.19071123,9.1672617 C3.05522281,15.2870958 0,22.6558757 0,31.2985802 C0,33.6216192 0.225385289,35.9446583 0.726241486,38.2427184 L62.0310401,38.2427184 Z" id="Path"></path>
                    </g>
                    <g id="Layer0_0_MEMBER_1_FILL" transform="translate(13.924272, 14.708738)" fill="#FFEE00" fill-opacity="0.21">
                        <path d="M44.6930489,7.66200408 C39.579677,2.55400136 33.413552,0 26.194674,0 C18.975796,0 12.8096711,2.55400136 7.67123359,7.66200408 C2.55786167,12.795046 0.00117571365,18.9546964 0.00117571365,26.1409551 C-0.023889835,28.7700742 0.352093394,31.3991932 1.10405985,33.9281553 L51.2351571,33.9281553 C51.9871236,31.3991932 52.3631068,28.7700742 52.3631068,26.1409551 C52.3631068,18.9546964 49.8064208,12.795046 44.6930489,7.66200408 Z" id="Path"></path>
                    </g>
                    <g id="Layer0_0_MEMBER_2_FILL" transform="translate(19.415534, 20.003883)" fill="#FFEE00" fill-opacity="0.21">
                        <path d="M39.9499027,29.0252427 C41.0505663,26.4207343 41.6008981,23.6158791 41.5758831,20.8110239 C41.5758831,15.0760967 39.5496614,10.1676001 35.4722029,6.11057741 C31.4197596,2.0535547 26.5168034,0.0250433501 20.7883495,0 C15.0598956,0 10.1569395,2.02851135 6.10449609,6.11057741 C2.05205273,10.1926435 0.0258310489,15.0760967 0.000815966391,20.7859805 C-0.0241991161,23.6158791 0.526132699,26.4207343 1.62679633,29.0252427 L39.9499027,29.0252427 Z" id="Path"></path>
                    </g>
                    <g id="Layer0_1_MEMBER_0_FILL" transform="translate(12.355340, 35.104854)">
                        <path d="M9.68040796,2.72178285 C6.62870312,3.34604497 3.40190047,3.19622206 0,2.29728461 L10.7810228,15.3318777 L28.5159304,17.2795755 L28.2157627,15.4067892 C25.3141417,5.9429754 19.1356901,1.69799297 9.68040796,2.72178285 Z" id="Path" fill="url(#linearGradient-1)"></path>
                        <path d="M56.4815534,0 C54.8806591,0.749114546 52.7794852,1.1486423 50.2030459,1.17361279 C37.9461986,0.0499409698 30.6921462,4.56959873 28.4408885,14.7076156 L28.8160981,17.4543689 L51.0285071,9.43884329 L56.4815534,0 Z" id="Path" fill="url(#linearGradient-2)"></path>
                    </g>
                    <g id="Layer0_1_MEMBER_1_FILL" transform="translate(1.372816, 36.673786)" fill="url(#linearGradient-3)">
                        <path d="M13.3050062,8.52082425 C9.47856643,9.76655879 6.57747486,9.99079101 4.60173146,9.1935209 C3.57634564,11.037208 2.05077163,12.731407 0,14.2761178 L34.087826,16.4935253 L35.6634188,19.7573498 C38.8396139,20.3303877 42.015809,19.9068379 45.1920041,18.4617859 L45.8172393,14.8989851 L78.0543689,3.68737424 C76.353729,3.03959228 74.7531268,2.11774872 73.302581,0.996587632 C72.8023928,1.24573454 72.2771952,1.44505207 71.7519976,1.56962552 L72.5272893,0.32389098 C72.4022422,0.224232217 72.3022046,0.124573454 72.202167,0 C70.5765553,1.27064923 67.750492,1.96826057 63.6989675,2.04300465 C50.919159,1.96826057 42.9161477,5.85495234 39.6899338,13.6781652 C33.9377695,6.10409925 25.1344572,4.38498558 13.3050062,8.52082425 Z" id="Path"></path>
                    </g>
                    <g id="Layer0_1_MEMBER_2_FILL" transform="translate(0.392233, 40.400000)" fill="url(#linearGradient-4)">
                        <path d="M0.675553289,10.2307256 L0,11.484491 L8.85725423,16.6750797 L35.8793858,18.5808031 L36.4048161,19.7091919 C36.4548571,19.8596438 36.5299186,20.035171 36.6049801,20.1856228 C37.1554309,21.1886351 38.1812711,21.6399907 39.6574801,21.5647647 L39.7325416,21.5647647 L43.9109638,20.9880326 C45.7374597,20.7623549 46.8133409,19.959945 47.0885663,18.5557278 C47.1135868,18.4303513 47.1386073,18.3049747 47.1386073,18.1795982 L47.2887302,17.026134 L72.8596732,7.92379727 L80.015534,0.526581464 L78.2640995,0 L46.6882384,11.0331354 L45.0368859,14.9699588 L36.9302465,16.0732723 L35.3039145,12.8385576 L0.675553289,10.2307256 Z" id="Path"></path>
                    </g>
                    <g id="Layer0_1_MEMBER_3_FILL" transform="translate(34.712621, 53.539806)">
                        <path d="M13.5320388,0 L11.799737,0.224547596 L10.51934,7.68451772 C11.7746312,7.33522146 12.5027001,6.58672948 12.7286525,5.4639915 C12.7537583,5.33924283 12.7788641,5.21449417 12.7788641,5.0897455 L13.5320388,0 Z" id="Path" fill="#32246D"></path>
                        <path d="M1.35571447,1.47203424 L0,2.19557649 L2.0335717,6.63662894 C2.08378335,6.78632734 2.15910082,6.93602574 2.25952411,7.08572413 C2.66121728,7.83421612 3.41439199,8.33321078 4.26798999,8.43300971 L1.35571447,1.47203424 Z" id="Path" fill="#805BD8"></path>
                    </g>
                    <g id="Layer0_1_MEMBER_4_FILL" transform="translate(0.000000, 38.831068)" fill="url(#linearGradient-5)">
                        <path d="M36.3401204,13.5864194 C36.1400098,13.3858818 35.8648578,13.2856131 35.564692,13.2605459 L0.495317207,10.7788936 C-0.105014458,11.6813126 -0.155042097,12.50853 0.320220471,13.2605459 L34.4140563,15.6920637 L34.4640839,16.0179373 C34.4640839,16.0179373 34.4640839,16.0430044 34.4640839,16.0430044 C34.8392912,18.4494551 36.2900928,19.5524117 38.7914747,19.4020085 L38.89153,19.4020085 L44.1194182,18.6750599 C46.9709936,18.3491863 48.3217399,16.8702219 48.171657,14.2632336 L48.1466431,14.1378977 L48.0966155,13.8120241 L80.3144149,2.33124908 C80.5895669,1.45389728 80.2393734,0.501343889 79.4889588,0 L46.3456481,11.7815814 C46.0704961,11.8818502 45.8453718,12.0573205 45.6952888,12.3079925 C45.5452059,12.5586644 45.4951783,12.8344036 45.5201921,13.1101427 L45.6952888,14.3635024 C45.670275,15.4163246 45.0449295,16.0179373 43.7942386,16.1683404 L43.7692247,16.1683404 L38.6413918,16.8702219 C37.6658528,16.9203563 37.090535,16.4942139 36.9154382,15.5917949 L36.7403415,14.313368 C36.6903139,14.0376289 36.5652448,13.7869569 36.3401204,13.5864194 Z" id="Path"></path>
                    </g>
                    <g id="Layer0_1_MEMBER_5_FILL" transform="translate(40.596117, 34.712621)" fill="#FFFBE8">
                        <path d="M28.2407767,0.326960646 L27.9411398,0 C26.4179856,0.754524568 24.5202853,1.15693767 22.2480389,1.20723931 L21.9983415,1.20723931 C8.81431846,0.452714741 1.49818444,5.43257689 0.0249697407,16.1468258 L0,16.4234848 L0.549334295,16.4737864 L0.574304035,16.1971274 C2.02254899,5.80983918 9.16389483,1.00603276 21.948402,1.73540651 L21.9733718,1.73540651 L22.2480389,1.73540651 C24.745013,1.71025569 26.7425923,1.23239013 28.2407767,0.326960646 Z" id="Path"></path>
                    </g>
                    <g id="Layer0_1_MEMBER_6_FILL" transform="translate(12.355340, 36.869903)" fill="#FFFBE8">
                        <path d="M9.47635632,0.623394388 L9.47635632,0.623394388 C5.80083025,1.24678878 3.17545449,1.24678878 1.62523261,0.598458613 C1.15016462,0.44884396 0.700100203,0.249357755 0.275039365,0 L0,0.44884396 L1.42520398,1.09717412 C3.0504366,1.79537584 5.7508231,1.79537584 9.55136705,1.14704567 C19.0277234,-0.748073266 25.3036216,4.43856804 28.2290403,14.2383278 L28.3040511,14.5126214 L28.8291262,14.3380709 L28.7541155,14.0887132 C25.7286825,3.98972409 19.6028057,-1.37146765 9.47635632,0.623394388 Z" id="Path"></path>
                    </g>
                    <g id="Layer0_1_MEMBER_7_FILL" transform="translate(16.866019, 36.869903)">
                        <path d="M0,9.2003574 C9.18625192,8.07836259 16.7204803,9.39982314 22.5776546,13.1398058 C16.3700511,7.62956467 8.83582269,6.33303734 0,9.2003574 Z" id="Path" fill="url(#linearGradient-6)"></path>
                        <path d="M56.2939525,1.22172768 L57.0699029,0 C55.8684313,0.897595844 54.0161625,1.52092629 51.5130966,1.86999134 C53.1400894,1.86999134 54.7420516,1.6705256 56.2939525,1.22172768 Z" id="Path" fill="url(#linearGradient-7)"></path>
                    </g>
                    <g id="Layer0_2_FILL" transform="translate(23.533981, 69.033010)" fill="#633FA8">
                        <path d="M27.2213718,2.04182985 C24.146916,0.818448421 20.4225753,0.144340284 16.0483497,0.0195054438 C11.674124,-0.105329396 7.89979214,0.369042996 4.77534524,1.44262262 C1.62590276,2.49123528 0.0511815159,3.83945155 0.00119036547,5.48727144 C-0.048800785,7.0851574 1.4759293,8.50827457 4.55038506,9.73165601 C7.62484081,10.9550374 11.3491815,11.6291456 15.7234072,11.7539804 C20.0976329,11.8538483 23.8719647,11.3794759 26.9964116,10.3058963 C30.1208585,9.23231665 31.7205753,7.90906734 31.7708738,6.31118139 C31.7955621,4.68832846 30.2958276,3.26521129 27.2213718,2.04182985 Z" id="Path"></path>
                    </g>
                    <g id="Layer0_3_MEMBER_0_FILL" transform="translate(33.732039, 29.613592)" fill="#FFFFFF">
                        <path d="M2.43426126,0.119924116 C2.40916578,0.0694297511 2.35897483,0.0441825689 2.30878388,0.0189353867 C2.25859292,-0.00631179556 2.18330649,-0.00631179556 2.13311554,0.0189353867 C2.08292458,0.0441825689 2.03273363,0.0694297511 1.98254268,0.0946769334 C1.93235172,0.145171298 1.90725625,0.195665662 1.90725625,0.246160027 L1.68139695,1.83673251 L0.175668338,2.39217052 C0.125477385,2.4174177 0.0752864308,2.44266488 0.0501909538,2.49315925 C0.0250954769,2.54365361 0,2.59414797 0,2.64464234 C0,2.6951367 0,2.74563107 0.0250954769,2.79612543 C0.0501909538,2.8466198 0.100381908,2.89711416 0.150572862,2.89711416 L1.58101505,3.60403526 L1.631206,5.21985493 C1.631206,5.27034929 1.65630148,5.32084366 1.68139695,5.37133802 C1.70649243,5.42183238 1.75668338,5.44707957 1.80687434,5.47232675 C1.85706529,5.49757393 1.93235172,5.49757393 1.98254268,5.47232675 C2.03273363,5.44707957 2.08292458,5.42183238 2.10802006,5.3965852 L3.21222105,4.23521482 L4.74304514,4.6896641 C4.79323609,4.71491128 4.86852252,4.71491128 4.91871348,4.6896641 C4.96890443,4.66441692 5.01909538,4.63916974 5.06928634,4.58867537 C5.09438182,4.53818101 5.11947729,4.48768664 5.11947729,4.43719228 C5.11947729,4.38669791 5.11947729,4.33620355 5.09438182,4.28570918 L4.34151751,2.8466198 L5.24495468,1.50851914 C5.27005015,1.45802477 5.29514563,1.40753041 5.29514563,1.35703605 C5.29514563,1.30654168 5.27005015,1.25604732 5.24495468,1.20555295 C5.2198592,1.15505859 5.16966825,1.1298114 5.11947729,1.10456422 C5.06928634,1.07931704 5.01909538,1.07931704 4.94380895,1.07931704 L3.36279391,1.35703605 L2.43426126,0.119924116 Z" id="Path"></path>
                    </g>
                    <g id="Layer0_3_MEMBER_1_FILL" transform="translate(42.949515, 27.456311)" fill="#FFF02E">
                        <path d="M3.70179442,0.0062512711 C3.62624759,0.0312563555 3.57588304,0.0562614399 3.52551849,0.106271609 L2.31676929,1.63158176 L0.402916399,1.28151058 C0.352551849,1.28151058 0.277005024,1.28151058 0.226640474,1.30651566 C0.15109365,1.33152074 0.1007291,1.38153091 0.0503645499,1.45654617 C0,1.50655633 0,1.58157159 0,1.65658684 C0,1.73160209 0.0251822749,1.78161226 0.0503645499,1.85662752 L1.1080201,3.45695292 L0.2014582,5.18230374 C0.176275925,5.23231391 0.15109365,5.30732916 0.176275925,5.38234442 C0.176275925,5.45735967 0.2014582,5.50736984 0.251822749,5.55738001 C0.302187299,5.60739018 0.377734124,5.65740034 0.453280949,5.68240543 C0.503645499,5.70741051 0.579192324,5.70741051 0.629556874,5.68240543 L2.49304522,5.15729866 L3.82770579,6.55758338 C3.87807034,6.60759355 3.95361717,6.65760372 4.02916399,6.65760372 C4.10471082,6.6826088 4.15507537,6.65760372 4.23062219,6.63259864 C4.28098674,6.60759355 4.35653357,6.55758338 4.38171584,6.50757321 C4.43208039,6.45756304 4.45726266,6.38254779 4.45726266,6.33253762 L4.53280949,4.38214104 L6.27038646,3.53196817 C6.32075101,3.50696309 6.39629784,3.45695292 6.42148011,3.40694275 C6.44666239,3.35693258 6.47184466,3.28191733 6.47184466,3.20690207 C6.44666239,3.13188682 6.42148011,3.05687157 6.39629784,3.0068614 C6.37111556,2.95685123 6.29556874,2.90684106 6.24520419,2.88183598 L4.40689811,2.23170378 L4.15507537,0.331317368 C4.15507537,0.256302115 4.10471082,0.181286862 4.05434627,0.131276693 C4.00398172,0.0812665243 3.95361717,0.0562614399 3.87807034,0.0312563555 C3.85288807,-0.0187538133 3.77734124,0.0062512711 3.70179442,0.0062512711 Z" id="Path"></path>
                    </g>
                    <g id="Layer0_3_MEMBER_2_FILL" transform="translate(38.438835, 36.281553)" fill="#FFFFFF">
                        <path d="M1.56893204,0 C1.54441748,0 1.54441748,0.0243245277 1.51990291,0.0243245277 L1.34830097,0.510815082 C1.27475728,0.705411304 1.17669903,0.875682998 1.02961165,1.02163016 C0.882524272,1.16757733 0.71092233,1.26487544 0.514805825,1.33784903 L0.0245145631,1.50812072 C0,1.50812072 0,1.53244525 0,1.55676977 C0,1.5810943 0,1.60541883 0.0245145631,1.60541883 L0.514805825,1.77569052 C0.907038835,1.92163769 1.20121359,2.23785655 1.34830097,2.627049 L1.51990291,3.11353955 C1.51990291,3.13786408 1.54441748,3.13786408 1.56893204,3.13786408 C1.5934466,3.13786408 1.61796117,3.13786408 1.61796117,3.11353955 L1.78956311,2.627049 C1.93665049,2.23785655 2.23082524,1.92163769 2.62305825,1.77569052 L3.11334951,1.60541883 C3.13786408,1.60541883 3.13786408,1.5810943 3.13786408,1.55676977 C3.13786408,1.53244525 3.13786408,1.53244525 3.11334951,1.50812072 L2.62305825,1.33784903 C2.42694175,1.26487544 2.25533981,1.1432528 2.10825243,1.02163016 C1.96116505,0.875682998 1.83859223,0.705411304 1.76504854,0.510815082 L1.5934466,0.0243245277 C1.61796117,0 1.5934466,0 1.56893204,0 Z" id="Path"></path>
                    </g>
                    <g id="Layer0_3_MEMBER_3_FILL" transform="translate(37.850485, 41.380583)" fill="#FFFFFF">
                        <path d="M0.894613645,0 C0.894613645,0 0.870434898,0 0.870434898,0.0238520073 L0.77371991,0.286224088 C0.725362415,0.405484125 0.677004921,0.500892154 0.580289932,0.572448176 C0.507753691,0.644004198 0.411038702,0.71556022 0.290144966,0.763264235 L0.0241787472,0.858672264 C0.0241787472,0.858672264 0,0.858672264 0,0.882524272 C0,0.906376279 0,0.906376279 0.0241787472,0.906376279 L0.290144966,1.00178431 C0.507753691,1.07334033 0.677004921,1.26415639 0.749541162,1.47882446 L0.846256151,1.74119654 C0.846256151,1.74119654 0.870434898,1.76504854 0.870434898,1.76504854 C0.894613645,1.76504854 0.894613645,1.76504854 0.894613645,1.74119654 L0.991328634,1.47882446 C1.03968613,1.35956442 1.08804362,1.26415639 1.18475861,1.19260037 C1.25729485,1.12104435 1.35400984,1.04948832 1.47490358,1.00178431 L1.7408698,0.906376279 C1.7408698,0.906376279 1.76504854,0.906376279 1.76504854,0.882524272 C1.76504854,0.882524272 1.76504854,0.858672264 1.7408698,0.858672264 L1.47490358,0.763264235 C1.37818859,0.71556022 1.2814736,0.667856206 1.18475861,0.572448176 C1.11222237,0.500892154 1.03968613,0.405484125 0.991328634,0.286224088 L0.894613645,0.0238520073 C0.918792393,0.0238520073 0.894613645,0 0.894613645,0 C0.894613645,0 0.894613645,0 0.894613645,0 Z" id="Path"></path>
                    </g>
                    <g id="Layer0_3_MEMBER_4_FILL" transform="translate(36.281553, 39.223301)" fill="#FFFFFF">
                        <path d="M0.564815534,0 C0.564815534,0 0.564815534,0 0.564815534,0 L0.494213592,0.192114127 C0.470679612,0.264156925 0.42361165,0.336199723 0.376543689,0.384228254 C0.329475728,0.432256786 0.258873786,0.480285318 0.188271845,0.504299584 L0.0235339806,0.576342382 C0.0235339806,0.576342382 0,0.576342382 0,0.600356648 C0,0.600356648 0,0.624370913 0.0235339806,0.624370913 L0.188271845,0.696413711 C0.258873786,0.720427977 0.329475728,0.768456509 0.376543689,0.816485041 C0.42361165,0.864513572 0.470679612,0.93655637 0.494213592,1.00859917 L0.564815534,1.17669903 C0.564815534,1.17669903 0.564815534,1.17669903 0.588349515,1.17669903 C0.588349515,1.17669903 0.611883495,1.17669903 0.611883495,1.17669903 L0.682485437,1.00859917 C0.706019417,0.93655637 0.753087379,0.864513572 0.80015534,0.816485041 C0.847223301,0.768456509 0.917825243,0.720427977 0.988427184,0.696413711 L1.17669903,0.624370913 C1.17669903,0.624370913 1.17669903,0.624370913 1.17669903,0.600356648 C1.17669903,0.600356648 1.17669903,0.600356648 1.17669903,0.576342382 L0.988427184,0.504299584 C0.917825243,0.480285318 0.847223301,0.432256786 0.80015534,0.384228254 C0.753087379,0.336199723 0.706019417,0.264156925 0.682485437,0.192114127 L0.564815534,0 C0.588349515,0 0.588349515,0 0.564815534,0 Z" id="Path"></path>
                    </g>
                    <g id="Layer0_3_MEMBER_5_FILL" transform="translate(42.949515, 37.654369)" fill="#FFFFFF">
                        <path d="M0.564815534,0 C0.564815534,0 0.564815534,0 0.564815534,0 L0.494213592,0.188271845 C0.470679612,0.258873786 0.42361165,0.329475728 0.376543689,0.376543689 C0.329475728,0.42361165 0.258873786,0.470679612 0.188271845,0.494213592 L0.0235339806,0.564815534 C0.0235339806,0.564815534 0,0.564815534 0,0.588349515 C0,0.588349515 0,0.611883495 0.0235339806,0.611883495 L0.188271845,0.682485437 C0.258873786,0.706019417 0.329475728,0.753087379 0.376543689,0.80015534 C0.42361165,0.847223301 0.470679612,0.917825243 0.494213592,0.988427184 L0.564815534,1.15316505 C0.564815534,1.15316505 0.564815534,1.17669903 0.588349515,1.17669903 C0.588349515,1.17669903 0.611883495,1.17669903 0.611883495,1.15316505 L0.682485437,0.988427184 C0.706019417,0.917825243 0.753087379,0.847223301 0.80015534,0.80015534 C0.847223301,0.753087379 0.917825243,0.706019417 0.988427184,0.682485437 L1.17669903,0.611883495 C1.17669903,0.611883495 1.17669903,0.611883495 1.17669903,0.588349515 C1.17669903,0.588349515 1.17669903,0.588349515 1.17669903,0.564815534 L0.988427184,0.494213592 C0.917825243,0.470679612 0.847223301,0.42361165 0.80015534,0.376543689 C0.753087379,0.329475728 0.706019417,0.258873786 0.682485437,0.188271845 L0.564815534,0 C0.588349515,0 0.588349515,0 0.564815534,0 Z" id="Path"></path>
                    </g>
                    <g id="Layer0_3_MEMBER_6_FILL" transform="translate(30.398058, 21.768932)" fill="#FFFC19">
                        <path d="M1.70931017,0.0740062282 C1.68453756,0.123343714 1.65976495,0.148012456 1.65976495,0.197349942 L1.48635667,1.60346828 L0.148635667,2.12151188 C0.0990904446,2.14618062 0.0743178334,2.17084936 0.0495452223,2.22018685 C0.0247726111,2.26952433 0,2.31886182 0,2.3681993 C0,2.46687427 0.0495452223,2.56554925 0.148635667,2.61488673 L1.43681145,3.20693656 L1.53590189,4.63772364 C1.53590189,4.68706112 1.5606745,4.73639861 1.58544711,4.78573609 C1.61021972,4.83507358 1.65976495,4.85974232 1.68453756,4.88441106 C1.73408278,4.90907981 1.80840061,4.90907981 1.85794584,4.88441106 C1.90749106,4.88441106 1.93226367,4.85974232 1.98180889,4.81040484 L2.94794073,3.7496489 L4.33520695,4.11968004 C4.38475217,4.14434878 4.43429739,4.14434878 4.48384262,4.11968004 C4.53338784,4.0950113 4.55816045,4.07034255 4.58293306,4.02100507 C4.60770567,3.99633633 4.63247828,3.94699884 4.63247828,3.89766135 C4.63247828,3.84832387 4.63247828,3.79898638 4.60770567,3.7496489 L3.88929995,2.51621176 L4.65725089,1.30744337 C4.68202351,1.25810588 4.70679612,1.20876839 4.70679612,1.15943091 C4.70679612,1.11009342 4.68202351,1.06075594 4.65725089,1.01141845 C4.63247828,0.962080967 4.58293306,0.937412224 4.53338784,0.912743482 C4.48384262,0.888074739 4.43429739,0.888074739 4.38475217,0.888074739 L2.99748595,1.15943091 L2.10567195,0.0740062282 C2.08089934,0.0246687427 2.03135411,0 1.98180889,0 C1.93226367,0 1.88271845,0 1.83317322,0 C1.783628,0.0246687427 1.73408278,0.0493374855 1.70931017,0.0740062282 Z" id="Path"></path>
                    </g>
                    <g id="Layer0_3_MEMBER_7_FILL" transform="translate(50.401942, 32.359223)" fill="#FFFFFF">
                        <path d="M0.894613645,0 C0.894613645,0 0.870434898,0 0.870434898,0.0238520073 L0.77371991,0.286224088 C0.725362415,0.405484125 0.677004921,0.500892154 0.580289932,0.572448176 C0.507753691,0.644004198 0.411038702,0.71556022 0.290144966,0.763264235 L0.0241787472,0.858672264 C0.0241787472,0.858672264 0,0.858672264 0,0.882524272 C0,0.906376279 0,0.906376279 0.0241787472,0.906376279 L0.290144966,1.00178431 C0.507753691,1.09719234 0.677004921,1.26415639 0.749541162,1.47882446 L0.846256151,1.74119654 C0.846256151,1.74119654 0.870434898,1.76504854 0.870434898,1.76504854 C0.894613645,1.76504854 0.894613645,1.76504854 0.894613645,1.74119654 L0.991328634,1.47882446 C1.03968613,1.35956442 1.08804362,1.26415639 1.18475861,1.19260037 C1.25729485,1.12104435 1.35400984,1.04948832 1.47490358,1.00178431 L1.7408698,0.906376279 C1.7408698,0.906376279 1.76504854,0.906376279 1.76504854,0.882524272 C1.76504854,0.882524272 1.76504854,0.858672264 1.7408698,0.858672264 L1.47490358,0.763264235 C1.37818859,0.71556022 1.2814736,0.667856206 1.18475861,0.572448176 C1.11222237,0.500892154 1.03968613,0.405484125 0.991328634,0.286224088 L0.894613645,0.0238520073 C0.918792393,0.0238520073 0.918792393,0 0.894613645,0 C0.918792393,0 0.894613645,0 0.894613645,0 Z" id="Path"></path>
                    </g>
                    <g id="Layer0_3_MEMBER_8_FILL" transform="translate(27.652427, 29.809709)" fill="#FFFFFF">
                        <path d="M0.894613645,0 C0.894613645,0 0.870434898,0 0.870434898,0.0238520073 L0.77371991,0.286224088 C0.725362415,0.405484125 0.677004921,0.500892154 0.580289932,0.572448176 C0.507753691,0.644004198 0.411038702,0.71556022 0.290144966,0.763264235 L0.0241787472,0.858672264 C0.0241787472,0.858672264 0,0.858672264 0,0.882524272 C0,0.906376279 0,0.906376279 0.0241787472,0.906376279 L0.290144966,1.00178431 C0.507753691,1.09719234 0.677004921,1.26415639 0.749541162,1.47882446 L0.846256151,1.74119654 C0.846256151,1.74119654 0.870434898,1.76504854 0.870434898,1.76504854 C0.894613645,1.76504854 0.894613645,1.76504854 0.894613645,1.74119654 L0.991328634,1.47882446 C1.03968613,1.35956442 1.08804362,1.26415639 1.18475861,1.19260037 C1.25729485,1.12104435 1.35400984,1.04948832 1.47490358,1.00178431 L1.7408698,0.906376279 C1.7408698,0.906376279 1.76504854,0.882524272 1.76504854,0.882524272 C1.76504854,0.882524272 1.76504854,0.858672264 1.7408698,0.858672264 L1.47490358,0.763264235 C1.37818859,0.71556022 1.2814736,0.667856206 1.18475861,0.572448176 C1.11222237,0.500892154 1.03968613,0.405484125 0.991328634,0.286224088 L0.894613645,0.0238520073 C0.918792393,0.0238520073 0.918792393,0 0.894613645,0 C0.918792393,0 0.894613645,0 0.894613645,0 Z" id="Path"></path>
                    </g>
                    <g id="Layer0_3_MEMBER_9_FILL" transform="translate(38.438835, 16.277670)" fill="#FFFC19">
                        <path d="M4.46847733,0.0180526265 C4.3940027,0.0430784635 4.31952808,0.0931301375 4.26987833,0.168207649 L2.80521077,2.04514542 L0.496497481,1.61970619 C0.422022859,1.61970619 0.347548236,1.61970619 0.273073614,1.66975787 C0.198598992,1.69478371 0.12412437,1.76986122 0.0744746221,1.84493873 C0.024824874,1.92001624 0,1.99509375 0,2.07017126 C0,2.14524877 0.024824874,2.24535212 0.0744746221,2.29540379 L1.36536807,4.27244492 L0.24824874,6.39964106 C0.223423866,6.47471857 0.198598992,6.57482192 0.198598992,6.64989943 C0.198598992,6.72497694 0.223423866,6.80005445 0.273073614,6.87513196 C0.347548236,6.95020948 0.422022859,7.00026115 0.521322355,7.02528699 C0.595796977,7.05031282 0.670271599,7.05031282 0.744746221,7.05031282 L3.00380976,6.39964106 L4.64225144,8.10139798 C4.71672607,8.15144965 4.79120069,8.20150133 4.86567531,8.22652716 C4.94014993,8.251553 5.01462455,8.22652716 5.08909918,8.20150133 C5.1635738,8.17647549 5.23804842,8.12642381 5.28769817,8.0513463 C5.33734792,7.97626879 5.36217279,7.90119128 5.38699766,7.82611377 L5.46147229,5.44865926 L7.59641145,4.3975741 C7.67088608,4.37254826 7.7453607,4.32249659 7.77018557,4.24741908 C7.81983532,4.17234157 7.84466019,4.09726406 7.84466019,4.02218655 C7.84466019,3.9220832 7.79501045,3.84700569 7.7453607,3.77192818 C7.69571095,3.69685067 7.62123633,3.64679899 7.54676171,3.62177315 L5.33734792,2.79592053 L5.01462455,0.443491856 C4.98979968,0.368414345 4.96497481,0.268310997 4.89050018,0.218259323 C4.81602556,0.0180526265 4.64225144,-0.0319990475 4.46847733,0.0180526265 L4.46847733,0.0180526265 Z" id="Path"></path>
                    </g>
                    <g id="Layer0_3_MEMBER_10_FILL" transform="translate(29.417476, 7.256311)" fill="#FFFC19">
                        <path d="M1.85706529,0.118831413 C1.83196982,0.168865692 1.80687434,0.218899971 1.80687434,0.26893425 L1.65630148,1.87003118 L0.175668338,2.47044253 C0.125477385,2.49545967 0.0752864308,2.52047681 0.0501909538,2.57051109 C0.0250954769,2.62054537 0,2.67057965 0,2.74563107 C0,2.79566535 0,2.87071677 0.0501909538,2.89573391 C0.0752864308,2.94576818 0.125477385,2.97078532 0.175668338,2.99580246 L1.631206,3.62123095 L1.78177886,5.22232789 C1.78177886,5.27236216 1.80687434,5.32239644 1.85706529,5.37243072 C1.88216077,5.422465 1.93235172,5.44748214 1.98254268,5.47249928 C2.03273363,5.49751642 2.10802006,5.49751642 2.18330649,5.47249928 C2.23349745,5.47249928 2.2836884,5.44748214 2.30878388,5.39744786 L3.36279391,4.19662516 L4.91871348,4.54686512 C4.96890443,4.54686512 5.04419086,4.54686512 5.09438182,4.52184798 C5.14457277,4.49683084 5.19476372,4.4718137 5.2198592,4.42177942 C5.24495468,4.37174514 5.27005015,4.32171086 5.27005015,4.27167658 C5.27005015,4.2216423 5.27005015,4.14659088 5.24495468,4.12157374 L4.41680394,2.74563107 L5.24495468,1.36968839 C5.27005015,1.31965411 5.29514563,1.26961983 5.29514563,1.21958555 C5.29514563,1.16955127 5.27005015,1.119517 5.24495468,1.06948272 C5.19476372,1.01944844 5.16966825,0.994431298 5.09438182,0.969414158 C5.04419086,0.944397019 4.99399991,0.944397019 4.91871348,0.944397019 L3.36279391,1.29463697 L2.33387935,0.0938142734 C2.2836884,0.0437799942 2.23349745,0.0187628547 2.18330649,0.0187628547 C2.13311554,-0.00625428489 2.08292458,-0.00625428489 2.00763815,0.0187628547 C1.9574472,0.0437799942 1.90725625,0.0687971338 1.85706529,0.118831413 Z" id="Path"></path>
                    </g>
                    <g id="Layer0_3_MEMBER_11_FILL" transform="translate(46.479612, 3.137864)" fill="#FFFC19">
                        <path d="M1.85706529,0.143848553 C1.83196982,0.193882832 1.80687434,0.243917111 1.80687434,0.29395139 L1.65630148,1.87003118 L0.175668338,2.47044253 C0.125477385,2.49545967 0.0752864308,2.52047681 0.0501909538,2.57051109 C0.0250954769,2.62054537 0,2.67057965 0,2.74563107 C0,2.79566535 0,2.87071677 0.0501909538,2.89573391 C0.0752864308,2.94576818 0.125477385,2.97078532 0.175668338,2.99580246 L1.631206,3.62123095 L1.78177886,5.22232789 C1.78177886,5.27236216 1.80687434,5.32239644 1.85706529,5.37243072 C1.88216077,5.422465 1.93235172,5.44748214 1.98254268,5.47249928 C2.03273363,5.49751642 2.10802006,5.49751642 2.18330649,5.47249928 C2.23349745,5.47249928 2.2836884,5.44748214 2.30878388,5.39744786 L3.36279391,4.19662516 L4.91871348,4.57188226 C4.96890443,4.57188226 5.04419086,4.57188226 5.09438182,4.54686512 C5.14457277,4.52184798 5.19476372,4.49683084 5.2198592,4.44679656 C5.24495468,4.39676228 5.27005015,4.346728 5.27005015,4.29669372 C5.27005015,4.24665944 5.27005015,4.17160802 5.24495468,4.12157374 L4.41680394,2.74563107 L5.24495468,1.36968839 C5.27005015,1.31965411 5.29514563,1.26961983 5.29514563,1.21958555 C5.29514563,1.16955127 5.27005015,1.119517 5.24495468,1.06948272 C5.19476372,1.01944844 5.16966825,0.994431298 5.09438182,0.969414158 C5.04419086,0.944397019 4.99399991,0.944397019 4.91871348,0.944397019 L3.36279391,1.29463697 L2.33387935,0.0938142734 C2.2836884,0.0437799942 2.23349745,0.0187628547 2.18330649,0.0187628547 C2.13311554,-0.00625428489 2.08292458,-0.00625428489 2.00763815,0.0187628547 C1.93235172,0.0687971338 1.90725625,0.0938142734 1.85706529,0.143848553 Z" id="Path"></path>
                    </g>
                    <g id="Layer0_3_MEMBER_12_FILL" transform="translate(53.932039, 18.631068)" fill="#FFFFFF">
                        <path d="M1.56893204,0 C1.54441748,0 1.54441748,0.0243245277 1.51990291,0.0243245277 L1.34830097,0.510815082 C1.27475728,0.705411304 1.17669903,0.875682998 1.02961165,1.02163016 C0.882524272,1.16757733 0.71092233,1.26487544 0.514805825,1.33784903 L0.0245145631,1.50812072 C0,1.50812072 0,1.53244525 0,1.55676977 C0,1.5810943 0,1.60541883 0.0245145631,1.60541883 L0.514805825,1.77569052 C0.907038835,1.92163769 1.20121359,2.23785655 1.34830097,2.627049 L1.51990291,3.11353955 C1.51990291,3.13786408 1.54441748,3.13786408 1.56893204,3.13786408 C1.5934466,3.13786408 1.61796117,3.13786408 1.61796117,3.11353955 L1.78956311,2.627049 C1.93665049,2.23785655 2.23082524,1.92163769 2.62305825,1.77569052 L3.11334951,1.60541883 C3.13786408,1.60541883 3.13786408,1.5810943 3.13786408,1.55676977 C3.13786408,1.53244525 3.13786408,1.53244525 3.11334951,1.50812072 L2.62305825,1.33784903 C2.42694175,1.26487544 2.25533981,1.1432528 2.10825243,1.02163016 C1.96116505,0.875682998 1.83859223,0.705411304 1.76504854,0.510815082 L1.5934466,0.0243245277 C1.61796117,0 1.5934466,0 1.56893204,0 Z" id="Path"></path>
                    </g>
                    <g id="Layer0_3_MEMBER_13_FILL" transform="translate(34.712621, 0.000000)" fill="#FFFFFF">
                        <path d="M1.56893204,0 C1.54441748,0 1.54441748,0 1.51990291,0.051292009 L1.34830097,0.564212099 C1.27475728,0.769380134 1.17669903,0.948902166 1.02961165,1.10277819 C0.882524272,1.25665422 0.71092233,1.35923824 0.514805825,1.43617625 L0.0245145631,1.61569828 C0,1.61569828 0,1.64134429 0,1.66699029 C0,1.6926363 0,1.7182823 0.0245145631,1.7182823 L0.514805825,1.89780433 C0.907038835,2.05168036 1.20121359,2.38507842 1.34830097,2.79541449 L1.51990291,3.30833458 C1.51990291,3.33398058 1.54441748,3.33398058 1.56893204,3.33398058 C1.5934466,3.33398058 1.61796117,3.33398058 1.61796117,3.30833458 L1.78956311,2.79541449 C1.93665049,2.38507842 2.23082524,2.05168036 2.62305825,1.89780433 L3.11334951,1.7182823 C3.13786408,1.7182823 3.13786408,1.6926363 3.13786408,1.66699029 C3.13786408,1.64134429 3.13786408,1.64134429 3.11334951,1.61569828 L2.62305825,1.43617625 C2.42694175,1.35923824 2.25533981,1.23100822 2.10825243,1.10277819 C1.96116505,0.948902166 1.83859223,0.769380134 1.76504854,0.564212099 L1.5934466,0.051292009 C1.61796117,0.0256460045 1.5934466,0 1.56893204,0 Z" id="Path"></path>
                    </g>
                    <g id="Layer0_3_MEMBER_14_FILL" transform="translate(19.415534, 25.691262)" fill="#FFFFFF">
                        <path d="M0.894613645,0 C0.894613645,0 0.870434898,0 0.870434898,0.0238520073 L0.77371991,0.286224088 C0.725362415,0.405484125 0.677004921,0.500892154 0.580289932,0.572448176 C0.507753691,0.644004198 0.411038702,0.71556022 0.290144966,0.763264235 L0.0241787472,0.858672264 C0.0241787472,0.858672264 0,0.858672264 0,0.882524272 C0,0.906376279 0,0.906376279 0.0241787472,0.906376279 L0.290144966,1.00178431 C0.507753691,1.09719234 0.677004921,1.26415639 0.749541162,1.47882446 L0.846256151,1.74119654 C0.846256151,1.74119654 0.870434898,1.76504854 0.870434898,1.76504854 C0.894613645,1.76504854 0.894613645,1.76504854 0.894613645,1.74119654 L0.991328634,1.47882446 C1.03968613,1.35956442 1.08804362,1.26415639 1.18475861,1.19260037 C1.25729485,1.12104435 1.35400984,1.04948832 1.47490358,1.00178431 L1.7408698,0.906376279 C1.7408698,0.906376279 1.76504854,0.906376279 1.76504854,0.882524272 C1.76504854,0.882524272 1.76504854,0.858672264 1.7408698,0.858672264 L1.47490358,0.763264235 C1.37818859,0.71556022 1.2814736,0.667856206 1.18475861,0.572448176 C1.11222237,0.500892154 1.03968613,0.405484125 0.991328634,0.286224088 L0.894613645,0.0238520073 C0.918792393,0.0238520073 0.918792393,0 0.894613645,0 C0.894613645,0 0.894613645,0 0.894613645,0 Z" id="Path"></path>
                    </g>
                    <g id="Layer0_3_MEMBER_15_FILL" transform="translate(62.953398, 28.044660)" fill="#FFFFFF">
                        <path d="M0.894613645,0 C0.894613645,0 0.870434898,0 0.870434898,0.0238520073 L0.77371991,0.286224088 C0.725362415,0.405484125 0.677004921,0.500892154 0.580289932,0.572448176 C0.507753691,0.644004198 0.411038702,0.71556022 0.290144966,0.763264235 L0.0241787472,0.858672264 C0.0241787472,0.858672264 0,0.858672264 0,0.882524272 C0,0.906376279 0,0.906376279 0.0241787472,0.906376279 L0.290144966,1.00178431 C0.507753691,1.09719234 0.677004921,1.26415639 0.749541162,1.47882446 L0.846256151,1.74119654 C0.846256151,1.74119654 0.870434898,1.76504854 0.870434898,1.76504854 C0.894613645,1.76504854 0.894613645,1.76504854 0.894613645,1.74119654 L0.991328634,1.47882446 C1.03968613,1.35956442 1.08804362,1.26415639 1.18475861,1.19260037 C1.25729485,1.12104435 1.35400984,1.04948832 1.47490358,1.00178431 L1.7408698,0.906376279 C1.7408698,0.906376279 1.76504854,0.882524272 1.76504854,0.882524272 C1.76504854,0.882524272 1.76504854,0.858672264 1.7408698,0.858672264 L1.47490358,0.763264235 C1.37818859,0.71556022 1.2814736,0.667856206 1.18475861,0.572448176 C1.11222237,0.500892154 1.03968613,0.405484125 0.991328634,0.286224088 L0.894613645,0.0238520073 C0.918792393,0.0238520073 0.918792393,0.0238520073 0.894613645,0 C0.894613645,0 0.894613645,0 0.894613645,0 Z" id="Path"></path>
                    </g>
                    <g id="Layer0_3_MEMBER_16_FILL" transform="translate(54.912621, 30.594175)" fill="#FFFFFF">
                        <path d="M1.61730739,0.0740579809 C1.59180353,0.0493719872 1.56629967,0.0246859936 1.51529194,0 C1.48978808,0 1.43878035,0 1.41327649,0 C1.38777263,0 1.3367649,0.0246859936 1.31126104,0.0493719872 C1.28575718,0.0740579809 1.26025331,0.123429968 1.26025331,0.148115962 L1.10723014,1.1602417 L0.112579496,1.50584561 C0.0870756337,1.5305316 0.061571771,1.5305316 0.0360679084,1.57990359 C0.0105640458,1.60458959 -0.0149398168,1.65396157 0.0105640458,1.67864757 C0.0105640458,1.70333356 0.0105640458,1.75270555 0.0360679084,1.77739154 C0.061571771,1.80207753 0.0870756337,1.82676353 0.112579496,1.85144952 L1.08172628,2.3204834 L1.10723014,3.35729513 C1.10723014,3.38198113 1.132734,3.43135311 1.15823786,3.45603911 C1.18374173,3.4807251 1.20924559,3.50541109 1.23474945,3.53009709 C1.28575718,3.53009709 1.31126104,3.53009709 1.36226876,3.53009709 C1.38777263,3.53009709 1.41327649,3.50541109 1.46428422,3.4807251 L2.20389623,2.74014529 L3.22405074,3.01169122 C3.2495546,3.01169122 3.30056232,3.01169122 3.32606619,3.01169122 C3.35157005,3.01169122 3.40257777,2.98700523 3.42808164,2.96231923 C3.4535855,2.93763324 3.4535855,2.88826125 3.4535855,2.86357526 C3.4535855,2.83888927 3.4535855,2.78951728 3.42808164,2.76483129 L2.91800438,1.85144952 L3.50459322,0.987439745 C3.53009709,0.962753751 3.53009709,0.913381764 3.53009709,0.88869577 C3.53009709,0.864009777 3.53009709,0.814637789 3.50459322,0.789951796 C3.47908936,0.765265802 3.4535855,0.740579809 3.42808164,0.715893815 C3.40257777,0.691207821 3.35157005,0.691207821 3.32606619,0.691207821 L2.28040782,0.864009777 L1.61730739,0.0740579809 Z" id="Path"></path>
                    </g>
                    <g id="Layer0_3_MEMBER_17_FILL" transform="translate(22.553398, 18.631068)" fill="#FFFFFF">
                        <path d="M1.2729744,0.0490291262 C1.24801412,0.0245145631 1.22305384,0 1.19809356,0 C1.17313327,0 1.14817299,0 1.12321271,0 C1.09825243,0 1.07329214,0.0245145631 1.04833186,0.0490291262 C1.02337158,0.0735436893 1.02337158,0.0980582524 0.998411297,0.122572816 L0.873609885,0.931553398 L0.0998411297,1.20121359 C0.0748808473,1.20121359 0.0499205649,1.22572816 0.0249602824,1.25024272 C0,1.27475728 0,1.29927184 0,1.32378641 C0,1.34830097 0,1.37281553 0.0249602824,1.3973301 C0.0499205649,1.42184466 0.0499205649,1.44635922 0.0748808473,1.44635922 L0.82368932,1.81407767 L0.848649603,2.62305825 C0.848649603,2.64757282 0.873609885,2.67208738 0.873609885,2.69660194 C0.898570168,2.7211165 0.92353045,2.74563107 0.948490733,2.74563107 C0.973451015,2.74563107 0.998411297,2.74563107 1.04833186,2.74563107 C1.07329214,2.74563107 1.09825243,2.7211165 1.12321271,2.7211165 L1.69729921,2.13276699 L2.49602824,2.35339806 C2.52098853,2.35339806 2.54594881,2.35339806 2.57090909,2.35339806 C2.59586937,2.35339806 2.62082966,2.3288835 2.64578994,2.30436893 C2.67075022,2.27985437 2.67075022,2.25533981 2.67075022,2.23082524 C2.67075022,2.20631068 2.67075022,2.18179612 2.67075022,2.15728155 L2.2713857,1.44635922 L2.72067079,0.759951456 C2.74563107,0.735436893 2.74563107,0.71092233 2.74563107,0.686407767 C2.74563107,0.661893204 2.74563107,0.637378641 2.72067079,0.612864078 C2.6957105,0.588349515 2.67075022,0.563834951 2.64578994,0.563834951 C2.62082966,0.563834951 2.59586937,0.563834951 2.57090909,0.563834951 L1.77218005,0.71092233 L1.2729744,0.0490291262 Z" id="Path"></path>
                    </g>
                </g>
            </g>
        </g>
    </g>
</svg>