<?xml version="1.0" encoding="UTF-8"?>
<svg width="40px" height="40px" viewBox="0 0 40 40" version="1.1" xmlns="http://www.w3.org/2000/svg" xmlns:xlink="http://www.w3.org/1999/xlink">
    <title>3DC56E0C-6B8F-48DF-A41A-3BF9B01DB3BC</title>
    <g id="Today--------------------------------------------" stroke="none" stroke-width="1" fill="none" fill-rule="evenodd">
        <g id="AFS-1147-A" transform="translate(-132.000000, -313.000000)">
            <g id="Compounds/Inputs/Calendar/Range/DeadlineDate" transform="translate(132.000000, 313.000000)">
                <g id="Back/Black" transform="translate(4.000000, 4.000000)">
                    <circle id="Oval" stroke-opacity="0.4" stroke="#0073C1" stroke-width="0.6" fill-opacity="0.06" fill="#0073C1" cx="16" cy="16" r="15.7"></circle>
                    <path d="M17.5719127,15.6280942 L11.2655074,9.15861049 C11.0588854,8.94676977 10.7243596,8.94712589 10.5180838,9.15970626 C10.3119678,9.37225924 10.3125004,9.71657918 10.519149,9.92858427 L16.4501781,16.0130126 L10.518936,22.0974135 C10.312314,22.309446 10.3117814,22.6535468 10.5178708,22.8661271 C10.621275,22.9726913 10.7567417,23.0259733 10.8922084,23.0259733 C11.0273289,23.0259733 11.162263,22.9730474 11.2654808,22.8672229 L17.5719127,16.3979036 C17.6714289,16.2960513 17.727272,16.1574357 17.727272,16.0130126 C17.727272,15.8685894 17.6712692,15.7301382 17.5719127,15.6280942 Z" id="Path" fill="#1268B3" fill-rule="nonzero" transform="translate(14.045454, 16.012987) scale(-1, 1) translate(-14.045454, -16.012987) "></path>
                </g>
            </g>
        </g>
    </g>
</svg>