<?xml version="1.0" encoding="UTF-8"?>
<svg width="24px" height="24px" viewBox="0 0 24 24" version="1.1" xmlns="http://www.w3.org/2000/svg" xmlns:xlink="http://www.w3.org/1999/xlink">
    <title>D2328E2F-87DB-4D1C-B10C-A3F7BBE81BB3</title>
    <g id="B:-Assign-A-Task" stroke="none" stroke-width="1" fill="none" fill-rule="evenodd">
        <g id="I-11-SC-AddTask" transform="translate(-1216.000000, -609.000000)" fill="#000000" fill-rule="nonzero">
            <g id="Group-2" transform="translate(859.000000, 120.000000)">
                <g id="Test-Duration" transform="translate(16.000000, 436.000000)">
                    <g id="Elements/CTAs/IconBased/CR" transform="translate(341.000000, 53.000000)">
                        <g id="Elements/Graphics/Style3/Photos/Black">
                            <g id="Down/Black">
                                <g transform="translate(12.000000, 12.000000) scale(1, -1) translate(-12.000000, -12.000000) translate(4.000000, 6.000000)" id="Shape">
                                    <path d="M0.380952381,11.9954286 L15.6190476,11.9954286 C15.7607619,11.9954286 15.8906667,11.9169524 15.9565714,11.791619 C16.0224762,11.6662857 16.0129524,11.5146667 15.9325714,11.3984762 L8.31352381,0.350857143 C8.17142857,0.144 7.82857143,0.144 7.68647619,0.350857143 L0.0674285714,11.3984762 C-0.012952381,11.5150476 -0.0220952381,11.6662857 0.0434285714,11.791619 C0.108952381,11.9169524 0.239238095,11.9954286 0.380952381,11.9954286 Z M8,1.23771429 L14.8937143,11.2331429 L1.10666667,11.2331429 L8,1.23771429 Z"></path>
                                </g>
                            </g>
                        </g>
                    </g>
                </g>
            </g>
        </g>
    </g>
</svg>