<svg width="75" height="75" viewBox="0 0 75 75" fill="none" xmlns="http://www.w3.org/2000/svg">
<path d="M49.6294 50.5792L20.6338 54.5968C18.6341 54.8686 16.7716 53.4905 16.4972 51.5108C16.2227 49.5311 17.6146 47.6873 19.6143 47.4156L48.5903 43.3785L49.6294 50.5792Z" fill="url(#paint0_linear_1787_32970)"/>
<path d="M52.923 43.6503L53.7072 49.1818L57.5302 48.6578C57.7654 48.619 57.9615 48.7742 58.0007 49.0071V49.0266C58.0399 49.2595 57.883 49.4536 57.6478 49.4924L32.5536 52.9665C30.5539 53.2383 28.6914 51.8602 28.417 49.8805C28.2797 48.8907 28.5542 47.9397 29.1227 47.1827C29.6717 46.4452 30.5343 45.9212 31.5341 45.7853L56.6283 42.3111C56.8636 42.2723 57.0596 42.4276 57.0988 42.6605C57.1381 42.8934 56.9812 43.0875 56.746 43.1263L52.923 43.6503Z" fill="url(#paint1_linear_1787_32970)"/>
<path d="M57.7653 48.6579L33.0044 52.0932C31.4556 52.3067 30.044 51.2198 29.8284 49.6865C29.7107 48.9102 29.946 48.1726 30.3577 47.6098C30.7694 47.0469 31.436 46.6393 32.2202 46.5229L56.9811 43.0875C56.2165 43.204 55.5892 43.5922 55.1579 44.1744C54.7266 44.7567 54.5305 45.4748 54.6481 46.2512C54.8442 47.7651 56.2361 48.852 57.7653 48.6579Z" fill="#D2E9FF"/>
<path d="M43.9737 36.0843L44.5343 35.7213L22.6472 3.78467L22.0865 4.14759L43.9737 36.0843Z" fill="#09223F"/>
<path d="M29.4364 3.76526C29.2208 3.82349 28.9659 3.90112 28.7699 3.95935C24.7313 5.27915 21.6533 7.84111 19.6144 11.587C17.8696 14.7701 17.2618 18.0696 17.7911 21.5049C17.9088 22.3589 18.1048 23.1741 18.3597 24.0281C18.8106 25.5614 19.4772 26.9588 20.2613 28.2204C21.7317 30.53 23.751 32.3933 26.3977 33.7713C30.4363 35.9257 34.6513 36.3721 39.0428 35.0911C43.4343 33.8101 46.7083 31.2093 48.8648 27.2305C50.0803 25.0179 50.7273 22.7859 50.8645 20.4374C50.9626 18.5936 50.7077 16.6915 50.1196 14.7895C49.8843 14.0908 49.6686 13.4503 49.4138 12.8098C47.963 9.45205 45.4928 6.85126 42.0816 5.04624C39.9446 3.92053 37.7685 3.22181 35.5531 3.04714C33.5338 2.93068 31.5145 3.14418 29.4364 3.76526Z" fill="#00BBFF"/>
<path d="M35.4718 38.2908L36.1618 43.3503L38.5338 43.0301L37.8438 37.9919L35.4718 38.2908Z" fill="#0C3260"/>
<path d="M18.3009 7.27819C16.7325 9.33553 15.615 11.4899 14.968 13.7801C14.223 16.3615 14.0662 19.0399 14.4583 21.9124C15.0857 26.4735 17.0069 30.2776 20.1829 33.3442C20.7907 33.9071 21.4376 34.4505 22.1238 34.9746C24.0451 36.4302 26.084 37.4977 28.2013 38.177C30.8872 39.031 33.7495 39.2251 36.749 38.8369C39.4545 38.4682 41.9051 37.653 44.1009 36.3914C44.4734 36.1391 44.8655 35.8868 45.2184 35.6151C45.5909 35.2269 45.5909 34.7999 45.2576 34.3341C44.9047 33.9265 44.4734 33.8683 43.9833 34.14C43.6892 34.3535 43.3951 34.5282 43.0814 34.7029C41.1013 35.848 38.9252 36.5855 36.4942 36.9349C33.8083 37.3036 31.2205 37.1095 28.8091 36.3332C26.9074 35.7121 25.0645 34.7611 23.3197 33.4413C22.712 32.9561 22.1434 32.4902 21.5945 31.9662C18.7518 29.2102 17.0265 25.7748 16.458 21.6795C16.1051 19.1176 16.2619 16.6721 16.9089 14.3818C17.5167 12.3439 18.4969 10.3836 19.9085 8.53977C20.0261 8.40391 20.1241 8.22923 20.2613 8.09336C20.3006 8.03514 20.3594 7.99632 20.379 7.9575C21.0455 7.12292 21.7709 6.4048 22.5159 5.7449C22.6139 5.66726 22.712 5.58963 22.7512 5.5314C23.1041 5.24027 23.4961 4.94914 23.849 4.71623C24.2607 4.32805 24.2999 3.86224 23.9275 3.3382C23.555 2.95003 23.1433 2.91121 22.6727 3.14411C22.3003 3.43525 21.9082 3.70697 21.5161 4.01751C21.4768 4.05633 21.418 4.09515 21.3592 4.13397H21.3396C20.4574 4.89091 19.634 5.76431 18.8498 6.71534C18.8106 6.79297 18.7518 6.83179 18.7126 6.89002C18.5949 6.96765 18.4577 7.12292 18.3009 7.27819Z" fill="#266FAA"/>
<path d="M33.4067 45.0768C33.6616 45.2709 33.9752 45.3679 34.3085 45.3097L41.131 44.3975C41.4643 44.3587 41.7192 44.2034 41.9152 43.9317C42.1113 43.6987 42.1897 43.3882 42.1505 43.0583C42.1113 42.7283 41.9544 42.4566 41.6996 42.2625C41.4447 42.0684 41.131 41.9908 40.7977 42.0296L33.9752 42.9418C33.642 42.9806 33.3871 43.1359 33.1911 43.4076C32.995 43.6793 32.897 43.9705 32.9558 44.3004C32.995 44.611 33.1126 44.9021 33.4067 45.0768Z" fill="#1C488E"/>
<path d="M29.6916 4.34748C29.4759 4.40571 29.2407 4.46394 29.0446 4.52216C25.1629 5.80315 22.2221 8.24866 20.2616 11.8587C18.6148 14.9253 18.0267 18.0889 18.5168 21.369C18.6344 22.1648 18.8109 22.9605 19.0657 23.7951C19.497 25.2702 20.1048 26.6094 20.889 27.8128C22.3005 30.0254 24.261 31.811 26.7705 33.1502C30.6522 35.2269 34.6908 35.6539 38.8863 34.4312C43.0817 33.2084 46.2381 30.7047 48.3162 26.9005C49.4729 24.785 50.1198 22.6112 50.2375 20.3986C50.3355 18.613 50.0806 16.808 49.5317 14.9641C49.3356 14.3042 49.0808 13.6831 48.8455 13.062C47.434 9.84018 45.0814 7.35585 41.8074 5.60906C39.7489 4.50275 37.6708 3.86226 35.5142 3.70699C33.6518 3.55172 31.6913 3.76522 29.6916 4.34748Z" fill="url(#paint2_radial_1787_32970)"/>
<path opacity="0.65" d="M29.6128 7.72456L28.4365 8.20978L26.2407 12.2274C26.0839 12.4991 25.9466 12.9843 25.8094 13.6442L25.9663 13.7995C26.4368 14.1295 26.7701 14.2459 27.0053 14.1295L27.4954 13.9354C27.7699 13.8189 27.8483 13.6248 27.7503 13.3725L27.6327 13.0814L29.3383 12.3827C29.6324 12.305 29.7892 12.4021 29.8872 12.6544L30.397 13.8189L36.2392 16.5168C36.6117 16.7108 36.847 16.6332 36.9842 16.2838L37.2979 15.0417C37.3567 14.8864 37.2783 14.7311 37.1606 14.6341L36.847 14.4788C36.6901 14.4206 36.5725 14.4788 36.4745 14.6341L36.3764 15.0417C36.2784 15.197 36.1608 15.1969 36.0236 15.1193L35.0237 14.4788L34.5924 13.4113C34.514 13.1008 34.612 12.9261 34.8669 12.8679L36.2588 12.305C36.4941 12.2274 36.6705 12.2856 36.7685 12.4991L36.9646 13.0038C37.1214 13.3725 37.3763 13.4696 37.788 13.3725L38.2389 13.1978C38.4938 13.062 38.6702 13.1396 38.7094 13.3725L39.0035 14.0518L41.0816 15.9927C41.4541 15.818 41.5717 15.5075 41.4737 15.0999L41.1012 14.2071L41.4737 13.0426C41.5913 12.7708 41.7678 12.6738 42.0422 12.8485L44.6693 14.44C45.0222 14.5565 45.2574 14.4788 45.3555 14.1489L45.6495 12.5185C45.7083 12.2468 45.6887 11.9169 45.5123 11.5481L45.0614 10.4418C44.8849 10.1507 44.9046 9.87894 45.1006 9.64603L45.8456 8.81145C45.1006 8.15155 44.238 7.41402 43.2381 6.73471C42.2383 6.01658 41.2384 5.49255 40.1994 5.12378L40.121 5.88072C40.0425 6.23008 39.8073 6.44358 39.474 6.52121L38.4742 6.87057C38.1213 6.98702 37.8076 6.90939 37.4939 6.63767L36.6509 5.62841C36.4156 5.35668 36.1412 5.29846 35.7687 5.37609L32.828 6.59885C32.3967 6.77353 32.181 7.04525 32.1614 7.45284L32.0634 8.22919L31.2008 8.57855C30.9655 8.73382 30.7498 8.695 30.5342 8.4815L29.6128 7.72456ZM20.967 14.3818C20.2024 15.5657 19.7907 16.4585 19.6927 17.0602C19.4378 18.5547 19.3986 19.9909 19.5751 21.369C19.6339 21.99 19.7515 22.5917 19.8887 23.1934C20.026 23.2322 20.2024 23.2322 20.3789 23.2322L21.7904 23.4263L21.0454 21.6213C20.8886 21.1166 20.8886 20.6896 21.065 20.3403L22.457 16.2644C22.6138 15.9927 22.6138 15.6822 22.4374 15.3134L22.3198 15.0029C22.0649 14.7311 21.6336 14.5371 20.967 14.3818ZM22.8295 9.43253C22.0453 10.6941 21.4375 11.8198 20.967 12.8291C21.2023 13.2949 21.4375 13.3337 21.7316 12.9261L24.2214 9.45194L22.8295 9.43253ZM49.943 20.3985C49.6097 20.515 49.4333 20.7285 49.3745 21.0196L48.9432 22.4558L48.6295 22.5917C48.3746 22.7276 48.2962 22.9605 48.355 23.271L49.6881 25.4254C50.3547 23.9115 50.7468 22.1841 50.884 20.2238L49.943 20.3985ZM22.2217 28.3561C22.2805 28.4532 22.3394 28.5308 22.3982 28.6084C22.8491 29.2295 23.3392 29.8118 23.8489 30.3552C23.9077 30.3746 23.9666 30.3941 24.045 30.3941L24.9076 30.8016L25.2801 31.6944C26.1231 32.3737 27.0249 32.956 27.9856 33.4606C28.0248 33.1695 28.0248 32.8396 27.9071 32.4902L27.417 31.3645L27.9071 29.3848C28.1032 28.9966 28.0836 28.5696 27.8679 28.0844L27.2994 26.7064C27.1229 26.357 26.8289 26.26 26.3976 26.3376L25.6722 26.6481L23.1039 24.0862L22.0257 25.9494C21.7512 26.3764 21.6924 26.8616 21.8296 27.3663L22.2217 28.3561ZM35.2197 18.6711L34.7884 17.6425L35.2982 17.429L35.0825 16.8855L31.9065 15.2746C31.3968 14.9446 30.8675 14.8864 30.3185 15.0417L26.9269 16.4197C26.5348 16.6332 26.3387 16.9243 26.2603 17.3319L25.8094 19.2534C25.7114 19.6416 25.7898 20.0492 26.0055 20.4373L26.5152 21.6795C26.6916 22.0094 26.9465 22.2229 27.3386 22.3588L29.103 22.9799C29.4167 23.1352 29.7696 23.174 30.1029 23.0381L30.7891 22.747C31.24 22.6305 31.534 22.7664 31.6909 23.1157L34.4944 29.8894C34.6708 30.394 35.0237 30.5687 35.4942 30.4523L37.3175 29.7147C38.5134 29.1519 38.8859 28.0844 38.4742 26.5317L37.788 24.8625C37.4939 24.2415 37.3959 23.7562 37.5527 23.4263L38.1997 22.3976C38.6114 21.7571 38.5918 21.0196 38.1213 20.2432L37.7684 19.3698C37.5331 18.7294 37.043 18.5547 36.396 18.807L35.8863 19.0011C35.5726 19.1758 35.3374 19.0593 35.2197 18.6711Z" fill="#255A99"/>
<path d="M49.943 19.7386C49.9234 19.758 49.9038 19.758 49.8646 19.7774L49.198 20.0297C48.8648 20.1656 48.6883 20.3597 48.6099 20.6508L48.159 22.1065L47.8453 22.2229C47.5904 22.3588 47.512 22.5723 47.5904 22.9022L48.4531 24.9402C48.5707 25.1149 48.7079 25.1731 48.8255 25.1343C49.2176 24.1056 49.5117 23.0187 49.6882 21.893C49.8058 21.2331 49.8646 20.5732 49.9234 19.9327C49.943 19.8745 49.9234 19.7968 49.943 19.7386ZM22.3786 23.698L21.3003 25.5613C21.0258 25.9882 20.967 26.4735 21.1043 26.9781L21.516 27.968C21.5748 28.0456 21.6336 28.1426 21.6924 28.2203C22.1237 28.8608 22.6138 29.4236 23.1236 29.9671C23.1824 29.9865 23.2412 30.0059 23.3196 30.0253L24.1626 30.4135L24.5155 31.2869C25.3585 31.9662 26.2603 32.5678 27.2406 33.0531C27.2798 32.7619 27.2798 32.432 27.1622 32.0632L26.6916 30.9375L27.1818 28.9578C27.3778 28.589 27.3582 28.1426 27.1426 27.6574L26.574 26.2794C26.4172 25.93 26.1035 25.8136 25.6722 25.9106L24.9468 26.2017L22.3786 23.698ZM20.2416 12.4603C20.4573 12.9261 20.7122 12.9649 20.9866 12.5768L23.4961 9.08317L21.9473 9.66543C21.2611 10.5582 20.6926 11.4705 20.2416 12.4603ZM19.3006 14.9446C19.1438 15.5075 19.0261 16.0898 18.9281 16.672C18.6733 18.1665 18.634 19.6027 18.7909 21.0196C18.8497 21.6407 18.9673 22.2423 19.1046 22.8246C19.2418 22.8634 19.3986 22.8634 19.5947 22.8634L21.0062 23.0575L20.2809 21.2525C20.124 20.7479 20.124 20.3209 20.2809 19.9715L21.6728 15.9151C21.8296 15.6433 21.8296 15.3328 21.6728 14.964L21.5356 14.6535C21.3003 14.4012 21.0062 14.3235 20.6337 14.44L19.3006 14.9446ZM31.1616 14.9252C30.6518 14.5953 30.1225 14.537 29.5736 14.6923L26.1819 16.0703C25.8094 16.2838 25.5938 16.575 25.5154 16.9826L25.0644 18.904C24.986 19.2922 25.0448 19.6804 25.2801 20.0686L25.7898 21.3107C25.9467 21.6213 26.2015 21.8348 26.6132 21.99L28.3581 22.6111C28.6717 22.7664 29.0246 22.8052 29.3579 22.6693L30.0441 22.3782C30.495 22.2812 30.7891 22.3976 30.9459 22.747L33.769 29.5207C33.9454 30.0059 34.2787 30.1806 34.7689 30.0447L36.5921 29.3266C37.788 28.7637 38.1605 27.6962 37.7684 26.1435L37.0822 24.4938C36.7882 23.8727 36.6901 23.3875 36.847 23.0575L37.4939 22.0289C37.9056 21.369 37.886 20.6508 37.4155 19.8745L37.0626 19.0011C36.8078 18.38 36.3568 18.1665 35.6903 18.4382L35.1806 18.6323C34.8081 18.7876 34.5728 18.6711 34.4552 18.2829L34.0239 17.2543L34.5336 17.0408L34.3179 16.4973L31.1616 14.9252ZM28.8678 7.35578L27.6915 7.84101L25.4957 11.8586C25.3389 12.1304 25.2997 12.4215 25.3977 12.7708L25.731 13.5666C25.8682 13.7995 26.0251 13.8383 26.2407 13.7413L26.7309 13.5472C27.0249 13.4307 27.0837 13.2561 26.9857 12.9843L26.8681 12.6738L28.5737 11.9751C28.8678 11.8974 29.0246 11.9945 29.1227 12.2468L29.6324 13.4113L35.455 16.1092C35.8275 16.3032 36.0628 16.2256 36.2 15.8763L36.5137 14.6341C36.5725 14.4788 36.4941 14.3236 36.3765 14.2265L36.0628 14.0712C35.9059 14.013 35.7883 14.0712 35.6903 14.2265L35.5923 14.6341C35.4942 14.77 35.3766 14.7894 35.2198 14.7117L34.2199 14.0712L33.7886 13.0038C33.7102 12.6932 33.8082 12.5185 34.0631 12.4603L35.455 11.8974C35.6903 11.8004 35.8667 11.878 35.9648 12.0915L36.1608 12.5962C36.298 12.9649 36.5725 13.062 36.9646 12.9455L37.4155 12.7514C37.69 12.635 37.8468 12.7126 37.9056 12.9455L38.1997 13.6248L40.2778 15.5463C40.6503 15.3716 40.7875 15.0805 40.6503 14.6535L40.2778 13.7607L40.6699 12.5768C40.7875 12.305 40.9836 12.2274 41.2385 12.3827L43.8459 13.9742C44.1988 14.0906 44.4341 14.013 44.5321 13.6831L44.8262 12.0527C44.9046 11.781 44.885 11.451 44.6889 11.0823L44.238 9.97598C44.0616 9.68484 44.0812 9.41312 44.2772 9.18021L45.0614 8.07391C44.1988 7.25874 43.297 6.56002 42.2971 5.95835C41.3953 5.4149 40.4347 4.98791 39.4152 4.65796L39.3368 5.43431C39.2584 5.78367 39.0427 5.99717 38.7094 6.0748L37.7292 6.46298C37.3567 6.61825 37.043 6.52121 36.7489 6.23007L35.9255 5.22081C35.6903 4.9685 35.3962 4.89086 35.0237 4.98791L32.0634 6.19126C31.6517 6.36594 31.4164 6.63766 31.3968 7.04524L31.2988 7.8216L30.4362 8.17095C30.2009 8.32623 29.9853 8.28741 29.7696 8.07391L28.8678 7.35578Z" fill="url(#paint3_linear_1787_32970)"/>
<path d="M36.4158 36.9154C33.73 37.2842 31.1421 37.0901 28.7307 36.3137C26.8291 35.6926 24.9862 34.7416 23.2414 33.4218C22.6336 32.9366 22.0651 32.4708 21.5161 31.9467C21.4965 31.9273 21.4769 31.9079 21.4377 31.8691C21.0652 31.5003 20.4967 31.4809 20.1046 31.8109C19.6537 32.1796 19.6341 32.8589 20.0654 33.2665C20.085 33.2859 20.1242 33.3248 20.1438 33.3442C20.7515 33.907 21.3985 34.4505 22.0847 34.9745C24.006 36.4302 26.0449 37.4977 28.1622 38.177C30.8481 39.0309 33.7104 39.225 36.7099 38.8369C39.4154 38.4681 41.8268 37.6529 44.0225 36.4108C44.0421 36.3913 44.0617 36.3913 44.0813 36.3719C44.4538 36.1196 44.8263 35.8867 45.1792 35.615C45.5517 35.2462 45.5713 34.7998 45.2184 34.334C44.8459 33.9264 44.4146 33.8682 43.9441 34.1399C43.65 34.3534 43.3756 34.5281 43.0423 34.7028C41.0622 35.8285 38.886 36.566 36.4158 36.9154Z" fill="#1C488E"/>
<path d="M27.2015 6.55368C27.0107 6.83619 26.9679 7.10644 27.0636 7.36191C27.1592 7.61738 27.3807 7.79076 27.7086 7.87698C28.0365 7.9632 28.3874 7.92749 28.758 7.78181C29.1253 7.64806 29.4028 7.42673 29.5936 7.14422C29.7941 6.86425 29.8305 6.57952 29.7412 6.33853C29.6456 6.08306 29.4241 5.90969 29.0962 5.82347C28.7683 5.73725 28.4174 5.77295 28.0565 5.92117C27.6763 6.06432 27.3924 6.27118 27.2015 6.55368Z" fill="white"/>
<path d="M35.1007 44.517C35.6387 44.4575 36.0408 44.1071 35.9988 43.7343C35.9568 43.3614 35.4865 43.1074 34.9485 43.1668C34.4105 43.2262 34.0084 43.5767 34.0505 43.9495C34.0925 44.3223 34.5627 44.5764 35.1007 44.517Z" fill="#296EC1"/>
<path d="M22.9669 4.32811C23.2701 4.32811 23.5158 4.0848 23.5158 3.78466C23.5158 3.48452 23.2701 3.24121 22.9669 3.24121C22.6637 3.24121 22.418 3.48452 22.418 3.78466C22.418 4.0848 22.6637 4.32811 22.9669 4.32811Z" fill="#5DB0F4"/>
<path d="M45.0325 46.189L30.0474 48.2898L30.0748 48.482L45.06 46.3812L45.0325 46.189Z" fill="#B0D4F7"/>
<path d="M55.452 47.8171L49.8177 48.5708L49.844 48.7631L55.4782 48.0095L55.452 47.8171Z" fill="#B0D4F7"/>
<path d="M17.2423 48.7743L29.1228 47.1633L28.7111 47.862L16.8306 49.4147L17.2423 48.7743Z" fill="#7DB2FF"/>
<path opacity="0.49" d="M20.3593 47.2991C20.3593 47.2991 17.9087 48.4636 18.3008 51.4137C18.6929 54.3057 21.4376 54.4803 21.4376 54.4803L23.0452 54.2474C23.0452 54.2474 20.1633 53.9369 19.8104 51.0256C19.4575 48.2307 21.9865 47.105 21.9865 47.105" fill="#2451B5"/>
<path d="M52.7858 57.4499L22.908 61.6034C21.3985 61.7975 20.0261 60.7688 19.8105 59.2937L19.5556 57.4887C19.3596 55.9943 20.3986 54.6356 21.8886 54.4221L51.7664 50.2687L52.7858 57.4499Z" fill="url(#paint4_linear_1787_32970)"/>
<path d="M56.0989 50.5403L56.8831 56.0718L59.8434 55.6448C60.0591 55.6254 60.2747 55.7807 60.3139 55.9942V56.0136C60.3532 56.2465 60.1963 56.4406 59.9611 56.4794L35.7098 59.8371C34.1807 60.1282 32.6515 59.4101 32.2986 56.9064C32.1614 55.9165 32.0437 54.6356 32.6123 53.898C33.1612 53.1605 34.0042 52.6947 34.6512 52.617L58.9024 49.2593C59.118 49.2399 59.3337 49.3952 59.3729 49.6087C59.4121 49.8416 59.2553 50.0357 59.02 50.0745L56.0989 50.5403Z" fill="url(#paint5_linear_1787_32970)"/>
<path d="M60.0592 55.6448L36.1609 58.9443C34.6121 59.1578 33.7299 58.1679 33.5142 56.6346C33.3966 55.8583 33.2201 55.0043 33.6514 54.4414C34.0827 53.8592 34.8669 53.4322 35.6511 53.3351L59.275 50.0745C58.53 50.1909 57.9223 50.5791 57.5106 51.1614C57.0989 51.7436 56.9028 52.4617 57.0204 53.2381C57.2165 54.752 58.6084 55.8389 60.0592 55.6448Z" fill="#D0CBF2"/>
<path opacity="0.33" d="M34.2592 52.714C34.2592 52.714 33.4358 52.9469 32.7888 53.7232C31.2792 53.9756 20.0457 55.5283 20.0457 55.5283C20.4966 54.7713 21.614 54.4608 21.614 54.4608C22.2414 54.3831 34.2592 52.714 34.2592 52.714Z" fill="#22213A"/>
<path d="M57.047 51.6276L48.9907 52.7528L49.0181 52.945L57.0744 51.8198L57.047 51.6276Z" fill="#B5ADF0"/>
<path d="M41.8353 57.0193L34.106 58.076L34.1328 58.2683L41.8622 57.2116L41.8353 57.0193Z" fill="#B5ADF0"/>
<path d="M19.6144 56.4211L32.2595 54.8102L32.2203 55.2178L19.5555 56.7317L19.6144 56.4211Z" fill="#5E5EEF"/>
<path opacity="0.31" d="M32.2594 52.9858L31.2792 53.1411C31.2792 53.1411 29.7892 53.6457 29.8088 55.2761C29.8088 55.6448 30.1813 58.5368 30.1813 58.5368C30.1813 58.5368 30.2989 60.07 31.8869 60.3418C32.1614 60.3224 32.7299 60.2447 32.7299 60.2447C32.7299 60.2447 31.0635 59.8954 30.8871 58.2844C30.789 57.5081 30.593 55.1014 30.593 55.1014C30.593 55.1014 30.4557 53.5487 32.2594 52.9858Z" fill="#1B184C"/>
<path opacity="0.31" d="M24.3783 54.0726L23.4568 54.1891C23.202 54.2085 21.6728 55.0625 21.8296 56.4599C21.8688 56.8287 22.2021 59.6624 22.2021 59.6624C22.2021 59.6624 22.3197 61.1763 23.9077 61.4286C24.1822 61.4092 24.7507 61.3315 24.7507 61.3315C24.7507 61.3315 23.0843 61.0016 22.9079 59.4101C22.8099 58.6337 22.6138 56.2852 22.6138 56.2852C22.6138 56.2852 22.751 54.6743 24.3783 54.0726Z" fill="#1B184C"/>
<path d="M21.0385 56.6697C21.329 56.6376 21.5509 56.4907 21.5341 56.3416C21.5173 56.1924 21.2681 56.0975 20.9776 56.1296C20.6871 56.1617 20.4652 56.3086 20.482 56.4578C20.4988 56.6069 20.7479 56.7018 21.0385 56.6697Z" fill="#9794FF"/>
<path d="M21.2523 48.7659C21.5394 48.7116 21.7491 48.5481 21.7207 48.4007C21.6923 48.2533 21.4364 48.1778 21.1493 48.2321C20.8622 48.2864 20.6524 48.4499 20.6809 48.5973C20.7093 48.7447 20.9651 48.8202 21.2523 48.7659Z" fill="#99DBFF"/>
<path d="M39.1799 47.1826L38.2388 50.8509L37.239 49.6864L37.8467 49.6475L35.553 51.3361L36.5724 47.5514L39.1799 47.1826Z" fill="#AFD7E8"/>
<path d="M39.4349 47.0856L39.925 50.4239L38.435 49.434L37.3176 50.7927L36.847 47.4543L39.4349 47.0856Z" fill="#E6B052"/>
<path d="M36.8471 47.4543L37.3176 50.7927H37.2196L36.7687 47.4543H36.8471Z" fill="#C66D4E"/>
<path d="M38.4547 49.4341L39.9251 50.4239H39.8075L38.4155 49.4923L38.4547 49.4341Z" fill="#C66D4E"/>
<path opacity="0.49" d="M27.3582 46.3676C27.3582 46.3676 24.9076 47.5321 25.2997 50.4822C25.6918 53.3741 28.4365 53.5488 28.4365 53.5488L30.0441 53.3159C30.0441 53.3159 27.1622 53.0054 26.8093 50.094C26.4564 47.2992 28.9854 46.1735 28.9854 46.1735" fill="#2451B5"/>
<path d="M48.1982 64.8254C45.3163 64.1267 41.8267 63.8161 37.7881 63.952C33.7495 64.0879 30.2794 64.5925 27.4759 65.4853C24.6528 66.3975 23.2412 67.4068 23.2805 68.5519C23.3197 69.697 24.7704 70.6286 27.6719 71.3468C30.5735 72.0649 34.0239 72.3754 38.0625 72.2396C42.1011 72.1037 45.5712 71.5991 48.3943 70.6869C51.2174 69.7746 52.6289 68.7654 52.5897 67.6203C52.5505 66.4751 51.0997 65.5435 48.1982 64.8254Z" fill="#2172C1"/>
<defs>
<linearGradient id="paint0_linear_1787_32970" x1="33.3841" y1="52.9786" x2="32.1083" y2="44.3205" gradientUnits="userSpaceOnUse">
<stop stop-color="#218EF9"/>
<stop offset="0.2164" stop-color="#3661EA"/>
<stop offset="0.2937" stop-color="#3B68EC"/>
<stop offset="0.7562" stop-color="#578EF5"/>
<stop offset="1" stop-color="#629CF9"/>
</linearGradient>
<linearGradient id="paint1_linear_1787_32970" x1="60.5657" y1="37.0632" x2="14.8691" y2="67.3437" gradientUnits="userSpaceOnUse">
<stop stop-color="#3C96EF"/>
<stop offset="0.8776" stop-color="#011D49"/>
</linearGradient>
<radialGradient id="paint2_radial_1787_32970" cx="0" cy="0" r="1" gradientUnits="userSpaceOnUse" gradientTransform="translate(23.1719 15.4671) rotate(-48.0831) scale(35.9833 36.0239)">
<stop offset="0.2832" stop-color="#40B8F4"/>
<stop offset="0.6247" stop-color="#0041DE"/>
<stop offset="0.7898" stop-color="#00ADFF"/>
</radialGradient>
<linearGradient id="paint3_linear_1787_32970" x1="18.6945" y1="19.5155" x2="49.8823" y2="18.1626" gradientUnits="userSpaceOnUse">
<stop stop-color="#FECF33"/>
<stop offset="0.2821" stop-color="#FBF591"/>
<stop offset="0.6696" stop-color="#FBF28C"/>
<stop offset="1" stop-color="#FEDB63"/>
</linearGradient>
<linearGradient id="paint4_linear_1787_32970" x1="36.6705" y1="60.5976" x2="35.4528" y2="52.4405" gradientUnits="userSpaceOnUse">
<stop stop-color="#705ADB"/>
<stop offset="0.3125" stop-color="#2F1E84"/>
<stop offset="1" stop-color="#6A66F7"/>
</linearGradient>
<linearGradient id="paint5_linear_1787_32970" x1="40.0282" y1="60.8916" x2="55.0613" y2="46.9591" gradientUnits="userSpaceOnUse">
<stop offset="0.018155" stop-color="#7F7FF4"/>
<stop offset="0.7328" stop-color="#2172C1"/>
<stop offset="1" stop-color="#7A69F4"/>
</linearGradient>
</defs>
</svg>
