
<svg xmlns="http://www.w3.org/2000/svg" version="1.1" xmlns:xlink="http://www.w3.org/1999/xlink" preserveAspectRatio="none" x="0px" y="0px" width="1920px" height="1080px" viewBox="0 0 1920 1080">
<defs>
<linearGradient id="Gradient_1" gradientUnits="userSpaceOnUse" x1="-94.2" y1="250.18750000000003" x2="-94.2" y2="-475.98750000000007" spreadMethod="pad">
<stop  offset="0%" stop-color="#006AA8"/>

<stop  offset="46.666666666666664%" stop-color="#153259"/>

<stop  offset="74.50980392156863%" stop-color="#182144"/>

<stop  offset="100%" stop-color="#1F0E52"/>
</linearGradient>

<linearGradient id="Gradient_2" gradientUnits="userSpaceOnUse" x1="-1108.8500000000001" y1="-329.6" x2="974.5500000000001" y2="-329.6" spreadMethod="pad">
<stop  offset="0%" stop-color="#FFFFFF" stop-opacity="0.09803921568627451"/>

<stop  offset="100%" stop-color="#FFFFFF" stop-opacity="0"/>
</linearGradient>

<linearGradient id="Gradient_3" gradientUnits="userSpaceOnUse" x1="-1011.7875" y1="6.7" x2="901.1875000000001" y2="6.7" spreadMethod="pad">
<stop  offset="0%" stop-color="#000000" stop-opacity="0.09803921568627451"/>

<stop  offset="50.98039215686274%" stop-color="#000000" stop-opacity="0"/>

<stop  offset="100%" stop-color="#000000" stop-opacity="0.09803921568627451"/>
</linearGradient>

<linearGradient id="Gradient_4" gradientUnits="userSpaceOnUse" x1="-548.8625" y1="-664.4875000000001" x2="-2177.5375000000004" y2="964.1875000000001" spreadMethod="pad">
<stop  offset="0%" stop-color="#FFFFFF" stop-opacity="0.09803921568627451"/>

<stop  offset="100%" stop-color="#FFFFFF" stop-opacity="0"/>
</linearGradient>

<linearGradient id="Gradient_5" gradientUnits="userSpaceOnUse" x1="-80.075" y1="345.875" x2="102.37500000000001" y2="88.725" spreadMethod="pad">
<stop  offset="0%" stop-color="#FFFFFF"/>

<stop  offset="100%" stop-color="#F1F1F2" stop-opacity="0"/>
</linearGradient>

<linearGradient id="Gradient_6" gradientUnits="userSpaceOnUse" x1="-86.30000000000001" y1="239" x2="188" y2="83.5" spreadMethod="pad">
<stop  offset="0%" stop-color="#FFFFFF"/>

<stop  offset="100%" stop-color="#F1F1F2" stop-opacity="0"/>
</linearGradient>

<radialGradient id="Gradient_7" gradientUnits="userSpaceOnUse" cx="0" cy="0" r="52.58749999999998" fx="0" fy="0" gradientTransform="matrix( 1.0000000000000004, 0, 0, -1.0000000000000004, 794.65,288.05) " spreadMethod="pad">
<stop  offset="0%" stop-color="#AF1F31"/>

<stop  offset="34.11764705882353%" stop-color="#A61E2F"/>

<stop  offset="89.01960784313725%" stop-color="#8F1A2A"/>

<stop  offset="100%" stop-color="#891929"/>
</radialGradient>

<radialGradient id="Gradient_8" gradientUnits="userSpaceOnUse" cx="0" cy="0" r="59.950000000000045" fx="0" fy="0" gradientTransform="matrix( 0.9999999999999993, 0, 0, -0.9999999999999993, 794.65,316.7) " spreadMethod="pad">
<stop  offset="0%" stop-color="#AF1F31"/>

<stop  offset="34.11764705882353%" stop-color="#A61E2F"/>

<stop  offset="89.01960784313725%" stop-color="#8F1A2A"/>

<stop  offset="100%" stop-color="#891929"/>
</radialGradient>

<radialGradient id="Gradient_9" gradientUnits="userSpaceOnUse" cx="0" cy="0" r="57.41250000000002" fx="0" fy="0" gradientTransform="matrix( 0.9999999999999997, 0, 0, -0.9999999999999997, 794.65,309.2) " spreadMethod="pad">
<stop  offset="0%" stop-color="#AF1F31"/>

<stop  offset="34.11764705882353%" stop-color="#A61E2F"/>

<stop  offset="89.01960784313725%" stop-color="#8F1A2A"/>

<stop  offset="100%" stop-color="#891929"/>
</radialGradient>

<linearGradient id="Gradient_10" gradientUnits="userSpaceOnUse" x1="-838.125" y1="-118.8" x2="-579.375" y2="-118.8" spreadMethod="pad">
<stop  offset="0%" stop-color="#FFFFFF" stop-opacity="0.09803921568627451"/>

<stop  offset="100%" stop-color="#FFFFFF" stop-opacity="0"/>
</linearGradient>

<g id="Symbol_24_0_Layer4_0_FILL">
<path fill="url(#Gradient_1)" stroke="none" d="
M 1466.7 -842.05
L -1588.2 -842.05 -1588.2 359.2 1466.7 359.2 1466.7 -842.05 Z"/>
</g>

<g id="Symbol_58_0_Layer0_0_FILL">
<path fill="url(#Gradient_3)" stroke="none" d="
M 1041.2 62.95
L 1041.2 -63 -1041.2 -63 -1041.2 62.95 1041.2 62.95 Z"/>
</g>

<g id="flash0_ai_Assets_14_Isolation_Mode__Path__4_0_Layer0_0_FILL">
<path fill="url(#Gradient_5)" stroke="none" d="
M 0 313.4
L 11 316.75 189.75 57.85 94.85 0 0 313.4 Z"/>
</g>

<g id="flash0_ai_Assets_14_Isolation_Mode__Path__3_0_Layer0_0_FILL">
<path fill="url(#Gradient_6)" stroke="none" d="
M 280.2 92.6
L 218.8 0 0 243.55 8.55 251.25 280.2 92.6 Z"/>
</g>

<g id="Symbol_53_0_Layer12_0_FILL">
<path fill="#262261" stroke="none" d="
M 1142.25 117.25
L 1142.35 69.6 -1123.65 69.6 -1123.7 117.25 1142.25 117.25
M 1142.15 197.95
L 1142.25 150.3 -1123.65 150.3 -1123.65 197.95 1142.15 197.95
M 1142.35 23.35
L 1142.45 -24.3 -1123.6 -24.3 -1123.65 23.35 1142.35 23.35
M 1142.45 -57.3
L 1142.55 -91.75 -1123.55 -91.75 -1123.6 -57.3 1142.45 -57.3 Z"/>

<path fill="#0B416C" stroke="none" d="
M 1142.25 150.3
L 1142.25 117.25 -1123.7 117.25 -1123.65 150.3 1142.25 150.3
M 1142.35 69.6
L 1142.35 36.55 -1123.65 36.55 -1123.65 69.6 1142.35 69.6
M 1142.55 -91.75
L 1142.55 -260.2 -1123.55 -260.2 -1123.55 -91.75 1142.55 -91.75
M 1142.45 -24.3
L 1142.45 -57.3 -1123.6 -57.3 -1123.6 -24.3 1142.45 -24.3 Z"/>
</g>

<g id="Symbol_53_0_Layer9_0_FILL">
<path fill="#740D20" stroke="none" d="
M 709.9 318.2
L 709.9 322.6 879.45 322.6 879.45 318.2 709.9 318.2 Z"/>
</g>

<g id="Symbol_53_0_Layer8_0_FILL">
<path fill="#740D20" stroke="none" d="
M 713.5 310.75
L 713.5 315.15 875.85 315.15 875.85 310.75 713.5 310.75 Z"/>
</g>

<g id="Symbol_53_0_Layer7_0_FILL">
<path fill="#740D20" stroke="none" d="
M 824.75 21.15
L 824.75 -26.5 -823.05 -26.5 -823.05 21.15 824.75 21.15 Z"/>
</g>

<g id="Symbol_53_0_Layer6_0_FILL">
<path fill="url(#Gradient_7)" stroke="none" d="
M 738.9 280.3
L 720.7 295.85 868.65 295.85 850.45 280.3 738.9 280.3 Z"/>
</g>

<g id="Symbol_53_0_Layer5_0_FILL">
<path fill="#740D20" stroke="none" d="
M 788.25 -29.35
L 788.25 -91.6 -797.45 -91.6 -797.45 -29.35 788.25 -29.35 Z"/>
</g>

<g id="Symbol_53_0_Layer4_0_FILL">
<path fill="url(#Gradient_8)" stroke="none" d="
M 713.45 315.15
L 709.9 318.2 879.45 318.2 875.9 315.15 713.45 315.15 Z"/>
</g>

<g id="Symbol_53_0_Layer3_0_FILL">
<path fill="url(#Gradient_9)" stroke="none" d="
M 717.05 307.7
L 713.5 310.75 875.85 310.75 872.3 307.7 717.05 307.7 Z"/>
</g>

<g id="Symbol_53_0_Layer1_0_FILL">
<path fill="#F2933C" stroke="none" d="
M -837.6 36.05
L -872.65 66.2 -837.7 66.2 -805.1 36.05 -837.6 36.05
M -767.6 -57.25
L -767.2 -57.6 -798.1 -57.6 -798.6 -57.6 -837.6 -24.6 -805.1 -24.6 -767.6 -57.25
M 843.6 36.05
L 811.1 36.05 843.75 66.2 878.7 66.2 843.6 36.05
M 772.7 -57.6
L 773.1 -57.25 811.1 -24.6 843.6 -24.6 804.65 -57.6 804.1 -57.6 772.7 -57.6 Z"/>

<path fill="#EF753A" stroke="none" d="
M -805.1 -24.6
L -837.6 -24.6 -837.6 23.05 -805.1 23.05 -805.1 -24.6
M -767.2 -57.6
L -767.2 -92.25 -798.1 -92.25 -798.1 -57.6 -767.2 -57.6
M -767.2 -57.6
L -767.6 -57.25 -767.2 -57.25 -767.2 -57.6
M 843.6 -24.6
L 811.1 -24.6 811.1 23.05 843.6 23.05 843.6 -24.6
M 804.1 -92.25
L 772.7 -92.25 772.7 -57.6 804.1 -57.6 804.1 -92.25
M 773.1 -57.25
L 772.7 -57.6 772.7 -57.25 773.1 -57.25 Z"/>

<path fill="#DC842C" stroke="none" d="
M -579.85 -260.65
L -584 -260.65 -601 -260.65 -798.1 -92.25 -767.2 -92.25 -579.85 -260.65
M 772.7 -92.25
L 804.1 -92.25 607 -260.65 585.35 -260.65 772.7 -92.25 Z"/>
</g>

<path id="Symbol_24_0_Layer3_0_1_STROKES" stroke="url(#Gradient_2)" stroke-width="1" stroke-linejoin="round" stroke-linecap="round" fill="none" d="
M 974.05 -392.55
L 974.05 -266.6
M -1108.35 -266.6
L -1108.35 -392.55"/>

<path id="Symbol_57_0_Layer0_0_1_STROKES" stroke="url(#Gradient_4)" stroke-width="1" stroke-linejoin="round" stroke-linecap="round" fill="none" d="
M -2161.75 794.4
L -445.15 -528.15"/>

<path id="Symbol_53_0_Layer1_0_1_STROKES" stroke="url(#Gradient_10)" stroke-width="1" stroke-linejoin="round" stroke-linecap="round" fill="none" d="
M -579.85 -260.65
L -584 -260.65"/>
</defs>

<g id="Main_bg">
<g transform="matrix( 1, 0, 0, 1, 1062,476.25) ">
<g id="Layer_8">
<g transform="matrix( 1, 0, 0, 1, 0,0) ">
<use xlink:href="#Symbol_24_0_Layer4_0_FILL"/>
</g>
</g>

<g id="Layer_10">
<g transform="matrix( 1, 0, 0, 1, 0,0) ">
<use xlink:href="#Symbol_24_0_Layer3_0_1_STROKES"/>
</g>

<g transform="matrix( 1, 0, 0, 1, -38.85,-210.35) ">
<g id="Layer_1">
<g transform="matrix( 1, 0, 0, 1, 0,0) ">
<use xlink:href="#Symbol_58_0_Layer0_0_FILL"/>
</g>
</g>
</g>

<g transform="matrix( 1, 0, 0, 1, -38.85,-8.15) ">
<g transform="matrix( 1, 0, 0, 1, 0,0) ">
<use xlink:href="#Symbol_58_0_Layer0_0_FILL"/>
</g>
</g>

<g transform="matrix( 1, 0, 0, 1, -67.15,194.05) ">
<g transform="matrix( 1, 0, 0, 1, 0,0) ">
<use xlink:href="#Symbol_58_0_Layer0_0_FILL"/>
</g>
</g>

<g transform="matrix( 1, 0, 0, 1, -38.85,-404.1) ">
<g transform="matrix( 1, 0, 0, 1, 0,0) ">
<use xlink:href="#Symbol_58_0_Layer0_0_FILL"/>
</g>
</g>
</g>

<g id="Layer_9">
<g transform="matrix( 0.9996795654296875, -0.025299072265625, 0.025299072265625, 0.9996795654296875, 1237.15,-125.2) ">
<g transform="matrix( 1, 0, 0, 1, 0,0) ">
<use xlink:href="#Symbol_57_0_Layer0_0_1_STROKES"/>
</g>
</g>

<g transform="matrix( 0.9958648681640625, -0.0904083251953125, 0.0904083251953125, 0.9958648681640625, 1305.35,-152.65) ">
<g transform="matrix( 1, 0, 0, 1, 0,0) ">
<use xlink:href="#Symbol_57_0_Layer0_0_1_STROKES"/>
</g>
</g>

<g transform="matrix( 0.984375, -0.1758270263671875, 0.1758270263671875, 0.984375, 1300.85,-126.8) ">
<g transform="matrix( 1, 0, 0, 1, 0,0) ">
<use xlink:href="#Symbol_57_0_Layer0_0_1_STROKES"/>
</g>
</g>

<g transform="matrix( 0.8932342529296875, -0.449493408203125, 0.449493408203125, 0.8932342529296875, 1513.65,-405.95) ">
<g transform="matrix( 1, 0, 0, 1, 0,0) ">
<use xlink:href="#Symbol_57_0_Layer0_0_1_STROKES"/>
</g>
</g>

<g transform="matrix( 0.83709716796875, -0.546905517578125, 0.546905517578125, 0.83709716796875, 1528.45,-463.8) ">
<g transform="matrix( 1, 0, 0, 1, 0,0) ">
<use xlink:href="#Symbol_57_0_Layer0_0_1_STROKES"/>
</g>
</g>

<g transform="matrix( 0.7645721435546875, -0.644439697265625, 0.644439697265625, 0.7645721435546875, 1516.15,-439.2) ">
<g transform="matrix( 1, 0, 0, 1, 0,0) ">
<use xlink:href="#Symbol_57_0_Layer0_0_1_STROKES"/>
</g>
</g>

<g transform="matrix( -0.9996795654296875, -0.025299072265625, -0.025299072265625, 0.9996795654296875, -1437.1,-125.2) ">
<g transform="matrix( 1, 0, 0, 1, 0,0) ">
<use xlink:href="#Symbol_57_0_Layer0_0_1_STROKES"/>
</g>
</g>

<g transform="matrix( -0.9958648681640625, -0.0904083251953125, -0.0904083251953125, 0.9958648681640625, -1505.3,-152.65) ">
<g transform="matrix( 1, 0, 0, 1, 0,0) ">
<use xlink:href="#Symbol_57_0_Layer0_0_1_STROKES"/>
</g>
</g>

<g transform="matrix( -0.984375, -0.1758270263671875, -0.1758270263671875, 0.984375, -1500.8,-126.8) ">
<g transform="matrix( 1, 0, 0, 1, 0,0) ">
<use xlink:href="#Symbol_57_0_Layer0_0_1_STROKES"/>
</g>
</g>

<g transform="matrix( -0.8932342529296875, -0.449493408203125, -0.449493408203125, 0.8932342529296875, -1713.6,-405.95) ">
<g transform="matrix( 1, 0, 0, 1, 0,0) ">
<use xlink:href="#Symbol_57_0_Layer0_0_1_STROKES"/>
</g>
</g>

<g transform="matrix( -0.83709716796875, -0.546905517578125, -0.546905517578125, 0.83709716796875, -1728.4,-463.8) ">
<g transform="matrix( 1, 0, 0, 1, 0,0) ">
<use xlink:href="#Symbol_57_0_Layer0_0_1_STROKES"/>
</g>
</g>

<g transform="matrix( -0.7645721435546875, -0.644439697265625, -0.644439697265625, 0.7645721435546875, -1716.1,-439.2) ">
<g transform="matrix( 1, 0, 0, 1, 0,0) ">
<use xlink:href="#Symbol_57_0_Layer0_0_1_STROKES"/>
</g>
</g>
</g>

<g id="flash0_ai">
<g transform="matrix( 1, 0, 0, 1, 481.8,95.9) ">
<g transform="matrix( 1.226226806640625, 3.801361083984375, 3.801361083984375, -1.226226806640625, -883.8,-362.55) ">
<g transform="matrix( 1, 0, 0, 1, 0,0) ">
<use xlink:href="#flash0_ai_Assets_14_Isolation_Mode__Path__4_0_Layer0_0_FILL"/>
</g>
</g>

<g transform="matrix( 1.38763427734375, 3.7467041015625, 3.7467041015625, -1.38763427734375, -594.95,-294.85) ">
<g transform="matrix( 1, 0, 0, 1, 0,0) ">
<use xlink:href="#flash0_ai_Assets_14_Isolation_Mode__Path__3_0_Layer0_0_FILL"/>
</g>
</g>
</g>

<g transform="matrix( -1, 0, 0, 1, -679.7,95.9) ">
<g transform="matrix( 1.226226806640625, 3.801361083984375, 3.801361083984375, -1.226226806640625, -883.8,-362.55) ">
<g transform="matrix( 1, 0, 0, 1, 0,0) ">
<use xlink:href="#flash0_ai_Assets_14_Isolation_Mode__Path__4_0_Layer0_0_FILL"/>
</g>
</g>

<g transform="matrix( 1.38763427734375, 3.7467041015625, 3.7467041015625, -1.38763427734375, -594.95,-294.85) ">
<g transform="matrix( 1, 0, 0, 1, 0,0) ">
<use xlink:href="#flash0_ai_Assets_14_Isolation_Mode__Path__3_0_Layer0_0_FILL"/>
</g>
</g>
</g>
</g>

<g id="Layer_4">
<g transform="matrix( 1.2999267578125, 0, 0, 1.18402099609375, -97.8,667.25) ">
<g id="Layer_13">
<g transform="matrix( 1, 0, 0, 1, 0,0) ">
<use xlink:href="#Symbol_53_0_Layer12_0_FILL"/>
</g>
</g>

<g id="Layer_12"/>

<g id="Layer_11"/>

<g transform="matrix( 10.83074951171875, 0, 0, 10.83074951171875, -8603.15,-3296.05) ">
<use xlink:href="#Symbol_53_0_Layer9_0_FILL"/>
</g>

<g transform="matrix( 10.83074951171875, 0, 0, 10.83074951171875, -8603.15,-3296.05) ">
<use xlink:href="#Symbol_53_0_Layer8_0_FILL"/>
</g>

<g transform="matrix( 1, 0, 0, 1, 0,0) ">
<use xlink:href="#Symbol_53_0_Layer7_0_FILL"/>
</g>

<g id="Layer_7">
<g transform="matrix( 10.83074951171875, 0, 0, 10.83074951171875, -8603.25,-3296.05) ">
<use xlink:href="#Symbol_53_0_Layer6_0_FILL"/>
</g>
</g>

<g id="Layer_6">
<g transform="matrix( 1, 0, 0, 1, 0,0) ">
<use xlink:href="#Symbol_53_0_Layer5_0_FILL"/>
</g>
</g>

<g id="Layer_5">
<g transform="matrix( 10.83074951171875, 0, 0, 10.83074951171875, -8603.15,-3296.05) ">
<use xlink:href="#Symbol_53_0_Layer4_0_FILL"/>
</g>
</g>

<g transform="matrix( 10.83074951171875, 0, 0, 10.83074951171875, -8603.15,-3296.05) ">
<use xlink:href="#Symbol_53_0_Layer3_0_FILL"/>
</g>

<g id="Layer_3"/>

<g id="Layer_2">
<g transform="matrix( 1, 0, 0, 1, 0,0) ">
<use xlink:href="#Symbol_53_0_Layer1_0_FILL"/>

<use xlink:href="#Symbol_53_0_Layer1_0_1_STROKES"/>
</g>
</g>
</g>
</g>
</g>
</g>
</svg>
