
<svg xmlns="http://www.w3.org/2000/svg" version="1.1" xmlns:xlink="http://www.w3.org/1999/xlink" preserveAspectRatio="none" x="0px" y="0px" width="400px" height="450px" viewBox="0 0 400 450">
<defs>
<g id="Option_bg_1_Layer4_0_FILL">
<path fill="#FFFFFF" fill-opacity="0.2980392156862745" stroke="none" d="
M 202.45 250.05
Q 286.7 239 286.7 223.35 286.7 207.75 202.45 196.65 118.2 185.6 -0.95 185.6 -120.15 185.6 -204.45 196.65 -288.65 207.75 -288.65 223.35 -288.65 239 -204.45 250.05 -120.15 261.1 -0.95 261.1 118.2 261.1 202.45 250.05 Z"/>
</g>

<g id="Option_bg_1_Layer2_0_FILL">
<path fill="#3399FF" stroke="none" d="
M 77 -294.5
Q 71.35 -307.6 56.9 -318 33.3 -334.95 -0.05 -334.95 -33.35 -334.95 -57 -318 -71.4 -307.6 -77 -294.5
L 77 -294.5 Z"/>
</g>

<g id="Symbol_54_0_Layer0_0_FILL">
<path fill="#333333" stroke="none" d="
M 101.85 -285.9
L 101.85 -286.45 101.85 -294.5 77 -294.5 -77 -294.5 -101.85 -294.5 -101.85 -285.9 101.85 -285.9 Z"/>
</g>

<g id="Symbol_56_0_Layer0_1_FILL">
<path fill="#02121E" stroke="none" d="
M -242 -169.35
L -242 -196.85 -250.1 -196.85 -275.8 -196.85 -242 -169.35
M 275.8 -196.85
L 250.1 -196.85 242 -196.85 242 -169.35 275.8 -196.85 Z"/>

<path fill="#072D48" stroke="none" d="
M 250.1 -196.85
L 275.8 -196.85 275.8 -253 105.25 -253 -105.25 -253 -275.8 -253 -275.8 -196.85 -250.1 -196.85 -242 -196.85 242 -196.85 250.1 -196.85
M -242 -196.8
L -240.5 -166.8 -220.35 247.85 -220.35 247.9 -210.15 247.9 -210.15 247.85 -230.8 -196.8 -242 -196.8
M 240.5 -166.8
L 241.95 -196.8 230.75 -196.8 210.1 247.85 210.1 247.9 220.3 247.9 220.3 247.85 240.5 -166.8 Z"/>

<path fill="#FFFFFF" stroke="none" d="
M 210.1 247.9
L 210.1 247.85 230.75 -196.8 -230.8 -196.8 -210.15 247.85 -210.15 247.9 210.1 247.9 Z"/>

<path fill="#000000" stroke="none" d="
M 266.85 261.6
L 266.85 247.85 242 247.85 230.8 247.85 220.3 247.85 220.3 247.9 210.1 247.9 -210.15 247.9 -220.35 247.9 -220.35 247.85 -230.8 247.85 -242 247.85 -266.85 247.85 -266.85 261.6 266.85 261.6 Z"/>
</g>

<g id="sTAR_0_Layer0_0_FILL">
<path fill="#FFFFFF" stroke="none" d="
M 52.8 22.35
Q 51.45 22.25 50.35 21.45 49.3 20.65 48.75 19.4
L 41.9 2.95
Q 40.7 0 37.5 0 34.3 0 33.1 2.95
L 26.25 19.4
Q 25.7 20.65 24.65 21.45 23.55 22.25 22.2 22.35
L 4.45 23.75
Q 1.25 24 0.25 27.05 -0.75 30.1 1.7 32.15
L 15.25 43.75
Q 16.25 44.6 16.7 45.9 17.1 47.2 16.8 48.5
L 12.65 65.85
Q 11.9 68.95 14.5 70.85 17.05 72.7 19.8 71.05
L 35 61.7
Q 36.15 61.05 37.5 61.05 38.85 61.05 40 61.7
L 55.2 71.05
Q 57.95 72.7 60.5 70.85 63.1 68.95 62.35 65.85
L 58.2 48.5
Q 57.9 47.2 58.3 45.9 58.75 44.6 59.75 43.75
L 73.3 32.15
Q 75.75 30.1 74.75 27.05 73.75 24 70.55 23.75
L 52.8 22.35 Z"/>
</g>

<path id="Symbol_56_0_Layer0_1_1_STROKES" stroke="#000033" stroke-width="1" stroke-linejoin="round" stroke-linecap="round" fill="none" d="
M 275.8 -196.85
L 250.1 -196.85 242 -196.85
M 242 -169.35
L 275.8 -196.85 275.8 -253 105.25 -253 -105.25 -253 -275.8 -253 -275.8 -196.85 -250.1 -196.85 -242 -196.85 242 -196.85
M 241.975 -196.8
L 240.5 -166.775 220.325 247.85 230.8 247.85 242 247.85 266.85 247.85 266.85 261.6 -266.85 261.6 -266.85 247.85 -242 247.85 -230.8 247.85 -220.325 247.85 -240.5 -166.775 -241.975 -196.8
M 220.325 247.85
L 220.325 247.9
M -220.325 247.85
L -220.325 247.9
M 230.775 -196.8
L 210.125 247.85 210.125 247.9
M -275.8 -196.85
L -242 -169.35
M -230.775 -196.8
L -210.125 247.85 -210.125 247.9"/>
</defs>

<g id="Layer_1">
<g transform="matrix( 0.6249847412109375, 0, 0, 0.6249847412109375, 205.15,256.8) ">
<g id="Layer_6">
<g transform="matrix( 1, 0, 0, 1, 0,0) ">
<use xlink:href="#Option_bg_1_Layer4_0_FILL"/>
</g>
</g>

<g id="Layer_8"/>

<g id="Layer_3">
<g transform="matrix( 1, 0, 0, 1, 0,0) ">
<use xlink:href="#Option_bg_1_Layer2_0_FILL"/>
</g>

<g transform="matrix( 1, 0, 0, 1, 0,-32.9) ">
<g transform="matrix( 1, 0, 0, 1, 0,-257.3) ">
<g transform="matrix( 1, 0, 0, 1, 0,290.2) ">
<use xlink:href="#Symbol_54_0_Layer0_0_FILL"/>
</g>
</g>

<g transform="matrix( 1, 0, 0, 1, 0,0) ">
<use xlink:href="#Symbol_56_0_Layer0_1_FILL"/>

<use xlink:href="#Symbol_56_0_Layer0_1_1_STROKES"/>
</g>
</g>
</g>

<g id="flash0_ai">
<g transform="matrix( 1, 0, 0, 1, 2.7,-258.5) ">
<g transform="matrix( 0.451019287109375, 0, 0, 0.451019287109375, -16.95,-16.2) ">
<use xlink:href="#sTAR_0_Layer0_0_FILL"/>
</g>
</g>

<g transform="matrix( 1, 0, 0, 1, 68.55,-258.5) ">
<g transform="matrix( 0.451019287109375, 0, 0, 0.451019287109375, -16.95,-16.2) ">
<use xlink:href="#sTAR_0_Layer0_0_FILL"/>
</g>
</g>

<g transform="matrix( 1, 0, 0, 1, 134.4,-258.5) ">
<g transform="matrix( 0.451019287109375, 0, 0, 0.451019287109375, -16.95,-16.2) ">
<use xlink:href="#sTAR_0_Layer0_0_FILL"/>
</g>
</g>

<g transform="matrix( 1, 0, 0, 1, -63.15,-258.5) ">
<g transform="matrix( 0.451019287109375, 0, 0, 0.451019287109375, -16.95,-16.2) ">
<use xlink:href="#sTAR_0_Layer0_0_FILL"/>
</g>
</g>

<g transform="matrix( 1, 0, 0, 1, -129,-258.5) ">
<g transform="matrix( 0.451019287109375, 0, 0, 0.451019287109375, -16.95,-16.2) ">
<use xlink:href="#sTAR_0_Layer0_0_FILL"/>
</g>
</g>
</g>

<g id="Layer_5"/>
</g>
</g>
</svg>
