<?xml version="1.0" encoding="utf-8"?>
<!-- Generator: Adobe Illustrator 24.3.0, SVG Export Plug-In . SVG Version: 6.00 Build 0)  -->
<svg version="1.1" id="Layer_1" xmlns="http://www.w3.org/2000/svg" xmlns:xlink="http://www.w3.org/1999/xlink" x="0px" y="0px"
	 viewBox="0 0 400 450" style="enable-background:new 0 0 400 450;" xml:space="preserve">
<style type="text/css">
	.st0{fill:#FFFFFF;fill-opacity:0.298;}
	.st1{fill:url(#SVGID_1_);}
	.st2{fill:#CC0000;}
	.st3{fill:none;stroke:#FF4A4A;stroke-width:1.875;stroke-linecap:round;stroke-linejoin:round;stroke-miterlimit:2.4999;}
	.st4{fill:#333333;}
	.st5{fill:#02121E;}
	.st6{fill:#072D48;}
	.st7{fill:#FFFFFF;}
	.st8{fill:none;stroke:#000033;stroke-width:0.625;stroke-linecap:round;stroke-linejoin:round;stroke-miterlimit:2.4999;}
</style>
<g id="Layer_1_1_">
	<g transform="matrix( 0.6249847412109375, 0, 0, 0.6249847412109375, 205.15,256.8) ">
		<g id="Layer_6">
			<g transform="matrix( 1, 0, 0, 1, 0,0) ">
				<g>
					<g id="Option_bg_6_Layer4_0_FILL">
						<path class="st0" d="M202.4,250c56.2-7.4,84.2-16.3,84.2-26.7c0-10.4-28.1-19.3-84.2-26.7c-56.2-7.4-124-11-203.4-11
							c-79.5,0-147.3,3.7-203.5,11c-56.1,7.4-84.2,16.3-84.2,26.7c0,10.4,28.1,19.3,84.2,26.7c56.2,7.4,124,11,203.5,11
							C78.5,261.1,146.3,257.4,202.4,250z"/>
					</g>
				</g>
			</g>
		</g>
		<g id="Layer_8">
			<g transform="matrix( 1, 0, 0, 1, 0,0) ">
				<g>
					<g id="Option_bg_6_Layer3_0_FILL">
						
							<radialGradient id="SVGID_1_" cx="400.4171" cy="-261.6709" r="120.6743" gradientTransform="matrix(0.625 0 0 -0.4667 -251.6295 -412.8342)" gradientUnits="userSpaceOnUse">
							<stop  offset="0.502" style="stop-color:#FF6200;stop-opacity:0.749"/>
							<stop  offset="0.7059" style="stop-color:#FF0000;stop-opacity:0.498"/>
							<stop  offset="1" style="stop-color:#FF0000;stop-opacity:0"/>
						</radialGradient>
						<path class="st1" d="M109.8-243.6c10.9-14,16.4-29.7,16.4-47.1c0-26.3-12.5-48.8-37.4-67.4C63.9-376.7,33.8-386-1.3-386
							c-35.2,0-65.3,9.3-90.3,27.9c-24.8,18.7-37.2,41.1-37.2,67.4c0,17.4,5.4,33.1,16.3,47.1H109.8z"/>
					</g>
				</g>
			</g>
		</g>
		<g id="Layer_3">
			<g transform="matrix( 1, 0, 0, 1, 0,0) ">
				<g>
					<g id="Option_bg_6_Layer2_0_FILL">
						<path class="st2" d="M77-294.5c-3.8-8.7-10.5-16.6-20.1-23.5c-15.7-11.3-34.7-16.9-56.9-16.9c-22.2,0-41.2,5.6-56.9,16.9
							c-9.6,6.9-16.3,14.8-20,23.5H77z"/>
					</g>
				</g>
				<g>
					<path id="Option_bg_6_Layer2_0_1_STROKES" class="st3" d="M-77-294.5c3.7-8.7,10.4-16.6,20-23.5c15.8-11.3,34.7-16.9,56.9-16.9
						c22.2,0,41.2,5.6,56.9,16.9c9.6,6.9,16.3,14.8,20.1,23.5"/>
				</g>
			</g>
			<g transform="matrix( 1, 0, 0, 1, 0,-290.2) ">
				<g transform="matrix( 1, 0, 0, 1, 0,290.2) ">
					<g>
						<g id="Symbol_54_0_Layer0_0_FILL">
							<path class="st4" d="M101.8-285.9v-0.6v-8H77H-77h-24.8v8.6H101.8z"/>
						</g>
					</g>
				</g>
			</g>
			<g transform="matrix( 1, 0, 0, 1, 0,-32.9) ">
				<g transform="matrix( 1, 0, 0, 1, 0,-257.3) ">
					<g transform="matrix( 1, 0, 0, 1, 0,290.2) ">
						<g>
							<g id="Symbol_54_0_Layer0_0_FILL_1_">
								<path class="st4" d="M101.8-285.9v-0.6v-8H77H-77h-24.8v8.6H101.8z"/>
							</g>
						</g>
					</g>
				</g>
				<g transform="matrix( 1, 0, 0, 1, 0,0) ">
					<g>
						<g id="Symbol_56_0_Layer0_1_FILL">
							<path class="st5" d="M-242-169.3v-27.5h-8.1h-25.7L-242-169.3 M275.8-196.8h-25.7H242v27.5L275.8-196.8z"/>
							<path class="st6" d="M250.1-196.8h25.7V-253H105.2h-210.5h-170.5v56.1h25.7h8.1h484H250.1 M-242-196.8l1.5,30l20.1,414.6v0
								h10.2v0l-20.7-444.6H-242 M240.5-166.8l1.4-30h-11.2l-20.6,444.6v0h10.2v0L240.5-166.8z"/>
							<path d="M266.8,261.6v-13.8H242h-11.2h-10.5v0h-10.2h-420.2h-10.2v0h-10.4H-242h-24.8v13.8H266.8z"/>
						</g>
					</g>
					<g>
						<path id="Symbol_56_0_Layer0_1_1_STROKES" class="st8" d="M275.8-196.8h-25.7H242 M242-169.3l33.8-27.5V-253H105.2h-210.5
							h-170.5v56.1h25.7h8.1h484 M242-196.8l-1.5,30l-20.2,414.6h10.5H242h24.8v13.8h-533.7v-13.8h24.8h11.2h10.5l-20.2-414.6
							l-1.5-30 M220.3,247.8L220.3,247.8 M-220.3,247.8L-220.3,247.8 M230.8-196.8l-20.6,444.6v0 M-275.8-196.8l33.8,27.5
							 M-230.8-196.8l20.6,444.6v0"/>
					</g>
				</g>
			</g>
		</g>
		<g id="flash0_ai">
			<g transform="matrix( 1, 0, 0, 1, 2.7,-258.5) ">
				<g transform="matrix( 0.451019287109375, 0, 0, 0.451019287109375, -16.95,-16.2) ">
					<g>
						<g id="sTAR_0_Layer0_0_FILL">
							<path class="st7" d="M52.8,22.4c-0.9-0.1-1.7-0.4-2.5-0.9c-0.7-0.5-1.2-1.2-1.6-2.1L41.9,3c-0.8-2-2.3-3-4.4-3s-3.6,1-4.4,3
								l-6.8,16.5c-0.4,0.8-0.9,1.5-1.6,2.1c-0.7,0.5-1.5,0.8-2.4,0.9L4.5,23.8c-2.1,0.2-3.5,1.3-4.2,3.3c-0.7,2-0.2,3.7,1.5,5.1
								l13.6,11.6c0.7,0.6,1.1,1.3,1.5,2.2c0.3,0.9,0.3,1.7,0.1,2.6l-4.2,17.4c-0.5,2.1,0.1,3.7,1.9,5c1.7,1.2,3.5,1.3,5.3,0.2
								L35,61.7c0.8-0.4,1.6-0.7,2.5-0.7s1.7,0.2,2.5,0.7l15.2,9.4c1.8,1.1,3.6,1,5.3-0.2c1.7-1.3,2.3-2.9,1.8-5l-4.1-17.4
								c-0.2-0.9-0.2-1.7,0.1-2.6c0.3-0.9,0.8-1.6,1.5-2.2l13.6-11.6c1.6-1.4,2.1-3.1,1.4-5.1c-0.7-2-2.1-3.1-4.2-3.3L52.8,22.4z"/>
						</g>
					</g>
				</g>
			</g>
			<g transform="matrix( 1, 0, 0, 1, 68.55,-258.5) ">
				<g transform="matrix( 0.451019287109375, 0, 0, 0.451019287109375, -16.95,-16.2) ">
					<g>
						<g id="sTAR_0_Layer0_0_FILL_1_">
							<path class="st7" d="M52.8,22.4c-0.9-0.1-1.7-0.4-2.5-0.9c-0.7-0.5-1.2-1.2-1.6-2.1L41.9,3c-0.8-2-2.3-3-4.4-3s-3.6,1-4.4,3
								l-6.9,16.5c-0.4,0.8-0.9,1.5-1.6,2.1c-0.7,0.5-1.5,0.8-2.4,0.9L4.4,23.8c-2.1,0.2-3.5,1.3-4.2,3.3c-0.7,2-0.2,3.7,1.5,5.1
								l13.6,11.6c0.7,0.6,1.1,1.3,1.5,2.2c0.3,0.9,0.3,1.7,0.1,2.6l-4.1,17.4c-0.5,2.1,0.1,3.7,1.9,5c1.7,1.2,3.5,1.3,5.3,0.2
								L35,61.7c0.8-0.4,1.6-0.7,2.5-0.7s1.7,0.2,2.5,0.7l15.2,9.4c1.8,1.1,3.6,1,5.3-0.2c1.7-1.3,2.3-2.9,1.8-5l-4.1-17.4
								c-0.2-0.9-0.2-1.7,0.1-2.6c0.3-0.9,0.8-1.6,1.5-2.2l13.6-11.6c1.6-1.4,2.1-3.1,1.4-5.1c-0.7-2-2.1-3.1-4.2-3.3L52.8,22.4z"/>
						</g>
					</g>
				</g>
			</g>
			<g transform="matrix( 1, 0, 0, 1, 134.4,-258.5) ">
				<g transform="matrix( 0.451019287109375, 0, 0, 0.451019287109375, -16.95,-16.2) ">
					<g>
						<g id="sTAR_0_Layer0_0_FILL_2_">
							<path class="st7" d="M52.8,22.4c-0.9-0.1-1.7-0.4-2.5-0.9c-0.7-0.5-1.2-1.2-1.6-2.1L41.9,3c-0.8-2-2.3-3-4.4-3s-3.6,1-4.4,3
								l-6.9,16.5c-0.4,0.8-0.9,1.5-1.6,2.1c-0.7,0.5-1.5,0.8-2.4,0.9L4.4,23.8c-2.1,0.2-3.5,1.3-4.2,3.3c-0.7,2-0.2,3.7,1.5,5.1
								l13.6,11.6c0.7,0.6,1.1,1.3,1.5,2.2c0.3,0.9,0.3,1.7,0.1,2.6l-4.1,17.4c-0.5,2.1,0.1,3.7,1.9,5c1.7,1.2,3.5,1.3,5.3,0.2
								L35,61.7c0.8-0.4,1.6-0.7,2.5-0.7s1.7,0.2,2.5,0.7l15.2,9.4c1.8,1.1,3.6,1,5.3-0.2c1.7-1.3,2.3-2.9,1.8-5l-4.1-17.4
								c-0.2-0.9-0.2-1.7,0.1-2.6c0.3-0.9,0.8-1.6,1.5-2.2l13.6-11.6c1.6-1.4,2.1-3.1,1.4-5.1c-0.7-2-2.1-3.1-4.2-3.3L52.8,22.4z"/>
						</g>
					</g>
				</g>
			</g>
			<g transform="matrix( 1, 0, 0, 1, -63.15,-258.5) ">
				<g transform="matrix( 0.451019287109375, 0, 0, 0.451019287109375, -16.95,-16.2) ">
					<g>
						<g id="sTAR_0_Layer0_0_FILL_3_">
							<path class="st7" d="M52.8,22.4c-0.9-0.1-1.7-0.4-2.5-0.9c-0.7-0.5-1.2-1.2-1.6-2.1L41.9,3c-0.8-2-2.3-3-4.4-3s-3.6,1-4.4,3
								l-6.9,16.5c-0.4,0.8-0.9,1.5-1.6,2.1c-0.7,0.5-1.5,0.8-2.4,0.9L4.5,23.8c-2.1,0.2-3.5,1.3-4.2,3.3c-0.7,2-0.2,3.7,1.5,5.1
								l13.6,11.6c0.7,0.6,1.1,1.3,1.5,2.2c0.3,0.9,0.3,1.7,0.1,2.6l-4.2,17.4c-0.5,2.1,0.1,3.7,1.9,5c1.7,1.2,3.5,1.3,5.3,0.2
								L35,61.7c0.8-0.4,1.6-0.7,2.5-0.7s1.7,0.2,2.5,0.7l15.2,9.4c1.8,1.1,3.6,1,5.3-0.2c1.7-1.3,2.3-2.9,1.8-5l-4.1-17.4
								c-0.2-0.9-0.2-1.7,0.1-2.6c0.3-0.9,0.8-1.6,1.5-2.2l13.6-11.6c1.6-1.4,2.1-3.1,1.4-5.1c-0.7-2-2.1-3.1-4.2-3.3L52.8,22.4z"/>
						</g>
					</g>
				</g>
			</g>
			<g transform="matrix( 1, 0, 0, 1, -129,-258.5) ">
				<g transform="matrix( 0.451019287109375, 0, 0, 0.451019287109375, -16.95,-16.2) ">
					<g>
						<g id="sTAR_0_Layer0_0_FILL_4_">
							<path class="st7" d="M52.8,22.4c-0.9-0.1-1.7-0.4-2.5-0.9c-0.7-0.5-1.2-1.2-1.6-2.1L41.9,3c-0.8-2-2.3-3-4.4-3s-3.6,1-4.4,3
								l-6.9,16.5c-0.4,0.8-0.9,1.5-1.6,2.1c-0.7,0.5-1.5,0.8-2.4,0.9L4.5,23.8c-2.1,0.2-3.5,1.3-4.2,3.3c-0.7,2-0.2,3.7,1.5,5.1
								l13.6,11.6c0.7,0.6,1.1,1.3,1.5,2.2c0.3,0.9,0.3,1.7,0.1,2.6l-4.1,17.4c-0.5,2.1,0.1,3.7,1.9,5c1.7,1.2,3.5,1.3,5.3,0.2
								L35,61.7c0.8-0.4,1.6-0.7,2.5-0.7s1.7,0.2,2.5,0.7l15.2,9.4c1.8,1.1,3.6,1,5.3-0.2c1.7-1.3,2.3-2.9,1.8-5l-4.1-17.4
								c-0.2-0.9-0.2-1.7,0.1-2.6c0.3-0.9,0.8-1.6,1.5-2.2l13.6-11.6c1.6-1.4,2.1-3.1,1.4-5.1c-0.7-2-2.1-3.1-4.2-3.3L52.8,22.4z"/>
						</g>
					</g>
				</g>
			</g>
		</g>
	</g>
</g>
</svg>
