
<svg xmlns="http://www.w3.org/2000/svg" version="1.1" xmlns:xlink="http://www.w3.org/1999/xlink" preserveAspectRatio="none" x="0px" y="0px" width="400px" height="400px" viewBox="0 0 400 400">
<defs>
<g id="Option_bg_0_Layer3_0_FILL">
<path fill="#000000" fill-opacity="0.2980392156862745" stroke="none" d="
M 138.55 18.15
Q 81.9 5.4 1.8 5.4 -78.3 5.4 -134.95 18.15 -191.55 30.95 -191.55 49 -191.55 67.1 -134.95 79.85 -78.3 92.65 1.8 92.65 81.9 92.65 138.55 79.85 195.15 67.1 195.15 49 195.15 30.95 138.55 18.15 Z"/>
</g>

<g id="Option_bg_0_Layer2_0_FILL">
<path fill="#FFFFFF" fill-opacity="0.8980392156862745" stroke="none" d="
M 227.8 -22.3
L 227.8 -24.7 227.8 -179.55 -275 -179.55 -275 -24.7 -275 -22.3 -275 89.1 -275 117.4 -275 197.6 -274.35 198.15 -274.35 198.25
Q -20.1 234.95 223.7 200.05 224 199.7 224.6 199.05 225.25 198.5 225.5 198.15 227.05 196.6 227.8 195.4
L 227.8 117.4 227.8 89.1 227.8 -22.3 Z"/>
</g>

<g id="Option_bg_0_Layer1_0_FILL">
<path fill="#014954" stroke="none" d="
M 196.9 -9.55
L 196.9 -17.5 -244.15 -17.5 -244.15 -9.55 196.9 -9.55 Z"/>
</g>

<g id="Option_bg_0_Layer1_1_FILL">
<path fill="#FFFFFF" stroke="none" d="
M -31.2 -212.9
L -31.2 -209.2
Q -29.55 -209.25 -28.05 -209.25 -23.1 -209.35 -18.1 -209.2
L -18.1 -212.9 -31.2 -212.9 Z"/>

<path fill="#02A5DB" stroke="none" d="
M -43.15 -227.75
L -43.15 -212.9 -31.2 -212.9 -18.1 -212.9 -5.15 -212.9 -5.15 -227.75 -43.15 -227.75
M 34.85 -199.2
Q 32.3 -201.5 23.7 -205 2.4 -208.85 -18.1 -209.2 -23.1 -209.35 -28.05 -209.25 -29.55 -208.95 -31.2 -208.55
L -31.2 -209.2
Q -50.7 -208.65 -69.45 -205 -77.4 -203.15 -80.4 -199.25 -163.6 -194 -227.9 -172.85 -249.6 -165.7 -265.7 -157.9 -269.8 -155.8 -273.55 -153.75 -280.95 -149.8 -286.7 -145.6
L 235.9 -145.6
Q 230.05 -149.65 222.7 -153.75 203.55 -164.2 174.85 -173.6 112.55 -193.9 34.85 -199.2 Z"/>

<path fill="#016D7E" stroke="none" d="
M 251.95 -143.15
Q 248.45 -145.6 243.4 -145.6
L 235.9 -145.6 -286.7 -145.6 -291.5 -145.6
Q -296.55 -145.6 -300.15 -143.15 -303.7 -140.7 -303.7 -137.2
L -303.7 -131.05
Q -303.7 -130.45 -303.45 -129.8 -303 -127.25 -300.15 -125.3 -297.25 -123.25 -293.4 -122.9 -292.4 -122.85 -291.5 -122.85
L 243.4 -122.85
Q 248.45 -122.85 251.95 -125.3 253.5 -126.35 254.6 -127.55 255.6 -129.2 255.6 -131.05
L 255.6 -137.2
Q 255.6 -140.7 251.95 -143.15
M 238 -139.85
Q 239.55 -139.85 240.65 -139.3 241.75 -138.4 241.75 -137.35 241.75 -136.3 240.65 -135.55 239.55 -134.9 238 -134.9
L -287.05 -134.9
Q -288.6 -134.9 -289.75 -135.55 -290.8 -136.3 -290.8 -137.35 -290.8 -138.4 -289.75 -139.3 -288.6 -139.85 -287.05 -139.85
L 238 -139.85 Z"/>

<path fill="#16B3C7" stroke="none" d="
M 240.65 -139.3
Q 239.55 -139.85 238 -139.85
L -287.05 -139.85
Q -288.6 -139.85 -289.75 -139.3 -290.8 -138.4 -290.8 -137.35 -290.8 -136.3 -289.75 -135.55 -288.6 -134.9 -287.05 -134.9
L 238 -134.9
Q 239.55 -134.9 240.65 -135.55 241.75 -136.3 241.75 -137.35 241.75 -138.4 240.65 -139.3 Z"/>

<path fill="#25556C" stroke="none" d="
M 4.05 -246.15
L 4.05 -253.65 -53.35 -253.65 -53.35 -246.15 4.05 -246.15 Z"/>

<path fill="#000000" stroke="none" d="
M 15.05 -237.95
L 4.05 -237.95 -53.35 -237.95 -63.45 -237.95 -63.45 -227.75 -43.15 -227.75 -5.15 -227.75 15.05 -227.75 15.05 -237.95 Z"/>

<path fill="#1F485B" stroke="none" d="
M 4.05 -237.95
L 4.05 -246.15 -53.35 -246.15 -53.35 -237.95 4.05 -237.95 Z"/>
</g>

<g id="Option_bg_0_Layer1_2_FILL">
<path fill="#014954" stroke="none" d="
M 116.55 232.2
Q 137.35 229.2 156 225.25 206.35 214.7 222.8 201.1 223.4 200.65 223.7 200.4 -20.95 235.35 -274.3 198.65 -259.6 213.8 -204.9 225.25 -142.9 238.45 -59.6 240.75 -42.35 241.1 -24.4 241.1 54.7 241.1 116.55 232.2 Z"/>
</g>

<path id="Option_bg_0_Layer2_0_1_STROKES" stroke="#333333" stroke-width="2" stroke-linejoin="round" stroke-linecap="round" fill="none" d="
M 227.8 -22.3
L 227.8 89.1 227.8 117.4 227.8 195.4
Q 227.05 196.6 225.5 198.15 225.25 198.5 224.6 199.05 224 199.7 223.7 200.05 -20.1 234.95 -274.35 198.25
L -274.35 198.15 -275 197.6 -275 117.4 -275 89.1 -275 -22.3 -275 -24.7 -275 -179.55 227.8 -179.55 227.8 -24.7"/>
</defs>

<g id="Layer_1">
<g transform="matrix( 0.625, 0, 0, 0.625, 206.35,225.95) ">
<g id="Layer_6">
<g transform="matrix( 1.37615966796875, 0, 0, 0.800567626953125, -21.1,184.05) ">
<use xlink:href="#Option_bg_0_Layer3_0_FILL"/>
</g>
</g>

<g id="Layer_3">
<g transform="matrix( 1, 0, 0, 1, 0,0) ">
<use xlink:href="#Option_bg_0_Layer2_0_FILL"/>

<use xlink:href="#Option_bg_0_Layer2_0_1_STROKES"/>
</g>
</g>

<g id="Layer_4">
<g transform="matrix( 1.139984130859375, 0, 0, 1.139984130859375, 3.35,-163.95) ">
<use xlink:href="#Option_bg_0_Layer1_0_FILL"/>
</g>

<g transform="matrix( 1, 0, 0, 1, 0,-57.6) ">
<use xlink:href="#Option_bg_0_Layer1_1_FILL"/>
</g>

<g transform="matrix( 1, 0, 0, 1, 0,0) ">
<use xlink:href="#Option_bg_0_Layer1_2_FILL"/>
</g>
</g>

<g id="Layer_5"/>
</g>
</g>
</svg>
