<?xml version="1.0" encoding="utf-8"?>
<!-- Generator: Adobe Illustrator 24.3.0, SVG Export Plug-In . SVG Version: 6.00 Build 0)  -->
<svg version="1.1" id="Layer_1" xmlns="http://www.w3.org/2000/svg" xmlns:xlink="http://www.w3.org/1999/xlink" x="0px" y="0px"
	 viewBox="0 0 400 400" style="enable-background:new 0 0 400 400;" xml:space="preserve">
<style type="text/css">
	.st0{fill:#014954;}
	.st1{fill:#00CC00;}
	.st2{fill:#FFFFFF;}
	.st3{fill:#006600;}
	.st4{fill:#003333;}
</style>
<g id="Layer_1_1_">
	<g transform="matrix( 0.625, 0, 0, 0.625, 206.35,225.95) ">
		<g id="Layer_6">
			<g transform="matrix( 1.37615966796875, 0, 0, 0.800567626953125, -21.1,184.05) ">
			</g>
		</g>
		<g id="Layer_4">
			<g transform="matrix( 1.139984130859375, 0, 0, 1.139984130859375, 3.35,-163.95) ">
				<g>
					<g id="Option_bg_4_Layer1_0_FILL">
						<path class="st0" d="M196.9-9.6v-8h-441.1v8H196.9z"/>
					</g>
				</g>
			</g>
			<g transform="matrix( 1, 0, 0, 1, 0,0) ">
				<g>
					<g id="Option_bg_4_Layer1_1_FILL">
						<path class="st1" d="M-18.1-270.5h13v-14.9h-38v14.9h12H-18.1 M240.6-196.9c-0.7-0.4-1.6-0.6-2.6-0.6h-525
							c-1,0-1.9,0.2-2.7,0.6c-0.7,0.6-1,1.2-1,1.9c0,0.7,0.4,1.3,1,1.8c0.8,0.4,1.7,0.6,2.7,0.6h525c1,0,1.9-0.2,2.6-0.6
							c0.7-0.5,1.1-1.1,1.1-1.8C241.8-195.7,241.4-196.3,240.6-196.9z"/>
						<path class="st2" d="M-31.2-266.8c1.1,0,2.2-0.1,3.2-0.1c3.3-0.1,6.6,0,9.9,0.1v-3.7h-13.1V-266.8z"/>
						<path class="st3" d="M4.1-295.5v-15.7h-57.4v15.7H4.1 M235.9-203.2c-3.9-2.7-8.3-5.4-13.2-8.2c-12.8-7-28.7-13.6-47.8-19.8
							c-41.5-13.5-88.2-22.1-140-25.6c-1.7-1.5-5.4-3.5-11.1-5.8c-14.2-2.6-28.1-4-41.8-4.2c-3.3-0.1-6.6-0.1-9.9-0.1
							c-1,0.2-2.1,0.4-3.2,0.7v-0.6c-13,0.4-25.8,1.8-38.2,4.2c-5.3,1.2-9,3.2-11,5.8c-55.5,3.5-104.6,12.3-147.5,26.4
							c-14.5,4.8-27.1,9.8-37.8,14.9c-2.7,1.4-5.3,2.8-7.8,4.1c-4.9,2.6-9.3,5.4-13.2,8.2H235.9z"/>
						<path d="M15.1-295.5h-11h-57.4h-10.1v10.2h20.3h38h20.2V-295.5z"/>
						<path class="st4" d="M251.9-200.8c-2.3-1.6-5.2-2.4-8.6-2.4h-7.5h-522.6h-4.8c-3.4,0-6.3,0.8-8.6,2.4
							c-2.4,1.6-3.6,3.6-3.6,5.9v6.2c0,0.4,0.1,0.8,0.3,1.3c0.3,1.7,1.4,3.2,3.3,4.5c1.9,1.4,4.2,2.2,6.8,2.4c0.7,0,1.3,0.1,1.9,0.1
							h534.9c3.4,0,6.2-0.8,8.6-2.4c1-0.7,1.9-1.4,2.7-2.3c0.7-1.1,1-2.3,1-3.5v-6.2C255.6-197.1,254.4-199.1,251.9-200.8
							 M238-197.4c1,0,1.9,0.2,2.6,0.6c0.7,0.6,1.1,1.2,1.1,1.9c0,0.7-0.4,1.3-1.1,1.8c-0.7,0.4-1.6,0.6-2.6,0.6h-525
							c-1,0-1.9-0.2-2.7-0.6c-0.7-0.5-1-1.1-1-1.8c0-0.7,0.4-1.4,1-1.9c0.8-0.4,1.7-0.6,2.7-0.6H238z"/>
					</g>
				</g>
			</g>
			<g transform="matrix( 1, 0, 0, 1, 0,0) ">
				<g>
					<g id="Option_bg_4_Layer1_2_FILL">
						<path class="st3" d="M116.6,232.2c13.9-2,27-4.3,39.4-6.9c33.6-7,55.8-15.1,66.8-24.1c0.4-0.3,0.7-0.5,0.9-0.7
							c-163.1,23.3-329.1,22.7-498-1.8c9.8,10.1,32.9,19,69.4,26.6c41.3,8.8,89.8,14,145.3,15.5c11.5,0.2,23.2,0.4,35.2,0.4
							C28.3,241.1,75.3,238.1,116.6,232.2z"/>
					</g>
				</g>
			</g>
		</g>
	</g>
</g>
</svg>
