
<svg xmlns="http://www.w3.org/2000/svg" version="1.1" xmlns:xlink="http://www.w3.org/1999/xlink" preserveAspectRatio="none" x="0px" y="0px" width="400px" height="400px" viewBox="0 0 400 400">
<defs>
<g id="Option_bg_5_Layer3_0_FILL">
<path fill="#000000" fill-opacity="0.2980392156862745" stroke="none" d="
M 138.55 18.15
Q 81.9 5.4 1.8 5.4 -78.3 5.4 -134.95 18.15 -191.55 30.95 -191.55 49 -191.55 67.1 -134.95 79.85 -78.3 92.65 1.8 92.65 81.9 92.65 138.55 79.85 195.15 67.1 195.15 49 195.15 30.95 138.55 18.15 Z"/>
</g>

<g id="Option_bg_5_Layer2_0_FILL">
<path fill="#FFFFFF" fill-opacity="0.8980392156862745" stroke="none" d="
M 227.8 -22.3
L 227.8 -24.7 227.8 -179.55 -275 -179.55 -275 -24.7 -275 -22.3 -275 89.1 -275 117.4 -275 197.6 -274.35 198.15 -274.35 198.25
Q -20.1 234.95 223.7 200.05 224 199.7 224.6 199.05 225.25 198.5 225.5 198.15 227.05 196.6 227.8 195.4
L 227.8 117.4 227.8 89.1 227.8 -22.3 Z"/>
</g>

<g id="Option_bg_5_Layer1_0_FILL">
<path fill="#000000" stroke="none" d="
M 196.9 -9.55
L 196.9 -17.5 -244.15 -17.5 -244.15 -9.55 196.9 -9.55 Z"/>
</g>

<g id="Option_bg_5_Layer1_1_FILL">
<path fill="#666666" stroke="none" d="
M -18.1 -270.5
L -5.15 -270.5 -5.15 -285.35 -43.15 -285.35 -43.15 -270.5 -31.2 -270.5 -18.1 -270.5
M 240.65 -196.9
Q 239.55 -197.45 238 -197.45
L -287.05 -197.45
Q -288.6 -197.45 -289.75 -196.9 -290.8 -196 -290.8 -194.95 -290.8 -193.9 -289.75 -193.15 -288.6 -192.5 -287.05 -192.5
L 238 -192.5
Q 239.55 -192.5 240.65 -193.15 241.75 -193.9 241.75 -194.95 241.75 -196 240.65 -196.9
M 235.9 -203.2
Q 230.05 -207.25 222.7 -211.35 203.55 -221.8 174.85 -231.2 112.55 -251.5 34.85 -256.8 32.3 -259.1 23.7 -262.6 2.4 -266.45 -18.1 -266.8 -23.1 -266.95 -28.05 -266.85 -29.55 -266.55 -31.2 -266.15
L -31.2 -266.8
Q -50.7 -266.25 -69.45 -262.6 -77.4 -260.75 -80.4 -256.85 -163.6 -251.6 -227.9 -230.45 -249.6 -223.3 -265.7 -215.5 -269.8 -213.4 -273.55 -211.35 -280.95 -207.4 -286.7 -203.2
L 235.9 -203.2 Z"/>

<path fill="#FFFFFF" stroke="none" d="
M -31.2 -266.8
Q -29.55 -266.85 -28.05 -266.85 -23.1 -266.95 -18.1 -266.8
L -18.1 -270.5 -31.2 -270.5 -31.2 -266.8 Z"/>

<path fill="#333333" stroke="none" d="
M 4.05 -295.55
L 4.05 -311.25 -53.35 -311.25 -53.35 -295.55 4.05 -295.55
M 251.95 -200.75
Q 248.45 -203.2 243.4 -203.2
L 235.9 -203.2 -286.7 -203.2 -291.5 -203.2
Q -296.55 -203.2 -300.15 -200.75 -303.7 -198.3 -303.7 -194.8
L -303.7 -188.65
Q -303.7 -188.05 -303.45 -187.4 -303 -184.85 -300.15 -182.9 -297.25 -180.85 -293.4 -180.5 -292.4 -180.45 -291.5 -180.45
L 243.4 -180.45
Q 248.45 -180.45 251.95 -182.9 253.5 -183.95 254.6 -185.15 255.6 -186.8 255.6 -188.65
L 255.6 -194.8
Q 255.6 -198.3 251.95 -200.75
M 238 -197.45
Q 239.55 -197.45 240.65 -196.9 241.75 -196 241.75 -194.95 241.75 -193.9 240.65 -193.15 239.55 -192.5 238 -192.5
L -287.05 -192.5
Q -288.6 -192.5 -289.75 -193.15 -290.8 -193.9 -290.8 -194.95 -290.8 -196 -289.75 -196.9 -288.6 -197.45 -287.05 -197.45
L 238 -197.45 Z"/>

<path fill="#000000" stroke="none" d="
M 15.05 -295.55
L 4.05 -295.55 -53.35 -295.55 -63.45 -295.55 -63.45 -285.35 -43.15 -285.35 -5.15 -285.35 15.05 -285.35 15.05 -295.55 Z"/>
</g>

<g id="Option_bg_5_Layer1_2_FILL">
<path fill="#333333" stroke="none" d="
M 116.55 232.2
Q 137.35 229.2 156 225.25 206.35 214.7 222.8 201.1 223.4 200.65 223.7 200.4 -20.95 235.35 -274.3 198.65 -259.6 213.8 -204.9 225.25 -142.9 238.45 -59.6 240.75 -42.35 241.1 -24.4 241.1 54.7 241.1 116.55 232.2 Z"/>
</g>

<path id="Option_bg_5_Layer2_0_1_STROKES" stroke="#333333" stroke-width="2" stroke-linejoin="round" stroke-linecap="round" fill="none" d="
M 227.8 -22.3
L 227.8 89.1 227.8 117.4 227.8 195.4
Q 227.05 196.6 225.5 198.15 225.25 198.5 224.6 199.05 224 199.7 223.7 200.05 -20.1 234.95 -274.35 198.25
L -274.35 198.15 -275 197.6 -275 117.4 -275 89.1 -275 -22.3 -275 -24.7 -275 -179.55 227.8 -179.55 227.8 -24.7"/>
</defs>

<g id="Layer_1">
<g transform="matrix( 0.625, 0, 0, 0.625, 206.35,225.95) ">
<g id="Layer_6">
<g transform="matrix( 1.37615966796875, 0, 0, 0.800567626953125, -21.1,184.05) ">
<use xlink:href="#Option_bg_5_Layer3_0_FILL"/>
</g>
</g>

<g id="Layer_3">
<g transform="matrix( 1, 0, 0, 1, 0,0) ">
<use xlink:href="#Option_bg_5_Layer2_0_FILL"/>

<use xlink:href="#Option_bg_5_Layer2_0_1_STROKES"/>
</g>
</g>

<g id="Layer_4">
<g transform="matrix( 1.139984130859375, 0, 0, 1.139984130859375, 3.35,-163.95) ">
<use xlink:href="#Option_bg_5_Layer1_0_FILL"/>
</g>

<g transform="matrix( 1, 0, 0, 1, 0,0) ">
<use xlink:href="#Option_bg_5_Layer1_1_FILL"/>
</g>

<g transform="matrix( 1, 0, 0, 1, 0,0) ">
<use xlink:href="#Option_bg_5_Layer1_2_FILL"/>
</g>
</g>

<g id="Layer_5"/>
</g>
</g>
</svg>
