
<svg xmlns="http://www.w3.org/2000/svg" version="1.1" xmlns:xlink="http://www.w3.org/1999/xlink" preserveAspectRatio="none" x="0px" y="0px" width="400px" height="500px" viewBox="0 0 400 500">
<defs>
<filter id="Filter_1" x="-20%" y="-20%" width="140%" height="140%" color-interpolation-filters="sRGB">
<feFlood flood-color="#000000" flood-opacity="1" in="SourceGraphic" result="result1"/>

<feComposite in2="SourceGraphic" in="result1" operator="in" result="result2"/>

<feGaussianBlur in="result2" stdDeviation="1.3333333333333333,1.3333333333333333" result="result3"/>

<feOffset dx="-3.7587704831436337" dy="-1.3680805733026746" in="result3" result="result4"/>

<feComposite in2="result4" in="SourceGraphic" operator="over" result="result5"/>
</filter>

<filter id="Filter_2" x="-20%" y="-20%" width="140%" height="140%" color-interpolation-filters="sRGB">
<feColorMatrix in="SourceGraphic" type="matrix" values="0.81 0 0 0 0 0 0.81 0 0 0 0 0 0.81 0 0 0 0 0 1 0" result="result1"/>
</filter>

<filter id="Filter_3" x="-20%" y="-20%" width="140%" height="140%" color-interpolation-filters="sRGB">
<feFlood flood-color="#000000" flood-opacity="1" in="SourceGraphic" result="result1"/>

<feComposite in2="SourceGraphic" in="result1" operator="in" result="result2"/>

<feGaussianBlur in="result2" stdDeviation="1.3333333333333333,1.3333333333333333" result="result3"/>

<feOffset dx="-3.7587704831436337" dy="-1.3680805733026746" in="result3" result="result4"/>

<feComposite in2="result4" in="SourceGraphic" operator="over" result="result5"/>
</filter>

<g id="Option_bg_5_Layer9_0_FILL">
<path fill="#000000" fill-opacity="0.14901960784313725" stroke="none" d="
M 262.85 343.2
Q 265.6 328.95 186.9 326.85 121.8 325.1 30.1 323.6 11 323.3 -9.25 323 -126.75 321.2 -212.15 325.35 -297.5 329.5 -292.35 341 -287.15 352.5 -217.35 355.5 -147.55 358.5 -35.5 361.05 -1.8 361.8 30.1 362.1 104.2 362.7 168.3 360.55 260 357.45 262.85 343.2 Z"/>
</g>

<g id="Symbol_39_0_Layer0_0_FILL">
<path fill="#300E02" stroke="none" d="
M 31.55 9.25
L 31.55 7.05
Q 31.55 6.6 31.3 6.3 31.05 5.95 30.7 5.95 30.35 5.95 30.05 6.3 29.8 6.6 29.8 7.05
L 29.8 9.25
Q 29.8 9.75 30.05 10.05 30.35 10.4 30.7 10.4 31.05 10.4 31.3 10.05 31.55 9.75 31.55 9.25 Z"/>
</g>

<g id="Symbol_39_0_Layer0_1_FILL">
<path fill="#50720F" stroke="none" d="
M 46.2 1.3
Q 46 0.65 43.5 0.2 40.6 -0.35 37.95 0.45 34.8 1.45 33.05 2.85 31.15 4.3 31.6 5.8
L 46.2 1.3 Z"/>
</g>

<g id="Symbol_39_0_Layer0_2_FILL">
<path fill="#628C19" stroke="none" d="
M 44.6 3.75
Q 46.35 1.95 46.2 1.3
L 31.6 5.8 31.6 5.85
Q 32.05 7.35 34.45 7.5 36.7 7.65 39.85 6.65 42.5 5.85 44.6 3.75 Z"/>
</g>

<g id="Symbol_39_0_Layer0_3_FILL">
<path fill="#F72A14" stroke="none" d="
M 46.7 19.65
Q 45.7 13.6 41.35 10.3 36.55 6.75 30.7 9.4 24.85 6.75 20 10.35 15.65 13.6 14.65 19.65 13.65 25.95 17.35 30.3 21.6 35.35 30.7 35.2 39.8 35.35 44.05 30.3 47.7 25.95 46.7 19.65 Z"/>
</g>

<g id="Symbol_42_0_Layer0_9_MEMBER_0_FILL">
<path fill="#FF9F10" stroke="none" d="
M -212.35 289.8
Q -207.35 289.8 -207.35 284.8
L -207.35 266.3
Q -207.35 261.3 -212.35 261.3
L -347.25 261.3
Q -352.25 261.3 -352.25 266.3
L -352.25 284.8
Q -352.25 289.8 -347.25 289.8
L -212.35 289.8 Z"/>
</g>

<g id="Symbol_42_0_Layer0_9_MEMBER_1_FILL">
<path fill="#FF9F10" stroke="none" d="
M -212.35 289.8
Q -207.35 289.8 -207.35 284.8
L -207.35 266.3
Q -207.35 261.3 -212.35 261.3
L -347.25 261.3
Q -352.25 261.3 -352.25 266.3
L -352.25 284.8
Q -352.25 289.8 -347.25 289.8
L -212.35 289.8 Z"/>
</g>

<g id="Symbol_42_0_Layer0_9_MEMBER_2_FILL">
<path fill="#FF9F10" stroke="none" d="
M -212.35 289.8
Q -207.35 289.8 -207.35 284.8
L -207.35 266.3
Q -207.35 261.3 -212.35 261.3
L -347.25 261.3
Q -352.25 261.3 -352.25 266.3
L -352.25 284.8
Q -352.25 289.8 -347.25 289.8
L -212.35 289.8 Z"/>
</g>

<g id="Symbol_38_0_Layer0_0_FILL">
<path fill="#FF9F10" stroke="none" d="
M -212.35 289.8
Q -207.35 289.8 -207.35 284.8
L -207.35 266.3
Q -207.35 261.3 -212.35 261.3
L -347.25 261.3
Q -352.25 261.3 -352.25 266.3
L -352.25 284.8
Q -352.25 289.8 -347.25 289.8
L -212.35 289.8 Z"/>
</g>

<g id="Symbol_38_0_Layer0_1_FILL">
<path fill="#CC6600" stroke="none" d="
M -51 -7.5
Q -53.2 -7.45 -54.8 -5.85 -56.45 -4.2 -56.5 -2.05 -56.2 -2.15 -56.3 -1.55 -56.45 -0.3 -55.6 0.95 -54.2 2.95 -51.8 3.35 -49.45 3.75 -47.5 2.3 -46.15 1.2 -45.6 -0.5 -45.1 -2.25 -45.7 -3.85 -46.25 -5.5 -47.75 -6.5 -49.25 -7.55 -51 -7.5 Z"/>
</g>

<g id="Symbol_38_0_Layer0_2_FILL">
<path fill="#CC6600" stroke="none" d="
M 5.85 -0.85
Q 6.75 -2.75 6.2 -4.65 5.6 -6.55 3.85 -7.7 2.1 -8.85 0.15 -8.55 -1.75 -8.3 -3.15 -6.7 -4.55 -5.1 -4.55 -3.15 -4.45 -3.1 -4.45 -2.75 -4.55 -2.15 -4.4 -1.75 -4.15 -0.75 -3.65 -0.05 -2.55 1.55 -0.6 2.1 1.4 2.65 3.2 1.85 5 1.05 5.85 -0.85 Z"/>
</g>

<g id="Symbol_38_0_Layer0_3_FILL">
<path fill="#CC6600" stroke="none" d="
M 59.05 -0.05
Q 59.6 -1.55 59.25 -3.2 58.9 -4.85 57.75 -5.95 56.6 -7.05 54.9 -7.4 53.2 -7.7 51.75 -7.05 50.25 -6.45 49.25 -5.05 48.3 -3.65 48.2 -2.05 48.4 -1.7 48.5 -0.85 48.9 1.55 51.15 2.75 53.25 3.9 55.65 3.1 58.15 2.2 59.05 -0.05 Z"/>
</g>

<g id="Option_bg_5_Layer6_0_FILL">
<path fill="#FFFFFF" fill-opacity="0.8" stroke="none" d="
M 233.85 -201.9
Q 226.55 -209.2 216.2 -209.2
L -283.7 -209.2
Q -294 -209.2 -301.4 -201.9 -308.7 -194.5 -308.7 -184.2
L -308.7 155.1
Q -308.7 165.45 -301.4 172.75 -294.05 180.1 -283.7 180.1
L 216.2 180.1
Q 226.55 180.1 233.85 172.75 241.2 165.45 241.2 155.1
L 241.2 -184.2
Q 241.2 -194.55 233.85 -201.9 Z"/>
</g>

<g id="Option_bg_5_Layer5_0_FILL">
<path fill="#515151" stroke="none" d="
M 126.5 188.05
L 126.45 188.05
Q 110.3642578125 171.90390625 87.5 171.9
L -161.7 171.9
Q -184.5630859375 171.8947265625 -200.8 188.05
L -200.8 188.05
Q -216.9552734375 204.2869140625 -216.95 227.15 -216.94609375 250.0146484375 -200.8 266.1
L -200.8 266.15
Q -184.559375 282.4009765625 -161.7 282.4
L 87.5 282.4
Q 110.3658203125 282.404296875 126.45 266.15
L 126.5 266.1
Q 142.754296875 250.0158203125 142.75 227.15 142.7509765625 204.290234375 126.5 188.05
M 119.4 195.1
L 119.4 195.15
Q 132.7486328125 208.4267578125 132.75 227.15 132.7455078125 245.86640625 119.4 259.05
L 119.4 259.05
Q 106.21640625 272.3955078125 87.5 272.4
L -161.7 272.4
Q -180.4232421875 272.3986328125 -193.7 259.05
L -193.75 259.05
Q -206.9541015625 245.8677734375 -206.95 227.15 -206.9451171875 208.430859375 -193.75 195.15
L -193.7 195.1
Q -180.419140625 181.9048828125 -161.7 181.9
L 87.5 181.9
Q 106.2177734375 181.8958984375 119.4 195.1 Z"/>
</g>

<g id="Option_bg_5_Layer5_1_FILL">
<path fill="#663366" stroke="none" d="
M 227.1 186.2
L 227.1 167.95 -291.6 167.95 -291.6 186.2 227.1 186.2 Z"/>
</g>

<g id="Duplicate_Items_Folder_Symbol_1_copy_0_Layer0_7_FILL">
<path fill="#000000" stroke="none" d="
M 38 -41.25
Q 38 -42.35 37.25 -43.1 36.5 -43.85 35.4 -43.85 34.3 -43.85 33.55 -43.1 32.8 -42.35 32.8 -41.25 32.8 -40.15 33.55 -39.4 34.3 -38.65 35.4 -38.65 36.5 -38.65 37.25 -39.4 38 -40.15 38 -41.25 Z"/>
</g>

<g id="Symbol_41_0_Layer0_0_MEMBER_0_MEMBER_0_MEMBER_0_FILL">
<path fill="#FF900B" stroke="none" d="
M 95.9 36.35
L 85.95 26.95
Q 84.1 25.2 81.5 25.45 78.95 25.7 77.45 27.8
L 38.45 82.55
Q 36.3 85.6 36.7 89.25 37.05 92.95 39.75 95.5
L 39.8 95.55 95.9 36.35 Z"/>
</g>

<g id="Symbol_41_0_Layer0_0_MEMBER_0_MEMBER_1_MEMBER_0_FILL">
<path fill="#7C7603" stroke="none" d="
M 90.3 31.05
L 95.85 36.35
Q 104.3 25.05 105.7 15.15 107.45 3.2 96.95 0
L 90.3 31.05 Z"/>
</g>

<g id="Symbol_41_0_Layer0_0_MEMBER_0_MEMBER_1_MEMBER_1_FILL">
<path fill="#ADA800" stroke="none" d="
M 95.8 36.25
L 101.35 41.55 132.05 33.2
Q 128.25 22.9 116.4 25.3 106.65 27.25 95.8 36.25 Z"/>
</g>

<g id="Symbol_41_0_Layer0_0_MEMBER_0_MEMBER_1_MEMBER_2_FILL">
<path fill="#ADA800" stroke="none" d="
M 120.9 9.95
Q 113.5 6.4 103.65 16.9 95.55 25.55 92.95 33.6
L 95.9 36.35 120.9 9.95 Z"/>
</g>

<g id="Symbol_41_0_Layer0_0_MEMBER_0_MEMBER_1_MEMBER_3_FILL">
<path fill="#7C7603" stroke="none" d="
M 98.65 38.95
Q 105.35 36.45 113.3 29.05 124.2 18.8 120.9 9.95
L 95.9 36.35 98.65 38.95 Z"/>
</g>

<g id="Symbol_41_0_Layer0_0_MEMBER_0_MEMBER_2_FILL">
<path fill="#FF900B" stroke="none" d="
M 105.65 45.6
L 95.9 36.35 39.8 95.55
Q 42.5 98.05 46.2 98.2 49.85 98.35 52.7 96.05
L 105.3 54.15
Q 107.3 52.55 107.45 49.95 107.55 47.4 105.65 45.6 Z"/>
</g>

<g id="Symbol_41_0_Layer0_0_MEMBER_0_MEMBER_3_FILL">
<path fill="#A05605" stroke="none" d="
M 82.8 55.4
Q 83.5 54.75 83.45 53.75 83.4 52.8 82.7 52.15
L 73.4 43.3
Q 72.7 42.65 71.75 42.7 70.8 42.75 70.15 43.4 69.5 44.1 69.5 45.05 69.55 46 70.25 46.65
L 79.55 55.5
Q 80.25 56.15 81.2 56.15 82.15 56.1 82.8 55.4 Z"/>
</g>

<g id="Symbol_41_0_Layer0_0_MEMBER_0_MEMBER_4_FILL">
<path fill="#A05605" stroke="none" d="
M 69.05 68.65
Q 69.1 69.6 69.8 70.25
L 74.25 74.5
Q 74.95 75.2 75.9 75.15 76.85 75.1 77.5 74.4 78.15 73.75 78.15 72.75 78.15 71.8 77.45 71.15
L 72.95 66.9
Q 72.3 66.25 71.3 66.3 70.35 66.35 69.7 67 69.05 67.7 69.05 68.65 Z"/>
</g>

<g id="Symbol_41_0_Layer0_0_MEMBER_0_MEMBER_5_FILL">
<path fill="#A05605" stroke="none" d="
M 49.55 70.65
Q 49.55 71.6 50.25 72.25
L 54.7 76.5
Q 55.4 77.15 56.35 77.1 57.35 77.1 58 76.4 58.65 75.7 58.6 74.75 58.6 73.8 57.9 73.15
L 53.4 68.9
Q 52.7 68.25 51.8 68.3 50.8 68.3 50.15 69 49.5 69.7 49.55 70.65 Z"/>
</g>

<g id="Symbol_41_0_Layer0_1_MEMBER_0_MEMBER_0_FILL">
<path fill="#4C2608" stroke="none" d="
M 35.6 40.25
L 36.4 25.85 30.65 25.85 31.45 40.25 35.6 40.25 Z"/>
</g>

<g id="Symbol_41_0_Layer0_1_MEMBER_0_MEMBER_1_FILL">
<path fill="#CC0000" stroke="none" d="
M 18.95 30.65
Q 3.7 29.75 0.55 43.35 -1.25 51.2 2.6 61.9 5.45 69.85 11.1 78.65 13.85 82.95 18.6 84.65 23.4 86.4 28.2 84.85
L 33.6 83.1 33.6 34.25
Q 26.6 31.1 18.95 30.65 Z"/>
</g>

<g id="Symbol_41_0_Layer0_1_MEMBER_0_MEMBER_2_FILL">
<path fill="#CC0000" stroke="none" d="
M 12.55 282.8
Q 9.25 281.8 6.35 281.65 -2.95 281.1 -4.9 289.4 -6 294.2 -3.65 300.7 -1.85 305.6 1.6 310.95 3.25 313.6 6.15 314.6 9.05 315.7 12 314.75
L 15.25 313.65 15.25 283.85 12.55 282.8 Z"/>
</g>

<g id="Symbol_41_0_Layer0_1_MEMBER_0_MEMBER_3_MEMBER_0_FILL">
<path fill="#7C7603" stroke="none" d="
M 21.8 16.1
Q 19.35 16.45 17.7 17.55
L 18.2 21.55
Q 19.5 26.05 23.7 28.7 27.95 31.4 32.25 30.85 34.7 30.5 36.35 29.4 36.7 27.45 35.9 25.1 34.6 20.95 30.35 18.25 26.1 15.55 21.8 16.1 Z"/>
</g>

<g id="Symbol_41_0_Layer0_1_MEMBER_1_MEMBER_0_FILL">
<path fill="#4C2608" stroke="none" d="
M 35.6 40.25
L 36.4 25.85 30.65 25.85 31.45 40.25 35.6 40.25 Z"/>
</g>

<g id="Symbol_41_0_Layer0_1_MEMBER_1_MEMBER_1_FILL">
<path fill="#CC0000" stroke="none" d="
M 18.95 30.65
Q 3.7 29.75 0.55 43.35 -1.25 51.2 2.6 61.9 5.45 69.85 11.1 78.65 13.85 82.95 18.6 84.65 23.4 86.4 28.2 84.85
L 33.6 83.1 33.6 34.25
Q 26.6 31.1 18.95 30.65 Z"/>
</g>

<g id="Symbol_41_0_Layer0_1_MEMBER_1_MEMBER_2_FILL">
<path fill="#CC0000" stroke="none" d="
M 12.55 282.8
Q 9.25 281.8 6.35 281.65 -2.95 281.1 -4.9 289.4 -6 294.2 -3.65 300.7 -1.85 305.6 1.6 310.95 3.25 313.6 6.15 314.6 9.05 315.7 12 314.75
L 15.25 313.65 15.25 283.85 12.55 282.8 Z"/>
</g>

<g id="Symbol_41_0_Layer0_1_MEMBER_1_MEMBER_3_MEMBER_0_FILL">
<path fill="#7C7603" stroke="none" d="
M 21.8 16.1
Q 19.35 16.45 17.7 17.55
L 18.2 21.55
Q 19.5 26.05 23.7 28.7 27.95 31.4 32.25 30.85 34.7 30.5 36.35 29.4 36.7 27.45 35.9 25.1 34.6 20.95 30.35 18.25 26.1 15.55 21.8 16.1 Z"/>
</g>

<g id="Symbol_41_0_Layer0_1_MEMBER_2_MEMBER_0_MEMBER_0_FILL">
<path fill="#FF900B" stroke="none" d="
M 95.9 36.35
L 85.95 26.95
Q 84.1 25.2 81.5 25.45 78.95 25.7 77.45 27.8
L 38.45 82.55
Q 36.3 85.6 36.7 89.25 37.05 92.95 39.75 95.5
L 39.8 95.55 95.9 36.35 Z"/>
</g>

<g id="Symbol_41_0_Layer0_1_MEMBER_2_MEMBER_1_MEMBER_0_FILL">
<path fill="#7C7603" stroke="none" d="
M 90.3 31.05
L 95.85 36.35
Q 104.3 25.05 105.7 15.15 107.45 3.2 96.95 0
L 90.3 31.05 Z"/>
</g>

<g id="Symbol_41_0_Layer0_1_MEMBER_2_MEMBER_1_MEMBER_1_FILL">
<path fill="#ADA800" stroke="none" d="
M 95.8 36.25
L 101.35 41.55 132.05 33.2
Q 128.25 22.9 116.4 25.3 106.65 27.25 95.8 36.25 Z"/>
</g>

<g id="Symbol_41_0_Layer0_1_MEMBER_2_MEMBER_1_MEMBER_2_FILL">
<path fill="#ADA800" stroke="none" d="
M 120.9 9.95
Q 113.5 6.4 103.65 16.9 95.55 25.55 92.95 33.6
L 95.9 36.35 120.9 9.95 Z"/>
</g>

<g id="Symbol_41_0_Layer0_1_MEMBER_2_MEMBER_1_MEMBER_3_FILL">
<path fill="#7C7603" stroke="none" d="
M 98.65 38.95
Q 105.35 36.45 113.3 29.05 124.2 18.8 120.9 9.95
L 95.9 36.35 98.65 38.95 Z"/>
</g>

<g id="Symbol_41_0_Layer0_1_MEMBER_2_MEMBER_2_FILL">
<path fill="#FF900B" stroke="none" d="
M 105.65 45.6
L 95.9 36.35 39.8 95.55
Q 42.5 98.05 46.2 98.2 49.85 98.35 52.7 96.05
L 105.3 54.15
Q 107.3 52.55 107.45 49.95 107.55 47.4 105.65 45.6 Z"/>
</g>

<g id="Symbol_41_0_Layer0_1_MEMBER_2_MEMBER_3_FILL">
<path fill="#A05605" stroke="none" d="
M 82.8 55.4
Q 83.5 54.75 83.45 53.75 83.4 52.8 82.7 52.15
L 73.4 43.3
Q 72.7 42.65 71.75 42.7 70.8 42.75 70.15 43.4 69.5 44.1 69.5 45.05 69.55 46 70.25 46.65
L 79.55 55.5
Q 80.25 56.15 81.2 56.15 82.15 56.1 82.8 55.4 Z"/>
</g>

<g id="Symbol_41_0_Layer0_1_MEMBER_2_MEMBER_4_FILL">
<path fill="#A05605" stroke="none" d="
M 69.05 68.65
Q 69.1 69.6 69.8 70.25
L 74.25 74.5
Q 74.95 75.2 75.9 75.15 76.85 75.1 77.5 74.4 78.15 73.75 78.15 72.75 78.15 71.8 77.45 71.15
L 72.95 66.9
Q 72.3 66.25 71.3 66.3 70.35 66.35 69.7 67 69.05 67.7 69.05 68.65 Z"/>
</g>

<g id="Symbol_41_0_Layer0_1_MEMBER_2_MEMBER_5_FILL">
<path fill="#A05605" stroke="none" d="
M 49.55 70.65
Q 49.55 71.6 50.25 72.25
L 54.7 76.5
Q 55.4 77.15 56.35 77.1 57.35 77.1 58 76.4 58.65 75.7 58.6 74.75 58.6 73.8 57.9 73.15
L 53.4 68.9
Q 52.7 68.25 51.8 68.3 50.8 68.3 50.15 69 49.5 69.7 49.55 70.65 Z"/>
</g>

<g id="Symbol_41_0_Layer0_1_MEMBER_3_MEMBER_0_MEMBER_0_FILL">
<path fill="#FF900B" stroke="none" d="
M 95.9 36.35
L 85.95 26.95
Q 84.1 25.2 81.5 25.45 78.95 25.7 77.45 27.8
L 38.45 82.55
Q 36.3 85.6 36.7 89.25 37.05 92.95 39.75 95.5
L 39.8 95.55 95.9 36.35 Z"/>
</g>

<g id="Symbol_41_0_Layer0_1_MEMBER_3_MEMBER_1_MEMBER_0_FILL">
<path fill="#7C7603" stroke="none" d="
M 90.3 31.05
L 95.85 36.35
Q 104.3 25.05 105.7 15.15 107.45 3.2 96.95 0
L 90.3 31.05 Z"/>
</g>

<g id="Symbol_41_0_Layer0_1_MEMBER_3_MEMBER_1_MEMBER_1_FILL">
<path fill="#ADA800" stroke="none" d="
M 95.8 36.25
L 101.35 41.55 132.05 33.2
Q 128.25 22.9 116.4 25.3 106.65 27.25 95.8 36.25 Z"/>
</g>

<g id="Symbol_41_0_Layer0_1_MEMBER_3_MEMBER_1_MEMBER_2_FILL">
<path fill="#ADA800" stroke="none" d="
M 120.9 9.95
Q 113.5 6.4 103.65 16.9 95.55 25.55 92.95 33.6
L 95.9 36.35 120.9 9.95 Z"/>
</g>

<g id="Symbol_41_0_Layer0_1_MEMBER_3_MEMBER_1_MEMBER_3_FILL">
<path fill="#7C7603" stroke="none" d="
M 98.65 38.95
Q 105.35 36.45 113.3 29.05 124.2 18.8 120.9 9.95
L 95.9 36.35 98.65 38.95 Z"/>
</g>

<g id="Symbol_41_0_Layer0_1_MEMBER_3_MEMBER_2_FILL">
<path fill="#FF900B" stroke="none" d="
M 105.65 45.6
L 95.9 36.35 39.8 95.55
Q 42.5 98.05 46.2 98.2 49.85 98.35 52.7 96.05
L 105.3 54.15
Q 107.3 52.55 107.45 49.95 107.55 47.4 105.65 45.6 Z"/>
</g>

<g id="Symbol_41_0_Layer0_1_MEMBER_3_MEMBER_3_FILL">
<path fill="#A05605" stroke="none" d="
M 82.8 55.4
Q 83.5 54.75 83.45 53.75 83.4 52.8 82.7 52.15
L 73.4 43.3
Q 72.7 42.65 71.75 42.7 70.8 42.75 70.15 43.4 69.5 44.1 69.5 45.05 69.55 46 70.25 46.65
L 79.55 55.5
Q 80.25 56.15 81.2 56.15 82.15 56.1 82.8 55.4 Z"/>
</g>

<g id="Symbol_41_0_Layer0_1_MEMBER_3_MEMBER_4_FILL">
<path fill="#A05605" stroke="none" d="
M 69.05 68.65
Q 69.1 69.6 69.8 70.25
L 74.25 74.5
Q 74.95 75.2 75.9 75.15 76.85 75.1 77.5 74.4 78.15 73.75 78.15 72.75 78.15 71.8 77.45 71.15
L 72.95 66.9
Q 72.3 66.25 71.3 66.3 70.35 66.35 69.7 67 69.05 67.7 69.05 68.65 Z"/>
</g>

<g id="Symbol_41_0_Layer0_1_MEMBER_3_MEMBER_5_FILL">
<path fill="#A05605" stroke="none" d="
M 49.55 70.65
Q 49.55 71.6 50.25 72.25
L 54.7 76.5
Q 55.4 77.15 56.35 77.1 57.35 77.1 58 76.4 58.65 75.7 58.6 74.75 58.6 73.8 57.9 73.15
L 53.4 68.9
Q 52.7 68.25 51.8 68.3 50.8 68.3 50.15 69 49.5 69.7 49.55 70.65 Z"/>
</g>

<g id="Symbol_41_0_Layer0_2_FILL">
<path fill="#CC6600" stroke="none" d="
M 23.5 373.6
Q 40.7 376.05 54.3 375.2 74.8 375.1 81.9 373.85 89 372.55 96.3 371.6 102.55 372.85 104.55 372.25 106.75 371.6 103.9 368.7 98.1 363.7 97.75 363.25 96 361.1 95.7 357.6 95.6 356.5 95.65 355.3 96.2 349 96.25 345.7
L 96.25 345.25
Q 96.35 339.7 95.6 332.1 94.75 324.3 92.1 313.25 91.75 313.25 91.4 313.25
L 91.35 313.25
Q 88.85 318.6 69.45 316.95 50.05 315.25 24.05 317.65 -2 320 -24.75 315.3 -24.25 325.75 -24.25 338.8 -24.25 342.15 -22.35 348.05 -20.5 354 -20.5 355.65 -20.5 355.9 -20.7 356.9 -21.15 358.8 -22.35 363.55 -24.25 370.75 -24.25 372.45 -24.3 373 -24 373.3 -23.1 374.25 -19 372.45 -17.6 371.35 -14.55 370.75 -12 370.2 -9.25 370.2 6.25 371.1 23.5 373.6
M 94.45 290.15
L 94.45 290.2
Q 95.4 288.3 96 286.25 96.6 284.2 94.35 284.55 92.05 284.85 89.1 286 86.05 287.1 57.65 289.95 29.15 292.8 13.9 292.8 7.15 292.6 0.5 292.5 -12.6 292.25 -18.05 291.45 -23.55 290.65 -28.1 289 -32.7 287.35 -31.8 289.25 -30.9 291.15 -30.5 291.95 -30.15 292.7 -28.3 294.55
L -28.25 294.6
Q -28.05 294.8 -27.8 295 -28.25 295.4 -28.6 295.95
L -28.6 295.9
Q -30.55 298.45 -32 305.6 -33.35 312.05 -33.05 313.9 -33.25 315.65 -24.9 313.45
L -24.85 313.45
Q 9.85 314.2 32.6 314.6 55.45 314.95 69.4 313.4
L 69.45 313.4
Q 83.35 311.8 91.4 311.4
L 91.45 311.4
Q 91.55 311.4 91.65 311.4 102.45 313.1 98.35 306.55
L 98.35 306.5
Q 96.8 303.2 95.25 298.55 94.45 296.25 94.05 294.9
L 94.1 294.9
Q 93.7 293.5 93.65 293.05 93.65 292.4 93.5 292 93.5 291.95 93.5 291.9 93.6 291.75 94.45 290.15
M 92.7 288.55
Q 92.9 288.8 92.7 289.25
L 92.65 289.25
Q 91.15 292.15 91.65 292.7 91.65 292.85 91.65 293.05 91.6 293.6 92.15 295.45 92.55 296.85 93.35 299.2 94.95 304.05 96.55 307.4 96.8 307.95 96.5 308.35
L 96.5 308.4
Q 95.25 309.25 91.4 309.4
L 91.3 309.4
Q 83.2 309.8 69.2 311.4 55.35 312.95 32.65 312.6 9.85 312.2 -24.85 311.45
L -24.9 311.45
Q -27.8 311.5 -30.75 311.55 -31.15 309.9 -29.75 304.05 -28.75 299.45 -27 297.1 -26.45 296.3 -25.75 295.8 -25.5 295.6 -24.25 295.45 -23.05 295.25 -23.1 295 -23.2 294.7 -24.8 294.15 -26.4 293.6 -26.9 293.1
L -26.9 293.15
Q -27.6 292.45 -27.85 292.1 -27.35 291.85 -26.25 292.15 -23.95 292.65 -18.35 293.45 -12.8 294.25 0.45 294.5 7.15 294.6 13.9 294.8 29.2 294.8 57.85 291.95 85.8 289.15 90.7 287.8 92.15 288.05 92.7 288.55 Z"/>

<path fill="#AA5500" stroke="none" d="
M 69.45 313.4
L 69.4 313.4
Q 55.45 314.95 32.6 314.6 9.85 314.2 -24.85 313.45 -24.8 314.35 -24.75 315.3 -2 320 24.05 317.65 50.05 315.25 69.45 316.95 88.85 318.6 91.35 313.25
L 91.4 313.25
Q 91.75 313.25 92.1 313.25 92.1 313.1 92.05 313 91.85 312.15 91.65 311.4 91.55 311.4 91.45 311.4
L 91.4 311.4
Q 83.35 311.8 69.45 313.4 Z"/>

<path fill="#DC842C" stroke="none" d="
M 92.7 289.25
Q 92.9 288.8 92.7 288.55 92.15 288.05 90.7 287.8 85.8 289.15 57.85 291.95 29.2 294.8 13.9 294.8 7.15 294.6 0.45 294.5 -12.8 294.25 -18.35 293.45 -23.95 292.65 -26.25 292.15 -27.35 291.85 -27.85 292.1 -27.6 292.45 -26.9 293.15
L -26.9 293.1
Q -26.4 293.6 -24.8 294.15 -23.2 294.7 -23.1 295 -23.05 295.25 -24.25 295.45 -25.5 295.6 -25.75 295.8 -26.45 296.3 -27 297.1 -28.75 299.45 -29.75 304.05 -31.15 309.9 -30.75 311.55 -27.8 311.5 -24.9 311.45
L -24.85 311.45
Q 9.85 312.2 32.65 312.6 55.35 312.95 69.2 311.4 83.2 309.8 91.3 309.4
L 91.4 309.4
Q 95.25 309.25 96.5 308.4
L 96.5 308.35
Q 96.8 307.95 96.55 307.4 94.95 304.05 93.35 299.2 92.55 296.85 92.15 295.45 91.6 293.6 91.65 293.05 91.65 292.85 91.65 292.7 91.15 292.15 92.65 289.25
L 92.7 289.25 Z"/>
</g>

<g id="Symbol_41_0_Layer0_2_MEMBER_0_FILL">
<path fill="#AA5500" stroke="none" d="
M 39.65 344.6
Q 33.3494140625 342.1953125 31 342.45 28.694140625 342.758203125 25.05 346.95 23.7365234375 348.4609375 22.95 349.1 23.4154296875 350.0716796875 24.3 350.65 25.7525390625 351.5525390625 25.35 351.05 24.941796875 350.5423828125 25.65 349.75 26.35859375 348.9587890625 35.8 349.55 45.2908203125 350.139453125 61.3 344.25 46.005859375 347.00859375 39.65 344.6 Z"/>
</g>

<g id="Symbol_41_0_Layer0_2_MEMBER_1_FILL">
<path fill="#AA5500" stroke="none" d="
M 131.3 321.9
Q 131.940234375 310.5923828125 126.45 297.95 129.5435546875 309.1705078125 128.3 310.95 124.36171875 316.578125 125 324.1 125.690234375 331.6626953125 125.95 332.65 126.254296875 333.6955078125 125.55 334.5 124.6 335.55 124.35 337.45 123.9 340.35 125.35 342 126.448046875 343.35078125 130.6 347.7 134.761328125 352.0916015625 133.85 349.2 132.977734375 346.369140625 131.7 342.4 130.4287109375 338.471875 131.3 321.9 Z"/>
</g>

<g id="Symbol_41_0_Layer0_2_MEMBER_2_FILL">
<path fill="#AA5500" stroke="none" d="
M 70.9 350.4
Q 50.721875 351.139453125 60.7 353.6 70.666015625 356.110546875 80.95 355.75 91.2953125 355.398828125 95.8 355.3 100.3560546875 355.1990234375 106.85 354.7 113.3892578125 354.2451171875 113.6 354.75 113.8087890625 355.305859375 118.95 354.2 124.097265625 353.0978515625 125.2 352.2 126.3677734375 351.280078125 126.65 349.95 124.075390625 350.757421875 116.9 350.9 102.79140625 351.255859375 98.75 349.8 94.70390625 348.34765625 94.1 348.45 92.8 348.55 91.95 349.1 91.0900390625 349.65078125 70.9 350.4 Z"/>
</g>

<g id="Symbol_41_0_Layer0_2_MEMBER_3_FILL">
<path fill="#AA5500" stroke="none" d="
M 23.55 314.45
Q 23.4939453125 313.646875 23.1 312 22.7681640625 310.408984375 20.3 305.65 17.8818359375 300.9408203125 17.85 305.55 17.8060546875 310.1529296875 17.05 310.8 15.35 312.2 15.45 315.3 15.45 316.15 15.7 317.8 15.9 319.45 15.9 320.25 15.95 320.75 15.95 321.7 15.95 322.55 16.1 323.15 16.301171875 323.846484375 16.85 325.1 17.39609375 326.360546875 19.95 335.3 22.5068359375 344.2404296875 21.4 338.05 20.2892578125 331.850390625 21.6 332.6 16.762109375 315.3841796875 20.15 315.15 23.5458984375 314.9052734375 23.55 314.45 Z"/>
</g>

<g id="Symbol_41_0_Layer0_2_MEMBER_4_FILL">
<path fill="#C26F1C" stroke="none" d="
M 113.1 278.9
Q 137.3982421875 273.9501953125 124.5 275.85 111.6513671875 277.8009765625 74.65 279.8 37.6384765625 281.855859375 28.4 279.25 19.200390625 276.687890625 18.25 276.75 16.9 276.85 15.8 277.8 14.7 278.75 14.5 280.1 14.2 281.9 11.15 286.7 16.75 284.85 18.7 284.75 19.95 284.75078125 26.15 284.2 26.8529296875 284.165234375 28 284.1 36.9779296875 283.7091796875 73.15 283.8 88.811328125 283.8419921875 113.1 278.9 Z"/>
</g>

<g id="Option_bg_5_Layer1_0_FILL">
<path fill="#666666" stroke="none" d="
M 258.95 -156.75
Q 246.5 -210.8 226.35 -220.85
L -294.4 -220.85
Q -314.55 -210.8 -327 -156.75
L 258.95 -156.75 Z"/>
</g>

<g id="Option_bg_5_Layer1_1_FILL">
<path fill="#666666" stroke="none" d="
M 2.2 -94.75
L 2.2 -124.35 -20.05 -124.35 -20.05 -94.75 2.2 -94.75 Z"/>
</g>

<g id="Option_bg_5_Layer1_2_FILL">
<path fill="#666666" stroke="none" d="
M 2.2 -94.75
L 2.2 -124.35 -20.05 -124.35 -20.05 -94.75 2.2 -94.75 Z"/>
</g>

<g id="Option_bg_5_Layer1_3_FILL">
<path fill="#666666" stroke="none" d="
M 200.85 -222
L 200.75 -222.25 153.8 -222.25 153.85 -222 97.4 -222 97.35 -222.25 50.4 -222.25 50.45 -222 -14.6 -222 -14.6 -222.25 -61.55 -222.25 -61.55 -222 -117.5 -222 -117.45 -222.25 -164.4 -222.25 -164.45 -222 -220.9 -222 -220.8 -222.25 -267.75 -222.25 -267.85 -222 -295.45 -222
Q -315.6 -214.95 -328.05 -177 -307.2662109375 -152.5365234375 -283.8 -177 -255.7287109375 -155.250390625 -232.7 -177 -209.113671875 -152.3623046875 -173.3 -177 -147.8775390625 -156.750390625 -126.9 -177 -94.0625 -150.4896484375 -61.25 -177 -38.001171875 -158.9501953125 -14.95 -177 22.5 -151.0130859375 59.9 -177 80.88359375 -161.1501953125 106.15 -177 135.925 -156.4537109375 165.7 -177 191.200390625 -155.200390625 216.8 -177 237.35 -160.69453125 257.9 -177 245.45 -214.95 225.3 -222
L 200.85 -222 Z"/>
</g>

<g id="Option_bg_5_Layer1_4_FILL">
<path fill="#666666" stroke="none" d="
M 2.2 -94.75
L 2.2 -124.35 -20.05 -124.35 -20.05 -94.75 2.2 -94.75 Z"/>
</g>

<g id="Option_bg_5_Layer1_5_FILL">
<path fill="#666666" stroke="none" d="
M 4.45 -94.75
L 2.2 -124.35 -20.05 -124.35 -20.05 -94.75 4.45 -94.75 Z"/>
</g>

<g id="Option_bg_5_Layer1_6_FILL">
<path fill="#FAD9B7" stroke="none" d="
M 2.2 -94.75
L 2.2 -124.35 -20.05 -124.35 -20.05 -94.75
Q -8.925 -82.5568359375 2.2 -94.75 Z"/>
</g>

<g id="Option_bg_5_Layer1_7_FILL">
<path fill="#FAD9B7" stroke="none" d="
M 2.2 -94.75
L 2.2 -124.35 -20.05 -124.35 -20.05 -94.75
Q -5.8732421875 -81.0779296875 2.2 -94.75 Z"/>
</g>

<g id="Option_bg_5_Layer1_8_FILL">
<path fill="#FAD9B7" stroke="none" d="
M -220.8 -222.25
L -267.75 -222.25 -284.1 -177.25
Q -255.7 -155 -232.4 -177.25
L -220.8 -222.25 Z"/>
</g>

<g id="Option_bg_5_Layer1_9_FILL">
<path fill="#FAD9B7" stroke="none" d="
M 2.2 -94.75
L 2.2 -124.35 -20.05 -124.35 -20.05 -94.75
Q -6.279296875 -84.0029296875 2.2 -94.75 Z"/>
</g>

<g id="Option_bg_5_Layer1_10_FILL">
<path fill="#FAD9B7" stroke="none" d="
M 4.45 -94.75
L 2.2 -124.35 -20.05 -124.35 -20.05 -94.75
Q -3.9625 -80.091796875 4.45 -94.75 Z"/>
</g>

<path id="Symbol_42_0_Layer0_9_MEMBER_0_1_STROKES" stroke="#CC6600" stroke-width="0.1" stroke-linejoin="round" stroke-linecap="round" fill="none" d="
M -347.25 261.3
L -212.35 261.3
Q -207.35 261.3 -207.35 266.3
L -207.35 284.8
Q -207.35 289.8 -212.35 289.8
L -347.25 289.8
Q -352.25 289.8 -352.25 284.8
L -352.25 266.3
Q -352.25 261.3 -347.25 261.3 Z"/>

<path id="Symbol_42_0_Layer0_9_MEMBER_1_1_STROKES" stroke="#CC6600" stroke-width="0.1" stroke-linejoin="round" stroke-linecap="round" fill="none" d="
M -347.25 261.3
L -212.35 261.3
Q -207.35 261.3 -207.35 266.3
L -207.35 284.8
Q -207.35 289.8 -212.35 289.8
L -347.25 289.8
Q -352.25 289.8 -352.25 284.8
L -352.25 266.3
Q -352.25 261.3 -347.25 261.3 Z"/>

<path id="Symbol_42_0_Layer0_9_MEMBER_2_1_STROKES" stroke="#CC6600" stroke-width="0.1" stroke-linejoin="round" stroke-linecap="round" fill="none" d="
M -347.25 261.3
L -212.35 261.3
Q -207.35 261.3 -207.35 266.3
L -207.35 284.8
Q -207.35 289.8 -212.35 289.8
L -347.25 289.8
Q -352.25 289.8 -352.25 284.8
L -352.25 266.3
Q -352.25 261.3 -347.25 261.3 Z"/>

<path id="Symbol_38_0_Layer0_0_1_STROKES" stroke="#CC6600" stroke-width="0.1" stroke-linejoin="round" stroke-linecap="round" fill="none" d="
M -347.25 261.3
L -212.35 261.3
Q -207.35 261.3 -207.35 266.3
L -207.35 284.8
Q -207.35 289.8 -212.35 289.8
L -347.25 289.8
Q -352.25 289.8 -352.25 284.8
L -352.25 266.3
Q -352.25 261.3 -347.25 261.3 Z"/>

<path id="Option_bg_5_Layer6_0_1_STROKES" stroke="#666666" stroke-width="15" stroke-linejoin="round" stroke-linecap="round" fill="none" d="
M -283.7 -209.2
L 216.2 -209.2
Q 226.55 -209.2 233.85 -201.9 241.2 -194.55 241.2 -184.2
L 241.2 155.1
Q 241.2 165.45 233.85 172.75 226.55 180.1 216.2 180.1
L -283.7 180.1
Q -294.05 180.1 -301.4 172.75 -308.7 165.45 -308.7 155.1
L -308.7 -184.2
Q -308.7 -194.5 -301.4 -201.9 -294 -209.2 -283.7 -209.2 Z"/>

<path id="Duplicate_Items_Folder_Symbol_1_copy_0_Layer0_0_1_STROKES" stroke="#666666" stroke-width="1" stroke-linejoin="round" stroke-linecap="round" fill="none" d="
M 0 -30.1
L 0 31.95"/>

<path id="Duplicate_Items_Folder_Symbol_1_copy_0_Layer0_1_1_STROKES" stroke="#666666" stroke-width="1" stroke-linejoin="round" stroke-linecap="round" fill="none" d="
M 31 0.9
L -31.05 0.9"/>

<path id="Duplicate_Items_Folder_Symbol_1_copy_0_Layer0_2_1_STROKES" stroke="#666666" stroke-width="1" stroke-linejoin="round" stroke-linecap="round" fill="none" d="
M 15.399081420898439 -25.867437744140627
L -15.624024963378906 27.869589233398436"/>

<path id="Duplicate_Items_Folder_Symbol_1_copy_0_Layer0_3_1_STROKES" stroke="#666666" stroke-width="1" stroke-linejoin="round" stroke-linecap="round" fill="none" d="
M 26.717437744140625 16.449081420898438
L -27.019589233398438 -14.574024963378905"/>

<path id="Duplicate_Items_Folder_Symbol_1_copy_0_Layer0_4_1_STROKES" stroke="#666666" stroke-width="1" stroke-linejoin="round" stroke-linecap="round" fill="none" d="
M 26.71605987548828 -14.500459289550781
L -27.018126678466796 16.525487518310545"/>

<path id="Duplicate_Items_Folder_Symbol_1_copy_0_Layer0_5_1_STROKES" stroke="#666666" stroke-width="1" stroke-linejoin="round" stroke-linecap="round" fill="none" d="
M 15.350459289550782 27.816059875488282
L -15.675487518310545 -25.918126678466795"/>

<path id="Duplicate_Items_Folder_Symbol_1_copy_0_Layer0_6_1_STROKES" stroke="#333333" stroke-width="7" stroke-linejoin="round" stroke-linecap="round" fill="none" d="
M 31.65 0
Q 31.65 13.1 22.35 22.35 13.1 31.65 0 31.65 -13.1 31.65 -22.4 22.35 -31.65 13.1 -31.65 0 -31.65 -13.1 -22.4 -22.4 -13.1 -31.65 0 -31.65 13.1 -31.65 22.35 -22.4 31.65 -13.1 31.65 0 Z"/>
</defs>

<g id="Layer_1">
<g transform="matrix( 0.6249847412109375, 0, 0, 0.6249847412109375, 221.05,223.2) ">
<g id="Layer_7">
<g transform="matrix( 1.06793212890625, 0, 0, 1, -17.85,30.6) ">
<use xlink:href="#Option_bg_5_Layer9_0_FILL"/>
</g>
</g>

<g id="Layer_9"/>

<g id="Layer_8">
<g filter="url(#Filter_1)" transform="matrix( 1.60003662109375, 0, 0, 1.60003662109375, -353.65,-357.1) ">
<g transform="matrix( 0.6249847412109375, 0, 0, 0.6249847412109375, 62.5,406.4) ">
<g transform="matrix( 0.7079620361328125, -0.1896820068359375, 0.1896820068359375, 0.7079620361328125, -44.8,-34.8) ">
<g transform="matrix( 1.95550537109375, 0, 0, 1.95550537109375, -60,-34.4) ">
<use xlink:href="#Symbol_39_0_Layer0_0_FILL"/>
</g>

<g transform="matrix( 1.95550537109375, 0, 0, 1.95550537109375, -60,-34.4) ">
<use xlink:href="#Symbol_39_0_Layer0_1_FILL"/>
</g>

<g transform="matrix( 1.95550537109375, 0, 0, 1.95550537109375, -60,-34.4) ">
<use xlink:href="#Symbol_39_0_Layer0_2_FILL"/>
</g>

<g transform="matrix( 1.95550537109375, 0, 0, 1.95550537109375, -60,-34.4) ">
<use xlink:href="#Symbol_39_0_Layer0_3_FILL"/>
</g>
</g>

<g transform="matrix( 0.6347198486328125, 0.366455078125, -0.366455078125, 0.6347198486328125, 4.6,-31.7) ">
<g transform="matrix( 1.95550537109375, 0, 0, 1.95550537109375, -60,-34.4) ">
<use filter="url(#Filter_2)" xlink:href="#Symbol_39_0_Layer0_0_FILL"/>
</g>

<g transform="matrix( 1.95550537109375, 0, 0, 1.95550537109375, -60,-34.4) ">
<use filter="url(#Filter_2)" xlink:href="#Symbol_39_0_Layer0_1_FILL"/>
</g>

<g transform="matrix( 1.95550537109375, 0, 0, 1.95550537109375, -60,-34.4) ">
<use filter="url(#Filter_2)" xlink:href="#Symbol_39_0_Layer0_2_FILL"/>
</g>

<g transform="matrix( 1.95550537109375, 0, 0, 1.95550537109375, -60,-34.4) ">
<use filter="url(#Filter_2)" xlink:href="#Symbol_39_0_Layer0_3_FILL"/>
</g>
</g>

<g transform="matrix( 0.6347198486328125, 0.366455078125, -0.366455078125, 0.6347198486328125, -41.1,3.8) ">
<g transform="matrix( 1.95550537109375, 0, 0, 1.95550537109375, -60,-34.4) ">
<use xlink:href="#Symbol_39_0_Layer0_0_FILL"/>
</g>

<g transform="matrix( 1.95550537109375, 0, 0, 1.95550537109375, -60,-34.4) ">
<use xlink:href="#Symbol_39_0_Layer0_1_FILL"/>
</g>

<g transform="matrix( 1.95550537109375, 0, 0, 1.95550537109375, -60,-34.4) ">
<use xlink:href="#Symbol_39_0_Layer0_2_FILL"/>
</g>

<g transform="matrix( 1.95550537109375, 0, 0, 1.95550537109375, -60,-34.4) ">
<use xlink:href="#Symbol_39_0_Layer0_3_FILL"/>
</g>
</g>

<g transform="matrix( 0.6347198486328125, 0.366455078125, -0.366455078125, 0.6347198486328125, -37.85,37.95) ">
<g transform="matrix( 1.95550537109375, 0, 0, 1.95550537109375, -60,-34.4) ">
<use xlink:href="#Symbol_39_0_Layer0_0_FILL"/>
</g>

<g transform="matrix( 1.95550537109375, 0, 0, 1.95550537109375, -60,-34.4) ">
<use xlink:href="#Symbol_39_0_Layer0_1_FILL"/>
</g>

<g transform="matrix( 1.95550537109375, 0, 0, 1.95550537109375, -60,-34.4) ">
<use xlink:href="#Symbol_39_0_Layer0_2_FILL"/>
</g>

<g transform="matrix( 1.95550537109375, 0, 0, 1.95550537109375, -60,-34.4) ">
<use xlink:href="#Symbol_39_0_Layer0_3_FILL"/>
</g>
</g>

<g transform="matrix( 0.5874176025390625, -0.4382781982421875, 0.4382781982421875, 0.5874176025390625, -11.8,9.6) ">
<g transform="matrix( 1.95550537109375, 0, 0, 1.95550537109375, -60,-34.4) ">
<use xlink:href="#Symbol_39_0_Layer0_0_FILL"/>
</g>

<g transform="matrix( 1.95550537109375, 0, 0, 1.95550537109375, -60,-34.4) ">
<use xlink:href="#Symbol_39_0_Layer0_1_FILL"/>
</g>

<g transform="matrix( 1.95550537109375, 0, 0, 1.95550537109375, -60,-34.4) ">
<use xlink:href="#Symbol_39_0_Layer0_2_FILL"/>
</g>

<g transform="matrix( 1.95550537109375, 0, 0, 1.95550537109375, -60,-34.4) ">
<use xlink:href="#Symbol_39_0_Layer0_3_FILL"/>
</g>
</g>

<g transform="matrix( 0.5874176025390625, -0.4382781982421875, 0.4382781982421875, 0.5874176025390625, -0.5,37.3) ">
<g transform="matrix( 1.95550537109375, 0, 0, 1.95550537109375, -60,-34.4) ">
<use xlink:href="#Symbol_39_0_Layer0_0_FILL"/>
</g>

<g transform="matrix( 1.95550537109375, 0, 0, 1.95550537109375, -60,-34.4) ">
<use xlink:href="#Symbol_39_0_Layer0_1_FILL"/>
</g>

<g transform="matrix( 1.95550537109375, 0, 0, 1.95550537109375, -60,-34.4) ">
<use xlink:href="#Symbol_39_0_Layer0_2_FILL"/>
</g>

<g transform="matrix( 1.95550537109375, 0, 0, 1.95550537109375, -60,-34.4) ">
<use xlink:href="#Symbol_39_0_Layer0_3_FILL"/>
</g>
</g>

<g transform="matrix( 0.7252655029296875, 0.105438232421875, -0.105438232421875, 0.7252655029296875, 35.6,-3.45) ">
<g transform="matrix( 1.95550537109375, 0, 0, 1.95550537109375, -60,-34.4) ">
<use xlink:href="#Symbol_39_0_Layer0_0_FILL"/>
</g>

<g transform="matrix( 1.95550537109375, 0, 0, 1.95550537109375, -60,-34.4) ">
<use xlink:href="#Symbol_39_0_Layer0_1_FILL"/>
</g>

<g transform="matrix( 1.95550537109375, 0, 0, 1.95550537109375, -60,-34.4) ">
<use xlink:href="#Symbol_39_0_Layer0_2_FILL"/>
</g>

<g transform="matrix( 1.95550537109375, 0, 0, 1.95550537109375, -60,-34.4) ">
<use xlink:href="#Symbol_39_0_Layer0_3_FILL"/>
</g>
</g>

<g transform="matrix( 0.6347198486328125, 0.366455078125, -0.366455078125, 0.6347198486328125, 47.3,-31.7) ">
<g transform="matrix( 1.95550537109375, 0, 0, 1.95550537109375, -60,-34.4) ">
<use xlink:href="#Symbol_39_0_Layer0_0_FILL"/>
</g>

<g transform="matrix( 1.95550537109375, 0, 0, 1.95550537109375, -60,-34.4) ">
<use xlink:href="#Symbol_39_0_Layer0_1_FILL"/>
</g>

<g transform="matrix( 1.95550537109375, 0, 0, 1.95550537109375, -60,-34.4) ">
<use xlink:href="#Symbol_39_0_Layer0_2_FILL"/>
</g>

<g transform="matrix( 1.95550537109375, 0, 0, 1.95550537109375, -60,-34.4) ">
<use xlink:href="#Symbol_39_0_Layer0_3_FILL"/>
</g>
</g>

<g transform="matrix( 0.7252655029296875, 0.105438232421875, -0.105438232421875, 0.7252655029296875, 46,26.15) ">
<g transform="matrix( 1.95550537109375, 0, 0, 1.95550537109375, -60,-34.4) ">
<use xlink:href="#Symbol_39_0_Layer0_0_FILL"/>
</g>

<g transform="matrix( 1.95550537109375, 0, 0, 1.95550537109375, -60,-34.4) ">
<use xlink:href="#Symbol_39_0_Layer0_1_FILL"/>
</g>

<g transform="matrix( 1.95550537109375, 0, 0, 1.95550537109375, -60,-34.4) ">
<use xlink:href="#Symbol_39_0_Layer0_2_FILL"/>
</g>

<g transform="matrix( 1.95550537109375, 0, 0, 1.95550537109375, -60,-34.4) ">
<use xlink:href="#Symbol_39_0_Layer0_3_FILL"/>
</g>
</g>

<g transform="matrix( 1, 0, 0, 1, 281.15,-282.9) ">
<use xlink:href="#Symbol_42_0_Layer0_9_MEMBER_0_FILL"/>

<use xlink:href="#Symbol_42_0_Layer0_9_MEMBER_0_1_STROKES"/>
</g>

<g transform="matrix( 1, 0, 0, 1, 281.15,-252.15) ">
<use xlink:href="#Symbol_42_0_Layer0_9_MEMBER_1_FILL"/>

<use xlink:href="#Symbol_42_0_Layer0_9_MEMBER_1_1_STROKES"/>
</g>

<g transform="matrix( 1, 0, 0, 1, 281.15,-220.35) ">
<use xlink:href="#Symbol_42_0_Layer0_9_MEMBER_2_FILL"/>

<use xlink:href="#Symbol_42_0_Layer0_9_MEMBER_2_1_STROKES"/>
</g>

<g transform="matrix( 0, 0.71282958984375, -0.71282958984375, 0, -40.15,17.85) ">
<g transform="matrix( 1, 0, 0, 1, 279.8,-275.55) ">
<use xlink:href="#Symbol_38_0_Layer0_0_FILL"/>

<use xlink:href="#Symbol_38_0_Layer0_0_1_STROKES"/>
</g>

<g transform="matrix( 1, 0, 0, 1, 0,0) ">
<use xlink:href="#Symbol_38_0_Layer0_1_FILL"/>
</g>

<g transform="matrix( 1, 0, 0, 1, 0,0) ">
<use xlink:href="#Symbol_38_0_Layer0_2_FILL"/>
</g>

<g transform="matrix( 1, 0, 0, 1, 0,0) ">
<use xlink:href="#Symbol_38_0_Layer0_3_FILL"/>
</g>
</g>

<g transform="matrix( 0, 0.71282958984375, -0.71282958984375, 0, 43.85,17.85) ">
<g transform="matrix( 1, 0, 0, 1, 279.8,-275.55) ">
<use xlink:href="#Symbol_38_0_Layer0_0_FILL"/>

<use xlink:href="#Symbol_38_0_Layer0_0_1_STROKES"/>
</g>

<g transform="matrix( 1, 0, 0, 1, 0,0) ">
<use xlink:href="#Symbol_38_0_Layer0_1_FILL"/>
</g>

<g transform="matrix( 1, 0, 0, 1, 0,0) ">
<use xlink:href="#Symbol_38_0_Layer0_2_FILL"/>
</g>

<g transform="matrix( 1, 0, 0, 1, 0,0) ">
<use xlink:href="#Symbol_38_0_Layer0_3_FILL"/>
</g>
</g>
</g>
</g>
</g>

<g id="flash0_ai">
<g transform="matrix( 1, 0, 0, 1, 0,0) ">
<use xlink:href="#Option_bg_5_Layer6_0_FILL"/>

<use xlink:href="#Option_bg_5_Layer6_0_1_STROKES"/>
</g>
</g>

<g id="Layer_3">
<g transform="matrix( 1.0999755859375, 0, 0, 1.0999755859375, 2.95,-9.25) ">
<use xlink:href="#Option_bg_5_Layer5_0_FILL"/>
</g>

<g transform="matrix( 1.0999755859375, 0, 0, 1.0999755859375, 2.95,-9.25) ">
<use xlink:href="#Option_bg_5_Layer5_1_FILL"/>
</g>

<g transform="matrix( 2.1669921875, 0, 0, 2.1669921875, -167.85,292.9) ">
<g transform="matrix( 1, 0, 0, 1, 0,0) ">
<use xlink:href="#Duplicate_Items_Folder_Symbol_1_copy_0_Layer0_0_1_STROKES"/>
</g>

<g transform="matrix( 0, 1, -1, 0, 0.9,0.9) ">
<use xlink:href="#Duplicate_Items_Folder_Symbol_1_copy_0_Layer0_1_1_STROKES" transform="matrix( 0, -1, 1, 0, -0.9,0.9) "/>
</g>

<g transform="matrix( 0.86602783203125, 0.499969482421875, -0.499969482421875, 0.86602783203125, 0.35,0.2) ">
<use xlink:href="#Duplicate_Items_Folder_Symbol_1_copy_0_Layer0_2_1_STROKES" transform="matrix( 0.8660430908203125, -0.499969482421875, 0.499969482421875, 0.8660430908203125, -0.4,0) "/>
</g>

<g transform="matrix( -0.499969482421875, 0.86602783203125, -0.86602783203125, -0.499969482421875, 0.65,1.4) ">
<use xlink:href="#Duplicate_Items_Folder_Symbol_1_copy_0_Layer0_3_1_STROKES" transform="matrix( -0.499969482421875, -0.8660430908203125, 0.8660430908203125, -0.499969482421875, -0.85,1.25) "/>
</g>

<g transform="matrix( 0.5000152587890625, 0.8659820556640625, -0.8659820556640625, 0.5000152587890625, 0.65,0.55) ">
<use xlink:href="#Duplicate_Items_Folder_Symbol_1_copy_0_Layer0_4_1_STROKES" transform="matrix( 0.500030517578125, -0.86602783203125, 0.86602783203125, 0.500030517578125, -0.8,0.25) "/>
</g>

<g transform="matrix( -0.8659820556640625, 0.5000152587890625, -0.5000152587890625, -0.8659820556640625, 0.3,1.75) ">
<use xlink:href="#Duplicate_Items_Folder_Symbol_1_copy_0_Layer0_5_1_STROKES" transform="matrix( -0.86602783203125, -0.500030517578125, 0.500030517578125, -0.86602783203125, -0.6,1.65) "/>
</g>

<g transform="matrix( 1, 0, 0, 1, 0,0) ">
<use xlink:href="#Duplicate_Items_Folder_Symbol_1_copy_0_Layer0_6_1_STROKES"/>
</g>

<g transform="matrix( 1.2884521484375, 0, 0, 1.2884521484375, -45.75,54.05) ">
<use xlink:href="#Duplicate_Items_Folder_Symbol_1_copy_0_Layer0_7_FILL"/>
</g>
</g>

<g transform="matrix( 2.1669921875, 0, 0, 2.1669921875, 90.55,292.9) ">
<g transform="matrix( 1, 0, 0, 1, 0,0) ">
<use xlink:href="#Duplicate_Items_Folder_Symbol_1_copy_0_Layer0_0_1_STROKES"/>
</g>

<g transform="matrix( 0, 1, -1, 0, 0.9,0.9) ">
<use xlink:href="#Duplicate_Items_Folder_Symbol_1_copy_0_Layer0_1_1_STROKES" transform="matrix( 0, -1, 1, 0, -0.9,0.9) "/>
</g>

<g transform="matrix( 0.86602783203125, 0.499969482421875, -0.499969482421875, 0.86602783203125, 0.35,0.2) ">
<use xlink:href="#Duplicate_Items_Folder_Symbol_1_copy_0_Layer0_2_1_STROKES" transform="matrix( 0.8660430908203125, -0.499969482421875, 0.499969482421875, 0.8660430908203125, -0.4,0) "/>
</g>

<g transform="matrix( -0.499969482421875, 0.86602783203125, -0.86602783203125, -0.499969482421875, 0.65,1.4) ">
<use xlink:href="#Duplicate_Items_Folder_Symbol_1_copy_0_Layer0_3_1_STROKES" transform="matrix( -0.499969482421875, -0.8660430908203125, 0.8660430908203125, -0.499969482421875, -0.85,1.25) "/>
</g>

<g transform="matrix( 0.5000152587890625, 0.8659820556640625, -0.8659820556640625, 0.5000152587890625, 0.65,0.55) ">
<use xlink:href="#Duplicate_Items_Folder_Symbol_1_copy_0_Layer0_4_1_STROKES" transform="matrix( 0.500030517578125, -0.86602783203125, 0.86602783203125, 0.500030517578125, -0.8,0.25) "/>
</g>

<g transform="matrix( -0.8659820556640625, 0.5000152587890625, -0.5000152587890625, -0.8659820556640625, 0.3,1.75) ">
<use xlink:href="#Duplicate_Items_Folder_Symbol_1_copy_0_Layer0_5_1_STROKES" transform="matrix( -0.86602783203125, -0.500030517578125, 0.500030517578125, -0.86602783203125, -0.6,1.65) "/>
</g>

<g transform="matrix( 1, 0, 0, 1, 0,0) ">
<use xlink:href="#Duplicate_Items_Folder_Symbol_1_copy_0_Layer0_6_1_STROKES"/>
</g>

<g transform="matrix( 1.2884521484375, 0, 0, 1.2884521484375, -45.75,54.05) ">
<use xlink:href="#Duplicate_Items_Folder_Symbol_1_copy_0_Layer0_7_FILL"/>
</g>
</g>
</g>

<g id="Layer_10">
<g filter="url(#Filter_1)" transform="matrix( 1.60003662109375, 0, 0, 1.60003662109375, -353.65,-357.1) ">
<g transform="matrix( 0.6249847412109375, 0, 0, 0.6249847412109375, 295,419.05) ">
<g transform="matrix( 0.7079620361328125, -0.1896820068359375, 0.1896820068359375, 0.7079620361328125, -44.8,-34.8) ">
<g transform="matrix( 1.95550537109375, 0, 0, 1.95550537109375, -60,-34.4) ">
<use xlink:href="#Symbol_39_0_Layer0_0_FILL"/>
</g>

<g transform="matrix( 1.95550537109375, 0, 0, 1.95550537109375, -60,-34.4) ">
<use xlink:href="#Symbol_39_0_Layer0_1_FILL"/>
</g>

<g transform="matrix( 1.95550537109375, 0, 0, 1.95550537109375, -60,-34.4) ">
<use xlink:href="#Symbol_39_0_Layer0_2_FILL"/>
</g>

<g transform="matrix( 1.95550537109375, 0, 0, 1.95550537109375, -60,-34.4) ">
<use xlink:href="#Symbol_39_0_Layer0_3_FILL"/>
</g>
</g>

<g transform="matrix( 0.6347198486328125, 0.366455078125, -0.366455078125, 0.6347198486328125, 4.6,-31.7) ">
<g transform="matrix( 1.95550537109375, 0, 0, 1.95550537109375, -60,-34.4) ">
<use filter="url(#Filter_2)" xlink:href="#Symbol_39_0_Layer0_0_FILL"/>
</g>

<g transform="matrix( 1.95550537109375, 0, 0, 1.95550537109375, -60,-34.4) ">
<use filter="url(#Filter_2)" xlink:href="#Symbol_39_0_Layer0_1_FILL"/>
</g>

<g transform="matrix( 1.95550537109375, 0, 0, 1.95550537109375, -60,-34.4) ">
<use filter="url(#Filter_2)" xlink:href="#Symbol_39_0_Layer0_2_FILL"/>
</g>

<g transform="matrix( 1.95550537109375, 0, 0, 1.95550537109375, -60,-34.4) ">
<use filter="url(#Filter_2)" xlink:href="#Symbol_39_0_Layer0_3_FILL"/>
</g>
</g>

<g transform="matrix( 0.6347198486328125, 0.366455078125, -0.366455078125, 0.6347198486328125, -41.1,3.8) ">
<g transform="matrix( 1.95550537109375, 0, 0, 1.95550537109375, -60,-34.4) ">
<use xlink:href="#Symbol_39_0_Layer0_0_FILL"/>
</g>

<g transform="matrix( 1.95550537109375, 0, 0, 1.95550537109375, -60,-34.4) ">
<use xlink:href="#Symbol_39_0_Layer0_1_FILL"/>
</g>

<g transform="matrix( 1.95550537109375, 0, 0, 1.95550537109375, -60,-34.4) ">
<use xlink:href="#Symbol_39_0_Layer0_2_FILL"/>
</g>

<g transform="matrix( 1.95550537109375, 0, 0, 1.95550537109375, -60,-34.4) ">
<use xlink:href="#Symbol_39_0_Layer0_3_FILL"/>
</g>
</g>

<g transform="matrix( 0.6347198486328125, 0.366455078125, -0.366455078125, 0.6347198486328125, -37.85,37.95) ">
<g transform="matrix( 1.95550537109375, 0, 0, 1.95550537109375, -60,-34.4) ">
<use xlink:href="#Symbol_39_0_Layer0_0_FILL"/>
</g>

<g transform="matrix( 1.95550537109375, 0, 0, 1.95550537109375, -60,-34.4) ">
<use xlink:href="#Symbol_39_0_Layer0_1_FILL"/>
</g>

<g transform="matrix( 1.95550537109375, 0, 0, 1.95550537109375, -60,-34.4) ">
<use xlink:href="#Symbol_39_0_Layer0_2_FILL"/>
</g>

<g transform="matrix( 1.95550537109375, 0, 0, 1.95550537109375, -60,-34.4) ">
<use xlink:href="#Symbol_39_0_Layer0_3_FILL"/>
</g>
</g>

<g transform="matrix( 0.5874176025390625, -0.4382781982421875, 0.4382781982421875, 0.5874176025390625, -11.8,9.6) ">
<g transform="matrix( 1.95550537109375, 0, 0, 1.95550537109375, -60,-34.4) ">
<use xlink:href="#Symbol_39_0_Layer0_0_FILL"/>
</g>

<g transform="matrix( 1.95550537109375, 0, 0, 1.95550537109375, -60,-34.4) ">
<use xlink:href="#Symbol_39_0_Layer0_1_FILL"/>
</g>

<g transform="matrix( 1.95550537109375, 0, 0, 1.95550537109375, -60,-34.4) ">
<use xlink:href="#Symbol_39_0_Layer0_2_FILL"/>
</g>

<g transform="matrix( 1.95550537109375, 0, 0, 1.95550537109375, -60,-34.4) ">
<use xlink:href="#Symbol_39_0_Layer0_3_FILL"/>
</g>
</g>

<g transform="matrix( 0.5874176025390625, -0.4382781982421875, 0.4382781982421875, 0.5874176025390625, -0.5,37.3) ">
<g transform="matrix( 1.95550537109375, 0, 0, 1.95550537109375, -60,-34.4) ">
<use xlink:href="#Symbol_39_0_Layer0_0_FILL"/>
</g>

<g transform="matrix( 1.95550537109375, 0, 0, 1.95550537109375, -60,-34.4) ">
<use xlink:href="#Symbol_39_0_Layer0_1_FILL"/>
</g>

<g transform="matrix( 1.95550537109375, 0, 0, 1.95550537109375, -60,-34.4) ">
<use xlink:href="#Symbol_39_0_Layer0_2_FILL"/>
</g>

<g transform="matrix( 1.95550537109375, 0, 0, 1.95550537109375, -60,-34.4) ">
<use xlink:href="#Symbol_39_0_Layer0_3_FILL"/>
</g>
</g>

<g transform="matrix( 0.7252655029296875, 0.105438232421875, -0.105438232421875, 0.7252655029296875, 35.6,-3.45) ">
<g transform="matrix( 1.95550537109375, 0, 0, 1.95550537109375, -60,-34.4) ">
<use xlink:href="#Symbol_39_0_Layer0_0_FILL"/>
</g>

<g transform="matrix( 1.95550537109375, 0, 0, 1.95550537109375, -60,-34.4) ">
<use xlink:href="#Symbol_39_0_Layer0_1_FILL"/>
</g>

<g transform="matrix( 1.95550537109375, 0, 0, 1.95550537109375, -60,-34.4) ">
<use xlink:href="#Symbol_39_0_Layer0_2_FILL"/>
</g>

<g transform="matrix( 1.95550537109375, 0, 0, 1.95550537109375, -60,-34.4) ">
<use xlink:href="#Symbol_39_0_Layer0_3_FILL"/>
</g>
</g>

<g transform="matrix( 0.6347198486328125, 0.366455078125, -0.366455078125, 0.6347198486328125, 47.3,-31.7) ">
<g transform="matrix( 1.95550537109375, 0, 0, 1.95550537109375, -60,-34.4) ">
<use xlink:href="#Symbol_39_0_Layer0_0_FILL"/>
</g>

<g transform="matrix( 1.95550537109375, 0, 0, 1.95550537109375, -60,-34.4) ">
<use xlink:href="#Symbol_39_0_Layer0_1_FILL"/>
</g>

<g transform="matrix( 1.95550537109375, 0, 0, 1.95550537109375, -60,-34.4) ">
<use xlink:href="#Symbol_39_0_Layer0_2_FILL"/>
</g>

<g transform="matrix( 1.95550537109375, 0, 0, 1.95550537109375, -60,-34.4) ">
<use xlink:href="#Symbol_39_0_Layer0_3_FILL"/>
</g>
</g>

<g transform="matrix( 0.7252655029296875, 0.105438232421875, -0.105438232421875, 0.7252655029296875, 46,26.15) ">
<g transform="matrix( 1.95550537109375, 0, 0, 1.95550537109375, -60,-34.4) ">
<use xlink:href="#Symbol_39_0_Layer0_0_FILL"/>
</g>

<g transform="matrix( 1.95550537109375, 0, 0, 1.95550537109375, -60,-34.4) ">
<use xlink:href="#Symbol_39_0_Layer0_1_FILL"/>
</g>

<g transform="matrix( 1.95550537109375, 0, 0, 1.95550537109375, -60,-34.4) ">
<use xlink:href="#Symbol_39_0_Layer0_2_FILL"/>
</g>

<g transform="matrix( 1.95550537109375, 0, 0, 1.95550537109375, -60,-34.4) ">
<use xlink:href="#Symbol_39_0_Layer0_3_FILL"/>
</g>
</g>

<g transform="matrix( 1, 0, 0, 1, 281.15,-282.9) ">
<use xlink:href="#Symbol_42_0_Layer0_9_MEMBER_0_FILL"/>

<use xlink:href="#Symbol_42_0_Layer0_9_MEMBER_0_1_STROKES"/>
</g>

<g transform="matrix( 1, 0, 0, 1, 281.15,-252.15) ">
<use xlink:href="#Symbol_42_0_Layer0_9_MEMBER_1_FILL"/>

<use xlink:href="#Symbol_42_0_Layer0_9_MEMBER_1_1_STROKES"/>
</g>

<g transform="matrix( 1, 0, 0, 1, 281.15,-220.35) ">
<use xlink:href="#Symbol_42_0_Layer0_9_MEMBER_2_FILL"/>

<use xlink:href="#Symbol_42_0_Layer0_9_MEMBER_2_1_STROKES"/>
</g>

<g transform="matrix( 0, 0.71282958984375, -0.71282958984375, 0, -40.15,17.85) ">
<g transform="matrix( 1, 0, 0, 1, 279.8,-275.55) ">
<use xlink:href="#Symbol_38_0_Layer0_0_FILL"/>

<use xlink:href="#Symbol_38_0_Layer0_0_1_STROKES"/>
</g>

<g transform="matrix( 1, 0, 0, 1, 0,0) ">
<use xlink:href="#Symbol_38_0_Layer0_1_FILL"/>
</g>

<g transform="matrix( 1, 0, 0, 1, 0,0) ">
<use xlink:href="#Symbol_38_0_Layer0_2_FILL"/>
</g>

<g transform="matrix( 1, 0, 0, 1, 0,0) ">
<use xlink:href="#Symbol_38_0_Layer0_3_FILL"/>
</g>
</g>

<g transform="matrix( 0, 0.71282958984375, -0.71282958984375, 0, 43.85,17.85) ">
<g transform="matrix( 1, 0, 0, 1, 279.8,-275.55) ">
<use xlink:href="#Symbol_38_0_Layer0_0_FILL"/>

<use xlink:href="#Symbol_38_0_Layer0_0_1_STROKES"/>
</g>

<g transform="matrix( 1, 0, 0, 1, 0,0) ">
<use xlink:href="#Symbol_38_0_Layer0_1_FILL"/>
</g>

<g transform="matrix( 1, 0, 0, 1, 0,0) ">
<use xlink:href="#Symbol_38_0_Layer0_2_FILL"/>
</g>

<g transform="matrix( 1, 0, 0, 1, 0,0) ">
<use xlink:href="#Symbol_38_0_Layer0_3_FILL"/>
</g>
</g>
</g>
</g>

<g filter="url(#Filter_3)" transform="matrix( 1.60003662109375, 0, 0, 1.60003662109375, -353.65,-357.1) ">
<g transform="matrix( 0.6249847412109375, 0, 0, 0.6249847412109375, 187.05,419.15) ">
<g transform="matrix( 0.7516021728515625, 0, 0, 0.7516021728515625, -3.8,-76.5) ">
<use xlink:href="#Symbol_41_0_Layer0_0_MEMBER_0_MEMBER_0_MEMBER_0_FILL"/>
</g>

<g transform="matrix( 0.7515716552734375, 0, 0, 0.7515716552734375, -3.6,-76.35) ">
<use xlink:href="#Symbol_41_0_Layer0_0_MEMBER_0_MEMBER_1_MEMBER_0_FILL"/>
</g>

<g transform="matrix( 0.7515716552734375, 0, 0, 0.7515716552734375, -3.6,-76.35) ">
<use xlink:href="#Symbol_41_0_Layer0_0_MEMBER_0_MEMBER_1_MEMBER_1_FILL"/>
</g>

<g transform="matrix( 0.7515716552734375, 0, 0, 0.7515716552734375, -3.6,-76.35) ">
<use xlink:href="#Symbol_41_0_Layer0_0_MEMBER_0_MEMBER_1_MEMBER_2_FILL"/>
</g>

<g transform="matrix( 0.7515716552734375, 0, 0, 0.7515716552734375, -3.6,-76.35) ">
<use xlink:href="#Symbol_41_0_Layer0_0_MEMBER_0_MEMBER_1_MEMBER_3_FILL"/>
</g>

<g transform="matrix( 0.7516937255859375, 0, 0, 0.7516937255859375, -3.6,-76.35) ">
<use xlink:href="#Symbol_41_0_Layer0_0_MEMBER_0_MEMBER_2_FILL"/>
</g>

<g transform="matrix( 0.7516937255859375, 0, 0, 0.7516937255859375, -3.6,-76.35) ">
<use xlink:href="#Symbol_41_0_Layer0_0_MEMBER_0_MEMBER_3_FILL"/>
</g>

<g transform="matrix( 0.7516937255859375, 0, 0, 0.7516937255859375, -3.6,-76.35) ">
<use xlink:href="#Symbol_41_0_Layer0_0_MEMBER_0_MEMBER_4_FILL"/>
</g>

<g transform="matrix( 0.7516937255859375, 0, 0, 0.7516937255859375, -3.6,-76.35) ">
<use xlink:href="#Symbol_41_0_Layer0_0_MEMBER_0_MEMBER_5_FILL"/>
</g>

<g transform="matrix( -0.72601318359375, -0.194488525390625, -0.194488525390625, 0.72601318359375, 59,-59.4) ">
<use xlink:href="#Symbol_41_0_Layer0_1_MEMBER_0_MEMBER_0_FILL"/>
</g>

<g transform="matrix( -0.72601318359375, -0.194488525390625, -0.194488525390625, 0.72601318359375, 59,-59.4) ">
<use xlink:href="#Symbol_41_0_Layer0_1_MEMBER_0_MEMBER_1_FILL"/>
</g>

<g transform="matrix( 1.1883697509765625, 0.318359375, -0.318359375, 1.1883697509765625, 100.4,-382.9) ">
<use xlink:href="#Symbol_41_0_Layer0_1_MEMBER_0_MEMBER_2_FILL"/>
</g>

<g transform="matrix( -0.7258758544921875, -0.194427490234375, -0.194427490234375, 0.7258758544921875, 59,-59.4) ">
<use xlink:href="#Symbol_41_0_Layer0_1_MEMBER_0_MEMBER_3_MEMBER_0_FILL"/>
</g>

<g transform="matrix( -0.72601318359375, 0.194488525390625, 0.194488525390625, 0.72601318359375, -8.4,-72.25) ">
<use xlink:href="#Symbol_41_0_Layer0_1_MEMBER_1_MEMBER_0_FILL"/>
</g>

<g transform="matrix( -0.72601318359375, 0.194488525390625, 0.194488525390625, 0.72601318359375, -8.4,-72.25) ">
<use xlink:href="#Symbol_41_0_Layer0_1_MEMBER_1_MEMBER_1_FILL"/>
</g>

<g transform="matrix( 1.1883697509765625, -0.318359375, 0.318359375, 1.1883697509765625, -133.95,-373.15) ">
<use xlink:href="#Symbol_41_0_Layer0_1_MEMBER_1_MEMBER_2_FILL"/>
</g>

<g transform="matrix( -0.7258758544921875, 0.194427490234375, 0.194427490234375, 0.7258758544921875, -8.4,-72.25) ">
<use xlink:href="#Symbol_41_0_Layer0_1_MEMBER_1_MEMBER_3_MEMBER_0_FILL"/>
</g>

<g transform="matrix( -0.75152587890625, 0, 0, 0.75152587890625, 2.4,-71.95) ">
<use xlink:href="#Symbol_41_0_Layer0_1_MEMBER_2_MEMBER_0_MEMBER_0_FILL"/>
</g>

<g transform="matrix( -0.75152587890625, 0, 0, 0.75152587890625, 2.75,-71.95) ">
<use xlink:href="#Symbol_41_0_Layer0_1_MEMBER_2_MEMBER_1_MEMBER_0_FILL"/>
</g>

<g transform="matrix( -0.75152587890625, 0, 0, 0.75152587890625, 2.75,-71.95) ">
<use xlink:href="#Symbol_41_0_Layer0_1_MEMBER_2_MEMBER_1_MEMBER_1_FILL"/>
</g>

<g transform="matrix( -0.75152587890625, 0, 0, 0.75152587890625, 2.75,-71.95) ">
<use xlink:href="#Symbol_41_0_Layer0_1_MEMBER_2_MEMBER_1_MEMBER_2_FILL"/>
</g>

<g transform="matrix( -0.75152587890625, 0, 0, 0.75152587890625, 2.75,-71.95) ">
<use xlink:href="#Symbol_41_0_Layer0_1_MEMBER_2_MEMBER_1_MEMBER_3_FILL"/>
</g>

<g transform="matrix( -0.7516937255859375, 0, 0, 0.7516937255859375, 2.75,-71.95) ">
<use xlink:href="#Symbol_41_0_Layer0_1_MEMBER_2_MEMBER_2_FILL"/>
</g>

<g transform="matrix( -0.7516937255859375, 0, 0, 0.7516937255859375, 2.75,-71.95) ">
<use xlink:href="#Symbol_41_0_Layer0_1_MEMBER_2_MEMBER_3_FILL"/>
</g>

<g transform="matrix( -0.7516937255859375, 0, 0, 0.7516937255859375, 2.75,-71.95) ">
<use xlink:href="#Symbol_41_0_Layer0_1_MEMBER_2_MEMBER_4_FILL"/>
</g>

<g transform="matrix( -0.7516937255859375, 0, 0, 0.7516937255859375, 2.75,-71.95) ">
<use xlink:href="#Symbol_41_0_Layer0_1_MEMBER_2_MEMBER_5_FILL"/>
</g>

<g transform="matrix( -0.3756256103515625, -0.650787353515625, -0.650787353515625, 0.3756256103515625, 68.35,2.5) ">
<use xlink:href="#Symbol_41_0_Layer0_1_MEMBER_3_MEMBER_0_MEMBER_0_FILL"/>
</g>

<g transform="matrix( -0.37567138671875, -0.6507568359375, -0.6507568359375, 0.37567138671875, 68.55,2.75) ">
<use xlink:href="#Symbol_41_0_Layer0_1_MEMBER_3_MEMBER_1_MEMBER_0_FILL"/>
</g>

<g transform="matrix( -0.37567138671875, -0.6507568359375, -0.6507568359375, 0.37567138671875, 68.55,2.75) ">
<use xlink:href="#Symbol_41_0_Layer0_1_MEMBER_3_MEMBER_1_MEMBER_1_FILL"/>
</g>

<g transform="matrix( -0.37567138671875, -0.6507568359375, -0.6507568359375, 0.37567138671875, 68.55,2.75) ">
<use xlink:href="#Symbol_41_0_Layer0_1_MEMBER_3_MEMBER_1_MEMBER_2_FILL"/>
</g>

<g transform="matrix( -0.37567138671875, -0.6507568359375, -0.6507568359375, 0.37567138671875, 68.55,2.75) ">
<use xlink:href="#Symbol_41_0_Layer0_1_MEMBER_3_MEMBER_1_MEMBER_3_FILL"/>
</g>

<g transform="matrix( -0.375762939453125, -0.65087890625, -0.65087890625, 0.375762939453125, 68.55,2.75) ">
<use xlink:href="#Symbol_41_0_Layer0_1_MEMBER_3_MEMBER_2_FILL"/>
</g>

<g transform="matrix( -0.375762939453125, -0.65087890625, -0.65087890625, 0.375762939453125, 68.55,2.75) ">
<use xlink:href="#Symbol_41_0_Layer0_1_MEMBER_3_MEMBER_3_FILL"/>
</g>

<g transform="matrix( -0.375762939453125, -0.65087890625, -0.65087890625, 0.375762939453125, 68.55,2.75) ">
<use xlink:href="#Symbol_41_0_Layer0_1_MEMBER_3_MEMBER_4_FILL"/>
</g>

<g transform="matrix( -0.375762939453125, -0.65087890625, -0.65087890625, 0.375762939453125, 68.55,2.75) ">
<use xlink:href="#Symbol_41_0_Layer0_1_MEMBER_3_MEMBER_5_FILL"/>
</g>

<g transform="matrix( 1.2305755615234375, 0, 0, 1.2305755615234375, -38.8,-385.9) ">
<use xlink:href="#Symbol_41_0_Layer0_2_FILL"/>
</g>

<g transform="matrix( 1.23046875, 0, 0, 1.23046875, -86.05,-363.9) ">
<use xlink:href="#Symbol_41_0_Layer0_2_MEMBER_0_FILL"/>
</g>

<g transform="matrix( 1.23046875, 0, 0, 1.23046875, -86.05,-363.9) ">
<use xlink:href="#Symbol_41_0_Layer0_2_MEMBER_1_FILL"/>
</g>

<g transform="matrix( 1.23046875, 0, 0, 1.23046875, -86.05,-363.9) ">
<use xlink:href="#Symbol_41_0_Layer0_2_MEMBER_2_FILL"/>
</g>

<g transform="matrix( 1.23046875, 0, 0, 1.23046875, -86.05,-363.9) ">
<use xlink:href="#Symbol_41_0_Layer0_2_MEMBER_3_FILL"/>
</g>

<g transform="matrix( 1.23046875, 0, 0, 1.23046875, -86.05,-363.9) ">
<use xlink:href="#Symbol_41_0_Layer0_2_MEMBER_4_FILL"/>
</g>
</g>
</g>
</g>

<g id="Layer_2">
<g transform="matrix( 1, 0, 0, 0.70208740234375, -1.05,-66.95) ">
<use xlink:href="#Option_bg_5_Layer1_0_FILL"/>
</g>

<g transform="matrix( 2.1091156005859375, 0, 0, 1.52130126953125, 4.75,-33.1) ">
<use xlink:href="#Option_bg_5_Layer1_1_FILL"/>
</g>

<g transform="matrix( 2.1091156005859375, 0, -0.3098907470703125, 1.52130126953125, -136.65,-33.1) ">
<use xlink:href="#Option_bg_5_Layer1_2_FILL"/>
</g>

<g transform="matrix( 1, 0, 0, 1, 0,0) ">
<use xlink:href="#Option_bg_5_Layer1_3_FILL"/>
</g>

<g transform="matrix( -2.1091156005859375, 0, 0.3098907470703125, 1.52130126953125, 117.6,-33.1) ">
<use xlink:href="#Option_bg_5_Layer1_4_FILL"/>
</g>

<g transform="matrix( -2.1091156005859375, 0, 0.5521697998046875, 1.52130126953125, 251.1,-33.1) ">
<use xlink:href="#Option_bg_5_Layer1_5_FILL"/>
</g>

<g transform="matrix( 2.1091156005859375, 0, 0, 1.52130126953125, -19.25,-33.1) ">
<use xlink:href="#Option_bg_5_Layer1_6_FILL"/>
</g>

<g transform="matrix( 2.1091156005859375, 0, -0.3098907470703125, 1.52130126953125, -160.65,-33.1) ">
<use xlink:href="#Option_bg_5_Layer1_7_FILL"/>
</g>

<g transform="matrix( 1, 0, 0, 1, 0,0) ">
<use xlink:href="#Option_bg_5_Layer1_8_FILL"/>
</g>

<g transform="matrix( -2.1091156005859375, 0, 0.3098907470703125, 1.52130126953125, 93.6,-33.1) ">
<use xlink:href="#Option_bg_5_Layer1_9_FILL"/>
</g>

<g transform="matrix( -2.1091156005859375, 0, 0.5521697998046875, 1.52130126953125, 227.1,-33.1) ">
<use xlink:href="#Option_bg_5_Layer1_10_FILL"/>
</g>
</g>

<g id="Layer_5"/>
</g>
</g>
</svg>
