<?xml version="1.0" encoding="utf-8"?>
<!-- Generator: Adobe Illustrator 24.3.0, SVG Export Plug-In . SVG Version: 6.00 Build 0)  -->
<svg version="1.1" id="Layer_1" xmlns="http://www.w3.org/2000/svg" xmlns:xlink="http://www.w3.org/1999/xlink" x="0px" y="0px"
	 viewBox="0 0 400 500" style="enable-background:new 0 0 400 500;" xml:space="preserve">
<style type="text/css">
	.st0{fill-opacity:0.149;}
	.st1{fill:#300E02;}
	.st2{fill:#50720F;}
	.st3{fill:#628C19;}
	.st4{fill:#F72A14;}
	.st5{fill:#FF9F10;}
	.st6{fill:none;stroke:#CC6600;stroke-width:6.249848e-02;stroke-linecap:round;stroke-linejoin:round;stroke-miterlimit:2.4999;}
	.st7{fill:none;stroke:#CC6600;stroke-width:4.455076e-02;stroke-linecap:round;stroke-linejoin:round;stroke-miterlimit:1.782;}
	.st8{fill:#CC6600;}
	.st9{fill:none;stroke:#FF0000;stroke-width:9.3748;stroke-linecap:round;stroke-linejoin:round;stroke-miterlimit:2.4999;}
	.st10{fill:#515151;}
	.st11{fill:#663366;}
	.st12{fill:none;stroke:#666666;stroke-width:1.3543;stroke-linecap:round;stroke-linejoin:round;stroke-miterlimit:5.4173;}
	.st13{fill:none;stroke:#333333;stroke-width:9.4804;stroke-linecap:round;stroke-linejoin:round;stroke-miterlimit:5.4173;}
	.st14{fill:#FF900B;}
	.st15{fill:#7C7603;}
	.st16{fill:#ADA800;}
	.st17{fill:#A05605;}
	.st18{fill:#4C2608;}
	.st19{fill:#CC0000;}
	.st20{fill:#AA5500;}
	.st21{fill:#DC842C;}
	.st22{fill:#C26F1C;}
	.st23{fill:#FF0000;}
	.st24{fill:#FAD9B7;}
</style>
<g id="Layer_1_1_">
	<g transform="matrix( 0.6249847412109375, 0, 0, 0.6249847412109375, 221.05,223.2) ">
		<g id="Layer_7">
			<g transform="matrix( 1.06793212890625, 0, 0, 1, -17.85,30.6) ">
				<g>
					<g id="Option_bg_6_Layer9_0_FILL">
						<path class="st0" d="M262.8,343.2c1.8-9.5-23.5-15-75.9-16.4c-43.4-1.2-95.7-2.3-156.8-3.3c-12.7-0.2-25.8-0.4-39.3-0.6
							c-78.3-1.2-146-0.4-202.9,2.4c-56.9,2.8-83.6,8-80.2,15.6c3.5,7.7,28.5,12.5,75,14.5s107.1,3.9,181.8,5.5
							c22.5,0.5,44.3,0.9,65.6,1.1c49.4,0.4,95.5-0.1,138.2-1.6C229.4,358.5,260.9,352.7,262.8,343.2z"/>
					</g>
				</g>
			</g>
		</g>
		<g id="Layer_9">
		</g>
		<g id="Layer_8">
			<g transform="matrix( 1.60003662109375, 0, 0, 1.60003662109375, -353.65,-357.1) ">
				<g transform="matrix( 0.6249847412109375, 0, 0, 0.6249847412109375, 62.5,406.4) ">
					<g transform="matrix( 0.7079620361328125, -0.1896820068359375, 0.1896820068359375, 0.7079620361328125, -44.8,-34.8) ">
						<g transform="matrix( 1.95550537109375, 0, 0, 1.95550537109375, -60,-34.4) ">
							<g>
								<g id="Symbol_39_0_Layer0_0_FILL">
									<path class="st1" d="M31.5,9.3V7.1c0-0.3-0.1-0.5-0.3-0.7C31.1,6.1,30.9,6,30.7,6c-0.2,0-0.5,0.1-0.7,0.4
										c-0.2,0.2-0.3,0.4-0.3,0.7v2.2c0,0.3,0.1,0.6,0.3,0.8c0.2,0.2,0.4,0.3,0.7,0.3s0.4-0.1,0.6-0.3C31.5,9.9,31.5,9.6,31.5,9.3
										z"/>
								</g>
							</g>
						</g>
						<g transform="matrix( 1.95550537109375, 0, 0, 1.95550537109375, -60,-34.4) ">
							<g>
								<g id="Symbol_39_0_Layer0_1_FILL">
									<path class="st2" d="M46.2,1.3c-0.1-0.4-1-0.8-2.7-1.1c-1.9-0.4-3.8-0.3-5.5,0.2c-2.1,0.7-3.7,1.5-4.9,2.4
										c-1.3,1-1.7,1.9-1.4,2.9L46.2,1.3z"/>
								</g>
							</g>
						</g>
						<g transform="matrix( 1.95550537109375, 0, 0, 1.95550537109375, -60,-34.4) ">
							<g>
								<g id="Symbol_39_0_Layer0_2_FILL">
									<path class="st3" d="M44.6,3.8c1.2-1.2,1.7-2,1.6-2.4L31.6,5.8v0c0.3,1,1.3,1.5,2.9,1.6c1.5,0.1,3.3-0.2,5.4-0.8
										C41.6,6.1,43.2,5.2,44.6,3.8z"/>
								</g>
							</g>
						</g>
						<g transform="matrix( 1.95550537109375, 0, 0, 1.95550537109375, -60,-34.4) ">
							<g>
								<g id="Symbol_39_0_Layer0_3_FILL">
									<path class="st4" d="M46.7,19.7c-0.7-4-2.5-7.1-5.4-9.3c-3.2-2.4-6.7-2.7-10.6-0.9c-3.9-1.8-7.5-1.4-10.7,1
										c-2.9,2.2-4.7,5.3-5.4,9.3c-0.7,4.2,0.2,7.7,2.7,10.6c2.8,3.4,7.3,5,13.3,4.9c6.1,0.1,10.5-1.5,13.3-4.9
										C46.5,27.4,47.4,23.9,46.7,19.7z"/>
								</g>
							</g>
						</g>
					</g>
					<g transform="matrix( 0.6347198486328125, 0.366455078125, -0.366455078125, 0.6347198486328125, 4.6,-31.7) ">
						<g transform="matrix( 1.95550537109375, 0, 0, 1.95550537109375, -60,-34.4) ">
							<g>
								<g id="Symbol_39_0_Layer0_0_FILL_1_">
									<path class="st1" d="M31.6,9.3V7.1c0-0.3-0.1-0.5-0.3-0.7C31.1,6.1,30.9,6,30.7,6c-0.2,0-0.5,0.1-0.7,0.3
										c-0.2,0.2-0.3,0.4-0.3,0.8l0,2.2c0,0.3,0.1,0.6,0.3,0.8c0.2,0.2,0.4,0.3,0.7,0.3s0.4-0.1,0.6-0.3
										C31.5,9.9,31.6,9.6,31.6,9.3z"/>
								</g>
							</g>
						</g>
						<g transform="matrix( 1.95550537109375, 0, 0, 1.95550537109375, -60,-34.4) ">
							<g>
								<g id="Symbol_39_0_Layer0_1_FILL_1_">
									<path class="st2" d="M46.2,1.3c-0.1-0.4-1-0.8-2.7-1.1c-1.9-0.4-3.8-0.3-5.5,0.2c-2.1,0.7-3.7,1.5-4.9,2.4
										c-1.3,1-1.7,1.9-1.5,2.9L46.2,1.3z"/>
								</g>
							</g>
						</g>
						<g transform="matrix( 1.95550537109375, 0, 0, 1.95550537109375, -60,-34.4) ">
							<g>
								<g id="Symbol_39_0_Layer0_2_FILL_1_">
									<path class="st3" d="M44.6,3.8c1.2-1.2,1.7-2,1.6-2.4L31.6,5.8v0c0.3,1,1.3,1.6,2.8,1.7c1.5,0.1,3.3-0.2,5.4-0.8
										C41.6,6.1,43.2,5.2,44.6,3.8z"/>
								</g>
							</g>
						</g>
						<g transform="matrix( 1.95550537109375, 0, 0, 1.95550537109375, -60,-34.4) ">
							<g>
								<g id="Symbol_39_0_Layer0_3_FILL_1_">
									<path class="st4" d="M46.7,19.7c-0.7-4-2.5-7.1-5.3-9.3c-3.2-2.4-6.7-2.7-10.6-0.9C26.8,7.6,23.2,8,20,10.4
										c-2.9,2.2-4.7,5.3-5.4,9.3c-0.7,4.2,0.2,7.7,2.7,10.6c2.8,3.4,7.3,5,13.3,4.9c6.1,0.1,10.5-1.5,13.3-4.9
										C46.5,27.4,47.4,23.9,46.7,19.7z"/>
								</g>
							</g>
						</g>
					</g>
					<g transform="matrix( 0.6347198486328125, 0.366455078125, -0.366455078125, 0.6347198486328125, -41.1,3.8) ">
						<g transform="matrix( 1.95550537109375, 0, 0, 1.95550537109375, -60,-34.4) ">
							<g>
								<g id="Symbol_39_0_Layer0_0_FILL_2_">
									<path class="st1" d="M31.6,9.3V7.1c0-0.3-0.1-0.6-0.2-0.8C31.1,6.1,30.9,6,30.7,6c-0.2,0-0.5,0.1-0.7,0.4
										c-0.2,0.2-0.3,0.4-0.3,0.7v2.2c0,0.3,0.1,0.6,0.2,0.8c0.2,0.2,0.4,0.3,0.7,0.3s0.4-0.1,0.6-0.3C31.5,9.9,31.6,9.6,31.6,9.3
										z"/>
								</g>
							</g>
						</g>
						<g transform="matrix( 1.95550537109375, 0, 0, 1.95550537109375, -60,-34.4) ">
							<g>
								<g id="Symbol_39_0_Layer0_1_FILL_2_">
									<path class="st2" d="M46.2,1.3c-0.1-0.4-1-0.8-2.7-1.1c-1.9-0.4-3.8-0.3-5.5,0.2c-2.1,0.7-3.7,1.5-4.9,2.4
										c-1.3,1-1.7,1.9-1.4,2.9L46.2,1.3z"/>
								</g>
							</g>
						</g>
						<g transform="matrix( 1.95550537109375, 0, 0, 1.95550537109375, -60,-34.4) ">
							<g>
								<g id="Symbol_39_0_Layer0_2_FILL_2_">
									<path class="st3" d="M44.6,3.8c1.2-1.2,1.7-2,1.6-2.4L31.6,5.8v0c0.3,1,1.3,1.5,2.8,1.7c1.5,0.1,3.3-0.2,5.4-0.8
										C41.6,6.1,43.2,5.2,44.6,3.8z"/>
								</g>
							</g>
						</g>
						<g transform="matrix( 1.95550537109375, 0, 0, 1.95550537109375, -60,-34.4) ">
							<g>
								<g id="Symbol_39_0_Layer0_3_FILL_2_">
									<path class="st4" d="M46.7,19.7c-0.7-4-2.4-7.1-5.3-9.3c-3.2-2.4-6.7-2.7-10.6-0.9C26.8,7.6,23.2,8,20,10.4
										c-2.9,2.2-4.7,5.3-5.3,9.3c-0.7,4.2,0.2,7.7,2.7,10.6c2.8,3.4,7.3,5,13.3,4.9c6.1,0.1,10.5-1.5,13.3-4.9
										C46.5,27.4,47.4,23.9,46.7,19.7z"/>
								</g>
							</g>
						</g>
					</g>
					<g transform="matrix( 0.6347198486328125, 0.366455078125, -0.366455078125, 0.6347198486328125, -37.85,37.95) ">
						<g transform="matrix( 1.95550537109375, 0, 0, 1.95550537109375, -60,-34.4) ">
							<g>
								<g id="Symbol_39_0_Layer0_0_FILL_3_">
									<path class="st1" d="M31.6,9.3V7.1c0-0.3-0.1-0.6-0.2-0.8C31.1,6.1,30.9,6,30.7,6c-0.2,0-0.5,0.1-0.7,0.3
										c-0.2,0.2-0.3,0.4-0.3,0.8v2.2c0,0.3,0.1,0.6,0.2,0.8c0.2,0.2,0.4,0.3,0.7,0.3s0.4-0.1,0.6-0.3C31.5,9.9,31.6,9.6,31.6,9.3
										z"/>
								</g>
							</g>
						</g>
						<g transform="matrix( 1.95550537109375, 0, 0, 1.95550537109375, -60,-34.4) ">
							<g>
								<g id="Symbol_39_0_Layer0_1_FILL_3_">
									<path class="st2" d="M46.2,1.3c-0.1-0.4-1-0.8-2.7-1.1c-1.9-0.4-3.8-0.3-5.5,0.2c-2.1,0.7-3.7,1.5-4.9,2.4
										c-1.3,1-1.7,1.9-1.4,2.9L46.2,1.3z"/>
								</g>
							</g>
						</g>
						<g transform="matrix( 1.95550537109375, 0, 0, 1.95550537109375, -60,-34.4) ">
							<g>
								<g id="Symbol_39_0_Layer0_2_FILL_3_">
									<path class="st3" d="M44.6,3.8c1.2-1.2,1.7-2,1.6-2.4L31.6,5.8v0c0.3,1,1.3,1.6,2.8,1.7c1.5,0.1,3.3-0.2,5.4-0.8
										C41.6,6.1,43.2,5.2,44.6,3.8z"/>
								</g>
							</g>
						</g>
						<g transform="matrix( 1.95550537109375, 0, 0, 1.95550537109375, -60,-34.4) ">
							<g>
								<g id="Symbol_39_0_Layer0_3_FILL_3_">
									<path class="st4" d="M46.7,19.7c-0.7-4-2.5-7.1-5.3-9.3c-3.2-2.4-6.7-2.7-10.6-0.9C26.8,7.6,23.2,8,20,10.4
										c-2.9,2.2-4.7,5.3-5.4,9.3c-0.7,4.2,0.2,7.7,2.7,10.6c2.8,3.4,7.3,5,13.3,4.9c6.1,0.1,10.5-1.5,13.3-4.9
										C46.5,27.4,47.4,23.9,46.7,19.7z"/>
								</g>
							</g>
						</g>
					</g>
					<g transform="matrix( 0.5874176025390625, -0.4382781982421875, 0.4382781982421875, 0.5874176025390625, -11.8,9.6) ">
						<g transform="matrix( 1.95550537109375, 0, 0, 1.95550537109375, -60,-34.4) ">
							<g>
								<g id="Symbol_39_0_Layer0_0_FILL_4_">
									<path class="st1" d="M31.5,9.3l0-2.2c0-0.3-0.1-0.5-0.3-0.7C31.1,6.1,30.9,6,30.7,6c-0.2,0-0.4,0.1-0.6,0.4
										c-0.2,0.2-0.3,0.4-0.3,0.7l0,2.2c0,0.3,0.1,0.6,0.3,0.8c0.2,0.2,0.4,0.3,0.7,0.3s0.4-0.1,0.6-0.3
										C31.5,9.9,31.5,9.6,31.5,9.3z"/>
								</g>
							</g>
						</g>
						<g transform="matrix( 1.95550537109375, 0, 0, 1.95550537109375, -60,-34.4) ">
							<g>
								<g id="Symbol_39_0_Layer0_1_FILL_4_">
									<path class="st2" d="M46.2,1.3c-0.1-0.4-1-0.8-2.7-1.1c-1.9-0.4-3.8-0.3-5.5,0.3c-2.1,0.7-3.7,1.5-4.9,2.4
										c-1.3,1-1.7,2-1.4,2.9L46.2,1.3z"/>
								</g>
							</g>
						</g>
						<g transform="matrix( 1.95550537109375, 0, 0, 1.95550537109375, -60,-34.4) ">
							<g>
								<g id="Symbol_39_0_Layer0_2_FILL_4_">
									<path class="st3" d="M44.6,3.8c1.2-1.2,1.7-2,1.6-2.4L31.6,5.8v0c0.3,1,1.3,1.5,2.8,1.6c1.5,0.1,3.3-0.2,5.4-0.9
										C41.6,6.1,43.2,5.2,44.6,3.8z"/>
								</g>
							</g>
						</g>
						<g transform="matrix( 1.95550537109375, 0, 0, 1.95550537109375, -60,-34.4) ">
							<g>
								<g id="Symbol_39_0_Layer0_3_FILL_4_">
									<path class="st4" d="M46.7,19.7c-0.7-4-2.5-7.1-5.4-9.3c-3.2-2.4-6.7-2.7-10.6-0.9c-3.9-1.8-7.5-1.4-10.7,1
										c-2.9,2.2-4.7,5.3-5.3,9.3c-0.7,4.2,0.2,7.7,2.7,10.6c2.8,3.4,7.3,5,13.3,4.9c6.1,0.1,10.5-1.5,13.3-4.9
										C46.5,27.4,47.4,23.9,46.7,19.7z"/>
								</g>
							</g>
						</g>
					</g>
					<g transform="matrix( 0.5874176025390625, -0.4382781982421875, 0.4382781982421875, 0.5874176025390625, -0.5,37.3) ">
						<g transform="matrix( 1.95550537109375, 0, 0, 1.95550537109375, -60,-34.4) ">
							<g>
								<g id="Symbol_39_0_Layer0_0_FILL_5_">
									<path class="st1" d="M31.5,9.3V7.1c0-0.3-0.1-0.6-0.3-0.7C31.1,6.1,30.9,6,30.7,6c-0.2,0-0.5,0.1-0.7,0.4
										c-0.2,0.2-0.3,0.4-0.3,0.8l0,2.2c0,0.3,0.1,0.6,0.3,0.8c0.2,0.2,0.4,0.3,0.7,0.3s0.4-0.1,0.6-0.3
										C31.5,9.9,31.5,9.6,31.5,9.3z"/>
								</g>
							</g>
						</g>
						<g transform="matrix( 1.95550537109375, 0, 0, 1.95550537109375, -60,-34.4) ">
							<g>
								<g id="Symbol_39_0_Layer0_1_FILL_5_">
									<path class="st2" d="M46.2,1.3c-0.1-0.4-1-0.8-2.7-1.1c-1.9-0.4-3.8-0.3-5.5,0.3c-2.1,0.7-3.7,1.5-4.9,2.4
										c-1.3,1-1.7,2-1.4,2.9L46.2,1.3z"/>
								</g>
							</g>
						</g>
						<g transform="matrix( 1.95550537109375, 0, 0, 1.95550537109375, -60,-34.4) ">
							<g>
								<g id="Symbol_39_0_Layer0_2_FILL_5_">
									<path class="st3" d="M44.6,3.8c1.2-1.2,1.7-2,1.6-2.4L31.6,5.8v0c0.3,1,1.3,1.5,2.9,1.6c1.5,0.1,3.3-0.2,5.4-0.9
										C41.6,6.1,43.2,5.2,44.6,3.8z"/>
								</g>
							</g>
						</g>
						<g transform="matrix( 1.95550537109375, 0, 0, 1.95550537109375, -60,-34.4) ">
							<g>
								<g id="Symbol_39_0_Layer0_3_FILL_5_">
									<path class="st4" d="M46.7,19.7c-0.7-4-2.5-7.1-5.4-9.3c-3.2-2.4-6.7-2.7-10.6-0.9c-3.9-1.8-7.5-1.4-10.7,1
										c-2.9,2.2-4.7,5.3-5.3,9.3c-0.7,4.2,0.2,7.7,2.7,10.6c2.8,3.4,7.3,5,13.3,4.9c6.1,0.1,10.5-1.5,13.3-4.9
										C46.5,27.4,47.4,23.9,46.7,19.7z"/>
								</g>
							</g>
						</g>
					</g>
					<g transform="matrix( 0.7252655029296875, 0.105438232421875, -0.105438232421875, 0.7252655029296875, 35.6,-3.45) ">
						<g transform="matrix( 1.95550537109375, 0, 0, 1.95550537109375, -60,-34.4) ">
							<g>
								<g id="Symbol_39_0_Layer0_0_FILL_6_">
									<path class="st1" d="M31.6,9.3l0-2.2c0-0.3-0.1-0.5-0.3-0.7C31.1,6.1,30.9,6,30.7,6c-0.2,0-0.5,0.1-0.7,0.3
										c-0.2,0.2-0.3,0.4-0.3,0.7v2.2c0,0.3,0.1,0.6,0.3,0.8c0.2,0.2,0.4,0.3,0.6,0.3s0.4-0.1,0.6-0.3C31.5,9.9,31.6,9.6,31.6,9.3
										z"/>
								</g>
							</g>
						</g>
						<g transform="matrix( 1.95550537109375, 0, 0, 1.95550537109375, -60,-34.4) ">
							<g>
								<g id="Symbol_39_0_Layer0_1_FILL_6_">
									<path class="st2" d="M46.2,1.3c-0.1-0.4-1-0.8-2.7-1.1c-1.9-0.4-3.8-0.3-5.5,0.2c-2.1,0.7-3.7,1.5-4.9,2.4
										c-1.3,1-1.7,1.9-1.4,2.9L46.2,1.3z"/>
								</g>
							</g>
						</g>
						<g transform="matrix( 1.95550537109375, 0, 0, 1.95550537109375, -60,-34.4) ">
							<g>
								<g id="Symbol_39_0_Layer0_2_FILL_6_">
									<path class="st3" d="M44.6,3.8c1.2-1.2,1.7-2,1.6-2.4L31.6,5.8v0c0.3,1,1.2,1.5,2.8,1.7c1.5,0.1,3.3-0.2,5.4-0.8
										C41.6,6.1,43.2,5.2,44.6,3.8z"/>
								</g>
							</g>
						</g>
						<g transform="matrix( 1.95550537109375, 0, 0, 1.95550537109375, -60,-34.4) ">
							<g>
								<g id="Symbol_39_0_Layer0_3_FILL_6_">
									<path class="st4" d="M46.7,19.7c-0.7-4-2.4-7.1-5.3-9.3c-3.2-2.4-6.7-2.7-10.6-0.9C26.8,7.6,23.2,8,20,10.4
										c-2.9,2.2-4.7,5.3-5.3,9.3c-0.7,4.2,0.2,7.7,2.7,10.6c2.8,3.4,7.3,5,13.3,4.9c6.1,0.1,10.5-1.5,13.3-4.9
										C46.5,27.4,47.4,23.9,46.7,19.7z"/>
								</g>
							</g>
						</g>
					</g>
					<g transform="matrix( 0.6347198486328125, 0.366455078125, -0.366455078125, 0.6347198486328125, 47.3,-31.7) ">
						<g transform="matrix( 1.95550537109375, 0, 0, 1.95550537109375, -60,-34.4) ">
							<g>
								<g id="Symbol_39_0_Layer0_0_FILL_7_">
									<path class="st1" d="M31.6,9.3V7.1c0-0.3-0.1-0.6-0.3-0.8C31.1,6.1,30.9,6,30.7,6c-0.2,0-0.5,0.1-0.7,0.4
										c-0.2,0.2-0.3,0.4-0.3,0.7v2.2c0,0.3,0.1,0.6,0.3,0.8c0.2,0.2,0.4,0.3,0.7,0.3s0.4-0.1,0.6-0.3C31.5,9.9,31.6,9.6,31.6,9.3
										z"/>
								</g>
							</g>
						</g>
						<g transform="matrix( 1.95550537109375, 0, 0, 1.95550537109375, -60,-34.4) ">
							<g>
								<g id="Symbol_39_0_Layer0_1_FILL_7_">
									<path class="st2" d="M46.2,1.3c-0.1-0.4-1-0.8-2.7-1.1c-1.9-0.4-3.8-0.3-5.5,0.2c-2.1,0.7-3.7,1.5-4.9,2.4
										c-1.3,1-1.7,1.9-1.4,2.9L46.2,1.3z"/>
								</g>
							</g>
						</g>
						<g transform="matrix( 1.95550537109375, 0, 0, 1.95550537109375, -60,-34.4) ">
							<g>
								<g id="Symbol_39_0_Layer0_2_FILL_7_">
									<path class="st3" d="M44.6,3.8c1.2-1.2,1.7-2,1.6-2.4L31.6,5.8v0c0.3,1,1.3,1.5,2.9,1.7c1.5,0.1,3.3-0.2,5.4-0.8
										C41.6,6.1,43.2,5.2,44.6,3.8z"/>
								</g>
							</g>
						</g>
						<g transform="matrix( 1.95550537109375, 0, 0, 1.95550537109375, -60,-34.4) ">
							<g>
								<g id="Symbol_39_0_Layer0_3_FILL_7_">
									<path class="st4" d="M46.7,19.7c-0.7-4-2.5-7.1-5.3-9.3c-3.2-2.4-6.7-2.7-10.6-0.9C26.8,7.6,23.2,8,20,10.4
										c-2.9,2.2-4.7,5.3-5.4,9.3c-0.7,4.2,0.2,7.7,2.7,10.6c2.8,3.4,7.3,5,13.3,4.9c6.1,0.1,10.5-1.5,13.3-4.9
										C46.5,27.4,47.4,23.9,46.7,19.7z"/>
								</g>
							</g>
						</g>
					</g>
					<g transform="matrix( 0.7252655029296875, 0.105438232421875, -0.105438232421875, 0.7252655029296875, 46,26.15) ">
						<g transform="matrix( 1.95550537109375, 0, 0, 1.95550537109375, -60,-34.4) ">
							<g>
								<g id="Symbol_39_0_Layer0_0_FILL_8_">
									<path class="st1" d="M31.6,9.3V7.1c0-0.3-0.1-0.5-0.3-0.7C31.1,6.1,30.9,6,30.7,6c-0.2,0-0.5,0.1-0.7,0.3
										c-0.2,0.2-0.3,0.4-0.3,0.7l0,2.2c0,0.3,0.1,0.6,0.3,0.8c0.2,0.2,0.4,0.3,0.7,0.3c0.2,0,0.4-0.1,0.6-0.3
										C31.5,9.9,31.6,9.6,31.6,9.3z"/>
								</g>
							</g>
						</g>
						<g transform="matrix( 1.95550537109375, 0, 0, 1.95550537109375, -60,-34.4) ">
							<g>
								<g id="Symbol_39_0_Layer0_1_FILL_8_">
									<path class="st2" d="M46.2,1.3c-0.1-0.4-1-0.8-2.7-1.1c-1.9-0.4-3.8-0.3-5.5,0.2c-2.1,0.7-3.7,1.5-4.9,2.4
										c-1.3,1-1.7,1.9-1.5,2.9L46.2,1.3z"/>
								</g>
							</g>
						</g>
						<g transform="matrix( 1.95550537109375, 0, 0, 1.95550537109375, -60,-34.4) ">
							<g>
								<g id="Symbol_39_0_Layer0_2_FILL_8_">
									<path class="st3" d="M44.6,3.8c1.2-1.2,1.7-2,1.6-2.4L31.6,5.8v0c0.3,1,1.3,1.5,2.8,1.7c1.5,0.1,3.3-0.2,5.4-0.8
										C41.6,6.1,43.2,5.2,44.6,3.8z"/>
								</g>
							</g>
						</g>
						<g transform="matrix( 1.95550537109375, 0, 0, 1.95550537109375, -60,-34.4) ">
							<g>
								<g id="Symbol_39_0_Layer0_3_FILL_8_">
									<path class="st4" d="M46.7,19.7c-0.7-4-2.4-7.1-5.3-9.3c-3.2-2.4-6.7-2.7-10.6-0.9C26.8,7.6,23.2,8,20,10.4
										c-2.9,2.2-4.7,5.3-5.4,9.3c-0.7,4.2,0.2,7.7,2.7,10.6c2.8,3.4,7.3,5,13.3,4.9c6.1,0.1,10.5-1.5,13.3-4.9
										C46.5,27.4,47.4,23.9,46.7,19.7z"/>
								</g>
							</g>
						</g>
					</g>
					<g transform="matrix( 1, 0, 0, 1, 281.15,-282.9) ">
						<g>
							<g id="Symbol_42_0_Layer0_9_MEMBER_0_FILL">
								<path class="st5" d="M-212.3,289.8c3.3,0,5-1.7,5-5v-18.5c0-3.3-1.7-5-5-5h-134.9c-3.3,0-5,1.7-5,5v18.5c0,3.3,1.7,5,5,5
									H-212.3z"/>
							</g>
						</g>
						<g>
							<path id="Symbol_42_0_Layer0_9_MEMBER_0_1_STROKES" class="st6" d="M-347.2,261.3h134.9c3.3,0,5,1.7,5,5v18.5
								c0,3.3-1.7,5-5,5h-134.9c-3.3,0-5-1.7-5-5v-18.5C-352.2,263-350.6,261.3-347.2,261.3z"/>
						</g>
					</g>
					<g transform="matrix( 1, 0, 0, 1, 281.15,-252.15) ">
						<g>
							<g id="Symbol_42_0_Layer0_9_MEMBER_1_FILL">
								<path class="st5" d="M-212.3,289.8c3.3,0,5-1.7,5-5v-18.5c0-3.3-1.7-5-5-5h-134.9c-3.3,0-5,1.7-5,5v18.5c0,3.3,1.7,5,5,5
									H-212.3z"/>
							</g>
						</g>
						<g>
							<path id="Symbol_42_0_Layer0_9_MEMBER_1_1_STROKES" class="st6" d="M-347.2,261.3h134.9c3.3,0,5,1.7,5,5v18.5
								c0,3.3-1.7,5-5,5h-134.9c-3.3,0-5-1.7-5-5v-18.5C-352.2,263-350.6,261.3-347.2,261.3z"/>
						</g>
					</g>
					<g transform="matrix( 1, 0, 0, 1, 281.15,-220.35) ">
						<g>
							<g id="Symbol_42_0_Layer0_9_MEMBER_2_FILL">
								<path class="st5" d="M-212.3,289.8c3.3,0,5-1.7,5-5v-18.5c0-3.3-1.7-5-5-5h-134.9c-3.3,0-5,1.7-5,5v18.5c0,3.3,1.7,5,5,5
									H-212.3z"/>
							</g>
						</g>
						<g>
							<path id="Symbol_42_0_Layer0_9_MEMBER_2_1_STROKES" class="st6" d="M-347.2,261.3h134.9c3.3,0,5,1.7,5,5v18.5
								c0,3.3-1.7,5-5,5h-134.9c-3.3,0-5-1.7-5-5v-18.5C-352.2,263-350.6,261.3-347.2,261.3z"/>
						</g>
					</g>
					<g transform="matrix( 0, 0.71282958984375, -0.71282958984375, 0, -40.15,17.85) ">
						<g transform="matrix( 1, 0, 0, 1, 279.8,-275.55) ">
							<g>
								<g id="Symbol_38_0_Layer0_0_FILL">
									<path class="st5" d="M-212.3,289.8c3.3,0,5-1.7,5-5v-18.5c0-3.3-1.7-5-5-5h-134.9c-3.3,0-5,1.7-5,5v18.5c0,3.3,1.7,5,5,5
										H-212.3z"/>
								</g>
							</g>
							<g>
								<path id="Symbol_38_0_Layer0_0_1_STROKES" class="st7" d="M-347.2,261.3h134.9c3.3,0,5,1.7,5,5v18.5c0,3.3-1.7,5-5,5h-134.9
									c-3.3,0-5-1.7-5-5v-18.5C-352.2,263-350.6,261.3-347.2,261.3z"/>
							</g>
						</g>
						<g transform="matrix( 1, 0, 0, 1, 0,0) ">
							<g>
								<g id="Symbol_38_0_Layer0_1_FILL">
									<path class="st8" d="M-51-7.5c-1.5,0-2.7,0.6-3.8,1.6c-1.1,1.1-1.7,2.4-1.7,3.8c0.2-0.1,0.3,0.1,0.2,0.5
										c-0.1,0.8,0.1,1.7,0.7,2.5c0.9,1.3,2.2,2.1,3.8,2.4c1.6,0.3,3-0.1,4.3-1c0.9-0.7,1.5-1.7,1.9-2.8c0.3-1.2,0.3-2.3-0.1-3.3
										c-0.4-1.1-1-2-2-2.6C-48.7-7.2-49.8-7.5-51-7.5z"/>
								</g>
							</g>
						</g>
						<g transform="matrix( 1, 0, 0, 1, 0,0) ">
							<g>
								<g id="Symbol_38_0_Layer0_2_FILL">
									<path class="st8" d="M5.9-0.9c0.6-1.3,0.7-2.5,0.3-3.8C5.8-5.9,5-6.9,3.9-7.7s-2.4-1-3.7-0.8c-1.3,0.2-2.4,0.8-3.3,1.8
										s-1.4,2.2-1.4,3.5c0.1,0,0.1,0.2,0.1,0.4c-0.1,0.4-0.1,0.7,0,1C-4.2-1.1-4-0.5-3.6-0.1c0.7,1.1,1.7,1.8,3,2.1
										C0.7,2.5,2,2.4,3.2,1.8S5.3,0.4,5.9-0.9z"/>
								</g>
							</g>
						</g>
						<g transform="matrix( 1, 0, 0, 1, 0,0) ">
							<g>
								<g id="Symbol_38_0_Layer0_3_FILL">
									<path class="st8" d="M59.1-0.1c0.4-1,0.4-2,0.2-3.1s-0.7-2-1.5-2.7S56-7.2,54.9-7.4c-1.1-0.2-2.2-0.1-3.1,0.3
										c-1,0.4-1.8,1.1-2.5,2c-0.6,0.9-1,1.9-1,3c0.1,0.2,0.2,0.6,0.3,1.2c0.3,1.6,1.2,2.8,2.6,3.6c1.4,0.8,2.9,0.9,4.5,0.3
										C57.3,2.5,58.5,1.4,59.1-0.1z"/>
								</g>
							</g>
						</g>
					</g>
					<g transform="matrix( 0, 0.71282958984375, -0.71282958984375, 0, 43.85,17.85) ">
						<g transform="matrix( 1, 0, 0, 1, 279.8,-275.55) ">
							<g>
								<g id="Symbol_38_0_Layer0_0_FILL_1_">
									<path class="st5" d="M-212.3,289.8c3.3,0,5-1.7,5-5v-18.5c0-3.3-1.7-5-5-5h-134.9c-3.3,0-5,1.7-5,5v18.5c0,3.3,1.7,5,5,5
										H-212.3z"/>
								</g>
							</g>
							<g>
								<path id="Symbol_38_0_Layer0_0_1_STROKES_1_" class="st7" d="M-347.2,261.3h134.9c3.3,0,5,1.7,5,5v18.5c0,3.3-1.7,5-5,5
									h-134.9c-3.3,0-5-1.7-5-5v-18.5C-352.2,263-350.6,261.3-347.2,261.3z"/>
							</g>
						</g>
						<g transform="matrix( 1, 0, 0, 1, 0,0) ">
							<g>
								<g id="Symbol_38_0_Layer0_1_FILL_1_">
									<path class="st8" d="M-51-7.5c-1.5,0-2.7,0.6-3.8,1.6c-1.1,1.1-1.7,2.4-1.7,3.8c0.2-0.1,0.3,0.1,0.2,0.5
										c-0.1,0.8,0.1,1.7,0.7,2.5c0.9,1.3,2.2,2.1,3.8,2.4c1.6,0.3,3-0.1,4.3-1c0.9-0.7,1.5-1.7,1.9-2.8c0.3-1.2,0.3-2.3-0.1-3.3
										c-0.4-1.1-1-2-2-2.6C-48.7-7.2-49.8-7.5-51-7.5z"/>
								</g>
							</g>
						</g>
						<g transform="matrix( 1, 0, 0, 1, 0,0) ">
							<g>
								<g id="Symbol_38_0_Layer0_2_FILL_1_">
									<path class="st8" d="M5.9-0.9c0.6-1.3,0.7-2.5,0.3-3.8C5.8-5.9,5-6.9,3.9-7.7c-1.2-0.8-2.4-1-3.7-0.8
										c-1.3,0.2-2.4,0.8-3.3,1.8s-1.4,2.2-1.4,3.5c0.1,0,0.1,0.2,0.1,0.4c-0.1,0.4-0.1,0.7,0,1C-4.2-1.1-4-0.5-3.6-0.1
										c0.7,1.1,1.7,1.8,3,2.1C0.7,2.5,2,2.4,3.2,1.8S5.3,0.4,5.9-0.9z"/>
								</g>
							</g>
						</g>
						<g transform="matrix( 1, 0, 0, 1, 0,0) ">
							<g>
								<g id="Symbol_38_0_Layer0_3_FILL_1_">
									<path class="st8" d="M59.1-0.1c0.4-1,0.4-2,0.2-3.1s-0.7-2-1.5-2.7S56-7.2,54.9-7.4c-1.1-0.2-2.2-0.1-3.1,0.3
										c-1,0.4-1.8,1.1-2.5,2c-0.6,0.9-1,1.9-1,3c0.1,0.2,0.2,0.6,0.3,1.2c0.3,1.6,1.2,2.8,2.6,3.6c1.4,0.8,2.9,0.9,4.5,0.3
										C57.3,2.5,58.5,1.4,59.1-0.1z"/>
								</g>
							</g>
						</g>
					</g>
				</g>
			</g>
		</g>
		<g id="flash0_ai">
			<g transform="matrix( 1, 0, 0, 1, 0,0) ">
				<g>
					<path id="Option_bg_6_Layer6_0_1_STROKES" class="st9" d="M-283.7-209.2h499.9c6.9,0,12.8,2.4,17.6,7.3
						c4.9,4.9,7.3,10.8,7.3,17.7v339.3c0,6.9-2.4,12.8-7.3,17.6c-4.9,4.9-10.8,7.4-17.6,7.3h-499.9c-6.9,0-12.8-2.4-17.7-7.3
						c-4.9-4.9-7.3-10.7-7.3-17.6v-339.3c0-6.9,2.4-12.8,7.3-17.7C-296.5-206.8-290.6-209.2-283.7-209.2z"/>
				</g>
			</g>
		</g>
		<g id="Layer_3">
			<g transform="matrix( 1.0999755859375, 0, 0, 1.0999755859375, 2.95,-9.25) ">
				<g>
					<g id="Option_bg_6_Layer5_0_FILL">
						<path class="st10" d="M126.5,188.1L126.5,188.1c-10.8-10.8-23.8-16.1-39-16.1h-249.2c-15.2,0-28.3,5.4-39.1,16.1l0,0
							c-10.8,10.8-16.2,23.9-16.1,39.1c0,15.2,5.4,28.2,16.1,38.9v0c10.8,10.8,23.9,16.3,39.1,16.2H87.5c15.2,0,28.2-5.4,38.9-16.2
							l0.1,0c10.8-10.7,16.3-23.7,16.2-38.9C142.8,211.9,137.3,198.9,126.5,188.1 M119.4,195.1L119.4,195.1
							c8.9,8.9,13.3,19.6,13.3,32c0,12.5-4.5,23.1-13.3,31.9l0,0c-8.8,8.9-19.4,13.3-31.9,13.3h-249.2c-12.5,0-23.1-4.5-32-13.3
							h-0.1c-8.8-8.8-13.2-19.4-13.2-31.9c0-12.5,4.4-23.1,13.2-32l0.1,0c8.9-8.8,19.5-13.2,32-13.2H87.5
							C100,181.9,110.6,186.3,119.4,195.1z"/>
					</g>
				</g>
			</g>
			<g transform="matrix( 1.0999755859375, 0, 0, 1.0999755859375, 2.95,-9.25) ">
				<g>
					<g id="Option_bg_6_Layer5_1_FILL">
						<path class="st11" d="M227.1,186.2V168h-518.7v18.2H227.1z"/>
					</g>
				</g>
			</g>
			<g transform="matrix( 2.1669921875, 0, 0, 2.1669921875, -167.85,292.9) ">
				<g transform="matrix( 1, 0, 0, 1, 0,0) ">
					<g>
						<path id="Duplicate_Items_Folder_Symbol_1_copy_0_Layer0_0_1_STROKES" class="st12" d="M0-30.1v62"/>
					</g>
				</g>
				<g transform="matrix( 0, 1, -1, 0, 0.9,0.9) ">
					<g transform="matrix( 0, -1, 1, 0, -0.9,0.9) ">
						<path id="Duplicate_Items_Folder_Symbol_1_copy_0_Layer0_1_1_STROKES" class="st12" d="M0-30.1v62"/>
					</g>
				</g>
				<g transform="matrix( 0.86602783203125, 0.499969482421875, -0.499969482421875, 0.86602783203125, 0.35,0.2) ">
					<g transform="matrix( 0.8660430908203125, -0.499969482421875, 0.499969482421875, 0.8660430908203125, -0.4,0) ">
						<path id="Duplicate_Items_Folder_Symbol_1_copy_0_Layer0_2_1_STROKES" class="st12" d="M0-30.1l0,62"/>
					</g>
				</g>
				<g transform="matrix( -0.499969482421875, 0.86602783203125, -0.86602783203125, -0.499969482421875, 0.65,1.4) ">
					<g transform="matrix( -0.499969482421875, -0.8660430908203125, 0.8660430908203125, -0.499969482421875, -0.85,1.25) ">
						<path id="Duplicate_Items_Folder_Symbol_1_copy_0_Layer0_3_1_STROKES" class="st12" d="M0-30.1l0,62"/>
					</g>
				</g>
				<g transform="matrix( 0.5000152587890625, 0.8659820556640625, -0.8659820556640625, 0.5000152587890625, 0.65,0.55) ">
					<g transform="matrix( 0.500030517578125, -0.86602783203125, 0.86602783203125, 0.500030517578125, -0.8,0.25) ">
						<path id="Duplicate_Items_Folder_Symbol_1_copy_0_Layer0_4_1_STROKES" class="st12" d="M0-30.1l0,62"/>
					</g>
				</g>
				<g transform="matrix( -0.8659820556640625, 0.5000152587890625, -0.5000152587890625, -0.8659820556640625, 0.3,1.75) ">
					<g transform="matrix( -0.86602783203125, -0.500030517578125, 0.500030517578125, -0.86602783203125, -0.6,1.65) ">
						<path id="Duplicate_Items_Folder_Symbol_1_copy_0_Layer0_5_1_STROKES" class="st12" d="M0-30.1l0,62"/>
					</g>
				</g>
				<g transform="matrix( 1, 0, 0, 1, 0,0) ">
					<g>
						<path id="Duplicate_Items_Folder_Symbol_1_copy_0_Layer0_6_1_STROKES" class="st13" d="M31.6,0c0,8.7-3.1,16.2-9.3,22.3
							C16.2,28.5,8.7,31.6,0,31.6s-16.2-3.1-22.4-9.3c-6.2-6.2-9.2-13.6-9.2-22.3s3.1-16.2,9.2-22.4c6.2-6.2,13.7-9.2,22.4-9.2
							s16.2,3.1,22.3,9.2C28.5-16.2,31.6-8.7,31.6,0z"/>
					</g>
				</g>
				<g transform="matrix( 1.2884521484375, 0, 0, 1.2884521484375, -45.75,54.05) ">
					<g>
						<g id="Duplicate_Items_Folder_Symbol_1_copy_0_Layer0_7_FILL">
							<path d="M38-41.3c0-0.7-0.3-1.3-0.8-1.8c-0.5-0.5-1.1-0.7-1.8-0.8c-0.7,0-1.3,0.3-1.8,0.8c-0.5,0.5-0.8,1.1-0.8,1.8
								c0,0.7,0.3,1.3,0.8,1.8s1.1,0.8,1.8,0.8c0.7,0,1.3-0.3,1.8-0.8S38-40.5,38-41.3z"/>
						</g>
					</g>
				</g>
			</g>
			<g transform="matrix( 2.1669921875, 0, 0, 2.1669921875, 90.55,292.9) ">
				<g transform="matrix( 1, 0, 0, 1, 0,0) ">
					<g>
						<path id="Duplicate_Items_Folder_Symbol_1_copy_0_Layer0_0_1_STROKES_1_" class="st12" d="M0-30.1v62"/>
					</g>
				</g>
				<g transform="matrix( 0, 1, -1, 0, 0.9,0.9) ">
					<g transform="matrix( 0, -1, 1, 0, -0.9,0.9) ">
						<path id="Duplicate_Items_Folder_Symbol_1_copy_0_Layer0_1_1_STROKES_1_" class="st12" d="M0-30.1v62"/>
					</g>
				</g>
				<g transform="matrix( 0.86602783203125, 0.499969482421875, -0.499969482421875, 0.86602783203125, 0.35,0.2) ">
					<g transform="matrix( 0.8660430908203125, -0.499969482421875, 0.499969482421875, 0.8660430908203125, -0.4,0) ">
						<path id="Duplicate_Items_Folder_Symbol_1_copy_0_Layer0_2_1_STROKES_1_" class="st12" d="M0-30.1l0,62"/>
					</g>
				</g>
				<g transform="matrix( -0.499969482421875, 0.86602783203125, -0.86602783203125, -0.499969482421875, 0.65,1.4) ">
					<g transform="matrix( -0.499969482421875, -0.8660430908203125, 0.8660430908203125, -0.499969482421875, -0.85,1.25) ">
						<path id="Duplicate_Items_Folder_Symbol_1_copy_0_Layer0_3_1_STROKES_1_" class="st12" d="M0-30.1l0,62"/>
					</g>
				</g>
				<g transform="matrix( 0.5000152587890625, 0.8659820556640625, -0.8659820556640625, 0.5000152587890625, 0.65,0.55) ">
					<g transform="matrix( 0.500030517578125, -0.86602783203125, 0.86602783203125, 0.500030517578125, -0.8,0.25) ">
						<path id="Duplicate_Items_Folder_Symbol_1_copy_0_Layer0_4_1_STROKES_1_" class="st12" d="M0-30.1l0,62"/>
					</g>
				</g>
				<g transform="matrix( -0.8659820556640625, 0.5000152587890625, -0.5000152587890625, -0.8659820556640625, 0.3,1.75) ">
					<g transform="matrix( -0.86602783203125, -0.500030517578125, 0.500030517578125, -0.86602783203125, -0.6,1.65) ">
						<path id="Duplicate_Items_Folder_Symbol_1_copy_0_Layer0_5_1_STROKES_1_" class="st12" d="M0-30.1l0,62"/>
					</g>
				</g>
				<g transform="matrix( 1, 0, 0, 1, 0,0) ">
					<g>
						<path id="Duplicate_Items_Folder_Symbol_1_copy_0_Layer0_6_1_STROKES_1_" class="st13" d="M31.6,0c0,8.7-3.1,16.2-9.3,22.3
							C16.2,28.5,8.7,31.6,0,31.6s-16.2-3.1-22.4-9.3c-6.2-6.2-9.2-13.6-9.2-22.3s3.1-16.2,9.2-22.4c6.2-6.2,13.7-9.2,22.4-9.2
							s16.2,3.1,22.3,9.2C28.5-16.2,31.6-8.7,31.6,0z"/>
					</g>
				</g>
				<g transform="matrix( 1.2884521484375, 0, 0, 1.2884521484375, -45.75,54.05) ">
					<g>
						<g id="Duplicate_Items_Folder_Symbol_1_copy_0_Layer0_7_FILL_1_">
							<path d="M38-41.3c0-0.7-0.3-1.3-0.7-1.8c-0.5-0.5-1.1-0.7-1.8-0.8c-0.7,0-1.4,0.3-1.8,0.8c-0.5,0.5-0.8,1.1-0.8,1.8
								c0,0.7,0.3,1.3,0.8,1.8c0.5,0.5,1.1,0.8,1.8,0.8s1.3-0.3,1.8-0.8C37.7-39.9,38-40.5,38-41.3z"/>
						</g>
					</g>
				</g>
			</g>
		</g>
		<g id="Layer_10">
			<g transform="matrix( 1.60003662109375, 0, 0, 1.60003662109375, -353.65,-357.1) ">
				<g transform="matrix( 0.6249847412109375, 0, 0, 0.6249847412109375, 295,419.05) ">
					<g transform="matrix( 0.7079620361328125, -0.1896820068359375, 0.1896820068359375, 0.7079620361328125, -44.8,-34.8) ">
						<g transform="matrix( 1.95550537109375, 0, 0, 1.95550537109375, -60,-34.4) ">
							<g>
								<g id="Symbol_39_0_Layer0_0_FILL_9_">
									<path class="st1" d="M31.5,9.3V7.1c0-0.3-0.1-0.6-0.3-0.8C31.1,6.1,30.9,6,30.7,6c-0.2,0-0.5,0.1-0.7,0.4
										c-0.2,0.2-0.3,0.4-0.3,0.8v2.2c0,0.3,0.1,0.6,0.3,0.8c0.2,0.2,0.4,0.3,0.7,0.3s0.4-0.1,0.6-0.3C31.5,9.9,31.5,9.6,31.5,9.3
										z"/>
								</g>
							</g>
						</g>
						<g transform="matrix( 1.95550537109375, 0, 0, 1.95550537109375, -60,-34.4) ">
							<g>
								<g id="Symbol_39_0_Layer0_1_FILL_9_">
									<path class="st2" d="M46.2,1.3c-0.1-0.4-1-0.8-2.7-1.1c-1.9-0.4-3.8-0.3-5.5,0.2c-2.1,0.7-3.7,1.5-4.9,2.4
										c-1.3,1-1.7,2-1.4,3L46.2,1.3z"/>
								</g>
							</g>
						</g>
						<g transform="matrix( 1.95550537109375, 0, 0, 1.95550537109375, -60,-34.4) ">
							<g>
								<g id="Symbol_39_0_Layer0_2_FILL_9_">
									<path class="st3" d="M44.6,3.8c1.2-1.2,1.7-2,1.6-2.4L31.6,5.8v0c0.3,1,1.3,1.5,2.9,1.6c1.5,0.1,3.3-0.2,5.4-0.8
										C41.6,6.1,43.2,5.2,44.6,3.8z"/>
								</g>
							</g>
						</g>
						<g transform="matrix( 1.95550537109375, 0, 0, 1.95550537109375, -60,-34.4) ">
							<g>
								<g id="Symbol_39_0_Layer0_3_FILL_9_">
									<path class="st4" d="M46.7,19.7c-0.7-4-2.5-7.1-5.4-9.3c-3.2-2.4-6.7-2.7-10.6-0.9C26.8,7.6,23.2,8,20,10.4
										c-2.9,2.2-4.7,5.3-5.4,9.3c-0.7,4.2,0.2,7.7,2.7,10.6c2.8,3.4,7.3,5,13.3,4.9c6.1,0.1,10.5-1.5,13.3-4.9
										C46.5,27.4,47.4,23.9,46.7,19.7z"/>
								</g>
							</g>
						</g>
					</g>
					<g transform="matrix( 0.6347198486328125, 0.366455078125, -0.366455078125, 0.6347198486328125, 4.6,-31.7) ">
						<g transform="matrix( 1.95550537109375, 0, 0, 1.95550537109375, -60,-34.4) ">
							<g>
								<g id="Symbol_39_0_Layer0_0_FILL_10_">
									<path class="st1" d="M31.6,9.3V7.1c0-0.3-0.1-0.6-0.3-0.7C31.1,6.1,30.9,6,30.7,6c-0.2,0-0.5,0.1-0.7,0.3
										c-0.2,0.2-0.3,0.4-0.3,0.7l0,2.2c0,0.3,0.1,0.6,0.3,0.8c0.2,0.2,0.4,0.3,0.7,0.3s0.4-0.1,0.6-0.3
										C31.5,9.9,31.6,9.6,31.6,9.3z"/>
								</g>
							</g>
						</g>
						<g transform="matrix( 1.95550537109375, 0, 0, 1.95550537109375, -60,-34.4) ">
							<g>
								<g id="Symbol_39_0_Layer0_1_FILL_10_">
									<path class="st2" d="M46.2,1.3c-0.1-0.4-1-0.8-2.7-1.1c-1.9-0.4-3.8-0.3-5.5,0.2c-2.1,0.7-3.7,1.5-4.9,2.4
										c-1.3,1-1.7,1.9-1.5,2.9L46.2,1.3z"/>
								</g>
							</g>
						</g>
						<g transform="matrix( 1.95550537109375, 0, 0, 1.95550537109375, -60,-34.4) ">
							<g>
								<g id="Symbol_39_0_Layer0_2_FILL_10_">
									<path class="st3" d="M44.6,3.8c1.2-1.2,1.7-2,1.6-2.4L31.6,5.8v0c0.3,1,1.3,1.5,2.8,1.7c1.5,0.1,3.3-0.2,5.4-0.8
										C41.6,6.1,43.2,5.2,44.6,3.8z"/>
								</g>
							</g>
						</g>
						<g transform="matrix( 1.95550537109375, 0, 0, 1.95550537109375, -60,-34.4) ">
							<g>
								<g id="Symbol_39_0_Layer0_3_FILL_10_">
									<path class="st4" d="M46.7,19.7c-0.7-4-2.5-7.1-5.3-9.3c-3.2-2.4-6.7-2.7-10.6-0.9C26.8,7.6,23.2,8,20,10.4
										c-2.9,2.2-4.7,5.3-5.4,9.3c-0.7,4.2,0.2,7.7,2.7,10.6c2.8,3.4,7.3,5,13.3,4.9c6.1,0.1,10.5-1.5,13.3-4.9
										C46.5,27.4,47.4,23.9,46.7,19.7z"/>
								</g>
							</g>
						</g>
					</g>
					<g transform="matrix( 0.6347198486328125, 0.366455078125, -0.366455078125, 0.6347198486328125, -41.1,3.8) ">
						<g transform="matrix( 1.95550537109375, 0, 0, 1.95550537109375, -60,-34.4) ">
							<g>
								<g id="Symbol_39_0_Layer0_0_FILL_11_">
									<path class="st1" d="M31.6,9.3V7.1c0-0.3-0.1-0.6-0.2-0.8C31.1,6.1,30.9,6,30.7,6c-0.2,0-0.5,0.1-0.7,0.3
										c-0.2,0.2-0.3,0.4-0.3,0.8v2.2c0,0.3,0.1,0.6,0.2,0.8c0.2,0.2,0.4,0.3,0.7,0.3s0.4-0.1,0.6-0.3C31.5,9.9,31.6,9.6,31.6,9.3
										z"/>
								</g>
							</g>
						</g>
						<g transform="matrix( 1.95550537109375, 0, 0, 1.95550537109375, -60,-34.4) ">
							<g>
								<g id="Symbol_39_0_Layer0_1_FILL_11_">
									<path class="st2" d="M46.2,1.3c-0.1-0.4-1-0.8-2.7-1.1c-1.9-0.4-3.8-0.3-5.5,0.2c-2.1,0.7-3.7,1.5-4.9,2.4
										c-1.3,1-1.7,1.9-1.4,2.9L46.2,1.3z"/>
								</g>
							</g>
						</g>
						<g transform="matrix( 1.95550537109375, 0, 0, 1.95550537109375, -60,-34.4) ">
							<g>
								<g id="Symbol_39_0_Layer0_2_FILL_11_">
									<path class="st3" d="M44.6,3.8c1.2-1.2,1.7-2,1.6-2.4L31.6,5.8v0c0.3,1,1.3,1.6,2.8,1.7c1.5,0.1,3.3-0.2,5.4-0.8
										C41.6,6.1,43.2,5.2,44.6,3.8z"/>
								</g>
							</g>
						</g>
						<g transform="matrix( 1.95550537109375, 0, 0, 1.95550537109375, -60,-34.4) ">
							<g>
								<g id="Symbol_39_0_Layer0_3_FILL_11_">
									<path class="st4" d="M46.7,19.7c-0.7-4-2.4-7.1-5.3-9.3c-3.2-2.4-6.7-2.7-10.6-0.9C26.8,7.6,23.2,8,20,10.4
										c-2.9,2.2-4.7,5.3-5.4,9.3c-0.7,4.2,0.2,7.7,2.7,10.6c2.8,3.4,7.3,5,13.3,4.9c6.1,0.1,10.5-1.5,13.3-4.9
										C46.5,27.4,47.4,23.9,46.7,19.7z"/>
								</g>
							</g>
						</g>
					</g>
					<g transform="matrix( 0.6347198486328125, 0.366455078125, -0.366455078125, 0.6347198486328125, -37.85,37.95) ">
						<g transform="matrix( 1.95550537109375, 0, 0, 1.95550537109375, -60,-34.4) ">
							<g>
								<g id="Symbol_39_0_Layer0_0_FILL_12_">
									<path class="st1" d="M31.6,9.3V7.1c0-0.3-0.1-0.5-0.3-0.7C31.1,6.1,30.9,6,30.7,6c-0.2,0-0.5,0.1-0.7,0.3
										c-0.2,0.2-0.3,0.4-0.3,0.8l0,2.2c0,0.3,0.1,0.6,0.3,0.8c0.2,0.2,0.4,0.3,0.7,0.3s0.4-0.1,0.6-0.3
										C31.5,9.9,31.6,9.6,31.6,9.3z"/>
								</g>
							</g>
						</g>
						<g transform="matrix( 1.95550537109375, 0, 0, 1.95550537109375, -60,-34.4) ">
							<g>
								<g id="Symbol_39_0_Layer0_1_FILL_12_">
									<path class="st2" d="M46.2,1.3c-0.1-0.4-1-0.8-2.7-1.1c-1.9-0.4-3.8-0.3-5.5,0.2c-2.1,0.7-3.7,1.5-4.9,2.4
										c-1.3,1-1.7,1.9-1.5,2.9L46.2,1.3z"/>
								</g>
							</g>
						</g>
						<g transform="matrix( 1.95550537109375, 0, 0, 1.95550537109375, -60,-34.4) ">
							<g>
								<g id="Symbol_39_0_Layer0_2_FILL_12_">
									<path class="st3" d="M44.6,3.8c1.2-1.2,1.7-2,1.6-2.4L31.6,5.8v0c0.3,1,1.3,1.6,2.8,1.7c1.5,0.1,3.3-0.2,5.4-0.8
										C41.6,6.1,43.2,5.2,44.6,3.8z"/>
								</g>
							</g>
						</g>
						<g transform="matrix( 1.95550537109375, 0, 0, 1.95550537109375, -60,-34.4) ">
							<g>
								<g id="Symbol_39_0_Layer0_3_FILL_12_">
									<path class="st4" d="M46.7,19.7c-0.7-4-2.5-7.1-5.3-9.3c-3.2-2.4-6.7-2.7-10.6-0.9C26.8,7.6,23.2,8,20,10.4
										c-2.9,2.2-4.7,5.3-5.4,9.3c-0.7,4.2,0.2,7.7,2.7,10.6c2.8,3.4,7.3,5,13.3,4.9c6.1,0.1,10.5-1.5,13.3-4.9
										C46.5,27.4,47.4,23.9,46.7,19.7z"/>
								</g>
							</g>
						</g>
					</g>
					<g transform="matrix( 0.5874176025390625, -0.4382781982421875, 0.4382781982421875, 0.5874176025390625, -11.8,9.6) ">
						<g transform="matrix( 1.95550537109375, 0, 0, 1.95550537109375, -60,-34.4) ">
							<g>
								<g id="Symbol_39_0_Layer0_0_FILL_13_">
									<path class="st1" d="M31.5,9.3V7.1c0-0.3-0.1-0.5-0.3-0.7C31.1,6.1,30.9,6,30.7,6c-0.2,0-0.4,0.1-0.6,0.4
										c-0.2,0.2-0.3,0.4-0.3,0.8l0,2.2c0,0.3,0.1,0.6,0.3,0.8c0.2,0.2,0.4,0.3,0.7,0.3s0.4-0.1,0.6-0.3
										C31.5,9.9,31.5,9.6,31.5,9.3z"/>
								</g>
							</g>
						</g>
						<g transform="matrix( 1.95550537109375, 0, 0, 1.95550537109375, -60,-34.4) ">
							<g>
								<g id="Symbol_39_0_Layer0_1_FILL_13_">
									<path class="st2" d="M46.2,1.3c-0.1-0.4-1-0.8-2.7-1.1c-1.9-0.4-3.8-0.3-5.5,0.3c-2.1,0.7-3.7,1.5-4.9,2.4
										c-1.3,1-1.7,2-1.4,2.9L46.2,1.3z"/>
								</g>
							</g>
						</g>
						<g transform="matrix( 1.95550537109375, 0, 0, 1.95550537109375, -60,-34.4) ">
							<g>
								<g id="Symbol_39_0_Layer0_2_FILL_13_">
									<path class="st3" d="M44.6,3.8c1.2-1.2,1.7-2,1.6-2.4L31.6,5.8v0c0.3,1,1.3,1.5,2.8,1.6c1.5,0.1,3.3-0.2,5.4-0.9
										C41.6,6.1,43.2,5.2,44.6,3.8z"/>
								</g>
							</g>
						</g>
						<g transform="matrix( 1.95550537109375, 0, 0, 1.95550537109375, -60,-34.4) ">
							<g>
								<g id="Symbol_39_0_Layer0_3_FILL_13_">
									<path class="st4" d="M46.7,19.7c-0.7-4-2.5-7.1-5.4-9.3c-3.2-2.4-6.7-2.7-10.6-0.9c-3.9-1.8-7.5-1.4-10.7,1
										c-2.9,2.2-4.7,5.3-5.3,9.3c-0.7,4.2,0.2,7.7,2.7,10.6c2.8,3.4,7.3,5,13.3,4.9c6.1,0.1,10.5-1.5,13.3-4.9
										C46.5,27.4,47.4,23.9,46.7,19.7z"/>
								</g>
							</g>
						</g>
					</g>
					<g transform="matrix( 0.5874176025390625, -0.4382781982421875, 0.4382781982421875, 0.5874176025390625, -0.5,37.3) ">
						<g transform="matrix( 1.95550537109375, 0, 0, 1.95550537109375, -60,-34.4) ">
							<g>
								<g id="Symbol_39_0_Layer0_0_FILL_14_">
									<path class="st1" d="M31.5,9.3V7.1c0-0.3-0.1-0.5-0.3-0.7C31.1,6.1,30.9,6,30.7,6c-0.2,0-0.5,0.1-0.7,0.4
										c-0.2,0.2-0.3,0.4-0.3,0.7l0,2.2c0,0.3,0.1,0.6,0.3,0.8c0.2,0.2,0.4,0.3,0.7,0.3s0.4-0.1,0.6-0.3
										C31.5,9.9,31.5,9.6,31.5,9.3z"/>
								</g>
							</g>
						</g>
						<g transform="matrix( 1.95550537109375, 0, 0, 1.95550537109375, -60,-34.4) ">
							<g>
								<g id="Symbol_39_0_Layer0_1_FILL_14_">
									<path class="st2" d="M46.2,1.3c-0.1-0.4-1-0.8-2.7-1.1c-1.9-0.4-3.8-0.3-5.5,0.3c-2.1,0.7-3.7,1.5-4.9,2.4
										c-1.3,1-1.7,2-1.4,2.9L46.2,1.3z"/>
								</g>
							</g>
						</g>
						<g transform="matrix( 1.95550537109375, 0, 0, 1.95550537109375, -60,-34.4) ">
							<g>
								<g id="Symbol_39_0_Layer0_2_FILL_14_">
									<path class="st3" d="M44.6,3.8c1.2-1.2,1.7-2,1.6-2.4L31.6,5.8v0c0.3,1,1.3,1.5,2.9,1.6c1.5,0.1,3.3-0.2,5.4-0.9
										C41.6,6.1,43.2,5.2,44.6,3.8z"/>
								</g>
							</g>
						</g>
						<g transform="matrix( 1.95550537109375, 0, 0, 1.95550537109375, -60,-34.4) ">
							<g>
								<g id="Symbol_39_0_Layer0_3_FILL_14_">
									<path class="st4" d="M46.7,19.7c-0.7-4-2.5-7.1-5.4-9.3c-3.2-2.4-6.7-2.7-10.6-0.9c-3.9-1.8-7.5-1.4-10.7,1
										c-2.9,2.2-4.7,5.3-5.3,9.3c-0.7,4.2,0.2,7.7,2.7,10.6c2.8,3.4,7.3,5,13.3,4.9c6.1,0.1,10.5-1.5,13.3-4.9
										C46.5,27.4,47.4,23.9,46.7,19.7z"/>
								</g>
							</g>
						</g>
					</g>
					<g transform="matrix( 0.7252655029296875, 0.105438232421875, -0.105438232421875, 0.7252655029296875, 35.6,-3.45) ">
						<g transform="matrix( 1.95550537109375, 0, 0, 1.95550537109375, -60,-34.4) ">
							<g>
								<g id="Symbol_39_0_Layer0_0_FILL_15_">
									<path class="st1" d="M31.6,9.3l0-2.2c0-0.3-0.1-0.5-0.3-0.7C31.1,6.1,30.9,6,30.7,6c-0.2,0-0.5,0.1-0.7,0.3
										c-0.2,0.2-0.3,0.4-0.3,0.7v2.2c0,0.3,0.1,0.6,0.3,0.8c0.2,0.2,0.4,0.3,0.6,0.3s0.4-0.1,0.6-0.3C31.5,9.9,31.6,9.6,31.6,9.3
										z"/>
								</g>
							</g>
						</g>
						<g transform="matrix( 1.95550537109375, 0, 0, 1.95550537109375, -60,-34.4) ">
							<g>
								<g id="Symbol_39_0_Layer0_1_FILL_15_">
									<path class="st2" d="M46.2,1.3c-0.1-0.4-1-0.8-2.7-1.1c-1.9-0.4-3.8-0.3-5.5,0.2c-2.1,0.7-3.7,1.5-4.9,2.4
										c-1.3,1-1.7,1.9-1.4,2.9L46.2,1.3z"/>
								</g>
							</g>
						</g>
						<g transform="matrix( 1.95550537109375, 0, 0, 1.95550537109375, -60,-34.4) ">
							<g>
								<g id="Symbol_39_0_Layer0_2_FILL_15_">
									<path class="st3" d="M44.6,3.8c1.2-1.2,1.7-2,1.6-2.4L31.6,5.8v0c0.3,1,1.2,1.5,2.8,1.7c1.5,0.1,3.3-0.2,5.4-0.8
										C41.6,6.1,43.2,5.2,44.6,3.8z"/>
								</g>
							</g>
						</g>
						<g transform="matrix( 1.95550537109375, 0, 0, 1.95550537109375, -60,-34.4) ">
							<g>
								<g id="Symbol_39_0_Layer0_3_FILL_15_">
									<path class="st4" d="M46.7,19.7c-0.7-4-2.4-7.1-5.3-9.3c-3.2-2.4-6.7-2.7-10.6-0.9C26.8,7.6,23.2,8,20,10.4
										c-2.9,2.2-4.7,5.3-5.3,9.3c-0.7,4.2,0.2,7.7,2.7,10.6c2.8,3.4,7.3,5,13.3,4.9c6.1,0.1,10.5-1.5,13.3-4.9
										C46.5,27.4,47.4,23.9,46.7,19.7z"/>
								</g>
							</g>
						</g>
					</g>
					<g transform="matrix( 0.6347198486328125, 0.366455078125, -0.366455078125, 0.6347198486328125, 47.3,-31.7) ">
						<g transform="matrix( 1.95550537109375, 0, 0, 1.95550537109375, -60,-34.4) ">
							<g>
								<g id="Symbol_39_0_Layer0_0_FILL_16_">
									<path class="st1" d="M31.6,9.3V7.1c0-0.3-0.1-0.6-0.3-0.8C31.1,6.1,30.9,6,30.7,6c-0.2,0-0.5,0.1-0.7,0.4
										c-0.2,0.2-0.3,0.4-0.3,0.7v2.2c0,0.3,0.1,0.6,0.3,0.8c0.2,0.2,0.4,0.3,0.7,0.3c0.2,0,0.4-0.1,0.6-0.3
										C31.5,9.9,31.6,9.6,31.6,9.3z"/>
								</g>
							</g>
						</g>
						<g transform="matrix( 1.95550537109375, 0, 0, 1.95550537109375, -60,-34.4) ">
							<g>
								<g id="Symbol_39_0_Layer0_1_FILL_16_">
									<path class="st2" d="M46.2,1.3c-0.1-0.4-1-0.8-2.7-1.1c-1.9-0.4-3.8-0.3-5.5,0.2c-2.1,0.7-3.7,1.5-4.9,2.4
										c-1.3,1-1.7,1.9-1.4,2.9L46.2,1.3z"/>
								</g>
							</g>
						</g>
						<g transform="matrix( 1.95550537109375, 0, 0, 1.95550537109375, -60,-34.4) ">
							<g>
								<g id="Symbol_39_0_Layer0_2_FILL_16_">
									<path class="st3" d="M44.6,3.8c1.2-1.2,1.7-2,1.6-2.4L31.6,5.8v0c0.3,1,1.3,1.5,2.9,1.7c1.5,0.1,3.3-0.2,5.4-0.8
										C41.6,6.1,43.2,5.2,44.6,3.8z"/>
								</g>
							</g>
						</g>
						<g transform="matrix( 1.95550537109375, 0, 0, 1.95550537109375, -60,-34.4) ">
							<g>
								<g id="Symbol_39_0_Layer0_3_FILL_16_">
									<path class="st4" d="M46.7,19.7c-0.7-4-2.5-7.1-5.3-9.3c-3.2-2.4-6.7-2.7-10.6-0.9C26.8,7.6,23.2,8,20,10.4
										c-2.9,2.2-4.7,5.3-5.4,9.3c-0.7,4.2,0.2,7.7,2.7,10.6c2.8,3.4,7.3,5,13.3,4.9c6.1,0.1,10.5-1.5,13.3-4.9
										C46.5,27.4,47.4,23.9,46.7,19.7z"/>
								</g>
							</g>
						</g>
					</g>
					<g transform="matrix( 0.7252655029296875, 0.105438232421875, -0.105438232421875, 0.7252655029296875, 46,26.15) ">
						<g transform="matrix( 1.95550537109375, 0, 0, 1.95550537109375, -60,-34.4) ">
							<g>
								<g id="Symbol_39_0_Layer0_0_FILL_17_">
									<path class="st1" d="M31.6,9.3V7.1c0-0.3-0.1-0.5-0.3-0.7C31.1,6.1,30.9,6,30.7,6c-0.2,0-0.5,0.1-0.7,0.3
										c-0.2,0.2-0.3,0.4-0.3,0.7l0,2.2c0,0.3,0.1,0.6,0.3,0.8c0.2,0.2,0.4,0.3,0.7,0.3c0.2,0,0.4-0.1,0.6-0.3
										C31.5,9.9,31.6,9.6,31.6,9.3z"/>
								</g>
							</g>
						</g>
						<g transform="matrix( 1.95550537109375, 0, 0, 1.95550537109375, -60,-34.4) ">
							<g>
								<g id="Symbol_39_0_Layer0_1_FILL_17_">
									<path class="st2" d="M46.2,1.3c-0.1-0.4-1-0.8-2.7-1.1c-1.9-0.4-3.8-0.3-5.5,0.2c-2.1,0.7-3.7,1.5-4.9,2.4
										c-1.3,1-1.7,1.9-1.5,2.9L46.2,1.3z"/>
								</g>
							</g>
						</g>
						<g transform="matrix( 1.95550537109375, 0, 0, 1.95550537109375, -60,-34.4) ">
							<g>
								<g id="Symbol_39_0_Layer0_2_FILL_17_">
									<path class="st3" d="M44.6,3.8c1.2-1.2,1.7-2,1.6-2.4L31.6,5.8v0c0.3,1,1.3,1.5,2.8,1.6c1.5,0.1,3.3-0.2,5.4-0.8
										C41.6,6.1,43.2,5.2,44.6,3.8z"/>
								</g>
							</g>
						</g>
						<g transform="matrix( 1.95550537109375, 0, 0, 1.95550537109375, -60,-34.4) ">
							<g>
								<g id="Symbol_39_0_Layer0_3_FILL_17_">
									<path class="st4" d="M46.7,19.7c-0.7-4-2.4-7.1-5.3-9.3c-3.2-2.4-6.7-2.7-10.6-0.9C26.8,7.6,23.2,8,20,10.4
										c-2.9,2.2-4.7,5.3-5.4,9.3c-0.7,4.2,0.2,7.7,2.7,10.6c2.8,3.4,7.3,5,13.3,4.9c6.1,0.1,10.5-1.5,13.3-4.9
										C46.5,27.4,47.4,23.9,46.7,19.7z"/>
								</g>
							</g>
						</g>
					</g>
					<g transform="matrix( 1, 0, 0, 1, 281.15,-282.9) ">
						<g>
							<g id="Symbol_42_0_Layer0_9_MEMBER_0_FILL_1_">
								<path class="st5" d="M-212.3,289.8c3.3,0,5-1.7,5-5v-18.5c0-3.3-1.7-5-5-5h-134.9c-3.3,0-5,1.7-5,5v18.5c0,3.3,1.7,5,5,5
									H-212.3z"/>
							</g>
						</g>
						<g>
							<path id="Symbol_42_0_Layer0_9_MEMBER_0_1_STROKES_1_" class="st6" d="M-347.2,261.3h134.9c3.3,0,5,1.7,5,5v18.5
								c0,3.3-1.7,5-5,5h-134.9c-3.3,0-5-1.7-5-5v-18.5C-352.2,263-350.6,261.3-347.2,261.3z"/>
						</g>
					</g>
					<g transform="matrix( 1, 0, 0, 1, 281.15,-252.15) ">
						<g>
							<g id="Symbol_42_0_Layer0_9_MEMBER_1_FILL_1_">
								<path class="st5" d="M-212.3,289.8c3.3,0,5-1.7,5-5v-18.5c0-3.3-1.7-5-5-5h-134.9c-3.3,0-5,1.7-5,5v18.5c0,3.3,1.7,5,5,5
									H-212.3z"/>
							</g>
						</g>
						<g>
							<path id="Symbol_42_0_Layer0_9_MEMBER_1_1_STROKES_1_" class="st6" d="M-347.2,261.3h134.9c3.3,0,5,1.7,5,5v18.5
								c0,3.3-1.7,5-5,5h-134.9c-3.3,0-5-1.7-5-5v-18.5C-352.2,263-350.6,261.3-347.2,261.3z"/>
						</g>
					</g>
					<g transform="matrix( 1, 0, 0, 1, 281.15,-220.35) ">
						<g>
							<g id="Symbol_42_0_Layer0_9_MEMBER_2_FILL_1_">
								<path class="st5" d="M-212.3,289.8c3.3,0,5-1.7,5-5v-18.5c0-3.3-1.7-5-5-5h-134.9c-3.3,0-5,1.7-5,5v18.5c0,3.3,1.7,5,5,5
									H-212.3z"/>
							</g>
						</g>
						<g>
							<path id="Symbol_42_0_Layer0_9_MEMBER_2_1_STROKES_1_" class="st6" d="M-347.2,261.3h134.9c3.3,0,5,1.7,5,5v18.5
								c0,3.3-1.7,5-5,5h-134.9c-3.3,0-5-1.7-5-5v-18.5C-352.2,263-350.6,261.3-347.2,261.3z"/>
						</g>
					</g>
					<g transform="matrix( 0, 0.71282958984375, -0.71282958984375, 0, -40.15,17.85) ">
						<g transform="matrix( 1, 0, 0, 1, 279.8,-275.55) ">
							<g>
								<g id="Symbol_38_0_Layer0_0_FILL_2_">
									<path class="st5" d="M-212.3,289.8c3.3,0,5-1.7,5-5v-18.5c0-3.3-1.7-5-5-5h-134.9c-3.3,0-5,1.7-5,5v18.5c0,3.3,1.7,5,5,5
										H-212.3z"/>
								</g>
							</g>
							<g>
								<path id="Symbol_38_0_Layer0_0_1_STROKES_2_" class="st7" d="M-347.2,261.3h134.9c3.3,0,5,1.7,5,5v18.5c0,3.3-1.7,5-5,5
									h-134.9c-3.3,0-5-1.7-5-5v-18.5C-352.2,263-350.6,261.3-347.2,261.3z"/>
							</g>
						</g>
						<g transform="matrix( 1, 0, 0, 1, 0,0) ">
							<g>
								<g id="Symbol_38_0_Layer0_1_FILL_2_">
									<path class="st8" d="M-51-7.5c-1.5,0-2.7,0.6-3.8,1.6c-1.1,1.1-1.7,2.4-1.7,3.8c0.2-0.1,0.3,0.1,0.2,0.5
										c-0.1,0.8,0.1,1.7,0.7,2.5c0.9,1.3,2.2,2.1,3.8,2.4c1.6,0.3,3-0.1,4.3-1c0.9-0.7,1.5-1.7,1.9-2.8c0.3-1.2,0.3-2.3-0.1-3.3
										c-0.4-1.1-1-2-2-2.6C-48.7-7.2-49.8-7.5-51-7.5z"/>
								</g>
							</g>
						</g>
						<g transform="matrix( 1, 0, 0, 1, 0,0) ">
							<g>
								<g id="Symbol_38_0_Layer0_2_FILL_2_">
									<path class="st8" d="M5.9-0.9c0.6-1.3,0.7-2.5,0.3-3.8C5.8-5.9,5-6.9,3.9-7.7s-2.4-1-3.7-0.8c-1.3,0.2-2.4,0.8-3.3,1.8
										s-1.4,2.2-1.4,3.5c0.1,0,0.1,0.2,0.1,0.4c-0.1,0.4-0.1,0.7,0,1C-4.2-1.1-4-0.5-3.6-0.1c0.7,1.1,1.7,1.8,3,2.1
										C0.7,2.5,2,2.4,3.2,1.8S5.3,0.4,5.9-0.9z"/>
								</g>
							</g>
						</g>
						<g transform="matrix( 1, 0, 0, 1, 0,0) ">
							<g>
								<g id="Symbol_38_0_Layer0_3_FILL_2_">
									<path class="st8" d="M59.1-0.1c0.4-1,0.4-2,0.2-3.1s-0.7-2-1.5-2.7S56-7.2,54.9-7.4c-1.1-0.2-2.2-0.1-3.1,0.3
										c-1,0.4-1.8,1.1-2.5,2c-0.6,0.9-1,1.9-1,3c0.1,0.2,0.2,0.6,0.3,1.2c0.3,1.6,1.2,2.8,2.6,3.6c1.4,0.8,2.9,0.9,4.5,0.3
										C57.3,2.5,58.5,1.4,59.1-0.1z"/>
								</g>
							</g>
						</g>
					</g>
					<g transform="matrix( 0, 0.71282958984375, -0.71282958984375, 0, 43.85,17.85) ">
						<g transform="matrix( 1, 0, 0, 1, 279.8,-275.55) ">
							<g>
								<g id="Symbol_38_0_Layer0_0_FILL_3_">
									<path class="st5" d="M-212.3,289.8c3.3,0,5-1.7,5-5v-18.5c0-3.3-1.7-5-5-5h-134.9c-3.3,0-5,1.7-5,5v18.5c0,3.3,1.7,5,5,5
										H-212.3z"/>
								</g>
							</g>
							<g>
								<path id="Symbol_38_0_Layer0_0_1_STROKES_3_" class="st7" d="M-347.2,261.3h134.9c3.3,0,5,1.7,5,5v18.5c0,3.3-1.7,5-5,5
									h-134.9c-3.3,0-5-1.7-5-5v-18.5C-352.2,263-350.6,261.3-347.2,261.3z"/>
							</g>
						</g>
						<g transform="matrix( 1, 0, 0, 1, 0,0) ">
							<g>
								<g id="Symbol_38_0_Layer0_1_FILL_3_">
									<path class="st8" d="M-51-7.5c-1.5,0-2.7,0.6-3.8,1.6c-1.1,1.1-1.7,2.4-1.7,3.8c0.2-0.1,0.3,0.1,0.2,0.5
										c-0.1,0.8,0.1,1.7,0.7,2.5c0.9,1.3,2.2,2.1,3.8,2.4c1.6,0.3,3-0.1,4.3-1c0.9-0.7,1.5-1.7,1.9-2.8c0.3-1.2,0.3-2.3-0.1-3.3
										c-0.4-1.1-1-2-2-2.6C-48.7-7.2-49.8-7.5-51-7.5z"/>
								</g>
							</g>
						</g>
						<g transform="matrix( 1, 0, 0, 1, 0,0) ">
							<g>
								<g id="Symbol_38_0_Layer0_2_FILL_3_">
									<path class="st8" d="M5.9-0.9c0.6-1.3,0.7-2.5,0.3-3.8C5.8-5.9,5-6.9,3.9-7.7c-1.2-0.8-2.4-1-3.7-0.8
										c-1.3,0.2-2.4,0.8-3.3,1.8s-1.4,2.2-1.4,3.5c0.1,0,0.1,0.2,0.1,0.4c-0.1,0.4-0.1,0.7,0,1C-4.2-1.1-4-0.5-3.6-0.1
										c0.7,1.1,1.7,1.8,3,2.1C0.7,2.5,2,2.4,3.2,1.8S5.3,0.4,5.9-0.9z"/>
								</g>
							</g>
						</g>
						<g transform="matrix( 1, 0, 0, 1, 0,0) ">
							<g>
								<g id="Symbol_38_0_Layer0_3_FILL_3_">
									<path class="st8" d="M59.1-0.1c0.4-1,0.4-2,0.2-3.1s-0.7-2-1.5-2.7S56-7.2,54.9-7.4c-1.1-0.2-2.2-0.1-3.1,0.3
										c-1,0.4-1.8,1.1-2.5,2c-0.6,0.9-1,1.9-1,3c0.1,0.2,0.2,0.6,0.3,1.2c0.3,1.6,1.2,2.8,2.6,3.6c1.4,0.8,2.9,0.9,4.5,0.3
										C57.3,2.5,58.5,1.4,59.1-0.1z"/>
								</g>
							</g>
						</g>
					</g>
				</g>
			</g>
			<g transform="matrix( 1.60003662109375, 0, 0, 1.60003662109375, -353.65,-357.1) ">
				<g transform="matrix( 0.6249847412109375, 0, 0, 0.6249847412109375, 187.05,419.15) ">
					<g transform="matrix( 0.7516021728515625, 0, 0, 0.7516021728515625, -3.8,-76.5) ">
						<g>
							<g id="Symbol_41_0_Layer0_0_MEMBER_0_MEMBER_0_MEMBER_0_FILL">
								<path class="st14" d="M95.9,36.4L86,27c-1.2-1.2-2.7-1.7-4.4-1.5c-1.7,0.2-3.1,0.9-4.1,2.3l-39,54.7c-1.4,2-2,4.3-1.8,6.7
									c0.2,2.5,1.3,4.5,3,6.3l0,0.1L95.9,36.4z"/>
							</g>
						</g>
					</g>
					<g transform="matrix( 0.7515716552734375, 0, 0, 0.7515716552734375, -3.6,-76.35) ">
						<g>
							<g id="Symbol_41_0_Layer0_0_MEMBER_0_MEMBER_1_MEMBER_0_FILL">
								<path class="st15" d="M90.3,31.1l5.5,5.3c5.6-7.5,8.9-14.6,9.8-21.2c1.2-8-1.8-13-8.7-15.1L90.3,31.1z"/>
							</g>
						</g>
					</g>
					<g transform="matrix( 0.7515716552734375, 0, 0, 0.7515716552734375, -3.6,-76.35) ">
						<g>
							<g id="Symbol_41_0_Layer0_0_MEMBER_0_MEMBER_1_MEMBER_1_FILL">
								<path class="st16" d="M95.8,36.3l5.5,5.3l30.7-8.3c-2.5-6.9-7.7-9.5-15.6-7.9C109.9,26.6,103,30.3,95.8,36.3z"/>
							</g>
						</g>
					</g>
					<g transform="matrix( 0.7515716552734375, 0, 0, 0.7515716552734375, -3.6,-76.35) ">
						<g>
							<g id="Symbol_41_0_Layer0_0_MEMBER_0_MEMBER_1_MEMBER_2_FILL">
								<path class="st16" d="M120.9,10c-4.9-2.4-10.7,0-17.2,6.9c-5.4,5.8-9,11.3-10.7,16.7l3,2.7L120.9,10z"/>
							</g>
						</g>
					</g>
					<g transform="matrix( 0.7515716552734375, 0, 0, 0.7515716552734375, -3.6,-76.35) ">
						<g>
							<g id="Symbol_41_0_Layer0_0_MEMBER_0_MEMBER_1_MEMBER_3_FILL">
								<path class="st15" d="M98.7,39c4.5-1.7,9.3-5,14.6-9.9c7.3-6.8,9.8-13.2,7.6-19.1l-25,26.4L98.7,39z"/>
							</g>
						</g>
					</g>
					<g transform="matrix( 0.7516937255859375, 0, 0, 0.7516937255859375, -3.6,-76.35) ">
						<g>
							<g id="Symbol_41_0_Layer0_0_MEMBER_0_MEMBER_2_FILL">
								<path class="st14" d="M105.7,45.6l-9.7-9.2L39.8,95.6c1.8,1.7,3.9,2.5,6.4,2.6c2.4,0.1,4.6-0.6,6.5-2.1l52.6-41.9
									c1.3-1.1,2-2.5,2.1-4.2C107.5,48.3,106.9,46.8,105.7,45.6z"/>
							</g>
						</g>
					</g>
					<g transform="matrix( 0.7516937255859375, 0, 0, 0.7516937255859375, -3.6,-76.35) ">
						<g>
							<g id="Symbol_41_0_Layer0_0_MEMBER_0_MEMBER_3_FILL">
								<path class="st17" d="M82.8,55.4c0.5-0.4,0.7-1,0.6-1.6c0-0.6-0.3-1.2-0.8-1.6l-9.3-8.8c-0.5-0.4-1-0.6-1.6-0.6
									c-0.6,0-1.2,0.3-1.6,0.7c-0.4,0.5-0.7,1-0.7,1.6c0,0.6,0.3,1.2,0.8,1.6l9.3,8.8c0.5,0.4,1,0.7,1.6,0.7
									C81.8,56.1,82.4,55.9,82.8,55.4z"/>
							</g>
						</g>
					</g>
					<g transform="matrix( 0.7516937255859375, 0, 0, 0.7516937255859375, -3.6,-76.35) ">
						<g>
							<g id="Symbol_41_0_Layer0_0_MEMBER_0_MEMBER_4_FILL">
								<path class="st17" d="M69.1,68.7c0,0.6,0.3,1.2,0.8,1.6l4.4,4.3c0.5,0.5,1,0.7,1.7,0.7c0.6,0,1.2-0.3,1.6-0.8
									c0.4-0.4,0.7-1,0.7-1.7c0-0.6-0.2-1.2-0.7-1.6L73,66.9c-0.4-0.4-1-0.6-1.6-0.6c-0.6,0-1.2,0.3-1.6,0.7
									C69.3,67.5,69.1,68,69.1,68.7z"/>
							</g>
						</g>
					</g>
					<g transform="matrix( 0.7516937255859375, 0, 0, 0.7516937255859375, -3.6,-76.35) ">
						<g>
							<g id="Symbol_41_0_Layer0_0_MEMBER_0_MEMBER_5_FILL">
								<path class="st17" d="M49.6,70.7c0,0.6,0.2,1.2,0.7,1.6l4.5,4.2c0.5,0.4,1,0.6,1.6,0.6c0.7,0,1.2-0.2,1.7-0.7s0.6-1,0.6-1.6
									c0-0.6-0.2-1.2-0.7-1.6l-4.5-4.3c-0.5-0.4-1-0.6-1.6-0.6c-0.7,0-1.2,0.2-1.6,0.7C49.7,69.5,49.5,70,49.6,70.7z"/>
							</g>
						</g>
					</g>
					<g transform="matrix( -0.72601318359375, -0.194488525390625, -0.194488525390625, 0.72601318359375, 59,-59.4) ">
						<g>
							<g id="Symbol_41_0_Layer0_1_MEMBER_0_MEMBER_0_FILL">
								<path class="st18" d="M35.6,40.3l0.8-14.4l-5.8,0l0.8,14.4L35.6,40.3z"/>
							</g>
						</g>
					</g>
					<g transform="matrix( -0.72601318359375, -0.194488525390625, -0.194488525390625, 0.72601318359375, 59,-59.4) ">
						<g>
							<g id="Symbol_41_0_Layer0_1_MEMBER_0_MEMBER_1_FILL">
								<path class="st19" d="M18.9,30.7C8.8,30.1,2.6,34.3,0.5,43.4c-1.2,5.2-0.5,11.4,2,18.5c1.9,5.3,4.7,10.9,8.5,16.8
									c1.8,2.9,4.3,4.9,7.5,6c3.2,1.2,6.4,1.2,9.6,0.2l5.4-1.7l0-48.8C28.9,32.2,24,31,18.9,30.7z"/>
							</g>
						</g>
					</g>
					<g transform="matrix( 1.1883697509765625, 0.318359375, -0.318359375, 1.1883697509765625, 100.4,-382.9) ">
						<g>
							<g id="Symbol_41_0_Layer0_1_MEMBER_0_MEMBER_2_FILL">
								<path class="st19" d="M12.6,282.8c-2.2-0.7-4.3-1-6.2-1.1c-6.2-0.4-9.9,2.2-11.2,7.8c-0.7,3.2-0.3,7,1.2,11.3
									c1.2,3.3,2.9,6.7,5.2,10.3c1.1,1.8,2.6,3,4.5,3.6c1.9,0.7,3.9,0.8,5.8,0.1l3.2-1.1l0-29.8L12.6,282.8z"/>
							</g>
						</g>
					</g>
					<g transform="matrix( -0.7258758544921875, -0.194427490234375, -0.194427490234375, 0.7258758544921875, 59,-59.4) ">
						<g>
							<g id="Symbol_41_0_Layer0_1_MEMBER_0_MEMBER_3_MEMBER_0_FILL">
								<path class="st15" d="M21.8,16.1c-1.6,0.2-3,0.7-4.1,1.5l0.5,4c0.9,3,2.7,5.4,5.5,7.1c2.8,1.8,5.7,2.5,8.5,2.1
									c1.6-0.2,3-0.7,4.1-1.5c0.2-1.3,0.1-2.7-0.5-4.3c-0.9-2.8-2.7-5-5.6-6.8C27.5,16.5,24.7,15.7,21.8,16.1z"/>
							</g>
						</g>
					</g>
					<g transform="matrix( -0.72601318359375, 0.194488525390625, 0.194488525390625, 0.72601318359375, -8.4,-72.25) ">
						<g>
							<g id="Symbol_41_0_Layer0_1_MEMBER_1_MEMBER_0_FILL">
								<path class="st18" d="M35.6,40.3l0.8-14.4l-5.8,0l0.8,14.4L35.6,40.3z"/>
							</g>
						</g>
					</g>
					<g transform="matrix( -0.72601318359375, 0.194488525390625, 0.194488525390625, 0.72601318359375, -8.4,-72.25) ">
						<g>
							<g id="Symbol_41_0_Layer0_1_MEMBER_1_MEMBER_1_FILL">
								<path class="st19" d="M19,30.7C8.8,30.1,2.7,34.3,0.6,43.4C-0.6,48.6,0,54.8,2.6,61.9c1.9,5.3,4.7,10.9,8.5,16.7
									c1.8,2.9,4.3,4.9,7.5,6c3.2,1.2,6.4,1.2,9.6,0.2l5.4-1.8l0-48.8C28.9,32.2,24.1,31,19,30.7z"/>
							</g>
						</g>
					</g>
					<g transform="matrix( 1.1883697509765625, -0.318359375, 0.318359375, 1.1883697509765625, -133.95,-373.15) ">
						<g>
							<g id="Symbol_41_0_Layer0_1_MEMBER_1_MEMBER_2_FILL">
								<path class="st19" d="M12.6,282.8c-2.2-0.7-4.3-1-6.2-1.1c-6.2-0.4-9.9,2.2-11.2,7.8c-0.7,3.2-0.3,7,1.3,11.3
									c1.2,3.3,3,6.7,5.3,10.3c1.1,1.8,2.6,3,4.5,3.6c1.9,0.7,3.9,0.8,5.8,0.1l3.2-1.1l0-29.8L12.6,282.8z"/>
							</g>
						</g>
					</g>
					<g transform="matrix( -0.7258758544921875, 0.194427490234375, 0.194427490234375, 0.7258758544921875, -8.4,-72.25) ">
						<g>
							<g id="Symbol_41_0_Layer0_1_MEMBER_1_MEMBER_3_MEMBER_0_FILL">
								<path class="st15" d="M21.8,16.1c-1.6,0.2-3,0.7-4.1,1.4l0.5,4c0.9,3,2.7,5.4,5.5,7.2c2.8,1.8,5.7,2.5,8.5,2.2
									c1.6-0.2,3-0.7,4.1-1.4c0.2-1.3,0.1-2.7-0.4-4.3c-0.9-2.8-2.7-5-5.5-6.9C27.5,16.5,24.7,15.7,21.8,16.1z"/>
							</g>
						</g>
					</g>
					<g transform="matrix( -0.75152587890625, 0, 0, 0.75152587890625, 2.4,-71.95) ">
						<g>
							<g id="Symbol_41_0_Layer0_1_MEMBER_2_MEMBER_0_MEMBER_0_FILL">
								<path class="st14" d="M95.9,36.4L85.9,27c-1.2-1.2-2.7-1.7-4.4-1.5c-1.7,0.2-3,0.9-4,2.3l-39,54.7c-1.4,2-2,4.3-1.7,6.7
									c0.2,2.5,1.2,4.5,3,6.3l0,0.1L95.9,36.4z"/>
							</g>
						</g>
					</g>
					<g transform="matrix( -0.75152587890625, 0, 0, 0.75152587890625, 2.75,-71.95) ">
						<g>
							<g id="Symbol_41_0_Layer0_1_MEMBER_2_MEMBER_1_MEMBER_0_FILL">
								<path class="st15" d="M90.3,31.1l5.5,5.3c5.6-7.5,8.9-14.6,9.8-21.2c1.2-8-1.8-13-8.8-15.1L90.3,31.1z"/>
							</g>
						</g>
					</g>
					<g transform="matrix( -0.75152587890625, 0, 0, 0.75152587890625, 2.75,-71.95) ">
						<g>
							<g id="Symbol_41_0_Layer0_1_MEMBER_2_MEMBER_1_MEMBER_1_FILL">
								<path class="st16" d="M95.8,36.3l5.5,5.3l30.7-8.3c-2.5-6.9-7.8-9.5-15.6-7.9C109.9,26.6,103,30.3,95.8,36.3z"/>
							</g>
						</g>
					</g>
					<g transform="matrix( -0.75152587890625, 0, 0, 0.75152587890625, 2.75,-71.95) ">
						<g>
							<g id="Symbol_41_0_Layer0_1_MEMBER_2_MEMBER_1_MEMBER_2_FILL">
								<path class="st16" d="M120.9,10c-4.9-2.4-10.7,0-17.2,6.9c-5.4,5.8-9,11.3-10.7,16.7l2.9,2.8L120.9,10z"/>
							</g>
						</g>
					</g>
					<g transform="matrix( -0.75152587890625, 0, 0, 0.75152587890625, 2.75,-71.95) ">
						<g>
							<g id="Symbol_41_0_Layer0_1_MEMBER_2_MEMBER_1_MEMBER_3_FILL">
								<path class="st15" d="M98.6,39c4.5-1.7,9.3-5,14.6-9.9c7.3-6.8,9.8-13.2,7.6-19.1l-25,26.4L98.6,39z"/>
							</g>
						</g>
					</g>
					<g transform="matrix( -0.7516937255859375, 0, 0, 0.7516937255859375, 2.75,-71.95) ">
						<g>
							<g id="Symbol_41_0_Layer0_1_MEMBER_2_MEMBER_2_FILL">
								<path class="st14" d="M105.6,45.6l-9.7-9.2L39.8,95.6c1.8,1.7,3.9,2.5,6.4,2.6c2.4,0.1,4.6-0.6,6.5-2.1l52.6-41.9
									c1.3-1.1,2-2.5,2.1-4.2C107.5,48.3,106.9,46.8,105.6,45.6z"/>
							</g>
						</g>
					</g>
					<g transform="matrix( -0.7516937255859375, 0, 0, 0.7516937255859375, 2.75,-71.95) ">
						<g>
							<g id="Symbol_41_0_Layer0_1_MEMBER_2_MEMBER_3_FILL">
								<path class="st17" d="M82.8,55.4c0.5-0.4,0.7-1,0.6-1.7c0-0.6-0.3-1.2-0.8-1.6l-9.3-8.8c-0.5-0.4-1-0.6-1.7-0.6
									s-1.2,0.3-1.6,0.7c-0.4,0.5-0.6,1-0.6,1.6c0,0.6,0.3,1.2,0.7,1.6l9.3,8.8c0.5,0.4,1,0.7,1.6,0.7
									C81.8,56.1,82.4,55.9,82.8,55.4z"/>
							</g>
						</g>
					</g>
					<g transform="matrix( -0.7516937255859375, 0, 0, 0.7516937255859375, 2.75,-71.95) ">
						<g>
							<g id="Symbol_41_0_Layer0_1_MEMBER_2_MEMBER_4_FILL">
								<path class="st17" d="M69,68.7c0,0.6,0.3,1.2,0.7,1.6l4.4,4.2c0.5,0.5,1,0.7,1.7,0.7c0.6,0,1.2-0.3,1.6-0.8
									c0.4-0.4,0.7-1,0.7-1.6c0-0.6-0.2-1.2-0.7-1.6l-4.5-4.3c-0.4-0.4-1-0.6-1.6-0.6c-0.6,0-1.2,0.3-1.6,0.7
									C69.3,67.5,69,68,69,68.7z"/>
							</g>
						</g>
					</g>
					<g transform="matrix( -0.7516937255859375, 0, 0, 0.7516937255859375, 2.75,-71.95) ">
						<g>
							<g id="Symbol_41_0_Layer0_1_MEMBER_2_MEMBER_5_FILL">
								<path class="st17" d="M49.5,70.7c0,0.6,0.2,1.2,0.7,1.6l4.4,4.2c0.5,0.4,1,0.6,1.6,0.6c0.7,0,1.2-0.2,1.6-0.7
									c0.4-0.5,0.6-1,0.6-1.7c0-0.6-0.2-1.2-0.7-1.6l-4.5-4.3c-0.5-0.4-1-0.6-1.6-0.6c-0.7,0-1.2,0.2-1.6,0.7
									C49.7,69.5,49.5,70,49.5,70.7z"/>
							</g>
						</g>
					</g>
					<g transform="matrix( -0.3756256103515625, -0.650787353515625, -0.650787353515625, 0.3756256103515625, 68.35,2.5) ">
						<g>
							<g id="Symbol_41_0_Layer0_1_MEMBER_3_MEMBER_0_MEMBER_0_FILL">
								<path class="st14" d="M95.9,36.4l-10-9.4c-1.2-1.2-2.7-1.7-4.4-1.5c-1.7,0.2-3.1,1-4.1,2.4l-39,54.8c-1.4,2-2,4.3-1.7,6.7
									c0.2,2.5,1.3,4.5,3.1,6.3l0,0.1L95.9,36.4z"/>
							</g>
						</g>
					</g>
					<g transform="matrix( -0.37567138671875, -0.6507568359375, -0.6507568359375, 0.37567138671875, 68.55,2.75) ">
						<g>
							<g id="Symbol_41_0_Layer0_1_MEMBER_3_MEMBER_1_MEMBER_0_FILL">
								<path class="st15" d="M90.3,31.1l5.5,5.3c5.6-7.5,8.9-14.6,9.9-21.2c1.2-8-1.8-13-8.7-15.1L90.3,31.1z"/>
							</g>
						</g>
					</g>
					<g transform="matrix( -0.37567138671875, -0.6507568359375, -0.6507568359375, 0.37567138671875, 68.55,2.75) ">
						<g>
							<g id="Symbol_41_0_Layer0_1_MEMBER_3_MEMBER_1_MEMBER_1_FILL">
								<path class="st16" d="M95.8,36.3l5.5,5.3l30.7-8.3c-2.5-6.9-7.8-9.5-15.6-7.9C109.9,26.6,103,30.3,95.8,36.3z"/>
							</g>
						</g>
					</g>
					<g transform="matrix( -0.37567138671875, -0.6507568359375, -0.6507568359375, 0.37567138671875, 68.55,2.75) ">
						<g>
							<g id="Symbol_41_0_Layer0_1_MEMBER_3_MEMBER_1_MEMBER_2_FILL">
								<path class="st16" d="M120.9,10c-4.9-2.4-10.7-0.1-17.3,6.9c-5.4,5.8-9,11.3-10.7,16.7l3,2.8L120.9,10z"/>
							</g>
						</g>
					</g>
					<g transform="matrix( -0.37567138671875, -0.6507568359375, -0.6507568359375, 0.37567138671875, 68.55,2.75) ">
						<g>
							<g id="Symbol_41_0_Layer0_1_MEMBER_3_MEMBER_1_MEMBER_3_FILL">
								<path class="st15" d="M98.6,39c4.5-1.7,9.3-5,14.7-9.9c7.3-6.8,9.8-13.2,7.6-19.1l-25,26.4L98.6,39z"/>
							</g>
						</g>
					</g>
					<g transform="matrix( -0.375762939453125, -0.65087890625, -0.65087890625, 0.375762939453125, 68.55,2.75) ">
						<g>
							<g id="Symbol_41_0_Layer0_1_MEMBER_3_MEMBER_2_FILL">
								<path class="st14" d="M105.6,45.6l-9.7-9.2L39.8,95.6c1.8,1.7,3.9,2.5,6.4,2.6c2.4,0.1,4.6-0.6,6.5-2.1l52.6-41.9
									c1.3-1.1,2-2.5,2.1-4.2C107.5,48.3,106.9,46.8,105.6,45.6z"/>
							</g>
						</g>
					</g>
					<g transform="matrix( -0.375762939453125, -0.65087890625, -0.65087890625, 0.375762939453125, 68.55,2.75) ">
						<g>
							<g id="Symbol_41_0_Layer0_1_MEMBER_3_MEMBER_3_FILL">
								<path class="st17" d="M82.8,55.4c0.5-0.4,0.7-1,0.6-1.7c0-0.6-0.3-1.2-0.8-1.6l-9.3-8.8c-0.5-0.4-1-0.6-1.6-0.6
									c-0.6,0-1.2,0.3-1.6,0.7c-0.4,0.5-0.7,1-0.7,1.6c0,0.6,0.3,1.2,0.8,1.6l9.3,8.8c0.5,0.4,1,0.7,1.6,0.6
									C81.8,56.1,82.4,55.9,82.8,55.4z"/>
							</g>
						</g>
					</g>
					<g transform="matrix( -0.375762939453125, -0.65087890625, -0.65087890625, 0.375762939453125, 68.55,2.75) ">
						<g>
							<g id="Symbol_41_0_Layer0_1_MEMBER_3_MEMBER_4_FILL">
								<path class="st17" d="M69,68.7c0,0.6,0.3,1.2,0.8,1.6l4.4,4.2c0.5,0.5,1,0.7,1.7,0.7c0.6,0,1.2-0.3,1.6-0.8
									c0.4-0.4,0.7-1,0.7-1.6c0-0.6-0.2-1.2-0.7-1.6l-4.5-4.3c-0.4-0.4-1-0.6-1.6-0.6c-0.6,0-1.2,0.3-1.6,0.7
									C69.3,67.5,69,68,69,68.7z"/>
							</g>
						</g>
					</g>
					<g transform="matrix( -0.375762939453125, -0.65087890625, -0.65087890625, 0.375762939453125, 68.55,2.75) ">
						<g>
							<g id="Symbol_41_0_Layer0_1_MEMBER_3_MEMBER_5_FILL">
								<path class="st17" d="M49.5,70.7c0,0.6,0.2,1.2,0.7,1.6l4.5,4.2c0.5,0.4,1,0.6,1.6,0.6c0.7,0,1.2-0.2,1.7-0.7
									c0.4-0.5,0.6-1,0.6-1.7c0-0.6-0.2-1.2-0.7-1.6l-4.5-4.3c-0.5-0.4-1-0.6-1.6-0.6c-0.7,0-1.2,0.2-1.6,0.7
									C49.7,69.5,49.5,70,49.5,70.7z"/>
							</g>
						</g>
					</g>
					<g transform="matrix( 1.2305755615234375, 0, 0, 1.2305755615234375, -38.8,-385.9) ">
						<g>
							<g id="Symbol_41_0_Layer0_2_FILL">
								<path class="st8" d="M23.5,373.6c11.5,1.6,21.7,2.2,30.8,1.6c13.7-0.1,22.9-0.5,27.6-1.4c4.7-0.9,9.5-1.6,14.4-2.3
									c4.2,0.8,6.9,1,8.2,0.6c1.5-0.4,1.2-1.6-0.7-3.5c-3.9-3.3-5.9-5.1-6.2-5.5c-1.2-1.4-1.8-3.3-2-5.6c-0.1-0.7-0.1-1.5,0-2.3
									c0.4-4.2,0.6-7.4,0.6-9.6v-0.5c0.1-3.7-0.2-8.1-0.7-13.1c-0.6-5.2-1.7-11.5-3.5-18.8c-0.2,0-0.5,0-0.7,0h-0.1
									c-1.7,3.6-9,4.8-21.9,3.7c-12.9-1.1-28.1-0.9-45.4,0.7c-17.4,1.6-33.6,0.8-48.8-2.4c0.3,7,0.5,14.8,0.5,23.5
									c0,2.2,0.6,5.3,1.9,9.3c1.2,4,1.9,6.5,1.9,7.6c0,0.2-0.1,0.6-0.2,1.3c-0.3,1.3-0.9,3.5-1.6,6.6c-1.3,4.8-1.9,7.8-1.9,8.9
									c0,0.4,0.1,0.6,0.3,0.8c0.6,0.6,2.3,0.4,5-0.8c0.9-0.7,2.4-1.3,4.4-1.7c1.7-0.4,3.5-0.5,5.3-0.5
									C1.1,370.8,12,371.9,23.5,373.6 M94.5,290.2L94.5,290.2c0.6-1.2,1.2-2.5,1.6-3.9s-0.2-1.9-1.7-1.7c-1.5,0.2-3.3,0.7-5.3,1.5
									c-2,0.7-12.5,2.1-31.4,4c-19,1.9-33.6,2.8-43.7,2.8c-4.5-0.1-9-0.2-13.4-0.3c-8.7-0.2-14.9-0.5-18.5-1
									c-3.7-0.5-7-1.3-10-2.4c-3.1-1.1-4.3-1-3.7,0.3c0.6,1.3,1,2.2,1.3,2.7c0.2,0.5,1,1.4,2.2,2.6l0,0.1c0.1,0.1,0.3,0.3,0.4,0.4
									c-0.3,0.3-0.6,0.6-0.8,1v-0.1c-1.3,1.7-2.4,4.9-3.4,9.7c-0.9,4.3-1.3,7.1-1,8.3c-0.1,1.2,2.6,1,8.1-0.4h0
									c23.1,0.5,42.3,0.9,57.4,1.1c15.2,0.2,27.5-0.2,36.8-1.2h0c9.3-1.1,16.6-1.7,21.9-2h0c0.1,0,0.1,0,0.2,0
									c7.2,1.1,9.4-0.5,6.7-4.9v0c-1-2.2-2.1-4.9-3.1-8c-0.5-1.5-0.9-2.7-1.2-3.6h0c-0.3-0.9-0.4-1.5-0.4-1.9c0-0.4-0.1-0.8-0.2-1
									c0,0,0-0.1,0-0.1C93.6,291.8,93.9,291.2,94.5,290.2 M92.7,288.6c0.1,0.2,0.1,0.4,0,0.7h0c-1,1.9-1.3,3.1-1,3.4
									c0,0.1,0,0.2,0,0.3c0,0.4,0.1,1.2,0.5,2.4c0.3,0.9,0.7,2.2,1.2,3.8c1.1,3.2,2.1,6,3.2,8.2c0.2,0.4,0.2,0.7-0.1,1v0
									c-0.8,0.6-2.5,0.9-5.1,1h-0.1c-5.4,0.3-12.8,0.9-22.1,2c-9.2,1-21.4,1.4-36.5,1.2c-15.2-0.3-34.4-0.6-57.5-1.1h0
									c-1.9,0-3.9,0.1-5.8,0.1c-0.3-1.1,0.1-3.6,1-7.5c0.7-3.1,1.6-5.4,2.7-6.9c0.4-0.5,0.8-1,1.3-1.3c0.2-0.1,0.7-0.2,1.5-0.3
									c0.8-0.1,1.2-0.3,1.1-0.5c-0.1-0.2-0.6-0.5-1.7-0.9c-1.1-0.4-1.8-0.7-2.1-1v0c-0.5-0.5-0.8-0.8-1-1c0.3-0.2,0.9-0.2,1.6,0
									c1.5,0.3,4.2,0.8,7.9,1.3c3.7,0.5,10,0.9,18.8,1c4.5,0.1,8.9,0.2,13.4,0.3c10.2,0,24.8-0.9,43.9-2.8
									c18.6-1.9,29.6-3.3,32.8-4.1C91.7,288,92.3,288.2,92.7,288.6z"/>
								<path class="st20" d="M69.5,313.4L69.5,313.4c-9.3,1-21.6,1.4-36.8,1.2c-15.2-0.3-34.3-0.6-57.4-1.1c0,0.6,0.1,1.2,0.1,1.8
									c15.2,3.1,31.4,3.9,48.8,2.4c17.3-1.6,32.5-1.8,45.4-0.7c12.9,1.1,20.2-0.1,21.9-3.7h0.1c0.2,0,0.5,0,0.7,0
									c0-0.1,0-0.2,0-0.3c-0.1-0.6-0.3-1.1-0.4-1.6c-0.1,0-0.1,0-0.2,0h0C86,311.7,78.7,312.3,69.5,313.4z"/>
								<path class="st21" d="M92.7,289.3c0.1-0.3,0.1-0.5,0-0.7c-0.4-0.3-1-0.6-2-0.8c-3.3,0.9-14.2,2.3-32.8,4.1
									c-19.1,1.9-33.7,2.8-43.9,2.8c-4.5-0.1-9-0.2-13.4-0.3c-8.8-0.2-15.1-0.5-18.8-1c-3.7-0.5-6.4-1-7.9-1.3
									c-0.7-0.2-1.3-0.2-1.6,0c0.2,0.2,0.5,0.6,1,1v0c0.3,0.3,1,0.7,2.1,1c1.1,0.4,1.6,0.7,1.7,0.9c0,0.2-0.3,0.3-1.1,0.5
									c-0.8,0.1-1.3,0.2-1.5,0.3c-0.5,0.3-0.9,0.8-1.3,1.3c-1.2,1.6-2.1,3.9-2.7,6.9c-0.9,3.9-1.3,6.4-1,7.5c2,0,3.9-0.1,5.8-0.1
									h0c23.1,0.5,42.3,0.9,57.5,1.1c15.1,0.2,27.3-0.2,36.5-1.2c9.3-1.1,16.7-1.7,22.1-2h0.1c2.6-0.1,4.3-0.4,5.1-1v0
									c0.2-0.3,0.2-0.6,0.1-1c-1.1-2.2-2.1-5-3.2-8.2c-0.5-1.6-0.9-2.8-1.2-3.8c-0.4-1.2-0.5-2-0.5-2.4c0-0.1,0-0.2,0-0.3
									C91.3,292.3,91.7,291.2,92.7,289.3L92.7,289.3z"/>
							</g>
						</g>
					</g>
					<g transform="matrix( 1.23046875, 0, 0, 1.23046875, -86.05,-363.9) ">
						<g>
							<g id="Symbol_41_0_Layer0_2_MEMBER_0_FILL">
								<path class="st20" d="M39.7,344.6c-4.2-1.6-7.1-2.3-8.6-2.1c-1.5,0.2-3.5,1.7-5.9,4.5c-0.9,1-1.6,1.7-2.1,2.1
									c0.3,0.6,0.8,1.2,1.3,1.5c1,0.6,1.3,0.7,1,0.4c-0.3-0.3-0.2-0.8,0.3-1.3c0.5-0.5,3.9-0.6,10.1-0.2
									c6.3,0.4,14.8-1.4,25.5-5.3C51.1,346.1,43.9,346.2,39.7,344.6z"/>
							</g>
						</g>
					</g>
					<g transform="matrix( 1.23046875, 0, 0, 1.23046875, -86.05,-363.9) ">
						<g>
							<g id="Symbol_41_0_Layer0_2_MEMBER_1_FILL">
								<path class="st20" d="M131.3,321.9c0.4-7.5-1.2-15.5-4.8-23.9c2.1,7.5,2.7,11.8,1.9,13c-2.6,3.8-3.7,8.1-3.3,13.1
									c0.5,5,0.8,7.9,0.9,8.5c0.2,0.7,0.1,1.3-0.4,1.9c-0.6,0.7-1,1.7-1.2,3c-0.3,1.9,0,3.4,1,4.5c0.7,0.9,2.5,2.8,5.3,5.7
									c2.8,2.9,3.9,3.4,3.3,1.5c-0.6-1.9-1.3-4.2-2.2-6.8C130.9,339.8,130.7,332.9,131.3,321.9z"/>
							</g>
						</g>
					</g>
					<g transform="matrix( 1.23046875, 0, 0, 1.23046875, -86.05,-363.9) ">
						<g>
							<g id="Symbol_41_0_Layer0_2_MEMBER_2_FILL">
								<path class="st20" d="M70.9,350.4c-13.5,0.5-16.9,1.6-10.2,3.2c6.6,1.7,13.4,2.4,20.2,2.1c6.9-0.2,11.8-0.4,14.8-0.5
									c3-0.1,6.7-0.3,11-0.6c4.4-0.3,6.6-0.3,6.7,0c0.1,0.4,1.9,0.2,5.3-0.5c3.4-0.7,5.5-1.4,6.2-2c0.8-0.6,1.3-1.4,1.5-2.2
									c-1.7,0.5-5,0.9-9.7,0.9c-9.4,0.2-15.5-0.1-18.1-1.1c-2.7-1-4.2-1.4-4.6-1.3c-0.9,0.1-1.6,0.3-2.2,0.6
									C91.4,349.5,84.4,349.9,70.9,350.4z"/>
							</g>
						</g>
					</g>
					<g transform="matrix( 1.23046875, 0, 0, 1.23046875, -86.05,-363.9) ">
						<g>
							<g id="Symbol_41_0_Layer0_2_MEMBER_3_FILL">
								<path class="st20" d="M23.6,314.5c0-0.5-0.2-1.4-0.4-2.5c-0.2-1.1-1.2-3.2-2.8-6.4c-1.6-3.1-2.4-3.2-2.4-0.1
									c0,3.1-0.3,4.8-0.8,5.3c-1.1,0.9-1.7,2.4-1.6,4.5c0,0.6,0.1,1.4,0.3,2.5c0.1,1.1,0.2,1.9,0.2,2.5c0,0.3,0.1,0.8,0.1,1.5
									c0,0.6,0,1,0.1,1.4c0.1,0.5,0.4,1.1,0.8,2c0.4,0.8,1.4,4.2,3.1,10.2c1.7,6,2.2,6.9,1.4,2.8c-0.7-4.1-0.7-5.9,0.2-5.4
									c-3.2-11.5-3.7-17.3-1.5-17.5C22.4,315,23.5,314.8,23.6,314.5z"/>
							</g>
						</g>
					</g>
					<g transform="matrix( 1.23046875, 0, 0, 1.23046875, -86.05,-363.9) ">
						<g>
							<g id="Symbol_41_0_Layer0_2_MEMBER_4_FILL">
								<path class="st22" d="M113.1,278.9c16.2-3.3,20-4.3,11.4-3c-8.6,1.3-25.2,2.6-49.8,3.9c-24.7,1.4-40.1,1.2-46.2-0.5
									c-6.1-1.7-9.5-2.5-10.1-2.5c-0.9,0.1-1.7,0.4-2.4,1c-0.7,0.6-1.2,1.4-1.3,2.3c-0.2,1.2-1.3,3.4-3.3,6.6
									c3.7-1.2,6.2-1.9,7.5-2c0.8,0,3.3-0.2,7.4-0.5c0.5,0,1.1-0.1,1.9-0.1c6-0.3,21-0.4,45.1-0.3
									C83.6,283.8,96.9,282.2,113.1,278.9z"/>
							</g>
						</g>
					</g>
				</g>
			</g>
		</g>
		<g id="Layer_2_1_">
			<g transform="matrix( 2.1091156005859375, 0, 0, 1.52130126953125, 4.75,-33.1) ">
				<g>
					<g id="Option_bg_6_Layer1_0_FILL">
						<path class="st23" d="M2.2-94.7v-29.6h-22.2v29.6H2.2z"/>
					</g>
				</g>
			</g>
			<g transform="matrix( 2.1091156005859375, 0, -0.3098907470703125, 1.52130126953125, -136.65,-33.1) ">
				<g>
					<g id="Option_bg_6_Layer1_1_FILL">
						<path class="st23" d="M2.2-94.7l0-29.6h-22.2l0,29.6H2.2z"/>
					</g>
				</g>
			</g>
			<g transform="matrix( 2.1091156005859375, 0, -0.5521697998046875, 1.52130126953125, -270.1,-33.1) ">
				<g>
					<g id="Option_bg_6_Layer1_2_FILL">
						<path class="st23" d="M4.5-94.7l-2.3-29.6H-20l0,29.6H4.5z"/>
					</g>
				</g>
			</g>
			<g transform="matrix( -2.1091156005859375, 0, 0.3098907470703125, 1.52130126953125, 117.6,-33.1) ">
				<g>
					<g id="Option_bg_6_Layer1_3_FILL">
						<path class="st23" d="M2.2-94.7l0-29.6H-20l0,29.6H2.2z"/>
					</g>
				</g>
			</g>
			<g transform="matrix( 1, 0, 0, 1, 0,0) ">
				<g>
					<g id="Option_bg_6_Layer1_4_FILL">
						<path class="st23" d="M200.8-222l-0.1-0.3h-46.9l0.1,0.3H97.4l-0.1-0.3H50.4l0,0.3h-65v-0.3h-46.9v0.3h-55.9l0.1-0.3h-46.9
							l-0.1,0.3h-56.4l0.1-0.3h-46.9l-0.1,0.3h-27.6c-13.4,4.7-24.3,19.7-32.6,45c13.9,16.3,28.6,16.3,44.2,0
							c18.7,14.5,35.7,14.5,51.1,0c15.7,16.4,35.5,16.4,59.4,0c16.9,13.5,32.4,13.5,46.4,0c21.9,17.7,43.8,17.7,65.6,0
							c15.5,12,30.9,12,46.3,0c25,17.3,49.9,17.3,74.8,0c14,10.6,29.4,10.6,46.2,0c19.8,13.7,39.7,13.7,59.5,0
							c17,14.5,34,14.5,51.1,0c13.7,10.9,27.4,10.9,41.1,0c-8.3-25.3-19.2-40.3-32.6-45H200.8z"/>
					</g>
				</g>
			</g>
			<g transform="matrix( -2.1091156005859375, 0, 0.5521697998046875, 1.52130126953125, 251.1,-33.1) ">
				<g>
					<g id="Option_bg_6_Layer1_5_FILL">
						<path class="st23" d="M4.5-94.7l-2.3-29.6H-20l0,29.6H4.5z"/>
					</g>
				</g>
			</g>
			<g transform="matrix( 1, 0, 0, 0.70208740234375, -1.05,-66.95) ">
				<g>
					<g id="Option_bg_6_Layer1_6_FILL">
						<path class="st23" d="M258.9-156.7c-8.3-36-19.2-57.4-32.6-64.1h-520.7c-13.4,6.7-24.3,28.1-32.6,64.1H258.9z"/>
					</g>
				</g>
			</g>
			<g transform="matrix( 2.1091156005859375, 0, 0, 1.52130126953125, -19.25,-33.1) ">
				<g>
					<g id="Option_bg_6_Layer1_7_FILL">
						<path class="st24" d="M2.2-94.7v-29.6h-22.2v29.6C-12.6-86.6-5.2-86.6,2.2-94.7z"/>
					</g>
				</g>
			</g>
			<g transform="matrix( 2.1091156005859375, 0, -0.3098907470703125, 1.52130126953125, -160.65,-33.1) ">
				<g>
					<g id="Option_bg_6_Layer1_8_FILL">
						<path class="st24" d="M2.2-94.7l0-29.6H-20l0,29.6C-10.6-85.6-3.2-85.6,2.2-94.7z"/>
					</g>
				</g>
			</g>
			<g transform="matrix( 1, 0, 0, 1, 0,0) ">
				<g>
					<g id="Option_bg_6_Layer1_9_FILL">
						<path class="st24" d="M-220.8-222.2h-46.9l-16.3,45c18.9,14.8,36.2,14.8,51.7,0L-220.8-222.2z"/>
					</g>
				</g>
			</g>
			<g transform="matrix( -2.1091156005859375, 0, 0.3098907470703125, 1.52130126953125, 93.6,-33.1) ">
				<g>
					<g id="Option_bg_6_Layer1_10_FILL">
						<path class="st24" d="M2.2-94.7l0-29.6H-20l0,29.6C-10.9-87.6-3.5-87.6,2.2-94.7z"/>
					</g>
				</g>
			</g>
			<g transform="matrix( -2.1091156005859375, 0, 0.5521697998046875, 1.52130126953125, 227.1,-33.1) ">
				<g>
					<g id="Option_bg_6_Layer1_11_FILL">
						<path class="st24" d="M4.5-94.7l-2.3-29.6H-20l0,29.6C-9.3-85-1.2-85,4.5-94.7z"/>
					</g>
				</g>
			</g>
		</g>
	</g>
</g>
</svg>
